<?xml version="1.0" encoding="UTF-8"?>
<svg width="24px" height="25px" viewBox="0 0 24 25" version="1.1" xmlns="http://www.w3.org/2000/svg" xmlns:xlink="http://www.w3.org/1999/xlink">
    <title>Logo/Symbol/New</title>
    <desc>Created with Sketch.</desc>
    <defs></defs>
    <g id="Logo/Symbol/New" stroke="none" stroke-width="1" fill="none" fill-rule="evenodd">
        <path d="M12.7767562,11.6822831 C12.8752728,11.6353441 12.9784718,11.5929505 13.0863534,11.555102 C13.4392567,11.4312919 13.8248304,11.3693878 14.2430861,11.3693878 C14.7397647,11.3693878 15.2190089,11.4688766 15.6808329,11.6678571 C16.1426569,11.8668377 16.5391225,12.1343521 16.8702416,12.4704082 L16.0990865,13.4520408 C15.8202494,13.2221077 15.5327029,13.040817 15.2364384,12.9081633 C14.940174,12.7755095 14.6090598,12.7091837 14.2430861,12.7091837 C13.833544,12.7091837 13.5067867,12.799829 13.2628042,12.9811224 C13.0188217,13.1624159 12.8968323,13.4122433 12.8968323,13.7306122 C12.8968323,13.8986403 12.9338648,14.0423463 13.0079309,14.1617347 C13.081997,14.281123 13.1822026,14.3872444 13.3085507,14.480102 C13.4348987,14.5729596 13.5808504,14.6569724 13.7464099,14.7321429 C13.9119695,14.8073133 14.0818833,14.8802718 14.2561565,14.9510204 L15.4194244,15.4418367 C15.6721205,15.5479597 15.9030291,15.671768 16.1121569,15.8132653 C16.3212848,15.9547626 16.5020905,16.1183664 16.6545796,16.3040816 C16.8070686,16.4897968 16.9268797,16.7042505 17.0140163,16.947449 C17.1011529,17.1906475 17.1447205,17.471427 17.1447205,17.7897959 C17.1447205,18.1435392 17.0750123,18.4751685 16.9355937,18.7846939 C16.7961752,19.0942192 16.5935856,19.3661553 16.3278189,19.6005102 C16.0620523,19.8348651 15.7396517,20.0205775 15.3606075,20.1576531 C14.9815632,20.2947286 14.5524219,20.3632653 14.0731706,20.3632653 C13.498069,20.3632653 12.9425814,20.2527222 12.4066913,20.0316327 C11.8708012,19.8105431 11.3980922,19.4966007 10.9885502,19.0897959 L11.8773391,18.0418367 C12.1823172,18.3336749 12.5308584,18.5702372 12.9229731,18.7515306 C13.3150878,18.932824 13.7071967,19.0234694 14.0993114,19.0234694 C14.5872764,19.0234694 14.9576014,18.9217697 15.2102976,18.7183673 C15.4629937,18.514965 15.5893399,18.2452398 15.5893399,17.9091837 C15.5893399,17.732312 15.5566642,17.5819734 15.4913117,17.4581633 C15.4259593,17.3343531 15.3344672,17.2260209 15.2168328,17.1331633 C15.0991984,17.0403057 14.9597819,16.954082 14.7985792,16.8744898 C14.6373764,16.7948976 14.4609275,16.7153065 14.2692269,16.6357143 L13.0928886,16.1183673 C12.8837608,16.0299315 12.6768145,15.9193884 12.4720434,15.7867347 C12.2672724,15.654081 12.0821099,15.4948989 11.9165504,15.3091837 C11.7509908,15.1234685 11.6181095,14.906804 11.5179024,14.6591837 C11.4176953,14.4115634 11.3675925,14.128573 11.3675925,13.8102041 C11.3675925,13.4653044 11.4394791,13.1447294 11.5832545,12.8484694 C11.6336096,12.744709 11.6906446,12.6455595 11.7543598,12.5510204 L11.6078872,12.5510204 L9.29442194,8.46530612 L8.06580195,10.0173469 L8.06580195,12.5510204 L6.5496326,12.5510204 L6.5496326,3.8755102 L8.06580195,3.8755102 L8.06580195,7.81530612 L8.10501323,7.81530612 L11.1504223,3.8755102 L12.8365072,3.8755102 L10.2093517,7.25816327 L12.7767562,11.6822831 Z M24,0 L18.5158026,25 L5.48419735,25 L0,0 L24,0 Z M1.88081853,1.53061224 L6.69348152,23.4693878 L17.3065185,23.4693878 L22.1191815,1.53061224 L1.88081853,1.53061224 Z" id="Combined-Shape" fill="#59ACFF" fill-rule="nonzero"></path>
    </g>
</svg>