<?xml version="1.0" encoding="UTF-8"?>
<svg width="132px" height="132px" viewBox="0 0 132 132" version="1.1" xmlns="http://www.w3.org/2000/svg" xmlns:xlink="http://www.w3.org/1999/xlink">
    <!-- Generator: Sketch 51.3 (57544) - http://www.bohemiancoding.com/sketch -->
    <title>Pattern Copy</title>
    <desc>Created with Sketch.</desc>
    <defs>
        <path d="M6,12 C2.6862915,12 0,9.3137085 0,6 C0,2.6862915 2.6862915,0 6,0 C9.3137085,0 12,2.6862915 12,6 C12,9.3137085 9.3137085,12 6,12 Z M6,60 C2.6862915,60 0,57.3137085 0,54 C0,50.6862915 2.6862915,48 6,48 C9.3137085,48 12,50.6862915 12,54 C12,57.3137085 9.3137085,60 6,60 Z M6,108 C2.6862915,108 0,105.313708 0,102 C0,98.6862915 2.6862915,96 6,96 C9.3137085,96 12,98.6862915 12,102 C12,105.313708 9.3137085,108 6,108 Z M54,12 C50.6862915,12 48,9.3137085 48,6 C48,2.6862915 50.6862915,0 54,0 C57.3137085,0 60,2.6862915 60,6 C60,9.3137085 57.3137085,12 54,12 Z M102,12 C98.6862915,12 96,9.3137085 96,6 C96,2.6862915 98.6862915,0 102,0 C105.313708,0 108,2.6862915 108,6 C108,9.3137085 105.313708,12 102,12 Z M54,60 C50.6862915,60 48,57.3137085 48,54 C48,50.6862915 50.6862915,48 54,48 C57.3137085,48 60,50.6862915 60,54 C60,57.3137085 57.3137085,60 54,60 Z M54,108 C50.6862915,108 48,105.313708 48,102 C48,98.6862915 50.6862915,96 54,96 C57.3137085,96 60,98.6862915 60,102 C60,105.313708 57.3137085,108 54,108 Z M102,60 C98.6862915,60 96,57.3137085 96,54 C96,50.6862915 98.6862915,48 102,48 C105.313708,48 108,50.6862915 108,54 C108,57.3137085 105.313708,60 102,60 Z M102,108 C98.6862915,108 96,105.313708 96,102 C96,98.6862915 98.6862915,96 102,96 C105.313708,96 108,98.6862915 108,102 C108,105.313708 105.313708,108 102,108 Z M30,12 C26.6862915,12 24,9.3137085 24,6 C24,2.6862915 26.6862915,0 30,0 C33.3137085,0 36,2.6862915 36,6 C36,9.3137085 33.3137085,12 30,12 Z M30,60 C26.6862915,60 24,57.3137085 24,54 C24,50.6862915 26.6862915,48 30,48 C33.3137085,48 36,50.6862915 36,54 C36,57.3137085 33.3137085,60 30,60 Z M30,108 C26.6862915,108 24,105.313708 24,102 C24,98.6862915 26.6862915,96 30,96 C33.3137085,96 36,98.6862915 36,102 C36,105.313708 33.3137085,108 30,108 Z M78,12 C74.6862915,12 72,9.3137085 72,6 C72,2.6862915 74.6862915,0 78,0 C81.3137085,0 84,2.6862915 84,6 C84,9.3137085 81.3137085,12 78,12 Z M126,12 C122.686292,12 120,9.3137085 120,6 C120,2.6862915 122.686292,0 126,0 C129.313708,0 132,2.6862915 132,6 C132,9.3137085 129.313708,12 126,12 Z M78,60 C74.6862915,60 72,57.3137085 72,54 C72,50.6862915 74.6862915,48 78,48 C81.3137085,48 84,50.6862915 84,54 C84,57.3137085 81.3137085,60 78,60 Z M78,108 C74.6862915,108 72,105.313708 72,102 C72,98.6862915 74.6862915,96 78,96 C81.3137085,96 84,98.6862915 84,102 C84,105.313708 81.3137085,108 78,108 Z M126,60 C122.686292,60 120,57.3137085 120,54 C120,50.6862915 122.686292,48 126,48 C129.313708,48 132,50.6862915 132,54 C132,57.3137085 129.313708,60 126,60 Z M126,108 C122.686292,108 120,105.313708 120,102 C120,98.6862915 122.686292,96 126,96 C129.313708,96 132,98.6862915 132,102 C132,105.313708 129.313708,108 126,108 Z M6,36 C2.6862915,36 0,33.3137085 0,30 C0,26.6862915 2.6862915,24 6,24 C9.3137085,24 12,26.6862915 12,30 C12,33.3137085 9.3137085,36 6,36 Z M6,84 C2.6862915,84 0,81.3137085 0,78 C0,74.6862915 2.6862915,72 6,72 C9.3137085,72 12,74.6862915 12,78 C12,81.3137085 9.3137085,84 6,84 Z M6,132 C2.6862915,132 0,129.313708 0,126 C0,122.686292 2.6862915,120 6,120 C9.3137085,120 12,122.686292 12,126 C12,129.313708 9.3137085,132 6,132 Z M54,36 C50.6862915,36 48,33.3137085 48,30 C48,26.6862915 50.6862915,24 54,24 C57.3137085,24 60,26.6862915 60,30 C60,33.3137085 57.3137085,36 54,36 Z M102,36 C98.6862915,36 96,33.3137085 96,30 C96,26.6862915 98.6862915,24 102,24 C105.313708,24 108,26.6862915 108,30 C108,33.3137085 105.313708,36 102,36 Z M54,84 C50.6862915,84 48,81.3137085 48,78 C48,74.6862915 50.6862915,72 54,72 C57.3137085,72 60,74.6862915 60,78 C60,81.3137085 57.3137085,84 54,84 Z M54,132 C50.6862915,132 48,129.313708 48,126 C48,122.686292 50.6862915,120 54,120 C57.3137085,120 60,122.686292 60,126 C60,129.313708 57.3137085,132 54,132 Z M102,84 C98.6862915,84 96,81.3137085 96,78 C96,74.6862915 98.6862915,72 102,72 C105.313708,72 108,74.6862915 108,78 C108,81.3137085 105.313708,84 102,84 Z M102,132 C98.6862915,132 96,129.313708 96,126 C96,122.686292 98.6862915,120 102,120 C105.313708,120 108,122.686292 108,126 C108,129.313708 105.313708,132 102,132 Z M30,36 C26.6862915,36 24,33.3137085 24,30 C24,26.6862915 26.6862915,24 30,24 C33.3137085,24 36,26.6862915 36,30 C36,33.3137085 33.3137085,36 30,36 Z M30,84 C26.6862915,84 24,81.3137085 24,78 C24,74.6862915 26.6862915,72 30,72 C33.3137085,72 36,74.6862915 36,78 C36,81.3137085 33.3137085,84 30,84 Z M30,132 C26.6862915,132 24,129.313708 24,126 C24,122.686292 26.6862915,120 30,120 C33.3137085,120 36,122.686292 36,126 C36,129.313708 33.3137085,132 30,132 Z M78,36 C74.6862915,36 72,33.3137085 72,30 C72,26.6862915 74.6862915,24 78,24 C81.3137085,24 84,26.6862915 84,30 C84,33.3137085 81.3137085,36 78,36 Z M126,36 C122.686292,36 120,33.3137085 120,30 C120,26.6862915 122.686292,24 126,24 C129.313708,24 132,26.6862915 132,30 C132,33.3137085 129.313708,36 126,36 Z M78,84 C74.6862915,84 72,81.3137085 72,78 C72,74.6862915 74.6862915,72 78,72 C81.3137085,72 84,74.6862915 84,78 C84,81.3137085 81.3137085,84 78,84 Z M78,132 C74.6862915,132 72,129.313708 72,126 C72,122.686292 74.6862915,120 78,120 C81.3137085,120 84,122.686292 84,126 C84,129.313708 81.3137085,132 78,132 Z M126,84 C122.686292,84 120,81.3137085 120,78 C120,74.6862915 122.686292,72 126,72 C129.313708,72 132,74.6862915 132,78 C132,81.3137085 129.313708,84 126,84 Z M126,132 C122.686292,132 120,129.313708 120,126 C120,122.686292 122.686292,120 126,120 C129.313708,120 132,122.686292 132,126 C132,129.313708 129.313708,132 126,132 Z" id="path-1"></path>
    </defs>
    <g id="Key-Stonework" stroke="none" stroke-width="1" fill="none" fill-rule="evenodd" opacity="0.200000003">
        <g id="Desktop/Landing-page" transform="translate(-489.000000, -323.000000)">
            <g id="Pattern" transform="translate(489.000000, 323.000000)">
                <g id="Colour/White">
                    <mask id="mask-2" fill="white">
                        <use xlink:href="#path-1"></use>
                    </mask>
                    <use id="Mask" fill="#FFFFFF" xlink:href="#path-1"></use>
                    <g mask="url(#mask-2)" fill="#FFFFFF" id="Rectangle">
                        <rect x="0" y="0" width="132" height="132"></rect>
                    </g>
                </g>
            </g>
        </g>
    </g>
</svg>