<?xml version="1.0" encoding="UTF-8"?>
<svg width="689px" height="388px" viewBox="0 0 689 388" version="1.1" xmlns="http://www.w3.org/2000/svg" xmlns:xlink="http://www.w3.org/1999/xlink">
    <!-- Generator: Sketch 51.3 (57544) - http://www.bohemiancoding.com/sketch -->
    <title>Illustration 1</title>
    <desc>Created with Sketch.</desc>
    <defs></defs>
    <g id="Illustration-1" stroke="none" stroke-width="1" fill="none" fill-rule="evenodd">
        <g id="Group">
            <rect id="Rectangle-10" fill="#F5F9FF" x="0" y="0" width="689" height="388"></rect>
            <g id="Portico-A/Full" transform="translate(23.000000, 24.000000)" stroke="#CBD8F2">
                <rect id="Rectangle-12-Copy-8" fill="#FFFFFF" fill-rule="evenodd" x="25.59375" y="30.2514507" width="87.9375" height="36.827853"></rect>
                <rect id="Rectangle-12-Copy-9" fill="#FFFFFF" fill-rule="evenodd" x="201.46875" y="30.2514507" width="87.9375" height="36.827853"></rect>
                <polygon id="Rectangle-12-Copy" fill="#FFFFFF" fill-rule="evenodd" transform="translate(157.500000, 27.620890) scale(1, -1) translate(-157.500000, -27.620890) " points="25.59375 24.9903288 289.40625 24.9903288 292.6875 30.2514507 22.3125 30.2514507"></polygon>
                <polygon id="Rectangle-12-Copy-2" fill="#FFFFFF" fill-rule="evenodd" transform="translate(157.500000, 23.017408) scale(1, -1) translate(-157.500000, -23.017408) " points="10.171875 21.0444874 304.828125 21.0444874 304.828125 24.9903288 10.171875 24.9903288"></polygon>
                <polygon id="Rectangle-12-Copy-3" fill="#FFFFFF" fill-rule="evenodd" transform="translate(157.500000, 17.098646) scale(1, -1) translate(-157.500000, -17.098646) " points="10.171875 13.1528046 304.828125 13.1528046 309.421875 21.0444874 5.578125 21.0444874"></polygon>
                <polygon id="Rectangle-12-Copy-4" fill="#FFFFFF" fill-rule="evenodd" transform="translate(157.500000, 6.576402) scale(1, -1) translate(-157.500000, -6.576402) " points="5.25 2.63056093 309.75 2.63056093 314.34375 10.5222437 0.65625 10.5222437"></polygon>
                <rect id="Rectangle-14" fill="#FFFFFF" fill-rule="evenodd" x="17.71875" y="67.0793037" width="40.03125" height="2.63056093"></rect>
                <rect id="Rectangle-14-Copy" fill="#FFFFFF" fill-rule="evenodd" x="19.03125" y="69.7098646" width="38.0625" height="2.63056093"></rect>
                <rect id="Rectangle-14-Copy-2" fill="#FFFFFF" fill-rule="evenodd" x="24.9375" y="78.9168279" width="26.25" height="2.63056093"></rect>
                <rect id="Rectangle-14-Copy-5" fill="#FFFFFF" fill-rule="evenodd" x="22.96875" y="81.5473888" width="30.1875" height="3.28820116" rx="1.64410058"></rect>
                <polygon id="Rectangle-14-Copy-3" fill="#FFFFFF" fill-rule="evenodd" points="19.6875 72.3404255 56.4375 72.3404255 51.1875 78.9168279 24.9375 78.9168279"></polygon>
                <polygon id="Rectangle-13" fill="#FFFFFF" fill-rule="evenodd" points="24.9375 84.8355899 51.1875 84.8355899 54.46875 320.928433 21.65625 320.928433"></polygon>
                <rect id="Rectangle-15" fill="#FFFFFF" fill-rule="evenodd" x="21.65625" y="320.928433" width="32.8125" height="2.63056093"></rect>
                <rect id="Rectangle-15-Copy-2" fill="#FFFFFF" fill-rule="evenodd" x="21.65625" y="326.847195" width="32.8125" height="2.63056093"></rect>
                <path d="M21.0625,329.477756 L55.0625,329.477756 C57.271639,329.477756 59.0625,331.268617 59.0625,333.477756 L59.0625,334.738878 L17.0625,334.738878 L17.0625,333.477756 C17.0625,331.268617 18.853361,329.477756 21.0625,329.477756 Z" id="Rectangle-15-Copy-3" fill="#FFFFFF" fill-rule="evenodd"></path>
                <rect id="Rectangle-15-Copy-4" fill="#FFFFFF" fill-rule="evenodd" x="17.0625" y="334.738878" width="42" height="5.26112186"></rect>
                <rect id="Rectangle-15-Copy" fill="#FFFFFF" fill-rule="evenodd" x="19.6875" y="323.558994" width="36.75" height="3.28820116" rx="1.64410058"></rect>
                <path d="M22.3125,243.984526 L53.8125,243.984526" id="Line-3" fill="#FFFFFF" fill-rule="evenodd"></path>
                <path d="M23.625,165.067698 L52.5,165.067698" id="Line-3-Copy" fill="#FFFFFF" fill-rule="evenodd"></path>
                <rect id="Rectangle-14" fill="#FFFFFF" fill-rule="evenodd" x="256.59375" y="67.0793037" width="40.03125" height="2.63056093"></rect>
                <rect id="Rectangle-14-Copy" fill="#FFFFFF" fill-rule="evenodd" x="257.90625" y="69.7098646" width="38.0625" height="2.63056093"></rect>
                <rect id="Rectangle-14-Copy-2" fill="#FFFFFF" fill-rule="evenodd" x="263.8125" y="78.9168279" width="26.25" height="2.63056093"></rect>
                <rect id="Rectangle-14-Copy-5" fill="#FFFFFF" fill-rule="evenodd" x="261.84375" y="81.5473888" width="30.1875" height="3.28820116" rx="1.64410058"></rect>
                <path d="M258.5625,72.3404255 L295.3125,72.3404255 L290.0625,78.9168279 C272.5625,78.9168279 263.8125,78.9168279 263.8125,78.9168279 C263.8125,78.9168279 262.0625,76.7246937 258.5625,72.3404255 Z" id="Rectangle-14-Copy-3" fill="#FFFFFF" fill-rule="evenodd"></path>
                <polygon id="Rectangle-13" fill="#FFFFFF" fill-rule="evenodd" points="263.8125 84.8355899 290.0625 84.8355899 293.34375 320.928433 260.53125 320.928433"></polygon>
                <rect id="Rectangle-15" fill="#FFFFFF" fill-rule="evenodd" x="260.53125" y="320.928433" width="32.8125" height="2.63056093"></rect>
                <rect id="Rectangle-15-Copy-2" fill="#FFFFFF" fill-rule="evenodd" x="260.53125" y="326.847195" width="32.8125" height="2.63056093"></rect>
                <path d="M259.9375,329.477756 L293.9375,329.477756 C296.146639,329.477756 297.9375,331.268617 297.9375,333.477756 L297.9375,334.738878 L255.9375,334.738878 L255.9375,333.477756 C255.9375,331.268617 257.728361,329.477756 259.9375,329.477756 Z" id="Rectangle-15-Copy-3" fill="#FFFFFF" fill-rule="evenodd"></path>
                <rect id="Rectangle-15-Copy-4" fill="#FFFFFF" fill-rule="evenodd" x="255.9375" y="334.738878" width="42" height="5.26112186"></rect>
                <rect id="Rectangle-15-Copy" fill="#FFFFFF" fill-rule="evenodd" x="258.5625" y="323.558994" width="36.75" height="3.28820116" rx="1.64410058"></rect>
                <path d="M261.1875,243.984526 L292.6875,243.984526" id="Line-3" fill="#FFFFFF" fill-rule="evenodd"></path>
                <path d="M262.5,165.067698 L291.375,165.067698" id="Line-3-Copy" fill="#FFFFFF" fill-rule="evenodd"></path>
                <rect id="Rectangle-12-Copy-10" fill="#FFFFFF" fill-rule="evenodd" transform="translate(157.500000, 48.665377) scale(-1, 1) translate(-157.500000, -48.665377) " x="113.53125" y="30.2514507" width="87.9375" height="36.827853"></rect>
                <rect id="Rectangle-14" fill="#FFFFFF" fill-rule="evenodd" x="0" y="0" width="315" height="2.63056093"></rect>
                <rect id="Rectangle-14-Copy" fill="#FFFFFF" fill-rule="evenodd" x="5.25" y="10.5222437" width="304.5" height="2.63056093"></rect>
                <rect id="Rectangle-2" x="105.65625" y="0" width="103.6875" height="13.1528046"></rect>
                <rect id="Rectangle" x="84" y="13.1528046" width="73.5" height="17.098646"></rect>
                <rect id="Rectangle-Copy" x="157.5" y="13.1528046" width="73.5" height="17.098646"></rect>
                <rect id="Rectangle-13" fill="#FFFFFF" fill-rule="evenodd" x="22.96875" y="47.3500967" width="269.0625" height="2.63056093" rx="1.31528046"></rect>
            </g>
            <g id="Portico-A/Side" transform="translate(530.000000, 24.000000)" stroke="#CBD8F2">
                <rect id="Rectangle-12-Copy-8" fill="#FFFFFF" fill-rule="evenodd" x="22.1" y="30.2514507" width="75.9333333" height="36.827853"></rect>
                <polygon id="Rectangle-12-Copy" fill="#FFFFFF" fill-rule="evenodd" transform="translate(77.633333, 27.620890) scale(1, -1) translate(-77.633333, -27.620890) " points="20.7007371 24.9903288 136 24.9903288 136 30.2514507 19.2666667 30.2514507"></polygon>
                <polygon id="Rectangle-12-Copy-2" fill="#FFFFFF" fill-rule="evenodd" transform="translate(72.533333, 23.017408) scale(1, -1) translate(-72.533333, -23.017408) " points="9.06666667 21.0444874 136 21.0444874 136 24.9903288 9.06666667 24.9903288"></polygon>
                <polygon id="Rectangle-12-Copy-3" fill="#FFFFFF" fill-rule="evenodd" transform="translate(70.550000, 17.098646) scale(1, -1) translate(-70.550000, -17.098646) " points="7.10942982 13.1528046 136 13.1528046 136 21.0444874 5.1 21.0444874"></polygon>
                <polygon id="Rectangle-12-Copy-4" fill="#FFFFFF" fill-rule="evenodd" transform="translate(68.283333, 6.576402) scale(1, -1) translate(-68.283333, -6.576402) " points="2.57947629 2.63056093 136 2.63056093 136 10.5222437 0.566666667 10.5222437"></polygon>
                <rect id="Rectangle-14" fill="#FFFFFF" fill-rule="evenodd" x="15.3" y="67.0793037" width="34.5666667" height="2.63056093"></rect>
                <rect id="Rectangle-14-Copy" fill="#FFFFFF" fill-rule="evenodd" x="16.4333333" y="69.7098646" width="32.8666667" height="2.63056093"></rect>
                <rect id="Rectangle-14-Copy-2" fill="#FFFFFF" fill-rule="evenodd" x="21.5333333" y="78.9168279" width="22.6666667" height="2.63056093"></rect>
                <rect id="Rectangle-14-Copy-5" fill="#FFFFFF" fill-rule="evenodd" x="19.8333333" y="81.5473888" width="26.0666667" height="3.28820116" rx="1.64410058"></rect>
                <polygon id="Rectangle-14-Copy-3" fill="#FFFFFF" fill-rule="evenodd" points="17 72.3404255 48.7333333 72.3404255 44.2 78.9168279 21.5333333 78.9168279"></polygon>
                <polygon id="Rectangle-13" fill="#FFFFFF" fill-rule="evenodd" points="21.5333333 84.8355899 44.2 84.8355899 47.0333333 320.928433 18.7 320.928433"></polygon>
                <rect id="Rectangle-15" fill="#FFFFFF" fill-rule="evenodd" x="18.7" y="320.928433" width="28.3333333" height="2.63056093"></rect>
                <rect id="Rectangle-15-Copy-2" fill="#FFFFFF" fill-rule="evenodd" x="18.7" y="326.847195" width="28.3333333" height="2.63056093"></rect>
                <path d="M18.7333333,329.477756 L47,329.477756 C49.209139,329.477756 51,331.268617 51,333.477756 L51,334.738878 L14.7333333,334.738878 L14.7333333,333.477756 C14.7333333,331.268617 16.5241943,329.477756 18.7333333,329.477756 Z" id="Rectangle-15-Copy-3" fill="#FFFFFF" fill-rule="evenodd"></path>
                <rect id="Rectangle-15-Copy-4" fill="#FFFFFF" fill-rule="evenodd" x="14.7333333" y="334.738878" width="36.2666667" height="5.26112186"></rect>
                <rect id="Rectangle-15-Copy" fill="#FFFFFF" fill-rule="evenodd" x="17" y="323.558994" width="31.7333333" height="3.28820116" rx="1.64410058"></rect>
                <path d="M19.2666667,243.984526 L46.4666667,243.984526" id="Line-3" fill="#FFFFFF" fill-rule="evenodd"></path>
                <path d="M20.4,165.067698 L45.3333333,165.067698" id="Line-3-Copy" fill="#FFFFFF" fill-rule="evenodd"></path>
                <rect id="Rectangle-12-Copy-10" fill="#FFFFFF" fill-rule="evenodd" transform="translate(117.016667, 48.665377) scale(-1, 1) translate(-117.016667, -48.665377) " x="98.0333333" y="30.2514507" width="37.9666667" height="36.827853"></rect>
                <rect id="Rectangle-14" fill="#FFFFFF" fill-rule="evenodd" x="0" y="0" width="136" height="2.63056093"></rect>
                <rect id="Rectangle-14-Copy" fill="#FFFFFF" fill-rule="evenodd" x="4.53333333" y="10.5222437" width="131.466667" height="2.63056093"></rect>
                <rect id="Rectangle-2" x="91.2333333" y="0" width="44.7666667" height="13.1528046"></rect>
                <rect id="Rectangle" x="72.5333333" y="13.1528046" width="63.4666667" height="17.098646"></rect>
                <path d="M21.1486138,47.3500967 L136,47.3500967 L136,49.9806576 L21.1486138,49.9806576 C20.4222045,49.9806576 19.8333333,49.3917865 19.8333333,48.6653772 L19.8333333,48.6653772 C19.8333333,47.9389678 20.4222045,47.3500967 21.1486138,47.3500967 Z" id="Rectangle-13" fill="#FFFFFF" fill-rule="evenodd"></path>
            </g>
            <text id="Front" font-family="SourceSansPro-Bold, Source Sans Pro" font-size="18" font-weight="bold" fill="#093169">
                <tspan x="159.112" y="233">Front</tspan>
            </text>
            <text id="2570mm" font-family="SourceSansPro-Bold, Source Sans Pro" font-size="17" font-weight="bold" fill="#093169">
                <tspan x="367.479" y="234">2570mm</tspan>
            </text>
            <text id="587mm" font-family="SourceSansPro-Bold, Source Sans Pro" font-size="17" font-weight="bold" fill="#093169">
                <tspan x="367.467" y="65">587mm</tspan>
            </text>
            <text id="Side" font-family="SourceSansPro-Bold, Source Sans Pro" font-size="18" font-weight="bold" fill="#093169">
                <tspan x="605" y="228">Side</tspan>
            </text>
            <path d="M356.5,91.5 L345.5,91.5" id="Line" stroke="#CBD8F2" stroke-linecap="square"></path>
            <path d="M356.5,24.5 L345.5,24.5" id="Line-Copy" stroke="#CBD8F2" stroke-linecap="square"></path>
            <path d="M356.5,363.5 L345.5,363.5" id="Line-Copy-2" stroke="#CBD8F2" stroke-linecap="square"></path>
            <path d="M356.5,363.5 L356.5,24.5" id="Line-2" stroke="#CBD8F2" stroke-linecap="square"></path>
        </g>
    </g>
</svg>