<?xml version="1.0" encoding="UTF-8"?>
<svg width="687px" height="547px" viewBox="0 0 687 547" version="1.1" xmlns="http://www.w3.org/2000/svg" xmlns:xlink="http://www.w3.org/1999/xlink">
    <!-- Generator: Sketch 58 (84663) - https://sketch.com -->
    <title>porticos/type-c</title>
    <desc>Created with Sketch.</desc>
    <g id="porticos/type-c" stroke="none" stroke-width="1" fill="none" fill-rule="evenodd">
        <rect fill="#F5F9FF" x="0" y="0" width="687" height="547"></rect>
        <g id="Group-4" transform="translate(35.000000, 74.000000)">
            <g id="Group-3" transform="translate(72.000000, 1.000000)" stroke="#CBD8F2">
                <g id="Group">
                    <rect id="Rectangle" fill="#FFFFFF" x="23" y="23" width="248" height="35"></rect>
                    <path d="M280,18 C280,20.209139 278.209139,22 276,22 L20,22 C17.790861,22 16,20.209139 16,18 C20,18 276.519,18 280,18 Z" id="Rectangle" fill="#FFFFFF"></path>
                    <rect id="Rectangle" fill="#FFFFFF" x="21" y="22" width="252" height="2"></rect>
                    <rect id="Rectangle-Copy-2" fill="#FFFFFF" x="11" y="15" width="272" height="3"></rect>
                    <polygon id="Rectangle-Copy-11" fill="#FFFFFF" stroke-linejoin="bevel" points="6 12 288 12 286 15 8 15"></polygon>
                    <rect id="Rectangle-Copy-3" fill="#FFFFFF" x="6" y="8" width="282" height="4"></rect>
                    <rect id="Rectangle-Copy-12" fill="#FFFFFF" x="0" y="0" width="294" height="2"></rect>
                    <path d="M294,2 C294,5.3137085 291.313708,8 288,8 L6,8 C2.6862915,8 0,5.3137085 0,2 C7.569,2 283.379,2 294,2 Z" id="Rectangle" fill="#FFFFFF"></path>
                    <path d="M105.945667,24 L105.945667,57.8251429" id="Line"></path>
                    <path d="M188.612333,24 L188.612333,57.8251429" id="Line-Copy"></path>
                    <path d="M105.945667,0 L105.945667,7.95885714" id="Line-Copy-6" transform="translate(105.666667, 4.000000) scale(1, -1) translate(-105.666667, -4.000000) "></path>
                    <path d="M188.612333,0 L188.612333,7.95885714" id="Line-Copy-4" transform="translate(188.333333, 4.000000) scale(1, -1) translate(-188.333333, -4.000000) "></path>
                    <path d="M84.279,8 L84.279,23.9177143" id="Line-Copy-3" transform="translate(84.000000, 16.000000) scale(1, -1) translate(-84.000000, -16.000000) "></path>
                    <path d="M147.279,8 L147.279,23.9177143" id="Line-Copy-2" transform="translate(147.000000, 16.000000) scale(1, -1) translate(-147.000000, -16.000000) "></path>
                    <path d="M210.279,8 L210.279,23.9177143" id="Line-Copy-5" transform="translate(210.000000, 16.000000) scale(1, -1) translate(-210.000000, -16.000000) "></path>
                </g>
                <g id="Type-a-Leg" transform="translate(238.000000, 58.000000)" fill="#FFFFFF">
                    <path d="M7,81 L36,81 C36,91.6666667 36,102.333333 36,113 C36,123.666667 36,134.333333 36,145 L7,145 C7,134.333333 7,123.666667 7,113 C7,102.333333 7,91.6666667 7,81 Z" id="Rectangle-Copy-4"></path>
                    <path d="M7,21 L36,21 C36,31 36,41 36,51 C36,61 35.3333333,71 34,81 L9,81 C7.66666667,71 7,61 7,51 C7,41 7,31 7,21 Z" id="Rectangle-Copy-5" transform="translate(21.500000, 51.000000) rotate(-180.000000) translate(-21.500000, -51.000000) "></path>
                    <rect id="Rectangle" x="2" y="227" width="39" height="9"></rect>
                    <rect id="Rectangle-Copy-10" x="0" y="236" width="43" height="30"></rect>
                    <rect id="Rectangle-Copy" x="2" y="220" width="39" height="7" rx="3.5"></rect>
                    <rect id="Rectangle" x="7" y="145" width="29" height="75"></rect>
                    <polygon id="Rectangle-Copy-6" points="7 217 36 217 38 220 5 220"></polygon>
                    <rect id="Rectangle" x="7" y="17" width="29" height="4" rx="2"></rect>
                    <rect id="Rectangle" x="9" y="12" width="24" height="5"></rect>
                    <rect id="Rectangle-Copy-7" x="7" y="10" width="28" height="2"></rect>
                    <polygon id="Rectangle-Copy-8" transform="translate(21.000000, 8.000000) scale(1, -1) translate(-21.000000, -8.000000) " points="7 6 35 6 37 10 5 10"></polygon>
                    <path d="M3,2 L39,2 C38.3333333,2.66666667 38,3.33333333 38,4 C38,4.66666667 38,5.33333333 38,6 L4,6 C4,5.33333333 4,4.66666667 4,4 C4,3.33333333 3.66666667,2.66666667 3,2 Z" id="Rectangle"></path>
                    <rect id="Rectangle-Copy-9" transform="translate(21.000000, 1.000000) scale(1, -1) translate(-21.000000, -1.000000) " x="2" y="0" width="38" height="2"></rect>
                </g>
                <g id="Type-a-Leg" transform="translate(14.000000, 58.000000)" fill="#FFFFFF">
                    <path d="M7,81 L36,81 C36,91.6666667 36,102.333333 36,113 C36,123.666667 36,134.333333 36,145 L7,145 C7,134.333333 7,123.666667 7,113 C7,102.333333 7,91.6666667 7,81 Z" id="Rectangle-Copy-4"></path>
                    <path d="M7,21 L36,21 C36,31 36,41 36,51 C36,61 35.3333333,71 34,81 L9,81 C7.66666667,71 7,61 7,51 C7,41 7,31 7,21 Z" id="Rectangle-Copy-5" transform="translate(21.500000, 51.000000) rotate(-180.000000) translate(-21.500000, -51.000000) "></path>
                    <rect id="Rectangle" x="2" y="227" width="39" height="9"></rect>
                    <rect id="Rectangle-Copy-10" x="0" y="236" width="43" height="30"></rect>
                    <rect id="Rectangle-Copy" x="2" y="220" width="39" height="7" rx="3.5"></rect>
                    <rect id="Rectangle" x="7" y="145" width="29" height="75"></rect>
                    <polygon id="Rectangle-Copy-6" points="7 217 36 217 38 220 5 220"></polygon>
                    <rect id="Rectangle" x="7" y="17" width="29" height="4" rx="2"></rect>
                    <rect id="Rectangle" x="9" y="12" width="24" height="5"></rect>
                    <rect id="Rectangle-Copy-7" x="7" y="10" width="28" height="2"></rect>
                    <polygon id="Rectangle-Copy-8" transform="translate(21.000000, 8.000000) scale(1, -1) translate(-21.000000, -8.000000) " points="7 6 35 6 37 10 5 10"></polygon>
                    <path d="M3,2 L39,2 C38.3333333,2.66666667 38,3.33333333 38,4 C38,4.66666667 38,5.33333333 38,6 L4,6 C4,5.33333333 4,4.66666667 4,4 C4,3.33333333 3.66666667,2.66666667 3,2 Z" id="Rectangle"></path>
                    <rect id="Rectangle-Copy-9" transform="translate(21.000000, 1.000000) scale(1, -1) translate(-21.000000, -1.000000) " x="2" y="0" width="38" height="2"></rect>
                </g>
            </g>
            <path d="M174.511,393 L174.511,381.916 L177.248,381.916 L179.033,386.846 L179.19875,387.345375 L179.19875,387.345375 L179.356,387.8575 C179.458001,388.203168 179.565666,388.545998 179.679,388.886 L179.747,388.886 L179.910625,388.373875 L179.910625,388.373875 L180.0615,387.8575 C180.157834,387.511832 180.262666,387.174668 180.376,386.846 L182.127,381.916 L184.847,381.916 L184.847,393 L182.569,393 L182.569,388.937 C182.569,388.664999 182.580333,388.364668 182.603,388.036 C182.625667,387.707332 182.654,387.375835 182.688,387.0415 L182.79,386.0555 C182.824,385.732498 182.858,385.435001 182.892,385.163 L182.824,385.163 L181.923,387.798 L180.342,392.031 L178.965,392.031 L177.384,387.798 L176.5,385.163 L176.432,385.163 C176.466,385.435001 176.5,385.732498 176.534,386.0555 L176.636,387.0415 L176.636,387.0415 C176.67,387.375835 176.698333,387.707332 176.721,388.036 C176.743667,388.364668 176.755,388.664999 176.755,388.937 L176.755,393 L174.511,393 Z M189.386,393.204 C189.000665,393.204 188.652168,393.138834 188.3405,393.0085 C188.028832,392.878166 187.765334,392.696834 187.55,392.4645 C187.334666,392.232166 187.167501,391.963002 187.0485,391.657 C186.929499,391.350998 186.87,391.016668 186.87,390.654 C186.87,389.769996 187.243996,389.078669 187.992,388.58 C188.740004,388.081331 189.946992,387.747001 191.613,387.577 C191.590333,387.202998 191.479834,386.905501 191.2815,386.6845 C191.083166,386.463499 190.751669,386.353 190.287,386.353 C189.924332,386.353 189.564502,386.420999 189.2075,386.557 C188.850498,386.693001 188.468002,386.879999 188.06,387.118 L187.159,385.469 C187.703003,385.140332 188.272497,384.874001 188.8675,384.67 C189.462503,384.465999 190.09433,384.364 190.763,384.364 C191.851005,384.364 192.681164,384.67283 193.2535,385.2905 C193.825836,385.90817 194.112,386.86866 194.112,388.172 L194.112,393 L192.072,393 L191.902,392.133 L191.834,392.133 C191.471332,392.450335 191.091669,392.708166 190.695,392.9065 C190.298331,393.104834 189.862002,393.204 189.386,393.204 Z M190.236,391.266 C190.519335,391.266 190.762999,391.203667 190.967,391.079 C191.171001,390.954333 191.386332,390.778668 191.613,390.552 L191.613,389.073 C190.728996,389.197667 190.117002,389.378999 189.777,389.617 C189.436998,389.855001 189.267,390.138332 189.267,390.467 C189.267,390.739001 189.354832,390.940166 189.5305,391.0705 C189.706168,391.200834 189.941332,391.266 190.236,391.266 Z M199.229,393.204 C198.707664,393.204 198.234502,393.102001 197.8095,392.898 C197.384498,392.693999 197.021835,392.402169 196.7215,392.0225 C196.421165,391.642831 196.188834,391.181003 196.0245,390.637 C195.860166,390.092997 195.778,389.475337 195.778,388.784 C195.778,388.092663 195.877166,387.475003 196.0755,386.931 C196.273834,386.386997 196.534498,385.925169 196.8575,385.5455 C197.180502,385.165831 197.554498,384.874001 197.9795,384.67 C198.404502,384.465999 198.837998,384.364 199.28,384.364 C199.756002,384.364 200.146998,384.443333 200.453,384.602 C200.759002,384.760667 201.059332,384.975999 201.354,385.248 L201.252,383.956 L201.252,381.083 L203.751,381.083 L203.751,393 L201.711,393 L201.541,392.167 L201.473,392.167 C201.178332,392.461668 200.832669,392.708166 200.436,392.9065 C200.039331,393.104834 199.637002,393.204 199.229,393.204 Z M199.875,391.164 C200.147001,391.164 200.393499,391.107334 200.6145,390.994 C200.835501,390.880666 201.047999,390.682335 201.252,390.399 L201.252,386.948 C201.025332,386.743999 200.793001,386.602334 200.555,386.523 C200.316999,386.443666 200.084668,386.404 199.858,386.404 C199.461331,386.404 199.110002,386.593831 198.804,386.9735 C198.497998,387.353169 198.345,387.945329 198.345,388.75 C198.345,389.588671 198.478165,390.200665 198.7445,390.586 C199.010835,390.971335 199.387664,391.164 199.875,391.164 Z M209.735,393.204 C209.13433,393.204 208.573336,393.104834 208.052,392.9065 C207.530664,392.708166 207.077335,392.419169 206.692,392.0395 C206.306665,391.659831 206.006334,391.198003 205.791,390.654 C205.575666,390.109997 205.468,389.48667 205.468,388.784 C205.468,388.103997 205.581332,387.489169 205.808,386.9395 C206.034668,386.389831 206.332165,385.925169 206.7005,385.5455 C207.068835,385.165831 207.490998,384.874001 207.967,384.67 C208.443002,384.465999 208.935997,384.364 209.446,384.364 C210.04667,384.364 210.570831,384.465999 211.0185,384.67 C211.466169,384.874001 211.840165,385.157332 212.1405,385.52 C212.440835,385.882668 212.664666,386.310498 212.812,386.8035 C212.959334,387.296502 213.033,387.831997 213.033,388.41 C213.033,388.636668 213.021667,388.851999 212.999,389.056 L212.965,389.32375 C212.953667,389.40025 212.942333,389.464 212.931,389.515 L207.882,389.515 C207.995334,390.127003 208.247498,390.577499 208.6385,390.8665 C209.029502,391.155501 209.50833,391.3 210.075,391.3 C210.67567,391.3 211.281997,391.113002 211.894,390.739 L212.727,392.252 C212.296331,392.546668 211.817503,392.778999 211.2905,392.949 C210.763497,393.119001 210.245003,393.204 209.735,393.204 Z M207.865,387.866 L210.908,387.866 C210.908,387.389998 210.800334,387.004668 210.585,386.71 C210.369666,386.415332 210.007003,386.268 209.497,386.268 C209.100331,386.268 208.751835,386.398332 208.4515,386.659 C208.151165,386.919668 207.955667,387.321997 207.865,387.866 Z M221.414,393.204 C220.892664,393.204 220.447835,393.124667 220.0795,392.966 C219.711165,392.807333 219.410834,392.586335 219.1785,392.303 C218.946166,392.019665 218.776167,391.676835 218.6685,391.2745 C218.560833,390.872165 218.507,390.427336 218.507,389.94 L218.507,386.523 L217.351,386.523 L217.351,384.67 L218.643,384.568 L218.932,382.324 L221.006,382.324 L221.006,384.568 L223.029,384.568 L223.029,386.523 L221.006,386.523 L221.006,389.906 C221.006,390.382002 221.105166,390.724832 221.3035,390.9345 C221.501834,391.144168 221.765332,391.249 222.094,391.249 C222.230001,391.249 222.368833,391.232 222.5105,391.198 C222.652167,391.164 222.779666,391.124334 222.893,391.079 L223.284,392.898 C223.057332,392.966 222.791002,393.034 222.485,393.102 C222.178998,393.17 221.822002,393.204 221.414,393.204 Z M228.299,393.204 C227.766331,393.204 227.250669,393.104834 226.752,392.9065 C226.253331,392.708166 225.814169,392.422002 225.4345,392.048 C225.054831,391.673998 224.751668,391.212169 224.525,390.6625 C224.298332,390.112831 224.185,389.48667 224.185,388.784 C224.185,388.08133 224.298332,387.455169 224.525,386.9055 C224.751668,386.355831 225.054831,385.894002 225.4345,385.52 C225.814169,385.145998 226.253331,384.859834 226.752,384.6615 C227.250669,384.463166 227.766331,384.364 228.299,384.364 C228.831669,384.364 229.344498,384.463166 229.8375,384.6615 C230.330502,384.859834 230.766831,385.145998 231.1465,385.52 C231.526169,385.894002 231.829332,386.355831 232.056,386.9055 C232.282668,387.455169 232.396,388.08133 232.396,388.784 C232.396,389.48667 232.282668,390.112831 232.056,390.6625 C231.829332,391.212169 231.526169,391.673998 231.1465,392.048 C230.766831,392.422002 230.330502,392.708166 229.8375,392.9065 C229.344498,393.104834 228.831669,393.204 228.299,393.204 Z M228.299,391.181 C228.809003,391.181 229.194332,390.965669 229.455,390.535 C229.715668,390.104331 229.846,389.52067 229.846,388.784 C229.846,388.04733 229.715668,387.463669 229.455,387.033 C229.194332,386.602331 228.809003,386.387 228.299,386.387 C227.777664,386.387 227.389501,386.602331 227.1345,387.033 C226.879499,387.463669 226.752,388.04733 226.752,388.784 C226.752,389.52067 226.879499,390.104331 227.1345,390.535 C227.389501,390.965669 227.777664,391.181 228.299,391.181 Z M239.995,393.204 C239.439664,393.204 238.87017,393.096334 238.2865,392.881 C237.70283,392.665666 237.195669,392.382335 236.765,392.031 L237.887,390.467 C238.272335,390.761668 238.640665,390.982666 238.992,391.13 C239.343335,391.277334 239.700332,391.351 240.063,391.351 C240.437002,391.351 240.708999,391.288667 240.879,391.164 C241.049001,391.039333 241.134,390.863668 241.134,390.637 C241.134,390.500999 241.085834,390.379167 240.9895,390.2715 C240.893166,390.163833 240.762834,390.064667 240.5985,389.974 C240.434166,389.883333 240.250001,389.801167 240.046,389.7275 L239.73575,389.610625 L239.73575,389.610625 L239.417,389.481 C239.156332,389.378999 238.895668,389.260001 238.635,389.124 C238.374332,388.987999 238.136334,388.820834 237.921,388.6225 C237.705666,388.424166 237.530001,388.191835 237.394,387.9255 C237.257999,387.659165 237.19,387.350335 237.19,386.999 C237.19,386.613665 237.266499,386.256668 237.4195,385.928 C237.572501,385.599332 237.790665,385.321668 238.074,385.095 C238.357335,384.868332 238.697331,384.689834 239.094,384.5595 C239.490669,384.429166 239.932664,384.364 240.42,384.364 C241.066003,384.364 241.632664,384.474499 242.12,384.6955 C242.607336,384.916501 243.032332,385.162999 243.395,385.435 L242.273,386.931 C241.966998,386.704332 241.666668,386.528667 241.372,386.404 C241.077332,386.279333 240.782668,386.217 240.488,386.217 C239.85333,386.217 239.536,386.437998 239.536,386.88 C239.536,387.016001 239.581333,387.132166 239.672,387.2285 C239.762667,387.324834 239.884499,387.412666 240.0375,387.492 C240.190501,387.571334 240.366166,387.647833 240.5645,387.7215 L241.185,387.951 L241.185,387.951 C241.457001,388.053001 241.726165,388.169166 241.9925,388.2995 C242.258835,388.429834 242.502499,388.591332 242.7235,388.784 C242.944501,388.976668 243.122999,389.211832 243.259,389.4895 C243.395001,389.767168 243.463,390.098665 243.463,390.484 C243.463,390.869335 243.389334,391.226332 243.242,391.555 C243.094666,391.883668 242.873668,392.169832 242.579,392.4135 C242.284332,392.657168 241.921669,392.849833 241.491,392.9915 C241.060331,393.133167 240.561669,393.204 239.995,393.204 Z M247.577,393.204 C246.658995,393.204 245.993169,392.90367 245.5795,392.303 C245.165831,391.70233 244.959,390.869339 244.959,389.804 L244.959,384.568 L247.458,384.568 L247.458,389.481 C247.458,390.093003 247.542999,390.512332 247.713,390.739 C247.883001,390.965668 248.149332,391.079 248.512,391.079 C248.829335,391.079 249.095666,391.005334 249.311,390.858 C249.526334,390.710666 249.758665,390.472668 250.008,390.144 L250.008,384.568 L252.507,384.568 L252.507,393 L250.467,393 L250.28,391.827 L250.229,391.827 C249.866332,392.257669 249.478169,392.594832 249.0645,392.8385 C248.650831,393.082168 248.155003,393.204 247.577,393.204 Z M254.7,393 L254.7,384.568 L257.199,384.568 L257.199,393 L254.7,393 Z M255.941,383.327 C255.521665,383.327 255.176001,383.205168 254.904,382.9615 C254.631999,382.717832 254.496,382.403335 254.496,382.018 C254.496,381.632665 254.631999,381.321001 254.904,381.083 C255.176001,380.844999 255.521665,380.726 255.941,380.726 C256.371669,380.726 256.720165,380.844999 256.9865,381.083 C257.252835,381.321001 257.386,381.632665 257.386,382.018 C257.386,382.403335 257.252835,382.717832 256.9865,382.9615 C256.720165,383.205168 256.371669,383.327 255.941,383.327 Z M262.639,393.204 C262.117664,393.204 261.672835,393.124667 261.3045,392.966 C260.936165,392.807333 260.635834,392.586335 260.4035,392.303 C260.171166,392.019665 260.001167,391.676835 259.8935,391.2745 C259.785833,390.872165 259.732,390.427336 259.732,389.94 L259.732,386.523 L258.576,386.523 L258.576,384.67 L259.868,384.568 L260.157,382.324 L262.231,382.324 L262.231,384.568 L264.254,384.568 L264.254,386.523 L262.231,386.523 L262.231,389.906 C262.231,390.382002 262.330166,390.724832 262.5285,390.9345 C262.726834,391.144168 262.990332,391.249 263.319,391.249 C263.455001,391.249 263.593833,391.232 263.7355,391.198 C263.877167,391.164 264.004666,391.124334 264.118,391.079 L264.509,392.898 C264.282332,392.966 264.016002,393.034 263.71,393.102 C263.403998,393.17 263.047002,393.204 262.639,393.204 Z" id="Madetosuit" fill="#093169" fill-rule="nonzero"></path>
            <path d="M474.511,393.28 L474.511,382.196 L477.248,382.196 L479.033,387.126 L479.19875,387.625375 L479.19875,387.625375 L479.356,388.1375 C479.458001,388.483168 479.565666,388.825998 479.679,389.166 L479.747,389.166 L479.910625,388.653875 L479.910625,388.653875 L480.0615,388.1375 C480.157834,387.791832 480.262666,387.454668 480.376,387.126 L482.127,382.196 L484.847,382.196 L484.847,393.28 L482.569,393.28 L482.569,389.217 C482.569,388.944999 482.580333,388.644668 482.603,388.316 C482.625667,387.987332 482.654,387.655835 482.688,387.3215 L482.79,386.3355 C482.824,386.012498 482.858,385.715001 482.892,385.443 L482.824,385.443 L481.923,388.078 L480.342,392.311 L478.965,392.311 L477.384,388.078 L476.5,385.443 L476.432,385.443 C476.466,385.715001 476.5,386.012498 476.534,386.3355 L476.636,387.3215 L476.636,387.3215 C476.67,387.655835 476.698333,387.987332 476.721,388.316 C476.743667,388.644668 476.755,388.944999 476.755,389.217 L476.755,393.28 L474.511,393.28 Z M489.386,393.484 C489.000665,393.484 488.652168,393.418834 488.3405,393.2885 C488.028832,393.158166 487.765334,392.976834 487.55,392.7445 C487.334666,392.512166 487.167501,392.243002 487.0485,391.937 C486.929499,391.630998 486.87,391.296668 486.87,390.934 C486.87,390.049996 487.243996,389.358669 487.992,388.86 C488.740004,388.361331 489.946992,388.027001 491.613,387.857 C491.590333,387.482998 491.479834,387.185501 491.2815,386.9645 C491.083166,386.743499 490.751669,386.633 490.287,386.633 C489.924332,386.633 489.564502,386.700999 489.2075,386.837 C488.850498,386.973001 488.468002,387.159999 488.06,387.398 L487.159,385.749 C487.703003,385.420332 488.272497,385.154001 488.8675,384.95 C489.462503,384.745999 490.09433,384.644 490.763,384.644 C491.851005,384.644 492.681164,384.95283 493.2535,385.5705 C493.825836,386.18817 494.112,387.14866 494.112,388.452 L494.112,393.28 L492.072,393.28 L491.902,392.413 L491.834,392.413 C491.471332,392.730335 491.091669,392.988166 490.695,393.1865 C490.298331,393.384834 489.862002,393.484 489.386,393.484 Z M490.236,391.546 C490.519335,391.546 490.762999,391.483667 490.967,391.359 C491.171001,391.234333 491.386332,391.058668 491.613,390.832 L491.613,389.353 C490.728996,389.477667 490.117002,389.658999 489.777,389.897 C489.436998,390.135001 489.267,390.418332 489.267,390.747 C489.267,391.019001 489.354832,391.220166 489.5305,391.3505 C489.706168,391.480834 489.941332,391.546 490.236,391.546 Z M499.229,393.484 C498.707664,393.484 498.234502,393.382001 497.8095,393.178 C497.384498,392.973999 497.021835,392.682169 496.7215,392.3025 C496.421165,391.922831 496.188834,391.461003 496.0245,390.917 C495.860166,390.372997 495.778,389.755337 495.778,389.064 C495.778,388.372663 495.877166,387.755003 496.0755,387.211 C496.273834,386.666997 496.534498,386.205169 496.8575,385.8255 C497.180502,385.445831 497.554498,385.154001 497.9795,384.95 C498.404502,384.745999 498.837998,384.644 499.28,384.644 C499.756002,384.644 500.146998,384.723333 500.453,384.882 C500.759002,385.040667 501.059332,385.255999 501.354,385.528 L501.252,384.236 L501.252,381.363 L503.751,381.363 L503.751,393.28 L501.711,393.28 L501.541,392.447 L501.473,392.447 C501.178332,392.741668 500.832669,392.988166 500.436,393.1865 C500.039331,393.384834 499.637002,393.484 499.229,393.484 Z M499.875,391.444 C500.147001,391.444 500.393499,391.387334 500.6145,391.274 C500.835501,391.160666 501.047999,390.962335 501.252,390.679 L501.252,387.228 C501.025332,387.023999 500.793001,386.882334 500.555,386.803 C500.316999,386.723666 500.084668,386.684 499.858,386.684 C499.461331,386.684 499.110002,386.873831 498.804,387.2535 C498.497998,387.633169 498.345,388.225329 498.345,389.03 C498.345,389.868671 498.478165,390.480665 498.7445,390.866 C499.010835,391.251335 499.387664,391.444 499.875,391.444 Z M509.735,393.484 C509.13433,393.484 508.573336,393.384834 508.052,393.1865 C507.530664,392.988166 507.077335,392.699169 506.692,392.3195 C506.306665,391.939831 506.006334,391.478003 505.791,390.934 C505.575666,390.389997 505.468,389.76667 505.468,389.064 C505.468,388.383997 505.581332,387.769169 505.808,387.2195 C506.034668,386.669831 506.332165,386.205169 506.7005,385.8255 C507.068835,385.445831 507.490998,385.154001 507.967,384.95 C508.443002,384.745999 508.935997,384.644 509.446,384.644 C510.04667,384.644 510.570831,384.745999 511.0185,384.95 C511.466169,385.154001 511.840165,385.437332 512.1405,385.8 C512.440835,386.162668 512.664666,386.590498 512.812,387.0835 C512.959334,387.576502 513.033,388.111997 513.033,388.69 C513.033,388.916668 513.021667,389.131999 512.999,389.336 L512.965,389.60375 C512.953667,389.68025 512.942333,389.744 512.931,389.795 L507.882,389.795 C507.995334,390.407003 508.247498,390.857499 508.6385,391.1465 C509.029502,391.435501 509.50833,391.58 510.075,391.58 C510.67567,391.58 511.281997,391.393002 511.894,391.019 L512.727,392.532 C512.296331,392.826668 511.817503,393.058999 511.2905,393.229 C510.763497,393.399001 510.245003,393.484 509.735,393.484 Z M507.865,388.146 L510.908,388.146 C510.908,387.669998 510.800334,387.284668 510.585,386.99 C510.369666,386.695332 510.007003,386.548 509.497,386.548 C509.100331,386.548 508.751835,386.678332 508.4515,386.939 C508.151165,387.199668 507.955667,387.601997 507.865,388.146 Z M521.414,393.484 C520.892664,393.484 520.447835,393.404667 520.0795,393.246 C519.711165,393.087333 519.410834,392.866335 519.1785,392.583 C518.946166,392.299665 518.776167,391.956835 518.6685,391.5545 C518.560833,391.152165 518.507,390.707336 518.507,390.22 L518.507,386.803 L517.351,386.803 L517.351,384.95 L518.643,384.848 L518.932,382.604 L521.006,382.604 L521.006,384.848 L523.029,384.848 L523.029,386.803 L521.006,386.803 L521.006,390.186 C521.006,390.662002 521.105166,391.004832 521.3035,391.2145 C521.501834,391.424168 521.765332,391.529 522.094,391.529 C522.230001,391.529 522.368833,391.512 522.5105,391.478 C522.652167,391.444 522.779666,391.404334 522.893,391.359 L523.284,393.178 C523.057332,393.246 522.791002,393.314 522.485,393.382 C522.178998,393.45 521.822002,393.484 521.414,393.484 Z M528.299,393.484 C527.766331,393.484 527.250669,393.384834 526.752,393.1865 C526.253331,392.988166 525.814169,392.702002 525.4345,392.328 C525.054831,391.953998 524.751668,391.492169 524.525,390.9425 C524.298332,390.392831 524.185,389.76667 524.185,389.064 C524.185,388.36133 524.298332,387.735169 524.525,387.1855 C524.751668,386.635831 525.054831,386.174002 525.4345,385.8 C525.814169,385.425998 526.253331,385.139834 526.752,384.9415 C527.250669,384.743166 527.766331,384.644 528.299,384.644 C528.831669,384.644 529.344498,384.743166 529.8375,384.9415 C530.330502,385.139834 530.766831,385.425998 531.1465,385.8 C531.526169,386.174002 531.829332,386.635831 532.056,387.1855 C532.282668,387.735169 532.396,388.36133 532.396,389.064 C532.396,389.76667 532.282668,390.392831 532.056,390.9425 C531.829332,391.492169 531.526169,391.953998 531.1465,392.328 C530.766831,392.702002 530.330502,392.988166 529.8375,393.1865 C529.344498,393.384834 528.831669,393.484 528.299,393.484 Z M528.299,391.461 C528.809003,391.461 529.194332,391.245669 529.455,390.815 C529.715668,390.384331 529.846,389.80067 529.846,389.064 C529.846,388.32733 529.715668,387.743669 529.455,387.313 C529.194332,386.882331 528.809003,386.667 528.299,386.667 C527.777664,386.667 527.389501,386.882331 527.1345,387.313 C526.879499,387.743669 526.752,388.32733 526.752,389.064 C526.752,389.80067 526.879499,390.384331 527.1345,390.815 C527.389501,391.245669 527.777664,391.461 528.299,391.461 Z M539.995,393.484 C539.439664,393.484 538.87017,393.376334 538.2865,393.161 C537.70283,392.945666 537.195669,392.662335 536.765,392.311 L537.887,390.747 C538.272335,391.041668 538.640665,391.262666 538.992,391.41 C539.343335,391.557334 539.700332,391.631 540.063,391.631 C540.437002,391.631 540.708999,391.568667 540.879,391.444 C541.049001,391.319333 541.134,391.143668 541.134,390.917 C541.134,390.780999 541.085834,390.659167 540.9895,390.5515 C540.893166,390.443833 540.762834,390.344667 540.5985,390.254 C540.434166,390.163333 540.250001,390.081167 540.046,390.0075 L539.73575,389.890625 L539.73575,389.890625 L539.417,389.761 C539.156332,389.658999 538.895668,389.540001 538.635,389.404 C538.374332,389.267999 538.136334,389.100834 537.921,388.9025 C537.705666,388.704166 537.530001,388.471835 537.394,388.2055 C537.257999,387.939165 537.19,387.630335 537.19,387.279 C537.19,386.893665 537.266499,386.536668 537.4195,386.208 C537.572501,385.879332 537.790665,385.601668 538.074,385.375 C538.357335,385.148332 538.697331,384.969834 539.094,384.8395 C539.490669,384.709166 539.932664,384.644 540.42,384.644 C541.066003,384.644 541.632664,384.754499 542.12,384.9755 C542.607336,385.196501 543.032332,385.442999 543.395,385.715 L542.273,387.211 C541.966998,386.984332 541.666668,386.808667 541.372,386.684 C541.077332,386.559333 540.782668,386.497 540.488,386.497 C539.85333,386.497 539.536,386.717998 539.536,387.16 C539.536,387.296001 539.581333,387.412166 539.672,387.5085 C539.762667,387.604834 539.884499,387.692666 540.0375,387.772 C540.190501,387.851334 540.366166,387.927833 540.5645,388.0015 L541.185,388.231 L541.185,388.231 C541.457001,388.333001 541.726165,388.449166 541.9925,388.5795 C542.258835,388.709834 542.502499,388.871332 542.7235,389.064 C542.944501,389.256668 543.122999,389.491832 543.259,389.7695 C543.395001,390.047168 543.463,390.378665 543.463,390.764 C543.463,391.149335 543.389334,391.506332 543.242,391.835 C543.094666,392.163668 542.873668,392.449832 542.579,392.6935 C542.284332,392.937168 541.921669,393.129833 541.491,393.2715 C541.060331,393.413167 540.561669,393.484 539.995,393.484 Z M547.577,393.484 C546.658995,393.484 545.993169,393.18367 545.5795,392.583 C545.165831,391.98233 544.959,391.149339 544.959,390.084 L544.959,384.848 L547.458,384.848 L547.458,389.761 C547.458,390.373003 547.542999,390.792332 547.713,391.019 C547.883001,391.245668 548.149332,391.359 548.512,391.359 C548.829335,391.359 549.095666,391.285334 549.311,391.138 C549.526334,390.990666 549.758665,390.752668 550.008,390.424 L550.008,384.848 L552.507,384.848 L552.507,393.28 L550.467,393.28 L550.28,392.107 L550.229,392.107 C549.866332,392.537669 549.478169,392.874832 549.0645,393.1185 C548.650831,393.362168 548.155003,393.484 547.577,393.484 Z M554.7,393.28 L554.7,384.848 L557.199,384.848 L557.199,393.28 L554.7,393.28 Z M555.941,383.607 C555.521665,383.607 555.176001,383.485168 554.904,383.2415 C554.631999,382.997832 554.496,382.683335 554.496,382.298 C554.496,381.912665 554.631999,381.601001 554.904,381.363 C555.176001,381.124999 555.521665,381.006 555.941,381.006 C556.371669,381.006 556.720165,381.124999 556.9865,381.363 C557.252835,381.601001 557.386,381.912665 557.386,382.298 C557.386,382.683335 557.252835,382.997832 556.9865,383.2415 C556.720165,383.485168 556.371669,383.607 555.941,383.607 Z M562.639,393.484 C562.117664,393.484 561.672835,393.404667 561.3045,393.246 C560.936165,393.087333 560.635834,392.866335 560.4035,392.583 C560.171166,392.299665 560.001167,391.956835 559.8935,391.5545 C559.785833,391.152165 559.732,390.707336 559.732,390.22 L559.732,386.803 L558.576,386.803 L558.576,384.95 L559.868,384.848 L560.157,382.604 L562.231,382.604 L562.231,384.848 L564.254,384.848 L564.254,386.803 L562.231,386.803 L562.231,390.186 C562.231,390.662002 562.330166,391.004832 562.5285,391.2145 C562.726834,391.424168 562.990332,391.529 563.319,391.529 C563.455001,391.529 563.593833,391.512 563.7355,391.478 C563.877167,391.444 564.004666,391.404334 564.118,391.359 L564.509,393.178 C564.282332,393.246 564.016002,393.314 563.71,393.382 C563.403998,393.45 563.047002,393.484 562.639,393.484 Z" id="Madetosuit" fill="#093169" fill-rule="nonzero"></path>
            <polyline id="Rectangle-Copy-21" stroke="#CBD8F2" transform="translate(218.500000, 353.500000) scale(-1, 1) rotate(-180.000000) translate(-218.500000, -353.500000) " points="106 361 106 346 331 346 331 361"></polyline>
            <polyline id="Rectangle-Copy-27" stroke="#CBD8F2" transform="translate(518.500000, 353.780000) scale(-1, 1) rotate(-180.000000) translate(-518.500000, -353.780000) " points="463 361.28 463 346.28 574 346.28 574 361.28"></polyline>
            <g id="Group-10" transform="translate(0.000000, 59.000000)">
                <path d="M-20.392,124 L-20.392,122.572 L-19.5909593,121.817199 C-19.2047201,121.45 -18.8399017,121.098102 -18.4965,120.7615 C-17.9241638,120.200497 -17.4311687,119.673502 -17.0175,119.1805 C-16.6038313,118.687498 -16.2808345,118.228502 -16.0485,117.8035 C-15.8161655,117.378498 -15.7,116.973335 -15.7,116.588 C-15.7,116.055331 -15.8359986,115.650168 -16.108,115.3725 C-16.3800014,115.094832 -16.7539976,114.956 -17.23,114.956 C-17.6266686,114.956 -17.9779985,115.066499 -18.284,115.2875 C-18.5900015,115.508501 -18.8789986,115.766332 -19.151,116.061 L-20.511,114.718 C-19.9783307,114.151331 -19.4343361,113.723501 -18.879,113.4345 C-18.3236639,113.145499 -17.6606705,113.001 -16.89,113.001 C-16.3573307,113.001 -15.8728355,113.083166 -15.4365,113.2475 C-15.0001645,113.411834 -14.6233349,113.644165 -14.306,113.9445 C-13.9886651,114.244835 -13.7450009,114.604665 -13.575,115.024 C-13.4049992,115.443335 -13.32,115.913664 -13.32,116.435 C-13.32,116.888336 -13.4163324,117.350164 -13.609,117.8205 C-13.8016676,118.290836 -14.0594984,118.761164 -14.3825,119.2315 C-14.7055016,119.701836 -15.0738313,120.172164 -15.4875,120.6425 C-15.9011687,121.112836 -16.3289978,121.574664 -16.771,122.028 L-16.3396251,121.979125 C-16.1880422,121.963542 -16.0286675,121.948667 -15.8615,121.9345 C-15.527165,121.906167 -15.229668,121.892 -14.969,121.892 L-12.793,121.892 L-12.793,124 L-20.392,124 Z M-7.047,124 L-7.047,121.416 L-11.722,121.416 L-11.722,119.699 L-7.778,113.205 L-4.718,113.205 L-4.718,119.512 L-3.477,119.512 L-3.477,121.416 L-4.718,121.416 L-4.718,124 L-7.047,124 Z M-9.325,119.512 L-7.047,119.512 L-7.047,117.761 L-7.04156003,117.31356 C-7.03793338,117.1558 -7.03249339,116.989427 -7.02524004,116.814441 L-6.97220002,115.78356 C-6.96313337,115.62852 -6.95406671,115.483001 -6.945,115.347 L-7.013,115.347 C-7.14900068,115.641668 -7.29066593,115.941998 -7.438,116.248 C-7.58533407,116.554002 -7.73833254,116.859998 -7.897,117.166 L-9.325,119.512 Z M1.419,124.204 C0.84099711,124.204 0.31400238,124.082168 -0.162,123.8385 C-0.63800238,123.594832 -1.043165,123.235002 -1.3775,122.759 C-1.71183501,122.282998 -1.97249907,121.69367 -2.1595,120.991 C-2.34650094,120.28833 -2.44,119.478005 -2.44,118.56 C-2.44,117.641995 -2.34650094,116.837337 -2.1595,116.146 C-1.97249907,115.454663 -1.71183501,114.873836 -1.3775,114.4035 C-1.043165,113.933164 -0.63800238,113.581834 -0.162,113.3495 C0.31400238,113.117166 0.84099711,113.001 1.419,113.001 C1.99700289,113.001 2.52399762,113.117166 3,113.3495 C3.47600238,113.581834 3.881165,113.933164 4.2155,114.4035 C4.54983501,114.873836 4.81049906,115.454663 4.9975,116.146 C5.18450093,116.837337 5.278,117.641995 5.278,118.56 C5.278,119.478005 5.18450093,120.28833 4.9975,120.991 C4.81049906,121.69367 4.54983501,122.282998 4.2155,122.759 C3.881165,123.235002 3.47600238,123.594832 3,123.8385 C2.52399762,124.082168 1.99700289,124.204 1.419,124.204 Z M1.419,122.266 C1.63433441,122.266 1.83266576,122.212167 2.014,122.1045 C2.19533424,121.996833 2.35399932,121.801335 2.49,121.518 C2.62600068,121.234665 2.73083297,120.855002 2.8045,120.379 C2.87816703,119.902998 2.915,119.29667 2.915,118.56 C2.915,117.82333 2.87816703,117.219836 2.8045,116.7495 C2.73083297,116.279164 2.62600068,115.910835 2.49,115.6445 C2.35399932,115.378165 2.19533424,115.194001 2.014,115.092 C1.83266576,114.989999 1.63433441,114.939 1.419,114.939 C1.21499898,114.939 1.02233424,114.989999 0.841,115.092 C0.65966576,115.194001 0.50100068,115.378165 0.365,115.6445 C0.22899932,115.910835 0.12133373,116.279164 0.042,116.7495 C-0.03733373,117.219836 -0.077,117.82333 -0.077,118.56 C-0.077,119.29667 -0.03733373,119.902998 0.042,120.379 C0.12133373,120.855002 0.22899932,121.234665 0.365,121.518 C0.50100068,121.801335 0.65966576,121.996833 0.841,122.1045 C1.02233424,122.212167 1.21499898,122.266 1.419,122.266 Z M10.395,124.204 C9.81699711,124.204 9.29000238,124.082168 8.814,123.8385 C8.33799762,123.594832 7.93283501,123.235002 7.5985,122.759 C7.264165,122.282998 7.00350094,121.69367 6.8165,120.991 C6.62949907,120.28833 6.536,119.478005 6.536,118.56 C6.536,117.641995 6.62949907,116.837337 6.8165,116.146 C7.00350094,115.454663 7.264165,114.873836 7.5985,114.4035 C7.93283501,113.933164 8.33799762,113.581834 8.814,113.3495 C9.29000238,113.117166 9.81699711,113.001 10.395,113.001 C10.9730029,113.001 11.4999976,113.117166 11.976,113.3495 C12.4520024,113.581834 12.857165,113.933164 13.1915,114.4035 C13.525835,114.873836 13.7864991,115.454663 13.9735,116.146 C14.1605009,116.837337 14.254,117.641995 14.254,118.56 C14.254,119.478005 14.1605009,120.28833 13.9735,120.991 C13.7864991,121.69367 13.525835,122.282998 13.1915,122.759 C12.857165,123.235002 12.4520024,123.594832 11.976,123.8385 C11.4999976,124.082168 10.9730029,124.204 10.395,124.204 Z M10.395,122.266 C10.6103344,122.266 10.8086658,122.212167 10.99,122.1045 C11.1713342,121.996833 11.3299993,121.801335 11.466,121.518 C11.6020007,121.234665 11.706833,120.855002 11.7805,120.379 C11.854167,119.902998 11.891,119.29667 11.891,118.56 C11.891,117.82333 11.854167,117.219836 11.7805,116.7495 C11.706833,116.279164 11.6020007,115.910835 11.466,115.6445 C11.3299993,115.378165 11.1713342,115.194001 10.99,115.092 C10.8086658,114.989999 10.6103344,114.939 10.395,114.939 C10.190999,114.939 9.99833424,114.989999 9.817,115.092 C9.63566576,115.194001 9.47700068,115.378165 9.341,115.6445 C9.20499932,115.910835 9.09733373,116.279164 9.018,116.7495 C8.93866627,117.219836 8.899,117.82333 8.899,118.56 C8.899,119.29667 8.93866627,119.902998 9.018,120.379 C9.09733373,120.855002 9.20499932,121.234665 9.341,121.518 C9.47700068,121.801335 9.63566576,121.996833 9.817,122.1045 C9.99833424,122.212167 10.190999,122.266 10.395,122.266 Z M15.988,124 L15.988,115.568 L18.028,115.568 L18.198,116.656 L18.266,116.656 C18.6173351,116.304665 18.9913314,116.001501 19.388,115.7465 C19.7846687,115.491499 20.2606639,115.364 20.816,115.364 C21.4166697,115.364 21.9011648,115.485832 22.2695,115.7295 C22.6378352,115.973168 22.9296656,116.321664 23.145,116.775 C23.5190019,116.389665 23.9128313,116.058168 24.3265,115.7805 C24.7401687,115.502832 25.2303305,115.364 25.797,115.364 C26.7036712,115.364 27.3694979,115.667164 27.7945,116.2735 C28.2195021,116.879836 28.432,117.709995 28.432,118.764 L28.432,124 L25.933,124 L25.933,119.087 C25.933,118.474997 25.8508342,118.055668 25.6865,117.829 C25.5221658,117.602332 25.2586685,117.489 24.896,117.489 C24.4766646,117.489 23.9950027,117.760997 23.451,118.305 L23.451,124 L20.952,124 L20.952,119.087 C20.952,118.474997 20.8698342,118.055668 20.7055,117.829 C20.5411658,117.602332 20.2776685,117.489 19.915,117.489 C19.4843312,117.489 19.0083359,117.760997 18.487,118.305 L18.487,124 L15.988,124 Z M30.557,124 L30.557,115.568 L32.597,115.568 L32.767,116.656 L32.835,116.656 C33.1863351,116.304665 33.5603314,116.001501 33.957,115.7465 C34.3536687,115.491499 34.8296639,115.364 35.385,115.364 C35.9856697,115.364 36.4701648,115.485832 36.8385,115.7295 C37.2068352,115.973168 37.4986656,116.321664 37.714,116.775 C38.0880019,116.389665 38.4818313,116.058168 38.8955,115.7805 C39.3091687,115.502832 39.7993305,115.364 40.366,115.364 C41.2726712,115.364 41.9384979,115.667164 42.3635,116.2735 C42.7885021,116.879836 43.001,117.709995 43.001,118.764 L43.001,124 L40.502,124 L40.502,119.087 C40.502,118.474997 40.4198342,118.055668 40.2555,117.829 C40.0911658,117.602332 39.8276685,117.489 39.465,117.489 C39.0456646,117.489 38.5640027,117.760997 38.02,118.305 L38.02,124 L35.521,124 L35.521,119.087 C35.521,118.474997 35.4388342,118.055668 35.2745,117.829 C35.1101658,117.602332 34.8466685,117.489 34.484,117.489 C34.0533312,117.489 33.5773359,117.760997 33.056,118.305 L33.056,124 L30.557,124 Z" id="2400mm" fill="#093169" fill-rule="nonzero" transform="translate(11.245000, 118.602500) rotate(-90.000000) translate(-11.245000, -118.602500) "></path>
                <polyline id="Rectangle-Copy-3" stroke="#CBD8F2" transform="translate(45.500000, 117.500000) rotate(-90.000000) translate(-45.500000, -117.500000) " points="-72 125 -72 110 163 110 163 125"></polyline>
            </g>
            <g id="Group-9" transform="translate(0.000000, 280.000000)">
                <path d="M-12.402,35.204 C-13.2860044,35.204 -14.0339969,35.0651681 -14.646,34.7875 C-15.2580031,34.5098319 -15.7623314,34.138669 -16.159,33.674 L-15.003,32.093 C-14.6743317,32.4103349 -14.314502,32.670999 -13.9235,32.875 C-13.532498,33.079001 -13.104669,33.181 -12.64,33.181 C-12.1073307,33.181 -11.6823349,33.0705011 -11.365,32.8495 C-11.0476651,32.6284989 -10.889,32.314002 -10.889,31.906 C-10.889,31.6679988 -10.9314996,31.4526676 -11.0165,31.26 C-11.1015004,31.0673324 -11.2516656,30.905834 -11.467,30.7755 C-11.6823344,30.645166 -11.9769981,30.543167 -12.351,30.4695 C-12.7250019,30.395833 -13.2066637,30.359 -13.796,30.359 L-13.796,28.591 C-13.3086642,28.591 -12.9035016,28.5570003 -12.5805,28.489 C-12.2574984,28.4209997 -11.9968343,28.321834 -11.7985,28.1915 C-11.6001657,28.061166 -11.4585004,27.9081675 -11.3735,27.7325 C-11.2884996,27.5568325 -11.246,27.3613344 -11.246,27.146 C-11.246,26.7719981 -11.3593322,26.4801677 -11.586,26.2705 C-11.8126678,26.0608323 -12.1413312,25.956 -12.572,25.956 C-12.9573353,25.956 -13.3058318,26.0409991 -13.6175,26.211 C-13.9291682,26.3810008 -14.2549983,26.6133319 -14.595,26.908 L-15.853,25.378 C-15.3543308,24.9473312 -14.8301694,24.6101679 -14.2805,24.3665 C-13.7308306,24.1228321 -13.12167,24.001 -12.453,24.001 C-11.8976639,24.001 -11.3905023,24.066166 -10.9315,24.1965 C-10.4724977,24.326834 -10.0815016,24.5194987 -9.7585,24.7745 C-9.43549839,25.0295013 -9.18333424,25.3383315 -9.002,25.701 C-8.82066576,26.0636685 -8.73,26.4829976 -8.73,26.959 C-8.73,27.5256695 -8.88583177,28.004498 -9.1975,28.3955 C-9.50916822,28.786502 -9.95399711,29.1066654 -10.532,29.356 L-10.532,29.424 C-9.90866355,29.6053342 -9.39583535,29.9141645 -8.9935,30.3505 C-8.59116466,30.7868355 -8.39,31.3563298 -8.39,32.059 C-8.39,32.5576692 -8.49766559,33.002498 -8.713,33.3935 C-8.92833441,33.784502 -9.21733152,34.1131653 -9.58,34.3795 C-9.94266848,34.6458347 -10.3676642,34.8498326 -10.855,34.9915 C-11.3423358,35.1331674 -11.8579973,35.204 -12.402,35.204 Z M-3.069,35.204 C-3.64700289,35.204 -4.17399762,35.0821679 -4.65,34.8385 C-5.12600238,34.5948321 -5.531165,34.2350024 -5.8655,33.759 C-6.19983501,33.2829976 -6.46049907,32.6936702 -6.6475,31.991 C-6.83450094,31.2883298 -6.928,30.4780046 -6.928,29.56 C-6.928,28.6419954 -6.83450094,27.8373368 -6.6475,27.146 C-6.46049907,26.4546632 -6.19983501,25.8738357 -5.8655,25.4035 C-5.531165,24.9331643 -5.12600238,24.5818345 -4.65,24.3495 C-4.17399762,24.1171655 -3.64700289,24.001 -3.069,24.001 C-2.49099711,24.001 -1.96400238,24.1171655 -1.488,24.3495 C-1.01199762,24.5818345 -0.606835005,24.9331643 -0.2725,25.4035 C0.061835005,25.8738357 0.322499065,26.4546632 0.5095,27.146 C0.696500935,27.8373368 0.79,28.6419954 0.79,29.56 C0.79,30.4780046 0.696500935,31.2883298 0.5095,31.991 C0.322499065,32.6936702 0.061835005,33.2829976 -0.2725,33.759 C-0.606835005,34.2350024 -1.01199762,34.5948321 -1.488,34.8385 C-1.96400238,35.0821679 -2.49099711,35.204 -3.069,35.204 Z M-3.069,33.266 C-2.85366559,33.266 -2.65533424,33.2121672 -2.474,33.1045 C-2.29266576,32.9968328 -2.13400068,32.8013347 -1.998,32.518 C-1.86199932,32.2346652 -1.75716704,31.8550024 -1.6835,31.379 C-1.60983296,30.9029976 -1.573,30.2966703 -1.573,29.56 C-1.573,28.8233296 -1.60983296,28.2198357 -1.6835,27.7495 C-1.75716704,27.2791643 -1.86199932,26.9108347 -1.998,26.6445 C-2.13400068,26.3781653 -2.29266576,26.1940005 -2.474,26.092 C-2.65533424,25.9899995 -2.85366559,25.939 -3.069,25.939 C-3.27300102,25.939 -3.46566576,25.9899995 -3.647,26.092 C-3.82833424,26.1940005 -3.98699932,26.3781653 -4.123,26.6445 C-4.25900068,26.9108347 -4.36666627,27.2791643 -4.446,27.7495 C-4.52533373,28.2198357 -4.565,28.8233296 -4.565,29.56 C-4.565,30.2966703 -4.52533373,30.9029976 -4.446,31.379 C-4.36666627,31.8550024 -4.25900068,32.2346652 -4.123,32.518 C-3.98699932,32.8013347 -3.82833424,32.9968328 -3.647,33.1045 C-3.46566576,33.2121672 -3.27300102,33.266 -3.069,33.266 Z M5.907,35.204 C5.32899711,35.204 4.80200238,35.0821679 4.326,34.8385 C3.84999762,34.5948321 3.444835,34.2350024 3.1105,33.759 C2.77616499,33.2829976 2.51550093,32.6936702 2.3285,31.991 C2.14149906,31.2883298 2.048,30.4780046 2.048,29.56 C2.048,28.6419954 2.14149906,27.8373368 2.3285,27.146 C2.51550093,26.4546632 2.77616499,25.8738357 3.1105,25.4035 C3.444835,24.9331643 3.84999762,24.5818345 4.326,24.3495 C4.80200238,24.1171655 5.32899711,24.001 5.907,24.001 C6.48500289,24.001 7.01199762,24.1171655 7.488,24.3495 C7.96400238,24.5818345 8.36916499,24.9331643 8.7035,25.4035 C9.037835,25.8738357 9.29849906,26.4546632 9.4855,27.146 C9.67250093,27.8373368 9.766,28.6419954 9.766,29.56 C9.766,30.4780046 9.67250093,31.2883298 9.4855,31.991 C9.29849906,32.6936702 9.037835,33.2829976 8.7035,33.759 C8.36916499,34.2350024 7.96400238,34.5948321 7.488,34.8385 C7.01199762,35.0821679 6.48500289,35.204 5.907,35.204 Z M5.907,33.266 C6.12233441,33.266 6.32066576,33.2121672 6.502,33.1045 C6.68333424,32.9968328 6.84199932,32.8013347 6.978,32.518 C7.11400068,32.2346652 7.21883297,31.8550024 7.2925,31.379 C7.36616704,30.9029976 7.403,30.2966703 7.403,29.56 C7.403,28.8233296 7.36616704,28.2198357 7.2925,27.7495 C7.21883297,27.2791643 7.11400068,26.9108347 6.978,26.6445 C6.84199932,26.3781653 6.68333424,26.1940005 6.502,26.092 C6.32066576,25.9899995 6.12233441,25.939 5.907,25.939 C5.70299898,25.939 5.51033424,25.9899995 5.329,26.092 C5.14766576,26.1940005 4.98900068,26.3781653 4.853,26.6445 C4.71699932,26.9108347 4.60933373,27.2791643 4.53,27.7495 C4.45066627,28.2198357 4.411,28.8233296 4.411,29.56 C4.411,30.2966703 4.45066627,30.9029976 4.53,31.379 C4.60933373,31.8550024 4.71699932,32.2346652 4.853,32.518 C4.98900068,32.8013347 5.14766576,32.9968328 5.329,33.1045 C5.51033424,33.2121672 5.70299898,33.266 5.907,33.266 Z M11.5,35 L11.5,26.568 L13.54,26.568 L13.71,27.656 L13.778,27.656 C14.1293351,27.3046649 14.5033314,27.0015013 14.9,26.7465 C15.2966687,26.4914987 15.7726639,26.364 16.328,26.364 C16.9286697,26.364 17.4131648,26.4858321 17.7815,26.7295 C18.1498352,26.9731679 18.4416656,27.3216644 18.657,27.775 C19.0310019,27.3896647 19.4248313,27.0581681 19.8385,26.7805 C20.2521687,26.5028319 20.7423305,26.364 21.309,26.364 C22.2156712,26.364 22.8814979,26.6671636 23.3065,27.2735 C23.7315021,27.8798364 23.944,28.7099947 23.944,29.764 L23.944,35 L21.445,35 L21.445,30.087 C21.445,29.4749969 21.3628342,29.0556678 21.1985,28.829 C21.0341658,28.6023322 20.7706685,28.489 20.408,28.489 C19.9886646,28.489 19.5070027,28.7609973 18.963,29.305 L18.963,35 L16.464,35 L16.464,30.087 C16.464,29.4749969 16.3818342,29.0556678 16.2175,28.829 C16.0531658,28.6023322 15.7896685,28.489 15.427,28.489 C14.9963312,28.489 14.5203359,28.7609973 13.999,29.305 L13.999,35 L11.5,35 Z M26.069,35 L26.069,26.568 L28.109,26.568 L28.279,27.656 L28.347,27.656 C28.6983351,27.3046649 29.0723314,27.0015013 29.469,26.7465 C29.8656687,26.4914987 30.3416639,26.364 30.897,26.364 C31.4976697,26.364 31.9821648,26.4858321 32.3505,26.7295 C32.7188352,26.9731679 33.0106656,27.3216644 33.226,27.775 C33.6000019,27.3896647 33.9938313,27.0581681 34.4075,26.7805 C34.8211687,26.5028319 35.3113305,26.364 35.878,26.364 C36.7846712,26.364 37.4504979,26.6671636 37.8755,27.2735 C38.3005021,27.8798364 38.513,28.7099947 38.513,29.764 L38.513,35 L36.014,35 L36.014,30.087 C36.014,29.4749969 35.9318342,29.0556678 35.7675,28.829 C35.6031658,28.6023322 35.3396685,28.489 34.977,28.489 C34.5576646,28.489 34.0760027,28.7609973 33.532,29.305 L33.532,35 L31.033,35 L31.033,30.087 C31.033,29.4749969 30.9508342,29.0556678 30.7865,28.829 C30.6221658,28.6023322 30.3586685,28.489 29.996,28.489 C29.5653312,28.489 29.0893359,28.7609973 28.568,29.305 L28.568,35 L26.069,35 Z" id="300mm" fill="#093169" fill-rule="nonzero" transform="translate(11.177000, 29.602500) rotate(-90.000000) translate(-11.177000, -29.602500) "></path>
                <polyline id="Rectangle-Copy-21" stroke="#CBD8F2" transform="translate(45.500000, 29.000000) scale(-1, 1) rotate(-270.000000) translate(-45.500000, -29.000000) " points="30.5 36.5 30.5 21.5 60.5 21.5 60.5 36.5"></polyline>
            </g>
            <path d="M-12.334,36.204 C-13.2180044,36.204 -13.9659969,36.0595014 -14.578,35.7705 C-15.1900031,35.4814986 -15.7113312,35.1216688 -16.142,34.691 L-15.02,33.11 C-14.6913317,33.4046681 -14.3371686,33.6568323 -13.9575,33.8665 C-13.5778314,34.0761677 -13.155669,34.181 -12.691,34.181 C-12.1356639,34.181 -11.6936683,34.0393348 -11.365,33.756 C-11.0363317,33.4726652 -10.872,33.0533361 -10.872,32.498 C-10.872,31.9539973 -11.0278318,31.5403347 -11.3395,31.257 C-11.6511682,30.9736652 -12.0619975,30.832 -12.572,30.832 C-12.7306675,30.832 -12.8723327,30.8404999 -12.997,30.8575 C-13.1216673,30.8745001 -13.2434994,30.9056664 -13.3625,30.951 C-13.4815006,30.9963336 -13.606166,31.0529997 -13.7365,31.121 C-13.866834,31.1890003 -14.0113325,31.2739995 -14.17,31.376 L-15.292,30.662 L-14.986,25.205 L-8.866,25.205 L-8.866,27.313 L-12.827,27.313 L-13.014,29.336 C-12.809999,29.2453329 -12.6145009,29.1801669 -12.4275,29.1405 C-12.2404991,29.1008331 -12.0336678,29.081 -11.807,29.081 C-11.342331,29.081 -10.9031687,29.1489993 -10.4895,29.285 C-10.0758313,29.4210007 -9.71033492,29.6249986 -9.393,29.897 C-9.07566508,30.1690014 -8.82633424,30.5146646 -8.645,30.934 C-8.46366576,31.3533354 -8.373,31.8519971 -8.373,32.43 C-8.373,33.0306697 -8.48066559,33.563331 -8.696,34.028 C-8.91133441,34.492669 -9.20033152,34.8864984 -9.563,35.2095 C-9.92566848,35.5325016 -10.3478309,35.7789992 -10.8295,35.949 C-11.3111691,36.1190008 -11.8126641,36.204 -12.334,36.204 Z M-3.273,30.186 C-2.98966525,30.186 -2.70350145,30.1038342 -2.4145,29.9395 C-2.12549856,29.7751658 -1.87333441,29.5003353 -1.658,29.115 C-1.7713339,28.2649957 -1.98383177,27.6785016 -2.2955,27.3555 C-2.60716823,27.0324984 -2.95566474,26.871 -3.341,26.871 C-3.70366848,26.871 -4.02099864,27.0098319 -4.293,27.2875 C-4.56500136,27.5651681 -4.701,28.0099969 -4.701,28.622 C-4.701,29.2000029 -4.56500136,29.6051655 -4.293,29.8375 C-4.02099864,30.0698345 -3.68100204,30.186 -3.273,30.186 Z M-3.664,36.204 C-4.37800357,36.204 -4.99849736,36.073668 -5.5255,35.813 C-6.05250263,35.552332 -6.4859983,35.2520017 -6.826,34.912 L-5.5,33.416 C-5.31866576,33.620001 -5.07500153,33.7984992 -4.769,33.9515 C-4.46299847,34.1045008 -4.15133492,34.181 -3.834,34.181 C-3.52799847,34.181 -3.24466797,34.1243339 -2.984,34.011 C-2.72333203,33.8976661 -2.49383432,33.7078347 -2.2955,33.4415 C-2.09716567,33.1751653 -1.93850059,32.8295021 -1.8195,32.4045 C-1.7004994,31.9794979 -1.62966678,31.4496698 -1.607,30.815 C-1.74300068,30.9963342 -1.90166576,31.1578326 -2.083,31.2995 C-2.26433424,31.4411674 -2.45133237,31.5601662 -2.644,31.6565 C-2.83666763,31.7528338 -3.02933237,31.8264997 -3.222,31.8775 C-3.41466763,31.9285003 -3.59599915,31.954 -3.766,31.954 C-4.23066899,31.954 -4.65849804,31.8860007 -5.0495,31.75 C-5.44050195,31.6139993 -5.77766525,31.4100014 -6.061,31.138 C-6.34433475,30.8659986 -6.56816584,30.5203354 -6.7325,30.101 C-6.89683415,29.6816646 -6.979,29.1886695 -6.979,28.622 C-6.979,28.0666639 -6.88266763,27.5651689 -6.69,27.1175 C-6.49733237,26.6698311 -6.23950161,26.2873349 -5.9165,25.97 C-5.59349838,25.6526651 -5.21383551,25.4118342 -4.7775,25.2475 C-4.34116448,25.0831658 -3.87933577,25.001 -3.392,25.001 C-2.87066406,25.001 -2.36350246,25.102999 -1.8705,25.307 C-1.37749753,25.511001 -0.941168565,25.8283312 -0.5615,26.259 C-0.181831435,26.6896688 0.124165505,27.2421633 0.3565,27.9165 C0.588834495,28.5908367 0.705,29.4039952 0.705,30.356 C0.705,31.3646717 0.583167885,32.2373296 0.3395,32.974 C0.095832115,33.7106704 -0.227164655,34.3169976 -0.6295,34.793 C-1.03183534,35.2690024 -1.49649736,35.6231655 -2.0235,35.8555 C-2.55050263,36.0878345 -3.0973305,36.204 -3.664,36.204 Z M5.907,36.204 C5.32899711,36.204 4.80200238,36.0821679 4.326,35.8385 C3.84999762,35.5948321 3.44483501,35.2350024 3.1105,34.759 C2.776165,34.2829976 2.51550094,33.6936702 2.3285,32.991 C2.14149907,32.2883298 2.048,31.4780046 2.048,30.56 C2.048,29.6419954 2.14149907,28.8373368 2.3285,28.146 C2.51550094,27.4546632 2.776165,26.8738357 3.1105,26.4035 C3.44483501,25.9331643 3.84999762,25.5818345 4.326,25.3495 C4.80200238,25.1171655 5.32899711,25.001 5.907,25.001 C6.48500289,25.001 7.01199762,25.1171655 7.488,25.3495 C7.96400238,25.5818345 8.369165,25.9331643 8.7035,26.4035 C9.03783501,26.8738357 9.29849907,27.4546632 9.4855,28.146 C9.67250094,28.8373368 9.766,29.6419954 9.766,30.56 C9.766,31.4780046 9.67250094,32.2883298 9.4855,32.991 C9.29849907,33.6936702 9.03783501,34.2829976 8.7035,34.759 C8.369165,35.2350024 7.96400238,35.5948321 7.488,35.8385 C7.01199762,36.0821679 6.48500289,36.204 5.907,36.204 Z M5.907,34.266 C6.12233441,34.266 6.32066576,34.2121672 6.502,34.1045 C6.68333424,33.9968328 6.84199932,33.8013347 6.978,33.518 C7.11400068,33.2346652 7.21883297,32.8550024 7.2925,32.379 C7.36616704,31.9029976 7.403,31.2966703 7.403,30.56 C7.403,29.8233296 7.36616704,29.2198357 7.2925,28.7495 C7.21883297,28.2791643 7.11400068,27.9108347 6.978,27.6445 C6.84199932,27.3781653 6.68333424,27.1940005 6.502,27.092 C6.32066576,26.9899995 6.12233441,26.939 5.907,26.939 C5.70299898,26.939 5.51033424,26.9899995 5.329,27.092 C5.14766576,27.1940005 4.98900068,27.3781653 4.853,27.6445 C4.71699932,27.9108347 4.60933373,28.2791643 4.53,28.7495 C4.45066627,29.2198357 4.411,29.8233296 4.411,30.56 C4.411,31.2966703 4.45066627,31.9029976 4.53,32.379 C4.60933373,32.8550024 4.71699932,33.2346652 4.853,33.518 C4.98900068,33.8013347 5.14766576,33.9968328 5.329,34.1045 C5.51033424,34.2121672 5.70299898,34.266 5.907,34.266 Z M11.5,36 L11.5,27.568 L13.54,27.568 L13.71,28.656 L13.778,28.656 C14.1293351,28.3046649 14.5033314,28.0015013 14.9,27.7465 C15.2966687,27.4914987 15.7726639,27.364 16.328,27.364 C16.9286697,27.364 17.4131648,27.4858321 17.7815,27.7295 C18.1498352,27.9731679 18.4416656,28.3216644 18.657,28.775 C19.0310019,28.3896647 19.4248313,28.0581681 19.8385,27.7805 C20.2521687,27.5028319 20.7423305,27.364 21.309,27.364 C22.2156712,27.364 22.8814979,27.6671636 23.3065,28.2735 C23.7315021,28.8798364 23.944,29.7099947 23.944,30.764 L23.944,36 L21.445,36 L21.445,31.087 C21.445,30.4749969 21.3628342,30.0556678 21.1985,29.829 C21.0341658,29.6023322 20.7706685,29.489 20.408,29.489 C19.9886646,29.489 19.5070027,29.7609973 18.963,30.305 L18.963,36 L16.464,36 L16.464,31.087 C16.464,30.4749969 16.3818342,30.0556678 16.2175,29.829 C16.0531658,29.6023322 15.7896685,29.489 15.427,29.489 C14.9963312,29.489 14.5203359,29.7609973 13.999,30.305 L13.999,36 L11.5,36 Z M26.069,36 L26.069,27.568 L28.109,27.568 L28.279,28.656 L28.347,28.656 C28.6983351,28.3046649 29.0723314,28.0015013 29.469,27.7465 C29.8656687,27.4914987 30.3416639,27.364 30.897,27.364 C31.4976697,27.364 31.9821648,27.4858321 32.3505,27.7295 C32.7188352,27.9731679 33.0106656,28.3216644 33.226,28.775 C33.6000019,28.3896647 33.9938313,28.0581681 34.4075,27.7805 C34.8211687,27.5028319 35.3113305,27.364 35.878,27.364 C36.7846712,27.364 37.4504979,27.6671636 37.8755,28.2735 C38.3005021,28.8798364 38.513,29.7099947 38.513,30.764 L38.513,36 L36.014,36 L36.014,31.087 C36.014,30.4749969 35.9318342,30.0556678 35.7675,29.829 C35.6031658,29.6023322 35.3396685,29.489 34.977,29.489 C34.5576646,29.489 34.0760027,29.7609973 33.532,30.305 L33.532,36 L31.033,36 L31.033,31.087 C31.033,30.4749969 30.9508342,30.0556678 30.7865,29.829 C30.6221658,29.6023322 30.3586685,29.489 29.996,29.489 C29.5653312,29.489 29.0893359,29.7609973 28.568,30.305 L28.568,36 L26.069,36 Z" id="590mm" fill="#093169" fill-rule="nonzero" transform="translate(11.185500, 30.602500) rotate(-450.000000) translate(-11.185500, -30.602500) "></path>
            <polyline id="Rectangle-Copy-19" stroke="#CBD8F2" transform="translate(45.500000, 29.780000) scale(-1, 1) rotate(90.000000) translate(-45.500000, -29.780000) " points="16.5966667 37.28 16.5 22.28 74.5 22.28 74.5 37.28"></polyline>
            <g id="Group-2" transform="translate(427.000000, 1.000000)" stroke="#CBD8F2">
                <g id="Group-Copy">
                    <rect id="Rectangle" fill="#FFFFFF" x="23" y="23" width="124" height="35"></rect>
                    <path d="M147,22 L20,22 C17.790861,22 16,20.209139 16,18 C17.3383598,18 61.0050264,18 147,18 L147,22 Z" id="Rectangle" fill="#FFFFFF"></path>
                    <rect id="Rectangle" fill="#FFFFFF" x="21" y="22" width="126" height="2"></rect>
                    <rect id="Rectangle-Copy-2" fill="#FFFFFF" x="11" y="15" width="136" height="3"></rect>
                    <polygon id="Rectangle-Copy-11" fill="#FFFFFF" stroke-linejoin="bevel" points="6 12 147 12 147 15 8 15"></polygon>
                    <rect id="Rectangle-Copy-3" fill="#FFFFFF" x="6" y="8" width="141" height="4"></rect>
                    <rect id="Rectangle-Copy-12" fill="#FFFFFF" x="0" y="0" width="147" height="2"></rect>
                    <path d="M147,8 L6,8 C2.6862915,8 0,5.3137085 0,2 C2.53724207,2 51.5372421,2 147,2 L147,8 Z" id="Rectangle" fill="#FFFFFF"></path>
                    <path d="M47,0 L47,57.8251429" id="Line"></path>
                </g>
                <g id="Type-a-Leg-Copy" transform="translate(14.000000, 58.000000)" fill="#FFFFFF">
                    <path d="M7,81 L36,81 C36,91.6666667 36,102.333333 36,113 C36,123.666667 36,134.333333 36,145 L7,145 C7,134.333333 7,123.666667 7,113 C7,102.333333 7,91.6666667 7,81 Z" id="Rectangle-Copy-4"></path>
                    <path d="M7,21 L36,21 C36,31 36,41 36,51 C36,61 35.3333333,71 34,81 L9,81 C7.66666667,71 7,61 7,51 C7,41 7,31 7,21 Z" id="Rectangle-Copy-5" transform="translate(21.500000, 51.000000) rotate(-180.000000) translate(-21.500000, -51.000000) "></path>
                    <rect id="Rectangle" x="2" y="227" width="39" height="9"></rect>
                    <rect id="Rectangle-Copy-10" x="0" y="236" width="43" height="30"></rect>
                    <rect id="Rectangle-Copy" x="2" y="220" width="39" height="7" rx="3.5"></rect>
                    <rect id="Rectangle" x="7" y="145" width="29" height="75"></rect>
                    <polygon id="Rectangle-Copy-6" points="7 217 36 217 38 220 5 220"></polygon>
                    <rect id="Rectangle" x="7" y="17" width="29" height="4" rx="2"></rect>
                    <rect id="Rectangle" x="9" y="12" width="24" height="5"></rect>
                    <rect id="Rectangle-Copy-7" x="7" y="10" width="28" height="2"></rect>
                    <polygon id="Rectangle-Copy-8" transform="translate(21.000000, 8.000000) scale(1, -1) translate(-21.000000, -8.000000) " points="7 6 35 6 37 10 5 10"></polygon>
                    <path d="M3,2 L39,2 C38.3333333,2.66666667 38,3.33333333 38,4 C38,4.66666667 38,5.33333333 38,6 L4,6 C4,5.33333333 4,4.66666667 4,4 C4,3.33333333 3.66666667,2.66666667 3,2 Z" id="Rectangle"></path>
                    <rect id="Rectangle-Copy-9" transform="translate(21.000000, 1.000000) scale(1, -1) translate(-21.000000, -1.000000) " x="2" y="0" width="38" height="2"></rect>
                </g>
            </g>
        </g>
    </g>
</svg>