<?xml version="1.0" encoding="UTF-8"?>
<svg width="687px" height="547px" viewBox="0 0 687 547" version="1.1" xmlns="http://www.w3.org/2000/svg" xmlns:xlink="http://www.w3.org/1999/xlink">
    <!-- Generator: Sketch 58 (84663) - https://sketch.com -->
    <title>porticos/type-a</title>
    <desc>Created with Sketch.</desc>
    <g id="porticos/type-a" stroke="none" stroke-width="1" fill="none" fill-rule="evenodd">
        <rect fill="#F5F9FF" x="0" y="0" width="687" height="547"></rect>
        <g id="Group-8" transform="translate(35.000000, 78.000000)">
            <g id="Group-2" transform="translate(434.000000, 0.000000)" stroke="#CBD8F2">
                <g id="Type-a-Leg-Copy" transform="translate(16.000000, 59.000000)" fill="#FFFFFF">
                    <path d="M7,81 L36,81 C36,91.6666667 36,102.333333 36,113 C36,123.666667 36,134.333333 36,145 L7,145 C7,134.333333 7,123.666667 7,113 C7,102.333333 7,91.6666667 7,81 Z" id="Rectangle-Copy-4"></path>
                    <path d="M7,21 L36,21 C36,31 36,41 36,51 C36,61 35.3333333,71 34,81 L9,81 C7.66666667,71 7,61 7,51 C7,41 7,31 7,21 Z" id="Rectangle-Copy-5" transform="translate(21.500000, 51.000000) rotate(-180.000000) translate(-21.500000, -51.000000) "></path>
                    <rect id="Rectangle" x="2" y="227" width="39" height="9"></rect>
                    <rect id="Rectangle-Copy-10" x="0" y="236" width="43" height="30"></rect>
                    <rect id="Rectangle-Copy" x="2" y="220" width="39" height="7" rx="3.5"></rect>
                    <rect id="Rectangle" x="7" y="145" width="29" height="75"></rect>
                    <polygon id="Rectangle-Copy-6" points="7 217 36 217 38 220 5 220"></polygon>
                    <rect id="Rectangle" x="7" y="17" width="29" height="4" rx="2"></rect>
                    <rect id="Rectangle" x="9" y="12" width="24" height="5"></rect>
                    <rect id="Rectangle-Copy-7" x="7" y="10" width="28" height="2"></rect>
                    <polygon id="Rectangle-Copy-8" transform="translate(21.000000, 8.000000) scale(1, -1) translate(-21.000000, -8.000000) " points="7 6 35 6 37 10 5 10"></polygon>
                    <path d="M3,2 L39,2 C38.3333333,2.66666667 38,3.33333333 38,4 C38,4.66666667 38,5.33333333 38,6 L4,6 C4,5.33333333 4,4.66666667 4,4 C4,3.33333333 3.66666667,2.66666667 3,2 Z" id="Rectangle"></path>
                    <rect id="Rectangle-Copy-9" transform="translate(21.000000, 1.000000) scale(1, -1) translate(-21.000000, -1.000000) " x="2" y="0" width="38" height="2"></rect>
                </g>
                <rect id="Rectangle-Copy-16" fill="#FFFFFF" x="24" y="25" width="124" height="34"></rect>
                <polygon id="Rectangle-Copy-17" fill="#FFFFFF" transform="translate(85.000000, 23.000000) scale(1, -1) translate(-85.000000, -23.000000) " points="24 21 148 21 148 25 22 25"></polygon>
                <path d="M148,21 L22.0318725,21 C20.9097003,21 20,20.1045695 20,19 C21.3599179,19 64.0265846,19 148,19 L148,21 Z" id="Rectangle-Copy-18" fill="#FFFFFF"></path>
                <path d="M23.5,39 L148,39 L148,39 L148,42 L23.5,42 C22.6715729,42 22,41.3284271 22,40.5 C22,39.6715729 22.6715729,39 23.5,39 Z" id="Rectangle-Copy-20" fill="#FFFFFF"></path>
                <rect id="Rectangle-Copy-22" fill="#FFFFFF" x="10" y="15" width="138" height="4"></rect>
                <polygon id="Rectangle-Copy-23" fill="#FFFFFF" points="5 8 148 8 148 10 5 10"></polygon>
                <polygon id="Rectangle-Copy-24" fill="#FFFFFF" points="0 1 148 1 148 3 0 3"></polygon>
                <path d="M8,10 L148,10 L148,15 L6,15 C7.33333333,14.6666667 8,14 8,13 C8,12 8,11 8,10 Z" id="Rectangle-Copy-25" fill="#FFFFFF" stroke-linejoin="bevel" transform="translate(77.000000, 12.500000) scale(1, -1) translate(-77.000000, -12.500000) "></path>
                <path d="M0,3 L148,3 L148,8 L4,8 C2.61928813,8 1.5,6.88071187 1.5,5.5 C1.5,4.11928813 1.5,3 0,3 Z" id="Rectangle-Copy-26" fill="#FFFFFF"></path>
                <path d="M52.5585,0.36 L52.5585,58.42" id="Line-9"></path>
            </g>
            <g id="Type-a-Leg" transform="translate(306.000000, 58.000000)" fill="#FFFFFF" stroke="#CBD8F2">
                <path d="M7,81 L36,81 C36,91.6666667 36,102.333333 36,113 C36,123.666667 36,134.333333 36,145 L7,145 C7,134.333333 7,123.666667 7,113 C7,102.333333 7,91.6666667 7,81 Z" id="Rectangle-Copy-4"></path>
                <path d="M7,21 L36,21 C36,31 36,41 36,51 C36,61 35.3333333,71 34,81 L9,81 C7.66666667,71 7,61 7,51 C7,41 7,31 7,21 Z" id="Rectangle-Copy-5" transform="translate(21.500000, 51.000000) rotate(-180.000000) translate(-21.500000, -51.000000) "></path>
                <rect id="Rectangle" x="2" y="227" width="39" height="9"></rect>
                <rect id="Rectangle-Copy-10" x="0" y="236" width="43" height="30"></rect>
                <rect id="Rectangle-Copy" x="2" y="220" width="39" height="7" rx="3.5"></rect>
                <rect id="Rectangle" x="7" y="145" width="29" height="75"></rect>
                <polygon id="Rectangle-Copy-6" points="7 217 36 217 38 220 5 220"></polygon>
                <rect id="Rectangle" x="7" y="17" width="29" height="4" rx="2"></rect>
                <rect id="Rectangle" x="9" y="12" width="24" height="5"></rect>
                <rect id="Rectangle-Copy-7" x="7" y="10" width="28" height="2"></rect>
                <polygon id="Rectangle-Copy-8" transform="translate(21.000000, 8.000000) scale(1, -1) translate(-21.000000, -8.000000) " points="7 6 35 6 37 10 5 10"></polygon>
                <path d="M3,2 L39,2 C38.3333333,2.66666667 38,3.33333333 38,4 C38,4.66666667 38,5.33333333 38,6 L4,6 C4,5.33333333 4,4.66666667 4,4 C4,3.33333333 3.66666667,2.66666667 3,2 Z" id="Rectangle"></path>
                <rect id="Rectangle-Copy-9" transform="translate(21.000000, 1.000000) scale(1, -1) translate(-21.000000, -1.000000) " x="2" y="0" width="38" height="2"></rect>
            </g>
            <g id="Type-a-Leg" transform="translate(84.000000, 58.000000)" fill="#FFFFFF" stroke="#CBD8F2">
                <path d="M7,81 L36,81 C36,91.6666667 36,102.333333 36,113 C36,123.666667 36,134.333333 36,145 L7,145 C7,134.333333 7,123.666667 7,113 C7,102.333333 7,91.6666667 7,81 Z" id="Rectangle-Copy-4"></path>
                <path d="M7,21 L36,21 C36,31 36,41 36,51 C36,61 35.3333333,71 34,81 L9,81 C7.66666667,71 7,61 7,51 C7,41 7,31 7,21 Z" id="Rectangle-Copy-5" transform="translate(21.500000, 51.000000) rotate(-180.000000) translate(-21.500000, -51.000000) "></path>
                <rect id="Rectangle" x="2" y="227" width="39" height="9"></rect>
                <rect id="Rectangle-Copy-10" x="0" y="236" width="43" height="30"></rect>
                <rect id="Rectangle-Copy" x="2" y="220" width="39" height="7" rx="3.5"></rect>
                <rect id="Rectangle" x="7" y="145" width="29" height="75"></rect>
                <polygon id="Rectangle-Copy-6" points="7 217 36 217 38 220 5 220"></polygon>
                <rect id="Rectangle" x="7" y="17" width="29" height="4" rx="2"></rect>
                <rect id="Rectangle" x="9" y="12" width="24" height="5"></rect>
                <rect id="Rectangle-Copy-7" x="7" y="10" width="28" height="2"></rect>
                <polygon id="Rectangle-Copy-8" transform="translate(21.000000, 8.000000) scale(1, -1) translate(-21.000000, -8.000000) " points="7 6 35 6 37 10 5 10"></polygon>
                <path d="M3,2 L39,2 C38.3333333,2.66666667 38,3.33333333 38,4 C38,4.66666667 38,5.33333333 38,6 L4,6 C4,5.33333333 4,4.66666667 4,4 C4,3.33333333 3.66666667,2.66666667 3,2 Z" id="Rectangle"></path>
                <rect id="Rectangle-Copy-9" transform="translate(21.000000, 1.000000) scale(1, -1) translate(-21.000000, -1.000000) " x="2" y="0" width="38" height="2"></rect>
            </g>
            <g id="Group-7" transform="translate(68.000000, 0.000000)" stroke="#CBD8F2">
                <rect id="Rectangle" fill="#FFFFFF" x="25" y="24" width="247" height="34"></rect>
                <polygon id="Rectangle-Copy-13" fill="#FFFFFF" transform="translate(148.500000, 22.000000) scale(1, -1) translate(-148.500000, -22.000000) " points="25 20 272 20 274 24 23 24"></polygon>
                <path d="M276,18 C276,19.1045695 275.0903,20 273.968127,20 L23.0318725,20 C21.9097003,20 21,19.1045695 21,18 C25.0756505,18 273.000309,18 276,18 Z" id="Rectangle" fill="#FFFFFF"></path>
                <g id="Group-5" transform="translate(25.000000, 24.000000)" fill="#FFFFFF">
                    <rect id="Rectangle-Copy-2" x="0" y="0" width="82" height="34"></rect>
                    <rect id="Rectangle-Copy-3" x="165" y="0" width="82" height="34"></rect>
                </g>
                <g id="Group-6" transform="translate(23.000000, 38.000000)" fill="#FFFFFF">
                    <path d="M1.5,0 L84,0 L84,0 L84,3 L1.5,3 C0.671572875,3 1.01453063e-16,2.32842712 0,1.5 C-1.01453063e-16,0.671572875 0.671572875,1.52179594e-16 1.5,0 Z" id="Rectangle"></path>
                    <path d="M167,0 L249.5,0 C250.328427,-1.52179594e-16 251,0.671572875 251,1.5 C251,2.32842712 250.328427,3 249.5,3 L167,3 L167,3 L167,0 Z" id="Rectangle-Copy-12"></path>
                    <rect id="Rectangle-Copy-11" x="84" y="0" width="83" height="3"></rect>
                </g>
                <rect id="Rectangle" fill="#FFFFFF" x="11" y="14" width="275" height="4"></rect>
                <rect id="Rectangle" fill="#FFFFFF" x="6" y="7" width="285" height="2"></rect>
                <rect id="Rectangle-Copy-15" fill="#FFFFFF" x="1" y="0" width="295" height="2"></rect>
                <path d="M9,9 L288,9 C287.709167,10.3332581 287.709167,11.3332581 288,12 C288.290833,12.6667419 288.957499,13.3334085 290,14 L7,14 C8.33333333,13.6666667 9,13 9,12 C9,11 9,10 9,9 Z" id="Rectangle-Copy-14" fill="#FFFFFF" stroke-linejoin="bevel" transform="translate(148.500000, 11.500000) scale(1, -1) translate(-148.500000, -11.500000) "></path>
                <path d="M0,2 L296,2 C293.5401,2.136 294.5,3.11928813 294.5,4.5 C294.5,5.88071187 293.380712,7 292,7 L4,7 C2.61928813,7 1.5,5.88071187 1.5,4.5 C1.5,3.11928813 1.5,2 0,2 Z" id="Rectangle" fill="#FFFFFF"></path>
                <g id="Group" transform="translate(76.000000, 7.000000)">
                    <g id="Group-3">
                        <path d="M0.68,0 L0.68,17" id="Line-8"></path>
                        <path d="M142.68,0 L142.68,17" id="Line-8-Copy"></path>
                        <path d="M71.68,0 L71.68,17" id="Line-8-Copy-2"></path>
                    </g>
                </g>
                <g id="Group-4" transform="translate(98.000000, 0.000000)">
                    <path d="M0.68,0 L0.68,7" id="Line-8-Copy-5"></path>
                    <path d="M98.68,0 L98.68,7" id="Line-8-Copy-6"></path>
                </g>
            </g>
            <g id="Group-10" transform="translate(0.000000, 59.000000)">
                <path d="M-20.392,124 L-20.392,122.572 L-19.5909593,121.817199 C-19.2047201,121.45 -18.8399017,121.098102 -18.4965,120.7615 C-17.9241638,120.200497 -17.4311687,119.673502 -17.0175,119.1805 C-16.6038313,118.687498 -16.2808345,118.228502 -16.0485,117.8035 C-15.8161655,117.378498 -15.7,116.973335 -15.7,116.588 C-15.7,116.055331 -15.8359986,115.650168 -16.108,115.3725 C-16.3800014,115.094832 -16.7539976,114.956 -17.23,114.956 C-17.6266686,114.956 -17.9779985,115.066499 -18.284,115.2875 C-18.5900015,115.508501 -18.8789986,115.766332 -19.151,116.061 L-20.511,114.718 C-19.9783307,114.151331 -19.4343361,113.723501 -18.879,113.4345 C-18.3236639,113.145499 -17.6606705,113.001 -16.89,113.001 C-16.3573307,113.001 -15.8728355,113.083166 -15.4365,113.2475 C-15.0001645,113.411834 -14.6233349,113.644165 -14.306,113.9445 C-13.9886651,114.244835 -13.7450009,114.604665 -13.575,115.024 C-13.4049992,115.443335 -13.32,115.913664 -13.32,116.435 C-13.32,116.888336 -13.4163324,117.350164 -13.609,117.8205 C-13.8016676,118.290836 -14.0594984,118.761164 -14.3825,119.2315 C-14.7055016,119.701836 -15.0738313,120.172164 -15.4875,120.6425 C-15.9011687,121.112836 -16.3289978,121.574664 -16.771,122.028 L-16.3396251,121.979125 C-16.1880422,121.963542 -16.0286675,121.948667 -15.8615,121.9345 C-15.527165,121.906167 -15.229668,121.892 -14.969,121.892 L-12.793,121.892 L-12.793,124 L-20.392,124 Z M-7.047,124 L-7.047,121.416 L-11.722,121.416 L-11.722,119.699 L-7.778,113.205 L-4.718,113.205 L-4.718,119.512 L-3.477,119.512 L-3.477,121.416 L-4.718,121.416 L-4.718,124 L-7.047,124 Z M-9.325,119.512 L-7.047,119.512 L-7.047,117.761 L-7.04156003,117.31356 C-7.03793338,117.1558 -7.03249339,116.989427 -7.02524004,116.814441 L-6.97220002,115.78356 C-6.96313337,115.62852 -6.95406671,115.483001 -6.945,115.347 L-7.013,115.347 C-7.14900068,115.641668 -7.29066593,115.941998 -7.438,116.248 C-7.58533407,116.554002 -7.73833254,116.859998 -7.897,117.166 L-9.325,119.512 Z M1.419,124.204 C0.84099711,124.204 0.31400238,124.082168 -0.162,123.8385 C-0.63800238,123.594832 -1.043165,123.235002 -1.3775,122.759 C-1.71183501,122.282998 -1.97249907,121.69367 -2.1595,120.991 C-2.34650094,120.28833 -2.44,119.478005 -2.44,118.56 C-2.44,117.641995 -2.34650094,116.837337 -2.1595,116.146 C-1.97249907,115.454663 -1.71183501,114.873836 -1.3775,114.4035 C-1.043165,113.933164 -0.63800238,113.581834 -0.162,113.3495 C0.31400238,113.117166 0.84099711,113.001 1.419,113.001 C1.99700289,113.001 2.52399762,113.117166 3,113.3495 C3.47600238,113.581834 3.881165,113.933164 4.2155,114.4035 C4.54983501,114.873836 4.81049906,115.454663 4.9975,116.146 C5.18450093,116.837337 5.278,117.641995 5.278,118.56 C5.278,119.478005 5.18450093,120.28833 4.9975,120.991 C4.81049906,121.69367 4.54983501,122.282998 4.2155,122.759 C3.881165,123.235002 3.47600238,123.594832 3,123.8385 C2.52399762,124.082168 1.99700289,124.204 1.419,124.204 Z M1.419,122.266 C1.63433441,122.266 1.83266576,122.212167 2.014,122.1045 C2.19533424,121.996833 2.35399932,121.801335 2.49,121.518 C2.62600068,121.234665 2.73083297,120.855002 2.8045,120.379 C2.87816703,119.902998 2.915,119.29667 2.915,118.56 C2.915,117.82333 2.87816703,117.219836 2.8045,116.7495 C2.73083297,116.279164 2.62600068,115.910835 2.49,115.6445 C2.35399932,115.378165 2.19533424,115.194001 2.014,115.092 C1.83266576,114.989999 1.63433441,114.939 1.419,114.939 C1.21499898,114.939 1.02233424,114.989999 0.841,115.092 C0.65966576,115.194001 0.50100068,115.378165 0.365,115.6445 C0.22899932,115.910835 0.12133373,116.279164 0.042,116.7495 C-0.03733373,117.219836 -0.077,117.82333 -0.077,118.56 C-0.077,119.29667 -0.03733373,119.902998 0.042,120.379 C0.12133373,120.855002 0.22899932,121.234665 0.365,121.518 C0.50100068,121.801335 0.65966576,121.996833 0.841,122.1045 C1.02233424,122.212167 1.21499898,122.266 1.419,122.266 Z M10.395,124.204 C9.81699711,124.204 9.29000238,124.082168 8.814,123.8385 C8.33799762,123.594832 7.93283501,123.235002 7.5985,122.759 C7.264165,122.282998 7.00350094,121.69367 6.8165,120.991 C6.62949907,120.28833 6.536,119.478005 6.536,118.56 C6.536,117.641995 6.62949907,116.837337 6.8165,116.146 C7.00350094,115.454663 7.264165,114.873836 7.5985,114.4035 C7.93283501,113.933164 8.33799762,113.581834 8.814,113.3495 C9.29000238,113.117166 9.81699711,113.001 10.395,113.001 C10.9730029,113.001 11.4999976,113.117166 11.976,113.3495 C12.4520024,113.581834 12.857165,113.933164 13.1915,114.4035 C13.525835,114.873836 13.7864991,115.454663 13.9735,116.146 C14.1605009,116.837337 14.254,117.641995 14.254,118.56 C14.254,119.478005 14.1605009,120.28833 13.9735,120.991 C13.7864991,121.69367 13.525835,122.282998 13.1915,122.759 C12.857165,123.235002 12.4520024,123.594832 11.976,123.8385 C11.4999976,124.082168 10.9730029,124.204 10.395,124.204 Z M10.395,122.266 C10.6103344,122.266 10.8086658,122.212167 10.99,122.1045 C11.1713342,121.996833 11.3299993,121.801335 11.466,121.518 C11.6020007,121.234665 11.706833,120.855002 11.7805,120.379 C11.854167,119.902998 11.891,119.29667 11.891,118.56 C11.891,117.82333 11.854167,117.219836 11.7805,116.7495 C11.706833,116.279164 11.6020007,115.910835 11.466,115.6445 C11.3299993,115.378165 11.1713342,115.194001 10.99,115.092 C10.8086658,114.989999 10.6103344,114.939 10.395,114.939 C10.190999,114.939 9.99833424,114.989999 9.817,115.092 C9.63566576,115.194001 9.47700068,115.378165 9.341,115.6445 C9.20499932,115.910835 9.09733373,116.279164 9.018,116.7495 C8.93866627,117.219836 8.899,117.82333 8.899,118.56 C8.899,119.29667 8.93866627,119.902998 9.018,120.379 C9.09733373,120.855002 9.20499932,121.234665 9.341,121.518 C9.47700068,121.801335 9.63566576,121.996833 9.817,122.1045 C9.99833424,122.212167 10.190999,122.266 10.395,122.266 Z M15.988,124 L15.988,115.568 L18.028,115.568 L18.198,116.656 L18.266,116.656 C18.6173351,116.304665 18.9913314,116.001501 19.388,115.7465 C19.7846687,115.491499 20.2606639,115.364 20.816,115.364 C21.4166697,115.364 21.9011648,115.485832 22.2695,115.7295 C22.6378352,115.973168 22.9296656,116.321664 23.145,116.775 C23.5190019,116.389665 23.9128313,116.058168 24.3265,115.7805 C24.7401687,115.502832 25.2303305,115.364 25.797,115.364 C26.7036712,115.364 27.3694979,115.667164 27.7945,116.2735 C28.2195021,116.879836 28.432,117.709995 28.432,118.764 L28.432,124 L25.933,124 L25.933,119.087 C25.933,118.474997 25.8508342,118.055668 25.6865,117.829 C25.5221658,117.602332 25.2586685,117.489 24.896,117.489 C24.4766646,117.489 23.9950027,117.760997 23.451,118.305 L23.451,124 L20.952,124 L20.952,119.087 C20.952,118.474997 20.8698342,118.055668 20.7055,117.829 C20.5411658,117.602332 20.2776685,117.489 19.915,117.489 C19.4843312,117.489 19.0083359,117.760997 18.487,118.305 L18.487,124 L15.988,124 Z M30.557,124 L30.557,115.568 L32.597,115.568 L32.767,116.656 L32.835,116.656 C33.1863351,116.304665 33.5603314,116.001501 33.957,115.7465 C34.3536687,115.491499 34.8296639,115.364 35.385,115.364 C35.9856697,115.364 36.4701648,115.485832 36.8385,115.7295 C37.2068352,115.973168 37.4986656,116.321664 37.714,116.775 C38.0880019,116.389665 38.4818313,116.058168 38.8955,115.7805 C39.3091687,115.502832 39.7993305,115.364 40.366,115.364 C41.2726712,115.364 41.9384979,115.667164 42.3635,116.2735 C42.7885021,116.879836 43.001,117.709995 43.001,118.764 L43.001,124 L40.502,124 L40.502,119.087 C40.502,118.474997 40.4198342,118.055668 40.2555,117.829 C40.0911658,117.602332 39.8276685,117.489 39.465,117.489 C39.0456646,117.489 38.5640027,117.760997 38.02,118.305 L38.02,124 L35.521,124 L35.521,119.087 C35.521,118.474997 35.4388342,118.055668 35.2745,117.829 C35.1101658,117.602332 34.8466685,117.489 34.484,117.489 C34.0533312,117.489 33.5773359,117.760997 33.056,118.305 L33.056,124 L30.557,124 Z" id="2400mm" fill="#093169" fill-rule="nonzero" transform="translate(11.245000, 118.602500) rotate(-90.000000) translate(-11.245000, -118.602500) "></path>
                <polyline id="Rectangle-Copy-3" stroke="#CBD8F2" transform="translate(45.500000, 117.500000) rotate(-90.000000) translate(-45.500000, -117.500000) " points="-72 125 -72 110 163 110 163 125"></polyline>
            </g>
            <g id="Group-9" transform="translate(0.000000, 280.000000)">
                <path d="M-12.402,35.204 C-13.2860044,35.204 -14.0339969,35.0651681 -14.646,34.7875 C-15.2580031,34.5098319 -15.7623314,34.138669 -16.159,33.674 L-15.003,32.093 C-14.6743317,32.4103349 -14.314502,32.670999 -13.9235,32.875 C-13.532498,33.079001 -13.104669,33.181 -12.64,33.181 C-12.1073307,33.181 -11.6823349,33.0705011 -11.365,32.8495 C-11.0476651,32.6284989 -10.889,32.314002 -10.889,31.906 C-10.889,31.6679988 -10.9314996,31.4526676 -11.0165,31.26 C-11.1015004,31.0673324 -11.2516656,30.905834 -11.467,30.7755 C-11.6823344,30.645166 -11.9769981,30.543167 -12.351,30.4695 C-12.7250019,30.395833 -13.2066637,30.359 -13.796,30.359 L-13.796,28.591 C-13.3086642,28.591 -12.9035016,28.5570003 -12.5805,28.489 C-12.2574984,28.4209997 -11.9968343,28.321834 -11.7985,28.1915 C-11.6001657,28.061166 -11.4585004,27.9081675 -11.3735,27.7325 C-11.2884996,27.5568325 -11.246,27.3613344 -11.246,27.146 C-11.246,26.7719981 -11.3593322,26.4801677 -11.586,26.2705 C-11.8126678,26.0608323 -12.1413312,25.956 -12.572,25.956 C-12.9573353,25.956 -13.3058318,26.0409991 -13.6175,26.211 C-13.9291682,26.3810008 -14.2549983,26.6133319 -14.595,26.908 L-15.853,25.378 C-15.3543308,24.9473312 -14.8301694,24.6101679 -14.2805,24.3665 C-13.7308306,24.1228321 -13.12167,24.001 -12.453,24.001 C-11.8976639,24.001 -11.3905023,24.066166 -10.9315,24.1965 C-10.4724977,24.326834 -10.0815016,24.5194987 -9.7585,24.7745 C-9.43549839,25.0295013 -9.18333424,25.3383315 -9.002,25.701 C-8.82066576,26.0636685 -8.73,26.4829976 -8.73,26.959 C-8.73,27.5256695 -8.88583177,28.004498 -9.1975,28.3955 C-9.50916822,28.786502 -9.95399711,29.1066654 -10.532,29.356 L-10.532,29.424 C-9.90866355,29.6053342 -9.39583535,29.9141645 -8.9935,30.3505 C-8.59116466,30.7868355 -8.39,31.3563298 -8.39,32.059 C-8.39,32.5576692 -8.49766559,33.002498 -8.713,33.3935 C-8.92833441,33.784502 -9.21733152,34.1131653 -9.58,34.3795 C-9.94266848,34.6458347 -10.3676642,34.8498326 -10.855,34.9915 C-11.3423358,35.1331674 -11.8579973,35.204 -12.402,35.204 Z M-3.069,35.204 C-3.64700289,35.204 -4.17399762,35.0821679 -4.65,34.8385 C-5.12600238,34.5948321 -5.531165,34.2350024 -5.8655,33.759 C-6.19983501,33.2829976 -6.46049907,32.6936702 -6.6475,31.991 C-6.83450094,31.2883298 -6.928,30.4780046 -6.928,29.56 C-6.928,28.6419954 -6.83450094,27.8373368 -6.6475,27.146 C-6.46049907,26.4546632 -6.19983501,25.8738357 -5.8655,25.4035 C-5.531165,24.9331643 -5.12600238,24.5818345 -4.65,24.3495 C-4.17399762,24.1171655 -3.64700289,24.001 -3.069,24.001 C-2.49099711,24.001 -1.96400238,24.1171655 -1.488,24.3495 C-1.01199762,24.5818345 -0.606835005,24.9331643 -0.2725,25.4035 C0.061835005,25.8738357 0.322499065,26.4546632 0.5095,27.146 C0.696500935,27.8373368 0.79,28.6419954 0.79,29.56 C0.79,30.4780046 0.696500935,31.2883298 0.5095,31.991 C0.322499065,32.6936702 0.061835005,33.2829976 -0.2725,33.759 C-0.606835005,34.2350024 -1.01199762,34.5948321 -1.488,34.8385 C-1.96400238,35.0821679 -2.49099711,35.204 -3.069,35.204 Z M-3.069,33.266 C-2.85366559,33.266 -2.65533424,33.2121672 -2.474,33.1045 C-2.29266576,32.9968328 -2.13400068,32.8013347 -1.998,32.518 C-1.86199932,32.2346652 -1.75716704,31.8550024 -1.6835,31.379 C-1.60983296,30.9029976 -1.573,30.2966703 -1.573,29.56 C-1.573,28.8233296 -1.60983296,28.2198357 -1.6835,27.7495 C-1.75716704,27.2791643 -1.86199932,26.9108347 -1.998,26.6445 C-2.13400068,26.3781653 -2.29266576,26.1940005 -2.474,26.092 C-2.65533424,25.9899995 -2.85366559,25.939 -3.069,25.939 C-3.27300102,25.939 -3.46566576,25.9899995 -3.647,26.092 C-3.82833424,26.1940005 -3.98699932,26.3781653 -4.123,26.6445 C-4.25900068,26.9108347 -4.36666627,27.2791643 -4.446,27.7495 C-4.52533373,28.2198357 -4.565,28.8233296 -4.565,29.56 C-4.565,30.2966703 -4.52533373,30.9029976 -4.446,31.379 C-4.36666627,31.8550024 -4.25900068,32.2346652 -4.123,32.518 C-3.98699932,32.8013347 -3.82833424,32.9968328 -3.647,33.1045 C-3.46566576,33.2121672 -3.27300102,33.266 -3.069,33.266 Z M5.907,35.204 C5.32899711,35.204 4.80200238,35.0821679 4.326,34.8385 C3.84999762,34.5948321 3.444835,34.2350024 3.1105,33.759 C2.77616499,33.2829976 2.51550093,32.6936702 2.3285,31.991 C2.14149906,31.2883298 2.048,30.4780046 2.048,29.56 C2.048,28.6419954 2.14149906,27.8373368 2.3285,27.146 C2.51550093,26.4546632 2.77616499,25.8738357 3.1105,25.4035 C3.444835,24.9331643 3.84999762,24.5818345 4.326,24.3495 C4.80200238,24.1171655 5.32899711,24.001 5.907,24.001 C6.48500289,24.001 7.01199762,24.1171655 7.488,24.3495 C7.96400238,24.5818345 8.36916499,24.9331643 8.7035,25.4035 C9.037835,25.8738357 9.29849906,26.4546632 9.4855,27.146 C9.67250093,27.8373368 9.766,28.6419954 9.766,29.56 C9.766,30.4780046 9.67250093,31.2883298 9.4855,31.991 C9.29849906,32.6936702 9.037835,33.2829976 8.7035,33.759 C8.36916499,34.2350024 7.96400238,34.5948321 7.488,34.8385 C7.01199762,35.0821679 6.48500289,35.204 5.907,35.204 Z M5.907,33.266 C6.12233441,33.266 6.32066576,33.2121672 6.502,33.1045 C6.68333424,32.9968328 6.84199932,32.8013347 6.978,32.518 C7.11400068,32.2346652 7.21883297,31.8550024 7.2925,31.379 C7.36616704,30.9029976 7.403,30.2966703 7.403,29.56 C7.403,28.8233296 7.36616704,28.2198357 7.2925,27.7495 C7.21883297,27.2791643 7.11400068,26.9108347 6.978,26.6445 C6.84199932,26.3781653 6.68333424,26.1940005 6.502,26.092 C6.32066576,25.9899995 6.12233441,25.939 5.907,25.939 C5.70299898,25.939 5.51033424,25.9899995 5.329,26.092 C5.14766576,26.1940005 4.98900068,26.3781653 4.853,26.6445 C4.71699932,26.9108347 4.60933373,27.2791643 4.53,27.7495 C4.45066627,28.2198357 4.411,28.8233296 4.411,29.56 C4.411,30.2966703 4.45066627,30.9029976 4.53,31.379 C4.60933373,31.8550024 4.71699932,32.2346652 4.853,32.518 C4.98900068,32.8013347 5.14766576,32.9968328 5.329,33.1045 C5.51033424,33.2121672 5.70299898,33.266 5.907,33.266 Z M11.5,35 L11.5,26.568 L13.54,26.568 L13.71,27.656 L13.778,27.656 C14.1293351,27.3046649 14.5033314,27.0015013 14.9,26.7465 C15.2966687,26.4914987 15.7726639,26.364 16.328,26.364 C16.9286697,26.364 17.4131648,26.4858321 17.7815,26.7295 C18.1498352,26.9731679 18.4416656,27.3216644 18.657,27.775 C19.0310019,27.3896647 19.4248313,27.0581681 19.8385,26.7805 C20.2521687,26.5028319 20.7423305,26.364 21.309,26.364 C22.2156712,26.364 22.8814979,26.6671636 23.3065,27.2735 C23.7315021,27.8798364 23.944,28.7099947 23.944,29.764 L23.944,35 L21.445,35 L21.445,30.087 C21.445,29.4749969 21.3628342,29.0556678 21.1985,28.829 C21.0341658,28.6023322 20.7706685,28.489 20.408,28.489 C19.9886646,28.489 19.5070027,28.7609973 18.963,29.305 L18.963,35 L16.464,35 L16.464,30.087 C16.464,29.4749969 16.3818342,29.0556678 16.2175,28.829 C16.0531658,28.6023322 15.7896685,28.489 15.427,28.489 C14.9963312,28.489 14.5203359,28.7609973 13.999,29.305 L13.999,35 L11.5,35 Z M26.069,35 L26.069,26.568 L28.109,26.568 L28.279,27.656 L28.347,27.656 C28.6983351,27.3046649 29.0723314,27.0015013 29.469,26.7465 C29.8656687,26.4914987 30.3416639,26.364 30.897,26.364 C31.4976697,26.364 31.9821648,26.4858321 32.3505,26.7295 C32.7188352,26.9731679 33.0106656,27.3216644 33.226,27.775 C33.6000019,27.3896647 33.9938313,27.0581681 34.4075,26.7805 C34.8211687,26.5028319 35.3113305,26.364 35.878,26.364 C36.7846712,26.364 37.4504979,26.6671636 37.8755,27.2735 C38.3005021,27.8798364 38.513,28.7099947 38.513,29.764 L38.513,35 L36.014,35 L36.014,30.087 C36.014,29.4749969 35.9318342,29.0556678 35.7675,28.829 C35.6031658,28.6023322 35.3396685,28.489 34.977,28.489 C34.5576646,28.489 34.0760027,28.7609973 33.532,29.305 L33.532,35 L31.033,35 L31.033,30.087 C31.033,29.4749969 30.9508342,29.0556678 30.7865,28.829 C30.6221658,28.6023322 30.3586685,28.489 29.996,28.489 C29.5653312,28.489 29.0893359,28.7609973 28.568,29.305 L28.568,35 L26.069,35 Z" id="300mm" fill="#093169" fill-rule="nonzero" transform="translate(11.177000, 29.602500) rotate(-90.000000) translate(-11.177000, -29.602500) "></path>
                <polyline id="Rectangle-Copy-21" stroke="#CBD8F2" transform="translate(45.500000, 29.000000) scale(-1, 1) rotate(-270.000000) translate(-45.500000, -29.000000) " points="30.5 36.5 30.5 21.5 60.5 21.5 60.5 36.5"></polyline>
            </g>
            <g id="Group-11" transform="translate(26.500000, 29.500000) rotate(-180.000000) translate(-26.500000, -29.500000) ">
                <path d="M17.666,35.204 C16.7819956,35.204 16.0340031,35.0595014 15.422,34.7705 C14.8099969,34.4814986 14.2886688,34.1216688 13.858,33.691 L14.98,32.11 C15.3086683,32.4046681 15.6628314,32.6568323 16.0425,32.8665 C16.4221686,33.0761677 16.844331,33.181 17.309,33.181 C17.8643361,33.181 18.3063317,33.0393348 18.635,32.756 C18.9636683,32.4726652 19.128,32.0533361 19.128,31.498 C19.128,30.9539973 18.9721682,30.5403347 18.6605,30.257 C18.3488318,29.9736652 17.9380026,29.832 17.428,29.832 C17.2693325,29.832 17.1276673,29.8404999 17.003,29.8575 C16.8783327,29.8745001 16.7565006,29.9056664 16.6375,29.951 C16.5184994,29.9963336 16.393834,30.0529997 16.2635,30.121 C16.133166,30.1890003 15.9886675,30.2739995 15.83,30.376 L14.708,29.662 L15.014,24.205 L21.134,24.205 L21.134,26.313 L17.173,26.313 L16.986,28.336 C17.190001,28.2453329 17.3854991,28.1801669 17.5725,28.1405 C17.7595009,28.1008331 17.9663322,28.081 18.193,28.081 C18.657669,28.081 19.0968313,28.1489993 19.5105,28.285 C19.9241687,28.4210007 20.2896651,28.6249986 20.607,28.897 C20.9243349,29.1690014 21.1736658,29.5146646 21.355,29.934 C21.5363342,30.3533354 21.627,30.8519971 21.627,31.43 C21.627,32.0306697 21.5193344,32.563331 21.304,33.028 C21.0886656,33.492669 20.7996685,33.8864984 20.437,34.2095 C20.0743315,34.5325016 19.6521691,34.7789992 19.1705,34.949 C18.6888309,35.1190008 18.1873359,35.204 17.666,35.204 Z M26.727,29.186 C27.0103348,29.186 27.2964986,29.1038342 27.5855,28.9395 C27.8745014,28.7751658 28.1266656,28.5003353 28.342,28.115 C28.2286661,27.2649957 28.0161682,26.6785016 27.7045,26.3555 C27.3928318,26.0324984 27.0443353,25.871 26.659,25.871 C26.2963315,25.871 25.9790014,26.0098319 25.707,26.2875 C25.4349986,26.5651681 25.299,27.0099969 25.299,27.622 C25.299,28.2000029 25.4349986,28.6051655 25.707,28.8375 C25.9790014,29.0698345 26.318998,29.186 26.727,29.186 Z M26.336,35.204 C25.6219964,35.204 25.0015026,35.073668 24.4745,34.813 C23.9474974,34.552332 23.5140017,34.2520017 23.174,33.912 L24.5,32.416 C24.6813342,32.620001 24.9249985,32.7984992 25.231,32.9515 C25.5370015,33.1045008 25.8486651,33.181 26.166,33.181 C26.4720015,33.181 26.755332,33.1243339 27.016,33.011 C27.276668,32.8976661 27.5061657,32.7078347 27.7045,32.4415 C27.9028343,32.1751653 28.0614994,31.8295021 28.1805,31.4045 C28.2995006,30.9794979 28.3703332,30.4496698 28.393,29.815 C28.2569993,29.9963342 28.0983342,30.1578326 27.917,30.2995 C27.7356658,30.4411674 27.5486676,30.5601662 27.356,30.6565 C27.1633324,30.7528338 26.9706676,30.8264997 26.778,30.8775 C26.5853324,30.9285003 26.4040009,30.954 26.234,30.954 C25.769331,30.954 25.341502,30.8860007 24.9505,30.75 C24.559498,30.6139993 24.2223348,30.4100014 23.939,30.138 C23.6556652,29.8659986 23.4318342,29.5203354 23.2675,29.101 C23.1031658,28.6816646 23.021,28.1886695 23.021,27.622 C23.021,27.0666639 23.1173324,26.5651689 23.31,26.1175 C23.5026676,25.6698311 23.7604984,25.2873349 24.0835,24.97 C24.4065016,24.6526651 24.7861645,24.4118342 25.2225,24.2475 C25.6588355,24.0831658 26.1206642,24.001 26.608,24.001 C27.1293359,24.001 27.6364975,24.102999 28.1295,24.307 C28.6225025,24.511001 29.0588314,24.8283312 29.4385,25.259 C29.8181686,25.6896688 30.1241655,26.2421633 30.3565,26.9165 C30.5888345,27.5908367 30.705,28.4039952 30.705,29.356 C30.705,30.3646717 30.5831679,31.2373296 30.3395,31.974 C30.0958321,32.7106704 29.7728353,33.3169976 29.3705,33.793 C28.9681647,34.2690024 28.5035026,34.6231655 27.9765,34.8555 C27.4494974,35.0878345 26.9026695,35.204 26.336,35.204 Z M35.907,35.204 C35.3289971,35.204 34.8020024,35.0821679 34.326,34.8385 C33.8499976,34.5948321 33.444835,34.2350024 33.1105,33.759 C32.776165,33.2829976 32.5155009,32.6936702 32.3285,31.991 C32.1414991,31.2883298 32.048,30.4780046 32.048,29.56 C32.048,28.6419954 32.1414991,27.8373368 32.3285,27.146 C32.5155009,26.4546632 32.776165,25.8738357 33.1105,25.4035 C33.444835,24.9331643 33.8499976,24.5818345 34.326,24.3495 C34.8020024,24.1171655 35.3289971,24.001 35.907,24.001 C36.4850029,24.001 37.0119976,24.1171655 37.488,24.3495 C37.9640024,24.5818345 38.369165,24.9331643 38.7035,25.4035 C39.037835,25.8738357 39.2984991,26.4546632 39.4855,27.146 C39.6725009,27.8373368 39.766,28.6419954 39.766,29.56 C39.766,30.4780046 39.6725009,31.2883298 39.4855,31.991 C39.2984991,32.6936702 39.037835,33.2829976 38.7035,33.759 C38.369165,34.2350024 37.9640024,34.5948321 37.488,34.8385 C37.0119976,35.0821679 36.4850029,35.204 35.907,35.204 Z M35.907,33.266 C36.1223344,33.266 36.3206658,33.2121672 36.502,33.1045 C36.6833342,32.9968328 36.8419993,32.8013347 36.978,32.518 C37.1140007,32.2346652 37.218833,31.8550024 37.2925,31.379 C37.366167,30.9029976 37.403,30.2966703 37.403,29.56 C37.403,28.8233296 37.366167,28.2198357 37.2925,27.7495 C37.218833,27.2791643 37.1140007,26.9108347 36.978,26.6445 C36.8419993,26.3781653 36.6833342,26.1940005 36.502,26.092 C36.3206658,25.9899995 36.1223344,25.939 35.907,25.939 C35.702999,25.939 35.5103342,25.9899995 35.329,26.092 C35.1476658,26.1940005 34.9890007,26.3781653 34.853,26.6445 C34.7169993,26.9108347 34.6093337,27.2791643 34.53,27.7495 C34.4506663,28.2198357 34.411,28.8233296 34.411,29.56 C34.411,30.2966703 34.4506663,30.9029976 34.53,31.379 C34.6093337,31.8550024 34.7169993,32.2346652 34.853,32.518 C34.9890007,32.8013347 35.1476658,32.9968328 35.329,33.1045 C35.5103342,33.2121672 35.702999,33.266 35.907,33.266 Z M41.5,35 L41.5,26.568 L43.54,26.568 L43.71,27.656 L43.778,27.656 C44.1293351,27.3046649 44.5033314,27.0015013 44.9,26.7465 C45.2966687,26.4914987 45.7726639,26.364 46.328,26.364 C46.9286697,26.364 47.4131648,26.4858321 47.7815,26.7295 C48.1498352,26.9731679 48.4416656,27.3216644 48.657,27.775 C49.0310019,27.3896647 49.4248313,27.0581681 49.8385,26.7805 C50.2521687,26.5028319 50.7423305,26.364 51.309,26.364 C52.2156712,26.364 52.8814979,26.6671636 53.3065,27.2735 C53.7315021,27.8798364 53.944,28.7099947 53.944,29.764 L53.944,35 L51.445,35 L51.445,30.087 C51.445,29.4749969 51.3628342,29.0556678 51.1985,28.829 C51.0341658,28.6023322 50.7706685,28.489 50.408,28.489 C49.9886646,28.489 49.5070027,28.7609973 48.963,29.305 L48.963,35 L46.464,35 L46.464,30.087 C46.464,29.4749969 46.3818342,29.0556678 46.2175,28.829 C46.0531658,28.6023322 45.7896685,28.489 45.427,28.489 C44.9963312,28.489 44.5203359,28.7609973 43.999,29.305 L43.999,35 L41.5,35 Z M56.069,35 L56.069,26.568 L58.109,26.568 L58.279,27.656 L58.347,27.656 C58.6983351,27.3046649 59.0723314,27.0015013 59.469,26.7465 C59.8656687,26.4914987 60.3416639,26.364 60.897,26.364 C61.4976697,26.364 61.9821648,26.4858321 62.3505,26.7295 C62.7188352,26.9731679 63.0106656,27.3216644 63.226,27.775 C63.6000019,27.3896647 63.9938313,27.0581681 64.4075,26.7805 C64.8211687,26.5028319 65.3113305,26.364 65.878,26.364 C66.7846712,26.364 67.4504979,26.6671636 67.8755,27.2735 C68.3005021,27.8798364 68.513,28.7099947 68.513,29.764 L68.513,35 L66.014,35 L66.014,30.087 C66.014,29.4749969 65.9318342,29.0556678 65.7675,28.829 C65.6031658,28.6023322 65.3396685,28.489 64.977,28.489 C64.5576646,28.489 64.0760027,28.7609973 63.532,29.305 L63.532,35 L61.033,35 L61.033,30.087 C61.033,29.4749969 60.9508342,29.0556678 60.7865,28.829 C60.6221658,28.6023322 60.3586685,28.489 59.996,28.489 C59.5653312,28.489 59.0893359,28.7609973 58.568,29.305 L58.568,35 L56.069,35 Z" id="590mm" fill="#093169" fill-rule="nonzero" transform="translate(41.185500, 29.602500) rotate(-270.000000) translate(-41.185500, -29.602500) "></path>
                <polyline id="Rectangle-Copy-19" stroke="#CBD8F2" transform="translate(7.500000, 29.500000) scale(-1, 1) rotate(270.000000) translate(-7.500000, -29.500000) " points="-21.9016667 37 -22 22 37 22 37 37"></polyline>
            </g>
            <path d="M171.511,386 L171.511,374.916 L174.248,374.916 L176.033,379.846 L176.19875,380.345375 L176.19875,380.345375 L176.356,380.8575 C176.458001,381.203168 176.565666,381.545998 176.679,381.886 L176.747,381.886 L176.910625,381.373875 L176.910625,381.373875 L177.0615,380.8575 C177.157834,380.511832 177.262666,380.174668 177.376,379.846 L179.127,374.916 L181.847,374.916 L181.847,386 L179.569,386 L179.569,381.937 C179.569,381.664999 179.580333,381.364668 179.603,381.036 C179.625667,380.707332 179.654,380.375835 179.688,380.0415 L179.79,379.0555 C179.824,378.732498 179.858,378.435001 179.892,378.163 L179.824,378.163 L178.923,380.798 L177.342,385.031 L175.965,385.031 L174.384,380.798 L173.5,378.163 L173.432,378.163 C173.466,378.435001 173.5,378.732498 173.534,379.0555 L173.636,380.0415 L173.636,380.0415 C173.67,380.375835 173.698333,380.707332 173.721,381.036 C173.743667,381.364668 173.755,381.664999 173.755,381.937 L173.755,386 L171.511,386 Z M186.386,386.204 C186.000665,386.204 185.652168,386.138834 185.3405,386.0085 C185.028832,385.878166 184.765334,385.696834 184.55,385.4645 C184.334666,385.232166 184.167501,384.963002 184.0485,384.657 C183.929499,384.350998 183.87,384.016668 183.87,383.654 C183.87,382.769996 184.243996,382.078669 184.992,381.58 C185.740004,381.081331 186.946992,380.747001 188.613,380.577 C188.590333,380.202998 188.479834,379.905501 188.2815,379.6845 C188.083166,379.463499 187.751669,379.353 187.287,379.353 C186.924332,379.353 186.564502,379.420999 186.2075,379.557 C185.850498,379.693001 185.468002,379.879999 185.06,380.118 L184.159,378.469 C184.703003,378.140332 185.272497,377.874001 185.8675,377.67 C186.462503,377.465999 187.09433,377.364 187.763,377.364 C188.851005,377.364 189.681164,377.67283 190.2535,378.2905 C190.825836,378.90817 191.112,379.86866 191.112,381.172 L191.112,386 L189.072,386 L188.902,385.133 L188.834,385.133 C188.471332,385.450335 188.091669,385.708166 187.695,385.9065 C187.298331,386.104834 186.862002,386.204 186.386,386.204 Z M187.236,384.266 C187.519335,384.266 187.762999,384.203667 187.967,384.079 C188.171001,383.954333 188.386332,383.778668 188.613,383.552 L188.613,382.073 C187.728996,382.197667 187.117002,382.378999 186.777,382.617 C186.436998,382.855001 186.267,383.138332 186.267,383.467 C186.267,383.739001 186.354832,383.940166 186.5305,384.0705 C186.706168,384.200834 186.941332,384.266 187.236,384.266 Z M196.229,386.204 C195.707664,386.204 195.234502,386.102001 194.8095,385.898 C194.384498,385.693999 194.021835,385.402169 193.7215,385.0225 C193.421165,384.642831 193.188834,384.181003 193.0245,383.637 C192.860166,383.092997 192.778,382.475337 192.778,381.784 C192.778,381.092663 192.877166,380.475003 193.0755,379.931 C193.273834,379.386997 193.534498,378.925169 193.8575,378.5455 C194.180502,378.165831 194.554498,377.874001 194.9795,377.67 C195.404502,377.465999 195.837998,377.364 196.28,377.364 C196.756002,377.364 197.146998,377.443333 197.453,377.602 C197.759002,377.760667 198.059332,377.975999 198.354,378.248 L198.252,376.956 L198.252,374.083 L200.751,374.083 L200.751,386 L198.711,386 L198.541,385.167 L198.473,385.167 C198.178332,385.461668 197.832669,385.708166 197.436,385.9065 C197.039331,386.104834 196.637002,386.204 196.229,386.204 Z M196.875,384.164 C197.147001,384.164 197.393499,384.107334 197.6145,383.994 C197.835501,383.880666 198.047999,383.682335 198.252,383.399 L198.252,379.948 C198.025332,379.743999 197.793001,379.602334 197.555,379.523 C197.316999,379.443666 197.084668,379.404 196.858,379.404 C196.461331,379.404 196.110002,379.593831 195.804,379.9735 C195.497998,380.353169 195.345,380.945329 195.345,381.75 C195.345,382.588671 195.478165,383.200665 195.7445,383.586 C196.010835,383.971335 196.387664,384.164 196.875,384.164 Z M206.735,386.204 C206.13433,386.204 205.573336,386.104834 205.052,385.9065 C204.530664,385.708166 204.077335,385.419169 203.692,385.0395 C203.306665,384.659831 203.006334,384.198003 202.791,383.654 C202.575666,383.109997 202.468,382.48667 202.468,381.784 C202.468,381.103997 202.581332,380.489169 202.808,379.9395 C203.034668,379.389831 203.332165,378.925169 203.7005,378.5455 C204.068835,378.165831 204.490998,377.874001 204.967,377.67 C205.443002,377.465999 205.935997,377.364 206.446,377.364 C207.04667,377.364 207.570831,377.465999 208.0185,377.67 C208.466169,377.874001 208.840165,378.157332 209.1405,378.52 C209.440835,378.882668 209.664666,379.310498 209.812,379.8035 C209.959334,380.296502 210.033,380.831997 210.033,381.41 C210.033,381.636668 210.021667,381.851999 209.999,382.056 L209.965,382.32375 C209.953667,382.40025 209.942333,382.464 209.931,382.515 L204.882,382.515 C204.995334,383.127003 205.247498,383.577499 205.6385,383.8665 C206.029502,384.155501 206.50833,384.3 207.075,384.3 C207.67567,384.3 208.281997,384.113002 208.894,383.739 L209.727,385.252 C209.296331,385.546668 208.817503,385.778999 208.2905,385.949 C207.763497,386.119001 207.245003,386.204 206.735,386.204 Z M204.865,380.866 L207.908,380.866 C207.908,380.389998 207.800334,380.004668 207.585,379.71 C207.369666,379.415332 207.007003,379.268 206.497,379.268 C206.100331,379.268 205.751835,379.398332 205.4515,379.659 C205.151165,379.919668 204.955667,380.321997 204.865,380.866 Z M218.414,386.204 C217.892664,386.204 217.447835,386.124667 217.0795,385.966 C216.711165,385.807333 216.410834,385.586335 216.1785,385.303 C215.946166,385.019665 215.776167,384.676835 215.6685,384.2745 C215.560833,383.872165 215.507,383.427336 215.507,382.94 L215.507,379.523 L214.351,379.523 L214.351,377.67 L215.643,377.568 L215.932,375.324 L218.006,375.324 L218.006,377.568 L220.029,377.568 L220.029,379.523 L218.006,379.523 L218.006,382.906 C218.006,383.382002 218.105166,383.724832 218.3035,383.9345 C218.501834,384.144168 218.765332,384.249 219.094,384.249 C219.230001,384.249 219.368833,384.232 219.5105,384.198 C219.652167,384.164 219.779666,384.124334 219.893,384.079 L220.284,385.898 C220.057332,385.966 219.791002,386.034 219.485,386.102 C219.178998,386.17 218.822002,386.204 218.414,386.204 Z M225.299,386.204 C224.766331,386.204 224.250669,386.104834 223.752,385.9065 C223.253331,385.708166 222.814169,385.422002 222.4345,385.048 C222.054831,384.673998 221.751668,384.212169 221.525,383.6625 C221.298332,383.112831 221.185,382.48667 221.185,381.784 C221.185,381.08133 221.298332,380.455169 221.525,379.9055 C221.751668,379.355831 222.054831,378.894002 222.4345,378.52 C222.814169,378.145998 223.253331,377.859834 223.752,377.6615 C224.250669,377.463166 224.766331,377.364 225.299,377.364 C225.831669,377.364 226.344498,377.463166 226.8375,377.6615 C227.330502,377.859834 227.766831,378.145998 228.1465,378.52 C228.526169,378.894002 228.829332,379.355831 229.056,379.9055 C229.282668,380.455169 229.396,381.08133 229.396,381.784 C229.396,382.48667 229.282668,383.112831 229.056,383.6625 C228.829332,384.212169 228.526169,384.673998 228.1465,385.048 C227.766831,385.422002 227.330502,385.708166 226.8375,385.9065 C226.344498,386.104834 225.831669,386.204 225.299,386.204 Z M225.299,384.181 C225.809003,384.181 226.194332,383.965669 226.455,383.535 C226.715668,383.104331 226.846,382.52067 226.846,381.784 C226.846,381.04733 226.715668,380.463669 226.455,380.033 C226.194332,379.602331 225.809003,379.387 225.299,379.387 C224.777664,379.387 224.389501,379.602331 224.1345,380.033 C223.879499,380.463669 223.752,381.04733 223.752,381.784 C223.752,382.52067 223.879499,383.104331 224.1345,383.535 C224.389501,383.965669 224.777664,384.181 225.299,384.181 Z M236.995,386.204 C236.439664,386.204 235.87017,386.096334 235.2865,385.881 C234.70283,385.665666 234.195669,385.382335 233.765,385.031 L234.887,383.467 C235.272335,383.761668 235.640665,383.982666 235.992,384.13 C236.343335,384.277334 236.700332,384.351 237.063,384.351 C237.437002,384.351 237.708999,384.288667 237.879,384.164 C238.049001,384.039333 238.134,383.863668 238.134,383.637 C238.134,383.500999 238.085834,383.379167 237.9895,383.2715 C237.893166,383.163833 237.762834,383.064667 237.5985,382.974 C237.434166,382.883333 237.250001,382.801167 237.046,382.7275 L236.73575,382.610625 L236.73575,382.610625 L236.417,382.481 C236.156332,382.378999 235.895668,382.260001 235.635,382.124 C235.374332,381.987999 235.136334,381.820834 234.921,381.6225 C234.705666,381.424166 234.530001,381.191835 234.394,380.9255 C234.257999,380.659165 234.19,380.350335 234.19,379.999 C234.19,379.613665 234.266499,379.256668 234.4195,378.928 C234.572501,378.599332 234.790665,378.321668 235.074,378.095 C235.357335,377.868332 235.697331,377.689834 236.094,377.5595 C236.490669,377.429166 236.932664,377.364 237.42,377.364 C238.066003,377.364 238.632664,377.474499 239.12,377.6955 C239.607336,377.916501 240.032332,378.162999 240.395,378.435 L239.273,379.931 C238.966998,379.704332 238.666668,379.528667 238.372,379.404 C238.077332,379.279333 237.782668,379.217 237.488,379.217 C236.85333,379.217 236.536,379.437998 236.536,379.88 C236.536,380.016001 236.581333,380.132166 236.672,380.2285 C236.762667,380.324834 236.884499,380.412666 237.0375,380.492 C237.190501,380.571334 237.366166,380.647833 237.5645,380.7215 L238.185,380.951 L238.185,380.951 C238.457001,381.053001 238.726165,381.169166 238.9925,381.2995 C239.258835,381.429834 239.502499,381.591332 239.7235,381.784 C239.944501,381.976668 240.122999,382.211832 240.259,382.4895 C240.395001,382.767168 240.463,383.098665 240.463,383.484 C240.463,383.869335 240.389334,384.226332 240.242,384.555 C240.094666,384.883668 239.873668,385.169832 239.579,385.4135 C239.284332,385.657168 238.921669,385.849833 238.491,385.9915 C238.060331,386.133167 237.561669,386.204 236.995,386.204 Z M244.577,386.204 C243.658995,386.204 242.993169,385.90367 242.5795,385.303 C242.165831,384.70233 241.959,383.869339 241.959,382.804 L241.959,377.568 L244.458,377.568 L244.458,382.481 C244.458,383.093003 244.542999,383.512332 244.713,383.739 C244.883001,383.965668 245.149332,384.079 245.512,384.079 C245.829335,384.079 246.095666,384.005334 246.311,383.858 C246.526334,383.710666 246.758665,383.472668 247.008,383.144 L247.008,377.568 L249.507,377.568 L249.507,386 L247.467,386 L247.28,384.827 L247.229,384.827 C246.866332,385.257669 246.478169,385.594832 246.0645,385.8385 C245.650831,386.082168 245.155003,386.204 244.577,386.204 Z M251.7,386 L251.7,377.568 L254.199,377.568 L254.199,386 L251.7,386 Z M252.941,376.327 C252.521665,376.327 252.176001,376.205168 251.904,375.9615 C251.631999,375.717832 251.496,375.403335 251.496,375.018 C251.496,374.632665 251.631999,374.321001 251.904,374.083 C252.176001,373.844999 252.521665,373.726 252.941,373.726 C253.371669,373.726 253.720165,373.844999 253.9865,374.083 C254.252835,374.321001 254.386,374.632665 254.386,375.018 C254.386,375.403335 254.252835,375.717832 253.9865,375.9615 C253.720165,376.205168 253.371669,376.327 252.941,376.327 Z M259.639,386.204 C259.117664,386.204 258.672835,386.124667 258.3045,385.966 C257.936165,385.807333 257.635834,385.586335 257.4035,385.303 C257.171166,385.019665 257.001167,384.676835 256.8935,384.2745 C256.785833,383.872165 256.732,383.427336 256.732,382.94 L256.732,379.523 L255.576,379.523 L255.576,377.67 L256.868,377.568 L257.157,375.324 L259.231,375.324 L259.231,377.568 L261.254,377.568 L261.254,379.523 L259.231,379.523 L259.231,382.906 C259.231,383.382002 259.330166,383.724832 259.5285,383.9345 C259.726834,384.144168 259.990332,384.249 260.319,384.249 C260.455001,384.249 260.593833,384.232 260.7355,384.198 C260.877167,384.164 261.004666,384.124334 261.118,384.079 L261.509,385.898 C261.282332,385.966 261.016002,386.034 260.71,386.102 C260.403998,386.17 260.047002,386.204 259.639,386.204 Z" id="Madetosuit" fill="#093169" fill-rule="nonzero"></path>
            <path d="M482.511,386 L482.511,374.916 L485.248,374.916 L487.033,379.846 L487.19875,380.345375 L487.19875,380.345375 L487.356,380.8575 C487.458001,381.203168 487.565666,381.545998 487.679,381.886 L487.747,381.886 L487.910625,381.373875 L487.910625,381.373875 L488.0615,380.8575 C488.157834,380.511832 488.262666,380.174668 488.376,379.846 L490.127,374.916 L492.847,374.916 L492.847,386 L490.569,386 L490.569,381.937 C490.569,381.664999 490.580333,381.364668 490.603,381.036 C490.625667,380.707332 490.654,380.375835 490.688,380.0415 L490.79,379.0555 C490.824,378.732498 490.858,378.435001 490.892,378.163 L490.824,378.163 L489.923,380.798 L488.342,385.031 L486.965,385.031 L485.384,380.798 L484.5,378.163 L484.432,378.163 C484.466,378.435001 484.5,378.732498 484.534,379.0555 L484.636,380.0415 L484.636,380.0415 C484.67,380.375835 484.698333,380.707332 484.721,381.036 C484.743667,381.364668 484.755,381.664999 484.755,381.937 L484.755,386 L482.511,386 Z M497.386,386.204 C497.000665,386.204 496.652168,386.138834 496.3405,386.0085 C496.028832,385.878166 495.765334,385.696834 495.55,385.4645 C495.334666,385.232166 495.167501,384.963002 495.0485,384.657 C494.929499,384.350998 494.87,384.016668 494.87,383.654 C494.87,382.769996 495.243996,382.078669 495.992,381.58 C496.740004,381.081331 497.946992,380.747001 499.613,380.577 C499.590333,380.202998 499.479834,379.905501 499.2815,379.6845 C499.083166,379.463499 498.751669,379.353 498.287,379.353 C497.924332,379.353 497.564502,379.420999 497.2075,379.557 C496.850498,379.693001 496.468002,379.879999 496.06,380.118 L495.159,378.469 C495.703003,378.140332 496.272497,377.874001 496.8675,377.67 C497.462503,377.465999 498.09433,377.364 498.763,377.364 C499.851005,377.364 500.681164,377.67283 501.2535,378.2905 C501.825836,378.90817 502.112,379.86866 502.112,381.172 L502.112,386 L500.072,386 L499.902,385.133 L499.834,385.133 C499.471332,385.450335 499.091669,385.708166 498.695,385.9065 C498.298331,386.104834 497.862002,386.204 497.386,386.204 Z M498.236,384.266 C498.519335,384.266 498.762999,384.203667 498.967,384.079 C499.171001,383.954333 499.386332,383.778668 499.613,383.552 L499.613,382.073 C498.728996,382.197667 498.117002,382.378999 497.777,382.617 C497.436998,382.855001 497.267,383.138332 497.267,383.467 C497.267,383.739001 497.354832,383.940166 497.5305,384.0705 C497.706168,384.200834 497.941332,384.266 498.236,384.266 Z M507.229,386.204 C506.707664,386.204 506.234502,386.102001 505.8095,385.898 C505.384498,385.693999 505.021835,385.402169 504.7215,385.0225 C504.421165,384.642831 504.188834,384.181003 504.0245,383.637 C503.860166,383.092997 503.778,382.475337 503.778,381.784 C503.778,381.092663 503.877166,380.475003 504.0755,379.931 C504.273834,379.386997 504.534498,378.925169 504.8575,378.5455 C505.180502,378.165831 505.554498,377.874001 505.9795,377.67 C506.404502,377.465999 506.837998,377.364 507.28,377.364 C507.756002,377.364 508.146998,377.443333 508.453,377.602 C508.759002,377.760667 509.059332,377.975999 509.354,378.248 L509.252,376.956 L509.252,374.083 L511.751,374.083 L511.751,386 L509.711,386 L509.541,385.167 L509.473,385.167 C509.178332,385.461668 508.832669,385.708166 508.436,385.9065 C508.039331,386.104834 507.637002,386.204 507.229,386.204 Z M507.875,384.164 C508.147001,384.164 508.393499,384.107334 508.6145,383.994 C508.835501,383.880666 509.047999,383.682335 509.252,383.399 L509.252,379.948 C509.025332,379.743999 508.793001,379.602334 508.555,379.523 C508.316999,379.443666 508.084668,379.404 507.858,379.404 C507.461331,379.404 507.110002,379.593831 506.804,379.9735 C506.497998,380.353169 506.345,380.945329 506.345,381.75 C506.345,382.588671 506.478165,383.200665 506.7445,383.586 C507.010835,383.971335 507.387664,384.164 507.875,384.164 Z M517.735,386.204 C517.13433,386.204 516.573336,386.104834 516.052,385.9065 C515.530664,385.708166 515.077335,385.419169 514.692,385.0395 C514.306665,384.659831 514.006334,384.198003 513.791,383.654 C513.575666,383.109997 513.468,382.48667 513.468,381.784 C513.468,381.103997 513.581332,380.489169 513.808,379.9395 C514.034668,379.389831 514.332165,378.925169 514.7005,378.5455 C515.068835,378.165831 515.490998,377.874001 515.967,377.67 C516.443002,377.465999 516.935997,377.364 517.446,377.364 C518.04667,377.364 518.570831,377.465999 519.0185,377.67 C519.466169,377.874001 519.840165,378.157332 520.1405,378.52 C520.440835,378.882668 520.664666,379.310498 520.812,379.8035 C520.959334,380.296502 521.033,380.831997 521.033,381.41 C521.033,381.636668 521.021667,381.851999 520.999,382.056 L520.965,382.32375 C520.953667,382.40025 520.942333,382.464 520.931,382.515 L515.882,382.515 C515.995334,383.127003 516.247498,383.577499 516.6385,383.8665 C517.029502,384.155501 517.508331,384.3 518.075,384.3 C518.67567,384.3 519.281997,384.113002 519.894,383.739 L520.727,385.252 C520.296331,385.546668 519.817503,385.778999 519.2905,385.949 C518.763497,386.119001 518.245003,386.204 517.735,386.204 Z M515.865,380.866 L518.908,380.866 C518.908,380.389998 518.800334,380.004668 518.585,379.71 C518.369666,379.415332 518.007003,379.268 517.497,379.268 C517.100331,379.268 516.751835,379.398332 516.4515,379.659 C516.151165,379.919668 515.955667,380.321997 515.865,380.866 Z M529.414,386.204 C528.892664,386.204 528.447835,386.124667 528.0795,385.966 C527.711165,385.807333 527.410834,385.586335 527.1785,385.303 C526.946166,385.019665 526.776167,384.676835 526.6685,384.2745 C526.560833,383.872165 526.507,383.427336 526.507,382.94 L526.507,379.523 L525.351,379.523 L525.351,377.67 L526.643,377.568 L526.932,375.324 L529.006,375.324 L529.006,377.568 L531.029,377.568 L531.029,379.523 L529.006,379.523 L529.006,382.906 C529.006,383.382002 529.105166,383.724832 529.3035,383.9345 C529.501834,384.144168 529.765332,384.249 530.094,384.249 C530.230001,384.249 530.368833,384.232 530.5105,384.198 C530.652167,384.164 530.779666,384.124334 530.893,384.079 L531.284,385.898 C531.057332,385.966 530.791002,386.034 530.485,386.102 C530.178998,386.17 529.822002,386.204 529.414,386.204 Z M536.299,386.204 C535.766331,386.204 535.250669,386.104834 534.752,385.9065 C534.253331,385.708166 533.814169,385.422002 533.4345,385.048 C533.054831,384.673998 532.751668,384.212169 532.525,383.6625 C532.298332,383.112831 532.185,382.48667 532.185,381.784 C532.185,381.08133 532.298332,380.455169 532.525,379.9055 C532.751668,379.355831 533.054831,378.894002 533.4345,378.52 C533.814169,378.145998 534.253331,377.859834 534.752,377.6615 C535.250669,377.463166 535.766331,377.364 536.299,377.364 C536.831669,377.364 537.344498,377.463166 537.8375,377.6615 C538.330502,377.859834 538.766831,378.145998 539.1465,378.52 C539.526169,378.894002 539.829332,379.355831 540.056,379.9055 C540.282668,380.455169 540.396,381.08133 540.396,381.784 C540.396,382.48667 540.282668,383.112831 540.056,383.6625 C539.829332,384.212169 539.526169,384.673998 539.1465,385.048 C538.766831,385.422002 538.330502,385.708166 537.8375,385.9065 C537.344498,386.104834 536.831669,386.204 536.299,386.204 Z M536.299,384.181 C536.809003,384.181 537.194332,383.965669 537.455,383.535 C537.715668,383.104331 537.846,382.52067 537.846,381.784 C537.846,381.04733 537.715668,380.463669 537.455,380.033 C537.194332,379.602331 536.809003,379.387 536.299,379.387 C535.777664,379.387 535.389501,379.602331 535.1345,380.033 C534.879499,380.463669 534.752,381.04733 534.752,381.784 C534.752,382.52067 534.879499,383.104331 535.1345,383.535 C535.389501,383.965669 535.777664,384.181 536.299,384.181 Z M547.995,386.204 C547.439664,386.204 546.87017,386.096334 546.2865,385.881 C545.70283,385.665666 545.195669,385.382335 544.765,385.031 L545.887,383.467 C546.272335,383.761668 546.640665,383.982666 546.992,384.13 C547.343335,384.277334 547.700332,384.351 548.063,384.351 C548.437002,384.351 548.708999,384.288667 548.879,384.164 C549.049001,384.039333 549.134,383.863668 549.134,383.637 C549.134,383.500999 549.085834,383.379167 548.9895,383.2715 C548.893166,383.163833 548.762834,383.064667 548.5985,382.974 C548.434166,382.883333 548.250001,382.801167 548.046,382.7275 L547.73575,382.610625 L547.73575,382.610625 L547.417,382.481 C547.156332,382.378999 546.895668,382.260001 546.635,382.124 C546.374332,381.987999 546.136334,381.820834 545.921,381.6225 C545.705666,381.424166 545.530001,381.191835 545.394,380.9255 C545.257999,380.659165 545.19,380.350335 545.19,379.999 C545.19,379.613665 545.266499,379.256668 545.4195,378.928 C545.572501,378.599332 545.790665,378.321668 546.074,378.095 C546.357335,377.868332 546.697331,377.689834 547.094,377.5595 C547.490669,377.429166 547.932664,377.364 548.42,377.364 C549.066003,377.364 549.632664,377.474499 550.12,377.6955 C550.607336,377.916501 551.032332,378.162999 551.395,378.435 L550.273,379.931 C549.966998,379.704332 549.666668,379.528667 549.372,379.404 C549.077332,379.279333 548.782668,379.217 548.488,379.217 C547.85333,379.217 547.536,379.437998 547.536,379.88 C547.536,380.016001 547.581333,380.132166 547.672,380.2285 C547.762667,380.324834 547.884499,380.412666 548.0375,380.492 C548.190501,380.571334 548.366166,380.647833 548.5645,380.7215 L549.185,380.951 L549.185,380.951 C549.457001,381.053001 549.726165,381.169166 549.9925,381.2995 C550.258835,381.429834 550.502499,381.591332 550.7235,381.784 C550.944501,381.976668 551.122999,382.211832 551.259,382.4895 C551.395001,382.767168 551.463,383.098665 551.463,383.484 C551.463,383.869335 551.389334,384.226332 551.242,384.555 C551.094666,384.883668 550.873668,385.169832 550.579,385.4135 C550.284332,385.657168 549.921669,385.849833 549.491,385.9915 C549.060331,386.133167 548.561669,386.204 547.995,386.204 Z M555.577,386.204 C554.658995,386.204 553.993169,385.90367 553.5795,385.303 C553.165831,384.70233 552.959,383.869339 552.959,382.804 L552.959,377.568 L555.458,377.568 L555.458,382.481 C555.458,383.093003 555.542999,383.512332 555.713,383.739 C555.883001,383.965668 556.149332,384.079 556.512,384.079 C556.829335,384.079 557.095666,384.005334 557.311,383.858 C557.526334,383.710666 557.758665,383.472668 558.008,383.144 L558.008,377.568 L560.507,377.568 L560.507,386 L558.467,386 L558.28,384.827 L558.229,384.827 C557.866332,385.257669 557.478169,385.594832 557.0645,385.8385 C556.650831,386.082168 556.155003,386.204 555.577,386.204 Z M562.7,386 L562.7,377.568 L565.199,377.568 L565.199,386 L562.7,386 Z M563.941,376.327 C563.521665,376.327 563.176001,376.205168 562.904,375.9615 C562.631999,375.717832 562.496,375.403335 562.496,375.018 C562.496,374.632665 562.631999,374.321001 562.904,374.083 C563.176001,373.844999 563.521665,373.726 563.941,373.726 C564.371669,373.726 564.720165,373.844999 564.9865,374.083 C565.252835,374.321001 565.386,374.632665 565.386,375.018 C565.386,375.403335 565.252835,375.717832 564.9865,375.9615 C564.720165,376.205168 564.371669,376.327 563.941,376.327 Z M570.639,386.204 C570.117664,386.204 569.672835,386.124667 569.3045,385.966 C568.936165,385.807333 568.635834,385.586335 568.4035,385.303 C568.171166,385.019665 568.001167,384.676835 567.8935,384.2745 C567.785833,383.872165 567.732,383.427336 567.732,382.94 L567.732,379.523 L566.576,379.523 L566.576,377.67 L567.868,377.568 L568.157,375.324 L570.231,375.324 L570.231,377.568 L572.254,377.568 L572.254,379.523 L570.231,379.523 L570.231,382.906 C570.231,383.382002 570.330166,383.724832 570.5285,383.9345 C570.726834,384.144168 570.990332,384.249 571.319,384.249 C571.455001,384.249 571.593833,384.232 571.7355,384.198 C571.877167,384.164 572.004666,384.124334 572.118,384.079 L572.509,385.898 C572.282332,385.966 572.016002,386.034 571.71,386.102 C571.403998,386.17 571.047002,386.204 570.639,386.204 Z" id="Madetosuit" fill="#093169" fill-rule="nonzero"></path>
            <polyline id="Rectangle-Copy-21" stroke="#CBD8F2" transform="translate(216.000000, 346.500000) scale(-1, 1) rotate(-180.000000) translate(-216.000000, -346.500000) " points="105 354 105 339 327 339 327 354"></polyline>
            <polyline id="Rectangle-Copy-27" stroke="#CBD8F2" transform="translate(526.500000, 346.500000) scale(-1, 1) rotate(-180.000000) translate(-526.500000, -346.500000) " points="471 354 471 339 582 339 582 354"></polyline>
        </g>
    </g>
</svg>