<?xml version="1.0" encoding="UTF-8"?>
<svg width="687px" height="576px" viewBox="0 0 687 576" version="1.1" xmlns="http://www.w3.org/2000/svg" xmlns:xlink="http://www.w3.org/1999/xlink">
    <title>porticos/type-b</title>
    <g id="porticos/type-b" stroke="none" stroke-width="1" fill="none" fill-rule="evenodd">
        <rect fill="#F5F9FF" x="0" y="0" width="687" height="576"></rect>
        <g id="Group-11" transform="translate(35.000000, 89.000000)">
            <g id="Group-6" transform="translate(85.000000, 0.280000)" stroke="#CBD8F2">
                <g id="Group" transform="translate(1.000000, 64.000000)" fill="#FFFFFF">
                    <g id="Type-a-Leg">
                        <polygon id="Rectangle-Copy-4" points="8 81 35 81 36 145 7 145"></polygon>
                        <polygon id="Rectangle-Copy-5" transform="translate(21.500000, 51.000000) rotate(-180.000000) translate(-21.500000, -51.000000) " points="8 21 35 21 34 81 9 81"></polygon>
                        <rect id="Rectangle" x="2" y="227" width="39" height="9"></rect>
                        <rect id="Rectangle-Copy-10" x="0" y="236" width="43" height="30"></rect>
                        <rect id="Rectangle-Copy" x="2" y="220" width="39" height="7" rx="3.5"></rect>
                        <rect id="Rectangle" x="7" y="145" width="29" height="75"></rect>
                        <polygon id="Rectangle-Copy-6" points="7 217 36 217 38 220 5 220"></polygon>
                        <rect id="Rectangle" x="7" y="17" width="29" height="4" rx="2"></rect>
                        <rect id="Rectangle" x="9" y="12" width="24" height="5"></rect>
                        <rect id="Rectangle-Copy-7" x="7" y="10" width="28" height="2"></rect>
                        <polygon id="Rectangle-Copy-8" transform="translate(21.000000, 8.000000) scale(1, -1) translate(-21.000000, -8.000000) " points="7 6 35 6 37 10 5 10"></polygon>
                        <path d="M3,2 L39,2 C38.3333333,2.66666667 38,3.33333333 38,4 C38,4.66666667 38,5.33333333 38,6 L4,6 C4,5.33333333 4,4.66666667 4,4 C4,3.33333333 3.66666667,2.66666667 3,2 Z" id="Rectangle"></path>
                        <rect id="Rectangle-Copy-9" transform="translate(21.000000, 1.000000) scale(1, -1) translate(-21.000000, -1.000000) " x="2" y="0" width="38" height="2"></rect>
                    </g>
                    <g id="Type-a-Leg" transform="translate(222.000000, 0.000000)">
                        <polygon id="Rectangle-Copy-4" points="8 81 35 81 36 145 7 145"></polygon>
                        <polygon id="Rectangle-Copy-5" transform="translate(21.500000, 51.000000) rotate(-180.000000) translate(-21.500000, -51.000000) " points="8 21 35 21 34 81 9 81"></polygon>
                        <rect id="Rectangle" x="2" y="227" width="39" height="9"></rect>
                        <rect id="Rectangle-Copy-10" x="0" y="236" width="43" height="30"></rect>
                        <rect id="Rectangle-Copy" x="2" y="220" width="39" height="7" rx="3.5"></rect>
                        <rect id="Rectangle" x="7" y="145" width="29" height="75"></rect>
                        <polygon id="Rectangle-Copy-6" points="7 217 36 217 38 220 5 220"></polygon>
                        <rect id="Rectangle" x="7" y="17" width="29" height="4" rx="2"></rect>
                        <rect id="Rectangle" x="9" y="12" width="24" height="5"></rect>
                        <rect id="Rectangle-Copy-7" x="7" y="10" width="28" height="2"></rect>
                        <polygon id="Rectangle-Copy-8" transform="translate(21.000000, 8.000000) scale(1, -1) translate(-21.000000, -8.000000) " points="7 6 35 6 37 10 5 10"></polygon>
                        <path d="M3,2 L39,2 C38.3333333,2.66666667 38,3.33333333 38,4 C38,4.66666667 38,5.33333333 38,6 L4,6 C4,5.33333333 4,4.66666667 4,4 C4,3.33333333 3.66666667,2.66666667 3,2 Z" id="Rectangle"></path>
                        <rect id="Rectangle-Copy-9" transform="translate(21.000000, 1.000000) scale(1, -1) translate(-21.000000, -1.000000) " x="2" y="0" width="38" height="2"></rect>
                    </g>
                </g>
                <g id="Group-5">
                    <rect id="Rectangle" fill="#FFFFFF" x="10" y="59" width="246" height="5"></rect>
                    <rect id="Rectangle-Copy-2" fill="#FFFFFF" transform="translate(133.000000, 58.500000) scale(1, -1) translate(-133.000000, -58.500000) " x="10" y="58" width="246" height="1"></rect>
                    <path d="M261,55 C261,57.209139 259.209139,59 257,59 L9,59 C6.790861,59 5,57.209139 5,55 C16.0161133,55 257.258,55 261,55 Z" id="Rectangle" fill="#FFFFFF"></path>
                    <path d="M9,50 L257,50 L262,53 L262,55 L4,55 L4,53 L9,50 Z" id="Combined-Shape" fill="#FFFFFF"></path>
                    <path d="M256,10 L266.486,13 L266.5,13 L266.6,15 L-1.98951966e-13,15 L-1.98951966e-13,12 L10,10 L256,10 Z" id="Combined-Shape-Copy" fill="#FFFFFF"></path>
                    <rect id="Rectangle" fill="#FFFFFF" x="10" y="31" width="246" height="17"></rect>
                    <rect id="Rectangle-Copy-11" fill="#FFFFFF" transform="translate(133.000000, 30.000000) scale(1, -1) translate(-133.000000, -30.000000) " x="10" y="29" width="246" height="2"></rect>
                    <rect id="Rectangle-Copy-13" fill="#FFFFFF" transform="translate(133.000000, 49.000000) scale(1, -1) translate(-133.000000, -49.000000) " x="10" y="48" width="246" height="2"></rect>
                    <path d="M10,23 L257,23 C257.001831,24.6694132 257.335775,26.0036621 258.001831,27.0027466 C258.667887,28.0018311 259.667277,28.6675822 261,29 L5,29 C6.52321004,28.6388146 7.6898767,27.972148 8.5,27 C9.3101233,26.027852 9.8101233,24.6945187 10,23 Z" id="Rectangle-Copy-12" fill="#FFFFFF" stroke-linejoin="bevel" transform="translate(133.000000, 26.000000) scale(1, -1) translate(-133.000000, -26.000000) "></path>
                    <rect id="Rectangle" fill="#FFFFFF" x="4" y="19" width="258" height="4"></rect>
                    <path d="M265,15 C265,17.209139 263.195468,19 260.969466,19 L5.03053435,19 C2.8045317,19 1,17.209139 1,15 C5.29251908,15 261.977099,15 265,15 Z" id="Rectangle" fill="#FFFFFF"></path>
                    <rect id="Rectangle" fill="#FFFFFF" x="10" y="0" width="246" height="10"></rect>
                    <g id="Group-4" transform="translate(91.000000, 31.000000)">
                        <line x1="1.24" y1="0" x2="1.24" y2="32.44" id="Line-10"></line>
                        <line x1="83.24" y1="0" x2="83.24" y2="32.44" id="Line-10-Copy-2"></line>
                    </g>
                    <g id="Group-3" transform="translate(71.000000, 10.000000)">
                        <line x1="0.5" y1="0" x2="0.5" y2="21" id="Line-10-Copy"></line>
                        <line x1="62.5" y1="0" x2="62.5" y2="21" id="Line-10-Copy-3"></line>
                        <line x1="124.5" y1="0" x2="124.5" y2="21" id="Line-10-Copy-6"></line>
                    </g>
                    <g id="Group-2" transform="translate(91.000000, 0.000000)">
                        <line x1="1.24" y1="0" x2="1.24" y2="9.83030303" id="Line-10-Copy-5"></line>
                        <line x1="83.24" y1="0" x2="83.24" y2="9.83030303" id="Line-10-Copy-4"></line>
                    </g>
                </g>
            </g>
            <path d="M171.511,392.28 L171.511,381.196 L174.248,381.196 L176.033,386.126 L176.19875,386.625375 L176.19875,386.625375 L176.356,387.1375 C176.458001,387.483168 176.565666,387.825998 176.679,388.166 L176.747,388.166 L176.910625,387.653875 L176.910625,387.653875 L177.0615,387.1375 C177.157834,386.791832 177.262666,386.454668 177.376,386.126 L179.127,381.196 L181.847,381.196 L181.847,392.28 L179.569,392.28 L179.569,388.217 C179.569,387.944999 179.580333,387.644668 179.603,387.316 C179.625667,386.987332 179.654,386.655835 179.688,386.3215 L179.79,385.3355 C179.824,385.012498 179.858,384.715001 179.892,384.443 L179.824,384.443 L178.923,387.078 L177.342,391.311 L175.965,391.311 L174.384,387.078 L173.5,384.443 L173.432,384.443 C173.466,384.715001 173.5,385.012498 173.534,385.3355 L173.636,386.3215 L173.636,386.3215 C173.67,386.655835 173.698333,386.987332 173.721,387.316 C173.743667,387.644668 173.755,387.944999 173.755,388.217 L173.755,392.28 L171.511,392.28 Z M186.386,392.484 C186.000665,392.484 185.652168,392.418834 185.3405,392.2885 C185.028832,392.158166 184.765334,391.976834 184.55,391.7445 C184.334666,391.512166 184.167501,391.243002 184.0485,390.937 C183.929499,390.630998 183.87,390.296668 183.87,389.934 C183.87,389.049996 184.243996,388.358669 184.992,387.86 C185.740004,387.361331 186.946992,387.027001 188.613,386.857 C188.590333,386.482998 188.479834,386.185501 188.2815,385.9645 C188.083166,385.743499 187.751669,385.633 187.287,385.633 C186.924332,385.633 186.564502,385.700999 186.2075,385.837 C185.850498,385.973001 185.468002,386.159999 185.06,386.398 L184.159,384.749 C184.703003,384.420332 185.272497,384.154001 185.8675,383.95 C186.462503,383.745999 187.09433,383.644 187.763,383.644 C188.851005,383.644 189.681164,383.95283 190.2535,384.5705 C190.825836,385.18817 191.112,386.14866 191.112,387.452 L191.112,392.28 L189.072,392.28 L188.902,391.413 L188.834,391.413 C188.471332,391.730335 188.091669,391.988166 187.695,392.1865 C187.298331,392.384834 186.862002,392.484 186.386,392.484 Z M187.236,390.546 C187.519335,390.546 187.762999,390.483667 187.967,390.359 C188.171001,390.234333 188.386332,390.058668 188.613,389.832 L188.613,388.353 C187.728996,388.477667 187.117002,388.658999 186.777,388.897 C186.436998,389.135001 186.267,389.418332 186.267,389.747 C186.267,390.019001 186.354832,390.220166 186.5305,390.3505 C186.706168,390.480834 186.941332,390.546 187.236,390.546 Z M196.229,392.484 C195.707664,392.484 195.234502,392.382001 194.8095,392.178 C194.384498,391.973999 194.021835,391.682169 193.7215,391.3025 C193.421165,390.922831 193.188834,390.461003 193.0245,389.917 C192.860166,389.372997 192.778,388.755337 192.778,388.064 C192.778,387.372663 192.877166,386.755003 193.0755,386.211 C193.273834,385.666997 193.534498,385.205169 193.8575,384.8255 C194.180502,384.445831 194.554498,384.154001 194.9795,383.95 C195.404502,383.745999 195.837998,383.644 196.28,383.644 C196.756002,383.644 197.146998,383.723333 197.453,383.882 C197.759002,384.040667 198.059332,384.255999 198.354,384.528 L198.252,383.236 L198.252,380.363 L200.751,380.363 L200.751,392.28 L198.711,392.28 L198.541,391.447 L198.473,391.447 C198.178332,391.741668 197.832669,391.988166 197.436,392.1865 C197.039331,392.384834 196.637002,392.484 196.229,392.484 Z M196.875,390.444 C197.147001,390.444 197.393499,390.387334 197.6145,390.274 C197.835501,390.160666 198.047999,389.962335 198.252,389.679 L198.252,386.228 C198.025332,386.023999 197.793001,385.882334 197.555,385.803 C197.316999,385.723666 197.084668,385.684 196.858,385.684 C196.461331,385.684 196.110002,385.873831 195.804,386.2535 C195.497998,386.633169 195.345,387.225329 195.345,388.03 C195.345,388.868671 195.478165,389.480665 195.7445,389.866 C196.010835,390.251335 196.387664,390.444 196.875,390.444 Z M206.735,392.484 C206.13433,392.484 205.573336,392.384834 205.052,392.1865 C204.530664,391.988166 204.077335,391.699169 203.692,391.3195 C203.306665,390.939831 203.006334,390.478003 202.791,389.934 C202.575666,389.389997 202.468,388.76667 202.468,388.064 C202.468,387.383997 202.581332,386.769169 202.808,386.2195 C203.034668,385.669831 203.332165,385.205169 203.7005,384.8255 C204.068835,384.445831 204.490998,384.154001 204.967,383.95 C205.443002,383.745999 205.935997,383.644 206.446,383.644 C207.04667,383.644 207.570831,383.745999 208.0185,383.95 C208.466169,384.154001 208.840165,384.437332 209.1405,384.8 C209.440835,385.162668 209.664666,385.590498 209.812,386.0835 C209.959334,386.576502 210.033,387.111997 210.033,387.69 C210.033,387.916668 210.021667,388.131999 209.999,388.336 L209.965,388.60375 C209.953667,388.68025 209.942333,388.744 209.931,388.795 L204.882,388.795 C204.995334,389.407003 205.247498,389.857499 205.6385,390.1465 C206.029502,390.435501 206.50833,390.58 207.075,390.58 C207.67567,390.58 208.281997,390.393002 208.894,390.019 L209.727,391.532 C209.296331,391.826668 208.817503,392.058999 208.2905,392.229 C207.763497,392.399001 207.245003,392.484 206.735,392.484 Z M204.865,387.146 L207.908,387.146 C207.908,386.669998 207.800334,386.284668 207.585,385.99 C207.369666,385.695332 207.007003,385.548 206.497,385.548 C206.100331,385.548 205.751835,385.678332 205.4515,385.939 C205.151165,386.199668 204.955667,386.601997 204.865,387.146 Z M218.414,392.484 C217.892664,392.484 217.447835,392.404667 217.0795,392.246 C216.711165,392.087333 216.410834,391.866335 216.1785,391.583 C215.946166,391.299665 215.776167,390.956835 215.6685,390.5545 C215.560833,390.152165 215.507,389.707336 215.507,389.22 L215.507,385.803 L214.351,385.803 L214.351,383.95 L215.643,383.848 L215.932,381.604 L218.006,381.604 L218.006,383.848 L220.029,383.848 L220.029,385.803 L218.006,385.803 L218.006,389.186 C218.006,389.662002 218.105166,390.004832 218.3035,390.2145 C218.501834,390.424168 218.765332,390.529 219.094,390.529 C219.230001,390.529 219.368833,390.512 219.5105,390.478 C219.652167,390.444 219.779666,390.404334 219.893,390.359 L220.284,392.178 C220.057332,392.246 219.791002,392.314 219.485,392.382 C219.178998,392.45 218.822002,392.484 218.414,392.484 Z M225.299,392.484 C224.766331,392.484 224.250669,392.384834 223.752,392.1865 C223.253331,391.988166 222.814169,391.702002 222.4345,391.328 C222.054831,390.953998 221.751668,390.492169 221.525,389.9425 C221.298332,389.392831 221.185,388.76667 221.185,388.064 C221.185,387.36133 221.298332,386.735169 221.525,386.1855 C221.751668,385.635831 222.054831,385.174002 222.4345,384.8 C222.814169,384.425998 223.253331,384.139834 223.752,383.9415 C224.250669,383.743166 224.766331,383.644 225.299,383.644 C225.831669,383.644 226.344498,383.743166 226.8375,383.9415 C227.330502,384.139834 227.766831,384.425998 228.1465,384.8 C228.526169,385.174002 228.829332,385.635831 229.056,386.1855 C229.282668,386.735169 229.396,387.36133 229.396,388.064 C229.396,388.76667 229.282668,389.392831 229.056,389.9425 C228.829332,390.492169 228.526169,390.953998 228.1465,391.328 C227.766831,391.702002 227.330502,391.988166 226.8375,392.1865 C226.344498,392.384834 225.831669,392.484 225.299,392.484 Z M225.299,390.461 C225.809003,390.461 226.194332,390.245669 226.455,389.815 C226.715668,389.384331 226.846,388.80067 226.846,388.064 C226.846,387.32733 226.715668,386.743669 226.455,386.313 C226.194332,385.882331 225.809003,385.667 225.299,385.667 C224.777664,385.667 224.389501,385.882331 224.1345,386.313 C223.879499,386.743669 223.752,387.32733 223.752,388.064 C223.752,388.80067 223.879499,389.384331 224.1345,389.815 C224.389501,390.245669 224.777664,390.461 225.299,390.461 Z M236.995,392.484 C236.439664,392.484 235.87017,392.376334 235.2865,392.161 C234.70283,391.945666 234.195669,391.662335 233.765,391.311 L234.887,389.747 C235.272335,390.041668 235.640665,390.262666 235.992,390.41 C236.343335,390.557334 236.700332,390.631 237.063,390.631 C237.437002,390.631 237.708999,390.568667 237.879,390.444 C238.049001,390.319333 238.134,390.143668 238.134,389.917 C238.134,389.780999 238.085834,389.659167 237.9895,389.5515 C237.893166,389.443833 237.762834,389.344667 237.5985,389.254 C237.434166,389.163333 237.250001,389.081167 237.046,389.0075 L236.73575,388.890625 L236.73575,388.890625 L236.417,388.761 C236.156332,388.658999 235.895668,388.540001 235.635,388.404 C235.374332,388.267999 235.136334,388.100834 234.921,387.9025 C234.705666,387.704166 234.530001,387.471835 234.394,387.2055 C234.257999,386.939165 234.19,386.630335 234.19,386.279 C234.19,385.893665 234.266499,385.536668 234.4195,385.208 C234.572501,384.879332 234.790665,384.601668 235.074,384.375 C235.357335,384.148332 235.697331,383.969834 236.094,383.8395 C236.490669,383.709166 236.932664,383.644 237.42,383.644 C238.066003,383.644 238.632664,383.754499 239.12,383.9755 C239.607336,384.196501 240.032332,384.442999 240.395,384.715 L239.273,386.211 C238.966998,385.984332 238.666668,385.808667 238.372,385.684 C238.077332,385.559333 237.782668,385.497 237.488,385.497 C236.85333,385.497 236.536,385.717998 236.536,386.16 C236.536,386.296001 236.581333,386.412166 236.672,386.5085 C236.762667,386.604834 236.884499,386.692666 237.0375,386.772 C237.190501,386.851334 237.366166,386.927833 237.5645,387.0015 L238.185,387.231 L238.185,387.231 C238.457001,387.333001 238.726165,387.449166 238.9925,387.5795 C239.258835,387.709834 239.502499,387.871332 239.7235,388.064 C239.944501,388.256668 240.122999,388.491832 240.259,388.7695 C240.395001,389.047168 240.463,389.378665 240.463,389.764 C240.463,390.149335 240.389334,390.506332 240.242,390.835 C240.094666,391.163668 239.873668,391.449832 239.579,391.6935 C239.284332,391.937168 238.921669,392.129833 238.491,392.2715 C238.060331,392.413167 237.561669,392.484 236.995,392.484 Z M244.577,392.484 C243.658995,392.484 242.993169,392.18367 242.5795,391.583 C242.165831,390.98233 241.959,390.149339 241.959,389.084 L241.959,383.848 L244.458,383.848 L244.458,388.761 C244.458,389.373003 244.542999,389.792332 244.713,390.019 C244.883001,390.245668 245.149332,390.359 245.512,390.359 C245.829335,390.359 246.095666,390.285334 246.311,390.138 C246.526334,389.990666 246.758665,389.752668 247.008,389.424 L247.008,383.848 L249.507,383.848 L249.507,392.28 L247.467,392.28 L247.28,391.107 L247.229,391.107 C246.866332,391.537669 246.478169,391.874832 246.0645,392.1185 C245.650831,392.362168 245.155003,392.484 244.577,392.484 Z M251.7,392.28 L251.7,383.848 L254.199,383.848 L254.199,392.28 L251.7,392.28 Z M252.941,382.607 C252.521665,382.607 252.176001,382.485168 251.904,382.2415 C251.631999,381.997832 251.496,381.683335 251.496,381.298 C251.496,380.912665 251.631999,380.601001 251.904,380.363 C252.176001,380.124999 252.521665,380.006 252.941,380.006 C253.371669,380.006 253.720165,380.124999 253.9865,380.363 C254.252835,380.601001 254.386,380.912665 254.386,381.298 C254.386,381.683335 254.252835,381.997832 253.9865,382.2415 C253.720165,382.485168 253.371669,382.607 252.941,382.607 Z M259.639,392.484 C259.117664,392.484 258.672835,392.404667 258.3045,392.246 C257.936165,392.087333 257.635834,391.866335 257.4035,391.583 C257.171166,391.299665 257.001167,390.956835 256.8935,390.5545 C256.785833,390.152165 256.732,389.707336 256.732,389.22 L256.732,385.803 L255.576,385.803 L255.576,383.95 L256.868,383.848 L257.157,381.604 L259.231,381.604 L259.231,383.848 L261.254,383.848 L261.254,385.803 L259.231,385.803 L259.231,389.186 C259.231,389.662002 259.330166,390.004832 259.5285,390.2145 C259.726834,390.424168 259.990332,390.529 260.319,390.529 C260.455001,390.529 260.593833,390.512 260.7355,390.478 C260.877167,390.444 261.004666,390.404334 261.118,390.359 L261.509,392.178 C261.282332,392.246 261.016002,392.314 260.71,392.382 C260.403998,392.45 260.047002,392.484 259.639,392.484 Z" id="Madetosuit" fill="#093169" fill-rule="nonzero"></path>
            <path d="M482.511,392.28 L482.511,381.196 L485.248,381.196 L487.033,386.126 L487.19875,386.625375 L487.19875,386.625375 L487.356,387.1375 C487.458001,387.483168 487.565666,387.825998 487.679,388.166 L487.747,388.166 L487.910625,387.653875 L487.910625,387.653875 L488.0615,387.1375 C488.157834,386.791832 488.262666,386.454668 488.376,386.126 L490.127,381.196 L492.847,381.196 L492.847,392.28 L490.569,392.28 L490.569,388.217 C490.569,387.944999 490.580333,387.644668 490.603,387.316 C490.625667,386.987332 490.654,386.655835 490.688,386.3215 L490.79,385.3355 C490.824,385.012498 490.858,384.715001 490.892,384.443 L490.824,384.443 L489.923,387.078 L488.342,391.311 L486.965,391.311 L485.384,387.078 L484.5,384.443 L484.432,384.443 C484.466,384.715001 484.5,385.012498 484.534,385.3355 L484.636,386.3215 L484.636,386.3215 C484.67,386.655835 484.698333,386.987332 484.721,387.316 C484.743667,387.644668 484.755,387.944999 484.755,388.217 L484.755,392.28 L482.511,392.28 Z M497.386,392.484 C497.000665,392.484 496.652168,392.418834 496.3405,392.2885 C496.028832,392.158166 495.765334,391.976834 495.55,391.7445 C495.334666,391.512166 495.167501,391.243002 495.0485,390.937 C494.929499,390.630998 494.87,390.296668 494.87,389.934 C494.87,389.049996 495.243996,388.358669 495.992,387.86 C496.740004,387.361331 497.946992,387.027001 499.613,386.857 C499.590333,386.482998 499.479834,386.185501 499.2815,385.9645 C499.083166,385.743499 498.751669,385.633 498.287,385.633 C497.924332,385.633 497.564502,385.700999 497.2075,385.837 C496.850498,385.973001 496.468002,386.159999 496.06,386.398 L495.159,384.749 C495.703003,384.420332 496.272497,384.154001 496.8675,383.95 C497.462503,383.745999 498.09433,383.644 498.763,383.644 C499.851005,383.644 500.681164,383.95283 501.2535,384.5705 C501.825836,385.18817 502.112,386.14866 502.112,387.452 L502.112,392.28 L500.072,392.28 L499.902,391.413 L499.834,391.413 C499.471332,391.730335 499.091669,391.988166 498.695,392.1865 C498.298331,392.384834 497.862002,392.484 497.386,392.484 Z M498.236,390.546 C498.519335,390.546 498.762999,390.483667 498.967,390.359 C499.171001,390.234333 499.386332,390.058668 499.613,389.832 L499.613,388.353 C498.728996,388.477667 498.117002,388.658999 497.777,388.897 C497.436998,389.135001 497.267,389.418332 497.267,389.747 C497.267,390.019001 497.354832,390.220166 497.5305,390.3505 C497.706168,390.480834 497.941332,390.546 498.236,390.546 Z M507.229,392.484 C506.707664,392.484 506.234502,392.382001 505.8095,392.178 C505.384498,391.973999 505.021835,391.682169 504.7215,391.3025 C504.421165,390.922831 504.188834,390.461003 504.0245,389.917 C503.860166,389.372997 503.778,388.755337 503.778,388.064 C503.778,387.372663 503.877166,386.755003 504.0755,386.211 C504.273834,385.666997 504.534498,385.205169 504.8575,384.8255 C505.180502,384.445831 505.554498,384.154001 505.9795,383.95 C506.404502,383.745999 506.837998,383.644 507.28,383.644 C507.756002,383.644 508.146998,383.723333 508.453,383.882 C508.759002,384.040667 509.059332,384.255999 509.354,384.528 L509.252,383.236 L509.252,380.363 L511.751,380.363 L511.751,392.28 L509.711,392.28 L509.541,391.447 L509.473,391.447 C509.178332,391.741668 508.832669,391.988166 508.436,392.1865 C508.039331,392.384834 507.637002,392.484 507.229,392.484 Z M507.875,390.444 C508.147001,390.444 508.393499,390.387334 508.6145,390.274 C508.835501,390.160666 509.047999,389.962335 509.252,389.679 L509.252,386.228 C509.025332,386.023999 508.793001,385.882334 508.555,385.803 C508.316999,385.723666 508.084668,385.684 507.858,385.684 C507.461331,385.684 507.110002,385.873831 506.804,386.2535 C506.497998,386.633169 506.345,387.225329 506.345,388.03 C506.345,388.868671 506.478165,389.480665 506.7445,389.866 C507.010835,390.251335 507.387664,390.444 507.875,390.444 Z M517.735,392.484 C517.13433,392.484 516.573336,392.384834 516.052,392.1865 C515.530664,391.988166 515.077335,391.699169 514.692,391.3195 C514.306665,390.939831 514.006334,390.478003 513.791,389.934 C513.575666,389.389997 513.468,388.76667 513.468,388.064 C513.468,387.383997 513.581332,386.769169 513.808,386.2195 C514.034668,385.669831 514.332165,385.205169 514.7005,384.8255 C515.068835,384.445831 515.490998,384.154001 515.967,383.95 C516.443002,383.745999 516.935997,383.644 517.446,383.644 C518.04667,383.644 518.570831,383.745999 519.0185,383.95 C519.466169,384.154001 519.840165,384.437332 520.1405,384.8 C520.440835,385.162668 520.664666,385.590498 520.812,386.0835 C520.959334,386.576502 521.033,387.111997 521.033,387.69 C521.033,387.916668 521.021667,388.131999 520.999,388.336 L520.965,388.60375 C520.953667,388.68025 520.942333,388.744 520.931,388.795 L515.882,388.795 C515.995334,389.407003 516.247498,389.857499 516.6385,390.1465 C517.029502,390.435501 517.508331,390.58 518.075,390.58 C518.67567,390.58 519.281997,390.393002 519.894,390.019 L520.727,391.532 C520.296331,391.826668 519.817503,392.058999 519.2905,392.229 C518.763497,392.399001 518.245003,392.484 517.735,392.484 Z M515.865,387.146 L518.908,387.146 C518.908,386.669998 518.800334,386.284668 518.585,385.99 C518.369666,385.695332 518.007003,385.548 517.497,385.548 C517.100331,385.548 516.751835,385.678332 516.4515,385.939 C516.151165,386.199668 515.955667,386.601997 515.865,387.146 Z M529.414,392.484 C528.892664,392.484 528.447835,392.404667 528.0795,392.246 C527.711165,392.087333 527.410834,391.866335 527.1785,391.583 C526.946166,391.299665 526.776167,390.956835 526.6685,390.5545 C526.560833,390.152165 526.507,389.707336 526.507,389.22 L526.507,385.803 L525.351,385.803 L525.351,383.95 L526.643,383.848 L526.932,381.604 L529.006,381.604 L529.006,383.848 L531.029,383.848 L531.029,385.803 L529.006,385.803 L529.006,389.186 C529.006,389.662002 529.105166,390.004832 529.3035,390.2145 C529.501834,390.424168 529.765332,390.529 530.094,390.529 C530.230001,390.529 530.368833,390.512 530.5105,390.478 C530.652167,390.444 530.779666,390.404334 530.893,390.359 L531.284,392.178 C531.057332,392.246 530.791002,392.314 530.485,392.382 C530.178998,392.45 529.822002,392.484 529.414,392.484 Z M536.299,392.484 C535.766331,392.484 535.250669,392.384834 534.752,392.1865 C534.253331,391.988166 533.814169,391.702002 533.4345,391.328 C533.054831,390.953998 532.751668,390.492169 532.525,389.9425 C532.298332,389.392831 532.185,388.76667 532.185,388.064 C532.185,387.36133 532.298332,386.735169 532.525,386.1855 C532.751668,385.635831 533.054831,385.174002 533.4345,384.8 C533.814169,384.425998 534.253331,384.139834 534.752,383.9415 C535.250669,383.743166 535.766331,383.644 536.299,383.644 C536.831669,383.644 537.344498,383.743166 537.8375,383.9415 C538.330502,384.139834 538.766831,384.425998 539.1465,384.8 C539.526169,385.174002 539.829332,385.635831 540.056,386.1855 C540.282668,386.735169 540.396,387.36133 540.396,388.064 C540.396,388.76667 540.282668,389.392831 540.056,389.9425 C539.829332,390.492169 539.526169,390.953998 539.1465,391.328 C538.766831,391.702002 538.330502,391.988166 537.8375,392.1865 C537.344498,392.384834 536.831669,392.484 536.299,392.484 Z M536.299,390.461 C536.809003,390.461 537.194332,390.245669 537.455,389.815 C537.715668,389.384331 537.846,388.80067 537.846,388.064 C537.846,387.32733 537.715668,386.743669 537.455,386.313 C537.194332,385.882331 536.809003,385.667 536.299,385.667 C535.777664,385.667 535.389501,385.882331 535.1345,386.313 C534.879499,386.743669 534.752,387.32733 534.752,388.064 C534.752,388.80067 534.879499,389.384331 535.1345,389.815 C535.389501,390.245669 535.777664,390.461 536.299,390.461 Z M547.995,392.484 C547.439664,392.484 546.87017,392.376334 546.2865,392.161 C545.70283,391.945666 545.195669,391.662335 544.765,391.311 L545.887,389.747 C546.272335,390.041668 546.640665,390.262666 546.992,390.41 C547.343335,390.557334 547.700332,390.631 548.063,390.631 C548.437002,390.631 548.708999,390.568667 548.879,390.444 C549.049001,390.319333 549.134,390.143668 549.134,389.917 C549.134,389.780999 549.085834,389.659167 548.9895,389.5515 C548.893166,389.443833 548.762834,389.344667 548.5985,389.254 C548.434166,389.163333 548.250001,389.081167 548.046,389.0075 L547.73575,388.890625 L547.73575,388.890625 L547.417,388.761 C547.156332,388.658999 546.895668,388.540001 546.635,388.404 C546.374332,388.267999 546.136334,388.100834 545.921,387.9025 C545.705666,387.704166 545.530001,387.471835 545.394,387.2055 C545.257999,386.939165 545.19,386.630335 545.19,386.279 C545.19,385.893665 545.266499,385.536668 545.4195,385.208 C545.572501,384.879332 545.790665,384.601668 546.074,384.375 C546.357335,384.148332 546.697331,383.969834 547.094,383.8395 C547.490669,383.709166 547.932664,383.644 548.42,383.644 C549.066003,383.644 549.632664,383.754499 550.12,383.9755 C550.607336,384.196501 551.032332,384.442999 551.395,384.715 L550.273,386.211 C549.966998,385.984332 549.666668,385.808667 549.372,385.684 C549.077332,385.559333 548.782668,385.497 548.488,385.497 C547.85333,385.497 547.536,385.717998 547.536,386.16 C547.536,386.296001 547.581333,386.412166 547.672,386.5085 C547.762667,386.604834 547.884499,386.692666 548.0375,386.772 C548.190501,386.851334 548.366166,386.927833 548.5645,387.0015 L549.185,387.231 L549.185,387.231 C549.457001,387.333001 549.726165,387.449166 549.9925,387.5795 C550.258835,387.709834 550.502499,387.871332 550.7235,388.064 C550.944501,388.256668 551.122999,388.491832 551.259,388.7695 C551.395001,389.047168 551.463,389.378665 551.463,389.764 C551.463,390.149335 551.389334,390.506332 551.242,390.835 C551.094666,391.163668 550.873668,391.449832 550.579,391.6935 C550.284332,391.937168 549.921669,392.129833 549.491,392.2715 C549.060331,392.413167 548.561669,392.484 547.995,392.484 Z M555.577,392.484 C554.658995,392.484 553.993169,392.18367 553.5795,391.583 C553.165831,390.98233 552.959,390.149339 552.959,389.084 L552.959,383.848 L555.458,383.848 L555.458,388.761 C555.458,389.373003 555.542999,389.792332 555.713,390.019 C555.883001,390.245668 556.149332,390.359 556.512,390.359 C556.829335,390.359 557.095666,390.285334 557.311,390.138 C557.526334,389.990666 557.758665,389.752668 558.008,389.424 L558.008,383.848 L560.507,383.848 L560.507,392.28 L558.467,392.28 L558.28,391.107 L558.229,391.107 C557.866332,391.537669 557.478169,391.874832 557.0645,392.1185 C556.650831,392.362168 556.155003,392.484 555.577,392.484 Z M562.7,392.28 L562.7,383.848 L565.199,383.848 L565.199,392.28 L562.7,392.28 Z M563.941,382.607 C563.521665,382.607 563.176001,382.485168 562.904,382.2415 C562.631999,381.997832 562.496,381.683335 562.496,381.298 C562.496,380.912665 562.631999,380.601001 562.904,380.363 C563.176001,380.124999 563.521665,380.006 563.941,380.006 C564.371669,380.006 564.720165,380.124999 564.9865,380.363 C565.252835,380.601001 565.386,380.912665 565.386,381.298 C565.386,381.683335 565.252835,381.997832 564.9865,382.2415 C564.720165,382.485168 564.371669,382.607 563.941,382.607 Z M570.639,392.484 C570.117664,392.484 569.672835,392.404667 569.3045,392.246 C568.936165,392.087333 568.635834,391.866335 568.4035,391.583 C568.171166,391.299665 568.001167,390.956835 567.8935,390.5545 C567.785833,390.152165 567.732,389.707336 567.732,389.22 L567.732,385.803 L566.576,385.803 L566.576,383.95 L567.868,383.848 L568.157,381.604 L570.231,381.604 L570.231,383.848 L572.254,383.848 L572.254,385.803 L570.231,385.803 L570.231,389.186 C570.231,389.662002 570.330166,390.004832 570.5285,390.2145 C570.726834,390.424168 570.990332,390.529 571.319,390.529 C571.455001,390.529 571.593833,390.512 571.7355,390.478 C571.877167,390.444 572.004666,390.404334 572.118,390.359 L572.509,392.178 C572.282332,392.246 572.016002,392.314 571.71,392.382 C571.403998,392.45 571.047002,392.484 570.639,392.484 Z" id="Madetosuit" fill="#093169" fill-rule="nonzero"></path>
            <polyline id="Rectangle-Copy-21" stroke="#CBD8F2" transform="translate(216.000000, 352.780000) scale(-1, 1) rotate(-180.000000) translate(-216.000000, -352.780000) " points="105 360.28 105 345.28 327 345.28 327 360.28"></polyline>
            <polyline id="Rectangle-Copy-27" stroke="#CBD8F2" transform="translate(526.500000, 352.780000) scale(-1, 1) rotate(-180.000000) translate(-526.500000, -352.780000) " points="471 360.28 471 345.28 582 345.28 582 360.28"></polyline>
            <g id="Group-8" transform="translate(449.000000, 0.000000)" stroke="#CBD8F2">
                <g id="Type-a-Leg" transform="translate(1.000000, 64.280000)" fill="#FFFFFF">
                    <polygon id="Rectangle-Copy-4" points="8 81 35 81 36 145 7 145"></polygon>
                    <polygon id="Rectangle-Copy-5" transform="translate(21.500000, 51.000000) rotate(-180.000000) translate(-21.500000, -51.000000) " points="8 21 35 21 34 81 9 81"></polygon>
                    <rect id="Rectangle" x="2" y="227" width="39" height="9"></rect>
                    <rect id="Rectangle-Copy-10" x="0" y="236" width="43" height="30"></rect>
                    <rect id="Rectangle-Copy" x="2" y="220" width="39" height="7" rx="3.5"></rect>
                    <rect id="Rectangle" x="7" y="145" width="29" height="75"></rect>
                    <polygon id="Rectangle-Copy-6" points="7 217 36 217 38 220 5 220"></polygon>
                    <rect id="Rectangle" x="7" y="17" width="29" height="4" rx="2"></rect>
                    <rect id="Rectangle" x="9" y="12" width="24" height="5"></rect>
                    <rect id="Rectangle-Copy-7" x="7" y="10" width="28" height="2"></rect>
                    <polygon id="Rectangle-Copy-8" transform="translate(21.000000, 8.000000) scale(1, -1) translate(-21.000000, -8.000000) " points="7 6 35 6 37 10 5 10"></polygon>
                    <path d="M3,2 L39,2 C38.3333333,2.66666667 38,3.33333333 38,4 C38,4.66666667 38,5.33333333 38,6 L4,6 C4,5.33333333 4,4.66666667 4,4 C4,3.33333333 3.66666667,2.66666667 3,2 Z" id="Rectangle"></path>
                    <rect id="Rectangle-Copy-9" transform="translate(21.000000, 1.000000) scale(1, -1) translate(-21.000000, -1.000000) " x="2" y="0" width="38" height="2"></rect>
                </g>
                <rect id="Rectangle" fill="#FFFFFF" x="10" y="59.28" width="124" height="5"></rect>
                <path d="M134,59.28 L9,59.28 C6.790861,59.28 5,57.489139 5,55.28 C8.63596539,55.28 51.6359654,55.28 134,55.28 L134,59.28 Z" id="Rectangle" fill="#FFFFFF"></path>
                <path d="M9,50.28 L134,50.28 L134,55.28 L4,55.28 L4,53.28 L9,50.28 Z" id="Combined-Shape" fill="#FFFFFF"></path>
                <path d="M134,15.28 L0,15.28 L0,12.28 L10,10.28 L134,10.28 L134,15.28 Z" id="Combined-Shape-Copy" fill="#FFFFFF"></path>
                <rect id="Rectangle" fill="#FFFFFF" x="10" y="31.28" width="124" height="17"></rect>
                <polygon id="Rectangle-Copy-11" fill="#FFFFFF" transform="translate(72.000000, 30.280000) scale(1, -1) translate(-72.000000, -30.280000) " points="10 29.28 134 29.28 134 31.28 10 31.28"></polygon>
                <rect id="Rectangle-Copy-13" fill="#FFFFFF" transform="translate(72.000000, 49.280000) scale(1, -1) translate(-72.000000, -49.280000) " x="10" y="48.28" width="124" height="2"></rect>
                <path d="M10,23.28 L134,23.28 L134,29.28 L5,29.28 C6.52321004,28.9188146 7.6898767,28.252148 8.5,27.28 C9.3101233,26.307852 9.8101233,24.9745187 10,23.28 Z" id="Rectangle-Copy-12" fill="#FFFFFF" stroke-linejoin="bevel" transform="translate(69.500000, 26.280000) scale(1, -1) translate(-69.500000, -26.280000) "></path>
                <rect id="Rectangle" fill="#FFFFFF" x="4" y="19.28" width="130" height="4"></rect>
                <path d="M134,19.28 L5.03053435,19.28 C2.8045317,19.28 1,17.489139 1,15.28 C2.4361559,15.28 46.7694892,15.28 134,15.28 L134,19.28 Z" id="Rectangle" fill="#FFFFFF"></path>
                <rect id="Rectangle" fill="#FFFFFF" x="10" y="0.28" width="124" height="10"></rect>
                <line x1="22.24" y1="0.28" x2="22.24" y2="64.44" id="Line-10-Copy-2"></line>
                <line x1="87.24" y1="0.56" x2="87.24" y2="31.28" id="Line-10-Copy-7"></line>
                <line x1="87.24" y1="48.42" x2="87.24" y2="64.44" id="Line-10-Copy-8"></line>
            </g>
            <g id="Group-7" transform="translate(0.000000, 0.280000)">
                <g id="Group-10" transform="translate(0.000000, 65.000000)">
                    <path d="M-20.392,124 L-20.392,122.572 L-19.5909593,121.817199 C-19.2047201,121.45 -18.8399017,121.098102 -18.4965,120.7615 C-17.9241638,120.200497 -17.4311687,119.673502 -17.0175,119.1805 C-16.6038313,118.687498 -16.2808345,118.228502 -16.0485,117.8035 C-15.8161655,117.378498 -15.7,116.973335 -15.7,116.588 C-15.7,116.055331 -15.8359986,115.650168 -16.108,115.3725 C-16.3800014,115.094832 -16.7539976,114.956 -17.23,114.956 C-17.6266686,114.956 -17.9779985,115.066499 -18.284,115.2875 C-18.5900015,115.508501 -18.8789986,115.766332 -19.151,116.061 L-20.511,114.718 C-19.9783307,114.151331 -19.4343361,113.723501 -18.879,113.4345 C-18.3236639,113.145499 -17.6606705,113.001 -16.89,113.001 C-16.3573307,113.001 -15.8728355,113.083166 -15.4365,113.2475 C-15.0001645,113.411834 -14.6233349,113.644165 -14.306,113.9445 C-13.9886651,114.244835 -13.7450009,114.604665 -13.575,115.024 C-13.4049992,115.443335 -13.32,115.913664 -13.32,116.435 C-13.32,116.888336 -13.4163324,117.350164 -13.609,117.8205 C-13.8016676,118.290836 -14.0594984,118.761164 -14.3825,119.2315 C-14.7055016,119.701836 -15.0738313,120.172164 -15.4875,120.6425 C-15.9011687,121.112836 -16.3289978,121.574664 -16.771,122.028 L-16.3396251,121.979125 C-16.1880422,121.963542 -16.0286675,121.948667 -15.8615,121.9345 C-15.527165,121.906167 -15.229668,121.892 -14.969,121.892 L-12.793,121.892 L-12.793,124 L-20.392,124 Z M-7.047,124 L-7.047,121.416 L-11.722,121.416 L-11.722,119.699 L-7.778,113.205 L-4.718,113.205 L-4.718,119.512 L-3.477,119.512 L-3.477,121.416 L-4.718,121.416 L-4.718,124 L-7.047,124 Z M-9.325,119.512 L-7.047,119.512 L-7.047,117.761 L-7.04156003,117.31356 C-7.03793338,117.1558 -7.03249339,116.989427 -7.02524004,116.814441 L-6.97220002,115.78356 C-6.96313337,115.62852 -6.95406671,115.483001 -6.945,115.347 L-7.013,115.347 C-7.14900068,115.641668 -7.29066593,115.941998 -7.438,116.248 C-7.58533407,116.554002 -7.73833254,116.859998 -7.897,117.166 L-9.325,119.512 Z M1.419,124.204 C0.84099711,124.204 0.31400238,124.082168 -0.162,123.8385 C-0.63800238,123.594832 -1.043165,123.235002 -1.3775,122.759 C-1.71183501,122.282998 -1.97249907,121.69367 -2.1595,120.991 C-2.34650094,120.28833 -2.44,119.478005 -2.44,118.56 C-2.44,117.641995 -2.34650094,116.837337 -2.1595,116.146 C-1.97249907,115.454663 -1.71183501,114.873836 -1.3775,114.4035 C-1.043165,113.933164 -0.63800238,113.581834 -0.162,113.3495 C0.31400238,113.117166 0.84099711,113.001 1.419,113.001 C1.99700289,113.001 2.52399762,113.117166 3,113.3495 C3.47600238,113.581834 3.881165,113.933164 4.2155,114.4035 C4.54983501,114.873836 4.81049906,115.454663 4.9975,116.146 C5.18450093,116.837337 5.278,117.641995 5.278,118.56 C5.278,119.478005 5.18450093,120.28833 4.9975,120.991 C4.81049906,121.69367 4.54983501,122.282998 4.2155,122.759 C3.881165,123.235002 3.47600238,123.594832 3,123.8385 C2.52399762,124.082168 1.99700289,124.204 1.419,124.204 Z M1.419,122.266 C1.63433441,122.266 1.83266576,122.212167 2.014,122.1045 C2.19533424,121.996833 2.35399932,121.801335 2.49,121.518 C2.62600068,121.234665 2.73083297,120.855002 2.8045,120.379 C2.87816703,119.902998 2.915,119.29667 2.915,118.56 C2.915,117.82333 2.87816703,117.219836 2.8045,116.7495 C2.73083297,116.279164 2.62600068,115.910835 2.49,115.6445 C2.35399932,115.378165 2.19533424,115.194001 2.014,115.092 C1.83266576,114.989999 1.63433441,114.939 1.419,114.939 C1.21499898,114.939 1.02233424,114.989999 0.841,115.092 C0.65966576,115.194001 0.50100068,115.378165 0.365,115.6445 C0.22899932,115.910835 0.12133373,116.279164 0.042,116.7495 C-0.03733373,117.219836 -0.077,117.82333 -0.077,118.56 C-0.077,119.29667 -0.03733373,119.902998 0.042,120.379 C0.12133373,120.855002 0.22899932,121.234665 0.365,121.518 C0.50100068,121.801335 0.65966576,121.996833 0.841,122.1045 C1.02233424,122.212167 1.21499898,122.266 1.419,122.266 Z M10.395,124.204 C9.81699711,124.204 9.29000238,124.082168 8.814,123.8385 C8.33799762,123.594832 7.93283501,123.235002 7.5985,122.759 C7.264165,122.282998 7.00350094,121.69367 6.8165,120.991 C6.62949907,120.28833 6.536,119.478005 6.536,118.56 C6.536,117.641995 6.62949907,116.837337 6.8165,116.146 C7.00350094,115.454663 7.264165,114.873836 7.5985,114.4035 C7.93283501,113.933164 8.33799762,113.581834 8.814,113.3495 C9.29000238,113.117166 9.81699711,113.001 10.395,113.001 C10.9730029,113.001 11.4999976,113.117166 11.976,113.3495 C12.4520024,113.581834 12.857165,113.933164 13.1915,114.4035 C13.525835,114.873836 13.7864991,115.454663 13.9735,116.146 C14.1605009,116.837337 14.254,117.641995 14.254,118.56 C14.254,119.478005 14.1605009,120.28833 13.9735,120.991 C13.7864991,121.69367 13.525835,122.282998 13.1915,122.759 C12.857165,123.235002 12.4520024,123.594832 11.976,123.8385 C11.4999976,124.082168 10.9730029,124.204 10.395,124.204 Z M10.395,122.266 C10.6103344,122.266 10.8086658,122.212167 10.99,122.1045 C11.1713342,121.996833 11.3299993,121.801335 11.466,121.518 C11.6020007,121.234665 11.706833,120.855002 11.7805,120.379 C11.854167,119.902998 11.891,119.29667 11.891,118.56 C11.891,117.82333 11.854167,117.219836 11.7805,116.7495 C11.706833,116.279164 11.6020007,115.910835 11.466,115.6445 C11.3299993,115.378165 11.1713342,115.194001 10.99,115.092 C10.8086658,114.989999 10.6103344,114.939 10.395,114.939 C10.190999,114.939 9.99833424,114.989999 9.817,115.092 C9.63566576,115.194001 9.47700068,115.378165 9.341,115.6445 C9.20499932,115.910835 9.09733373,116.279164 9.018,116.7495 C8.93866627,117.219836 8.899,117.82333 8.899,118.56 C8.899,119.29667 8.93866627,119.902998 9.018,120.379 C9.09733373,120.855002 9.20499932,121.234665 9.341,121.518 C9.47700068,121.801335 9.63566576,121.996833 9.817,122.1045 C9.99833424,122.212167 10.190999,122.266 10.395,122.266 Z M15.988,124 L15.988,115.568 L18.028,115.568 L18.198,116.656 L18.266,116.656 C18.6173351,116.304665 18.9913314,116.001501 19.388,115.7465 C19.7846687,115.491499 20.2606639,115.364 20.816,115.364 C21.4166697,115.364 21.9011648,115.485832 22.2695,115.7295 C22.6378352,115.973168 22.9296656,116.321664 23.145,116.775 C23.5190019,116.389665 23.9128313,116.058168 24.3265,115.7805 C24.7401687,115.502832 25.2303305,115.364 25.797,115.364 C26.7036712,115.364 27.3694979,115.667164 27.7945,116.2735 C28.2195021,116.879836 28.432,117.709995 28.432,118.764 L28.432,124 L25.933,124 L25.933,119.087 C25.933,118.474997 25.8508342,118.055668 25.6865,117.829 C25.5221658,117.602332 25.2586685,117.489 24.896,117.489 C24.4766646,117.489 23.9950027,117.760997 23.451,118.305 L23.451,124 L20.952,124 L20.952,119.087 C20.952,118.474997 20.8698342,118.055668 20.7055,117.829 C20.5411658,117.602332 20.2776685,117.489 19.915,117.489 C19.4843312,117.489 19.0083359,117.760997 18.487,118.305 L18.487,124 L15.988,124 Z M30.557,124 L30.557,115.568 L32.597,115.568 L32.767,116.656 L32.835,116.656 C33.1863351,116.304665 33.5603314,116.001501 33.957,115.7465 C34.3536687,115.491499 34.8296639,115.364 35.385,115.364 C35.9856697,115.364 36.4701648,115.485832 36.8385,115.7295 C37.2068352,115.973168 37.4986656,116.321664 37.714,116.775 C38.0880019,116.389665 38.4818313,116.058168 38.8955,115.7805 C39.3091687,115.502832 39.7993305,115.364 40.366,115.364 C41.2726712,115.364 41.9384979,115.667164 42.3635,116.2735 C42.7885021,116.879836 43.001,117.709995 43.001,118.764 L43.001,124 L40.502,124 L40.502,119.087 C40.502,118.474997 40.4198342,118.055668 40.2555,117.829 C40.0911658,117.602332 39.8276685,117.489 39.465,117.489 C39.0456646,117.489 38.5640027,117.760997 38.02,118.305 L38.02,124 L35.521,124 L35.521,119.087 C35.521,118.474997 35.4388342,118.055668 35.2745,117.829 C35.1101658,117.602332 34.8466685,117.489 34.484,117.489 C34.0533312,117.489 33.5773359,117.760997 33.056,118.305 L33.056,124 L30.557,124 Z" id="2400mm" fill="#093169" fill-rule="nonzero" transform="translate(11.245000, 118.602500) rotate(-90.000000) translate(-11.245000, -118.602500) "></path>
                    <polyline id="Rectangle-Copy-3" stroke="#CBD8F2" transform="translate(45.500000, 117.500000) rotate(-90.000000) translate(-45.500000, -117.500000) " points="-72 125 -72 110 163 110 163 125"></polyline>
                </g>
                <g id="Group-9" transform="translate(0.000000, 286.000000)">
                    <path d="M-12.402,35.204 C-13.2860044,35.204 -14.0339969,35.0651681 -14.646,34.7875 C-15.2580031,34.5098319 -15.7623313,34.138669 -16.159,33.674 L-15.003,32.093 C-14.6743317,32.4103349 -14.314502,32.670999 -13.9235,32.875 C-13.532498,33.079001 -13.104669,33.181 -12.64,33.181 C-12.1073307,33.181 -11.6823349,33.0705011 -11.365,32.8495 C-11.0476651,32.6284989 -10.889,32.314002 -10.889,31.906 C-10.889,31.6679988 -10.9314996,31.4526676 -11.0165,31.26 C-11.1015004,31.0673324 -11.2516656,30.905834 -11.467,30.7755 C-11.6823344,30.645166 -11.9769981,30.543167 -12.351,30.4695 C-12.7250019,30.395833 -13.2066637,30.359 -13.796,30.359 L-13.796,28.591 C-13.3086642,28.591 -12.9035016,28.5570003 -12.5805,28.489 C-12.2574984,28.4209997 -11.9968343,28.321834 -11.7985,28.1915 C-11.6001657,28.061166 -11.4585004,27.9081675 -11.3735,27.7325 C-11.2884996,27.5568325 -11.246,27.3613344 -11.246,27.146 C-11.246,26.7719981 -11.3593322,26.4801677 -11.586,26.2705 C-11.8126678,26.0608323 -12.1413312,25.956 -12.572,25.956 C-12.9573353,25.956 -13.3058318,26.0409992 -13.6175,26.211 C-13.9291682,26.3810009 -14.2549983,26.6133319 -14.595,26.908 L-15.853,25.378 C-15.3543308,24.9473312 -14.8301694,24.6101679 -14.2805,24.3665 C-13.7308306,24.1228321 -13.12167,24.001 -12.453,24.001 C-11.8976639,24.001 -11.3905023,24.066166 -10.9315,24.1965 C-10.4724977,24.326834 -10.0815016,24.5194987 -9.7585,24.7745 C-9.43549838,25.0295013 -9.18333424,25.3383315 -9.002,25.701 C-8.82066576,26.0636685 -8.73,26.4829976 -8.73,26.959 C-8.73,27.5256695 -8.88583177,28.004498 -9.1975,28.3955 C-9.50916822,28.786502 -9.95399711,29.1066654 -10.532,29.356 L-10.532,29.424 C-9.90866355,29.6053342 -9.39583534,29.9141645 -8.9935,30.3505 C-8.59116465,30.7868355 -8.39,31.3563298 -8.39,32.059 C-8.39,32.5576692 -8.49766559,33.002498 -8.713,33.3935 C-8.92833441,33.784502 -9.21733152,34.1131653 -9.58,34.3795 C-9.94266848,34.6458347 -10.3676642,34.8498326 -10.855,34.9915 C-11.3423358,35.1331674 -11.8579973,35.204 -12.402,35.204 Z M-3.069,35.204 C-3.64700289,35.204 -4.17399762,35.0821679 -4.65,34.8385 C-5.12600238,34.5948321 -5.53116499,34.2350024 -5.8655,33.759 C-6.199835,33.2829976 -6.46049906,32.6936702 -6.6475,31.991 C-6.83450093,31.2883298 -6.928,30.4780046 -6.928,29.56 C-6.928,28.6419954 -6.83450093,27.8373368 -6.6475,27.146 C-6.46049906,26.4546632 -6.199835,25.8738357 -5.8655,25.4035 C-5.53116499,24.9331643 -5.12600238,24.5818345 -4.65,24.3495 C-4.17399762,24.1171655 -3.64700289,24.001 -3.069,24.001 C-2.49099711,24.001 -1.96400238,24.1171655 -1.488,24.3495 C-1.01199762,24.5818345 -0.606835005,24.9331643 -0.2725,25.4035 C0.061835005,25.8738357 0.322499065,26.4546632 0.5095,27.146 C0.696500935,27.8373368 0.79,28.6419954 0.79,29.56 C0.79,30.4780046 0.696500935,31.2883298 0.5095,31.991 C0.322499065,32.6936702 0.061835005,33.2829976 -0.2725,33.759 C-0.606835005,34.2350024 -1.01199762,34.5948321 -1.488,34.8385 C-1.96400238,35.0821679 -2.49099711,35.204 -3.069,35.204 Z M-3.069,33.266 C-2.85366559,33.266 -2.65533424,33.2121672 -2.474,33.1045 C-2.29266576,32.9968328 -2.13400068,32.8013347 -1.998,32.518 C-1.86199932,32.2346653 -1.75716703,31.8550024 -1.6835,31.379 C-1.60983296,30.9029976 -1.573,30.2966704 -1.573,29.56 C-1.573,28.8233297 -1.60983296,28.2198357 -1.6835,27.7495 C-1.75716703,27.2791643 -1.86199932,26.9108347 -1.998,26.6445 C-2.13400068,26.3781653 -2.29266576,26.1940005 -2.474,26.092 C-2.65533424,25.9899995 -2.85366559,25.939 -3.069,25.939 C-3.27300102,25.939 -3.46566576,25.9899995 -3.647,26.092 C-3.82833424,26.1940005 -3.98699932,26.3781653 -4.123,26.6445 C-4.25900068,26.9108347 -4.36666627,27.2791643 -4.446,27.7495 C-4.52533373,28.2198357 -4.565,28.8233297 -4.565,29.56 C-4.565,30.2966704 -4.52533373,30.9029976 -4.446,31.379 C-4.36666627,31.8550024 -4.25900068,32.2346653 -4.123,32.518 C-3.98699932,32.8013347 -3.82833424,32.9968328 -3.647,33.1045 C-3.46566576,33.2121672 -3.27300102,33.266 -3.069,33.266 Z M5.907,35.204 C5.32899711,35.204 4.80200238,35.0821679 4.326,34.8385 C3.84999762,34.5948321 3.44483501,34.2350024 3.1105,33.759 C2.776165,33.2829976 2.51550094,32.6936702 2.3285,31.991 C2.14149907,31.2883298 2.048,30.4780046 2.048,29.56 C2.048,28.6419954 2.14149907,27.8373368 2.3285,27.146 C2.51550094,26.4546632 2.776165,25.8738357 3.1105,25.4035 C3.44483501,24.9331643 3.84999762,24.5818345 4.326,24.3495 C4.80200238,24.1171655 5.32899711,24.001 5.907,24.001 C6.48500289,24.001 7.01199762,24.1171655 7.488,24.3495 C7.96400238,24.5818345 8.369165,24.9331643 8.7035,25.4035 C9.03783501,25.8738357 9.29849907,26.4546632 9.4855,27.146 C9.67250094,27.8373368 9.766,28.6419954 9.766,29.56 C9.766,30.4780046 9.67250094,31.2883298 9.4855,31.991 C9.29849907,32.6936702 9.03783501,33.2829976 8.7035,33.759 C8.369165,34.2350024 7.96400238,34.5948321 7.488,34.8385 C7.01199762,35.0821679 6.48500289,35.204 5.907,35.204 Z M5.907,33.266 C6.12233441,33.266 6.32066576,33.2121672 6.502,33.1045 C6.68333424,32.9968328 6.84199932,32.8013347 6.978,32.518 C7.11400068,32.2346653 7.21883297,31.8550024 7.2925,31.379 C7.36616704,30.9029976 7.403,30.2966704 7.403,29.56 C7.403,28.8233297 7.36616704,28.2198357 7.2925,27.7495 C7.21883297,27.2791643 7.11400068,26.9108347 6.978,26.6445 C6.84199932,26.3781653 6.68333424,26.1940005 6.502,26.092 C6.32066576,25.9899995 6.12233441,25.939 5.907,25.939 C5.70299898,25.939 5.51033424,25.9899995 5.329,26.092 C5.14766576,26.1940005 4.98900068,26.3781653 4.853,26.6445 C4.71699932,26.9108347 4.60933373,27.2791643 4.53,27.7495 C4.45066627,28.2198357 4.411,28.8233297 4.411,29.56 C4.411,30.2966704 4.45066627,30.9029976 4.53,31.379 C4.60933373,31.8550024 4.71699932,32.2346653 4.853,32.518 C4.98900068,32.8013347 5.14766576,32.9968328 5.329,33.1045 C5.51033424,33.2121672 5.70299898,33.266 5.907,33.266 Z M11.5,35 L11.5,26.568 L13.54,26.568 L13.71,27.656 L13.778,27.656 C14.1293351,27.3046649 14.5033314,27.0015013 14.9,26.7465 C15.2966687,26.4914987 15.7726639,26.364 16.328,26.364 C16.9286697,26.364 17.4131648,26.4858321 17.7815,26.7295 C18.1498352,26.9731679 18.4416656,27.3216644 18.657,27.775 C19.0310019,27.3896647 19.4248313,27.0581681 19.8385,26.7805 C20.2521687,26.5028319 20.7423305,26.364 21.309,26.364 C22.2156712,26.364 22.8814979,26.6671636 23.3065,27.2735 C23.7315021,27.8798364 23.944,28.7099947 23.944,29.764 L23.944,35 L21.445,35 L21.445,30.087 C21.445,29.4749969 21.3628342,29.0556678 21.1985,28.829 C21.0341658,28.6023322 20.7706685,28.489 20.408,28.489 C19.9886646,28.489 19.5070027,28.7609973 18.963,29.305 L18.963,35 L16.464,35 L16.464,30.087 C16.464,29.4749969 16.3818342,29.0556678 16.2175,28.829 C16.0531658,28.6023322 15.7896685,28.489 15.427,28.489 C14.9963312,28.489 14.5203359,28.7609973 13.999,29.305 L13.999,35 L11.5,35 Z M26.069,35 L26.069,26.568 L28.109,26.568 L28.279,27.656 L28.347,27.656 C28.6983351,27.3046649 29.0723314,27.0015013 29.469,26.7465 C29.8656687,26.4914987 30.3416639,26.364 30.897,26.364 C31.4976697,26.364 31.9821648,26.4858321 32.3505,26.7295 C32.7188352,26.9731679 33.0106656,27.3216644 33.226,27.775 C33.6000019,27.3896647 33.9938313,27.0581681 34.4075,26.7805 C34.8211687,26.5028319 35.3113305,26.364 35.878,26.364 C36.7846712,26.364 37.4504979,26.6671636 37.8755,27.2735 C38.3005021,27.8798364 38.513,28.7099947 38.513,29.764 L38.513,35 L36.014,35 L36.014,30.087 C36.014,29.4749969 35.9318342,29.0556678 35.7675,28.829 C35.6031658,28.6023322 35.3396685,28.489 34.977,28.489 C34.5576646,28.489 34.0760027,28.7609973 33.532,29.305 L33.532,35 L31.033,35 L31.033,30.087 C31.033,29.4749969 30.9508342,29.0556678 30.7865,28.829 C30.6221658,28.6023322 30.3586685,28.489 29.996,28.489 C29.5653312,28.489 29.0893359,28.7609973 28.568,29.305 L28.568,35 L26.069,35 Z" id="300mm" fill="#093169" fill-rule="nonzero" transform="translate(11.177000, 29.602500) rotate(-90.000000) translate(-11.177000, -29.602500) "></path>
                    <polyline id="Rectangle-Copy-21" stroke="#CBD8F2" transform="translate(45.500000, 29.000000) scale(-1, 1) rotate(-270.000000) translate(-45.500000, -29.000000) " points="30.5 36.5 30.5 21.5 60.5 21.5 60.5 36.5"></polyline>
                </g>
                <path d="M-11.756,39.204 C-12.2773359,39.204 -12.7844975,39.102001 -13.2775,38.898 C-13.7705025,38.693999 -14.2068314,38.3766688 -14.5865,37.946 C-14.9661686,37.5153312 -15.2693322,36.9628367 -15.496,36.2885 C-15.7226678,35.6141633 -15.836,34.8010048 -15.836,33.849 C-15.836,32.8403283 -15.7141679,31.9676704 -15.4705,31.231 C-15.2268321,30.4943297 -14.9038353,29.8880024 -14.5015,29.412 C-14.0991647,28.9359976 -13.6345026,28.5818345 -13.1075,28.3495 C-12.5804974,28.1171655 -12.0336695,28.001 -11.467,28.001 C-10.7529964,28.001 -10.1353359,28.1284987 -9.614,28.3835 C-9.09266406,28.6385013 -8.6620017,28.9416649 -8.322,29.293 L-9.631,30.789 C-9.82366763,30.584999 -10.0729985,30.4065008 -10.379,30.2535 C-10.6850015,30.1004992 -10.9966651,30.024 -11.314,30.024 C-11.6086681,30.024 -11.886332,30.0806661 -12.147,30.194 C-12.407668,30.3073339 -12.6371657,30.4971653 -12.8355,30.7635 C-13.0338343,31.0298347 -13.1953327,31.3783312 -13.32,31.809 C-13.4446673,32.2396688 -13.5183332,32.7666636 -13.541,33.39 C-13.4049993,33.2086658 -13.2463342,33.0471674 -13.065,32.9055 C-12.8836658,32.7638326 -12.6966676,32.6448338 -12.504,32.5485 C-12.3113324,32.4521662 -12.1186676,32.3785003 -11.926,32.3275 C-11.7333324,32.2764997 -11.5520008,32.251 -11.382,32.251 C-10.917331,32.251 -10.489502,32.3189993 -10.0985,32.455 C-9.70749804,32.5910007 -9.36750144,32.7949986 -9.0785,33.067 C-8.78949855,33.3390014 -8.56566746,33.6846646 -8.407,34.104 C-8.24833254,34.5233354 -8.169,35.0163305 -8.169,35.583 C-8.169,36.1496695 -8.26533237,36.6539978 -8.458,37.096 C-8.65066763,37.5380022 -8.90849838,37.9176651 -9.2315,38.235 C-9.55450161,38.5523349 -9.93416449,38.7931658 -10.3705,38.9575 C-10.8068355,39.1218342 -11.2686642,39.204 -11.756,39.204 Z M-11.807,37.334 C-11.4329981,37.334 -11.1128347,37.1951681 -10.8465,36.9175 C-10.5801653,36.6398319 -10.447,36.1950031 -10.447,35.583 C-10.447,35.0049971 -10.5801653,34.5998345 -10.8465,34.3675 C-11.1128347,34.1351655 -11.449998,34.019 -11.858,34.019 C-12.1413348,34.019 -12.4274986,34.1011658 -12.7165,34.2655 C-13.0055014,34.4298342 -13.2633322,34.7046647 -13.49,35.09 C-13.433333,35.5206688 -13.3483339,35.8776653 -13.235,36.161 C-13.1216661,36.4443347 -12.9913341,36.6738325 -12.844,36.8495 C-12.6966659,37.0251675 -12.5351675,37.149833 -12.3595,37.2235 C-12.1838325,37.297167 -11.9996676,37.334 -11.807,37.334 Z M-2.559,39 L-2.559,36.416 L-7.234,36.416 L-7.234,34.699 L-3.29,28.205 L-0.23,28.205 L-0.23,34.512 L1.011,34.512 L1.011,36.416 L-0.23,36.416 L-0.23,39 L-2.559,39 Z M-4.837,34.512 L-2.559,34.512 L-2.559,32.761 L-2.55356003,32.3135599 C-2.54993338,32.1558003 -2.54449339,31.9894275 -2.53724004,31.8144407 L-2.48420002,30.7835601 C-2.47513337,30.6285204 -2.46606671,30.4830007 -2.457,30.347 L-2.525,30.347 C-2.66100068,30.6416681 -2.80266593,30.9419985 -2.95,31.248 C-3.09733407,31.5540015 -3.25033254,31.8599985 -3.409,32.166 L-4.837,34.512 Z M2.609,39 L2.609,36.977 L4.955,36.977 L4.955,30.738 L2.932,30.738 L2.932,29.191 C3.52133628,29.0776661 4.01999796,28.9416675 4.428,28.783 C4.83600204,28.6243325 5.23266474,28.4316678 5.618,28.205 L7.454,28.205 L7.454,36.977 L9.477,36.977 L9.477,39 L2.609,39 Z M11.5,39 L11.5,30.568 L13.54,30.568 L13.71,31.656 L13.778,31.656 C14.1293351,31.3046649 14.5033314,31.0015013 14.9,30.7465 C15.2966687,30.4914987 15.7726639,30.364 16.328,30.364 C16.9286697,30.364 17.4131648,30.4858321 17.7815,30.7295 C18.1498352,30.9731679 18.4416656,31.3216644 18.657,31.775 C19.0310019,31.3896647 19.4248313,31.0581681 19.8385,30.7805 C20.2521687,30.5028319 20.7423305,30.364 21.309,30.364 C22.2156712,30.364 22.8814979,30.6671636 23.3065,31.2735 C23.7315021,31.8798364 23.944,32.7099947 23.944,33.764 L23.944,39 L21.445,39 L21.445,34.087 C21.445,33.4749969 21.3628342,33.0556678 21.1985,32.829 C21.0341658,32.6023322 20.7706685,32.489 20.408,32.489 C19.9886646,32.489 19.5070027,32.7609973 18.963,33.305 L18.963,39 L16.464,39 L16.464,34.087 C16.464,33.4749969 16.3818342,33.0556678 16.2175,32.829 C16.0531658,32.6023322 15.7896685,32.489 15.427,32.489 C14.9963312,32.489 14.5203359,32.7609973 13.999,33.305 L13.999,39 L11.5,39 Z M26.069,39 L26.069,30.568 L28.109,30.568 L28.279,31.656 L28.347,31.656 C28.6983351,31.3046649 29.0723314,31.0015013 29.469,30.7465 C29.8656687,30.4914987 30.3416639,30.364 30.897,30.364 C31.4976697,30.364 31.9821648,30.4858321 32.3505,30.7295 C32.7188352,30.9731679 33.0106656,31.3216644 33.226,31.775 C33.6000019,31.3896647 33.9938313,31.0581681 34.4075,30.7805 C34.8211687,30.5028319 35.3113305,30.364 35.878,30.364 C36.7846712,30.364 37.4504979,30.6671636 37.8755,31.2735 C38.3005021,31.8798364 38.513,32.7099947 38.513,33.764 L38.513,39 L36.014,39 L36.014,34.087 C36.014,33.4749969 35.9318342,33.0556678 35.7675,32.829 C35.6031658,32.6023322 35.3396685,32.489 34.977,32.489 C34.5576646,32.489 34.0760027,32.7609973 33.532,33.305 L33.532,39 L31.033,39 L31.033,34.087 C31.033,33.4749969 30.9508342,33.0556678 30.7865,32.829 C30.6221658,32.6023322 30.3586685,32.489 29.996,32.489 C29.5653312,32.489 29.0893359,32.7609973 28.568,33.305 L28.568,39 L26.069,39 Z" id="641mm" fill="#093169" fill-rule="nonzero" transform="translate(11.338500, 33.602500) rotate(-450.000000) translate(-11.338500, -33.602500) "></path>
                <polyline id="Rectangle-Copy-19" stroke="#CBD8F2" transform="translate(45.500000, 32.500000) scale(-1, 1) rotate(90.000000) translate(-45.500000, -32.500000) " points="13.1083333 40 13 25 78 25 78 40"></polyline>
            </g>
        </g>
    </g>
</svg>