<?xml version="1.0" encoding="UTF-8"?>
<svg width="600px" height="451px" viewBox="0 0 600 451" version="1.1" xmlns="http://www.w3.org/2000/svg" xmlns:xlink="http://www.w3.org/1999/xlink">
    <!-- Generator: Sketch 58 (84663) - https://sketch.com -->
    <title>quions/Q100</title>
    <desc>Created with Sketch.</desc>
    <g id="quions/Q100" stroke="none" stroke-width="1" fill="none" fill-rule="evenodd">
        <rect fill="#F5F9FF" x="0" y="0" width="600" height="451"></rect>
        <g id="Group-2" transform="translate(60.000000, 35.000000)">
            <rect id="Rectangle" stroke="#CBD8F2" fill="#FFFFFF" x="78" y="65" width="62" height="60"></rect>
            <g id="Group-Copy" transform="translate(0.000000, 191.000000)" fill="#FFFFFF" stroke="#FF5959" stroke-opacity="0.6">
                <rect id="Rectangle" x="51" y="0" width="24" height="18"></rect>
                <rect id="Rectangle-Copy-5" x="51" y="42" width="24" height="18"></rect>
                <rect id="Rectangle-Copy-6" x="27" y="21" width="48" height="18"></rect>
                <rect id="Rectangle-Copy-9" x="0" y="21" width="24" height="18"></rect>
                <rect id="Rectangle-Copy-7" x="0" y="0" width="48" height="18"></rect>
                <rect id="Rectangle-Copy-8" x="0" y="42" width="48" height="18"></rect>
            </g>
            <g id="Group-Copy-3" transform="translate(0.000000, 65.000000)" fill="#FFFFFF" stroke="#FF5959" stroke-opacity="0.6">
                <rect id="Rectangle" x="51" y="0" width="24" height="18"></rect>
                <rect id="Rectangle-Copy-5" x="51" y="42" width="24" height="18"></rect>
                <rect id="Rectangle-Copy-6" x="27" y="21" width="48" height="18"></rect>
                <rect id="Rectangle-Copy-9" x="0" y="21" width="24" height="18"></rect>
                <rect id="Rectangle-Copy-7" x="0" y="0" width="48" height="18"></rect>
                <rect id="Rectangle-Copy-8" x="0" y="42" width="48" height="18"></rect>
            </g>
            <g id="Group" transform="translate(0.000000, 254.000000)" fill="#FFFFFF" stroke="#FF5959" stroke-opacity="0.6">
                <rect id="Rectangle" x="24" y="0" width="24" height="18"></rect>
                <rect id="Rectangle-Copy-5" x="24" y="42" width="24" height="18"></rect>
                <rect id="Rectangle-Copy-6" x="0" y="21" width="48" height="18"></rect>
                <rect id="Rectangle-Copy-9" x="0" y="0" width="21" height="18"></rect>
                <rect id="Rectangle-Copy-10" x="0" y="42" width="21" height="18"></rect>
            </g>
            <g id="Group-Copy-4" transform="translate(0.000000, 128.000000)" fill="#FFFFFF" stroke="#FF5959" stroke-opacity="0.6">
                <rect id="Rectangle" x="24" y="0" width="24" height="18"></rect>
                <rect id="Rectangle-Copy-5" x="24" y="42" width="24" height="18"></rect>
                <rect id="Rectangle-Copy-6" x="0" y="21" width="48" height="18"></rect>
                <rect id="Rectangle-Copy-9" x="0" y="0" width="21" height="18"></rect>
                <rect id="Rectangle-Copy-10" x="0" y="42" width="21" height="18"></rect>
            </g>
            <rect id="Rectangle-Copy-2" stroke="#CBD8F2" fill="#FFFFFF" x="78" y="191" width="62" height="60"></rect>
            <rect id="Rectangle-Copy" stroke="#CBD8F2" fill="#FFFFFF" x="51" y="128" width="89" height="60"></rect>
            <rect id="Rectangle-Copy-4" stroke="#CBD8F2" fill="#FFFFFF" x="51" y="254" width="89" height="60"></rect>
            <g id="Group-5" transform="translate(156.000000, 65.000000)">
                <path d="M11.596,37 L11.596,35.572 L12.3970407,34.8171994 C12.7832799,34.4500002 13.1480983,34.0981017 13.4915,33.7615 C14.0638362,33.2004972 14.5568313,32.6735025 14.9705,32.1805 C15.3841687,31.6874975 15.7071655,31.2285021 15.9395,30.8035 C16.1718345,30.3784979 16.288,29.9733353 16.288,29.588 C16.288,29.0553307 16.1520014,28.6501681 15.88,28.3725 C15.6079986,28.0948319 15.2340024,27.956 14.758,27.956 C14.3613313,27.956 14.0100015,28.0664989 13.704,28.2875 C13.3979985,28.5085011 13.1090014,28.7663319 12.837,29.061 L11.477,27.718 C12.0096693,27.1513305 12.5536639,26.7235014 13.109,26.4345 C13.6643361,26.1454986 14.3273295,26.001 15.098,26.001 C15.6306693,26.001 16.1151645,26.0831658 16.5515,26.2475 C16.9878355,26.4118342 17.3646651,26.6441652 17.682,26.9445 C17.9993349,27.2448348 18.2429991,27.6046646 18.413,28.024 C18.5830008,28.4433354 18.668,28.9136641 18.668,29.435 C18.668,29.8883356 18.5716676,30.3501643 18.379,30.8205 C18.1863324,31.2908357 17.9285016,31.7611643 17.6055,32.2315 C17.2824984,32.7018357 16.9141687,33.1721643 16.5005,33.6425 C16.0868313,34.1128357 15.6590022,34.5746644 15.217,35.028 L15.6483749,34.979125 C15.7999578,34.9635417 15.9593325,34.9486667 16.1265,34.9345 C16.460835,34.9061665 16.758332,34.892 17.019,34.892 L19.195,34.892 L19.195,37 L11.596,37 Z M21.133,37 L21.133,34.977 L23.479,34.977 L23.479,28.738 L21.456,28.738 L21.456,27.191 C22.0453363,27.0776661 22.543998,26.9416675 22.952,26.783 C23.360002,26.6243325 23.7566647,26.4316678 24.142,26.205 L25.978,26.205 L25.978,34.977 L28.001,34.977 L28.001,37 L21.133,37 Z M33.118,37.204 C32.2339956,37.204 31.4860031,37.0595014 30.874,36.7705 C30.2619969,36.4814986 29.7406688,36.1216688 29.31,35.691 L30.432,34.11 C30.7606683,34.4046681 31.1148314,34.6568323 31.4945,34.8665 C31.8741686,35.0761677 32.296331,35.181 32.761,35.181 C33.3163361,35.181 33.7583317,35.0393348 34.087,34.756 C34.4156683,34.4726652 34.58,34.0533361 34.58,33.498 C34.58,32.9539973 34.4241682,32.5403347 34.1125,32.257 C33.8008318,31.9736652 33.3900025,31.832 32.88,31.832 C32.7213325,31.832 32.5796673,31.8404999 32.455,31.8575 C32.3303327,31.8745001 32.2085006,31.9056664 32.0895,31.951 C31.9704994,31.9963336 31.845834,32.0529997 31.7155,32.121 C31.585166,32.1890003 31.4406675,32.2739995 31.282,32.376 L30.16,31.662 L30.466,26.205 L36.586,26.205 L36.586,28.313 L32.625,28.313 L32.438,30.336 C32.642001,30.2453329 32.8374991,30.1801669 33.0245,30.1405 C33.2115009,30.1008331 33.4183322,30.081 33.645,30.081 C34.109669,30.081 34.5488313,30.1489993 34.9625,30.285 C35.3761687,30.4210007 35.7416651,30.6249986 36.059,30.897 C36.3763349,31.1690014 36.6256658,31.5146646 36.807,31.934 C36.9883342,32.3533354 37.079,32.8519971 37.079,33.43 C37.079,34.0306697 36.9713344,34.563331 36.756,35.028 C36.5406656,35.492669 36.2516685,35.8864984 35.889,36.2095 C35.5263315,36.5325016 35.1041691,36.7789992 34.6225,36.949 C34.1408309,37.1190008 33.6393359,37.204 33.118,37.204 Z M39,37 L39,28.568 L41.04,28.568 L41.21,29.656 L41.278,29.656 C41.6293351,29.3046649 42.0033314,29.0015013 42.4,28.7465 C42.7966687,28.4914987 43.2726639,28.364 43.828,28.364 C44.4286697,28.364 44.9131648,28.4858321 45.2815,28.7295 C45.6498352,28.9731679 45.9416656,29.3216644 46.157,29.775 C46.5310019,29.3896647 46.9248313,29.0581681 47.3385,28.7805 C47.7521687,28.5028319 48.2423305,28.364 48.809,28.364 C49.7156712,28.364 50.3814979,28.6671636 50.8065,29.2735 C51.2315021,29.8798364 51.444,30.7099947 51.444,31.764 L51.444,37 L48.945,37 L48.945,32.087 C48.945,31.4749969 48.8628342,31.0556678 48.6985,30.829 C48.5341658,30.6023322 48.2706685,30.489 47.908,30.489 C47.4886646,30.489 47.0070027,30.7609973 46.463,31.305 L46.463,37 L43.964,37 L43.964,32.087 C43.964,31.4749969 43.8818342,31.0556678 43.7175,30.829 C43.5531658,30.6023322 43.2896685,30.489 42.927,30.489 C42.4963312,30.489 42.0203359,30.7609973 41.499,31.305 L41.499,37 L39,37 Z M53.569,37 L53.569,28.568 L55.609,28.568 L55.779,29.656 L55.847,29.656 C56.1983351,29.3046649 56.5723314,29.0015013 56.969,28.7465 C57.3656687,28.4914987 57.8416639,28.364 58.397,28.364 C58.9976697,28.364 59.4821648,28.4858321 59.8505,28.7295 C60.2188352,28.9731679 60.5106656,29.3216644 60.726,29.775 C61.1000019,29.3896647 61.4938313,29.0581681 61.9075,28.7805 C62.3211687,28.5028319 62.8113305,28.364 63.378,28.364 C64.2846712,28.364 64.9504979,28.6671636 65.3755,29.2735 C65.8005021,29.8798364 66.013,30.7099947 66.013,31.764 L66.013,37 L63.514,37 L63.514,32.087 C63.514,31.4749969 63.4318342,31.0556678 63.2675,30.829 C63.1031658,30.6023322 62.8396685,30.489 62.477,30.489 C62.0576646,30.489 61.5760027,30.7609973 61.032,31.305 L61.032,37 L58.533,37 L58.533,32.087 C58.533,31.4749969 58.4508342,31.0556678 58.2865,30.829 C58.1221658,30.6023322 57.8586685,30.489 57.496,30.489 C57.0653312,30.489 56.5893359,30.7609973 56.068,31.305 L56.068,37 L53.569,37 Z" id="215mm" fill="#093169" fill-rule="nonzero" transform="translate(38.745000, 31.602500) rotate(-270.000000) translate(-38.745000, -31.602500) "></path>
                <polyline id="Rectangle-Copy-3" stroke="#CBD8F2" transform="translate(8.000000, 30.500000) rotate(-270.000000) translate(-8.000000, -30.500000) " points="-21.9 38 -22 23 38 23 38 38"></polyline>
            </g>
            <g id="Group-5-Copy" transform="translate(110.000000, 25.500000) rotate(-90.000000) translate(-110.000000, -25.500000) translate(85.000000, -5.000000)">
                <path d="M11.596,37 L11.596,35.572 L12.3970407,34.8171994 C12.7832799,34.4500002 13.1480983,34.0981017 13.4915,33.7615 C14.0638362,33.2004972 14.5568313,32.6735025 14.9705,32.1805 C15.3841687,31.6874975 15.7071655,31.2285021 15.9395,30.8035 C16.1718345,30.3784979 16.288,29.9733353 16.288,29.588 C16.288,29.0553307 16.1520014,28.6501681 15.88,28.3725 C15.6079986,28.0948319 15.2340024,27.956 14.758,27.956 C14.3613313,27.956 14.0100015,28.0664989 13.704,28.2875 C13.3979985,28.5085011 13.1090014,28.7663319 12.837,29.061 L11.477,27.718 C12.0096693,27.1513305 12.5536639,26.7235014 13.109,26.4345 C13.6643361,26.1454986 14.3273295,26.001 15.098,26.001 C15.6306693,26.001 16.1151645,26.0831658 16.5515,26.2475 C16.9878355,26.4118342 17.3646651,26.6441652 17.682,26.9445 C17.9993349,27.2448348 18.2429991,27.6046646 18.413,28.024 C18.5830008,28.4433354 18.668,28.9136641 18.668,29.435 C18.668,29.8883356 18.5716676,30.3501643 18.379,30.8205 C18.1863324,31.2908357 17.9285016,31.7611643 17.6055,32.2315 C17.2824984,32.7018357 16.9141687,33.1721643 16.5005,33.6425 C16.0868313,34.1128357 15.6590022,34.5746644 15.217,35.028 L15.6483749,34.979125 C15.7999578,34.9635417 15.9593325,34.9486667 16.1265,34.9345 C16.460835,34.9061665 16.758332,34.892 17.019,34.892 L19.195,34.892 L19.195,37 L11.596,37 Z M21.133,37 L21.133,34.977 L23.479,34.977 L23.479,28.738 L21.456,28.738 L21.456,27.191 C22.0453363,27.0776661 22.543998,26.9416675 22.952,26.783 C23.360002,26.6243325 23.7566647,26.4316678 24.142,26.205 L25.978,26.205 L25.978,34.977 L28.001,34.977 L28.001,37 L21.133,37 Z M33.118,37.204 C32.2339956,37.204 31.4860031,37.0595014 30.874,36.7705 C30.2619969,36.4814986 29.7406688,36.1216688 29.31,35.691 L30.432,34.11 C30.7606683,34.4046681 31.1148314,34.6568323 31.4945,34.8665 C31.8741686,35.0761677 32.296331,35.181 32.761,35.181 C33.3163361,35.181 33.7583317,35.0393348 34.087,34.756 C34.4156683,34.4726652 34.58,34.0533361 34.58,33.498 C34.58,32.9539973 34.4241682,32.5403347 34.1125,32.257 C33.8008318,31.9736652 33.3900025,31.832 32.88,31.832 C32.7213325,31.832 32.5796673,31.8404999 32.455,31.8575 C32.3303327,31.8745001 32.2085006,31.9056664 32.0895,31.951 C31.9704994,31.9963336 31.845834,32.0529997 31.7155,32.121 C31.585166,32.1890003 31.4406675,32.2739995 31.282,32.376 L30.16,31.662 L30.466,26.205 L36.586,26.205 L36.586,28.313 L32.625,28.313 L32.438,30.336 C32.642001,30.2453329 32.8374991,30.1801669 33.0245,30.1405 C33.2115009,30.1008331 33.4183322,30.081 33.645,30.081 C34.109669,30.081 34.5488313,30.1489993 34.9625,30.285 C35.3761687,30.4210007 35.7416651,30.6249986 36.059,30.897 C36.3763349,31.1690014 36.6256658,31.5146646 36.807,31.934 C36.9883342,32.3533354 37.079,32.8519971 37.079,33.43 C37.079,34.0306697 36.9713344,34.563331 36.756,35.028 C36.5406656,35.492669 36.2516685,35.8864984 35.889,36.2095 C35.5263315,36.5325016 35.1041691,36.7789992 34.6225,36.949 C34.1408309,37.1190008 33.6393359,37.204 33.118,37.204 Z M39,37 L39,28.568 L41.04,28.568 L41.21,29.656 L41.278,29.656 C41.6293351,29.3046649 42.0033314,29.0015013 42.4,28.7465 C42.7966687,28.4914987 43.2726639,28.364 43.828,28.364 C44.4286697,28.364 44.9131648,28.4858321 45.2815,28.7295 C45.6498352,28.9731679 45.9416656,29.3216644 46.157,29.775 C46.5310019,29.3896647 46.9248313,29.0581681 47.3385,28.7805 C47.7521687,28.5028319 48.2423305,28.364 48.809,28.364 C49.7156712,28.364 50.3814979,28.6671636 50.8065,29.2735 C51.2315021,29.8798364 51.444,30.7099947 51.444,31.764 L51.444,37 L48.945,37 L48.945,32.087 C48.945,31.4749969 48.8628342,31.0556678 48.6985,30.829 C48.5341658,30.6023322 48.2706685,30.489 47.908,30.489 C47.4886646,30.489 47.0070027,30.7609973 46.463,31.305 L46.463,37 L43.964,37 L43.964,32.087 C43.964,31.4749969 43.8818342,31.0556678 43.7175,30.829 C43.5531658,30.6023322 43.2896685,30.489 42.927,30.489 C42.4963312,30.489 42.0203359,30.7609973 41.499,31.305 L41.499,37 L39,37 Z M53.569,37 L53.569,28.568 L55.609,28.568 L55.779,29.656 L55.847,29.656 C56.1983351,29.3046649 56.5723314,29.0015013 56.969,28.7465 C57.3656687,28.4914987 57.8416639,28.364 58.397,28.364 C58.9976697,28.364 59.4821648,28.4858321 59.8505,28.7295 C60.2188352,28.9731679 60.5106656,29.3216644 60.726,29.775 C61.1000019,29.3896647 61.4938313,29.0581681 61.9075,28.7805 C62.3211687,28.5028319 62.8113305,28.364 63.378,28.364 C64.2846712,28.364 64.9504979,28.6671636 65.3755,29.2735 C65.8005021,29.8798364 66.013,30.7099947 66.013,31.764 L66.013,37 L63.514,37 L63.514,32.087 C63.514,31.4749969 63.4318342,31.0556678 63.2675,30.829 C63.1031658,30.6023322 62.8396685,30.489 62.477,30.489 C62.0576646,30.489 61.5760027,30.7609973 61.032,31.305 L61.032,37 L58.533,37 L58.533,32.087 C58.533,31.4749969 58.4508342,31.0556678 58.2865,30.829 C58.1221658,30.6023322 57.8586685,30.489 57.496,30.489 C57.0653312,30.489 56.5893359,30.7609973 56.068,31.305 L56.068,37 L53.569,37 Z" id="215mm" fill="#093169" fill-rule="nonzero" transform="translate(38.745000, 31.602500) rotate(-270.000000) translate(-38.745000, -31.602500) "></path>
                <polyline id="Rectangle-Copy-3" stroke="#CBD8F2" transform="translate(8.000000, 30.500000) rotate(-270.000000) translate(-8.000000, -30.500000) " points="-21.9 38 -22 23 38 23 38 38"></polyline>
            </g>
            <path d="M63.56,376.204 C62.6759956,376.204 61.9280031,376.065168 61.316,375.7875 C60.7039969,375.509832 60.1996686,375.138669 59.803,374.674 L60.959,373.093 C61.2876683,373.410335 61.647498,373.670999 62.0385,373.875 C62.429502,374.079001 62.857331,374.181 63.322,374.181 C63.8546693,374.181 64.2796651,374.070501 64.597,373.8495 C64.9143349,373.628499 65.073,373.314002 65.073,372.906 C65.073,372.667999 65.0305004,372.452668 64.9455,372.26 C64.8604996,372.067332 64.7103344,371.905834 64.495,371.7755 C64.2796656,371.645166 63.9850019,371.543167 63.611,371.4695 C63.2369981,371.395833 62.7553363,371.359 62.166,371.359 L62.166,369.591 C62.6533358,369.591 63.0584984,369.557 63.3815,369.489 C63.7045016,369.421 63.9651657,369.321834 64.1635,369.1915 C64.3618343,369.061166 64.5034996,368.908168 64.5885,368.7325 C64.6735004,368.556832 64.716,368.361334 64.716,368.146 C64.716,367.771998 64.6026678,367.480168 64.376,367.2705 C64.1493322,367.060832 63.8206688,366.956 63.39,366.956 C63.0046647,366.956 62.6561682,367.040999 62.3445,367.211 C62.0328318,367.381001 61.7070017,367.613332 61.367,367.908 L60.109,366.378 C60.6076692,365.947331 61.1318306,365.610168 61.6815,365.3665 C62.2311694,365.122832 62.84033,365.001 63.509,365.001 C64.0643361,365.001 64.5714977,365.066166 65.0305,365.1965 C65.4895023,365.326834 65.8804984,365.519499 66.2035,365.7745 C66.5265016,366.029501 66.7786658,366.338332 66.96,366.701 C67.1413342,367.063668 67.232,367.482998 67.232,367.959 C67.232,368.525669 67.0761682,369.004498 66.7645,369.3955 C66.4528318,369.786502 66.0080029,370.106665 65.43,370.356 L65.43,370.424 C66.0533364,370.605334 66.5661647,370.914164 66.9685,371.3505 C67.3708353,371.786836 67.572,372.35633 67.572,373.059 C67.572,373.557669 67.4643344,374.002498 67.249,374.3935 C67.0336656,374.784502 66.7446685,375.113165 66.382,375.3795 C66.0193315,375.645835 65.5943358,375.849833 65.107,375.9915 C64.6196642,376.133167 64.1040027,376.204 63.56,376.204 Z M69.034,376 L69.034,374.572 L69.8350407,373.817199 C70.2212799,373.45 70.5860983,373.098102 70.9295,372.7615 C71.5018362,372.200497 71.9948313,371.673502 72.4085,371.1805 C72.8221687,370.687498 73.1451655,370.228502 73.3775,369.8035 C73.6098345,369.378498 73.726,368.973335 73.726,368.588 C73.726,368.055331 73.5900014,367.650168 73.318,367.3725 C73.0459986,367.094832 72.6720024,366.956 72.196,366.956 C71.7993313,366.956 71.4480015,367.066499 71.142,367.2875 C70.8359985,367.508501 70.5470014,367.766332 70.275,368.061 L68.915,366.718 C69.4476693,366.15133 69.9916639,365.723501 70.547,365.4345 C71.1023361,365.145499 71.7653295,365.001 72.536,365.001 C73.0686693,365.001 73.5531645,365.083166 73.9895,365.2475 C74.4258355,365.411834 74.8026651,365.644165 75.12,365.9445 C75.4373349,366.244835 75.6809991,366.604665 75.851,367.024 C76.0210008,367.443335 76.106,367.913664 76.106,368.435 C76.106,368.888336 76.0096676,369.350164 75.817,369.8205 C75.6243324,370.290836 75.3665016,370.761164 75.0435,371.2315 C74.7204984,371.701836 74.3521687,372.172164 73.9385,372.6425 C73.5248313,373.112836 73.0970022,373.574664 72.655,374.028 L73.0863749,373.979125 C73.2379578,373.963542 73.3973325,373.948667 73.5645,373.9345 C73.898835,373.906167 74.196332,373.892 74.457,373.892 L76.633,373.892 L76.633,376 L69.034,376 Z M80.084,376 C80.1293336,375.104662 80.2114994,374.28017 80.3305,373.5265 C80.4495006,372.77283 80.6194989,372.05317 80.8405,371.3675 C81.0615011,370.68183 81.3448316,370.010337 81.6905,369.353 C82.0361684,368.695663 82.4639974,368.01567 82.974,367.313 L78.129,367.313 L78.129,365.205 L85.643,365.205 L85.643,366.735 C85.0196635,367.494337 84.5181686,368.205497 84.1385,368.8685 C83.7588314,369.531503 83.4641677,370.217163 83.2545,370.9255 C83.0448323,371.633837 82.8946671,372.393163 82.804,373.2035 C82.7133329,374.013837 82.6453336,374.945995 82.6,376 L80.084,376 Z M88.907,376.204 C88.4763312,376.204 88.1165014,376.053835 87.8275,375.7535 C87.5384986,375.453165 87.394,375.082002 87.394,374.64 C87.394,374.186664 87.5384986,373.809835 87.8275,373.5095 C88.1165014,373.209165 88.4763312,373.059 88.907,373.059 C89.3376688,373.059 89.6974986,373.209165 89.9865,373.5095 C90.2755014,373.809835 90.42,374.186664 90.42,374.64 C90.42,375.082002 90.2755014,375.453165 89.9865,375.7535 C89.6974986,376.053835 89.3376688,376.204 88.907,376.204 Z M95.656,376.204 C94.7719956,376.204 94.0240031,376.059501 93.412,375.7705 C92.7999969,375.481499 92.2786688,375.121669 91.848,374.691 L92.97,373.11 C93.2986683,373.404668 93.6528314,373.656832 94.0325,373.8665 C94.4121686,374.076168 94.834331,374.181 95.299,374.181 C95.8543361,374.181 96.2963317,374.039335 96.625,373.756 C96.9536683,373.472665 97.118,373.053336 97.118,372.498 C97.118,371.953997 96.9621682,371.540335 96.6505,371.257 C96.3388318,370.973665 95.9280026,370.832 95.418,370.832 C95.2593325,370.832 95.1176673,370.8405 94.993,370.8575 C94.8683327,370.8745 94.7465006,370.905666 94.6275,370.951 C94.5084994,370.996334 94.383834,371.053 94.2535,371.121 C94.123166,371.189 93.9786675,371.273999 93.82,371.376 L92.698,370.662 L93.004,365.205 L99.124,365.205 L99.124,367.313 L95.163,367.313 L94.976,369.336 C95.180001,369.245333 95.3754991,369.180167 95.5625,369.1405 C95.7495009,369.100833 95.9563322,369.081 96.183,369.081 C96.647669,369.081 97.0868313,369.148999 97.5005,369.285 C97.9141687,369.421001 98.2796651,369.624999 98.597,369.897 C98.9143349,370.169001 99.1636658,370.514665 99.345,370.934 C99.5263342,371.353335 99.617,371.851997 99.617,372.43 C99.617,373.03067 99.5093344,373.563331 99.294,374.028 C99.0786656,374.492669 98.7896685,374.886498 98.427,375.2095 C98.0643315,375.532502 97.6421691,375.778999 97.1605,375.949 C96.6788309,376.119001 96.1773359,376.204 95.656,376.204 Z M101.538,376 L101.538,367.568 L103.578,367.568 L103.748,368.656 L103.816,368.656 C104.167335,368.304665 104.541331,368.001501 104.938,367.7465 C105.334669,367.491499 105.810664,367.364 106.366,367.364 C106.96667,367.364 107.451165,367.485832 107.8195,367.7295 C108.187835,367.973168 108.479666,368.321664 108.695,368.775 C109.069002,368.389665 109.462831,368.058168 109.8765,367.7805 C110.290169,367.502832 110.780331,367.364 111.347,367.364 C112.253671,367.364 112.919498,367.667164 113.3445,368.2735 C113.769502,368.879836 113.982,369.709995 113.982,370.764 L113.982,376 L111.483,376 L111.483,371.087 C111.483,370.474997 111.400834,370.055668 111.2365,369.829 C111.072166,369.602332 110.808668,369.489 110.446,369.489 C110.026665,369.489 109.545003,369.760997 109.001,370.305 L109.001,376 L106.502,376 L106.502,371.087 C106.502,370.474997 106.419834,370.055668 106.2555,369.829 C106.091166,369.602332 105.827668,369.489 105.465,369.489 C105.034331,369.489 104.558336,369.760997 104.037,370.305 L104.037,376 L101.538,376 Z M116.107,376 L116.107,367.568 L118.147,367.568 L118.317,368.656 L118.385,368.656 C118.736335,368.304665 119.110331,368.001501 119.507,367.7465 C119.903669,367.491499 120.379664,367.364 120.935,367.364 C121.53567,367.364 122.020165,367.485832 122.3885,367.7295 C122.756835,367.973168 123.048666,368.321664 123.264,368.775 C123.638002,368.389665 124.031831,368.058168 124.4455,367.7805 C124.859169,367.502832 125.349331,367.364 125.916,367.364 C126.822671,367.364 127.488498,367.667164 127.9135,368.2735 C128.338502,368.879836 128.551,369.709995 128.551,370.764 L128.551,376 L126.052,376 L126.052,371.087 C126.052,370.474997 125.969834,370.055668 125.8055,369.829 C125.641166,369.602332 125.377668,369.489 125.015,369.489 C124.595665,369.489 124.114003,369.760997 123.57,370.305 L123.57,376 L121.071,376 L121.071,371.087 C121.071,370.474997 120.988834,370.055668 120.8245,369.829 C120.660166,369.602332 120.396668,369.489 120.034,369.489 C119.603331,369.489 119.127336,369.760997 118.606,370.305 L118.606,376 L116.107,376 Z" id="327.5mm" fill="#093169" fill-rule="nonzero" transform="translate(94.177000, 370.602500) rotate(-360.000000) translate(-94.177000, -370.602500) "></path>
            <polyline id="Rectangle-Copy-3" stroke="#CBD8F2" transform="translate(95.500000, 336.500000) rotate(-540.000000) translate(-95.500000, -336.500000) " points="51.1483333 344 51 329 140 329 140 344"></polyline>
        </g>
        <g id="Group-3" transform="translate(287.000000, 112.000000)">
            <polygon id="Stroke-1" stroke="#CBD8F2" fill="#FFFFFF" points="205.5 160 205.5 72 163.805108 72 163.805108 118.25641 71.5 118.25641 71.5 160"></polygon>
            <g id="Group" transform="translate(72.000000, 175.000000)">
                <path d="M36.56,47.204 C35.6759956,47.204 34.9280031,47.0651681 34.316,46.7875 C33.7039969,46.5098319 33.1996686,46.138669 32.803,45.674 L33.959,44.093 C34.2876683,44.4103349 34.647498,44.670999 35.0385,44.875 C35.429502,45.079001 35.857331,45.181 36.322,45.181 C36.8546693,45.181 37.2796651,45.0705011 37.597,44.8495 C37.9143349,44.6284989 38.073,44.314002 38.073,43.906 C38.073,43.6679988 38.0305004,43.4526676 37.9455,43.26 C37.8604996,43.0673324 37.7103344,42.905834 37.495,42.7755 C37.2796656,42.645166 36.9850019,42.543167 36.611,42.4695 C36.2369981,42.395833 35.7553363,42.359 35.166,42.359 L35.166,40.591 C35.6533358,40.591 36.0584984,40.5570003 36.3815,40.489 C36.7045016,40.4209997 36.9651657,40.321834 37.1635,40.1915 C37.3618343,40.061166 37.5034996,39.9081675 37.5885,39.7325 C37.6735004,39.5568325 37.716,39.3613344 37.716,39.146 C37.716,38.7719981 37.6026678,38.4801677 37.376,38.2705 C37.1493322,38.0608323 36.8206688,37.956 36.39,37.956 C36.0046647,37.956 35.6561682,38.0409991 35.3445,38.211 C35.0328318,38.3810008 34.7070017,38.6133319 34.367,38.908 L33.109,37.378 C33.6076692,36.9473312 34.1318306,36.6101679 34.6815,36.3665 C35.2311694,36.1228321 35.84033,36.001 36.509,36.001 C37.0643361,36.001 37.5714977,36.066166 38.0305,36.1965 C38.4895023,36.326834 38.8804984,36.5194987 39.2035,36.7745 C39.5265016,37.0295013 39.7786658,37.3383315 39.96,37.701 C40.1413342,38.0636685 40.232,38.4829976 40.232,38.959 C40.232,39.5256695 40.0761682,40.004498 39.7645,40.3955 C39.4528318,40.786502 39.0080029,41.1066654 38.43,41.356 L38.43,41.424 C39.0533364,41.6053342 39.5661647,41.9141645 39.9685,42.3505 C40.3708353,42.7868355 40.572,43.3563298 40.572,44.059 C40.572,44.5576692 40.4643344,45.002498 40.249,45.3935 C40.0336656,45.784502 39.7446685,46.1131653 39.382,46.3795 C39.0193315,46.6458347 38.5943358,46.8498326 38.107,46.9915 C37.6196642,47.1331674 37.1040027,47.204 36.56,47.204 Z M42.034,47 L42.034,45.572 L42.8350407,44.8171994 C43.2212799,44.4500002 43.5860983,44.0981017 43.9295,43.7615 C44.5018362,43.2004972 44.9948313,42.6735025 45.4085,42.1805 C45.8221687,41.6874975 46.1451655,41.2285021 46.3775,40.8035 C46.6098345,40.3784979 46.726,39.9733353 46.726,39.588 C46.726,39.0553307 46.5900014,38.6501681 46.318,38.3725 C46.0459986,38.0948319 45.6720024,37.956 45.196,37.956 C44.7993313,37.956 44.4480015,38.0664989 44.142,38.2875 C43.8359985,38.5085011 43.5470014,38.7663319 43.275,39.061 L41.915,37.718 C42.4476693,37.1513305 42.9916639,36.7235014 43.547,36.4345 C44.1023361,36.1454986 44.7653295,36.001 45.536,36.001 C46.0686693,36.001 46.5531645,36.0831658 46.9895,36.2475 C47.4258355,36.4118342 47.8026651,36.6441652 48.12,36.9445 C48.4373349,37.2448348 48.6809991,37.6046646 48.851,38.024 C49.0210008,38.4433354 49.106,38.9136641 49.106,39.435 C49.106,39.8883356 49.0096676,40.3501643 48.817,40.8205 C48.6243324,41.2908357 48.3665016,41.7611643 48.0435,42.2315 C47.7204984,42.7018357 47.3521687,43.1721643 46.9385,43.6425 C46.5248313,44.1128357 46.0970022,44.5746644 45.655,45.028 L46.0863749,44.979125 C46.2379578,44.9635417 46.3973325,44.9486667 46.5645,44.9345 C46.898835,44.9061665 47.196332,44.892 47.457,44.892 L49.633,44.892 L49.633,47 L42.034,47 Z M53.084,47 C53.1293336,46.1046622 53.2114994,45.2801704 53.3305,44.5265 C53.4495006,43.7728296 53.6194989,43.0531701 53.8405,42.3675 C54.0615011,41.6818299 54.3448316,41.0103366 54.6905,40.353 C55.0361684,39.6956634 55.4639974,39.0156702 55.974,38.313 L51.129,38.313 L51.129,36.205 L58.643,36.205 L58.643,37.735 C58.0196635,38.4943371 57.5181686,39.2054967 57.1385,39.8685 C56.7588314,40.5315033 56.4641677,41.2171631 56.2545,41.9255 C56.0448323,42.6338369 55.8946671,43.3931626 55.804,44.2035 C55.7133329,45.0138374 55.6453336,45.9459947 55.6,47 L53.084,47 Z M61.907,47.204 C61.4763312,47.204 61.1165014,47.0538348 60.8275,46.7535 C60.5384986,46.4531652 60.394,46.0820022 60.394,45.64 C60.394,45.1866644 60.5384986,44.8098348 60.8275,44.5095 C61.1165014,44.2091652 61.4763312,44.059 61.907,44.059 C62.3376688,44.059 62.6974986,44.2091652 62.9865,44.5095 C63.2755014,44.8098348 63.42,45.1866644 63.42,45.64 C63.42,46.0820022 63.2755014,46.4531652 62.9865,46.7535 C62.6974986,47.0538348 62.3376688,47.204 61.907,47.204 Z M68.656,47.204 C67.7719956,47.204 67.0240031,47.0595014 66.412,46.7705 C65.7999969,46.4814986 65.2786688,46.1216688 64.848,45.691 L65.97,44.11 C66.2986683,44.4046681 66.6528314,44.6568323 67.0325,44.8665 C67.4121686,45.0761677 67.834331,45.181 68.299,45.181 C68.8543361,45.181 69.2963317,45.0393348 69.625,44.756 C69.9536683,44.4726652 70.118,44.0533361 70.118,43.498 C70.118,42.9539973 69.9621682,42.5403347 69.6505,42.257 C69.3388318,41.9736652 68.9280026,41.832 68.418,41.832 C68.2593325,41.832 68.1176673,41.8404999 67.993,41.8575 C67.8683327,41.8745001 67.7465006,41.9056664 67.6275,41.951 C67.5084994,41.9963336 67.383834,42.0529997 67.2535,42.121 C67.123166,42.1890003 66.9786675,42.2739995 66.82,42.376 L65.698,41.662 L66.004,36.205 L72.124,36.205 L72.124,38.313 L68.163,38.313 L67.976,40.336 C68.180001,40.2453329 68.3754991,40.1801669 68.5625,40.1405 C68.7495009,40.1008331 68.9563322,40.081 69.183,40.081 C69.647669,40.081 70.0868313,40.1489993 70.5005,40.285 C70.9141687,40.4210007 71.2796651,40.6249986 71.597,40.897 C71.9143349,41.1690014 72.1636658,41.5146646 72.345,41.934 C72.5263342,42.3533354 72.617,42.8519971 72.617,43.43 C72.617,44.0306697 72.5093344,44.563331 72.294,45.028 C72.0786656,45.492669 71.7896685,45.8864984 71.427,46.2095 C71.0643315,46.5325016 70.6421691,46.7789992 70.1605,46.949 C69.6788309,47.1190008 69.1773359,47.204 68.656,47.204 Z M74.538,47 L74.538,38.568 L76.578,38.568 L76.748,39.656 L76.816,39.656 C77.1673351,39.3046649 77.5413314,39.0015013 77.938,38.7465 C78.3346686,38.4914987 78.8106639,38.364 79.366,38.364 C79.9666697,38.364 80.4511648,38.4858321 80.8195,38.7295 C81.1878352,38.9731679 81.4796656,39.3216644 81.695,39.775 C82.0690019,39.3896647 82.4628313,39.0581681 82.8765,38.7805 C83.2901687,38.5028319 83.7803305,38.364 84.347,38.364 C85.2536712,38.364 85.9194979,38.6671636 86.3445,39.2735 C86.7695021,39.8798364 86.982,40.7099947 86.982,41.764 L86.982,47 L84.483,47 L84.483,42.087 C84.483,41.4749969 84.4008342,41.0556678 84.2365,40.829 C84.0721658,40.6023322 83.8086685,40.489 83.446,40.489 C83.0266646,40.489 82.5450027,40.7609973 82.001,41.305 L82.001,47 L79.502,47 L79.502,42.087 C79.502,41.4749969 79.4198342,41.0556678 79.2555,40.829 C79.0911658,40.6023322 78.8276685,40.489 78.465,40.489 C78.0343312,40.489 77.5583359,40.7609973 77.037,41.305 L77.037,47 L74.538,47 Z M89.107,47 L89.107,38.568 L91.147,38.568 L91.317,39.656 L91.385,39.656 C91.7363351,39.3046649 92.1103314,39.0015013 92.507,38.7465 C92.9036687,38.4914987 93.3796639,38.364 93.935,38.364 C94.5356697,38.364 95.0201648,38.4858321 95.3885,38.7295 C95.7568352,38.9731679 96.0486656,39.3216644 96.264,39.775 C96.6380019,39.3896647 97.0318313,39.0581681 97.4455,38.7805 C97.8591687,38.5028319 98.3493305,38.364 98.916,38.364 C99.8226712,38.364 100.488498,38.6671636 100.9135,39.2735 C101.338502,39.8798364 101.551,40.7099947 101.551,41.764 L101.551,47 L99.052,47 L99.052,42.087 C99.052,41.4749969 98.9698342,41.0556678 98.8055,40.829 C98.6411658,40.6023322 98.3776685,40.489 98.015,40.489 C97.5956646,40.489 97.1140027,40.7609973 96.57,41.305 L96.57,47 L94.071,47 L94.071,42.087 C94.071,41.4749969 93.9888342,41.0556678 93.8245,40.829 C93.6601658,40.6023322 93.3966685,40.489 93.034,40.489 C92.6033312,40.489 92.1273359,40.7609973 91.606,41.305 L91.606,47 L89.107,47 Z" id="327.5mm" fill="#093169" fill-rule="nonzero" transform="translate(67.177000, 41.602500) rotate(-360.000000) translate(-67.177000, -41.602500) "></path>
                <polyline id="Rectangle-Copy-3" stroke="#CBD8F2" transform="translate(67.000000, 7.675781) rotate(-540.000000) translate(-67.000000, -7.675781) " points="0.223333333 15.3515625 0 0 134 0 134 15.3515625"></polyline>
            </g>
            <g id="Group-6" transform="translate(157.000000, 0.000000)">
                <path d="M1.657,17 L1.657,14.977 L4.003,14.977 L4.003,8.738 L1.98,8.738 L1.98,7.191 C2.56933628,7.0776661 3.06799796,6.94166746 3.476,6.783 C3.88400204,6.62433254 4.28066474,6.4316678 4.666,6.205 L6.502,6.205 L6.502,14.977 L8.525,14.977 L8.525,17 L1.657,17 Z M13.931,17.204 C13.3529971,17.204 12.8260024,17.0821679 12.35,16.8385 C11.8739976,16.5948321 11.468835,16.2350024 11.1345,15.759 C10.800165,15.2829976 10.5395009,14.6936702 10.3525,13.991 C10.1654991,13.2883298 10.072,12.4780046 10.072,11.56 C10.072,10.6419954 10.1654991,9.83733679 10.3525,9.146 C10.5395009,8.45466321 10.800165,7.87383568 11.1345,7.4035 C11.468835,6.93316431 11.8739976,6.58183449 12.35,6.3495 C12.8260024,6.1171655 13.3529971,6.001 13.931,6.001 C14.5090029,6.001 15.0359976,6.1171655 15.512,6.3495 C15.9880024,6.58183449 16.393165,6.93316431 16.7275,7.4035 C17.061835,7.87383568 17.3224991,8.45466321 17.5095,9.146 C17.6965009,9.83733679 17.79,10.6419954 17.79,11.56 C17.79,12.4780046 17.6965009,13.2883298 17.5095,13.991 C17.3224991,14.6936702 17.061835,15.2829976 16.7275,15.759 C16.393165,16.2350024 15.9880024,16.5948321 15.512,16.8385 C15.0359976,17.0821679 14.5090029,17.204 13.931,17.204 Z M13.931,15.266 C14.1463344,15.266 14.3446658,15.2121672 14.526,15.1045 C14.7073342,14.9968328 14.8659993,14.8013347 15.002,14.518 C15.1380007,14.2346652 15.242833,13.8550024 15.3165,13.379 C15.390167,12.9029976 15.427,12.2966703 15.427,11.56 C15.427,10.8233296 15.390167,10.2198357 15.3165,9.7495 C15.242833,9.27916431 15.1380007,8.91083466 15.002,8.6445 C14.8659993,8.37816533 14.7073342,8.19400051 14.526,8.092 C14.3446658,7.98999949 14.1463344,7.939 13.931,7.939 C13.726999,7.939 13.5343342,7.98999949 13.353,8.092 C13.1716658,8.19400051 13.0130007,8.37816533 12.877,8.6445 C12.7409993,8.91083466 12.6333337,9.27916431 12.554,9.7495 C12.4746663,10.2198357 12.435,10.8233296 12.435,11.56 C12.435,12.2966703 12.4746663,12.9029976 12.554,13.379 C12.6333337,13.8550024 12.7409993,14.2346652 12.877,14.518 C13.0130007,14.8013347 13.1716658,14.9968328 13.353,15.1045 C13.5343342,15.2121672 13.726999,15.266 13.931,15.266 Z M19.048,17 L19.048,15.572 L19.8490407,14.8171994 C20.2352799,14.4500002 20.6000983,14.0981017 20.9435,13.7615 C21.5158362,13.2004972 22.0088313,12.6735025 22.4225,12.1805 C22.8361687,11.6874975 23.1591655,11.2285021 23.3915,10.8035 C23.6238345,10.3784979 23.74,9.97333526 23.74,9.588 C23.74,9.05533067 23.6040014,8.65016805 23.332,8.3725 C23.0599986,8.09483194 22.6860024,7.956 22.21,7.956 C21.8133313,7.956 21.4620015,8.06649889 21.156,8.2875 C20.8499985,8.50850111 20.5610014,8.76633186 20.289,9.061 L18.929,7.718 C19.4616693,7.1513305 20.0056639,6.72350145 20.561,6.4345 C21.1163361,6.14549855 21.7793295,6.001 22.55,6.001 C23.0826693,6.001 23.5671645,6.08316584 24.0035,6.2475 C24.4398355,6.41183416 24.8166651,6.64416517 25.134,6.9445 C25.4513349,7.24483483 25.6949992,7.60466457 25.865,8.024 C26.0350009,8.44333543 26.12,8.91366406 26.12,9.435 C26.12,9.8883356 26.0236676,10.3501643 25.831,10.8205 C25.6383324,11.2908357 25.3805016,11.7611643 25.0575,12.2315 C24.7344984,12.7018357 24.3661687,13.1721643 23.9525,13.6425 C23.5388313,14.1128357 23.1110022,14.5746644 22.669,15.028 L23.1003749,14.979125 C23.2519578,14.9635417 23.4113325,14.9486667 23.5785,14.9345 C23.912835,14.9061665 24.210332,14.892 24.471,14.892 L26.647,14.892 L26.647,17 L19.048,17 Z M28.5,17 L28.5,8.568 L30.54,8.568 L30.71,9.656 L30.778,9.656 C31.1293351,9.30466491 31.5033314,9.00150127 31.9,8.7465 C32.2966687,8.49149872 32.7726639,8.364 33.328,8.364 C33.9286697,8.364 34.4131648,8.48583211 34.7815,8.7295 C35.1498352,8.97316788 35.4416656,9.3216644 35.657,9.775 C36.0310019,9.38966474 36.4248313,9.05816805 36.8385,8.7805 C37.2521687,8.50283194 37.7423305,8.364 38.309,8.364 C39.2156712,8.364 39.8814979,8.66716363 40.3065,9.2735 C40.7315021,9.87983636 40.944,10.7099947 40.944,11.764 L40.944,17 L38.445,17 L38.445,12.087 C38.445,11.4749969 38.3628342,11.0556678 38.1985,10.829 C38.0341658,10.6023322 37.7706685,10.489 37.408,10.489 C36.9886646,10.489 36.5070027,10.7609973 35.963,11.305 L35.963,17 L33.464,17 L33.464,12.087 C33.464,11.4749969 33.3818342,11.0556678 33.2175,10.829 C33.0531658,10.6023322 32.7896685,10.489 32.427,10.489 C31.9963312,10.489 31.5203359,10.7609973 30.999,11.305 L30.999,17 L28.5,17 Z M43.069,17 L43.069,8.568 L45.109,8.568 L45.279,9.656 L45.347,9.656 C45.6983351,9.30466491 46.0723314,9.00150127 46.469,8.7465 C46.8656687,8.49149872 47.3416639,8.364 47.897,8.364 C48.4976697,8.364 48.9821648,8.48583211 49.3505,8.7295 C49.7188352,8.97316788 50.0106656,9.3216644 50.226,9.775 C50.6000019,9.38966474 50.9938313,9.05816805 51.4075,8.7805 C51.8211687,8.50283194 52.3113305,8.364 52.878,8.364 C53.7846712,8.364 54.4504979,8.66716363 54.8755,9.2735 C55.3005021,9.87983636 55.513,10.7099947 55.513,11.764 L55.513,17 L53.014,17 L53.014,12.087 C53.014,11.4749969 52.9318342,11.0556678 52.7675,10.829 C52.6031658,10.6023322 52.3396685,10.489 51.977,10.489 C51.5576646,10.489 51.0760027,10.7609973 50.532,11.305 L50.532,17 L48.033,17 L48.033,12.087 C48.033,11.4749969 47.9508342,11.0556678 47.7865,10.829 C47.6221658,10.6023322 47.3586685,10.489 46.996,10.489 C46.5653312,10.489 46.0893359,10.7609973 45.568,11.305 L45.568,17 L43.069,17 Z" id="102mm" fill="#093169" fill-rule="nonzero" transform="translate(28.585000, 11.602500) rotate(-360.000000) translate(-28.585000, -11.602500) "></path>
                <polyline id="Rectangle-Copy-3" stroke="#CBD8F2" transform="translate(28.017544, 47.067308) rotate(-360.000000) translate(-28.017544, -47.067308) " points="7.08754386 56.7307692 7.01754386 37.4038462 49.0175439 37.4038462 49.0175439 56.7307692"></polyline>
            </g>
            <g id="Group-6-Copy" transform="translate(28.500000, 138.500000) rotate(-90.000000) translate(-28.500000, -138.500000) translate(0.000000, 110.000000)">
                <path d="M1.657,17 L1.657,14.977 L4.003,14.977 L4.003,8.738 L1.98,8.738 L1.98,7.191 C2.56933628,7.0776661 3.06799796,6.94166746 3.476,6.783 C3.88400204,6.62433254 4.28066474,6.4316678 4.666,6.205 L6.502,6.205 L6.502,14.977 L8.525,14.977 L8.525,17 L1.657,17 Z M13.931,17.204 C13.3529971,17.204 12.8260024,17.0821679 12.35,16.8385 C11.8739976,16.5948321 11.468835,16.2350024 11.1345,15.759 C10.800165,15.2829976 10.5395009,14.6936702 10.3525,13.991 C10.1654991,13.2883298 10.072,12.4780046 10.072,11.56 C10.072,10.6419954 10.1654991,9.83733679 10.3525,9.146 C10.5395009,8.45466321 10.800165,7.87383568 11.1345,7.4035 C11.468835,6.93316431 11.8739976,6.58183449 12.35,6.3495 C12.8260024,6.1171655 13.3529971,6.001 13.931,6.001 C14.5090029,6.001 15.0359976,6.1171655 15.512,6.3495 C15.9880024,6.58183449 16.393165,6.93316431 16.7275,7.4035 C17.061835,7.87383568 17.3224991,8.45466321 17.5095,9.146 C17.6965009,9.83733679 17.79,10.6419954 17.79,11.56 C17.79,12.4780046 17.6965009,13.2883298 17.5095,13.991 C17.3224991,14.6936702 17.061835,15.2829976 16.7275,15.759 C16.393165,16.2350024 15.9880024,16.5948321 15.512,16.8385 C15.0359976,17.0821679 14.5090029,17.204 13.931,17.204 Z M13.931,15.266 C14.1463344,15.266 14.3446658,15.2121672 14.526,15.1045 C14.7073342,14.9968328 14.8659993,14.8013347 15.002,14.518 C15.1380007,14.2346652 15.242833,13.8550024 15.3165,13.379 C15.390167,12.9029976 15.427,12.2966703 15.427,11.56 C15.427,10.8233296 15.390167,10.2198357 15.3165,9.7495 C15.242833,9.27916431 15.1380007,8.91083466 15.002,8.6445 C14.8659993,8.37816533 14.7073342,8.19400051 14.526,8.092 C14.3446658,7.98999949 14.1463344,7.939 13.931,7.939 C13.726999,7.939 13.5343342,7.98999949 13.353,8.092 C13.1716658,8.19400051 13.0130007,8.37816533 12.877,8.6445 C12.7409993,8.91083466 12.6333337,9.27916431 12.554,9.7495 C12.4746663,10.2198357 12.435,10.8233296 12.435,11.56 C12.435,12.2966703 12.4746663,12.9029976 12.554,13.379 C12.6333337,13.8550024 12.7409993,14.2346652 12.877,14.518 C13.0130007,14.8013347 13.1716658,14.9968328 13.353,15.1045 C13.5343342,15.2121672 13.726999,15.266 13.931,15.266 Z M19.048,17 L19.048,15.572 L19.8490407,14.8171994 C20.2352799,14.4500002 20.6000983,14.0981017 20.9435,13.7615 C21.5158362,13.2004972 22.0088313,12.6735025 22.4225,12.1805 C22.8361687,11.6874975 23.1591655,11.2285021 23.3915,10.8035 C23.6238345,10.3784979 23.74,9.97333526 23.74,9.588 C23.74,9.05533067 23.6040014,8.65016805 23.332,8.3725 C23.0599986,8.09483194 22.6860024,7.956 22.21,7.956 C21.8133313,7.956 21.4620015,8.06649889 21.156,8.2875 C20.8499985,8.50850111 20.5610014,8.76633186 20.289,9.061 L18.929,7.718 C19.4616693,7.1513305 20.0056639,6.72350145 20.561,6.4345 C21.1163361,6.14549855 21.7793295,6.001 22.55,6.001 C23.0826693,6.001 23.5671645,6.08316584 24.0035,6.2475 C24.4398355,6.41183416 24.8166651,6.64416517 25.134,6.9445 C25.4513349,7.24483483 25.6949992,7.60466457 25.865,8.024 C26.0350009,8.44333543 26.12,8.91366406 26.12,9.435 C26.12,9.8883356 26.0236676,10.3501643 25.831,10.8205 C25.6383324,11.2908357 25.3805016,11.7611643 25.0575,12.2315 C24.7344984,12.7018357 24.3661687,13.1721643 23.9525,13.6425 C23.5388313,14.1128357 23.1110022,14.5746644 22.669,15.028 L23.1003749,14.979125 C23.2519578,14.9635417 23.4113325,14.9486667 23.5785,14.9345 C23.912835,14.9061665 24.210332,14.892 24.471,14.892 L26.647,14.892 L26.647,17 L19.048,17 Z M28.5,17 L28.5,8.568 L30.54,8.568 L30.71,9.656 L30.778,9.656 C31.1293351,9.30466491 31.5033314,9.00150127 31.9,8.7465 C32.2966687,8.49149872 32.7726639,8.364 33.328,8.364 C33.9286697,8.364 34.4131648,8.48583211 34.7815,8.7295 C35.1498352,8.97316788 35.4416656,9.3216644 35.657,9.775 C36.0310019,9.38966474 36.4248313,9.05816805 36.8385,8.7805 C37.2521687,8.50283194 37.7423305,8.364 38.309,8.364 C39.2156712,8.364 39.8814979,8.66716363 40.3065,9.2735 C40.7315021,9.87983636 40.944,10.7099947 40.944,11.764 L40.944,17 L38.445,17 L38.445,12.087 C38.445,11.4749969 38.3628342,11.0556678 38.1985,10.829 C38.0341658,10.6023322 37.7706685,10.489 37.408,10.489 C36.9886646,10.489 36.5070027,10.7609973 35.963,11.305 L35.963,17 L33.464,17 L33.464,12.087 C33.464,11.4749969 33.3818342,11.0556678 33.2175,10.829 C33.0531658,10.6023322 32.7896685,10.489 32.427,10.489 C31.9963312,10.489 31.5203359,10.7609973 30.999,11.305 L30.999,17 L28.5,17 Z M43.069,17 L43.069,8.568 L45.109,8.568 L45.279,9.656 L45.347,9.656 C45.6983351,9.30466491 46.0723314,9.00150127 46.469,8.7465 C46.8656687,8.49149872 47.3416639,8.364 47.897,8.364 C48.4976697,8.364 48.9821648,8.48583211 49.3505,8.7295 C49.7188352,8.97316788 50.0106656,9.3216644 50.226,9.775 C50.6000019,9.38966474 50.9938313,9.05816805 51.4075,8.7805 C51.8211687,8.50283194 52.3113305,8.364 52.878,8.364 C53.7846712,8.364 54.4504979,8.66716363 54.8755,9.2735 C55.3005021,9.87983636 55.513,10.7099947 55.513,11.764 L55.513,17 L53.014,17 L53.014,12.087 C53.014,11.4749969 52.9318342,11.0556678 52.7675,10.829 C52.6031658,10.6023322 52.3396685,10.489 51.977,10.489 C51.5576646,10.489 51.0760027,10.7609973 50.532,11.305 L50.532,17 L48.033,17 L48.033,12.087 C48.033,11.4749969 47.9508342,11.0556678 47.7865,10.829 C47.6221658,10.6023322 47.3586685,10.489 46.996,10.489 C46.5653312,10.489 46.0893359,10.7609973 45.568,11.305 L45.568,17 L43.069,17 Z" id="102mm" fill="#093169" fill-rule="nonzero" transform="translate(28.585000, 11.602500) rotate(-360.000000) translate(-28.585000, -11.602500) "></path>
                <polyline id="Rectangle-Copy-3" stroke="#CBD8F2" transform="translate(28.017544, 47.067308) rotate(-360.000000) translate(-28.017544, -47.067308) " points="7.08754386 56.7307692 7.01754386 37.4038462 49.0175439 37.4038462 49.0175439 56.7307692"></polyline>
            </g>
            <g id="Group-2" transform="translate(220.000000, 72.000000)">
                <path d="M14.096,50 L14.096,48.572 L14.8970407,47.8171994 C15.2832799,47.4500002 15.6480983,47.0981017 15.9915,46.7615 C16.5638362,46.2004972 17.0568313,45.6735025 17.4705,45.1805 C17.8841687,44.6874975 18.2071655,44.2285021 18.4395,43.8035 C18.6718345,43.3784979 18.788,42.9733353 18.788,42.588 C18.788,42.0553307 18.6520014,41.6501681 18.38,41.3725 C18.1079986,41.0948319 17.7340024,40.956 17.258,40.956 C16.8613314,40.956 16.5100015,41.0664989 16.204,41.2875 C15.8979985,41.5085011 15.6090014,41.7663319 15.337,42.061 L13.977,40.718 C14.5096693,40.1513305 15.0536639,39.7235014 15.609,39.4345 C16.1643361,39.1454986 16.8273295,39.001 17.598,39.001 C18.1306693,39.001 18.6151645,39.0831658 19.0515,39.2475 C19.4878355,39.4118342 19.8646651,39.6441652 20.182,39.9445 C20.4993349,40.2448348 20.7429991,40.6046646 20.913,41.024 C21.0830008,41.4433354 21.168,41.9136641 21.168,42.435 C21.168,42.8883356 21.0716676,43.3501643 20.879,43.8205 C20.6863324,44.2908357 20.4285016,44.7611643 20.1055,45.2315 C19.7824984,45.7018357 19.4141687,46.1721643 19.0005,46.6425 C18.5868313,47.1128357 18.1590022,47.5746644 17.717,48.028 L18.1483749,47.979125 C18.2999578,47.9635417 18.4593325,47.9486667 18.6265,47.9345 C18.960835,47.9061665 19.258332,47.892 19.519,47.892 L21.695,47.892 L21.695,50 L14.096,50 Z M23.633,50 L23.633,47.977 L25.979,47.977 L25.979,41.738 L23.956,41.738 L23.956,40.191 C24.5453363,40.0776661 25.043998,39.9416675 25.452,39.783 C25.860002,39.6243325 26.2566647,39.4316678 26.642,39.205 L28.478,39.205 L28.478,47.977 L30.501,47.977 L30.501,50 L23.633,50 Z M35.618,50.204 C34.7339956,50.204 33.9860031,50.0595014 33.374,49.7705 C32.7619969,49.4814986 32.2406688,49.1216688 31.81,48.691 L32.932,47.11 C33.2606683,47.4046681 33.6148314,47.6568323 33.9945,47.8665 C34.3741686,48.0761677 34.796331,48.181 35.261,48.181 C35.8163361,48.181 36.2583317,48.0393348 36.587,47.756 C36.9156683,47.4726652 37.08,47.0533361 37.08,46.498 C37.08,45.9539973 36.9241682,45.5403347 36.6125,45.257 C36.3008318,44.9736652 35.8900025,44.832 35.38,44.832 C35.2213325,44.832 35.0796673,44.8404999 34.955,44.8575 C34.8303327,44.8745001 34.7085006,44.9056664 34.5895,44.951 C34.4704994,44.9963336 34.345834,45.0529997 34.2155,45.121 C34.085166,45.1890003 33.9406675,45.2739995 33.782,45.376 L32.66,44.662 L32.966,39.205 L39.086,39.205 L39.086,41.313 L35.125,41.313 L34.938,43.336 C35.142001,43.2453329 35.3374991,43.1801669 35.5245,43.1405 C35.7115009,43.1008331 35.9183322,43.081 36.145,43.081 C36.609669,43.081 37.0488313,43.1489993 37.4625,43.285 C37.8761687,43.4210007 38.2416651,43.6249986 38.559,43.897 C38.8763349,44.1690014 39.1256658,44.5146646 39.307,44.934 C39.4883342,45.3533354 39.579,45.8519971 39.579,46.43 C39.579,47.0306697 39.4713344,47.563331 39.256,48.028 C39.0406656,48.492669 38.7516685,48.8864984 38.389,49.2095 C38.0263315,49.5325016 37.6041691,49.7789992 37.1225,49.949 C36.6408309,50.1190008 36.1393359,50.204 35.618,50.204 Z M41.5,50 L41.5,41.568 L43.54,41.568 L43.71,42.656 L43.778,42.656 C44.1293351,42.3046649 44.5033314,42.0015013 44.9,41.7465 C45.2966687,41.4914987 45.7726639,41.364 46.328,41.364 C46.9286697,41.364 47.4131648,41.4858321 47.7815,41.7295 C48.1498352,41.9731679 48.4416656,42.3216644 48.657,42.775 C49.0310019,42.3896647 49.4248313,42.0581681 49.8385,41.7805 C50.2521687,41.5028319 50.7423305,41.364 51.309,41.364 C52.2156712,41.364 52.8814979,41.6671636 53.3065,42.2735 C53.7315021,42.8798364 53.944,43.7099947 53.944,44.764 L53.944,50 L51.445,50 L51.445,45.087 C51.445,44.4749969 51.3628342,44.0556678 51.1985,43.829 C51.0341658,43.6023322 50.7706685,43.489 50.408,43.489 C49.9886646,43.489 49.5070027,43.7609973 48.963,44.305 L48.963,50 L46.464,50 L46.464,45.087 C46.464,44.4749969 46.3818342,44.0556678 46.2175,43.829 C46.0531658,43.6023322 45.7896685,43.489 45.427,43.489 C44.9963312,43.489 44.5203359,43.7609973 43.999,44.305 L43.999,50 L41.5,50 Z M56.069,50 L56.069,41.568 L58.109,41.568 L58.279,42.656 L58.347,42.656 C58.6983351,42.3046649 59.0723314,42.0015013 59.469,41.7465 C59.8656687,41.4914987 60.3416639,41.364 60.897,41.364 C61.4976697,41.364 61.9821648,41.4858321 62.3505,41.7295 C62.7188352,41.9731679 63.0106656,42.3216644 63.226,42.775 C63.6000019,42.3896647 63.9938313,42.0581681 64.4075,41.7805 C64.8211687,41.5028319 65.3113305,41.364 65.878,41.364 C66.7846712,41.364 67.4504979,41.6671636 67.8755,42.2735 C68.3005021,42.8798364 68.513,43.7099947 68.513,44.764 L68.513,50 L66.014,50 L66.014,45.087 C66.014,44.4749969 65.9318342,44.0556678 65.7675,43.829 C65.6031658,43.6023322 65.3396685,43.489 64.977,43.489 C64.5576646,43.489 64.0760027,43.7609973 63.532,44.305 L63.532,50 L61.033,50 L61.033,45.087 C61.033,44.4749969 60.9508342,44.0556678 60.7865,43.829 C60.6221658,43.6023322 60.3586685,43.489 59.996,43.489 C59.5653312,43.489 59.0893359,43.7609973 58.568,44.305 L58.568,50 L56.069,50 Z" id="215mm" fill="#093169" fill-rule="nonzero" transform="translate(41.245000, 44.602500) rotate(-630.000000) translate(-41.245000, -44.602500) "></path>
                <polyline id="Rectangle-Copy-3" stroke="#CBD8F2" transform="translate(8.000000, 44.500000) rotate(-630.000000) translate(-8.000000, -44.500000) " points="-35.8533333 52 -36 37 52 37 52 52"></polyline>
            </g>
        </g>
    </g>
</svg>