<?xml version="1.0" encoding="UTF-8"?>
<svg width="600px" height="451px" viewBox="0 0 600 451" version="1.1" xmlns="http://www.w3.org/2000/svg" xmlns:xlink="http://www.w3.org/1999/xlink">
    <!-- Generator: Sketch 58 (84663) - https://sketch.com -->
    <title>quions/Q200</title>
    <desc>Created with Sketch.</desc>
    <g id="quions/Q200" stroke="none" stroke-width="1" fill="none" fill-rule="evenodd">
        <rect fill="#F5F9FF" x="0" y="0" width="600" height="451"></rect>
        <g id="Group" transform="translate(60.000000, 35.000000)">
            <rect id="Rectangle" stroke="#CBD8F2" fill="#FFFFFF" x="78" y="65" width="62" height="60"></rect>
            <g id="Group-Copy" transform="translate(0.000000, 191.000000)" fill="#FFFFFF" stroke="#FF5959" stroke-opacity="0.6">
                <rect id="Rectangle" x="51" y="0" width="24" height="18"></rect>
                <rect id="Rectangle-Copy-5" x="51" y="42" width="24" height="18"></rect>
                <rect id="Rectangle-Copy-6" x="27" y="21" width="48" height="18"></rect>
                <rect id="Rectangle-Copy-9" x="0" y="21" width="24" height="18"></rect>
                <rect id="Rectangle-Copy-7" x="0" y="0" width="48" height="18"></rect>
                <rect id="Rectangle-Copy-8" x="0" y="42" width="48" height="18"></rect>
            </g>
            <g id="Group-Copy-3" transform="translate(0.000000, 65.000000)" fill="#FFFFFF" stroke="#FF5959" stroke-opacity="0.6">
                <rect id="Rectangle" x="51" y="0" width="24" height="18"></rect>
                <rect id="Rectangle-Copy-5" x="51" y="42" width="24" height="18"></rect>
                <rect id="Rectangle-Copy-6" x="27" y="21" width="48" height="18"></rect>
                <rect id="Rectangle-Copy-9" x="0" y="21" width="24" height="18"></rect>
                <rect id="Rectangle-Copy-7" x="0" y="0" width="48" height="18"></rect>
                <rect id="Rectangle-Copy-8" x="0" y="42" width="48" height="18"></rect>
            </g>
            <rect id="Rectangle" stroke-opacity="0.6" stroke="#FF5959" fill="#FFFFFF" x="0" y="254" width="24" height="18"></rect>
            <rect id="Rectangle-Copy-5" stroke-opacity="0.6" stroke="#FF5959" fill="#FFFFFF" x="0" y="296" width="24" height="18"></rect>
            <rect id="Rectangle-Copy-6" stroke-opacity="0.6" stroke="#FF5959" fill="#FFFFFF" x="0" y="275" width="24" height="18"></rect>
            <rect id="Rectangle" stroke-opacity="0.6" stroke="#FF5959" fill="#FFFFFF" x="0" y="128" width="24" height="18"></rect>
            <rect id="Rectangle-Copy-5" stroke-opacity="0.6" stroke="#FF5959" fill="#FFFFFF" x="0" y="170" width="24" height="18"></rect>
            <rect id="Rectangle-Copy-6" stroke-opacity="0.6" stroke="#FF5959" fill="#FFFFFF" x="0" y="149" width="24" height="18"></rect>
            <rect id="Rectangle-Copy-2" stroke="#CBD8F2" fill="#FFFFFF" x="78" y="191" width="62" height="60"></rect>
            <rect id="Rectangle-Copy" stroke="#CBD8F2" fill="#FFFFFF" x="27" y="128" width="113" height="60"></rect>
            <rect id="Rectangle-Copy-4" stroke="#CBD8F2" fill="#FFFFFF" x="27" y="254" width="113" height="60"></rect>
            <g id="Group-5" transform="translate(156.000000, 65.000000)">
                <path d="M11.596,37 L11.596,35.572 L12.3970407,34.8171994 C12.7832799,34.4500002 13.1480983,34.0981017 13.4915,33.7615 C14.0638362,33.2004972 14.5568313,32.6735025 14.9705,32.1805 C15.3841687,31.6874975 15.7071655,31.2285021 15.9395,30.8035 C16.1718345,30.3784979 16.288,29.9733353 16.288,29.588 C16.288,29.0553307 16.1520014,28.6501681 15.88,28.3725 C15.6079986,28.0948319 15.2340024,27.956 14.758,27.956 C14.3613313,27.956 14.0100015,28.0664989 13.704,28.2875 C13.3979985,28.5085011 13.1090014,28.7663319 12.837,29.061 L11.477,27.718 C12.0096693,27.1513305 12.5536639,26.7235014 13.109,26.4345 C13.6643361,26.1454986 14.3273295,26.001 15.098,26.001 C15.6306693,26.001 16.1151645,26.0831658 16.5515,26.2475 C16.9878355,26.4118342 17.3646651,26.6441652 17.682,26.9445 C17.9993349,27.2448348 18.2429991,27.6046646 18.413,28.024 C18.5830008,28.4433354 18.668,28.9136641 18.668,29.435 C18.668,29.8883356 18.5716676,30.3501643 18.379,30.8205 C18.1863324,31.2908357 17.9285016,31.7611643 17.6055,32.2315 C17.2824984,32.7018357 16.9141687,33.1721643 16.5005,33.6425 C16.0868313,34.1128357 15.6590022,34.5746644 15.217,35.028 L15.6483749,34.979125 C15.7999578,34.9635417 15.9593325,34.9486667 16.1265,34.9345 C16.460835,34.9061665 16.758332,34.892 17.019,34.892 L19.195,34.892 L19.195,37 L11.596,37 Z M21.133,37 L21.133,34.977 L23.479,34.977 L23.479,28.738 L21.456,28.738 L21.456,27.191 C22.0453363,27.0776661 22.543998,26.9416675 22.952,26.783 C23.360002,26.6243325 23.7566647,26.4316678 24.142,26.205 L25.978,26.205 L25.978,34.977 L28.001,34.977 L28.001,37 L21.133,37 Z M33.118,37.204 C32.2339956,37.204 31.4860031,37.0595014 30.874,36.7705 C30.2619969,36.4814986 29.7406688,36.1216688 29.31,35.691 L30.432,34.11 C30.7606683,34.4046681 31.1148314,34.6568323 31.4945,34.8665 C31.8741686,35.0761677 32.296331,35.181 32.761,35.181 C33.3163361,35.181 33.7583317,35.0393348 34.087,34.756 C34.4156683,34.4726652 34.58,34.0533361 34.58,33.498 C34.58,32.9539973 34.4241682,32.5403347 34.1125,32.257 C33.8008318,31.9736652 33.3900025,31.832 32.88,31.832 C32.7213325,31.832 32.5796673,31.8404999 32.455,31.8575 C32.3303327,31.8745001 32.2085006,31.9056664 32.0895,31.951 C31.9704994,31.9963336 31.845834,32.0529997 31.7155,32.121 C31.585166,32.1890003 31.4406675,32.2739995 31.282,32.376 L30.16,31.662 L30.466,26.205 L36.586,26.205 L36.586,28.313 L32.625,28.313 L32.438,30.336 C32.642001,30.2453329 32.8374991,30.1801669 33.0245,30.1405 C33.2115009,30.1008331 33.4183322,30.081 33.645,30.081 C34.109669,30.081 34.5488313,30.1489993 34.9625,30.285 C35.3761687,30.4210007 35.7416651,30.6249986 36.059,30.897 C36.3763349,31.1690014 36.6256658,31.5146646 36.807,31.934 C36.9883342,32.3533354 37.079,32.8519971 37.079,33.43 C37.079,34.0306697 36.9713344,34.563331 36.756,35.028 C36.5406656,35.492669 36.2516685,35.8864984 35.889,36.2095 C35.5263315,36.5325016 35.1041691,36.7789992 34.6225,36.949 C34.1408309,37.1190008 33.6393359,37.204 33.118,37.204 Z M39,37 L39,28.568 L41.04,28.568 L41.21,29.656 L41.278,29.656 C41.6293351,29.3046649 42.0033314,29.0015013 42.4,28.7465 C42.7966687,28.4914987 43.2726639,28.364 43.828,28.364 C44.4286697,28.364 44.9131648,28.4858321 45.2815,28.7295 C45.6498352,28.9731679 45.9416656,29.3216644 46.157,29.775 C46.5310019,29.3896647 46.9248313,29.0581681 47.3385,28.7805 C47.7521687,28.5028319 48.2423305,28.364 48.809,28.364 C49.7156712,28.364 50.3814979,28.6671636 50.8065,29.2735 C51.2315021,29.8798364 51.444,30.7099947 51.444,31.764 L51.444,37 L48.945,37 L48.945,32.087 C48.945,31.4749969 48.8628342,31.0556678 48.6985,30.829 C48.5341658,30.6023322 48.2706685,30.489 47.908,30.489 C47.4886646,30.489 47.0070027,30.7609973 46.463,31.305 L46.463,37 L43.964,37 L43.964,32.087 C43.964,31.4749969 43.8818342,31.0556678 43.7175,30.829 C43.5531658,30.6023322 43.2896685,30.489 42.927,30.489 C42.4963312,30.489 42.0203359,30.7609973 41.499,31.305 L41.499,37 L39,37 Z M53.569,37 L53.569,28.568 L55.609,28.568 L55.779,29.656 L55.847,29.656 C56.1983351,29.3046649 56.5723314,29.0015013 56.969,28.7465 C57.3656687,28.4914987 57.8416639,28.364 58.397,28.364 C58.9976697,28.364 59.4821648,28.4858321 59.8505,28.7295 C60.2188352,28.9731679 60.5106656,29.3216644 60.726,29.775 C61.1000019,29.3896647 61.4938313,29.0581681 61.9075,28.7805 C62.3211687,28.5028319 62.8113305,28.364 63.378,28.364 C64.2846712,28.364 64.9504979,28.6671636 65.3755,29.2735 C65.8005021,29.8798364 66.013,30.7099947 66.013,31.764 L66.013,37 L63.514,37 L63.514,32.087 C63.514,31.4749969 63.4318342,31.0556678 63.2675,30.829 C63.1031658,30.6023322 62.8396685,30.489 62.477,30.489 C62.0576646,30.489 61.5760027,30.7609973 61.032,31.305 L61.032,37 L58.533,37 L58.533,32.087 C58.533,31.4749969 58.4508342,31.0556678 58.2865,30.829 C58.1221658,30.6023322 57.8586685,30.489 57.496,30.489 C57.0653312,30.489 56.5893359,30.7609973 56.068,31.305 L56.068,37 L53.569,37 Z" id="215mm" fill="#093169" fill-rule="nonzero" transform="translate(38.745000, 31.602500) rotate(-270.000000) translate(-38.745000, -31.602500) "></path>
                <polyline id="Rectangle-Copy-3" stroke="#CBD8F2" transform="translate(8.000000, 30.500000) rotate(-270.000000) translate(-8.000000, -30.500000) " points="-21.9 38 -22 23 38 23 38 38"></polyline>
            </g>
            <g id="Group-5-Copy" transform="translate(110.000000, 25.500000) rotate(-90.000000) translate(-110.000000, -25.500000) translate(85.000000, -5.000000)">
                <path d="M11.596,37 L11.596,35.572 L12.3970407,34.8171994 C12.7832799,34.4500002 13.1480983,34.0981017 13.4915,33.7615 C14.0638362,33.2004972 14.5568313,32.6735025 14.9705,32.1805 C15.3841687,31.6874975 15.7071655,31.2285021 15.9395,30.8035 C16.1718345,30.3784979 16.288,29.9733353 16.288,29.588 C16.288,29.0553307 16.1520014,28.6501681 15.88,28.3725 C15.6079986,28.0948319 15.2340024,27.956 14.758,27.956 C14.3613313,27.956 14.0100015,28.0664989 13.704,28.2875 C13.3979985,28.5085011 13.1090014,28.7663319 12.837,29.061 L11.477,27.718 C12.0096693,27.1513305 12.5536639,26.7235014 13.109,26.4345 C13.6643361,26.1454986 14.3273295,26.001 15.098,26.001 C15.6306693,26.001 16.1151645,26.0831658 16.5515,26.2475 C16.9878355,26.4118342 17.3646651,26.6441652 17.682,26.9445 C17.9993349,27.2448348 18.2429991,27.6046646 18.413,28.024 C18.5830008,28.4433354 18.668,28.9136641 18.668,29.435 C18.668,29.8883356 18.5716676,30.3501643 18.379,30.8205 C18.1863324,31.2908357 17.9285016,31.7611643 17.6055,32.2315 C17.2824984,32.7018357 16.9141687,33.1721643 16.5005,33.6425 C16.0868313,34.1128357 15.6590022,34.5746644 15.217,35.028 L15.6483749,34.979125 C15.7999578,34.9635417 15.9593325,34.9486667 16.1265,34.9345 C16.460835,34.9061665 16.758332,34.892 17.019,34.892 L19.195,34.892 L19.195,37 L11.596,37 Z M21.133,37 L21.133,34.977 L23.479,34.977 L23.479,28.738 L21.456,28.738 L21.456,27.191 C22.0453363,27.0776661 22.543998,26.9416675 22.952,26.783 C23.360002,26.6243325 23.7566647,26.4316678 24.142,26.205 L25.978,26.205 L25.978,34.977 L28.001,34.977 L28.001,37 L21.133,37 Z M33.118,37.204 C32.2339956,37.204 31.4860031,37.0595014 30.874,36.7705 C30.2619969,36.4814986 29.7406688,36.1216688 29.31,35.691 L30.432,34.11 C30.7606683,34.4046681 31.1148314,34.6568323 31.4945,34.8665 C31.8741686,35.0761677 32.296331,35.181 32.761,35.181 C33.3163361,35.181 33.7583317,35.0393348 34.087,34.756 C34.4156683,34.4726652 34.58,34.0533361 34.58,33.498 C34.58,32.9539973 34.4241682,32.5403347 34.1125,32.257 C33.8008318,31.9736652 33.3900025,31.832 32.88,31.832 C32.7213325,31.832 32.5796673,31.8404999 32.455,31.8575 C32.3303327,31.8745001 32.2085006,31.9056664 32.0895,31.951 C31.9704994,31.9963336 31.845834,32.0529997 31.7155,32.121 C31.585166,32.1890003 31.4406675,32.2739995 31.282,32.376 L30.16,31.662 L30.466,26.205 L36.586,26.205 L36.586,28.313 L32.625,28.313 L32.438,30.336 C32.642001,30.2453329 32.8374991,30.1801669 33.0245,30.1405 C33.2115009,30.1008331 33.4183322,30.081 33.645,30.081 C34.109669,30.081 34.5488313,30.1489993 34.9625,30.285 C35.3761687,30.4210007 35.7416651,30.6249986 36.059,30.897 C36.3763349,31.1690014 36.6256658,31.5146646 36.807,31.934 C36.9883342,32.3533354 37.079,32.8519971 37.079,33.43 C37.079,34.0306697 36.9713344,34.563331 36.756,35.028 C36.5406656,35.492669 36.2516685,35.8864984 35.889,36.2095 C35.5263315,36.5325016 35.1041691,36.7789992 34.6225,36.949 C34.1408309,37.1190008 33.6393359,37.204 33.118,37.204 Z M39,37 L39,28.568 L41.04,28.568 L41.21,29.656 L41.278,29.656 C41.6293351,29.3046649 42.0033314,29.0015013 42.4,28.7465 C42.7966687,28.4914987 43.2726639,28.364 43.828,28.364 C44.4286697,28.364 44.9131648,28.4858321 45.2815,28.7295 C45.6498352,28.9731679 45.9416656,29.3216644 46.157,29.775 C46.5310019,29.3896647 46.9248313,29.0581681 47.3385,28.7805 C47.7521687,28.5028319 48.2423305,28.364 48.809,28.364 C49.7156712,28.364 50.3814979,28.6671636 50.8065,29.2735 C51.2315021,29.8798364 51.444,30.7099947 51.444,31.764 L51.444,37 L48.945,37 L48.945,32.087 C48.945,31.4749969 48.8628342,31.0556678 48.6985,30.829 C48.5341658,30.6023322 48.2706685,30.489 47.908,30.489 C47.4886646,30.489 47.0070027,30.7609973 46.463,31.305 L46.463,37 L43.964,37 L43.964,32.087 C43.964,31.4749969 43.8818342,31.0556678 43.7175,30.829 C43.5531658,30.6023322 43.2896685,30.489 42.927,30.489 C42.4963312,30.489 42.0203359,30.7609973 41.499,31.305 L41.499,37 L39,37 Z M53.569,37 L53.569,28.568 L55.609,28.568 L55.779,29.656 L55.847,29.656 C56.1983351,29.3046649 56.5723314,29.0015013 56.969,28.7465 C57.3656687,28.4914987 57.8416639,28.364 58.397,28.364 C58.9976697,28.364 59.4821648,28.4858321 59.8505,28.7295 C60.2188352,28.9731679 60.5106656,29.3216644 60.726,29.775 C61.1000019,29.3896647 61.4938313,29.0581681 61.9075,28.7805 C62.3211687,28.5028319 62.8113305,28.364 63.378,28.364 C64.2846712,28.364 64.9504979,28.6671636 65.3755,29.2735 C65.8005021,29.8798364 66.013,30.7099947 66.013,31.764 L66.013,37 L63.514,37 L63.514,32.087 C63.514,31.4749969 63.4318342,31.0556678 63.2675,30.829 C63.1031658,30.6023322 62.8396685,30.489 62.477,30.489 C62.0576646,30.489 61.5760027,30.7609973 61.032,31.305 L61.032,37 L58.533,37 L58.533,32.087 C58.533,31.4749969 58.4508342,31.0556678 58.2865,30.829 C58.1221658,30.6023322 57.8586685,30.489 57.496,30.489 C57.0653312,30.489 56.5893359,30.7609973 56.068,31.305 L56.068,37 L53.569,37 Z" id="215mm" fill="#093169" fill-rule="nonzero" transform="translate(38.745000, 31.602500) rotate(-270.000000) translate(-38.745000, -31.602500) "></path>
                <polyline id="Rectangle-Copy-3" stroke="#CBD8F2" transform="translate(8.000000, 30.500000) rotate(-270.000000) translate(-8.000000, -30.500000) " points="-21.9 38 -22 23 38 23 38 38"></polyline>
            </g>
            <path d="M60.465,376 L60.465,373.416 L55.79,373.416 L55.79,371.699 L59.734,365.205 L62.794,365.205 L62.794,371.512 L64.035,371.512 L64.035,373.416 L62.794,373.416 L62.794,376 L60.465,376 Z M58.187,371.512 L60.465,371.512 L60.465,369.761 L60.47044,369.31356 C60.4740666,369.1558 60.4795066,368.989427 60.48676,368.814441 L60.5398,367.78356 C60.5488666,367.62852 60.5579333,367.483001 60.567,367.347 L60.499,367.347 C60.3629993,367.641668 60.2213341,367.941998 60.074,368.248 C59.9266659,368.554002 59.7736675,368.859998 59.615,369.166 L58.187,371.512 Z M69.441,376 L69.441,373.416 L64.766,373.416 L64.766,371.699 L68.71,365.205 L71.77,365.205 L71.77,371.512 L73.011,371.512 L73.011,373.416 L71.77,373.416 L71.77,376 L69.441,376 Z M67.163,371.512 L69.441,371.512 L69.441,369.761 C69.441,369.479932 69.4482533,369.164414 69.46276,368.814441 L69.5158,367.78356 C69.5248666,367.62852 69.5339333,367.483001 69.543,367.347 L69.475,367.347 L69.05,368.248 L69.05,368.248 C68.9026659,368.554002 68.7496675,368.859998 68.591,369.166 L67.163,371.512 Z M77.907,376.204 C77.3289971,376.204 76.8020024,376.082168 76.326,375.8385 C75.8499976,375.594832 75.444835,375.235002 75.1105,374.759 C74.776165,374.282998 74.5155009,373.69367 74.3285,372.991 C74.1414991,372.28833 74.048,371.478005 74.048,370.56 C74.048,369.641995 74.1414991,368.837337 74.3285,368.146 C74.5155009,367.454663 74.776165,366.873836 75.1105,366.4035 C75.444835,365.933164 75.8499976,365.581834 76.326,365.3495 C76.8020024,365.117166 77.3289971,365.001 77.907,365.001 C78.4850029,365.001 79.0119976,365.117166 79.488,365.3495 C79.9640024,365.581834 80.369165,365.933164 80.7035,366.4035 C81.037835,366.873836 81.2984991,367.454663 81.4855,368.146 C81.6725009,368.837337 81.766,369.641995 81.766,370.56 C81.766,371.478005 81.6725009,372.28833 81.4855,372.991 C81.2984991,373.69367 81.037835,374.282998 80.7035,374.759 C80.369165,375.235002 79.9640024,375.594832 79.488,375.8385 C79.0119976,376.082168 78.4850029,376.204 77.907,376.204 Z M77.907,374.266 C78.1223344,374.266 78.3206658,374.212167 78.502,374.1045 C78.6833342,373.996833 78.8419993,373.801335 78.978,373.518 C79.1140007,373.234665 79.218833,372.855002 79.2925,372.379 C79.366167,371.902998 79.403,371.29667 79.403,370.56 C79.403,369.82333 79.366167,369.219836 79.2925,368.7495 C79.218833,368.279164 79.1140007,367.910835 78.978,367.6445 C78.8419993,367.378165 78.6833342,367.194001 78.502,367.092 C78.3206658,366.989999 78.1223344,366.939 77.907,366.939 C77.702999,366.939 77.5103342,366.989999 77.329,367.092 C77.1476658,367.194001 76.9890007,367.378165 76.853,367.6445 C76.7169993,367.910835 76.6093337,368.279164 76.53,368.7495 C76.4506663,369.219836 76.411,369.82333 76.411,370.56 C76.411,371.29667 76.4506663,371.902998 76.53,372.379 C76.6093337,372.855002 76.7169993,373.234665 76.853,373.518 C76.9890007,373.801335 77.1476658,373.996833 77.329,374.1045 C77.5103342,374.212167 77.702999,374.266 77.907,374.266 Z M83.5,376 L83.5,367.568 L85.54,367.568 L85.71,368.656 L85.778,368.656 C86.1293351,368.304665 86.5033313,368.001501 86.9,367.7465 C87.2966687,367.491499 87.7726639,367.364 88.328,367.364 C88.9286697,367.364 89.4131648,367.485832 89.7815,367.7295 C90.1498352,367.973168 90.4416656,368.321664 90.657,368.775 C91.0310019,368.389665 91.4248313,368.058168 91.8385,367.7805 C92.2521687,367.502832 92.7423305,367.364 93.309,367.364 C94.2156712,367.364 94.8814979,367.667164 95.3065,368.2735 C95.7315021,368.879836 95.944,369.709995 95.944,370.764 L95.944,376 L93.445,376 L93.445,371.087 C93.445,370.474997 93.3628342,370.055668 93.1985,369.829 C93.0341658,369.602332 92.7706685,369.489 92.408,369.489 C91.9886646,369.489 91.5070027,369.760997 90.963,370.305 L90.963,376 L88.464,376 L88.464,371.087 C88.464,370.474997 88.3818342,370.055668 88.2175,369.829 C88.0531658,369.602332 87.7896685,369.489 87.427,369.489 C86.9963312,369.489 86.5203359,369.760997 85.999,370.305 L85.999,376 L83.5,376 Z M98.069,376 L98.069,367.568 L100.109,367.568 L100.279,368.656 L100.347,368.656 C100.698335,368.304665 101.072331,368.001501 101.469,367.7465 C101.865669,367.491499 102.341664,367.364 102.897,367.364 C103.49767,367.364 103.982165,367.485832 104.3505,367.7295 C104.718835,367.973168 105.010666,368.321664 105.226,368.775 C105.600002,368.389665 105.993831,368.058168 106.4075,367.7805 C106.821169,367.502832 107.311331,367.364 107.878,367.364 C108.784671,367.364 109.450498,367.667164 109.8755,368.2735 C110.300502,368.879836 110.513,369.709995 110.513,370.764 L110.513,376 L108.014,376 L108.014,371.087 C108.014,370.474997 107.931834,370.055668 107.7675,369.829 C107.603166,369.602332 107.339668,369.489 106.977,369.489 C106.557665,369.489 106.076003,369.760997 105.532,370.305 L105.532,376 L103.033,376 L103.033,371.087 C103.033,370.474997 102.950834,370.055668 102.7865,369.829 C102.622166,369.602332 102.358668,369.489 101.996,369.489 C101.565331,369.489 101.089336,369.760997 100.568,370.305 L100.568,376 L98.069,376 Z" id="440mm" fill="#093169" fill-rule="nonzero" transform="translate(83.151500, 370.602500) rotate(-360.000000) translate(-83.151500, -370.602500) "></path>
            <polyline id="Rectangle-Copy-3" stroke="#CBD8F2" transform="translate(83.500000, 336.500000) rotate(-540.000000) translate(-83.500000, -336.500000) " points="27.1883333 344 27 329 140 329 140 344"></polyline>
        </g>
        <polygon id="Stroke-1" stroke="#CBD8F2" fill="#FFFFFF" points="314.5 271.795 494.14 271.795 494.14 184 452.515 184 452.515 230.125 314.5 230.125"></polygon>
        <path d="M381.465,334 L381.465,331.416 L376.79,331.416 L376.79,329.699 L380.734,323.205 L383.794,323.205 L383.794,329.512 L385.035,329.512 L385.035,331.416 L383.794,331.416 L383.794,334 L381.465,334 Z M379.187,329.512 L381.465,329.512 L381.465,327.761 C381.465,327.479932 381.472253,327.164414 381.48676,326.814441 L381.5398,325.78356 C381.548867,325.62852 381.557933,325.483001 381.567,325.347 L381.499,325.347 L381.074,326.248 L381.074,326.248 C380.926666,326.554002 380.773667,326.859998 380.615,327.166 L379.187,329.512 Z M390.441,334 L390.441,331.416 L385.766,331.416 L385.766,329.699 L389.71,323.205 L392.77,323.205 L392.77,329.512 L394.011,329.512 L394.011,331.416 L392.77,331.416 L392.77,334 L390.441,334 Z M388.163,329.512 L390.441,329.512 L390.441,327.761 C390.441,327.479932 390.448253,327.164414 390.46276,326.814441 L390.5158,325.78356 C390.524867,325.62852 390.533933,325.483001 390.543,325.347 L390.475,325.347 L390.05,326.248 L390.05,326.248 C389.902666,326.554002 389.749667,326.859998 389.591,327.166 L388.163,329.512 Z M398.907,334.204 C398.328997,334.204 397.802002,334.082168 397.326,333.8385 C396.849998,333.594832 396.444835,333.235002 396.1105,332.759 C395.776165,332.282998 395.515501,331.69367 395.3285,330.991 C395.141499,330.28833 395.048,329.478005 395.048,328.56 C395.048,327.641995 395.141499,326.837337 395.3285,326.146 C395.515501,325.454663 395.776165,324.873836 396.1105,324.4035 C396.444835,323.933164 396.849998,323.581834 397.326,323.3495 C397.802002,323.117166 398.328997,323.001 398.907,323.001 C399.485003,323.001 400.011998,323.117166 400.488,323.3495 C400.964002,323.581834 401.369165,323.933164 401.7035,324.4035 C402.037835,324.873836 402.298499,325.454663 402.4855,326.146 C402.672501,326.837337 402.766,327.641995 402.766,328.56 C402.766,329.478005 402.672501,330.28833 402.4855,330.991 C402.298499,331.69367 402.037835,332.282998 401.7035,332.759 C401.369165,333.235002 400.964002,333.594832 400.488,333.8385 C400.011998,334.082168 399.485003,334.204 398.907,334.204 Z M398.907,332.266 C399.122334,332.266 399.320666,332.212167 399.502,332.1045 C399.683334,331.996833 399.841999,331.801335 399.978,331.518 C400.114001,331.234665 400.218833,330.855002 400.2925,330.379 C400.366167,329.902998 400.403,329.29667 400.403,328.56 C400.403,327.82333 400.366167,327.219836 400.2925,326.7495 C400.218833,326.279164 400.114001,325.910835 399.978,325.6445 C399.841999,325.378165 399.683334,325.194001 399.502,325.092 C399.320666,324.989999 399.122334,324.939 398.907,324.939 C398.702999,324.939 398.510334,324.989999 398.329,325.092 C398.147666,325.194001 397.989001,325.378165 397.853,325.6445 C397.716999,325.910835 397.609334,326.279164 397.53,326.7495 C397.450666,327.219836 397.411,327.82333 397.411,328.56 C397.411,329.29667 397.450666,329.902998 397.53,330.379 C397.609334,330.855002 397.716999,331.234665 397.853,331.518 C397.989001,331.801335 398.147666,331.996833 398.329,332.1045 C398.510334,332.212167 398.702999,332.266 398.907,332.266 Z M404.5,334 L404.5,325.568 L406.54,325.568 L406.71,326.656 L406.778,326.656 C407.129335,326.304665 407.503331,326.001501 407.9,325.7465 C408.296669,325.491499 408.772664,325.364 409.328,325.364 C409.92867,325.364 410.413165,325.485832 410.7815,325.7295 C411.149835,325.973168 411.441666,326.321664 411.657,326.775 C412.031002,326.389665 412.424831,326.058168 412.8385,325.7805 C413.252169,325.502832 413.74233,325.364 414.309,325.364 C415.215671,325.364 415.881498,325.667164 416.3065,326.2735 C416.731502,326.879836 416.944,327.709995 416.944,328.764 L416.944,334 L414.445,334 L414.445,329.087 C414.445,328.474997 414.362834,328.055668 414.1985,327.829 C414.034166,327.602332 413.770668,327.489 413.408,327.489 C412.988665,327.489 412.507003,327.760997 411.963,328.305 L411.963,334 L409.464,334 L409.464,329.087 C409.464,328.474997 409.381834,328.055668 409.2175,327.829 C409.053166,327.602332 408.789668,327.489 408.427,327.489 C407.996331,327.489 407.520336,327.760997 406.999,328.305 L406.999,334 L404.5,334 Z M419.069,334 L419.069,325.568 L421.109,325.568 L421.279,326.656 L421.347,326.656 C421.698335,326.304665 422.072331,326.001501 422.469,325.7465 C422.865669,325.491499 423.341664,325.364 423.897,325.364 C424.49767,325.364 424.982165,325.485832 425.3505,325.7295 C425.718835,325.973168 426.010666,326.321664 426.226,326.775 C426.600002,326.389665 426.993831,326.058168 427.4075,325.7805 C427.821169,325.502832 428.31133,325.364 428.878,325.364 C429.784671,325.364 430.450498,325.667164 430.8755,326.2735 C431.300502,326.879836 431.513,327.709995 431.513,328.764 L431.513,334 L429.014,334 L429.014,329.087 C429.014,328.474997 428.931834,328.055668 428.7675,327.829 C428.603166,327.602332 428.339668,327.489 427.977,327.489 C427.557665,327.489 427.076003,327.760997 426.532,328.305 L426.532,334 L424.033,334 L424.033,329.087 C424.033,328.474997 423.950834,328.055668 423.7865,327.829 C423.622166,327.602332 423.358668,327.489 422.996,327.489 C422.565331,327.489 422.089336,327.760997 421.568,328.305 L421.568,334 L419.069,334 Z" id="440mm" fill="#093169" fill-rule="nonzero" transform="translate(404.151500, 328.602500) rotate(-360.000000) translate(-404.151500, -328.602500) "></path>
        <polyline id="Rectangle-Copy-3" stroke="#CBD8F2" transform="translate(404.000000, 294.500000) rotate(-540.000000) translate(-404.000000, -294.500000) " points="314.3 302 314 287 494 287 494 302"></polyline>
        <g id="Group-2" transform="translate(508.500000, 184.000000)">
            <path d="M14.096,50 L14.096,48.572 L14.8970407,47.8171994 C15.2832799,47.4500002 15.6480983,47.0981017 15.9915,46.7615 C16.5638362,46.2004972 17.0568313,45.6735025 17.4705,45.1805 C17.8841687,44.6874975 18.2071655,44.2285021 18.4395,43.8035 C18.6718345,43.3784979 18.788,42.9733353 18.788,42.588 C18.788,42.0553307 18.6520014,41.6501681 18.38,41.3725 C18.1079986,41.0948319 17.7340024,40.956 17.258,40.956 C16.8613314,40.956 16.5100015,41.0664989 16.204,41.2875 C15.8979985,41.5085011 15.6090014,41.7663319 15.337,42.061 L13.977,40.718 C14.5096693,40.1513305 15.0536639,39.7235014 15.609,39.4345 C16.1643361,39.1454986 16.8273295,39.001 17.598,39.001 C18.1306693,39.001 18.6151645,39.0831658 19.0515,39.2475 C19.4878355,39.4118342 19.8646651,39.6441652 20.182,39.9445 C20.4993349,40.2448348 20.7429991,40.6046646 20.913,41.024 C21.0830008,41.4433354 21.168,41.9136641 21.168,42.435 C21.168,42.8883356 21.0716676,43.3501643 20.879,43.8205 C20.6863324,44.2908357 20.4285016,44.7611643 20.1055,45.2315 C19.7824984,45.7018357 19.4141687,46.1721643 19.0005,46.6425 C18.5868313,47.1128357 18.1590022,47.5746644 17.717,48.028 L18.1483749,47.979125 C18.2999578,47.9635417 18.4593325,47.9486667 18.6265,47.9345 C18.960835,47.9061665 19.258332,47.892 19.519,47.892 L21.695,47.892 L21.695,50 L14.096,50 Z M23.633,50 L23.633,47.977 L25.979,47.977 L25.979,41.738 L23.956,41.738 L23.956,40.191 C24.5453363,40.0776661 25.043998,39.9416675 25.452,39.783 C25.860002,39.6243325 26.2566647,39.4316678 26.642,39.205 L28.478,39.205 L28.478,47.977 L30.501,47.977 L30.501,50 L23.633,50 Z M35.618,50.204 C34.7339956,50.204 33.9860031,50.0595014 33.374,49.7705 C32.7619969,49.4814986 32.2406688,49.1216688 31.81,48.691 L32.932,47.11 C33.2606683,47.4046681 33.6148314,47.6568323 33.9945,47.8665 C34.3741686,48.0761677 34.796331,48.181 35.261,48.181 C35.8163361,48.181 36.2583317,48.0393348 36.587,47.756 C36.9156683,47.4726652 37.08,47.0533361 37.08,46.498 C37.08,45.9539973 36.9241682,45.5403347 36.6125,45.257 C36.3008318,44.9736652 35.8900025,44.832 35.38,44.832 C35.2213325,44.832 35.0796673,44.8404999 34.955,44.8575 C34.8303327,44.8745001 34.7085006,44.9056664 34.5895,44.951 C34.4704994,44.9963336 34.345834,45.0529997 34.2155,45.121 C34.085166,45.1890003 33.9406675,45.2739995 33.782,45.376 L32.66,44.662 L32.966,39.205 L39.086,39.205 L39.086,41.313 L35.125,41.313 L34.938,43.336 C35.142001,43.2453329 35.3374991,43.1801669 35.5245,43.1405 C35.7115009,43.1008331 35.9183322,43.081 36.145,43.081 C36.609669,43.081 37.0488313,43.1489993 37.4625,43.285 C37.8761687,43.4210007 38.2416651,43.6249986 38.559,43.897 C38.8763349,44.1690014 39.1256658,44.5146646 39.307,44.934 C39.4883342,45.3533354 39.579,45.8519971 39.579,46.43 C39.579,47.0306697 39.4713344,47.563331 39.256,48.028 C39.0406656,48.492669 38.7516685,48.8864984 38.389,49.2095 C38.0263315,49.5325016 37.6041691,49.7789992 37.1225,49.949 C36.6408309,50.1190008 36.1393359,50.204 35.618,50.204 Z M41.5,50 L41.5,41.568 L43.54,41.568 L43.71,42.656 L43.778,42.656 C44.1293351,42.3046649 44.5033314,42.0015013 44.9,41.7465 C45.2966687,41.4914987 45.7726639,41.364 46.328,41.364 C46.9286697,41.364 47.4131648,41.4858321 47.7815,41.7295 C48.1498352,41.9731679 48.4416656,42.3216644 48.657,42.775 C49.0310019,42.3896647 49.4248313,42.0581681 49.8385,41.7805 C50.2521687,41.5028319 50.7423305,41.364 51.309,41.364 C52.2156712,41.364 52.8814979,41.6671636 53.3065,42.2735 C53.7315021,42.8798364 53.944,43.7099947 53.944,44.764 L53.944,50 L51.445,50 L51.445,45.087 C51.445,44.4749969 51.3628342,44.0556678 51.1985,43.829 C51.0341658,43.6023322 50.7706685,43.489 50.408,43.489 C49.9886646,43.489 49.5070027,43.7609973 48.963,44.305 L48.963,50 L46.464,50 L46.464,45.087 C46.464,44.4749969 46.3818342,44.0556678 46.2175,43.829 C46.0531658,43.6023322 45.7896685,43.489 45.427,43.489 C44.9963312,43.489 44.5203359,43.7609973 43.999,44.305 L43.999,50 L41.5,50 Z M56.069,50 L56.069,41.568 L58.109,41.568 L58.279,42.656 L58.347,42.656 C58.6983351,42.3046649 59.0723314,42.0015013 59.469,41.7465 C59.8656687,41.4914987 60.3416639,41.364 60.897,41.364 C61.4976697,41.364 61.9821648,41.4858321 62.3505,41.7295 C62.7188352,41.9731679 63.0106656,42.3216644 63.226,42.775 C63.6000019,42.3896647 63.9938313,42.0581681 64.4075,41.7805 C64.8211687,41.5028319 65.3113305,41.364 65.878,41.364 C66.7846712,41.364 67.4504979,41.6671636 67.8755,42.2735 C68.3005021,42.8798364 68.513,43.7099947 68.513,44.764 L68.513,50 L66.014,50 L66.014,45.087 C66.014,44.4749969 65.9318342,44.0556678 65.7675,43.829 C65.6031658,43.6023322 65.3396685,43.489 64.977,43.489 C64.5576646,43.489 64.0760027,43.7609973 63.532,44.305 L63.532,50 L61.033,50 L61.033,45.087 C61.033,44.4749969 60.9508342,44.0556678 60.7865,43.829 C60.6221658,43.6023322 60.3586685,43.489 59.996,43.489 C59.5653312,43.489 59.0893359,43.7609973 58.568,44.305 L58.568,50 L56.069,50 Z" id="215mm" fill="#093169" fill-rule="nonzero" transform="translate(41.245000, 44.602500) rotate(-630.000000) translate(-41.245000, -44.602500) "></path>
            <polyline id="Rectangle-Copy-3" stroke="#CBD8F2" transform="translate(8.000000, 44.500000) rotate(-630.000000) translate(-8.000000, -44.500000) " points="-35.8533333 52 -36 37 52 37 52 52"></polyline>
        </g>
        <g id="Group-6-Copy" transform="translate(445.000000, 112.000000)">
            <path d="M1.657,17 L1.657,14.977 L4.003,14.977 L4.003,8.738 L1.98,8.738 L1.98,7.191 C2.56933628,7.0776661 3.06799796,6.94166746 3.476,6.783 C3.88400204,6.62433254 4.28066474,6.4316678 4.666,6.205 L6.502,6.205 L6.502,14.977 L8.525,14.977 L8.525,17 L1.657,17 Z M13.931,17.204 C13.3529971,17.204 12.8260024,17.0821679 12.35,16.8385 C11.8739976,16.5948321 11.468835,16.2350024 11.1345,15.759 C10.800165,15.2829976 10.5395009,14.6936702 10.3525,13.991 C10.1654991,13.2883298 10.072,12.4780046 10.072,11.56 C10.072,10.6419954 10.1654991,9.83733679 10.3525,9.146 C10.5395009,8.45466321 10.800165,7.87383568 11.1345,7.4035 C11.468835,6.93316431 11.8739976,6.58183449 12.35,6.3495 C12.8260024,6.1171655 13.3529971,6.001 13.931,6.001 C14.5090029,6.001 15.0359976,6.1171655 15.512,6.3495 C15.9880024,6.58183449 16.393165,6.93316431 16.7275,7.4035 C17.061835,7.87383568 17.3224991,8.45466321 17.5095,9.146 C17.6965009,9.83733679 17.79,10.6419954 17.79,11.56 C17.79,12.4780046 17.6965009,13.2883298 17.5095,13.991 C17.3224991,14.6936702 17.061835,15.2829976 16.7275,15.759 C16.393165,16.2350024 15.9880024,16.5948321 15.512,16.8385 C15.0359976,17.0821679 14.5090029,17.204 13.931,17.204 Z M13.931,15.266 C14.1463344,15.266 14.3446658,15.2121672 14.526,15.1045 C14.7073342,14.9968328 14.8659993,14.8013347 15.002,14.518 C15.1380007,14.2346652 15.242833,13.8550024 15.3165,13.379 C15.390167,12.9029976 15.427,12.2966703 15.427,11.56 C15.427,10.8233296 15.390167,10.2198357 15.3165,9.7495 C15.242833,9.27916431 15.1380007,8.91083466 15.002,8.6445 C14.8659993,8.37816533 14.7073342,8.19400051 14.526,8.092 C14.3446658,7.98999949 14.1463344,7.939 13.931,7.939 C13.726999,7.939 13.5343342,7.98999949 13.353,8.092 C13.1716658,8.19400051 13.0130007,8.37816533 12.877,8.6445 C12.7409993,8.91083466 12.6333337,9.27916431 12.554,9.7495 C12.4746663,10.2198357 12.435,10.8233296 12.435,11.56 C12.435,12.2966703 12.4746663,12.9029976 12.554,13.379 C12.6333337,13.8550024 12.7409993,14.2346652 12.877,14.518 C13.0130007,14.8013347 13.1716658,14.9968328 13.353,15.1045 C13.5343342,15.2121672 13.726999,15.266 13.931,15.266 Z M19.048,17 L19.048,15.572 L19.8490407,14.8171994 C20.2352799,14.4500002 20.6000983,14.0981017 20.9435,13.7615 C21.5158362,13.2004972 22.0088313,12.6735025 22.4225,12.1805 C22.8361687,11.6874975 23.1591655,11.2285021 23.3915,10.8035 C23.6238345,10.3784979 23.74,9.97333526 23.74,9.588 C23.74,9.05533067 23.6040014,8.65016805 23.332,8.3725 C23.0599986,8.09483194 22.6860024,7.956 22.21,7.956 C21.8133313,7.956 21.4620015,8.06649889 21.156,8.2875 C20.8499985,8.50850111 20.5610014,8.76633186 20.289,9.061 L18.929,7.718 C19.4616693,7.1513305 20.0056639,6.72350145 20.561,6.4345 C21.1163361,6.14549855 21.7793295,6.001 22.55,6.001 C23.0826693,6.001 23.5671645,6.08316584 24.0035,6.2475 C24.4398355,6.41183416 24.8166651,6.64416517 25.134,6.9445 C25.4513349,7.24483483 25.6949992,7.60466457 25.865,8.024 C26.0350009,8.44333543 26.12,8.91366406 26.12,9.435 C26.12,9.8883356 26.0236676,10.3501643 25.831,10.8205 C25.6383324,11.2908357 25.3805016,11.7611643 25.0575,12.2315 C24.7344984,12.7018357 24.3661687,13.1721643 23.9525,13.6425 C23.5388313,14.1128357 23.1110022,14.5746644 22.669,15.028 L23.1003749,14.979125 C23.2519578,14.9635417 23.4113325,14.9486667 23.5785,14.9345 C23.912835,14.9061665 24.210332,14.892 24.471,14.892 L26.647,14.892 L26.647,17 L19.048,17 Z M28.5,17 L28.5,8.568 L30.54,8.568 L30.71,9.656 L30.778,9.656 C31.1293351,9.30466491 31.5033314,9.00150127 31.9,8.7465 C32.2966687,8.49149872 32.7726639,8.364 33.328,8.364 C33.9286697,8.364 34.4131648,8.48583211 34.7815,8.7295 C35.1498352,8.97316788 35.4416656,9.3216644 35.657,9.775 C36.0310019,9.38966474 36.4248313,9.05816805 36.8385,8.7805 C37.2521687,8.50283194 37.7423305,8.364 38.309,8.364 C39.2156712,8.364 39.8814979,8.66716363 40.3065,9.2735 C40.7315021,9.87983636 40.944,10.7099947 40.944,11.764 L40.944,17 L38.445,17 L38.445,12.087 C38.445,11.4749969 38.3628342,11.0556678 38.1985,10.829 C38.0341658,10.6023322 37.7706685,10.489 37.408,10.489 C36.9886646,10.489 36.5070027,10.7609973 35.963,11.305 L35.963,17 L33.464,17 L33.464,12.087 C33.464,11.4749969 33.3818342,11.0556678 33.2175,10.829 C33.0531658,10.6023322 32.7896685,10.489 32.427,10.489 C31.9963312,10.489 31.5203359,10.7609973 30.999,11.305 L30.999,17 L28.5,17 Z M43.069,17 L43.069,8.568 L45.109,8.568 L45.279,9.656 L45.347,9.656 C45.6983351,9.30466491 46.0723314,9.00150127 46.469,8.7465 C46.8656687,8.49149872 47.3416639,8.364 47.897,8.364 C48.4976697,8.364 48.9821648,8.48583211 49.3505,8.7295 C49.7188352,8.97316788 50.0106656,9.3216644 50.226,9.775 C50.6000019,9.38966474 50.9938313,9.05816805 51.4075,8.7805 C51.8211687,8.50283194 52.3113305,8.364 52.878,8.364 C53.7846712,8.364 54.4504979,8.66716363 54.8755,9.2735 C55.3005021,9.87983636 55.513,10.7099947 55.513,11.764 L55.513,17 L53.014,17 L53.014,12.087 C53.014,11.4749969 52.9318342,11.0556678 52.7675,10.829 C52.6031658,10.6023322 52.3396685,10.489 51.977,10.489 C51.5576646,10.489 51.0760027,10.7609973 50.532,11.305 L50.532,17 L48.033,17 L48.033,12.087 C48.033,11.4749969 47.9508342,11.0556678 47.7865,10.829 C47.6221658,10.6023322 47.3586685,10.489 46.996,10.489 C46.5653312,10.489 46.0893359,10.7609973 45.568,11.305 L45.568,17 L43.069,17 Z" id="102mm" fill="#093169" fill-rule="nonzero" transform="translate(28.585000, 11.602500) rotate(-360.000000) translate(-28.585000, -11.602500) "></path>
            <polyline id="Rectangle-Copy-3" stroke="#CBD8F2" transform="translate(28.017544, 47.067308) rotate(-360.000000) translate(-28.017544, -47.067308) " points="7.08754386 56.7307692 7.01754386 37.4038462 49.0175439 37.4038462 49.0175439 56.7307692"></polyline>
        </g>
        <g id="Group-6-Copy-2" transform="translate(271.500000, 250.500000) rotate(-90.000000) translate(-271.500000, -250.500000) translate(243.000000, 222.000000)">
            <path d="M1.657,17 L1.657,14.977 L4.003,14.977 L4.003,8.738 L1.98,8.738 L1.98,7.191 C2.56933628,7.0776661 3.06799796,6.94166746 3.476,6.783 C3.88400204,6.62433254 4.28066474,6.4316678 4.666,6.205 L6.502,6.205 L6.502,14.977 L8.525,14.977 L8.525,17 L1.657,17 Z M13.931,17.204 C13.3529971,17.204 12.8260024,17.0821679 12.35,16.8385 C11.8739976,16.5948321 11.468835,16.2350024 11.1345,15.759 C10.800165,15.2829976 10.5395009,14.6936702 10.3525,13.991 C10.1654991,13.2883298 10.072,12.4780046 10.072,11.56 C10.072,10.6419954 10.1654991,9.83733679 10.3525,9.146 C10.5395009,8.45466321 10.800165,7.87383568 11.1345,7.4035 C11.468835,6.93316431 11.8739976,6.58183449 12.35,6.3495 C12.8260024,6.1171655 13.3529971,6.001 13.931,6.001 C14.5090029,6.001 15.0359976,6.1171655 15.512,6.3495 C15.9880024,6.58183449 16.393165,6.93316431 16.7275,7.4035 C17.061835,7.87383568 17.3224991,8.45466321 17.5095,9.146 C17.6965009,9.83733679 17.79,10.6419954 17.79,11.56 C17.79,12.4780046 17.6965009,13.2883298 17.5095,13.991 C17.3224991,14.6936702 17.061835,15.2829976 16.7275,15.759 C16.393165,16.2350024 15.9880024,16.5948321 15.512,16.8385 C15.0359976,17.0821679 14.5090029,17.204 13.931,17.204 Z M13.931,15.266 C14.1463344,15.266 14.3446658,15.2121672 14.526,15.1045 C14.7073342,14.9968328 14.8659993,14.8013347 15.002,14.518 C15.1380007,14.2346652 15.242833,13.8550024 15.3165,13.379 C15.390167,12.9029976 15.427,12.2966703 15.427,11.56 C15.427,10.8233296 15.390167,10.2198357 15.3165,9.7495 C15.242833,9.27916431 15.1380007,8.91083466 15.002,8.6445 C14.8659993,8.37816533 14.7073342,8.19400051 14.526,8.092 C14.3446658,7.98999949 14.1463344,7.939 13.931,7.939 C13.726999,7.939 13.5343342,7.98999949 13.353,8.092 C13.1716658,8.19400051 13.0130007,8.37816533 12.877,8.6445 C12.7409993,8.91083466 12.6333337,9.27916431 12.554,9.7495 C12.4746663,10.2198357 12.435,10.8233296 12.435,11.56 C12.435,12.2966703 12.4746663,12.9029976 12.554,13.379 C12.6333337,13.8550024 12.7409993,14.2346652 12.877,14.518 C13.0130007,14.8013347 13.1716658,14.9968328 13.353,15.1045 C13.5343342,15.2121672 13.726999,15.266 13.931,15.266 Z M19.048,17 L19.048,15.572 L19.8490407,14.8171994 C20.2352799,14.4500002 20.6000983,14.0981017 20.9435,13.7615 C21.5158362,13.2004972 22.0088313,12.6735025 22.4225,12.1805 C22.8361687,11.6874975 23.1591655,11.2285021 23.3915,10.8035 C23.6238345,10.3784979 23.74,9.97333526 23.74,9.588 C23.74,9.05533067 23.6040014,8.65016805 23.332,8.3725 C23.0599986,8.09483194 22.6860024,7.956 22.21,7.956 C21.8133313,7.956 21.4620015,8.06649889 21.156,8.2875 C20.8499985,8.50850111 20.5610014,8.76633186 20.289,9.061 L18.929,7.718 C19.4616693,7.1513305 20.0056639,6.72350145 20.561,6.4345 C21.1163361,6.14549855 21.7793295,6.001 22.55,6.001 C23.0826693,6.001 23.5671645,6.08316584 24.0035,6.2475 C24.4398355,6.41183416 24.8166651,6.64416517 25.134,6.9445 C25.4513349,7.24483483 25.6949992,7.60466457 25.865,8.024 C26.0350009,8.44333543 26.12,8.91366406 26.12,9.435 C26.12,9.8883356 26.0236676,10.3501643 25.831,10.8205 C25.6383324,11.2908357 25.3805016,11.7611643 25.0575,12.2315 C24.7344984,12.7018357 24.3661687,13.1721643 23.9525,13.6425 C23.5388313,14.1128357 23.1110022,14.5746644 22.669,15.028 L23.1003749,14.979125 C23.2519578,14.9635417 23.4113325,14.9486667 23.5785,14.9345 C23.912835,14.9061665 24.210332,14.892 24.471,14.892 L26.647,14.892 L26.647,17 L19.048,17 Z M28.5,17 L28.5,8.568 L30.54,8.568 L30.71,9.656 L30.778,9.656 C31.1293351,9.30466491 31.5033314,9.00150127 31.9,8.7465 C32.2966687,8.49149872 32.7726639,8.364 33.328,8.364 C33.9286697,8.364 34.4131648,8.48583211 34.7815,8.7295 C35.1498352,8.97316788 35.4416656,9.3216644 35.657,9.775 C36.0310019,9.38966474 36.4248313,9.05816805 36.8385,8.7805 C37.2521687,8.50283194 37.7423305,8.364 38.309,8.364 C39.2156712,8.364 39.8814979,8.66716363 40.3065,9.2735 C40.7315021,9.87983636 40.944,10.7099947 40.944,11.764 L40.944,17 L38.445,17 L38.445,12.087 C38.445,11.4749969 38.3628342,11.0556678 38.1985,10.829 C38.0341658,10.6023322 37.7706685,10.489 37.408,10.489 C36.9886646,10.489 36.5070027,10.7609973 35.963,11.305 L35.963,17 L33.464,17 L33.464,12.087 C33.464,11.4749969 33.3818342,11.0556678 33.2175,10.829 C33.0531658,10.6023322 32.7896685,10.489 32.427,10.489 C31.9963312,10.489 31.5203359,10.7609973 30.999,11.305 L30.999,17 L28.5,17 Z M43.069,17 L43.069,8.568 L45.109,8.568 L45.279,9.656 L45.347,9.656 C45.6983351,9.30466491 46.0723314,9.00150127 46.469,8.7465 C46.8656687,8.49149872 47.3416639,8.364 47.897,8.364 C48.4976697,8.364 48.9821648,8.48583211 49.3505,8.7295 C49.7188352,8.97316788 50.0106656,9.3216644 50.226,9.775 C50.6000019,9.38966474 50.9938313,9.05816805 51.4075,8.7805 C51.8211687,8.50283194 52.3113305,8.364 52.878,8.364 C53.7846712,8.364 54.4504979,8.66716363 54.8755,9.2735 C55.3005021,9.87983636 55.513,10.7099947 55.513,11.764 L55.513,17 L53.014,17 L53.014,12.087 C53.014,11.4749969 52.9318342,11.0556678 52.7675,10.829 C52.6031658,10.6023322 52.3396685,10.489 51.977,10.489 C51.5576646,10.489 51.0760027,10.7609973 50.532,11.305 L50.532,17 L48.033,17 L48.033,12.087 C48.033,11.4749969 47.9508342,11.0556678 47.7865,10.829 C47.6221658,10.6023322 47.3586685,10.489 46.996,10.489 C46.5653312,10.489 46.0893359,10.7609973 45.568,11.305 L45.568,17 L43.069,17 Z" id="102mm" fill="#093169" fill-rule="nonzero" transform="translate(28.585000, 11.602500) rotate(-360.000000) translate(-28.585000, -11.602500) "></path>
            <polyline id="Rectangle-Copy-3" stroke="#CBD8F2" transform="translate(28.017544, 47.067308) rotate(-360.000000) translate(-28.017544, -47.067308) " points="7.08754386 56.7307692 7.01754386 37.4038462 49.0175439 37.4038462 49.0175439 56.7307692"></polyline>
        </g>
    </g>
</svg>