<?xml version="1.0" encoding="UTF-8"?>
<svg width="600px" height="535px" viewBox="0 0 600 535" version="1.1" xmlns="http://www.w3.org/2000/svg" xmlns:xlink="http://www.w3.org/1999/xlink">
    <!-- Generator: Sketch 58 (84663) - https://sketch.com -->
    <title>quions/Q300</title>
    <desc>Created with Sketch.</desc>
    <g id="quions/Q300" stroke="none" stroke-width="1" fill="none" fill-rule="evenodd">
        <rect fill="#F5F9FF" x="0" y="0" width="600" height="535"></rect>
        <g id="Group-2" transform="translate(60.000000, 35.000000)">
            <rect id="Rectangle" stroke="#CBD8F2" fill="#FFFFFF" x="78" y="65" width="62" height="81"></rect>
            <rect id="Rectangle-Copy-4" stroke="#CBD8F2" fill="#FFFFFF" x="78" y="233" width="62" height="81"></rect>
            <rect id="Rectangle-Copy" stroke="#CBD8F2" fill="#FFFFFF" x="27" y="149" width="113" height="81"></rect>
            <rect id="Rectangle-Copy-12" stroke="#CBD8F2" fill="#FFFFFF" x="27" y="317" width="113" height="81"></rect>
            <path d="M60.465,460 L60.465,457.416 L55.79,457.416 L55.79,455.699 L59.734,449.205 L62.794,449.205 L62.794,455.512 L64.035,455.512 L64.035,457.416 L62.794,457.416 L62.794,460 L60.465,460 Z M58.187,455.512 L60.465,455.512 L60.465,453.761 L60.47044,453.31356 C60.4740666,453.1558 60.4795066,452.989427 60.48676,452.814441 L60.5398,451.78356 C60.5488666,451.62852 60.5579333,451.483001 60.567,451.347 L60.499,451.347 C60.3629993,451.641668 60.2213341,451.941998 60.074,452.248 C59.9266659,452.554002 59.7736675,452.859998 59.615,453.166 L58.187,455.512 Z M69.441,460 L69.441,457.416 L64.766,457.416 L64.766,455.699 L68.71,449.205 L71.77,449.205 L71.77,455.512 L73.011,455.512 L73.011,457.416 L71.77,457.416 L71.77,460 L69.441,460 Z M67.163,455.512 L69.441,455.512 L69.441,453.761 C69.441,453.479932 69.4482533,453.164414 69.46276,452.814441 L69.5158,451.78356 C69.5248666,451.62852 69.5339333,451.483001 69.543,451.347 L69.475,451.347 L69.05,452.248 L69.05,452.248 C68.9026659,452.554002 68.7496675,452.859998 68.591,453.166 L67.163,455.512 Z M77.907,460.204 C77.3289971,460.204 76.8020024,460.082168 76.326,459.8385 C75.8499976,459.594832 75.444835,459.235002 75.1105,458.759 C74.776165,458.282998 74.5155009,457.69367 74.3285,456.991 C74.1414991,456.28833 74.048,455.478005 74.048,454.56 C74.048,453.641995 74.1414991,452.837337 74.3285,452.146 C74.5155009,451.454663 74.776165,450.873836 75.1105,450.4035 C75.444835,449.933164 75.8499976,449.581834 76.326,449.3495 C76.8020024,449.117166 77.3289971,449.001 77.907,449.001 C78.4850029,449.001 79.0119976,449.117166 79.488,449.3495 C79.9640024,449.581834 80.369165,449.933164 80.7035,450.4035 C81.037835,450.873836 81.2984991,451.454663 81.4855,452.146 C81.6725009,452.837337 81.766,453.641995 81.766,454.56 C81.766,455.478005 81.6725009,456.28833 81.4855,456.991 C81.2984991,457.69367 81.037835,458.282998 80.7035,458.759 C80.369165,459.235002 79.9640024,459.594832 79.488,459.8385 C79.0119976,460.082168 78.4850029,460.204 77.907,460.204 Z M77.907,458.266 C78.1223344,458.266 78.3206658,458.212167 78.502,458.1045 C78.6833342,457.996833 78.8419993,457.801335 78.978,457.518 C79.1140007,457.234665 79.218833,456.855002 79.2925,456.379 C79.366167,455.902998 79.403,455.29667 79.403,454.56 C79.403,453.82333 79.366167,453.219836 79.2925,452.7495 C79.218833,452.279164 79.1140007,451.910835 78.978,451.6445 C78.8419993,451.378165 78.6833342,451.194001 78.502,451.092 C78.3206658,450.989999 78.1223344,450.939 77.907,450.939 C77.702999,450.939 77.5103342,450.989999 77.329,451.092 C77.1476658,451.194001 76.9890007,451.378165 76.853,451.6445 C76.7169993,451.910835 76.6093337,452.279164 76.53,452.7495 C76.4506663,453.219836 76.411,453.82333 76.411,454.56 C76.411,455.29667 76.4506663,455.902998 76.53,456.379 C76.6093337,456.855002 76.7169993,457.234665 76.853,457.518 C76.9890007,457.801335 77.1476658,457.996833 77.329,458.1045 C77.5103342,458.212167 77.702999,458.266 77.907,458.266 Z M83.5,460 L83.5,451.568 L85.54,451.568 L85.71,452.656 L85.778,452.656 C86.1293351,452.304665 86.5033313,452.001501 86.9,451.7465 C87.2966687,451.491499 87.7726639,451.364 88.328,451.364 C88.9286697,451.364 89.4131648,451.485832 89.7815,451.7295 C90.1498352,451.973168 90.4416656,452.321664 90.657,452.775 C91.0310019,452.389665 91.4248313,452.058168 91.8385,451.7805 C92.2521687,451.502832 92.7423305,451.364 93.309,451.364 C94.2156712,451.364 94.8814979,451.667164 95.3065,452.2735 C95.7315021,452.879836 95.944,453.709995 95.944,454.764 L95.944,460 L93.445,460 L93.445,455.087 C93.445,454.474997 93.3628342,454.055668 93.1985,453.829 C93.0341658,453.602332 92.7706685,453.489 92.408,453.489 C91.9886646,453.489 91.5070027,453.760997 90.963,454.305 L90.963,460 L88.464,460 L88.464,455.087 C88.464,454.474997 88.3818342,454.055668 88.2175,453.829 C88.0531658,453.602332 87.7896685,453.489 87.427,453.489 C86.9963312,453.489 86.5203359,453.760997 85.999,454.305 L85.999,460 L83.5,460 Z M98.069,460 L98.069,451.568 L100.109,451.568 L100.279,452.656 L100.347,452.656 C100.698335,452.304665 101.072331,452.001501 101.469,451.7465 C101.865669,451.491499 102.341664,451.364 102.897,451.364 C103.49767,451.364 103.982165,451.485832 104.3505,451.7295 C104.718835,451.973168 105.010666,452.321664 105.226,452.775 C105.600002,452.389665 105.993831,452.058168 106.4075,451.7805 C106.821169,451.502832 107.311331,451.364 107.878,451.364 C108.784671,451.364 109.450498,451.667164 109.8755,452.2735 C110.300502,452.879836 110.513,453.709995 110.513,454.764 L110.513,460 L108.014,460 L108.014,455.087 C108.014,454.474997 107.931834,454.055668 107.7675,453.829 C107.603166,453.602332 107.339668,453.489 106.977,453.489 C106.557665,453.489 106.076003,453.760997 105.532,454.305 L105.532,460 L103.033,460 L103.033,455.087 C103.033,454.474997 102.950834,454.055668 102.7865,453.829 C102.622166,453.602332 102.358668,453.489 101.996,453.489 C101.565331,453.489 101.089336,453.760997 100.568,454.305 L100.568,460 L98.069,460 Z" id="440mm" fill="#093169" fill-rule="nonzero" transform="translate(83.151500, 454.602500) rotate(-360.000000) translate(-83.151500, -454.602500) "></path>
            <polyline id="Rectangle-Copy-3" stroke="#CBD8F2" transform="translate(83.500000, 420.500000) rotate(-540.000000) translate(-83.500000, -420.500000) " points="27.1883333 428 27 413 140 413 140 428"></polyline>
            <g id="Group" transform="translate(0.000000, 65.000000)" fill="#FFFFFF" stroke="#FF5959" stroke-opacity="0.6">
                <rect id="Rectangle" x="51" y="0" width="24" height="18"></rect>
                <rect id="Rectangle-Copy-5" x="51" y="42" width="24" height="18"></rect>
                <rect id="Rectangle-Copy-6" x="27" y="21" width="48" height="18"></rect>
                <rect id="Rectangle-Copy-10" x="27" y="63" width="48" height="18"></rect>
                <rect id="Rectangle-Copy-9" x="0" y="21" width="24" height="18"></rect>
                <rect id="Rectangle-Copy-7" x="0" y="0" width="48" height="18"></rect>
                <rect id="Rectangle-Copy-8" x="0" y="42" width="48" height="18"></rect>
                <rect id="Rectangle" x="0" y="63" width="24" height="18"></rect>
            </g>
            <g id="Group-Copy" transform="translate(0.000000, 233.000000)" fill="#FFFFFF" stroke="#FF5959" stroke-opacity="0.6">
                <rect id="Rectangle" x="51" y="0" width="24" height="18"></rect>
                <rect id="Rectangle-Copy-5" x="51" y="42" width="24" height="18"></rect>
                <rect id="Rectangle-Copy-6" x="27" y="21" width="48" height="18"></rect>
                <rect id="Rectangle-Copy-10" x="27" y="63" width="48" height="18"></rect>
                <rect id="Rectangle-Copy-9" x="0" y="21" width="24" height="18"></rect>
                <rect id="Rectangle-Copy-7" x="0" y="0" width="48" height="18"></rect>
                <rect id="Rectangle-Copy-8" x="0" y="42" width="48" height="18"></rect>
                <rect id="Rectangle" x="0" y="63" width="24" height="18"></rect>
            </g>
            <rect id="Rectangle-Copy-9" stroke-opacity="0.6" stroke="#FF5959" fill="#FFFFFF" x="0" y="170" width="24" height="18"></rect>
            <rect id="Rectangle-Copy-13" stroke-opacity="0.6" stroke="#FF5959" fill="#FFFFFF" x="0" y="338" width="24" height="18"></rect>
            <rect id="Rectangle-Copy-11" stroke-opacity="0.6" stroke="#FF5959" fill="#FFFFFF" x="0" y="149" width="24" height="18"></rect>
            <rect id="Rectangle-Copy-14" stroke-opacity="0.6" stroke="#FF5959" fill="#FFFFFF" x="0" y="317" width="24" height="18"></rect>
            <rect id="Rectangle" stroke-opacity="0.6" stroke="#FF5959" fill="#FFFFFF" x="0" y="212" width="24" height="18"></rect>
            <rect id="Rectangle-Copy-15" stroke-opacity="0.6" stroke="#FF5959" fill="#FFFFFF" x="0" y="380" width="24" height="18"></rect>
            <rect id="Rectangle-Copy-2" stroke-opacity="0.6" stroke="#FF5959" fill="#FFFFFF" x="0" y="191" width="24" height="18"></rect>
            <rect id="Rectangle-Copy-16" stroke-opacity="0.6" stroke="#FF5959" fill="#FFFFFF" x="0" y="359" width="24" height="18"></rect>
            <path d="M170.096,112 L170.096,110.572 L170.897041,109.817199 C171.28328,109.45 171.648098,109.098102 171.9915,108.7615 C172.563836,108.200497 173.056831,107.673502 173.4705,107.1805 C173.884169,106.687498 174.207166,106.228502 174.4395,105.8035 C174.671834,105.378498 174.788,104.973335 174.788,104.588 C174.788,104.055331 174.652001,103.650168 174.38,103.3725 C174.107999,103.094832 173.734002,102.956 173.258,102.956 C172.861331,102.956 172.510002,103.066499 172.204,103.2875 C171.897998,103.508501 171.609001,103.766332 171.337,104.061 L169.977,102.718 C170.509669,102.151331 171.053664,101.723501 171.609,101.4345 C172.164336,101.145499 172.827329,101.001 173.598,101.001 C174.130669,101.001 174.615164,101.083166 175.0515,101.2475 C175.487836,101.411834 175.864665,101.644165 176.182,101.9445 C176.499335,102.244835 176.742999,102.604665 176.913,103.024 C177.083001,103.443335 177.168,103.913664 177.168,104.435 C177.168,104.888336 177.071668,105.350164 176.879,105.8205 C176.686332,106.290836 176.428502,106.761164 176.1055,107.2315 C175.782498,107.701836 175.414169,108.172164 175.0005,108.6425 C174.586831,109.112836 174.159002,109.574664 173.717,110.028 L174.148375,109.979125 C174.299958,109.963542 174.459332,109.948667 174.6265,109.9345 C174.960835,109.906167 175.258332,109.892 175.519,109.892 L177.695,109.892 L177.695,112 L170.096,112 Z M182.727,106.186 C183.010335,106.186 183.296499,106.103834 183.5855,105.9395 C183.874501,105.775166 184.126666,105.500335 184.342,105.115 C184.228666,104.264996 184.016168,103.678502 183.7045,103.3555 C183.392832,103.032498 183.044335,102.871 182.659,102.871 C182.296332,102.871 181.979001,103.009832 181.707,103.2875 C181.434999,103.565168 181.299,104.009997 181.299,104.622 C181.299,105.200003 181.434999,105.605166 181.707,105.8375 C181.979001,106.069834 182.318998,106.186 182.727,106.186 Z M182.336,112.204 C181.621996,112.204 181.001503,112.073668 180.4745,111.813 C179.947497,111.552332 179.514002,111.252002 179.174,110.912 L180.5,109.416 C180.681334,109.620001 180.924998,109.798499 181.231,109.9515 C181.537002,110.104501 181.848665,110.181 182.166,110.181 C182.472002,110.181 182.755332,110.124334 183.016,110.011 C183.276668,109.897666 183.506166,109.707835 183.7045,109.4415 C183.902834,109.175165 184.061499,108.829502 184.1805,108.4045 C184.299501,107.979498 184.370333,107.44967 184.393,106.815 C184.256999,106.996334 184.098334,107.157833 183.917,107.2995 C183.735666,107.441167 183.548668,107.560166 183.356,107.6565 C183.163332,107.752834 182.970668,107.8265 182.778,107.8775 C182.585332,107.9285 182.404001,107.954 182.234,107.954 C181.769331,107.954 181.341502,107.886001 180.9505,107.75 C180.559498,107.613999 180.222335,107.410001 179.939,107.138 C179.655665,106.865999 179.431834,106.520335 179.2675,106.101 C179.103166,105.681665 179.021,105.18867 179.021,104.622 C179.021,104.066664 179.117332,103.565169 179.31,103.1175 C179.502668,102.669831 179.760498,102.287335 180.0835,101.97 C180.406502,101.652665 180.786164,101.411834 181.2225,101.2475 C181.658836,101.083166 182.120664,101.001 182.608,101.001 C183.129336,101.001 183.636498,101.102999 184.1295,101.307 C184.622502,101.511001 185.058831,101.828331 185.4385,102.259 C185.818169,102.689669 186.124166,103.242163 186.3565,103.9165 C186.588834,104.590837 186.705,105.403995 186.705,106.356 C186.705,107.364672 186.583168,108.23733 186.3395,108.974 C186.095832,109.71067 185.772835,110.316998 185.3705,110.793 C184.968165,111.269002 184.503503,111.623166 183.9765,111.8555 C183.449497,112.087834 182.90267,112.204 182.336,112.204 Z M191.907,112.204 C191.328997,112.204 190.802002,112.082168 190.326,111.8385 C189.849998,111.594832 189.444835,111.235002 189.1105,110.759 C188.776165,110.282998 188.515501,109.69367 188.3285,108.991 C188.141499,108.28833 188.048,107.478005 188.048,106.56 C188.048,105.641995 188.141499,104.837337 188.3285,104.146 C188.515501,103.454663 188.776165,102.873836 189.1105,102.4035 C189.444835,101.933164 189.849998,101.581834 190.326,101.3495 C190.802002,101.117166 191.328997,101.001 191.907,101.001 C192.485003,101.001 193.011998,101.117166 193.488,101.3495 C193.964002,101.581834 194.369165,101.933164 194.7035,102.4035 C195.037835,102.873836 195.298499,103.454663 195.4855,104.146 C195.672501,104.837337 195.766,105.641995 195.766,106.56 C195.766,107.478005 195.672501,108.28833 195.4855,108.991 C195.298499,109.69367 195.037835,110.282998 194.7035,110.759 C194.369165,111.235002 193.964002,111.594832 193.488,111.8385 C193.011998,112.082168 192.485003,112.204 191.907,112.204 Z M191.907,110.266 C192.122334,110.266 192.320666,110.212167 192.502,110.1045 C192.683334,109.996833 192.841999,109.801335 192.978,109.518 C193.114001,109.234665 193.218833,108.855002 193.2925,108.379 C193.366167,107.902998 193.403,107.29667 193.403,106.56 C193.403,105.82333 193.366167,105.219836 193.2925,104.7495 C193.218833,104.279164 193.114001,103.910835 192.978,103.6445 C192.841999,103.378165 192.683334,103.194001 192.502,103.092 C192.320666,102.989999 192.122334,102.939 191.907,102.939 C191.702999,102.939 191.510334,102.989999 191.329,103.092 C191.147666,103.194001 190.989001,103.378165 190.853,103.6445 C190.716999,103.910835 190.609334,104.279164 190.53,104.7495 C190.450666,105.219836 190.411,105.82333 190.411,106.56 C190.411,107.29667 190.450666,107.902998 190.53,108.379 C190.609334,108.855002 190.716999,109.234665 190.853,109.518 C190.989001,109.801335 191.147666,109.996833 191.329,110.1045 C191.510334,110.212167 191.702999,110.266 191.907,110.266 Z M197.5,112 L197.5,103.568 L199.54,103.568 L199.71,104.656 L199.778,104.656 C200.129335,104.304665 200.503331,104.001501 200.9,103.7465 C201.296669,103.491499 201.772664,103.364 202.328,103.364 C202.92867,103.364 203.413165,103.485832 203.7815,103.7295 C204.149835,103.973168 204.441666,104.321664 204.657,104.775 C205.031002,104.389665 205.424831,104.058168 205.8385,103.7805 C206.252169,103.502832 206.742331,103.364 207.309,103.364 C208.215671,103.364 208.881498,103.667164 209.3065,104.2735 C209.731502,104.879836 209.944,105.709995 209.944,106.764 L209.944,112 L207.445,112 L207.445,107.087 C207.445,106.474997 207.362834,106.055668 207.1985,105.829 C207.034166,105.602332 206.770668,105.489 206.408,105.489 C205.988665,105.489 205.507003,105.760997 204.963,106.305 L204.963,112 L202.464,112 L202.464,107.087 C202.464,106.474997 202.381834,106.055668 202.2175,105.829 C202.053166,105.602332 201.789668,105.489 201.427,105.489 C200.996331,105.489 200.520336,105.760997 199.999,106.305 L199.999,112 L197.5,112 Z M212.069,112 L212.069,103.568 L214.109,103.568 L214.279,104.656 L214.347,104.656 C214.698335,104.304665 215.072331,104.001501 215.469,103.7465 C215.865669,103.491499 216.341664,103.364 216.897,103.364 C217.49767,103.364 217.982165,103.485832 218.3505,103.7295 C218.718835,103.973168 219.010666,104.321664 219.226,104.775 C219.600002,104.389665 219.993831,104.058168 220.4075,103.7805 C220.821169,103.502832 221.31133,103.364 221.878,103.364 C222.784671,103.364 223.450498,103.667164 223.8755,104.2735 C224.300502,104.879836 224.513,105.709995 224.513,106.764 L224.513,112 L222.014,112 L222.014,107.087 C222.014,106.474997 221.931834,106.055668 221.7675,105.829 C221.603166,105.602332 221.339668,105.489 220.977,105.489 C220.557665,105.489 220.076003,105.760997 219.532,106.305 L219.532,112 L217.033,112 L217.033,107.087 C217.033,106.474997 216.950834,106.055668 216.7865,105.829 C216.622166,105.602332 216.358668,105.489 215.996,105.489 C215.565331,105.489 215.089336,105.760997 214.568,106.305 L214.568,112 L212.069,112 Z" id="290mm" fill="#093169" fill-rule="nonzero" transform="translate(197.245000, 106.602500) rotate(-270.000000) translate(-197.245000, -106.602500) "></path>
            <polyline id="Rectangle-Copy-3" stroke="#CBD8F2" transform="translate(164.000000, 105.500000) rotate(-270.000000) translate(-164.000000, -105.500000) " points="124.133333 113 124 98 204 98 204 113"></polyline>
            <g id="Group-5-Copy" transform="translate(110.000000, 25.500000) rotate(-90.000000) translate(-110.000000, -25.500000) translate(85.000000, -5.000000)">
                <path d="M11.596,37 L11.596,35.572 L12.3970407,34.8171994 C12.7832799,34.4500002 13.1480983,34.0981017 13.4915,33.7615 C14.0638362,33.2004972 14.5568313,32.6735025 14.9705,32.1805 C15.3841687,31.6874975 15.7071655,31.2285021 15.9395,30.8035 C16.1718345,30.3784979 16.288,29.9733353 16.288,29.588 C16.288,29.0553307 16.1520014,28.6501681 15.88,28.3725 C15.6079986,28.0948319 15.2340024,27.956 14.758,27.956 C14.3613313,27.956 14.0100015,28.0664989 13.704,28.2875 C13.3979985,28.5085011 13.1090014,28.7663319 12.837,29.061 L11.477,27.718 C12.0096693,27.1513305 12.5536639,26.7235014 13.109,26.4345 C13.6643361,26.1454986 14.3273295,26.001 15.098,26.001 C15.6306693,26.001 16.1151645,26.0831658 16.5515,26.2475 C16.9878355,26.4118342 17.3646651,26.6441652 17.682,26.9445 C17.9993349,27.2448348 18.2429991,27.6046646 18.413,28.024 C18.5830008,28.4433354 18.668,28.9136641 18.668,29.435 C18.668,29.8883356 18.5716676,30.3501643 18.379,30.8205 C18.1863324,31.2908357 17.9285016,31.7611643 17.6055,32.2315 C17.2824984,32.7018357 16.9141687,33.1721643 16.5005,33.6425 C16.0868313,34.1128357 15.6590022,34.5746644 15.217,35.028 L15.6483749,34.979125 C15.7999578,34.9635417 15.9593325,34.9486667 16.1265,34.9345 C16.460835,34.9061665 16.758332,34.892 17.019,34.892 L19.195,34.892 L19.195,37 L11.596,37 Z M21.133,37 L21.133,34.977 L23.479,34.977 L23.479,28.738 L21.456,28.738 L21.456,27.191 C22.0453363,27.0776661 22.543998,26.9416675 22.952,26.783 C23.360002,26.6243325 23.7566647,26.4316678 24.142,26.205 L25.978,26.205 L25.978,34.977 L28.001,34.977 L28.001,37 L21.133,37 Z M33.118,37.204 C32.2339956,37.204 31.4860031,37.0595014 30.874,36.7705 C30.2619969,36.4814986 29.7406688,36.1216688 29.31,35.691 L30.432,34.11 C30.7606683,34.4046681 31.1148314,34.6568323 31.4945,34.8665 C31.8741686,35.0761677 32.296331,35.181 32.761,35.181 C33.3163361,35.181 33.7583317,35.0393348 34.087,34.756 C34.4156683,34.4726652 34.58,34.0533361 34.58,33.498 C34.58,32.9539973 34.4241682,32.5403347 34.1125,32.257 C33.8008318,31.9736652 33.3900025,31.832 32.88,31.832 C32.7213325,31.832 32.5796673,31.8404999 32.455,31.8575 C32.3303327,31.8745001 32.2085006,31.9056664 32.0895,31.951 C31.9704994,31.9963336 31.845834,32.0529997 31.7155,32.121 C31.585166,32.1890003 31.4406675,32.2739995 31.282,32.376 L30.16,31.662 L30.466,26.205 L36.586,26.205 L36.586,28.313 L32.625,28.313 L32.438,30.336 C32.642001,30.2453329 32.8374991,30.1801669 33.0245,30.1405 C33.2115009,30.1008331 33.4183322,30.081 33.645,30.081 C34.109669,30.081 34.5488313,30.1489993 34.9625,30.285 C35.3761687,30.4210007 35.7416651,30.6249986 36.059,30.897 C36.3763349,31.1690014 36.6256658,31.5146646 36.807,31.934 C36.9883342,32.3533354 37.079,32.8519971 37.079,33.43 C37.079,34.0306697 36.9713344,34.563331 36.756,35.028 C36.5406656,35.492669 36.2516685,35.8864984 35.889,36.2095 C35.5263315,36.5325016 35.1041691,36.7789992 34.6225,36.949 C34.1408309,37.1190008 33.6393359,37.204 33.118,37.204 Z M39,37 L39,28.568 L41.04,28.568 L41.21,29.656 L41.278,29.656 C41.6293351,29.3046649 42.0033314,29.0015013 42.4,28.7465 C42.7966687,28.4914987 43.2726639,28.364 43.828,28.364 C44.4286697,28.364 44.9131648,28.4858321 45.2815,28.7295 C45.6498352,28.9731679 45.9416656,29.3216644 46.157,29.775 C46.5310019,29.3896647 46.9248313,29.0581681 47.3385,28.7805 C47.7521687,28.5028319 48.2423305,28.364 48.809,28.364 C49.7156712,28.364 50.3814979,28.6671636 50.8065,29.2735 C51.2315021,29.8798364 51.444,30.7099947 51.444,31.764 L51.444,37 L48.945,37 L48.945,32.087 C48.945,31.4749969 48.8628342,31.0556678 48.6985,30.829 C48.5341658,30.6023322 48.2706685,30.489 47.908,30.489 C47.4886646,30.489 47.0070027,30.7609973 46.463,31.305 L46.463,37 L43.964,37 L43.964,32.087 C43.964,31.4749969 43.8818342,31.0556678 43.7175,30.829 C43.5531658,30.6023322 43.2896685,30.489 42.927,30.489 C42.4963312,30.489 42.0203359,30.7609973 41.499,31.305 L41.499,37 L39,37 Z M53.569,37 L53.569,28.568 L55.609,28.568 L55.779,29.656 L55.847,29.656 C56.1983351,29.3046649 56.5723314,29.0015013 56.969,28.7465 C57.3656687,28.4914987 57.8416639,28.364 58.397,28.364 C58.9976697,28.364 59.4821648,28.4858321 59.8505,28.7295 C60.2188352,28.9731679 60.5106656,29.3216644 60.726,29.775 C61.1000019,29.3896647 61.4938313,29.0581681 61.9075,28.7805 C62.3211687,28.5028319 62.8113305,28.364 63.378,28.364 C64.2846712,28.364 64.9504979,28.6671636 65.3755,29.2735 C65.8005021,29.8798364 66.013,30.7099947 66.013,31.764 L66.013,37 L63.514,37 L63.514,32.087 C63.514,31.4749969 63.4318342,31.0556678 63.2675,30.829 C63.1031658,30.6023322 62.8396685,30.489 62.477,30.489 C62.0576646,30.489 61.5760027,30.7609973 61.032,31.305 L61.032,37 L58.533,37 L58.533,32.087 C58.533,31.4749969 58.4508342,31.0556678 58.2865,30.829 C58.1221658,30.6023322 57.8586685,30.489 57.496,30.489 C57.0653312,30.489 56.5893359,30.7609973 56.068,31.305 L56.068,37 L53.569,37 Z" id="215mm" fill="#093169" fill-rule="nonzero" transform="translate(38.745000, 31.602500) rotate(-270.000000) translate(-38.745000, -31.602500) "></path>
                <polyline id="Rectangle-Copy-3" stroke="#CBD8F2" transform="translate(8.000000, 30.500000) rotate(-270.000000) translate(-8.000000, -30.500000) " points="-21.9 38 -22 23 38 23 38 38"></polyline>
            </g>
        </g>
        <g id="Group" transform="translate(243.000000, 154.000000)">
            <polygon id="Stroke-1" stroke="#CBD8F2" fill="#FFFFFF" points="71.5 159.795 251.14 159.795 251.14 72 209.515 72 209.515 118.125 71.5 118.125"></polygon>
            <path d="M138.465,222 L138.465,219.416 L133.79,219.416 L133.79,217.699 L137.734,211.205 L140.794,211.205 L140.794,217.512 L142.035,217.512 L142.035,219.416 L140.794,219.416 L140.794,222 L138.465,222 Z M136.187,217.512 L138.465,217.512 L138.465,215.761 C138.465,215.479932 138.472253,215.164414 138.48676,214.814441 L138.5398,213.78356 C138.548867,213.62852 138.557933,213.483001 138.567,213.347 L138.499,213.347 L138.074,214.248 L138.074,214.248 C137.926666,214.554002 137.773667,214.859998 137.615,215.166 L136.187,217.512 Z M147.441,222 L147.441,219.416 L142.766,219.416 L142.766,217.699 L146.71,211.205 L149.77,211.205 L149.77,217.512 L151.011,217.512 L151.011,219.416 L149.77,219.416 L149.77,222 L147.441,222 Z M145.163,217.512 L147.441,217.512 L147.441,215.761 C147.441,215.479932 147.448253,215.164414 147.46276,214.814441 L147.5158,213.78356 C147.524867,213.62852 147.533933,213.483001 147.543,213.347 L147.475,213.347 L147.05,214.248 L147.05,214.248 C146.902666,214.554002 146.749667,214.859998 146.591,215.166 L145.163,217.512 Z M155.907,222.204 C155.328997,222.204 154.802002,222.082168 154.326,221.8385 C153.849998,221.594832 153.444835,221.235002 153.1105,220.759 C152.776165,220.282998 152.515501,219.69367 152.3285,218.991 C152.141499,218.28833 152.048,217.478005 152.048,216.56 C152.048,215.641995 152.141499,214.837337 152.3285,214.146 C152.515501,213.454663 152.776165,212.873836 153.1105,212.4035 C153.444835,211.933164 153.849998,211.581834 154.326,211.3495 C154.802002,211.117166 155.328997,211.001 155.907,211.001 C156.485003,211.001 157.011998,211.117166 157.488,211.3495 C157.964002,211.581834 158.369165,211.933164 158.7035,212.4035 C159.037835,212.873836 159.298499,213.454663 159.4855,214.146 C159.672501,214.837337 159.766,215.641995 159.766,216.56 C159.766,217.478005 159.672501,218.28833 159.4855,218.991 C159.298499,219.69367 159.037835,220.282998 158.7035,220.759 C158.369165,221.235002 157.964002,221.594832 157.488,221.8385 C157.011998,222.082168 156.485003,222.204 155.907,222.204 Z M155.907,220.266 C156.122334,220.266 156.320666,220.212167 156.502,220.1045 C156.683334,219.996833 156.841999,219.801335 156.978,219.518 C157.114001,219.234665 157.218833,218.855002 157.2925,218.379 C157.366167,217.902998 157.403,217.29667 157.403,216.56 C157.403,215.82333 157.366167,215.219836 157.2925,214.7495 C157.218833,214.279164 157.114001,213.910835 156.978,213.6445 C156.841999,213.378165 156.683334,213.194001 156.502,213.092 C156.320666,212.989999 156.122334,212.939 155.907,212.939 C155.702999,212.939 155.510334,212.989999 155.329,213.092 C155.147666,213.194001 154.989001,213.378165 154.853,213.6445 C154.716999,213.910835 154.609334,214.279164 154.53,214.7495 C154.450666,215.219836 154.411,215.82333 154.411,216.56 C154.411,217.29667 154.450666,217.902998 154.53,218.379 C154.609334,218.855002 154.716999,219.234665 154.853,219.518 C154.989001,219.801335 155.147666,219.996833 155.329,220.1045 C155.510334,220.212167 155.702999,220.266 155.907,220.266 Z M161.5,222 L161.5,213.568 L163.54,213.568 L163.71,214.656 L163.778,214.656 C164.129335,214.304665 164.503331,214.001501 164.9,213.7465 C165.296669,213.491499 165.772664,213.364 166.328,213.364 C166.92867,213.364 167.413165,213.485832 167.7815,213.7295 C168.149835,213.973168 168.441666,214.321664 168.657,214.775 C169.031002,214.389665 169.424831,214.058168 169.8385,213.7805 C170.252169,213.502832 170.742331,213.364 171.309,213.364 C172.215671,213.364 172.881498,213.667164 173.3065,214.2735 C173.731502,214.879836 173.944,215.709995 173.944,216.764 L173.944,222 L171.445,222 L171.445,217.087 C171.445,216.474997 171.362834,216.055668 171.1985,215.829 C171.034166,215.602332 170.770668,215.489 170.408,215.489 C169.988665,215.489 169.507003,215.760997 168.963,216.305 L168.963,222 L166.464,222 L166.464,217.087 C166.464,216.474997 166.381834,216.055668 166.2175,215.829 C166.053166,215.602332 165.789668,215.489 165.427,215.489 C164.996331,215.489 164.520336,215.760997 163.999,216.305 L163.999,222 L161.5,222 Z M176.069,222 L176.069,213.568 L178.109,213.568 L178.279,214.656 L178.347,214.656 C178.698335,214.304665 179.072331,214.001501 179.469,213.7465 C179.865669,213.491499 180.341664,213.364 180.897,213.364 C181.49767,213.364 181.982165,213.485832 182.3505,213.7295 C182.718835,213.973168 183.010666,214.321664 183.226,214.775 C183.600002,214.389665 183.993831,214.058168 184.4075,213.7805 C184.821169,213.502832 185.31133,213.364 185.878,213.364 C186.784671,213.364 187.450498,213.667164 187.8755,214.2735 C188.300502,214.879836 188.513,215.709995 188.513,216.764 L188.513,222 L186.014,222 L186.014,217.087 C186.014,216.474997 185.931834,216.055668 185.7675,215.829 C185.603166,215.602332 185.339668,215.489 184.977,215.489 C184.557665,215.489 184.076003,215.760997 183.532,216.305 L183.532,222 L181.033,222 L181.033,217.087 C181.033,216.474997 180.950834,216.055668 180.7865,215.829 C180.622166,215.602332 180.358668,215.489 179.996,215.489 C179.565331,215.489 179.089336,215.760997 178.568,216.305 L178.568,222 L176.069,222 Z" id="440mm" fill="#093169" fill-rule="nonzero" transform="translate(161.151500, 216.602500) rotate(-360.000000) translate(-161.151500, -216.602500) "></path>
            <polyline id="Rectangle-Copy-3" stroke="#CBD8F2" transform="translate(161.000000, 182.500000) rotate(-540.000000) translate(-161.000000, -182.500000) " points="71.3 190 71 175 251 175 251 190"></polyline>
            <path d="M279.596,122 L279.596,120.572 L280.397041,119.817199 C280.78328,119.45 281.148098,119.098102 281.4915,118.7615 C282.063836,118.200497 282.556831,117.673502 282.9705,117.1805 C283.384169,116.687498 283.707166,116.228502 283.9395,115.8035 C284.171834,115.378498 284.288,114.973335 284.288,114.588 C284.288,114.055331 284.152001,113.650168 283.88,113.3725 C283.607999,113.094832 283.234002,112.956 282.758,112.956 C282.361331,112.956 282.010002,113.066499 281.704,113.2875 C281.397998,113.508501 281.109001,113.766332 280.837,114.061 L279.477,112.718 C280.009669,112.151331 280.553664,111.723501 281.109,111.4345 C281.664336,111.145499 282.327329,111.001 283.098,111.001 C283.630669,111.001 284.115164,111.083166 284.5515,111.2475 C284.987836,111.411834 285.364665,111.644165 285.682,111.9445 C285.999335,112.244835 286.242999,112.604665 286.413,113.024 C286.583001,113.443335 286.668,113.913664 286.668,114.435 C286.668,114.888336 286.571668,115.350164 286.379,115.8205 C286.186332,116.290836 285.928502,116.761164 285.6055,117.2315 C285.282498,117.701836 284.914169,118.172164 284.5005,118.6425 C284.086831,119.112836 283.659002,119.574664 283.217,120.028 L283.648375,119.979125 C283.799958,119.963542 283.959332,119.948667 284.1265,119.9345 C284.460835,119.906167 284.758332,119.892 285.019,119.892 L287.195,119.892 L287.195,122 L279.596,122 Z M289.133,122 L289.133,119.977 L291.479,119.977 L291.479,113.738 L289.456,113.738 L289.456,112.191 C290.045336,112.077666 290.543998,111.941667 290.952,111.783 C291.360002,111.624333 291.756665,111.431668 292.142,111.205 L293.978,111.205 L293.978,119.977 L296.001,119.977 L296.001,122 L289.133,122 Z M301.118,122.204 C300.233996,122.204 299.486003,122.059501 298.874,121.7705 C298.261997,121.481499 297.740669,121.121669 297.31,120.691 L298.432,119.11 C298.760668,119.404668 299.114831,119.656832 299.4945,119.8665 C299.874169,120.076168 300.296331,120.181 300.761,120.181 C301.316336,120.181 301.758332,120.039335 302.087,119.756 C302.415668,119.472665 302.58,119.053336 302.58,118.498 C302.58,117.953997 302.424168,117.540335 302.1125,117.257 C301.800832,116.973665 301.390003,116.832 300.88,116.832 C300.721333,116.832 300.579667,116.8405 300.455,116.8575 C300.330333,116.8745 300.208501,116.905666 300.0895,116.951 C299.970499,116.996334 299.845834,117.053 299.7155,117.121 C299.585166,117.189 299.440667,117.273999 299.282,117.376 L298.16,116.662 L298.466,111.205 L304.586,111.205 L304.586,113.313 L300.625,113.313 L300.438,115.336 C300.642001,115.245333 300.837499,115.180167 301.0245,115.1405 C301.211501,115.100833 301.418332,115.081 301.645,115.081 C302.109669,115.081 302.548831,115.148999 302.9625,115.285 C303.376169,115.421001 303.741665,115.624999 304.059,115.897 C304.376335,116.169001 304.625666,116.514665 304.807,116.934 C304.988334,117.353335 305.079,117.851997 305.079,118.43 C305.079,119.03067 304.971334,119.563331 304.756,120.028 C304.540666,120.492669 304.251668,120.886498 303.889,121.2095 C303.526332,121.532502 303.104169,121.778999 302.6225,121.949 C302.140831,122.119001 301.639336,122.204 301.118,122.204 Z M307,122 L307,113.568 L309.04,113.568 L309.21,114.656 L309.278,114.656 C309.629335,114.304665 310.003331,114.001501 310.4,113.7465 C310.796669,113.491499 311.272664,113.364 311.828,113.364 C312.42867,113.364 312.913165,113.485832 313.2815,113.7295 C313.649835,113.973168 313.941666,114.321664 314.157,114.775 C314.531002,114.389665 314.924831,114.058168 315.3385,113.7805 C315.752169,113.502832 316.24233,113.364 316.809,113.364 C317.715671,113.364 318.381498,113.667164 318.8065,114.2735 C319.231502,114.879836 319.444,115.709995 319.444,116.764 L319.444,122 L316.945,122 L316.945,117.087 C316.945,116.474997 316.862834,116.055668 316.6985,115.829 C316.534166,115.602332 316.270668,115.489 315.908,115.489 C315.488665,115.489 315.007003,115.760997 314.463,116.305 L314.463,122 L311.964,122 L311.964,117.087 C311.964,116.474997 311.881834,116.055668 311.7175,115.829 C311.553166,115.602332 311.289668,115.489 310.927,115.489 C310.496331,115.489 310.020336,115.760997 309.499,116.305 L309.499,122 L307,122 Z M321.569,122 L321.569,113.568 L323.609,113.568 L323.779,114.656 L323.847,114.656 C324.198335,114.304665 324.572331,114.001501 324.969,113.7465 C325.365669,113.491499 325.841664,113.364 326.397,113.364 C326.99767,113.364 327.482165,113.485832 327.8505,113.7295 C328.218835,113.973168 328.510666,114.321664 328.726,114.775 C329.100002,114.389665 329.493831,114.058168 329.9075,113.7805 C330.321169,113.502832 330.81133,113.364 331.378,113.364 C332.284671,113.364 332.950498,113.667164 333.3755,114.2735 C333.800502,114.879836 334.013,115.709995 334.013,116.764 L334.013,122 L331.514,122 L331.514,117.087 C331.514,116.474997 331.431834,116.055668 331.2675,115.829 C331.103166,115.602332 330.839668,115.489 330.477,115.489 C330.057665,115.489 329.576003,115.760997 329.032,116.305 L329.032,122 L326.533,122 L326.533,117.087 C326.533,116.474997 326.450834,116.055668 326.2865,115.829 C326.122166,115.602332 325.858668,115.489 325.496,115.489 C325.065331,115.489 324.589336,115.760997 324.068,116.305 L324.068,122 L321.569,122 Z" id="215mm" fill="#093169" fill-rule="nonzero" transform="translate(306.745000, 116.602500) rotate(-630.000000) translate(-306.745000, -116.602500) "></path>
            <polyline id="Rectangle-Copy-3" stroke="#CBD8F2" transform="translate(273.500000, 116.500000) rotate(-630.000000) translate(-273.500000, -116.500000) " points="229.646667 124 229.5 109 317.5 109 317.5 124"></polyline>
            <g id="Group-6-Copy" transform="translate(202.000000, 0.000000)">
                <path d="M1.657,17 L1.657,14.977 L4.003,14.977 L4.003,8.738 L1.98,8.738 L1.98,7.191 C2.56933628,7.0776661 3.06799796,6.94166746 3.476,6.783 C3.88400204,6.62433254 4.28066474,6.4316678 4.666,6.205 L6.502,6.205 L6.502,14.977 L8.525,14.977 L8.525,17 L1.657,17 Z M13.931,17.204 C13.3529971,17.204 12.8260024,17.0821679 12.35,16.8385 C11.8739976,16.5948321 11.468835,16.2350024 11.1345,15.759 C10.800165,15.2829976 10.5395009,14.6936702 10.3525,13.991 C10.1654991,13.2883298 10.072,12.4780046 10.072,11.56 C10.072,10.6419954 10.1654991,9.83733679 10.3525,9.146 C10.5395009,8.45466321 10.800165,7.87383568 11.1345,7.4035 C11.468835,6.93316431 11.8739976,6.58183449 12.35,6.3495 C12.8260024,6.1171655 13.3529971,6.001 13.931,6.001 C14.5090029,6.001 15.0359976,6.1171655 15.512,6.3495 C15.9880024,6.58183449 16.393165,6.93316431 16.7275,7.4035 C17.061835,7.87383568 17.3224991,8.45466321 17.5095,9.146 C17.6965009,9.83733679 17.79,10.6419954 17.79,11.56 C17.79,12.4780046 17.6965009,13.2883298 17.5095,13.991 C17.3224991,14.6936702 17.061835,15.2829976 16.7275,15.759 C16.393165,16.2350024 15.9880024,16.5948321 15.512,16.8385 C15.0359976,17.0821679 14.5090029,17.204 13.931,17.204 Z M13.931,15.266 C14.1463344,15.266 14.3446658,15.2121672 14.526,15.1045 C14.7073342,14.9968328 14.8659993,14.8013347 15.002,14.518 C15.1380007,14.2346652 15.242833,13.8550024 15.3165,13.379 C15.390167,12.9029976 15.427,12.2966703 15.427,11.56 C15.427,10.8233296 15.390167,10.2198357 15.3165,9.7495 C15.242833,9.27916431 15.1380007,8.91083466 15.002,8.6445 C14.8659993,8.37816533 14.7073342,8.19400051 14.526,8.092 C14.3446658,7.98999949 14.1463344,7.939 13.931,7.939 C13.726999,7.939 13.5343342,7.98999949 13.353,8.092 C13.1716658,8.19400051 13.0130007,8.37816533 12.877,8.6445 C12.7409993,8.91083466 12.6333337,9.27916431 12.554,9.7495 C12.4746663,10.2198357 12.435,10.8233296 12.435,11.56 C12.435,12.2966703 12.4746663,12.9029976 12.554,13.379 C12.6333337,13.8550024 12.7409993,14.2346652 12.877,14.518 C13.0130007,14.8013347 13.1716658,14.9968328 13.353,15.1045 C13.5343342,15.2121672 13.726999,15.266 13.931,15.266 Z M19.048,17 L19.048,15.572 L19.8490407,14.8171994 C20.2352799,14.4500002 20.6000983,14.0981017 20.9435,13.7615 C21.5158362,13.2004972 22.0088313,12.6735025 22.4225,12.1805 C22.8361687,11.6874975 23.1591655,11.2285021 23.3915,10.8035 C23.6238345,10.3784979 23.74,9.97333526 23.74,9.588 C23.74,9.05533067 23.6040014,8.65016805 23.332,8.3725 C23.0599986,8.09483194 22.6860024,7.956 22.21,7.956 C21.8133313,7.956 21.4620015,8.06649889 21.156,8.2875 C20.8499985,8.50850111 20.5610014,8.76633186 20.289,9.061 L18.929,7.718 C19.4616693,7.1513305 20.0056639,6.72350145 20.561,6.4345 C21.1163361,6.14549855 21.7793295,6.001 22.55,6.001 C23.0826693,6.001 23.5671645,6.08316584 24.0035,6.2475 C24.4398355,6.41183416 24.8166651,6.64416517 25.134,6.9445 C25.4513349,7.24483483 25.6949992,7.60466457 25.865,8.024 C26.0350009,8.44333543 26.12,8.91366406 26.12,9.435 C26.12,9.8883356 26.0236676,10.3501643 25.831,10.8205 C25.6383324,11.2908357 25.3805016,11.7611643 25.0575,12.2315 C24.7344984,12.7018357 24.3661687,13.1721643 23.9525,13.6425 C23.5388313,14.1128357 23.1110022,14.5746644 22.669,15.028 L23.1003749,14.979125 C23.2519578,14.9635417 23.4113325,14.9486667 23.5785,14.9345 C23.912835,14.9061665 24.210332,14.892 24.471,14.892 L26.647,14.892 L26.647,17 L19.048,17 Z M28.5,17 L28.5,8.568 L30.54,8.568 L30.71,9.656 L30.778,9.656 C31.1293351,9.30466491 31.5033314,9.00150127 31.9,8.7465 C32.2966687,8.49149872 32.7726639,8.364 33.328,8.364 C33.9286697,8.364 34.4131648,8.48583211 34.7815,8.7295 C35.1498352,8.97316788 35.4416656,9.3216644 35.657,9.775 C36.0310019,9.38966474 36.4248313,9.05816805 36.8385,8.7805 C37.2521687,8.50283194 37.7423305,8.364 38.309,8.364 C39.2156712,8.364 39.8814979,8.66716363 40.3065,9.2735 C40.7315021,9.87983636 40.944,10.7099947 40.944,11.764 L40.944,17 L38.445,17 L38.445,12.087 C38.445,11.4749969 38.3628342,11.0556678 38.1985,10.829 C38.0341658,10.6023322 37.7706685,10.489 37.408,10.489 C36.9886646,10.489 36.5070027,10.7609973 35.963,11.305 L35.963,17 L33.464,17 L33.464,12.087 C33.464,11.4749969 33.3818342,11.0556678 33.2175,10.829 C33.0531658,10.6023322 32.7896685,10.489 32.427,10.489 C31.9963312,10.489 31.5203359,10.7609973 30.999,11.305 L30.999,17 L28.5,17 Z M43.069,17 L43.069,8.568 L45.109,8.568 L45.279,9.656 L45.347,9.656 C45.6983351,9.30466491 46.0723314,9.00150127 46.469,8.7465 C46.8656687,8.49149872 47.3416639,8.364 47.897,8.364 C48.4976697,8.364 48.9821648,8.48583211 49.3505,8.7295 C49.7188352,8.97316788 50.0106656,9.3216644 50.226,9.775 C50.6000019,9.38966474 50.9938313,9.05816805 51.4075,8.7805 C51.8211687,8.50283194 52.3113305,8.364 52.878,8.364 C53.7846712,8.364 54.4504979,8.66716363 54.8755,9.2735 C55.3005021,9.87983636 55.513,10.7099947 55.513,11.764 L55.513,17 L53.014,17 L53.014,12.087 C53.014,11.4749969 52.9318342,11.0556678 52.7675,10.829 C52.6031658,10.6023322 52.3396685,10.489 51.977,10.489 C51.5576646,10.489 51.0760027,10.7609973 50.532,11.305 L50.532,17 L48.033,17 L48.033,12.087 C48.033,11.4749969 47.9508342,11.0556678 47.7865,10.829 C47.6221658,10.6023322 47.3586685,10.489 46.996,10.489 C46.5653312,10.489 46.0893359,10.7609973 45.568,11.305 L45.568,17 L43.069,17 Z" id="102mm" fill="#093169" fill-rule="nonzero" transform="translate(28.585000, 11.602500) rotate(-360.000000) translate(-28.585000, -11.602500) "></path>
                <polyline id="Rectangle-Copy-3" stroke="#CBD8F2" transform="translate(28.017544, 47.067308) rotate(-360.000000) translate(-28.017544, -47.067308) " points="7.08754386 56.7307692 7.01754386 37.4038462 49.0175439 37.4038462 49.0175439 56.7307692"></polyline>
            </g>
            <g id="Group-6-Copy-2" transform="translate(28.500000, 138.500000) rotate(-90.000000) translate(-28.500000, -138.500000) translate(0.000000, 110.000000)">
                <path d="M1.657,17 L1.657,14.977 L4.003,14.977 L4.003,8.738 L1.98,8.738 L1.98,7.191 C2.56933628,7.0776661 3.06799796,6.94166746 3.476,6.783 C3.88400204,6.62433254 4.28066474,6.4316678 4.666,6.205 L6.502,6.205 L6.502,14.977 L8.525,14.977 L8.525,17 L1.657,17 Z M13.931,17.204 C13.3529971,17.204 12.8260024,17.0821679 12.35,16.8385 C11.8739976,16.5948321 11.468835,16.2350024 11.1345,15.759 C10.800165,15.2829976 10.5395009,14.6936702 10.3525,13.991 C10.1654991,13.2883298 10.072,12.4780046 10.072,11.56 C10.072,10.6419954 10.1654991,9.83733679 10.3525,9.146 C10.5395009,8.45466321 10.800165,7.87383568 11.1345,7.4035 C11.468835,6.93316431 11.8739976,6.58183449 12.35,6.3495 C12.8260024,6.1171655 13.3529971,6.001 13.931,6.001 C14.5090029,6.001 15.0359976,6.1171655 15.512,6.3495 C15.9880024,6.58183449 16.393165,6.93316431 16.7275,7.4035 C17.061835,7.87383568 17.3224991,8.45466321 17.5095,9.146 C17.6965009,9.83733679 17.79,10.6419954 17.79,11.56 C17.79,12.4780046 17.6965009,13.2883298 17.5095,13.991 C17.3224991,14.6936702 17.061835,15.2829976 16.7275,15.759 C16.393165,16.2350024 15.9880024,16.5948321 15.512,16.8385 C15.0359976,17.0821679 14.5090029,17.204 13.931,17.204 Z M13.931,15.266 C14.1463344,15.266 14.3446658,15.2121672 14.526,15.1045 C14.7073342,14.9968328 14.8659993,14.8013347 15.002,14.518 C15.1380007,14.2346652 15.242833,13.8550024 15.3165,13.379 C15.390167,12.9029976 15.427,12.2966703 15.427,11.56 C15.427,10.8233296 15.390167,10.2198357 15.3165,9.7495 C15.242833,9.27916431 15.1380007,8.91083466 15.002,8.6445 C14.8659993,8.37816533 14.7073342,8.19400051 14.526,8.092 C14.3446658,7.98999949 14.1463344,7.939 13.931,7.939 C13.726999,7.939 13.5343342,7.98999949 13.353,8.092 C13.1716658,8.19400051 13.0130007,8.37816533 12.877,8.6445 C12.7409993,8.91083466 12.6333337,9.27916431 12.554,9.7495 C12.4746663,10.2198357 12.435,10.8233296 12.435,11.56 C12.435,12.2966703 12.4746663,12.9029976 12.554,13.379 C12.6333337,13.8550024 12.7409993,14.2346652 12.877,14.518 C13.0130007,14.8013347 13.1716658,14.9968328 13.353,15.1045 C13.5343342,15.2121672 13.726999,15.266 13.931,15.266 Z M19.048,17 L19.048,15.572 L19.8490407,14.8171994 C20.2352799,14.4500002 20.6000983,14.0981017 20.9435,13.7615 C21.5158362,13.2004972 22.0088313,12.6735025 22.4225,12.1805 C22.8361687,11.6874975 23.1591655,11.2285021 23.3915,10.8035 C23.6238345,10.3784979 23.74,9.97333526 23.74,9.588 C23.74,9.05533067 23.6040014,8.65016805 23.332,8.3725 C23.0599986,8.09483194 22.6860024,7.956 22.21,7.956 C21.8133313,7.956 21.4620015,8.06649889 21.156,8.2875 C20.8499985,8.50850111 20.5610014,8.76633186 20.289,9.061 L18.929,7.718 C19.4616693,7.1513305 20.0056639,6.72350145 20.561,6.4345 C21.1163361,6.14549855 21.7793295,6.001 22.55,6.001 C23.0826693,6.001 23.5671645,6.08316584 24.0035,6.2475 C24.4398355,6.41183416 24.8166651,6.64416517 25.134,6.9445 C25.4513349,7.24483483 25.6949992,7.60466457 25.865,8.024 C26.0350009,8.44333543 26.12,8.91366406 26.12,9.435 C26.12,9.8883356 26.0236676,10.3501643 25.831,10.8205 C25.6383324,11.2908357 25.3805016,11.7611643 25.0575,12.2315 C24.7344984,12.7018357 24.3661687,13.1721643 23.9525,13.6425 C23.5388313,14.1128357 23.1110022,14.5746644 22.669,15.028 L23.1003749,14.979125 C23.2519578,14.9635417 23.4113325,14.9486667 23.5785,14.9345 C23.912835,14.9061665 24.210332,14.892 24.471,14.892 L26.647,14.892 L26.647,17 L19.048,17 Z M28.5,17 L28.5,8.568 L30.54,8.568 L30.71,9.656 L30.778,9.656 C31.1293351,9.30466491 31.5033314,9.00150127 31.9,8.7465 C32.2966687,8.49149872 32.7726639,8.364 33.328,8.364 C33.9286697,8.364 34.4131648,8.48583211 34.7815,8.7295 C35.1498352,8.97316788 35.4416656,9.3216644 35.657,9.775 C36.0310019,9.38966474 36.4248313,9.05816805 36.8385,8.7805 C37.2521687,8.50283194 37.7423305,8.364 38.309,8.364 C39.2156712,8.364 39.8814979,8.66716363 40.3065,9.2735 C40.7315021,9.87983636 40.944,10.7099947 40.944,11.764 L40.944,17 L38.445,17 L38.445,12.087 C38.445,11.4749969 38.3628342,11.0556678 38.1985,10.829 C38.0341658,10.6023322 37.7706685,10.489 37.408,10.489 C36.9886646,10.489 36.5070027,10.7609973 35.963,11.305 L35.963,17 L33.464,17 L33.464,12.087 C33.464,11.4749969 33.3818342,11.0556678 33.2175,10.829 C33.0531658,10.6023322 32.7896685,10.489 32.427,10.489 C31.9963312,10.489 31.5203359,10.7609973 30.999,11.305 L30.999,17 L28.5,17 Z M43.069,17 L43.069,8.568 L45.109,8.568 L45.279,9.656 L45.347,9.656 C45.6983351,9.30466491 46.0723314,9.00150127 46.469,8.7465 C46.8656687,8.49149872 47.3416639,8.364 47.897,8.364 C48.4976697,8.364 48.9821648,8.48583211 49.3505,8.7295 C49.7188352,8.97316788 50.0106656,9.3216644 50.226,9.775 C50.6000019,9.38966474 50.9938313,9.05816805 51.4075,8.7805 C51.8211687,8.50283194 52.3113305,8.364 52.878,8.364 C53.7846712,8.364 54.4504979,8.66716363 54.8755,9.2735 C55.3005021,9.87983636 55.513,10.7099947 55.513,11.764 L55.513,17 L53.014,17 L53.014,12.087 C53.014,11.4749969 52.9318342,11.0556678 52.7675,10.829 C52.6031658,10.6023322 52.3396685,10.489 51.977,10.489 C51.5576646,10.489 51.0760027,10.7609973 50.532,11.305 L50.532,17 L48.033,17 L48.033,12.087 C48.033,11.4749969 47.9508342,11.0556678 47.7865,10.829 C47.6221658,10.6023322 47.3586685,10.489 46.996,10.489 C46.5653312,10.489 46.0893359,10.7609973 45.568,11.305 L45.568,17 L43.069,17 Z" id="102mm" fill="#093169" fill-rule="nonzero" transform="translate(28.585000, 11.602500) rotate(-360.000000) translate(-28.585000, -11.602500) "></path>
                <polyline id="Rectangle-Copy-3" stroke="#CBD8F2" transform="translate(28.017544, 47.067308) rotate(-360.000000) translate(-28.017544, -47.067308) " points="7.08754386 56.7307692 7.01754386 37.4038462 49.0175439 37.4038462 49.0175439 56.7307692"></polyline>
            </g>
        </g>
    </g>
</svg>