<?xml version="1.0" encoding="UTF-8"?>
<svg width="600px" height="451px" viewBox="0 0 600 451" version="1.1" xmlns="http://www.w3.org/2000/svg" xmlns:xlink="http://www.w3.org/1999/xlink">
    <!-- Generator: Sketch 58 (84663) - https://sketch.com -->
    <title>quions/Q400</title>
    <desc>Created with Sketch.</desc>
    <g id="quions/Q400" stroke="none" stroke-width="1" fill="none" fill-rule="evenodd">
        <rect fill="#F5F9FF" x="0" y="0" width="600" height="451"></rect>
        <g id="Group-4" transform="translate(60.000000, 35.000000)">
            <g id="Group-Copy" transform="translate(0.000000, 191.000000)" fill="#FFFFFF" stroke="#FF5959" stroke-opacity="0.6">
                <rect id="Rectangle" x="51" y="0" width="24" height="18"></rect>
                <rect id="Rectangle-Copy-5" x="51" y="42" width="24" height="18"></rect>
                <rect id="Rectangle-Copy-6" x="27" y="21" width="48" height="18"></rect>
                <rect id="Rectangle-Copy-9" x="0" y="21" width="24" height="18"></rect>
                <rect id="Rectangle-Copy-7" x="0" y="0" width="48" height="18"></rect>
                <rect id="Rectangle-Copy-8" x="0" y="42" width="48" height="18"></rect>
            </g>
            <g id="Group-Copy-3" transform="translate(0.000000, 65.000000)" fill="#FFFFFF" stroke="#FF5959" stroke-opacity="0.6">
                <rect id="Rectangle" x="51" y="0" width="24" height="18"></rect>
                <rect id="Rectangle-Copy-5" x="51" y="42" width="24" height="18"></rect>
                <rect id="Rectangle-Copy-6" x="27" y="21" width="48" height="18"></rect>
                <rect id="Rectangle-Copy-9" x="0" y="21" width="24" height="18"></rect>
                <rect id="Rectangle-Copy-7" x="0" y="0" width="48" height="18"></rect>
                <rect id="Rectangle-Copy-8" x="0" y="42" width="48" height="18"></rect>
            </g>
            <g id="Group" transform="translate(0.000000, 254.000000)" fill="#FFFFFF" stroke="#FF5959" stroke-opacity="0.6">
                <rect id="Rectangle" x="24" y="0" width="24" height="18"></rect>
                <rect id="Rectangle-Copy-5" x="24" y="42" width="24" height="18"></rect>
                <rect id="Rectangle-Copy-6" x="0" y="21" width="48" height="18"></rect>
                <rect id="Rectangle-Copy-9" x="0" y="0" width="21" height="18"></rect>
                <rect id="Rectangle-Copy-10" x="0" y="42" width="21" height="18"></rect>
            </g>
            <g id="Group-Copy-4" transform="translate(0.000000, 128.000000)" fill="#FFFFFF" stroke="#FF5959" stroke-opacity="0.6">
                <rect id="Rectangle" x="24" y="0" width="24" height="18"></rect>
                <rect id="Rectangle-Copy-5" x="24" y="42" width="24" height="18"></rect>
                <rect id="Rectangle-Copy-6" x="0" y="21" width="48" height="18"></rect>
                <rect id="Rectangle-Copy-9" x="0" y="0" width="21" height="18"></rect>
                <rect id="Rectangle-Copy-10" x="0" y="42" width="21" height="18"></rect>
            </g>
            <g id="Group-3" transform="translate(78.000000, 191.000000)" stroke="#CBD8F2">
                <polygon id="Rectangle-Copy-2" fill="#FFFFFF" points="0 8.32667268e-16 62 0 65 3 65 57 62 60 0 60"></polygon>
                <polygon id="Rectangle-Copy-12" fill="#FFFFFF" stroke-linejoin="bevel" points="3 3 65 3 65 57 3 57"></polygon>
                <path d="M3,57 L0,60" id="Line-2"></path>
                <path d="M3,0 L0,3" id="Line-2-Copy" transform="translate(1.500000, 1.500000) rotate(-270.000000) translate(-1.500000, -1.500000) "></path>
            </g>
            <g id="Group-3-Copy" transform="translate(78.000000, 65.000000)" stroke="#CBD8F2">
                <polygon id="Rectangle-Copy-2" fill="#FFFFFF" points="0 8.32667268e-16 62 0 65 3 65 57 62 60 0 60"></polygon>
                <rect id="Rectangle-Copy-12" fill="#FFFFFF" stroke-linejoin="bevel" x="3" y="3" width="62" height="54"></rect>
                <path d="M3,57 L0,60" id="Line-2"></path>
                <path d="M3,0 L0,3" id="Line-2-Copy" transform="translate(1.500000, 1.500000) rotate(-270.000000) translate(-1.500000, -1.500000) "></path>
            </g>
            <g id="Group-2" transform="translate(51.000000, 254.000000)" stroke="#CBD8F2">
                <polygon id="Rectangle-Copy-4" fill="#FFFFFF" points="0 0 89 0 92 3 92 57 89 60 0 60"></polygon>
                <rect id="Rectangle-Copy-11" fill="#FFFFFF" stroke-linejoin="bevel" x="3" y="3" width="89" height="54"></rect>
                <path d="M3,3 L0,0" id="Line"></path>
                <path d="M3,60 L0,57" id="Line-Copy" transform="translate(1.500000, 58.500000) rotate(-90.000000) translate(-1.500000, -58.500000) "></path>
            </g>
            <g id="Group-2-Copy" transform="translate(51.000000, 128.000000)" stroke="#CBD8F2">
                <polygon id="Rectangle-Copy-4" fill="#FFFFFF" points="0 0 89 0 92 3 92 57 89 60 0 60"></polygon>
                <rect id="Rectangle-Copy-11" fill="#FFFFFF" stroke-linejoin="bevel" x="3" y="3" width="89" height="54"></rect>
                <path d="M3,3 L0,0" id="Line"></path>
                <path d="M3,60 L0,57" id="Line-Copy" transform="translate(1.500000, 58.500000) rotate(-90.000000) translate(-1.500000, -58.500000) "></path>
            </g>
            <g id="Group-5" transform="translate(156.000000, 65.000000)">
                <path d="M11.596,37 L11.596,35.572 L12.3970407,34.8171994 C12.7832799,34.4500002 13.1480983,34.0981017 13.4915,33.7615 C14.0638362,33.2004972 14.5568313,32.6735025 14.9705,32.1805 C15.3841687,31.6874975 15.7071655,31.2285021 15.9395,30.8035 C16.1718345,30.3784979 16.288,29.9733353 16.288,29.588 C16.288,29.0553307 16.1520014,28.6501681 15.88,28.3725 C15.6079986,28.0948319 15.2340024,27.956 14.758,27.956 C14.3613313,27.956 14.0100015,28.0664989 13.704,28.2875 C13.3979985,28.5085011 13.1090014,28.7663319 12.837,29.061 L11.477,27.718 C12.0096693,27.1513305 12.5536639,26.7235014 13.109,26.4345 C13.6643361,26.1454986 14.3273295,26.001 15.098,26.001 C15.6306693,26.001 16.1151645,26.0831658 16.5515,26.2475 C16.9878355,26.4118342 17.3646651,26.6441652 17.682,26.9445 C17.9993349,27.2448348 18.2429991,27.6046646 18.413,28.024 C18.5830008,28.4433354 18.668,28.9136641 18.668,29.435 C18.668,29.8883356 18.5716676,30.3501643 18.379,30.8205 C18.1863324,31.2908357 17.9285016,31.7611643 17.6055,32.2315 C17.2824984,32.7018357 16.9141687,33.1721643 16.5005,33.6425 C16.0868313,34.1128357 15.6590022,34.5746644 15.217,35.028 L15.6483749,34.979125 C15.7999578,34.9635417 15.9593325,34.9486667 16.1265,34.9345 C16.460835,34.9061665 16.758332,34.892 17.019,34.892 L19.195,34.892 L19.195,37 L11.596,37 Z M21.133,37 L21.133,34.977 L23.479,34.977 L23.479,28.738 L21.456,28.738 L21.456,27.191 C22.0453363,27.0776661 22.543998,26.9416675 22.952,26.783 C23.360002,26.6243325 23.7566647,26.4316678 24.142,26.205 L25.978,26.205 L25.978,34.977 L28.001,34.977 L28.001,37 L21.133,37 Z M33.118,37.204 C32.2339956,37.204 31.4860031,37.0595014 30.874,36.7705 C30.2619969,36.4814986 29.7406688,36.1216688 29.31,35.691 L30.432,34.11 C30.7606683,34.4046681 31.1148314,34.6568323 31.4945,34.8665 C31.8741686,35.0761677 32.296331,35.181 32.761,35.181 C33.3163361,35.181 33.7583317,35.0393348 34.087,34.756 C34.4156683,34.4726652 34.58,34.0533361 34.58,33.498 C34.58,32.9539973 34.4241682,32.5403347 34.1125,32.257 C33.8008318,31.9736652 33.3900025,31.832 32.88,31.832 C32.7213325,31.832 32.5796673,31.8404999 32.455,31.8575 C32.3303327,31.8745001 32.2085006,31.9056664 32.0895,31.951 C31.9704994,31.9963336 31.845834,32.0529997 31.7155,32.121 C31.585166,32.1890003 31.4406675,32.2739995 31.282,32.376 L30.16,31.662 L30.466,26.205 L36.586,26.205 L36.586,28.313 L32.625,28.313 L32.438,30.336 C32.642001,30.2453329 32.8374991,30.1801669 33.0245,30.1405 C33.2115009,30.1008331 33.4183322,30.081 33.645,30.081 C34.109669,30.081 34.5488313,30.1489993 34.9625,30.285 C35.3761687,30.4210007 35.7416651,30.6249986 36.059,30.897 C36.3763349,31.1690014 36.6256658,31.5146646 36.807,31.934 C36.9883342,32.3533354 37.079,32.8519971 37.079,33.43 C37.079,34.0306697 36.9713344,34.563331 36.756,35.028 C36.5406656,35.492669 36.2516685,35.8864984 35.889,36.2095 C35.5263315,36.5325016 35.1041691,36.7789992 34.6225,36.949 C34.1408309,37.1190008 33.6393359,37.204 33.118,37.204 Z M39,37 L39,28.568 L41.04,28.568 L41.21,29.656 L41.278,29.656 C41.6293351,29.3046649 42.0033314,29.0015013 42.4,28.7465 C42.7966687,28.4914987 43.2726639,28.364 43.828,28.364 C44.4286697,28.364 44.9131648,28.4858321 45.2815,28.7295 C45.6498352,28.9731679 45.9416656,29.3216644 46.157,29.775 C46.5310019,29.3896647 46.9248313,29.0581681 47.3385,28.7805 C47.7521687,28.5028319 48.2423305,28.364 48.809,28.364 C49.7156712,28.364 50.3814979,28.6671636 50.8065,29.2735 C51.2315021,29.8798364 51.444,30.7099947 51.444,31.764 L51.444,37 L48.945,37 L48.945,32.087 C48.945,31.4749969 48.8628342,31.0556678 48.6985,30.829 C48.5341658,30.6023322 48.2706685,30.489 47.908,30.489 C47.4886646,30.489 47.0070027,30.7609973 46.463,31.305 L46.463,37 L43.964,37 L43.964,32.087 C43.964,31.4749969 43.8818342,31.0556678 43.7175,30.829 C43.5531658,30.6023322 43.2896685,30.489 42.927,30.489 C42.4963312,30.489 42.0203359,30.7609973 41.499,31.305 L41.499,37 L39,37 Z M53.569,37 L53.569,28.568 L55.609,28.568 L55.779,29.656 L55.847,29.656 C56.1983351,29.3046649 56.5723314,29.0015013 56.969,28.7465 C57.3656687,28.4914987 57.8416639,28.364 58.397,28.364 C58.9976697,28.364 59.4821648,28.4858321 59.8505,28.7295 C60.2188352,28.9731679 60.5106656,29.3216644 60.726,29.775 C61.1000019,29.3896647 61.4938313,29.0581681 61.9075,28.7805 C62.3211687,28.5028319 62.8113305,28.364 63.378,28.364 C64.2846712,28.364 64.9504979,28.6671636 65.3755,29.2735 C65.8005021,29.8798364 66.013,30.7099947 66.013,31.764 L66.013,37 L63.514,37 L63.514,32.087 C63.514,31.4749969 63.4318342,31.0556678 63.2675,30.829 C63.1031658,30.6023322 62.8396685,30.489 62.477,30.489 C62.0576646,30.489 61.5760027,30.7609973 61.032,31.305 L61.032,37 L58.533,37 L58.533,32.087 C58.533,31.4749969 58.4508342,31.0556678 58.2865,30.829 C58.1221658,30.6023322 57.8586685,30.489 57.496,30.489 C57.0653312,30.489 56.5893359,30.7609973 56.068,31.305 L56.068,37 L53.569,37 Z" id="215mm" fill="#093169" fill-rule="nonzero" transform="translate(38.745000, 31.602500) rotate(-270.000000) translate(-38.745000, -31.602500) "></path>
                <polyline id="Rectangle-Copy-3" stroke="#CBD8F2" transform="translate(8.000000, 30.500000) rotate(-270.000000) translate(-8.000000, -30.500000) " points="-21.9 38 -22 23 38 23 38 38"></polyline>
            </g>
            <g id="Group-5-Copy" transform="translate(110.000000, 25.500000) rotate(-90.000000) translate(-110.000000, -25.500000) translate(85.000000, -5.000000)">
                <path d="M11.596,37 L11.596,35.572 L12.3970407,34.8171994 C12.7832799,34.4500002 13.1480983,34.0981017 13.4915,33.7615 C14.0638362,33.2004972 14.5568313,32.6735025 14.9705,32.1805 C15.3841687,31.6874975 15.7071655,31.2285021 15.9395,30.8035 C16.1718345,30.3784979 16.288,29.9733353 16.288,29.588 C16.288,29.0553307 16.1520014,28.6501681 15.88,28.3725 C15.6079986,28.0948319 15.2340024,27.956 14.758,27.956 C14.3613313,27.956 14.0100015,28.0664989 13.704,28.2875 C13.3979985,28.5085011 13.1090014,28.7663319 12.837,29.061 L11.477,27.718 C12.0096693,27.1513305 12.5536639,26.7235014 13.109,26.4345 C13.6643361,26.1454986 14.3273295,26.001 15.098,26.001 C15.6306693,26.001 16.1151645,26.0831658 16.5515,26.2475 C16.9878355,26.4118342 17.3646651,26.6441652 17.682,26.9445 C17.9993349,27.2448348 18.2429991,27.6046646 18.413,28.024 C18.5830008,28.4433354 18.668,28.9136641 18.668,29.435 C18.668,29.8883356 18.5716676,30.3501643 18.379,30.8205 C18.1863324,31.2908357 17.9285016,31.7611643 17.6055,32.2315 C17.2824984,32.7018357 16.9141687,33.1721643 16.5005,33.6425 C16.0868313,34.1128357 15.6590022,34.5746644 15.217,35.028 L15.6483749,34.979125 C15.7999578,34.9635417 15.9593325,34.9486667 16.1265,34.9345 C16.460835,34.9061665 16.758332,34.892 17.019,34.892 L19.195,34.892 L19.195,37 L11.596,37 Z M21.133,37 L21.133,34.977 L23.479,34.977 L23.479,28.738 L21.456,28.738 L21.456,27.191 C22.0453363,27.0776661 22.543998,26.9416675 22.952,26.783 C23.360002,26.6243325 23.7566647,26.4316678 24.142,26.205 L25.978,26.205 L25.978,34.977 L28.001,34.977 L28.001,37 L21.133,37 Z M33.118,37.204 C32.2339956,37.204 31.4860031,37.0595014 30.874,36.7705 C30.2619969,36.4814986 29.7406688,36.1216688 29.31,35.691 L30.432,34.11 C30.7606683,34.4046681 31.1148314,34.6568323 31.4945,34.8665 C31.8741686,35.0761677 32.296331,35.181 32.761,35.181 C33.3163361,35.181 33.7583317,35.0393348 34.087,34.756 C34.4156683,34.4726652 34.58,34.0533361 34.58,33.498 C34.58,32.9539973 34.4241682,32.5403347 34.1125,32.257 C33.8008318,31.9736652 33.3900025,31.832 32.88,31.832 C32.7213325,31.832 32.5796673,31.8404999 32.455,31.8575 C32.3303327,31.8745001 32.2085006,31.9056664 32.0895,31.951 C31.9704994,31.9963336 31.845834,32.0529997 31.7155,32.121 C31.585166,32.1890003 31.4406675,32.2739995 31.282,32.376 L30.16,31.662 L30.466,26.205 L36.586,26.205 L36.586,28.313 L32.625,28.313 L32.438,30.336 C32.642001,30.2453329 32.8374991,30.1801669 33.0245,30.1405 C33.2115009,30.1008331 33.4183322,30.081 33.645,30.081 C34.109669,30.081 34.5488313,30.1489993 34.9625,30.285 C35.3761687,30.4210007 35.7416651,30.6249986 36.059,30.897 C36.3763349,31.1690014 36.6256658,31.5146646 36.807,31.934 C36.9883342,32.3533354 37.079,32.8519971 37.079,33.43 C37.079,34.0306697 36.9713344,34.563331 36.756,35.028 C36.5406656,35.492669 36.2516685,35.8864984 35.889,36.2095 C35.5263315,36.5325016 35.1041691,36.7789992 34.6225,36.949 C34.1408309,37.1190008 33.6393359,37.204 33.118,37.204 Z M39,37 L39,28.568 L41.04,28.568 L41.21,29.656 L41.278,29.656 C41.6293351,29.3046649 42.0033314,29.0015013 42.4,28.7465 C42.7966687,28.4914987 43.2726639,28.364 43.828,28.364 C44.4286697,28.364 44.9131648,28.4858321 45.2815,28.7295 C45.6498352,28.9731679 45.9416656,29.3216644 46.157,29.775 C46.5310019,29.3896647 46.9248313,29.0581681 47.3385,28.7805 C47.7521687,28.5028319 48.2423305,28.364 48.809,28.364 C49.7156712,28.364 50.3814979,28.6671636 50.8065,29.2735 C51.2315021,29.8798364 51.444,30.7099947 51.444,31.764 L51.444,37 L48.945,37 L48.945,32.087 C48.945,31.4749969 48.8628342,31.0556678 48.6985,30.829 C48.5341658,30.6023322 48.2706685,30.489 47.908,30.489 C47.4886646,30.489 47.0070027,30.7609973 46.463,31.305 L46.463,37 L43.964,37 L43.964,32.087 C43.964,31.4749969 43.8818342,31.0556678 43.7175,30.829 C43.5531658,30.6023322 43.2896685,30.489 42.927,30.489 C42.4963312,30.489 42.0203359,30.7609973 41.499,31.305 L41.499,37 L39,37 Z M53.569,37 L53.569,28.568 L55.609,28.568 L55.779,29.656 L55.847,29.656 C56.1983351,29.3046649 56.5723314,29.0015013 56.969,28.7465 C57.3656687,28.4914987 57.8416639,28.364 58.397,28.364 C58.9976697,28.364 59.4821648,28.4858321 59.8505,28.7295 C60.2188352,28.9731679 60.5106656,29.3216644 60.726,29.775 C61.1000019,29.3896647 61.4938313,29.0581681 61.9075,28.7805 C62.3211687,28.5028319 62.8113305,28.364 63.378,28.364 C64.2846712,28.364 64.9504979,28.6671636 65.3755,29.2735 C65.8005021,29.8798364 66.013,30.7099947 66.013,31.764 L66.013,37 L63.514,37 L63.514,32.087 C63.514,31.4749969 63.4318342,31.0556678 63.2675,30.829 C63.1031658,30.6023322 62.8396685,30.489 62.477,30.489 C62.0576646,30.489 61.5760027,30.7609973 61.032,31.305 L61.032,37 L58.533,37 L58.533,32.087 C58.533,31.4749969 58.4508342,31.0556678 58.2865,30.829 C58.1221658,30.6023322 57.8586685,30.489 57.496,30.489 C57.0653312,30.489 56.5893359,30.7609973 56.068,31.305 L56.068,37 L53.569,37 Z" id="215mm" fill="#093169" fill-rule="nonzero" transform="translate(38.745000, 31.602500) rotate(-270.000000) translate(-38.745000, -31.602500) "></path>
                <polyline id="Rectangle-Copy-3" stroke="#CBD8F2" transform="translate(8.000000, 30.500000) rotate(-270.000000) translate(-8.000000, -30.500000) " points="-21.9 38 -22 23 38 23 38 38"></polyline>
            </g>
            <path d="M63.56,376.204 C62.6759956,376.204 61.9280031,376.065168 61.316,375.7875 C60.7039969,375.509832 60.1996686,375.138669 59.803,374.674 L60.959,373.093 C61.2876683,373.410335 61.647498,373.670999 62.0385,373.875 C62.429502,374.079001 62.857331,374.181 63.322,374.181 C63.8546693,374.181 64.2796651,374.070501 64.597,373.8495 C64.9143349,373.628499 65.073,373.314002 65.073,372.906 C65.073,372.667999 65.0305004,372.452668 64.9455,372.26 C64.8604996,372.067332 64.7103344,371.905834 64.495,371.7755 C64.2796656,371.645166 63.9850019,371.543167 63.611,371.4695 C63.2369981,371.395833 62.7553363,371.359 62.166,371.359 L62.166,369.591 C62.6533358,369.591 63.0584984,369.557 63.3815,369.489 C63.7045016,369.421 63.9651657,369.321834 64.1635,369.1915 C64.3618343,369.061166 64.5034996,368.908168 64.5885,368.7325 C64.6735004,368.556832 64.716,368.361334 64.716,368.146 C64.716,367.771998 64.6026678,367.480168 64.376,367.2705 C64.1493322,367.060832 63.8206688,366.956 63.39,366.956 C63.0046647,366.956 62.6561682,367.040999 62.3445,367.211 C62.0328318,367.381001 61.7070017,367.613332 61.367,367.908 L60.109,366.378 C60.6076692,365.947331 61.1318306,365.610168 61.6815,365.3665 C62.2311694,365.122832 62.84033,365.001 63.509,365.001 C64.0643361,365.001 64.5714977,365.066166 65.0305,365.1965 C65.4895023,365.326834 65.8804984,365.519499 66.2035,365.7745 C66.5265016,366.029501 66.7786658,366.338332 66.96,366.701 C67.1413342,367.063668 67.232,367.482998 67.232,367.959 C67.232,368.525669 67.0761682,369.004498 66.7645,369.3955 C66.4528318,369.786502 66.0080029,370.106665 65.43,370.356 L65.43,370.424 C66.0533364,370.605334 66.5661647,370.914164 66.9685,371.3505 C67.3708353,371.786836 67.572,372.35633 67.572,373.059 C67.572,373.557669 67.4643344,374.002498 67.249,374.3935 C67.0336656,374.784502 66.7446685,375.113165 66.382,375.3795 C66.0193315,375.645835 65.5943358,375.849833 65.107,375.9915 C64.6196642,376.133167 64.1040027,376.204 63.56,376.204 Z M69.034,376 L69.034,374.572 L69.8350407,373.817199 C70.2212799,373.45 70.5860983,373.098102 70.9295,372.7615 C71.5018362,372.200497 71.9948313,371.673502 72.4085,371.1805 C72.8221687,370.687498 73.1451655,370.228502 73.3775,369.8035 C73.6098345,369.378498 73.726,368.973335 73.726,368.588 C73.726,368.055331 73.5900014,367.650168 73.318,367.3725 C73.0459986,367.094832 72.6720024,366.956 72.196,366.956 C71.7993313,366.956 71.4480015,367.066499 71.142,367.2875 C70.8359985,367.508501 70.5470014,367.766332 70.275,368.061 L68.915,366.718 C69.4476693,366.15133 69.9916639,365.723501 70.547,365.4345 C71.1023361,365.145499 71.7653295,365.001 72.536,365.001 C73.0686693,365.001 73.5531645,365.083166 73.9895,365.2475 C74.4258355,365.411834 74.8026651,365.644165 75.12,365.9445 C75.4373349,366.244835 75.6809991,366.604665 75.851,367.024 C76.0210008,367.443335 76.106,367.913664 76.106,368.435 C76.106,368.888336 76.0096676,369.350164 75.817,369.8205 C75.6243324,370.290836 75.3665016,370.761164 75.0435,371.2315 C74.7204984,371.701836 74.3521687,372.172164 73.9385,372.6425 C73.5248313,373.112836 73.0970022,373.574664 72.655,374.028 L73.0863749,373.979125 C73.2379578,373.963542 73.3973325,373.948667 73.5645,373.9345 C73.898835,373.906167 74.196332,373.892 74.457,373.892 L76.633,373.892 L76.633,376 L69.034,376 Z M80.084,376 C80.1293336,375.104662 80.2114994,374.28017 80.3305,373.5265 C80.4495006,372.77283 80.6194989,372.05317 80.8405,371.3675 C81.0615011,370.68183 81.3448316,370.010337 81.6905,369.353 C82.0361684,368.695663 82.4639974,368.01567 82.974,367.313 L78.129,367.313 L78.129,365.205 L85.643,365.205 L85.643,366.735 C85.0196635,367.494337 84.5181686,368.205497 84.1385,368.8685 C83.7588314,369.531503 83.4641677,370.217163 83.2545,370.9255 C83.0448323,371.633837 82.8946671,372.393163 82.804,373.2035 C82.7133329,374.013837 82.6453336,374.945995 82.6,376 L80.084,376 Z M88.907,376.204 C88.4763312,376.204 88.1165014,376.053835 87.8275,375.7535 C87.5384986,375.453165 87.394,375.082002 87.394,374.64 C87.394,374.186664 87.5384986,373.809835 87.8275,373.5095 C88.1165014,373.209165 88.4763312,373.059 88.907,373.059 C89.3376688,373.059 89.6974986,373.209165 89.9865,373.5095 C90.2755014,373.809835 90.42,374.186664 90.42,374.64 C90.42,375.082002 90.2755014,375.453165 89.9865,375.7535 C89.6974986,376.053835 89.3376688,376.204 88.907,376.204 Z M95.656,376.204 C94.7719956,376.204 94.0240031,376.059501 93.412,375.7705 C92.7999969,375.481499 92.2786688,375.121669 91.848,374.691 L92.97,373.11 C93.2986683,373.404668 93.6528314,373.656832 94.0325,373.8665 C94.4121686,374.076168 94.834331,374.181 95.299,374.181 C95.8543361,374.181 96.2963317,374.039335 96.625,373.756 C96.9536683,373.472665 97.118,373.053336 97.118,372.498 C97.118,371.953997 96.9621682,371.540335 96.6505,371.257 C96.3388318,370.973665 95.9280026,370.832 95.418,370.832 C95.2593325,370.832 95.1176673,370.8405 94.993,370.8575 C94.8683327,370.8745 94.7465006,370.905666 94.6275,370.951 C94.5084994,370.996334 94.383834,371.053 94.2535,371.121 C94.123166,371.189 93.9786675,371.273999 93.82,371.376 L92.698,370.662 L93.004,365.205 L99.124,365.205 L99.124,367.313 L95.163,367.313 L94.976,369.336 C95.180001,369.245333 95.3754991,369.180167 95.5625,369.1405 C95.7495009,369.100833 95.9563322,369.081 96.183,369.081 C96.647669,369.081 97.0868313,369.148999 97.5005,369.285 C97.9141687,369.421001 98.2796651,369.624999 98.597,369.897 C98.9143349,370.169001 99.1636658,370.514665 99.345,370.934 C99.5263342,371.353335 99.617,371.851997 99.617,372.43 C99.617,373.03067 99.5093344,373.563331 99.294,374.028 C99.0786656,374.492669 98.7896685,374.886498 98.427,375.2095 C98.0643315,375.532502 97.6421691,375.778999 97.1605,375.949 C96.6788309,376.119001 96.1773359,376.204 95.656,376.204 Z M101.538,376 L101.538,367.568 L103.578,367.568 L103.748,368.656 L103.816,368.656 C104.167335,368.304665 104.541331,368.001501 104.938,367.7465 C105.334669,367.491499 105.810664,367.364 106.366,367.364 C106.96667,367.364 107.451165,367.485832 107.8195,367.7295 C108.187835,367.973168 108.479666,368.321664 108.695,368.775 C109.069002,368.389665 109.462831,368.058168 109.8765,367.7805 C110.290169,367.502832 110.780331,367.364 111.347,367.364 C112.253671,367.364 112.919498,367.667164 113.3445,368.2735 C113.769502,368.879836 113.982,369.709995 113.982,370.764 L113.982,376 L111.483,376 L111.483,371.087 C111.483,370.474997 111.400834,370.055668 111.2365,369.829 C111.072166,369.602332 110.808668,369.489 110.446,369.489 C110.026665,369.489 109.545003,369.760997 109.001,370.305 L109.001,376 L106.502,376 L106.502,371.087 C106.502,370.474997 106.419834,370.055668 106.2555,369.829 C106.091166,369.602332 105.827668,369.489 105.465,369.489 C105.034331,369.489 104.558336,369.760997 104.037,370.305 L104.037,376 L101.538,376 Z M116.107,376 L116.107,367.568 L118.147,367.568 L118.317,368.656 L118.385,368.656 C118.736335,368.304665 119.110331,368.001501 119.507,367.7465 C119.903669,367.491499 120.379664,367.364 120.935,367.364 C121.53567,367.364 122.020165,367.485832 122.3885,367.7295 C122.756835,367.973168 123.048666,368.321664 123.264,368.775 C123.638002,368.389665 124.031831,368.058168 124.4455,367.7805 C124.859169,367.502832 125.349331,367.364 125.916,367.364 C126.822671,367.364 127.488498,367.667164 127.9135,368.2735 C128.338502,368.879836 128.551,369.709995 128.551,370.764 L128.551,376 L126.052,376 L126.052,371.087 C126.052,370.474997 125.969834,370.055668 125.8055,369.829 C125.641166,369.602332 125.377668,369.489 125.015,369.489 C124.595665,369.489 124.114003,369.760997 123.57,370.305 L123.57,376 L121.071,376 L121.071,371.087 C121.071,370.474997 120.988834,370.055668 120.8245,369.829 C120.660166,369.602332 120.396668,369.489 120.034,369.489 C119.603331,369.489 119.127336,369.760997 118.606,370.305 L118.606,376 L116.107,376 Z" id="327.5mm" fill="#093169" fill-rule="nonzero" transform="translate(94.177000, 370.602500) rotate(-360.000000) translate(-94.177000, -370.602500) "></path>
            <polyline id="Rectangle-Copy-3" stroke="#CBD8F2" transform="translate(95.500000, 336.500000) rotate(-540.000000) translate(-95.500000, -336.500000) " points="51.1483333 344 51 329 140 329 140 344"></polyline>
        </g>
        <g id="Group-7" transform="translate(286.000000, 110.000000)">
            <g id="Group-3" transform="translate(68.000000, 72.000000)" fill="#FFFFFF" stroke="#CBD8F2" stroke-linejoin="bevel">
                <polygon id="Stroke-1" points="133.875 87.75 133.875 0 92.219002 0 92.219002 46.125 0 46.125 0 87.75"></polygon>
                <polygon id="Rectangle" points="133.875 0 137.625 3.75 137.625 91.3125 133.875 87.75"></polygon>
                <polygon id="Rectangle-Copy" transform="translate(68.812500, 89.437500) rotate(-270.000000) translate(-68.812500, -89.437500) " points="66.9375 24.375 70.6875 20.625 70.6875 154.5 66.9375 158.25"></polygon>
            </g>
            <g id="Group-6" transform="translate(153.000000, 0.000000)">
                <path d="M1.657,17 L1.657,14.977 L4.003,14.977 L4.003,8.738 L1.98,8.738 L1.98,7.191 C2.56933628,7.0776661 3.06799796,6.94166746 3.476,6.783 C3.88400204,6.62433254 4.28066474,6.4316678 4.666,6.205 L6.502,6.205 L6.502,14.977 L8.525,14.977 L8.525,17 L1.657,17 Z M13.931,17.204 C13.3529971,17.204 12.8260024,17.0821679 12.35,16.8385 C11.8739976,16.5948321 11.468835,16.2350024 11.1345,15.759 C10.800165,15.2829976 10.5395009,14.6936702 10.3525,13.991 C10.1654991,13.2883298 10.072,12.4780046 10.072,11.56 C10.072,10.6419954 10.1654991,9.83733679 10.3525,9.146 C10.5395009,8.45466321 10.800165,7.87383568 11.1345,7.4035 C11.468835,6.93316431 11.8739976,6.58183449 12.35,6.3495 C12.8260024,6.1171655 13.3529971,6.001 13.931,6.001 C14.5090029,6.001 15.0359976,6.1171655 15.512,6.3495 C15.9880024,6.58183449 16.393165,6.93316431 16.7275,7.4035 C17.061835,7.87383568 17.3224991,8.45466321 17.5095,9.146 C17.6965009,9.83733679 17.79,10.6419954 17.79,11.56 C17.79,12.4780046 17.6965009,13.2883298 17.5095,13.991 C17.3224991,14.6936702 17.061835,15.2829976 16.7275,15.759 C16.393165,16.2350024 15.9880024,16.5948321 15.512,16.8385 C15.0359976,17.0821679 14.5090029,17.204 13.931,17.204 Z M13.931,15.266 C14.1463344,15.266 14.3446658,15.2121672 14.526,15.1045 C14.7073342,14.9968328 14.8659993,14.8013347 15.002,14.518 C15.1380007,14.2346652 15.242833,13.8550024 15.3165,13.379 C15.390167,12.9029976 15.427,12.2966703 15.427,11.56 C15.427,10.8233296 15.390167,10.2198357 15.3165,9.7495 C15.242833,9.27916431 15.1380007,8.91083466 15.002,8.6445 C14.8659993,8.37816533 14.7073342,8.19400051 14.526,8.092 C14.3446658,7.98999949 14.1463344,7.939 13.931,7.939 C13.726999,7.939 13.5343342,7.98999949 13.353,8.092 C13.1716658,8.19400051 13.0130007,8.37816533 12.877,8.6445 C12.7409993,8.91083466 12.6333337,9.27916431 12.554,9.7495 C12.4746663,10.2198357 12.435,10.8233296 12.435,11.56 C12.435,12.2966703 12.4746663,12.9029976 12.554,13.379 C12.6333337,13.8550024 12.7409993,14.2346652 12.877,14.518 C13.0130007,14.8013347 13.1716658,14.9968328 13.353,15.1045 C13.5343342,15.2121672 13.726999,15.266 13.931,15.266 Z M19.048,17 L19.048,15.572 L19.8490407,14.8171994 C20.2352799,14.4500002 20.6000983,14.0981017 20.9435,13.7615 C21.5158362,13.2004972 22.0088313,12.6735025 22.4225,12.1805 C22.8361687,11.6874975 23.1591655,11.2285021 23.3915,10.8035 C23.6238345,10.3784979 23.74,9.97333526 23.74,9.588 C23.74,9.05533067 23.6040014,8.65016805 23.332,8.3725 C23.0599986,8.09483194 22.6860024,7.956 22.21,7.956 C21.8133313,7.956 21.4620015,8.06649889 21.156,8.2875 C20.8499985,8.50850111 20.5610014,8.76633186 20.289,9.061 L18.929,7.718 C19.4616693,7.1513305 20.0056639,6.72350145 20.561,6.4345 C21.1163361,6.14549855 21.7793295,6.001 22.55,6.001 C23.0826693,6.001 23.5671645,6.08316584 24.0035,6.2475 C24.4398355,6.41183416 24.8166651,6.64416517 25.134,6.9445 C25.4513349,7.24483483 25.6949992,7.60466457 25.865,8.024 C26.0350009,8.44333543 26.12,8.91366406 26.12,9.435 C26.12,9.8883356 26.0236676,10.3501643 25.831,10.8205 C25.6383324,11.2908357 25.3805016,11.7611643 25.0575,12.2315 C24.7344984,12.7018357 24.3661687,13.1721643 23.9525,13.6425 C23.5388313,14.1128357 23.1110022,14.5746644 22.669,15.028 L23.1003749,14.979125 C23.2519578,14.9635417 23.4113325,14.9486667 23.5785,14.9345 C23.912835,14.9061665 24.210332,14.892 24.471,14.892 L26.647,14.892 L26.647,17 L19.048,17 Z M28.5,17 L28.5,8.568 L30.54,8.568 L30.71,9.656 L30.778,9.656 C31.1293351,9.30466491 31.5033314,9.00150127 31.9,8.7465 C32.2966687,8.49149872 32.7726639,8.364 33.328,8.364 C33.9286697,8.364 34.4131648,8.48583211 34.7815,8.7295 C35.1498352,8.97316788 35.4416656,9.3216644 35.657,9.775 C36.0310019,9.38966474 36.4248313,9.05816805 36.8385,8.7805 C37.2521687,8.50283194 37.7423305,8.364 38.309,8.364 C39.2156712,8.364 39.8814979,8.66716363 40.3065,9.2735 C40.7315021,9.87983636 40.944,10.7099947 40.944,11.764 L40.944,17 L38.445,17 L38.445,12.087 C38.445,11.4749969 38.3628342,11.0556678 38.1985,10.829 C38.0341658,10.6023322 37.7706685,10.489 37.408,10.489 C36.9886646,10.489 36.5070027,10.7609973 35.963,11.305 L35.963,17 L33.464,17 L33.464,12.087 C33.464,11.4749969 33.3818342,11.0556678 33.2175,10.829 C33.0531658,10.6023322 32.7896685,10.489 32.427,10.489 C31.9963312,10.489 31.5203359,10.7609973 30.999,11.305 L30.999,17 L28.5,17 Z M43.069,17 L43.069,8.568 L45.109,8.568 L45.279,9.656 L45.347,9.656 C45.6983351,9.30466491 46.0723314,9.00150127 46.469,8.7465 C46.8656687,8.49149872 47.3416639,8.364 47.897,8.364 C48.4976697,8.364 48.9821648,8.48583211 49.3505,8.7295 C49.7188352,8.97316788 50.0106656,9.3216644 50.226,9.775 C50.6000019,9.38966474 50.9938313,9.05816805 51.4075,8.7805 C51.8211687,8.50283194 52.3113305,8.364 52.878,8.364 C53.7846712,8.364 54.4504979,8.66716363 54.8755,9.2735 C55.3005021,9.87983636 55.513,10.7099947 55.513,11.764 L55.513,17 L53.014,17 L53.014,12.087 C53.014,11.4749969 52.9318342,11.0556678 52.7675,10.829 C52.6031658,10.6023322 52.3396685,10.489 51.977,10.489 C51.5576646,10.489 51.0760027,10.7609973 50.532,11.305 L50.532,17 L48.033,17 L48.033,12.087 C48.033,11.4749969 47.9508342,11.0556678 47.7865,10.829 C47.6221658,10.6023322 47.3586685,10.489 46.996,10.489 C46.5653312,10.489 46.0893359,10.7609973 45.568,11.305 L45.568,17 L43.069,17 Z" id="102mm" fill="#093169" fill-rule="nonzero" transform="translate(28.585000, 11.602500) rotate(-360.000000) translate(-28.585000, -11.602500) "></path>
                <polyline id="Rectangle-Copy-3" stroke="#CBD8F2" transform="translate(28.017544, 47.067308) rotate(-360.000000) translate(-28.017544, -47.067308) " points="7.08754386 56.7307692 7.01754386 37.4038462 49.0175439 37.4038462 49.0175439 56.7307692"></polyline>
            </g>
            <path d="M235.096,121 L235.096,119.572 L235.897041,118.817199 C236.28328,118.45 236.648098,118.098102 236.9915,117.7615 C237.563836,117.200497 238.056831,116.673502 238.4705,116.1805 C238.884169,115.687498 239.207166,115.228502 239.4395,114.8035 C239.671834,114.378498 239.788,113.973335 239.788,113.588 C239.788,113.055331 239.652001,112.650168 239.38,112.3725 C239.107999,112.094832 238.734002,111.956 238.258,111.956 C237.861331,111.956 237.510002,112.066499 237.204,112.2875 C236.897998,112.508501 236.609001,112.766332 236.337,113.061 L234.977,111.718 C235.509669,111.151331 236.053664,110.723501 236.609,110.4345 C237.164336,110.145499 237.827329,110.001 238.598,110.001 C239.130669,110.001 239.615164,110.083166 240.0515,110.2475 C240.487836,110.411834 240.864665,110.644165 241.182,110.9445 C241.499335,111.244835 241.742999,111.604665 241.913,112.024 C242.083001,112.443335 242.168,112.913664 242.168,113.435 C242.168,113.888336 242.071668,114.350164 241.879,114.8205 C241.686332,115.290836 241.428502,115.761164 241.1055,116.2315 C240.782498,116.701836 240.414169,117.172164 240.0005,117.6425 C239.586831,118.112836 239.159002,118.574664 238.717,119.028 L239.148375,118.979125 C239.299958,118.963542 239.459332,118.948667 239.6265,118.9345 C239.960835,118.906167 240.258332,118.892 240.519,118.892 L242.695,118.892 L242.695,121 L235.096,121 Z M244.633,121 L244.633,118.977 L246.979,118.977 L246.979,112.738 L244.956,112.738 L244.956,111.191 C245.545336,111.077666 246.043998,110.941667 246.452,110.783 C246.860002,110.624333 247.256665,110.431668 247.642,110.205 L249.478,110.205 L249.478,118.977 L251.501,118.977 L251.501,121 L244.633,121 Z M256.618,121.204 C255.733996,121.204 254.986003,121.059501 254.374,120.7705 C253.761997,120.481499 253.240669,120.121669 252.81,119.691 L253.932,118.11 C254.260668,118.404668 254.614831,118.656832 254.9945,118.8665 C255.374169,119.076168 255.796331,119.181 256.261,119.181 C256.816336,119.181 257.258332,119.039335 257.587,118.756 C257.915668,118.472665 258.08,118.053336 258.08,117.498 C258.08,116.953997 257.924168,116.540335 257.6125,116.257 C257.300832,115.973665 256.890003,115.832 256.38,115.832 C256.221333,115.832 256.079667,115.8405 255.955,115.8575 C255.830333,115.8745 255.708501,115.905666 255.5895,115.951 C255.470499,115.996334 255.345834,116.053 255.2155,116.121 C255.085166,116.189 254.940667,116.273999 254.782,116.376 L253.66,115.662 L253.966,110.205 L260.086,110.205 L260.086,112.313 L256.125,112.313 L255.938,114.336 C256.142001,114.245333 256.337499,114.180167 256.5245,114.1405 C256.711501,114.100833 256.918332,114.081 257.145,114.081 C257.609669,114.081 258.048831,114.148999 258.4625,114.285 C258.876169,114.421001 259.241665,114.624999 259.559,114.897 C259.876335,115.169001 260.125666,115.514665 260.307,115.934 C260.488334,116.353335 260.579,116.851997 260.579,117.43 C260.579,118.03067 260.471334,118.563331 260.256,119.028 C260.040666,119.492669 259.751668,119.886498 259.389,120.2095 C259.026332,120.532502 258.604169,120.778999 258.1225,120.949 C257.640831,121.119001 257.139336,121.204 256.618,121.204 Z M262.5,121 L262.5,112.568 L264.54,112.568 L264.71,113.656 L264.778,113.656 C265.129335,113.304665 265.503331,113.001501 265.9,112.7465 C266.296669,112.491499 266.772664,112.364 267.328,112.364 C267.92867,112.364 268.413165,112.485832 268.7815,112.7295 C269.149835,112.973168 269.441666,113.321664 269.657,113.775 C270.031002,113.389665 270.424831,113.058168 270.8385,112.7805 C271.252169,112.502832 271.74233,112.364 272.309,112.364 C273.215671,112.364 273.881498,112.667164 274.3065,113.2735 C274.731502,113.879836 274.944,114.709995 274.944,115.764 L274.944,121 L272.445,121 L272.445,116.087 C272.445,115.474997 272.362834,115.055668 272.1985,114.829 C272.034166,114.602332 271.770668,114.489 271.408,114.489 C270.988665,114.489 270.507003,114.760997 269.963,115.305 L269.963,121 L267.464,121 L267.464,116.087 C267.464,115.474997 267.381834,115.055668 267.2175,114.829 C267.053166,114.602332 266.789668,114.489 266.427,114.489 C265.996331,114.489 265.520336,114.760997 264.999,115.305 L264.999,121 L262.5,121 Z M277.069,121 L277.069,112.568 L279.109,112.568 L279.279,113.656 L279.347,113.656 C279.698335,113.304665 280.072331,113.001501 280.469,112.7465 C280.865669,112.491499 281.341664,112.364 281.897,112.364 C282.49767,112.364 282.982165,112.485832 283.3505,112.7295 C283.718835,112.973168 284.010666,113.321664 284.226,113.775 C284.600002,113.389665 284.993831,113.058168 285.4075,112.7805 C285.821169,112.502832 286.31133,112.364 286.878,112.364 C287.784671,112.364 288.450498,112.667164 288.8755,113.2735 C289.300502,113.879836 289.513,114.709995 289.513,115.764 L289.513,121 L287.014,121 L287.014,116.087 C287.014,115.474997 286.931834,115.055668 286.7675,114.829 C286.603166,114.602332 286.339668,114.489 285.977,114.489 C285.557665,114.489 285.076003,114.760997 284.532,115.305 L284.532,121 L282.033,121 L282.033,116.087 C282.033,115.474997 281.950834,115.055668 281.7865,114.829 C281.622166,114.602332 281.358668,114.489 280.996,114.489 C280.565331,114.489 280.089336,114.760997 279.568,115.305 L279.568,121 L277.069,121 Z" id="215mm" fill="#093169" fill-rule="nonzero" transform="translate(262.245000, 115.602500) rotate(-630.000000) translate(-262.245000, -115.602500) "></path>
            <polyline id="Rectangle-Copy-3" stroke="#CBD8F2" transform="translate(228.500000, 115.500000) rotate(-630.000000) translate(-228.500000, -115.500000) " points="185.145 123 185 108 272 108 272 123"></polyline>
            <path d="M104.56,226.204 C103.675996,226.204 102.928003,226.065168 102.316,225.7875 C101.703997,225.509832 101.199669,225.138669 100.803,224.674 L101.959,223.093 C102.287668,223.410335 102.647498,223.670999 103.0385,223.875 C103.429502,224.079001 103.857331,224.181 104.322,224.181 C104.854669,224.181 105.279665,224.070501 105.597,223.8495 C105.914335,223.628499 106.073,223.314002 106.073,222.906 C106.073,222.667999 106.0305,222.452668 105.9455,222.26 C105.8605,222.067332 105.710334,221.905834 105.495,221.7755 C105.279666,221.645166 104.985002,221.543167 104.611,221.4695 C104.236998,221.395833 103.755336,221.359 103.166,221.359 L103.166,219.591 C103.653336,219.591 104.058498,219.557 104.3815,219.489 C104.704502,219.421 104.965166,219.321834 105.1635,219.1915 C105.361834,219.061166 105.5035,218.908168 105.5885,218.7325 C105.6735,218.556832 105.716,218.361334 105.716,218.146 C105.716,217.771998 105.602668,217.480168 105.376,217.2705 C105.149332,217.060832 104.820669,216.956 104.39,216.956 C104.004665,216.956 103.656168,217.040999 103.3445,217.211 C103.032832,217.381001 102.707002,217.613332 102.367,217.908 L101.109,216.378 C101.607669,215.947331 102.131831,215.610168 102.6815,215.3665 C103.231169,215.122832 103.84033,215.001 104.509,215.001 C105.064336,215.001 105.571498,215.066166 106.0305,215.1965 C106.489502,215.326834 106.880498,215.519499 107.2035,215.7745 C107.526502,216.029501 107.778666,216.338332 107.96,216.701 C108.141334,217.063668 108.232,217.482998 108.232,217.959 C108.232,218.525669 108.076168,219.004498 107.7645,219.3955 C107.452832,219.786502 107.008003,220.106665 106.43,220.356 L106.43,220.424 C107.053336,220.605334 107.566165,220.914164 107.9685,221.3505 C108.370835,221.786836 108.572,222.35633 108.572,223.059 C108.572,223.557669 108.464334,224.002498 108.249,224.3935 C108.033666,224.784502 107.744668,225.113165 107.382,225.3795 C107.019332,225.645835 106.594336,225.849833 106.107,225.9915 C105.619664,226.133167 105.104003,226.204 104.56,226.204 Z M110.034,226 L110.034,224.572 L110.835041,223.817199 C111.22128,223.45 111.586098,223.098102 111.9295,222.7615 C112.501836,222.200497 112.994831,221.673502 113.4085,221.1805 C113.822169,220.687498 114.145166,220.228502 114.3775,219.8035 C114.609834,219.378498 114.726,218.973335 114.726,218.588 C114.726,218.055331 114.590001,217.650168 114.318,217.3725 C114.045999,217.094832 113.672002,216.956 113.196,216.956 C112.799331,216.956 112.448002,217.066499 112.142,217.2875 C111.835998,217.508501 111.547001,217.766332 111.275,218.061 L109.915,216.718 C110.447669,216.151331 110.991664,215.723501 111.547,215.4345 C112.102336,215.145499 112.765329,215.001 113.536,215.001 C114.068669,215.001 114.553164,215.083166 114.9895,215.2475 C115.425836,215.411834 115.802665,215.644165 116.12,215.9445 C116.437335,216.244835 116.680999,216.604665 116.851,217.024 C117.021001,217.443335 117.106,217.913664 117.106,218.435 C117.106,218.888336 117.009668,219.350164 116.817,219.8205 C116.624332,220.290836 116.366502,220.761164 116.0435,221.2315 C115.720498,221.701836 115.352169,222.172164 114.9385,222.6425 C114.524831,223.112836 114.097002,223.574664 113.655,224.028 L114.086375,223.979125 C114.237958,223.963542 114.397332,223.948667 114.5645,223.9345 C114.898835,223.906167 115.196332,223.892 115.457,223.892 L117.633,223.892 L117.633,226 L110.034,226 Z M121.084,226 C121.129334,225.104662 121.211499,224.28017 121.3305,223.5265 C121.449501,222.77283 121.619499,222.05317 121.8405,221.3675 C122.061501,220.68183 122.344832,220.010337 122.6905,219.353 C123.036168,218.695663 123.463997,218.01567 123.974,217.313 L119.129,217.313 L119.129,215.205 L126.643,215.205 L126.643,216.735 C126.019664,217.494337 125.518169,218.205497 125.1385,218.8685 C124.758831,219.531503 124.464168,220.217163 124.2545,220.9255 C124.044832,221.633837 123.894667,222.393163 123.804,223.2035 C123.713333,224.013837 123.645334,224.945995 123.6,226 L121.084,226 Z M129.907,226.204 C129.476331,226.204 129.116501,226.053835 128.8275,225.7535 C128.538499,225.453165 128.394,225.082002 128.394,224.64 C128.394,224.186664 128.538499,223.809835 128.8275,223.5095 C129.116501,223.209165 129.476331,223.059 129.907,223.059 C130.337669,223.059 130.697499,223.209165 130.9865,223.5095 C131.275501,223.809835 131.42,224.186664 131.42,224.64 C131.42,225.082002 131.275501,225.453165 130.9865,225.7535 C130.697499,226.053835 130.337669,226.204 129.907,226.204 Z M136.656,226.204 C135.771996,226.204 135.024003,226.059501 134.412,225.7705 C133.799997,225.481499 133.278669,225.121669 132.848,224.691 L133.97,223.11 C134.298668,223.404668 134.652831,223.656832 135.0325,223.8665 C135.412169,224.076168 135.834331,224.181 136.299,224.181 C136.854336,224.181 137.296332,224.039335 137.625,223.756 C137.953668,223.472665 138.118,223.053336 138.118,222.498 C138.118,221.953997 137.962168,221.540335 137.6505,221.257 C137.338832,220.973665 136.928003,220.832 136.418,220.832 C136.259333,220.832 136.117667,220.8405 135.993,220.8575 C135.868333,220.8745 135.746501,220.905666 135.6275,220.951 C135.508499,220.996334 135.383834,221.053 135.2535,221.121 C135.123166,221.189 134.978667,221.273999 134.82,221.376 L133.698,220.662 L134.004,215.205 L140.124,215.205 L140.124,217.313 L136.163,217.313 L135.976,219.336 C136.180001,219.245333 136.375499,219.180167 136.5625,219.1405 C136.749501,219.100833 136.956332,219.081 137.183,219.081 C137.647669,219.081 138.086831,219.148999 138.5005,219.285 C138.914169,219.421001 139.279665,219.624999 139.597,219.897 C139.914335,220.169001 140.163666,220.514665 140.345,220.934 C140.526334,221.353335 140.617,221.851997 140.617,222.43 C140.617,223.03067 140.509334,223.563331 140.294,224.028 C140.078666,224.492669 139.789668,224.886498 139.427,225.2095 C139.064332,225.532502 138.642169,225.778999 138.1605,225.949 C137.678831,226.119001 137.177336,226.204 136.656,226.204 Z M142.538,226 L142.538,217.568 L144.578,217.568 L144.748,218.656 L144.816,218.656 C145.167335,218.304665 145.541331,218.001501 145.938,217.7465 C146.334669,217.491499 146.810664,217.364 147.366,217.364 C147.96667,217.364 148.451165,217.485832 148.8195,217.7295 C149.187835,217.973168 149.479666,218.321664 149.695,218.775 C150.069002,218.389665 150.462831,218.058168 150.8765,217.7805 C151.290169,217.502832 151.78033,217.364 152.347,217.364 C153.253671,217.364 153.919498,217.667164 154.3445,218.2735 C154.769502,218.879836 154.982,219.709995 154.982,220.764 L154.982,226 L152.483,226 L152.483,221.087 C152.483,220.474997 152.400834,220.055668 152.2365,219.829 C152.072166,219.602332 151.808668,219.489 151.446,219.489 C151.026665,219.489 150.545003,219.760997 150.001,220.305 L150.001,226 L147.502,226 L147.502,221.087 C147.502,220.474997 147.419834,220.055668 147.2555,219.829 C147.091166,219.602332 146.827668,219.489 146.465,219.489 C146.034331,219.489 145.558336,219.760997 145.037,220.305 L145.037,226 L142.538,226 Z M157.107,226 L157.107,217.568 L159.147,217.568 L159.317,218.656 L159.385,218.656 C159.736335,218.304665 160.110331,218.001501 160.507,217.7465 C160.903669,217.491499 161.379664,217.364 161.935,217.364 C162.53567,217.364 163.020165,217.485832 163.3885,217.7295 C163.756835,217.973168 164.048666,218.321664 164.264,218.775 C164.638002,218.389665 165.031831,218.058168 165.4455,217.7805 C165.859169,217.502832 166.349331,217.364 166.916,217.364 C167.822671,217.364 168.488498,217.667164 168.9135,218.2735 C169.338502,218.879836 169.551,219.709995 169.551,220.764 L169.551,226 L167.052,226 L167.052,221.087 C167.052,220.474997 166.969834,220.055668 166.8055,219.829 C166.641166,219.602332 166.377668,219.489 166.015,219.489 C165.595665,219.489 165.114003,219.760997 164.57,220.305 L164.57,226 L162.071,226 L162.071,221.087 C162.071,220.474997 161.988834,220.055668 161.8245,219.829 C161.660166,219.602332 161.396668,219.489 161.034,219.489 C160.603331,219.489 160.127336,219.760997 159.606,220.305 L159.606,226 L157.107,226 Z" id="327.5mm" fill="#093169" fill-rule="nonzero" transform="translate(135.177000, 220.602500) rotate(-360.000000) translate(-135.177000, -220.602500) "></path>
            <polyline id="Rectangle-Copy-3" stroke="#CBD8F2" transform="translate(135.000000, 186.675781) rotate(-540.000000) translate(-135.000000, -186.675781) " points="68.2233333 194.351562 68 179 202 179 202 194.351562"></polyline>
            <path d="M-15.343,145 L-15.343,142.977 L-12.997,142.977 L-12.997,136.738 L-15.02,136.738 L-15.02,135.191 C-14.4306637,135.077666 -13.932002,134.941667 -13.524,134.783 C-13.115998,134.624333 -12.7193353,134.431668 -12.334,134.205 L-10.498,134.205 L-10.498,142.977 L-8.475,142.977 L-8.475,145 L-15.343,145 Z M-3.069,145.204 C-3.64700289,145.204 -4.17399762,145.082168 -4.65,144.8385 C-5.12600238,144.594832 -5.531165,144.235002 -5.8655,143.759 C-6.19983501,143.282998 -6.46049907,142.69367 -6.6475,141.991 C-6.83450094,141.28833 -6.928,140.478005 -6.928,139.56 C-6.928,138.641995 -6.83450094,137.837337 -6.6475,137.146 C-6.46049907,136.454663 -6.19983501,135.873836 -5.8655,135.4035 C-5.531165,134.933164 -5.12600238,134.581834 -4.65,134.3495 C-4.17399762,134.117166 -3.64700289,134.001 -3.069,134.001 C-2.49099711,134.001 -1.96400238,134.117166 -1.488,134.3495 C-1.01199762,134.581834 -0.606835005,134.933164 -0.2725,135.4035 C0.061835005,135.873836 0.322499065,136.454663 0.5095,137.146 C0.696500935,137.837337 0.79,138.641995 0.79,139.56 C0.79,140.478005 0.696500935,141.28833 0.5095,141.991 C0.322499065,142.69367 0.061835005,143.282998 -0.2725,143.759 C-0.606835005,144.235002 -1.01199762,144.594832 -1.488,144.8385 C-1.96400238,145.082168 -2.49099711,145.204 -3.069,145.204 Z M-3.069,143.266 C-2.85366559,143.266 -2.65533424,143.212167 -2.474,143.1045 C-2.29266576,142.996833 -2.13400068,142.801335 -1.998,142.518 C-1.86199932,142.234665 -1.75716704,141.855002 -1.6835,141.379 C-1.60983296,140.902998 -1.573,140.29667 -1.573,139.56 C-1.573,138.82333 -1.60983296,138.219836 -1.6835,137.7495 C-1.75716704,137.279164 -1.86199932,136.910835 -1.998,136.6445 C-2.13400068,136.378165 -2.29266576,136.194001 -2.474,136.092 C-2.65533424,135.989999 -2.85366559,135.939 -3.069,135.939 C-3.27300102,135.939 -3.46566576,135.989999 -3.647,136.092 C-3.82833424,136.194001 -3.98699932,136.378165 -4.123,136.6445 C-4.25900068,136.910835 -4.36666627,137.279164 -4.446,137.7495 C-4.52533373,138.219836 -4.565,138.82333 -4.565,139.56 C-4.565,140.29667 -4.52533373,140.902998 -4.446,141.379 C-4.36666627,141.855002 -4.25900068,142.234665 -4.123,142.518 C-3.98699932,142.801335 -3.82833424,142.996833 -3.647,143.1045 C-3.46566576,143.212167 -3.27300102,143.266 -3.069,143.266 Z M2.048,145 L2.048,143.572 L2.84904067,142.817199 C3.23527987,142.45 3.60009828,142.098102 3.9435,141.7615 C4.5158362,141.200497 5.00883126,140.673502 5.4225,140.1805 C5.83616874,139.687498 6.1591655,139.228502 6.3915,138.8035 C6.62383449,138.378498 6.74,137.973335 6.74,137.588 C6.74,137.055331 6.60400136,136.650168 6.332,136.3725 C6.05999864,136.094832 5.68600238,135.956 5.21,135.956 C4.81333135,135.956 4.46200153,136.066499 4.156,136.2875 C3.84999847,136.508501 3.56100136,136.766332 3.289,137.061 L1.929,135.718 C2.46166933,135.151331 3.00566389,134.723501 3.561,134.4345 C4.11633611,134.145499 4.77932948,134.001 5.55,134.001 C6.08266933,134.001 6.56716449,134.083166 7.0035,134.2475 C7.43983552,134.411834 7.81666508,134.644165 8.134,134.9445 C8.45133492,135.244835 8.69499915,135.604665 8.865,136.024 C9.03500085,136.443335 9.12,136.913664 9.12,137.435 C9.12,137.888336 9.02366763,138.350164 8.831,138.8205 C8.63833237,139.290836 8.38050162,139.761164 8.0575,140.2315 C7.73449839,140.701836 7.36616874,141.172164 6.9525,141.6425 C6.53883127,142.112836 6.11100221,142.574664 5.669,143.028 L6.10037488,142.979125 C6.25195784,142.963542 6.4113325,142.948667 6.5785,142.9345 C6.91283501,142.906167 7.21033203,142.892 7.471,142.892 L9.647,142.892 L9.647,145 L2.048,145 Z M11.5,145 L11.5,136.568 L13.54,136.568 L13.71,137.656 L13.778,137.656 C14.1293351,137.304665 14.5033314,137.001501 14.9,136.7465 C15.2966687,136.491499 15.7726639,136.364 16.328,136.364 C16.9286697,136.364 17.4131648,136.485832 17.7815,136.7295 C18.1498352,136.973168 18.4416656,137.321664 18.657,137.775 C19.0310019,137.389665 19.4248313,137.058168 19.8385,136.7805 C20.2521687,136.502832 20.7423305,136.364 21.309,136.364 C22.2156712,136.364 22.8814979,136.667164 23.3065,137.2735 C23.7315021,137.879836 23.944,138.709995 23.944,139.764 L23.944,145 L21.445,145 L21.445,140.087 C21.445,139.474997 21.3628342,139.055668 21.1985,138.829 C21.0341658,138.602332 20.7706685,138.489 20.408,138.489 C19.9886646,138.489 19.5070027,138.760997 18.963,139.305 L18.963,145 L16.464,145 L16.464,140.087 C16.464,139.474997 16.3818342,139.055668 16.2175,138.829 C16.0531658,138.602332 15.7896685,138.489 15.427,138.489 C14.9963312,138.489 14.5203359,138.760997 13.999,139.305 L13.999,145 L11.5,145 Z M26.069,145 L26.069,136.568 L28.109,136.568 L28.279,137.656 L28.347,137.656 C28.6983351,137.304665 29.0723314,137.001501 29.469,136.7465 C29.8656687,136.491499 30.3416639,136.364 30.897,136.364 C31.4976697,136.364 31.9821648,136.485832 32.3505,136.7295 C32.7188352,136.973168 33.0106656,137.321664 33.226,137.775 C33.6000019,137.389665 33.9938313,137.058168 34.4075,136.7805 C34.8211687,136.502832 35.3113305,136.364 35.878,136.364 C36.7846712,136.364 37.4504979,136.667164 37.8755,137.2735 C38.3005021,137.879836 38.513,138.709995 38.513,139.764 L38.513,145 L36.014,145 L36.014,140.087 C36.014,139.474997 35.9318342,139.055668 35.7675,138.829 C35.6031658,138.602332 35.3396685,138.489 34.977,138.489 C34.5576646,138.489 34.0760027,138.760997 33.532,139.305 L33.532,145 L31.033,145 L31.033,140.087 C31.033,139.474997 30.9508342,139.055668 30.7865,138.829 C30.6221658,138.602332 30.3586685,138.489 29.996,138.489 C29.5653312,138.489 29.0893359,138.760997 28.568,139.305 L28.568,145 L26.069,145 Z" id="102mm" fill="#093169" fill-rule="nonzero" transform="translate(11.585000, 139.602500) rotate(-450.000000) translate(-11.585000, -139.602500) "></path>
            <polyline id="Rectangle-Copy-3" stroke="#CBD8F2" transform="translate(45.000000, 139.000000) rotate(-450.000000) translate(-45.000000, -139.000000) " points="24.07 146.5 24 131.5 66 131.5 66 146.5"></polyline>
        </g>
    </g>
</svg>