<?xml version="1.0" encoding="UTF-8"?>
<svg width="600px" height="451px" viewBox="0 0 600 451" version="1.1" xmlns="http://www.w3.org/2000/svg" xmlns:xlink="http://www.w3.org/1999/xlink">
    <!-- Generator: Sketch 58 (84663) - https://sketch.com -->
    <title>quions/Q500</title>
    <desc>Created with Sketch.</desc>
    <g id="quions/Q500" stroke="none" stroke-width="1" fill="none" fill-rule="evenodd">
        <rect fill="#F5F9FF" x="0" y="0" width="600" height="451"></rect>
        <g id="Group" transform="translate(60.000000, 35.000000)">
            <g id="Group-Copy" transform="translate(0.000000, 191.000000)" fill="#FFFFFF" stroke="#FF5959" stroke-opacity="0.6">
                <rect id="Rectangle" x="51" y="0" width="24" height="18"></rect>
                <rect id="Rectangle-Copy-5" x="51" y="42" width="24" height="18"></rect>
                <rect id="Rectangle-Copy-6" x="27" y="21" width="48" height="18"></rect>
                <rect id="Rectangle-Copy-9" x="0" y="21" width="24" height="18"></rect>
                <rect id="Rectangle-Copy-7" x="0" y="0" width="48" height="18"></rect>
                <rect id="Rectangle-Copy-8" x="0" y="42" width="48" height="18"></rect>
            </g>
            <g id="Group-Copy-3" transform="translate(0.000000, 65.000000)" fill="#FFFFFF" stroke="#FF5959" stroke-opacity="0.6">
                <rect id="Rectangle" x="51" y="0" width="24" height="18"></rect>
                <rect id="Rectangle-Copy-5" x="51" y="42" width="24" height="18"></rect>
                <rect id="Rectangle-Copy-6" x="27" y="21" width="48" height="18"></rect>
                <rect id="Rectangle-Copy-9" x="0" y="21" width="24" height="18"></rect>
                <rect id="Rectangle-Copy-7" x="0" y="0" width="48" height="18"></rect>
                <rect id="Rectangle-Copy-8" x="0" y="42" width="48" height="18"></rect>
            </g>
            <rect id="Rectangle-Copy-9" stroke-opacity="0.6" stroke="#FF5959" fill="#FFFFFF" x="0" y="254" width="21" height="18"></rect>
            <rect id="Rectangle-Copy-14" stroke-opacity="0.6" stroke="#FF5959" fill="#FFFFFF" x="0" y="275" width="21" height="18"></rect>
            <rect id="Rectangle-Copy-10" stroke-opacity="0.6" stroke="#FF5959" fill="#FFFFFF" x="0" y="296" width="21" height="18"></rect>
            <rect id="Rectangle-Copy-9" stroke-opacity="0.6" stroke="#FF5959" fill="#FFFFFF" x="0" y="128" width="21" height="18"></rect>
            <rect id="Rectangle-Copy-13" stroke-opacity="0.6" stroke="#FF5959" fill="#FFFFFF" x="0" y="149" width="21" height="18"></rect>
            <rect id="Rectangle-Copy-10" stroke-opacity="0.6" stroke="#FF5959" fill="#FFFFFF" x="0" y="170" width="21" height="18"></rect>
            <g id="Group-2" transform="translate(24.000000, 254.000000)" stroke="#CBD8F2">
                <polygon id="Rectangle-Copy-4" fill="#FFFFFF" points="0 3.83693077e-13 115.119565 3.83693077e-13 119 3 119 57 115.119565 60 0 60"></polygon>
                <polygon id="Rectangle-Copy-11" fill="#FFFFFF" stroke-linejoin="bevel" points="3 3 119 3 119 57 3 57"></polygon>
                <path d="M3,3 L0,0" id="Line"></path>
                <path d="M3,60 L0,57" id="Line-Copy" transform="translate(1.500000, 58.500000) rotate(-90.000000) translate(-1.500000, -58.500000) "></path>
            </g>
            <g id="Group-2-Copy" transform="translate(24.000000, 128.000000)" stroke="#CBD8F2">
                <polygon id="Rectangle-Copy-4" fill="#FFFFFF" points="0 -3.55271368e-15 115.119565 -3.55271368e-15 119 3 119 57 115.119565 60 0 60"></polygon>
                <polygon id="Rectangle-Copy-11" fill="#FFFFFF" stroke-linejoin="bevel" points="3 3 119 3 119 57 3 57"></polygon>
                <path d="M3,3 L0,0" id="Line"></path>
                <path d="M3,60 L0,57" id="Line-Copy" transform="translate(1.500000, 58.500000) rotate(-90.000000) translate(-1.500000, -58.500000) "></path>
            </g>
            <g id="Group-5" transform="translate(156.000000, 65.000000)">
                <path d="M11.596,37 L11.596,35.572 L12.3970407,34.8171994 C12.7832799,34.4500002 13.1480983,34.0981017 13.4915,33.7615 C14.0638362,33.2004972 14.5568313,32.6735025 14.9705,32.1805 C15.3841687,31.6874975 15.7071655,31.2285021 15.9395,30.8035 C16.1718345,30.3784979 16.288,29.9733353 16.288,29.588 C16.288,29.0553307 16.1520014,28.6501681 15.88,28.3725 C15.6079986,28.0948319 15.2340024,27.956 14.758,27.956 C14.3613313,27.956 14.0100015,28.0664989 13.704,28.2875 C13.3979985,28.5085011 13.1090014,28.7663319 12.837,29.061 L11.477,27.718 C12.0096693,27.1513305 12.5536639,26.7235014 13.109,26.4345 C13.6643361,26.1454986 14.3273295,26.001 15.098,26.001 C15.6306693,26.001 16.1151645,26.0831658 16.5515,26.2475 C16.9878355,26.4118342 17.3646651,26.6441652 17.682,26.9445 C17.9993349,27.2448348 18.2429991,27.6046646 18.413,28.024 C18.5830008,28.4433354 18.668,28.9136641 18.668,29.435 C18.668,29.8883356 18.5716676,30.3501643 18.379,30.8205 C18.1863324,31.2908357 17.9285016,31.7611643 17.6055,32.2315 C17.2824984,32.7018357 16.9141687,33.1721643 16.5005,33.6425 C16.0868313,34.1128357 15.6590022,34.5746644 15.217,35.028 L15.6483749,34.979125 C15.7999578,34.9635417 15.9593325,34.9486667 16.1265,34.9345 C16.460835,34.9061665 16.758332,34.892 17.019,34.892 L19.195,34.892 L19.195,37 L11.596,37 Z M21.133,37 L21.133,34.977 L23.479,34.977 L23.479,28.738 L21.456,28.738 L21.456,27.191 C22.0453363,27.0776661 22.543998,26.9416675 22.952,26.783 C23.360002,26.6243325 23.7566647,26.4316678 24.142,26.205 L25.978,26.205 L25.978,34.977 L28.001,34.977 L28.001,37 L21.133,37 Z M33.118,37.204 C32.2339956,37.204 31.4860031,37.0595014 30.874,36.7705 C30.2619969,36.4814986 29.7406688,36.1216688 29.31,35.691 L30.432,34.11 C30.7606683,34.4046681 31.1148314,34.6568323 31.4945,34.8665 C31.8741686,35.0761677 32.296331,35.181 32.761,35.181 C33.3163361,35.181 33.7583317,35.0393348 34.087,34.756 C34.4156683,34.4726652 34.58,34.0533361 34.58,33.498 C34.58,32.9539973 34.4241682,32.5403347 34.1125,32.257 C33.8008318,31.9736652 33.3900025,31.832 32.88,31.832 C32.7213325,31.832 32.5796673,31.8404999 32.455,31.8575 C32.3303327,31.8745001 32.2085006,31.9056664 32.0895,31.951 C31.9704994,31.9963336 31.845834,32.0529997 31.7155,32.121 C31.585166,32.1890003 31.4406675,32.2739995 31.282,32.376 L30.16,31.662 L30.466,26.205 L36.586,26.205 L36.586,28.313 L32.625,28.313 L32.438,30.336 C32.642001,30.2453329 32.8374991,30.1801669 33.0245,30.1405 C33.2115009,30.1008331 33.4183322,30.081 33.645,30.081 C34.109669,30.081 34.5488313,30.1489993 34.9625,30.285 C35.3761687,30.4210007 35.7416651,30.6249986 36.059,30.897 C36.3763349,31.1690014 36.6256658,31.5146646 36.807,31.934 C36.9883342,32.3533354 37.079,32.8519971 37.079,33.43 C37.079,34.0306697 36.9713344,34.563331 36.756,35.028 C36.5406656,35.492669 36.2516685,35.8864984 35.889,36.2095 C35.5263315,36.5325016 35.1041691,36.7789992 34.6225,36.949 C34.1408309,37.1190008 33.6393359,37.204 33.118,37.204 Z M39,37 L39,28.568 L41.04,28.568 L41.21,29.656 L41.278,29.656 C41.6293351,29.3046649 42.0033314,29.0015013 42.4,28.7465 C42.7966687,28.4914987 43.2726639,28.364 43.828,28.364 C44.4286697,28.364 44.9131648,28.4858321 45.2815,28.7295 C45.6498352,28.9731679 45.9416656,29.3216644 46.157,29.775 C46.5310019,29.3896647 46.9248313,29.0581681 47.3385,28.7805 C47.7521687,28.5028319 48.2423305,28.364 48.809,28.364 C49.7156712,28.364 50.3814979,28.6671636 50.8065,29.2735 C51.2315021,29.8798364 51.444,30.7099947 51.444,31.764 L51.444,37 L48.945,37 L48.945,32.087 C48.945,31.4749969 48.8628342,31.0556678 48.6985,30.829 C48.5341658,30.6023322 48.2706685,30.489 47.908,30.489 C47.4886646,30.489 47.0070027,30.7609973 46.463,31.305 L46.463,37 L43.964,37 L43.964,32.087 C43.964,31.4749969 43.8818342,31.0556678 43.7175,30.829 C43.5531658,30.6023322 43.2896685,30.489 42.927,30.489 C42.4963312,30.489 42.0203359,30.7609973 41.499,31.305 L41.499,37 L39,37 Z M53.569,37 L53.569,28.568 L55.609,28.568 L55.779,29.656 L55.847,29.656 C56.1983351,29.3046649 56.5723314,29.0015013 56.969,28.7465 C57.3656687,28.4914987 57.8416639,28.364 58.397,28.364 C58.9976697,28.364 59.4821648,28.4858321 59.8505,28.7295 C60.2188352,28.9731679 60.5106656,29.3216644 60.726,29.775 C61.1000019,29.3896647 61.4938313,29.0581681 61.9075,28.7805 C62.3211687,28.5028319 62.8113305,28.364 63.378,28.364 C64.2846712,28.364 64.9504979,28.6671636 65.3755,29.2735 C65.8005021,29.8798364 66.013,30.7099947 66.013,31.764 L66.013,37 L63.514,37 L63.514,32.087 C63.514,31.4749969 63.4318342,31.0556678 63.2675,30.829 C63.1031658,30.6023322 62.8396685,30.489 62.477,30.489 C62.0576646,30.489 61.5760027,30.7609973 61.032,31.305 L61.032,37 L58.533,37 L58.533,32.087 C58.533,31.4749969 58.4508342,31.0556678 58.2865,30.829 C58.1221658,30.6023322 57.8586685,30.489 57.496,30.489 C57.0653312,30.489 56.5893359,30.7609973 56.068,31.305 L56.068,37 L53.569,37 Z" id="215mm" fill="#093169" fill-rule="nonzero" transform="translate(38.745000, 31.602500) rotate(-270.000000) translate(-38.745000, -31.602500) "></path>
                <polyline id="Rectangle-Copy-3" stroke="#CBD8F2" transform="translate(8.000000, 30.500000) rotate(-270.000000) translate(-8.000000, -30.500000) " points="-21.9 38 -22 23 38 23 38 38"></polyline>
            </g>
            <g id="Group-5-Copy" transform="translate(110.000000, 25.500000) rotate(-90.000000) translate(-110.000000, -25.500000) translate(85.000000, -5.000000)">
                <path d="M11.596,37 L11.596,35.572 L12.3970407,34.8171994 C12.7832799,34.4500002 13.1480983,34.0981017 13.4915,33.7615 C14.0638362,33.2004972 14.5568313,32.6735025 14.9705,32.1805 C15.3841687,31.6874975 15.7071655,31.2285021 15.9395,30.8035 C16.1718345,30.3784979 16.288,29.9733353 16.288,29.588 C16.288,29.0553307 16.1520014,28.6501681 15.88,28.3725 C15.6079986,28.0948319 15.2340024,27.956 14.758,27.956 C14.3613313,27.956 14.0100015,28.0664989 13.704,28.2875 C13.3979985,28.5085011 13.1090014,28.7663319 12.837,29.061 L11.477,27.718 C12.0096693,27.1513305 12.5536639,26.7235014 13.109,26.4345 C13.6643361,26.1454986 14.3273295,26.001 15.098,26.001 C15.6306693,26.001 16.1151645,26.0831658 16.5515,26.2475 C16.9878355,26.4118342 17.3646651,26.6441652 17.682,26.9445 C17.9993349,27.2448348 18.2429991,27.6046646 18.413,28.024 C18.5830008,28.4433354 18.668,28.9136641 18.668,29.435 C18.668,29.8883356 18.5716676,30.3501643 18.379,30.8205 C18.1863324,31.2908357 17.9285016,31.7611643 17.6055,32.2315 C17.2824984,32.7018357 16.9141687,33.1721643 16.5005,33.6425 C16.0868313,34.1128357 15.6590022,34.5746644 15.217,35.028 L15.6483749,34.979125 C15.7999578,34.9635417 15.9593325,34.9486667 16.1265,34.9345 C16.460835,34.9061665 16.758332,34.892 17.019,34.892 L19.195,34.892 L19.195,37 L11.596,37 Z M21.133,37 L21.133,34.977 L23.479,34.977 L23.479,28.738 L21.456,28.738 L21.456,27.191 C22.0453363,27.0776661 22.543998,26.9416675 22.952,26.783 C23.360002,26.6243325 23.7566647,26.4316678 24.142,26.205 L25.978,26.205 L25.978,34.977 L28.001,34.977 L28.001,37 L21.133,37 Z M33.118,37.204 C32.2339956,37.204 31.4860031,37.0595014 30.874,36.7705 C30.2619969,36.4814986 29.7406688,36.1216688 29.31,35.691 L30.432,34.11 C30.7606683,34.4046681 31.1148314,34.6568323 31.4945,34.8665 C31.8741686,35.0761677 32.296331,35.181 32.761,35.181 C33.3163361,35.181 33.7583317,35.0393348 34.087,34.756 C34.4156683,34.4726652 34.58,34.0533361 34.58,33.498 C34.58,32.9539973 34.4241682,32.5403347 34.1125,32.257 C33.8008318,31.9736652 33.3900025,31.832 32.88,31.832 C32.7213325,31.832 32.5796673,31.8404999 32.455,31.8575 C32.3303327,31.8745001 32.2085006,31.9056664 32.0895,31.951 C31.9704994,31.9963336 31.845834,32.0529997 31.7155,32.121 C31.585166,32.1890003 31.4406675,32.2739995 31.282,32.376 L30.16,31.662 L30.466,26.205 L36.586,26.205 L36.586,28.313 L32.625,28.313 L32.438,30.336 C32.642001,30.2453329 32.8374991,30.1801669 33.0245,30.1405 C33.2115009,30.1008331 33.4183322,30.081 33.645,30.081 C34.109669,30.081 34.5488313,30.1489993 34.9625,30.285 C35.3761687,30.4210007 35.7416651,30.6249986 36.059,30.897 C36.3763349,31.1690014 36.6256658,31.5146646 36.807,31.934 C36.9883342,32.3533354 37.079,32.8519971 37.079,33.43 C37.079,34.0306697 36.9713344,34.563331 36.756,35.028 C36.5406656,35.492669 36.2516685,35.8864984 35.889,36.2095 C35.5263315,36.5325016 35.1041691,36.7789992 34.6225,36.949 C34.1408309,37.1190008 33.6393359,37.204 33.118,37.204 Z M39,37 L39,28.568 L41.04,28.568 L41.21,29.656 L41.278,29.656 C41.6293351,29.3046649 42.0033314,29.0015013 42.4,28.7465 C42.7966687,28.4914987 43.2726639,28.364 43.828,28.364 C44.4286697,28.364 44.9131648,28.4858321 45.2815,28.7295 C45.6498352,28.9731679 45.9416656,29.3216644 46.157,29.775 C46.5310019,29.3896647 46.9248313,29.0581681 47.3385,28.7805 C47.7521687,28.5028319 48.2423305,28.364 48.809,28.364 C49.7156712,28.364 50.3814979,28.6671636 50.8065,29.2735 C51.2315021,29.8798364 51.444,30.7099947 51.444,31.764 L51.444,37 L48.945,37 L48.945,32.087 C48.945,31.4749969 48.8628342,31.0556678 48.6985,30.829 C48.5341658,30.6023322 48.2706685,30.489 47.908,30.489 C47.4886646,30.489 47.0070027,30.7609973 46.463,31.305 L46.463,37 L43.964,37 L43.964,32.087 C43.964,31.4749969 43.8818342,31.0556678 43.7175,30.829 C43.5531658,30.6023322 43.2896685,30.489 42.927,30.489 C42.4963312,30.489 42.0203359,30.7609973 41.499,31.305 L41.499,37 L39,37 Z M53.569,37 L53.569,28.568 L55.609,28.568 L55.779,29.656 L55.847,29.656 C56.1983351,29.3046649 56.5723314,29.0015013 56.969,28.7465 C57.3656687,28.4914987 57.8416639,28.364 58.397,28.364 C58.9976697,28.364 59.4821648,28.4858321 59.8505,28.7295 C60.2188352,28.9731679 60.5106656,29.3216644 60.726,29.775 C61.1000019,29.3896647 61.4938313,29.0581681 61.9075,28.7805 C62.3211687,28.5028319 62.8113305,28.364 63.378,28.364 C64.2846712,28.364 64.9504979,28.6671636 65.3755,29.2735 C65.8005021,29.8798364 66.013,30.7099947 66.013,31.764 L66.013,37 L63.514,37 L63.514,32.087 C63.514,31.4749969 63.4318342,31.0556678 63.2675,30.829 C63.1031658,30.6023322 62.8396685,30.489 62.477,30.489 C62.0576646,30.489 61.5760027,30.7609973 61.032,31.305 L61.032,37 L58.533,37 L58.533,32.087 C58.533,31.4749969 58.4508342,31.0556678 58.2865,30.829 C58.1221658,30.6023322 57.8586685,30.489 57.496,30.489 C57.0653312,30.489 56.5893359,30.7609973 56.068,31.305 L56.068,37 L53.569,37 Z" id="215mm" fill="#093169" fill-rule="nonzero" transform="translate(38.745000, 31.602500) rotate(-270.000000) translate(-38.745000, -31.602500) "></path>
                <polyline id="Rectangle-Copy-3" stroke="#CBD8F2" transform="translate(8.000000, 30.500000) rotate(-270.000000) translate(-8.000000, -30.500000) " points="-21.9 38 -22 23 38 23 38 38"></polyline>
            </g>
            <path d="M59.465,376 L59.465,373.416 L54.79,373.416 L54.79,371.699 L58.734,365.205 L61.794,365.205 L61.794,371.512 L63.035,371.512 L63.035,373.416 L61.794,373.416 L61.794,376 L59.465,376 Z M57.187,371.512 L59.465,371.512 L59.465,369.761 L59.47044,369.31356 C59.4740666,369.1558 59.4795066,368.989427 59.48676,368.814441 L59.5398,367.78356 C59.5488666,367.62852 59.5579333,367.483001 59.567,367.347 L59.499,367.347 C59.3629993,367.641668 59.2213341,367.941998 59.074,368.248 C58.9266659,368.554002 58.7736675,368.859998 58.615,369.166 L57.187,371.512 Z M68.441,376 L68.441,373.416 L63.766,373.416 L63.766,371.699 L67.71,365.205 L70.77,365.205 L70.77,371.512 L72.011,371.512 L72.011,373.416 L70.77,373.416 L70.77,376 L68.441,376 Z M66.163,371.512 L68.441,371.512 L68.441,369.761 C68.441,369.479932 68.4482533,369.164414 68.46276,368.814441 L68.5158,367.78356 C68.5248666,367.62852 68.5339333,367.483001 68.543,367.347 L68.475,367.347 L68.05,368.248 L68.05,368.248 C67.9026659,368.554002 67.7496675,368.859998 67.591,369.166 L66.163,371.512 Z M76.907,376.204 C76.3289971,376.204 75.8020024,376.082168 75.326,375.8385 C74.8499976,375.594832 74.444835,375.235002 74.1105,374.759 C73.776165,374.282998 73.5155009,373.69367 73.3285,372.991 C73.1414991,372.28833 73.048,371.478005 73.048,370.56 C73.048,369.641995 73.1414991,368.837337 73.3285,368.146 C73.5155009,367.454663 73.776165,366.873836 74.1105,366.4035 C74.444835,365.933164 74.8499976,365.581834 75.326,365.3495 C75.8020024,365.117166 76.3289971,365.001 76.907,365.001 C77.4850029,365.001 78.0119976,365.117166 78.488,365.3495 C78.9640024,365.581834 79.369165,365.933164 79.7035,366.4035 C80.037835,366.873836 80.2984991,367.454663 80.4855,368.146 C80.6725009,368.837337 80.766,369.641995 80.766,370.56 C80.766,371.478005 80.6725009,372.28833 80.4855,372.991 C80.2984991,373.69367 80.037835,374.282998 79.7035,374.759 C79.369165,375.235002 78.9640024,375.594832 78.488,375.8385 C78.0119976,376.082168 77.4850029,376.204 76.907,376.204 Z M76.907,374.266 C77.1223344,374.266 77.3206658,374.212167 77.502,374.1045 C77.6833342,373.996833 77.8419993,373.801335 77.978,373.518 C78.1140007,373.234665 78.218833,372.855002 78.2925,372.379 C78.366167,371.902998 78.403,371.29667 78.403,370.56 C78.403,369.82333 78.366167,369.219836 78.2925,368.7495 C78.218833,368.279164 78.1140007,367.910835 77.978,367.6445 C77.8419993,367.378165 77.6833342,367.194001 77.502,367.092 C77.3206658,366.989999 77.1223344,366.939 76.907,366.939 C76.702999,366.939 76.5103342,366.989999 76.329,367.092 C76.1476658,367.194001 75.9890007,367.378165 75.853,367.6445 C75.7169993,367.910835 75.6093337,368.279164 75.53,368.7495 C75.4506663,369.219836 75.411,369.82333 75.411,370.56 C75.411,371.29667 75.4506663,371.902998 75.53,372.379 C75.6093337,372.855002 75.7169993,373.234665 75.853,373.518 C75.9890007,373.801335 76.1476658,373.996833 76.329,374.1045 C76.5103342,374.212167 76.702999,374.266 76.907,374.266 Z M82.5,376 L82.5,367.568 L84.54,367.568 L84.71,368.656 L84.778,368.656 C85.1293351,368.304665 85.5033313,368.001501 85.9,367.7465 C86.2966687,367.491499 86.7726639,367.364 87.328,367.364 C87.9286697,367.364 88.4131648,367.485832 88.7815,367.7295 C89.1498352,367.973168 89.4416656,368.321664 89.657,368.775 C90.0310019,368.389665 90.4248313,368.058168 90.8385,367.7805 C91.2521687,367.502832 91.7423305,367.364 92.309,367.364 C93.2156712,367.364 93.8814979,367.667164 94.3065,368.2735 C94.7315021,368.879836 94.944,369.709995 94.944,370.764 L94.944,376 L92.445,376 L92.445,371.087 C92.445,370.474997 92.3628342,370.055668 92.1985,369.829 C92.0341658,369.602332 91.7706685,369.489 91.408,369.489 C90.9886646,369.489 90.5070027,369.760997 89.963,370.305 L89.963,376 L87.464,376 L87.464,371.087 C87.464,370.474997 87.3818342,370.055668 87.2175,369.829 C87.0531658,369.602332 86.7896685,369.489 86.427,369.489 C85.9963312,369.489 85.5203359,369.760997 84.999,370.305 L84.999,376 L82.5,376 Z M97.069,376 L97.069,367.568 L99.109,367.568 L99.279,368.656 L99.347,368.656 C99.6983351,368.304665 100.072331,368.001501 100.469,367.7465 C100.865669,367.491499 101.341664,367.364 101.897,367.364 C102.49767,367.364 102.982165,367.485832 103.3505,367.7295 C103.718835,367.973168 104.010666,368.321664 104.226,368.775 C104.600002,368.389665 104.993831,368.058168 105.4075,367.7805 C105.821169,367.502832 106.311331,367.364 106.878,367.364 C107.784671,367.364 108.450498,367.667164 108.8755,368.2735 C109.300502,368.879836 109.513,369.709995 109.513,370.764 L109.513,376 L107.014,376 L107.014,371.087 C107.014,370.474997 106.931834,370.055668 106.7675,369.829 C106.603166,369.602332 106.339668,369.489 105.977,369.489 C105.557665,369.489 105.076003,369.760997 104.532,370.305 L104.532,376 L102.033,376 L102.033,371.087 C102.033,370.474997 101.950834,370.055668 101.7865,369.829 C101.622166,369.602332 101.358668,369.489 100.996,369.489 C100.565331,369.489 100.089336,369.760997 99.568,370.305 L99.568,376 L97.069,376 Z" id="440mm" fill="#093169" fill-rule="nonzero" transform="translate(82.151500, 370.602500) rotate(-360.000000) translate(-82.151500, -370.602500) "></path>
            <polyline id="Rectangle-Copy-3" stroke="#CBD8F2" transform="translate(82.000000, 336.500000) rotate(-540.000000) translate(-82.000000, -336.500000) " points="24.1933333 344 24 329 140 329 140 344"></polyline>
            <g id="Group-3" transform="translate(78.000000, 191.000000)" stroke="#CBD8F2">
                <polygon id="Rectangle-Copy-2" fill="#FFFFFF" points="0 8.32667268e-16 62 0 65 3 65 57 62 60 0 60"></polygon>
                <polygon id="Rectangle-Copy-12" fill="#FFFFFF" stroke-linejoin="bevel" points="3 3 65 3 65 57 3 57"></polygon>
                <path d="M3,57 L0,60" id="Line-2"></path>
                <path d="M3,0 L0,3" id="Line-2-Copy" transform="translate(1.500000, 1.500000) rotate(-270.000000) translate(-1.500000, -1.500000) "></path>
            </g>
            <g id="Group-3-Copy" transform="translate(78.000000, 65.000000)" stroke="#CBD8F2">
                <polygon id="Rectangle-Copy-2" fill="#FFFFFF" points="0 8.32667268e-16 62 0 65 3 65 57 62 60 0 60"></polygon>
                <rect id="Rectangle-Copy-12" fill="#FFFFFF" stroke-linejoin="bevel" x="3" y="3" width="62" height="54"></rect>
                <path d="M3,57 L0,60" id="Line-2"></path>
                <path d="M3,0 L0,3" id="Line-2-Copy" transform="translate(1.500000, 1.500000) rotate(-270.000000) translate(-1.500000, -1.500000) "></path>
            </g>
        </g>
        <g id="Group-7" transform="translate(241.000000, 110.000000)">
            <g id="Group-4" transform="translate(72.000000, 72.000000)" fill="#FFFFFF" stroke="#CBD8F2" stroke-linejoin="bevel">
                <polygon id="Stroke-1" points="0 88.3575 180 88.3575 180 0.5625 138.291583 0.5625 138.291583 46.6875 0 46.6875"></polygon>
                <polygon id="Rectangle-Copy" transform="translate(91.687500, 90.000000) rotate(-270.000000) translate(-91.687500, -90.000000) " points="89.8125 1.6875 93.5625 -1.6875 93.5625 177.9375 89.8125 181.6875"></polygon>
                <polygon id="Rectangle" points="179.625 0.5625 183.375 4.3125 183.375 91.875 179.625 88.3125"></polygon>
            </g>
            <g id="Group-6" transform="translate(203.000000, 0.000000)">
                <path d="M1.657,17 L1.657,14.977 L4.003,14.977 L4.003,8.738 L1.98,8.738 L1.98,7.191 C2.56933628,7.0776661 3.06799796,6.94166746 3.476,6.783 C3.88400204,6.62433254 4.28066474,6.4316678 4.666,6.205 L6.502,6.205 L6.502,14.977 L8.525,14.977 L8.525,17 L1.657,17 Z M13.931,17.204 C13.3529971,17.204 12.8260024,17.0821679 12.35,16.8385 C11.8739976,16.5948321 11.468835,16.2350024 11.1345,15.759 C10.800165,15.2829976 10.5395009,14.6936702 10.3525,13.991 C10.1654991,13.2883298 10.072,12.4780046 10.072,11.56 C10.072,10.6419954 10.1654991,9.83733679 10.3525,9.146 C10.5395009,8.45466321 10.800165,7.87383568 11.1345,7.4035 C11.468835,6.93316431 11.8739976,6.58183449 12.35,6.3495 C12.8260024,6.1171655 13.3529971,6.001 13.931,6.001 C14.5090029,6.001 15.0359976,6.1171655 15.512,6.3495 C15.9880024,6.58183449 16.393165,6.93316431 16.7275,7.4035 C17.061835,7.87383568 17.3224991,8.45466321 17.5095,9.146 C17.6965009,9.83733679 17.79,10.6419954 17.79,11.56 C17.79,12.4780046 17.6965009,13.2883298 17.5095,13.991 C17.3224991,14.6936702 17.061835,15.2829976 16.7275,15.759 C16.393165,16.2350024 15.9880024,16.5948321 15.512,16.8385 C15.0359976,17.0821679 14.5090029,17.204 13.931,17.204 Z M13.931,15.266 C14.1463344,15.266 14.3446658,15.2121672 14.526,15.1045 C14.7073342,14.9968328 14.8659993,14.8013347 15.002,14.518 C15.1380007,14.2346652 15.242833,13.8550024 15.3165,13.379 C15.390167,12.9029976 15.427,12.2966703 15.427,11.56 C15.427,10.8233296 15.390167,10.2198357 15.3165,9.7495 C15.242833,9.27916431 15.1380007,8.91083466 15.002,8.6445 C14.8659993,8.37816533 14.7073342,8.19400051 14.526,8.092 C14.3446658,7.98999949 14.1463344,7.939 13.931,7.939 C13.726999,7.939 13.5343342,7.98999949 13.353,8.092 C13.1716658,8.19400051 13.0130007,8.37816533 12.877,8.6445 C12.7409993,8.91083466 12.6333337,9.27916431 12.554,9.7495 C12.4746663,10.2198357 12.435,10.8233296 12.435,11.56 C12.435,12.2966703 12.4746663,12.9029976 12.554,13.379 C12.6333337,13.8550024 12.7409993,14.2346652 12.877,14.518 C13.0130007,14.8013347 13.1716658,14.9968328 13.353,15.1045 C13.5343342,15.2121672 13.726999,15.266 13.931,15.266 Z M19.048,17 L19.048,15.572 L19.8490407,14.8171994 C20.2352799,14.4500002 20.6000983,14.0981017 20.9435,13.7615 C21.5158362,13.2004972 22.0088313,12.6735025 22.4225,12.1805 C22.8361687,11.6874975 23.1591655,11.2285021 23.3915,10.8035 C23.6238345,10.3784979 23.74,9.97333526 23.74,9.588 C23.74,9.05533067 23.6040014,8.65016805 23.332,8.3725 C23.0599986,8.09483194 22.6860024,7.956 22.21,7.956 C21.8133313,7.956 21.4620015,8.06649889 21.156,8.2875 C20.8499985,8.50850111 20.5610014,8.76633186 20.289,9.061 L18.929,7.718 C19.4616693,7.1513305 20.0056639,6.72350145 20.561,6.4345 C21.1163361,6.14549855 21.7793295,6.001 22.55,6.001 C23.0826693,6.001 23.5671645,6.08316584 24.0035,6.2475 C24.4398355,6.41183416 24.8166651,6.64416517 25.134,6.9445 C25.4513349,7.24483483 25.6949992,7.60466457 25.865,8.024 C26.0350009,8.44333543 26.12,8.91366406 26.12,9.435 C26.12,9.8883356 26.0236676,10.3501643 25.831,10.8205 C25.6383324,11.2908357 25.3805016,11.7611643 25.0575,12.2315 C24.7344984,12.7018357 24.3661687,13.1721643 23.9525,13.6425 C23.5388313,14.1128357 23.1110022,14.5746644 22.669,15.028 L23.1003749,14.979125 C23.2519578,14.9635417 23.4113325,14.9486667 23.5785,14.9345 C23.912835,14.9061665 24.210332,14.892 24.471,14.892 L26.647,14.892 L26.647,17 L19.048,17 Z M28.5,17 L28.5,8.568 L30.54,8.568 L30.71,9.656 L30.778,9.656 C31.1293351,9.30466491 31.5033314,9.00150127 31.9,8.7465 C32.2966687,8.49149872 32.7726639,8.364 33.328,8.364 C33.9286697,8.364 34.4131648,8.48583211 34.7815,8.7295 C35.1498352,8.97316788 35.4416656,9.3216644 35.657,9.775 C36.0310019,9.38966474 36.4248313,9.05816805 36.8385,8.7805 C37.2521687,8.50283194 37.7423305,8.364 38.309,8.364 C39.2156712,8.364 39.8814979,8.66716363 40.3065,9.2735 C40.7315021,9.87983636 40.944,10.7099947 40.944,11.764 L40.944,17 L38.445,17 L38.445,12.087 C38.445,11.4749969 38.3628342,11.0556678 38.1985,10.829 C38.0341658,10.6023322 37.7706685,10.489 37.408,10.489 C36.9886646,10.489 36.5070027,10.7609973 35.963,11.305 L35.963,17 L33.464,17 L33.464,12.087 C33.464,11.4749969 33.3818342,11.0556678 33.2175,10.829 C33.0531658,10.6023322 32.7896685,10.489 32.427,10.489 C31.9963312,10.489 31.5203359,10.7609973 30.999,11.305 L30.999,17 L28.5,17 Z M43.069,17 L43.069,8.568 L45.109,8.568 L45.279,9.656 L45.347,9.656 C45.6983351,9.30466491 46.0723314,9.00150127 46.469,8.7465 C46.8656687,8.49149872 47.3416639,8.364 47.897,8.364 C48.4976697,8.364 48.9821648,8.48583211 49.3505,8.7295 C49.7188352,8.97316788 50.0106656,9.3216644 50.226,9.775 C50.6000019,9.38966474 50.9938313,9.05816805 51.4075,8.7805 C51.8211687,8.50283194 52.3113305,8.364 52.878,8.364 C53.7846712,8.364 54.4504979,8.66716363 54.8755,9.2735 C55.3005021,9.87983636 55.513,10.7099947 55.513,11.764 L55.513,17 L53.014,17 L53.014,12.087 C53.014,11.4749969 52.9318342,11.0556678 52.7675,10.829 C52.6031658,10.6023322 52.3396685,10.489 51.977,10.489 C51.5576646,10.489 51.0760027,10.7609973 50.532,11.305 L50.532,17 L48.033,17 L48.033,12.087 C48.033,11.4749969 47.9508342,11.0556678 47.7865,10.829 C47.6221658,10.6023322 47.3586685,10.489 46.996,10.489 C46.5653312,10.489 46.0893359,10.7609973 45.568,11.305 L45.568,17 L43.069,17 Z" id="102mm" fill="#093169" fill-rule="nonzero" transform="translate(28.585000, 11.602500) rotate(-360.000000) translate(-28.585000, -11.602500) "></path>
                <polyline id="Rectangle-Copy-3" stroke="#CBD8F2" transform="translate(28.017544, 47.067308) rotate(-360.000000) translate(-28.017544, -47.067308) " points="7.08754386 56.7307692 7.01754386 37.4038462 49.0175439 37.4038462 49.0175439 56.7307692"></polyline>
            </g>
            <g id="Group-6-Copy" transform="translate(28.500000, 138.500000) rotate(-90.000000) translate(-28.500000, -138.500000) translate(0.000000, 110.000000)">
                <path d="M1.657,17 L1.657,14.977 L4.003,14.977 L4.003,8.738 L1.98,8.738 L1.98,7.191 C2.56933628,7.0776661 3.06799796,6.94166746 3.476,6.783 C3.88400204,6.62433254 4.28066474,6.4316678 4.666,6.205 L6.502,6.205 L6.502,14.977 L8.525,14.977 L8.525,17 L1.657,17 Z M13.931,17.204 C13.3529971,17.204 12.8260024,17.0821679 12.35,16.8385 C11.8739976,16.5948321 11.468835,16.2350024 11.1345,15.759 C10.800165,15.2829976 10.5395009,14.6936702 10.3525,13.991 C10.1654991,13.2883298 10.072,12.4780046 10.072,11.56 C10.072,10.6419954 10.1654991,9.83733679 10.3525,9.146 C10.5395009,8.45466321 10.800165,7.87383568 11.1345,7.4035 C11.468835,6.93316431 11.8739976,6.58183449 12.35,6.3495 C12.8260024,6.1171655 13.3529971,6.001 13.931,6.001 C14.5090029,6.001 15.0359976,6.1171655 15.512,6.3495 C15.9880024,6.58183449 16.393165,6.93316431 16.7275,7.4035 C17.061835,7.87383568 17.3224991,8.45466321 17.5095,9.146 C17.6965009,9.83733679 17.79,10.6419954 17.79,11.56 C17.79,12.4780046 17.6965009,13.2883298 17.5095,13.991 C17.3224991,14.6936702 17.061835,15.2829976 16.7275,15.759 C16.393165,16.2350024 15.9880024,16.5948321 15.512,16.8385 C15.0359976,17.0821679 14.5090029,17.204 13.931,17.204 Z M13.931,15.266 C14.1463344,15.266 14.3446658,15.2121672 14.526,15.1045 C14.7073342,14.9968328 14.8659993,14.8013347 15.002,14.518 C15.1380007,14.2346652 15.242833,13.8550024 15.3165,13.379 C15.390167,12.9029976 15.427,12.2966703 15.427,11.56 C15.427,10.8233296 15.390167,10.2198357 15.3165,9.7495 C15.242833,9.27916431 15.1380007,8.91083466 15.002,8.6445 C14.8659993,8.37816533 14.7073342,8.19400051 14.526,8.092 C14.3446658,7.98999949 14.1463344,7.939 13.931,7.939 C13.726999,7.939 13.5343342,7.98999949 13.353,8.092 C13.1716658,8.19400051 13.0130007,8.37816533 12.877,8.6445 C12.7409993,8.91083466 12.6333337,9.27916431 12.554,9.7495 C12.4746663,10.2198357 12.435,10.8233296 12.435,11.56 C12.435,12.2966703 12.4746663,12.9029976 12.554,13.379 C12.6333337,13.8550024 12.7409993,14.2346652 12.877,14.518 C13.0130007,14.8013347 13.1716658,14.9968328 13.353,15.1045 C13.5343342,15.2121672 13.726999,15.266 13.931,15.266 Z M19.048,17 L19.048,15.572 L19.8490407,14.8171994 C20.2352799,14.4500002 20.6000983,14.0981017 20.9435,13.7615 C21.5158362,13.2004972 22.0088313,12.6735025 22.4225,12.1805 C22.8361687,11.6874975 23.1591655,11.2285021 23.3915,10.8035 C23.6238345,10.3784979 23.74,9.97333526 23.74,9.588 C23.74,9.05533067 23.6040014,8.65016805 23.332,8.3725 C23.0599986,8.09483194 22.6860024,7.956 22.21,7.956 C21.8133313,7.956 21.4620015,8.06649889 21.156,8.2875 C20.8499985,8.50850111 20.5610014,8.76633186 20.289,9.061 L18.929,7.718 C19.4616693,7.1513305 20.0056639,6.72350145 20.561,6.4345 C21.1163361,6.14549855 21.7793295,6.001 22.55,6.001 C23.0826693,6.001 23.5671645,6.08316584 24.0035,6.2475 C24.4398355,6.41183416 24.8166651,6.64416517 25.134,6.9445 C25.4513349,7.24483483 25.6949992,7.60466457 25.865,8.024 C26.0350009,8.44333543 26.12,8.91366406 26.12,9.435 C26.12,9.8883356 26.0236676,10.3501643 25.831,10.8205 C25.6383324,11.2908357 25.3805016,11.7611643 25.0575,12.2315 C24.7344984,12.7018357 24.3661687,13.1721643 23.9525,13.6425 C23.5388313,14.1128357 23.1110022,14.5746644 22.669,15.028 L23.1003749,14.979125 C23.2519578,14.9635417 23.4113325,14.9486667 23.5785,14.9345 C23.912835,14.9061665 24.210332,14.892 24.471,14.892 L26.647,14.892 L26.647,17 L19.048,17 Z M28.5,17 L28.5,8.568 L30.54,8.568 L30.71,9.656 L30.778,9.656 C31.1293351,9.30466491 31.5033314,9.00150127 31.9,8.7465 C32.2966687,8.49149872 32.7726639,8.364 33.328,8.364 C33.9286697,8.364 34.4131648,8.48583211 34.7815,8.7295 C35.1498352,8.97316788 35.4416656,9.3216644 35.657,9.775 C36.0310019,9.38966474 36.4248313,9.05816805 36.8385,8.7805 C37.2521687,8.50283194 37.7423305,8.364 38.309,8.364 C39.2156712,8.364 39.8814979,8.66716363 40.3065,9.2735 C40.7315021,9.87983636 40.944,10.7099947 40.944,11.764 L40.944,17 L38.445,17 L38.445,12.087 C38.445,11.4749969 38.3628342,11.0556678 38.1985,10.829 C38.0341658,10.6023322 37.7706685,10.489 37.408,10.489 C36.9886646,10.489 36.5070027,10.7609973 35.963,11.305 L35.963,17 L33.464,17 L33.464,12.087 C33.464,11.4749969 33.3818342,11.0556678 33.2175,10.829 C33.0531658,10.6023322 32.7896685,10.489 32.427,10.489 C31.9963312,10.489 31.5203359,10.7609973 30.999,11.305 L30.999,17 L28.5,17 Z M43.069,17 L43.069,8.568 L45.109,8.568 L45.279,9.656 L45.347,9.656 C45.6983351,9.30466491 46.0723314,9.00150127 46.469,8.7465 C46.8656687,8.49149872 47.3416639,8.364 47.897,8.364 C48.4976697,8.364 48.9821648,8.48583211 49.3505,8.7295 C49.7188352,8.97316788 50.0106656,9.3216644 50.226,9.775 C50.6000019,9.38966474 50.9938313,9.05816805 51.4075,8.7805 C51.8211687,8.50283194 52.3113305,8.364 52.878,8.364 C53.7846712,8.364 54.4504979,8.66716363 54.8755,9.2735 C55.3005021,9.87983636 55.513,10.7099947 55.513,11.764 L55.513,17 L53.014,17 L53.014,12.087 C53.014,11.4749969 52.9318342,11.0556678 52.7675,10.829 C52.6031658,10.6023322 52.3396685,10.489 51.977,10.489 C51.5576646,10.489 51.0760027,10.7609973 50.532,11.305 L50.532,17 L48.033,17 L48.033,12.087 C48.033,11.4749969 47.9508342,11.0556678 47.7865,10.829 C47.6221658,10.6023322 47.3586685,10.489 46.996,10.489 C46.5653312,10.489 46.0893359,10.7609973 45.568,11.305 L45.568,17 L43.069,17 Z" id="102mm" fill="#093169" fill-rule="nonzero" transform="translate(28.585000, 11.602500) rotate(-360.000000) translate(-28.585000, -11.602500) "></path>
                <polyline id="Rectangle-Copy-3" stroke="#CBD8F2" transform="translate(28.017544, 47.067308) rotate(-360.000000) translate(-28.017544, -47.067308) " points="7.08754386 56.7307692 7.01754386 37.4038462 49.0175439 37.4038462 49.0175439 56.7307692"></polyline>
            </g>
            <path d="M139.465,226 L139.465,223.416 L134.79,223.416 L134.79,221.699 L138.734,215.205 L141.794,215.205 L141.794,221.512 L143.035,221.512 L143.035,223.416 L141.794,223.416 L141.794,226 L139.465,226 Z M137.187,221.512 L139.465,221.512 L139.465,219.761 C139.465,219.479932 139.472253,219.164414 139.48676,218.814441 L139.5398,217.78356 C139.548867,217.62852 139.557933,217.483001 139.567,217.347 L139.499,217.347 L139.074,218.248 L139.074,218.248 C138.926666,218.554002 138.773667,218.859998 138.615,219.166 L137.187,221.512 Z M148.441,226 L148.441,223.416 L143.766,223.416 L143.766,221.699 L147.71,215.205 L150.77,215.205 L150.77,221.512 L152.011,221.512 L152.011,223.416 L150.77,223.416 L150.77,226 L148.441,226 Z M146.163,221.512 L148.441,221.512 L148.441,219.761 C148.441,219.479932 148.448253,219.164414 148.46276,218.814441 L148.5158,217.78356 C148.524867,217.62852 148.533933,217.483001 148.543,217.347 L148.475,217.347 L148.05,218.248 L148.05,218.248 C147.902666,218.554002 147.749667,218.859998 147.591,219.166 L146.163,221.512 Z M156.907,226.204 C156.328997,226.204 155.802002,226.082168 155.326,225.8385 C154.849998,225.594832 154.444835,225.235002 154.1105,224.759 C153.776165,224.282998 153.515501,223.69367 153.3285,222.991 C153.141499,222.28833 153.048,221.478005 153.048,220.56 C153.048,219.641995 153.141499,218.837337 153.3285,218.146 C153.515501,217.454663 153.776165,216.873836 154.1105,216.4035 C154.444835,215.933164 154.849998,215.581834 155.326,215.3495 C155.802002,215.117166 156.328997,215.001 156.907,215.001 C157.485003,215.001 158.011998,215.117166 158.488,215.3495 C158.964002,215.581834 159.369165,215.933164 159.7035,216.4035 C160.037835,216.873836 160.298499,217.454663 160.4855,218.146 C160.672501,218.837337 160.766,219.641995 160.766,220.56 C160.766,221.478005 160.672501,222.28833 160.4855,222.991 C160.298499,223.69367 160.037835,224.282998 159.7035,224.759 C159.369165,225.235002 158.964002,225.594832 158.488,225.8385 C158.011998,226.082168 157.485003,226.204 156.907,226.204 Z M156.907,224.266 C157.122334,224.266 157.320666,224.212167 157.502,224.1045 C157.683334,223.996833 157.841999,223.801335 157.978,223.518 C158.114001,223.234665 158.218833,222.855002 158.2925,222.379 C158.366167,221.902998 158.403,221.29667 158.403,220.56 C158.403,219.82333 158.366167,219.219836 158.2925,218.7495 C158.218833,218.279164 158.114001,217.910835 157.978,217.6445 C157.841999,217.378165 157.683334,217.194001 157.502,217.092 C157.320666,216.989999 157.122334,216.939 156.907,216.939 C156.702999,216.939 156.510334,216.989999 156.329,217.092 C156.147666,217.194001 155.989001,217.378165 155.853,217.6445 C155.716999,217.910835 155.609334,218.279164 155.53,218.7495 C155.450666,219.219836 155.411,219.82333 155.411,220.56 C155.411,221.29667 155.450666,221.902998 155.53,222.379 C155.609334,222.855002 155.716999,223.234665 155.853,223.518 C155.989001,223.801335 156.147666,223.996833 156.329,224.1045 C156.510334,224.212167 156.702999,224.266 156.907,224.266 Z M162.5,226 L162.5,217.568 L164.54,217.568 L164.71,218.656 L164.778,218.656 C165.129335,218.304665 165.503331,218.001501 165.9,217.7465 C166.296669,217.491499 166.772664,217.364 167.328,217.364 C167.92867,217.364 168.413165,217.485832 168.7815,217.7295 C169.149835,217.973168 169.441666,218.321664 169.657,218.775 C170.031002,218.389665 170.424831,218.058168 170.8385,217.7805 C171.252169,217.502832 171.742331,217.364 172.309,217.364 C173.215671,217.364 173.881498,217.667164 174.3065,218.2735 C174.731502,218.879836 174.944,219.709995 174.944,220.764 L174.944,226 L172.445,226 L172.445,221.087 C172.445,220.474997 172.362834,220.055668 172.1985,219.829 C172.034166,219.602332 171.770668,219.489 171.408,219.489 C170.988665,219.489 170.507003,219.760997 169.963,220.305 L169.963,226 L167.464,226 L167.464,221.087 C167.464,220.474997 167.381834,220.055668 167.2175,219.829 C167.053166,219.602332 166.789668,219.489 166.427,219.489 C165.996331,219.489 165.520336,219.760997 164.999,220.305 L164.999,226 L162.5,226 Z M177.069,226 L177.069,217.568 L179.109,217.568 L179.279,218.656 L179.347,218.656 C179.698335,218.304665 180.072331,218.001501 180.469,217.7465 C180.865669,217.491499 181.341664,217.364 181.897,217.364 C182.49767,217.364 182.982165,217.485832 183.3505,217.7295 C183.718835,217.973168 184.010666,218.321664 184.226,218.775 C184.600002,218.389665 184.993831,218.058168 185.4075,217.7805 C185.821169,217.502832 186.31133,217.364 186.878,217.364 C187.784671,217.364 188.450498,217.667164 188.8755,218.2735 C189.300502,218.879836 189.513,219.709995 189.513,220.764 L189.513,226 L187.014,226 L187.014,221.087 C187.014,220.474997 186.931834,220.055668 186.7675,219.829 C186.603166,219.602332 186.339668,219.489 185.977,219.489 C185.557665,219.489 185.076003,219.760997 184.532,220.305 L184.532,226 L182.033,226 L182.033,221.087 C182.033,220.474997 181.950834,220.055668 181.7865,219.829 C181.622166,219.602332 181.358668,219.489 180.996,219.489 C180.565331,219.489 180.089336,219.760997 179.568,220.305 L179.568,226 L177.069,226 Z" id="440mm" fill="#093169" fill-rule="nonzero" transform="translate(162.151500, 220.602500) rotate(-360.000000) translate(-162.151500, -220.602500) "></path>
            <polyline id="Rectangle-Copy-3" stroke="#CBD8F2" transform="translate(162.000000, 186.500000) rotate(-540.000000) translate(-162.000000, -186.500000) " points="72.3 194 72 179 252 179 252 194"></polyline>
            <path d="M285.096,122 L285.096,120.572 L285.897041,119.817199 C286.28328,119.45 286.648098,119.098102 286.9915,118.7615 C287.563836,118.200497 288.056831,117.673502 288.4705,117.1805 C288.884169,116.687498 289.207166,116.228502 289.4395,115.8035 C289.671834,115.378498 289.788,114.973335 289.788,114.588 C289.788,114.055331 289.652001,113.650168 289.38,113.3725 C289.107999,113.094832 288.734002,112.956 288.258,112.956 C287.861331,112.956 287.510002,113.066499 287.204,113.2875 C286.897998,113.508501 286.609001,113.766332 286.337,114.061 L284.977,112.718 C285.509669,112.151331 286.053664,111.723501 286.609,111.4345 C287.164336,111.145499 287.827329,111.001 288.598,111.001 C289.130669,111.001 289.615164,111.083166 290.0515,111.2475 C290.487836,111.411834 290.864665,111.644165 291.182,111.9445 C291.499335,112.244835 291.742999,112.604665 291.913,113.024 C292.083001,113.443335 292.168,113.913664 292.168,114.435 C292.168,114.888336 292.071668,115.350164 291.879,115.8205 C291.686332,116.290836 291.428502,116.761164 291.1055,117.2315 C290.782498,117.701836 290.414169,118.172164 290.0005,118.6425 C289.586831,119.112836 289.159002,119.574664 288.717,120.028 L289.148375,119.979125 C289.299958,119.963542 289.459332,119.948667 289.6265,119.9345 C289.960835,119.906167 290.258332,119.892 290.519,119.892 L292.695,119.892 L292.695,122 L285.096,122 Z M294.633,122 L294.633,119.977 L296.979,119.977 L296.979,113.738 L294.956,113.738 L294.956,112.191 C295.545336,112.077666 296.043998,111.941667 296.452,111.783 C296.860002,111.624333 297.256665,111.431668 297.642,111.205 L299.478,111.205 L299.478,119.977 L301.501,119.977 L301.501,122 L294.633,122 Z M306.618,122.204 C305.733996,122.204 304.986003,122.059501 304.374,121.7705 C303.761997,121.481499 303.240669,121.121669 302.81,120.691 L303.932,119.11 C304.260668,119.404668 304.614831,119.656832 304.9945,119.8665 C305.374169,120.076168 305.796331,120.181 306.261,120.181 C306.816336,120.181 307.258332,120.039335 307.587,119.756 C307.915668,119.472665 308.08,119.053336 308.08,118.498 C308.08,117.953997 307.924168,117.540335 307.6125,117.257 C307.300832,116.973665 306.890003,116.832 306.38,116.832 C306.221333,116.832 306.079667,116.8405 305.955,116.8575 C305.830333,116.8745 305.708501,116.905666 305.5895,116.951 C305.470499,116.996334 305.345834,117.053 305.2155,117.121 C305.085166,117.189 304.940667,117.273999 304.782,117.376 L303.66,116.662 L303.966,111.205 L310.086,111.205 L310.086,113.313 L306.125,113.313 L305.938,115.336 C306.142001,115.245333 306.337499,115.180167 306.5245,115.1405 C306.711501,115.100833 306.918332,115.081 307.145,115.081 C307.609669,115.081 308.048831,115.148999 308.4625,115.285 C308.876169,115.421001 309.241665,115.624999 309.559,115.897 C309.876335,116.169001 310.125666,116.514665 310.307,116.934 C310.488334,117.353335 310.579,117.851997 310.579,118.43 C310.579,119.03067 310.471334,119.563331 310.256,120.028 C310.040666,120.492669 309.751668,120.886498 309.389,121.2095 C309.026332,121.532502 308.604169,121.778999 308.1225,121.949 C307.640831,122.119001 307.139336,122.204 306.618,122.204 Z M312.5,122 L312.5,113.568 L314.54,113.568 L314.71,114.656 L314.778,114.656 C315.129335,114.304665 315.503331,114.001501 315.9,113.7465 C316.296669,113.491499 316.772664,113.364 317.328,113.364 C317.92867,113.364 318.413165,113.485832 318.7815,113.7295 C319.149835,113.973168 319.441666,114.321664 319.657,114.775 C320.031002,114.389665 320.424831,114.058168 320.8385,113.7805 C321.252169,113.502832 321.74233,113.364 322.309,113.364 C323.215671,113.364 323.881498,113.667164 324.3065,114.2735 C324.731502,114.879836 324.944,115.709995 324.944,116.764 L324.944,122 L322.445,122 L322.445,117.087 C322.445,116.474997 322.362834,116.055668 322.1985,115.829 C322.034166,115.602332 321.770668,115.489 321.408,115.489 C320.988665,115.489 320.507003,115.760997 319.963,116.305 L319.963,122 L317.464,122 L317.464,117.087 C317.464,116.474997 317.381834,116.055668 317.2175,115.829 C317.053166,115.602332 316.789668,115.489 316.427,115.489 C315.996331,115.489 315.520336,115.760997 314.999,116.305 L314.999,122 L312.5,122 Z M327.069,122 L327.069,113.568 L329.109,113.568 L329.279,114.656 L329.347,114.656 C329.698335,114.304665 330.072331,114.001501 330.469,113.7465 C330.865669,113.491499 331.341664,113.364 331.897,113.364 C332.49767,113.364 332.982165,113.485832 333.3505,113.7295 C333.718835,113.973168 334.010666,114.321664 334.226,114.775 C334.600002,114.389665 334.993831,114.058168 335.4075,113.7805 C335.821169,113.502832 336.31133,113.364 336.878,113.364 C337.784671,113.364 338.450498,113.667164 338.8755,114.2735 C339.300502,114.879836 339.513,115.709995 339.513,116.764 L339.513,122 L337.014,122 L337.014,117.087 C337.014,116.474997 336.931834,116.055668 336.7675,115.829 C336.603166,115.602332 336.339668,115.489 335.977,115.489 C335.557665,115.489 335.076003,115.760997 334.532,116.305 L334.532,122 L332.033,122 L332.033,117.087 C332.033,116.474997 331.950834,116.055668 331.7865,115.829 C331.622166,115.602332 331.358668,115.489 330.996,115.489 C330.565331,115.489 330.089336,115.760997 329.568,116.305 L329.568,122 L327.069,122 Z" id="215mm" fill="#093169" fill-rule="nonzero" transform="translate(312.245000, 116.602500) rotate(-630.000000) translate(-312.245000, -116.602500) "></path>
            <polyline id="Rectangle-Copy-3" stroke="#CBD8F2" transform="translate(278.500000, 116.500000) rotate(-630.000000) translate(-278.500000, -116.500000) " points="234.646667 124 234.5 109 322.5 109 322.5 124"></polyline>
        </g>
    </g>
</svg>