<?xml version="1.0" encoding="UTF-8"?>
<svg width="706px" height="327px" viewBox="0 0 706 327" version="1.1" xmlns="http://www.w3.org/2000/svg" xmlns:xlink="http://www.w3.org/1999/xlink">
    <!-- Generator: Sketch 58 (84663) - https://sketch.com -->
    <title>pierCaps/PC210</title>
    <desc>Created with Sketch.</desc>
    <g id="pierCaps/PC210" stroke="none" stroke-width="1" fill="none" fill-rule="evenodd">
        <rect fill="#F5F9FF" x="0" y="0" width="706" height="327"></rect>
        <g id="Group" transform="translate(230.000000, 102.000000)" fill="#FFFFFF">
            <polyline id="Path" stroke="#CBD8F2" points="31.119 76.08 31.119 85.92 215.319 85.92 215.319 76.08"></polyline>
            <path d="M233.513,66.251 C228.478,66.491 224.45,70.519 224.21,75.554 C224.21,75.9046667 224.046333,76.08 223.719,76.08 L22.839,76.08 C22.4316667,76.08 22.228,75.9046667 22.228,75.554 C21.988,70.519 17.96,66.491 12.925,66.251" id="Path" stroke="#CBD8F2"></path>
            <polyline id="Path" stroke="#CBD8F2" points="0.039 31.92 123.279 0 246.519 31.92"></polyline>
            <rect id="Rectangle" stroke-opacity="0.6" stroke="#FF5959" x="42.64" y="89.64" width="105" height="32"></rect>
            <rect id="Rectangle-Copy" stroke-opacity="0.6" stroke="#FF5959" x="152.64" y="89.64" width="53" height="32"></rect>
            <polyline id="Path" stroke="#CBD8F2" points="12.519 60.36 12.519 66.24 234.039 66.24 234.039 65.76 234.039 60.36"></polyline>
            <path d="M5.68434189e-14,43.09 C3.184,42.904 6.145,45.3159605 6.145,48.498 C6.145,49.8792878 6.145,53.8332878 6.145,60.36 L240.399,60.36 C240.399,54.5999757 240.399,50.6459757 240.399,48.498 C240.399,45.2760365 243.254,42.904 246.438,43.09" id="Path" stroke="#CBD8F2"></path>
            <polygon id="Path" stroke="#CBD8F2" points="0.039 43.2 0.039 31.92 246.519 31.92 246.519 43.2"></polygon>
        </g>
        <path d="M505.657,152 L505.657,149.977 L508.003,149.977 L508.003,143.738 L505.98,143.738 L505.98,142.191 C506.569336,142.077666 507.067998,141.941667 507.476,141.783 C507.884002,141.624333 508.280665,141.431668 508.666,141.205 L510.502,141.205 L510.502,149.977 L512.525,149.977 L512.525,152 L505.657,152 Z M516.146,152 C516.191334,151.104662 516.273499,150.28017 516.3925,149.5265 C516.511501,148.77283 516.681499,148.05317 516.9025,147.3675 C517.123501,146.68183 517.406832,146.010337 517.7525,145.353 C518.098168,144.695663 518.525997,144.01567 519.036,143.313 L514.191,143.313 L514.191,141.205 L521.705,141.205 L521.705,142.735 C521.081664,143.494337 520.580169,144.205497 520.2005,144.8685 C519.820831,145.531503 519.526168,146.217163 519.3165,146.9255 C519.106832,147.633837 518.956667,148.393163 518.866,149.2035 C518.775333,150.013837 518.707334,150.945995 518.662,152 L516.146,152 Z M526.618,152.204 C525.733996,152.204 524.986003,152.059501 524.374,151.7705 C523.761997,151.481499 523.240669,151.121669 522.81,150.691 L523.932,149.11 C524.260668,149.404668 524.614831,149.656832 524.9945,149.8665 C525.374169,150.076168 525.796331,150.181 526.261,150.181 C526.816336,150.181 527.258332,150.039335 527.587,149.756 C527.915668,149.472665 528.08,149.053336 528.08,148.498 C528.08,147.953997 527.924168,147.540335 527.6125,147.257 C527.300832,146.973665 526.890003,146.832 526.38,146.832 C526.221333,146.832 526.079667,146.8405 525.955,146.8575 C525.830333,146.8745 525.708501,146.905666 525.5895,146.951 C525.470499,146.996334 525.345834,147.053 525.2155,147.121 C525.085166,147.189 524.940667,147.273999 524.782,147.376 L523.66,146.662 L523.966,141.205 L530.086,141.205 L530.086,143.313 L526.125,143.313 L525.938,145.336 C526.142001,145.245333 526.337499,145.180167 526.5245,145.1405 C526.711501,145.100833 526.918332,145.081 527.145,145.081 C527.609669,145.081 528.048831,145.148999 528.4625,145.285 C528.876169,145.421001 529.241665,145.624999 529.559,145.897 C529.876335,146.169001 530.125666,146.514665 530.307,146.934 C530.488334,147.353335 530.579,147.851997 530.579,148.43 C530.579,149.03067 530.471334,149.563331 530.256,150.028 C530.040666,150.492669 529.751668,150.886498 529.389,151.2095 C529.026332,151.532502 528.604169,151.778999 528.1225,151.949 C527.640831,152.119001 527.139336,152.204 526.618,152.204 Z M532.5,152 L532.5,143.568 L534.54,143.568 L534.71,144.656 L534.778,144.656 C535.129335,144.304665 535.503331,144.001501 535.9,143.7465 C536.296669,143.491499 536.772664,143.364 537.328,143.364 C537.92867,143.364 538.413165,143.485832 538.7815,143.7295 C539.149835,143.973168 539.441666,144.321664 539.657,144.775 C540.031002,144.389665 540.424831,144.058168 540.8385,143.7805 C541.252169,143.502832 541.74233,143.364 542.309,143.364 C543.215671,143.364 543.881498,143.667164 544.3065,144.2735 C544.731502,144.879836 544.944,145.709995 544.944,146.764 L544.944,152 L542.445,152 L542.445,147.087 C542.445,146.474997 542.362834,146.055668 542.1985,145.829 C542.034166,145.602332 541.770668,145.489 541.408,145.489 C540.988665,145.489 540.507003,145.760997 539.963,146.305 L539.963,152 L537.464,152 L537.464,147.087 C537.464,146.474997 537.381834,146.055668 537.2175,145.829 C537.053166,145.602332 536.789668,145.489 536.427,145.489 C535.996331,145.489 535.520336,145.760997 534.999,146.305 L534.999,152 L532.5,152 Z M547.069,152 L547.069,143.568 L549.109,143.568 L549.279,144.656 L549.347,144.656 C549.698335,144.304665 550.072331,144.001501 550.469,143.7465 C550.865669,143.491499 551.341664,143.364 551.897,143.364 C552.49767,143.364 552.982165,143.485832 553.3505,143.7295 C553.718835,143.973168 554.010666,144.321664 554.226,144.775 C554.600002,144.389665 554.993831,144.058168 555.4075,143.7805 C555.821169,143.502832 556.311331,143.364 556.878,143.364 C557.784671,143.364 558.450498,143.667164 558.8755,144.2735 C559.300502,144.879836 559.513,145.709995 559.513,146.764 L559.513,152 L557.014,152 L557.014,147.087 C557.014,146.474997 556.931834,146.055668 556.7675,145.829 C556.603166,145.602332 556.339668,145.489 555.977,145.489 C555.557665,145.489 555.076003,145.760997 554.532,146.305 L554.532,152 L552.033,152 L552.033,147.087 C552.033,146.474997 551.950834,146.055668 551.7865,145.829 C551.622166,145.602332 551.358668,145.489 550.996,145.489 C550.565331,145.489 550.089336,145.760997 549.568,146.305 L549.568,152 L547.069,152 Z" id="175mm" fill="#093169" fill-rule="nonzero" transform="translate(532.585000, 146.704500) rotate(-270.000000) translate(-532.585000, -146.704500) "></path>
        <polyline id="Rectangle-Copy-3" stroke="#CBD8F2" transform="translate(500.000000, 145.500000) rotate(-270.000000) translate(-500.000000, -145.500000) " points="457.143333 153 457 138 543 138 543 153"></polyline>
        <polyline id="Rectangle-Copy" stroke="#CBD8F2" points="230.411667 87 230 72 477 72 477 87"></polyline>
        <polyline id="Rectangle-Copy-2" stroke="#CBD8F2" transform="translate(353.500000, 247.500000) rotate(-180.000000) translate(-353.500000, -247.500000) " points="261.308333 255 261 240 446 240 446 255"></polyline>
        <path d="M329.666,52.204 C328.781996,52.204 328.034003,52.0595014 327.422,51.7705 C326.809997,51.4814986 326.288669,51.1216688 325.858,50.691 L326.98,49.11 C327.308668,49.4046681 327.662831,49.6568323 328.0425,49.8665 C328.422169,50.0761677 328.844331,50.181 329.309,50.181 C329.864336,50.181 330.306332,50.0393348 330.635,49.756 C330.963668,49.4726652 331.128,49.0533361 331.128,48.498 C331.128,47.9539973 330.972168,47.5403347 330.6605,47.257 C330.348832,46.9736652 329.938003,46.832 329.428,46.832 C329.269333,46.832 329.127667,46.8404999 329.003,46.8575 C328.878333,46.8745001 328.756501,46.9056664 328.6375,46.951 C328.518499,46.9963336 328.393834,47.0529997 328.2635,47.121 C328.133166,47.1890003 327.988667,47.2739995 327.83,47.376 L326.708,46.662 L327.014,41.205 L333.134,41.205 L333.134,43.313 L329.173,43.313 L328.986,45.336 C329.190001,45.2453329 329.385499,45.1801669 329.5725,45.1405 C329.759501,45.1008331 329.966332,45.081 330.193,45.081 C330.657669,45.081 331.096831,45.1489993 331.5105,45.285 C331.924169,45.4210007 332.289665,45.6249986 332.607,45.897 C332.924335,46.1690014 333.173666,46.5146646 333.355,46.934 C333.536334,47.3533354 333.627,47.8519971 333.627,48.43 C333.627,49.0306697 333.519334,49.563331 333.304,50.028 C333.088666,50.492669 332.799668,50.8864984 332.437,51.2095 C332.074332,51.5325016 331.652169,51.7789992 331.1705,51.949 C330.688831,52.1190008 330.187336,52.204 329.666,52.204 Z M338.931,52.204 C338.352997,52.204 337.826002,52.0821679 337.35,51.8385 C336.873998,51.5948321 336.468835,51.2350024 336.1345,50.759 C335.800165,50.2829976 335.539501,49.6936702 335.3525,48.991 C335.165499,48.2883298 335.072,47.4780046 335.072,46.56 C335.072,45.6419954 335.165499,44.8373368 335.3525,44.146 C335.539501,43.4546632 335.800165,42.8738357 336.1345,42.4035 C336.468835,41.9331643 336.873998,41.5818345 337.35,41.3495 C337.826002,41.1171655 338.352997,41.001 338.931,41.001 C339.509003,41.001 340.035998,41.1171655 340.512,41.3495 C340.988002,41.5818345 341.393165,41.9331643 341.7275,42.4035 C342.061835,42.8738357 342.322499,43.4546632 342.5095,44.146 C342.696501,44.8373368 342.79,45.6419954 342.79,46.56 C342.79,47.4780046 342.696501,48.2883298 342.5095,48.991 C342.322499,49.6936702 342.061835,50.2829976 341.7275,50.759 C341.393165,51.2350024 340.988002,51.5948321 340.512,51.8385 C340.035998,52.0821679 339.509003,52.204 338.931,52.204 Z M338.931,50.266 C339.146334,50.266 339.344666,50.2121672 339.526,50.1045 C339.707334,49.9968328 339.865999,49.8013347 340.002,49.518 C340.138001,49.2346652 340.242833,48.8550024 340.3165,48.379 C340.390167,47.9029976 340.427,47.2966703 340.427,46.56 C340.427,45.8233296 340.390167,45.2198357 340.3165,44.7495 C340.242833,44.2791643 340.138001,43.9108347 340.002,43.6445 C339.865999,43.3781653 339.707334,43.1940005 339.526,43.092 C339.344666,42.9899995 339.146334,42.939 338.931,42.939 C338.726999,42.939 338.534334,42.9899995 338.353,43.092 C338.171666,43.1940005 338.013001,43.3781653 337.877,43.6445 C337.740999,43.9108347 337.633334,44.2791643 337.554,44.7495 C337.474666,45.2198357 337.435,45.8233296 337.435,46.56 C337.435,47.2966703 337.474666,47.9029976 337.554,48.379 C337.633334,48.8550024 337.740999,49.2346652 337.877,49.518 C338.013001,49.8013347 338.171666,49.9968328 338.353,50.1045 C338.534334,50.2121672 338.726999,50.266 338.931,50.266 Z M347.55,52.204 C346.665996,52.204 345.918003,52.0651681 345.306,51.7875 C344.693997,51.5098319 344.189669,51.138669 343.793,50.674 L344.949,49.093 C345.277668,49.4103349 345.637498,49.670999 346.0285,49.875 C346.419502,50.079001 346.847331,50.181 347.312,50.181 C347.844669,50.181 348.269665,50.0705011 348.587,49.8495 C348.904335,49.6284989 349.063,49.314002 349.063,48.906 C349.063,48.6679988 349.0205,48.4526676 348.9355,48.26 C348.8505,48.0673324 348.700334,47.905834 348.485,47.7755 C348.269666,47.645166 347.975002,47.543167 347.601,47.4695 C347.226998,47.395833 346.745336,47.359 346.156,47.359 L346.156,45.591 C346.643336,45.591 347.048498,45.5570003 347.3715,45.489 C347.694502,45.4209997 347.955166,45.321834 348.1535,45.1915 C348.351834,45.061166 348.4935,44.9081675 348.5785,44.7325 C348.6635,44.5568325 348.706,44.3613344 348.706,44.146 C348.706,43.7719981 348.592668,43.4801677 348.366,43.2705 C348.139332,43.0608323 347.810669,42.956 347.38,42.956 C346.994665,42.956 346.646168,43.0409991 346.3345,43.211 C346.022832,43.3810008 345.697002,43.6133319 345.357,43.908 L344.099,42.378 C344.597669,41.9473312 345.121831,41.6101679 345.6715,41.3665 C346.221169,41.1228321 346.83033,41.001 347.499,41.001 C348.054336,41.001 348.561498,41.066166 349.0205,41.1965 C349.479502,41.326834 349.870498,41.5194987 350.1935,41.7745 C350.516502,42.0295013 350.768666,42.3383315 350.95,42.701 C351.131334,43.0636685 351.222,43.4829976 351.222,43.959 C351.222,44.5256695 351.066168,45.004498 350.7545,45.3955 C350.442832,45.786502 349.998003,46.1066654 349.42,46.356 L349.42,46.424 C350.043336,46.6053342 350.556165,46.9141645 350.9585,47.3505 C351.360835,47.7868355 351.562,48.3563298 351.562,49.059 C351.562,49.5576692 351.454334,50.002498 351.239,50.3935 C351.023666,50.784502 350.734668,51.1131653 350.372,51.3795 C350.009332,51.6458347 349.584336,51.8498326 349.097,51.9915 C348.609664,52.1331674 348.094003,52.204 347.55,52.204 Z M353.5,52 L353.5,43.568 L355.54,43.568 L355.71,44.656 L355.778,44.656 C356.129335,44.3046649 356.503331,44.0015013 356.9,43.7465 C357.296669,43.4914987 357.772664,43.364 358.328,43.364 C358.92867,43.364 359.413165,43.4858321 359.7815,43.7295 C360.149835,43.9731679 360.441666,44.3216644 360.657,44.775 C361.031002,44.3896647 361.424831,44.0581681 361.8385,43.7805 C362.252169,43.5028319 362.74233,43.364 363.309,43.364 C364.215671,43.364 364.881498,43.6671636 365.3065,44.2735 C365.731502,44.8798364 365.944,45.7099947 365.944,46.764 L365.944,52 L363.445,52 L363.445,47.087 C363.445,46.4749969 363.362834,46.0556678 363.1985,45.829 C363.034166,45.6023322 362.770668,45.489 362.408,45.489 C361.988665,45.489 361.507003,45.7609973 360.963,46.305 L360.963,52 L358.464,52 L358.464,47.087 C358.464,46.4749969 358.381834,46.0556678 358.2175,45.829 C358.053166,45.6023322 357.789668,45.489 357.427,45.489 C356.996331,45.489 356.520336,45.7609973 355.999,46.305 L355.999,52 L353.5,52 Z M368.069,52 L368.069,43.568 L370.109,43.568 L370.279,44.656 L370.347,44.656 C370.698335,44.3046649 371.072331,44.0015013 371.469,43.7465 C371.865669,43.4914987 372.341664,43.364 372.897,43.364 C373.49767,43.364 373.982165,43.4858321 374.3505,43.7295 C374.718835,43.9731679 375.010666,44.3216644 375.226,44.775 C375.600002,44.3896647 375.993831,44.0581681 376.4075,43.7805 C376.821169,43.5028319 377.31133,43.364 377.878,43.364 C378.784671,43.364 379.450498,43.6671636 379.8755,44.2735 C380.300502,44.8798364 380.513,45.7099947 380.513,46.764 L380.513,52 L378.014,52 L378.014,47.087 C378.014,46.4749969 377.931834,46.0556678 377.7675,45.829 C377.603166,45.6023322 377.339668,45.489 376.977,45.489 C376.557665,45.489 376.076003,45.7609973 375.532,46.305 L375.532,52 L373.033,52 L373.033,47.087 C373.033,46.4749969 372.950834,46.0556678 372.7865,45.829 C372.622166,45.6023322 372.358668,45.489 371.996,45.489 C371.565331,45.489 371.089336,45.7609973 370.568,46.305 L370.568,52 L368.069,52 Z" id="503mm" fill="#093169" fill-rule="nonzero"></path>
        <path d="M329.598,287.204 C328.713996,287.204 327.966003,287.065168 327.354,286.7875 C326.741997,286.509832 326.237669,286.138669 325.841,285.674 L326.997,284.093 C327.325668,284.410335 327.685498,284.670999 328.0765,284.875 C328.467502,285.079001 328.895331,285.181 329.36,285.181 C329.892669,285.181 330.317665,285.070501 330.635,284.8495 C330.952335,284.628499 331.111,284.314002 331.111,283.906 C331.111,283.667999 331.0685,283.452668 330.9835,283.26 C330.8985,283.067332 330.748334,282.905834 330.533,282.7755 C330.317666,282.645166 330.023002,282.543167 329.649,282.4695 C329.274998,282.395833 328.793336,282.359 328.204,282.359 L328.204,280.591 C328.691336,280.591 329.096498,280.557 329.4195,280.489 C329.742502,280.421 330.003166,280.321834 330.2015,280.1915 C330.399834,280.061166 330.5415,279.908168 330.6265,279.7325 C330.7115,279.556832 330.754,279.361334 330.754,279.146 C330.754,278.771998 330.640668,278.480168 330.414,278.2705 C330.187332,278.060832 329.858669,277.956 329.428,277.956 C329.042665,277.956 328.694168,278.040999 328.3825,278.211 C328.070832,278.381001 327.745002,278.613332 327.405,278.908 L326.147,277.378 C326.645669,276.947331 327.169831,276.610168 327.7195,276.3665 C328.269169,276.122832 328.87833,276.001 329.547,276.001 C330.102336,276.001 330.609498,276.066166 331.0685,276.1965 C331.527502,276.326834 331.918498,276.519499 332.2415,276.7745 C332.564502,277.029501 332.816666,277.338332 332.998,277.701 C333.179334,278.063668 333.27,278.482998 333.27,278.959 C333.27,279.525669 333.114168,280.004498 332.8025,280.3955 C332.490832,280.786502 332.046003,281.106665 331.468,281.356 L331.468,281.424 C332.091336,281.605334 332.604165,281.914164 333.0065,282.3505 C333.408835,282.786836 333.61,283.35633 333.61,284.059 C333.61,284.557669 333.502334,285.002498 333.287,285.3935 C333.071666,285.784502 332.782668,286.113165 332.42,286.3795 C332.057332,286.645835 331.632336,286.849833 331.145,286.9915 C330.657664,287.133167 330.142003,287.204 329.598,287.204 Z M337.146,287 C337.191334,286.104662 337.273499,285.28017 337.3925,284.5265 C337.511501,283.77283 337.681499,283.05317 337.9025,282.3675 C338.123501,281.68183 338.406832,281.010337 338.7525,280.353 C339.098168,279.695663 339.525997,279.01567 340.036,278.313 L335.191,278.313 L335.191,276.205 L342.705,276.205 L342.705,277.735 C342.081664,278.494337 341.580169,279.205497 341.2005,279.8685 C340.820831,280.531503 340.526168,281.217163 340.3165,281.9255 C340.106832,282.633837 339.956667,283.393163 339.866,284.2035 C339.775333,285.013837 339.707334,285.945995 339.662,287 L337.146,287 Z M348.196,287.204 C347.674664,287.204 347.167502,287.102001 346.6745,286.898 C346.181498,286.693999 345.745169,286.376669 345.3655,285.946 C344.985831,285.515331 344.682668,284.962837 344.456,284.2885 C344.229332,283.614163 344.116,282.801005 344.116,281.849 C344.116,280.840328 344.237832,279.96767 344.4815,279.231 C344.725168,278.49433 345.048165,277.888002 345.4505,277.412 C345.852835,276.935998 346.317497,276.581834 346.8445,276.3495 C347.371503,276.117166 347.918331,276.001 348.485,276.001 C349.199004,276.001 349.816664,276.128499 350.338,276.3835 C350.859336,276.638501 351.289998,276.941665 351.63,277.293 L350.321,278.789 C350.128332,278.584999 349.879002,278.406501 349.573,278.2535 C349.266998,278.100499 348.955335,278.024 348.638,278.024 C348.343332,278.024 348.065668,278.080666 347.805,278.194 C347.544332,278.307334 347.314834,278.497165 347.1165,278.7635 C346.918166,279.029835 346.756667,279.378331 346.632,279.809 C346.507333,280.239669 346.433667,280.766664 346.411,281.39 C346.547001,281.208666 346.705666,281.047167 346.887,280.9055 C347.068334,280.763833 347.255332,280.644834 347.448,280.5485 C347.640668,280.452166 347.833332,280.3785 348.026,280.3275 C348.218668,280.2765 348.399999,280.251 348.57,280.251 C349.034669,280.251 349.462498,280.318999 349.8535,280.455 C350.244502,280.591001 350.584499,280.794999 350.8735,281.067 C351.162501,281.339001 351.386333,281.684665 351.545,282.104 C351.703667,282.523335 351.783,283.01633 351.783,283.583 C351.783,284.14967 351.686668,284.653998 351.494,285.096 C351.301332,285.538002 351.043502,285.917665 350.7205,286.235 C350.397498,286.552335 350.017836,286.793166 349.5815,286.9575 C349.145164,287.121834 348.683336,287.204 348.196,287.204 Z M348.145,285.334 C348.519002,285.334 348.839165,285.195168 349.1055,284.9175 C349.371835,284.639832 349.505,284.195003 349.505,283.583 C349.505,283.004997 349.371835,282.599834 349.1055,282.3675 C348.839165,282.135166 348.502002,282.019 348.094,282.019 C347.810665,282.019 347.524501,282.101166 347.2355,282.2655 C346.946499,282.429834 346.688668,282.704665 346.462,283.09 C346.518667,283.520669 346.603666,283.877665 346.717,284.161 C346.830334,284.444335 346.960666,284.673832 347.108,284.8495 C347.255334,285.025168 347.416832,285.149833 347.5925,285.2235 C347.768168,285.297167 347.952332,285.334 348.145,285.334 Z M353.5,287 L353.5,278.568 L355.54,278.568 L355.71,279.656 L355.778,279.656 C356.129335,279.304665 356.503331,279.001501 356.9,278.7465 C357.296669,278.491499 357.772664,278.364 358.328,278.364 C358.92867,278.364 359.413165,278.485832 359.7815,278.7295 C360.149835,278.973168 360.441666,279.321664 360.657,279.775 C361.031002,279.389665 361.424831,279.058168 361.8385,278.7805 C362.252169,278.502832 362.74233,278.364 363.309,278.364 C364.215671,278.364 364.881498,278.667164 365.3065,279.2735 C365.731502,279.879836 365.944,280.709995 365.944,281.764 L365.944,287 L363.445,287 L363.445,282.087 C363.445,281.474997 363.362834,281.055668 363.1985,280.829 C363.034166,280.602332 362.770668,280.489 362.408,280.489 C361.988665,280.489 361.507003,280.760997 360.963,281.305 L360.963,287 L358.464,287 L358.464,282.087 C358.464,281.474997 358.381834,281.055668 358.2175,280.829 C358.053166,280.602332 357.789668,280.489 357.427,280.489 C356.996331,280.489 356.520336,280.760997 355.999,281.305 L355.999,287 L353.5,287 Z M368.069,287 L368.069,278.568 L370.109,278.568 L370.279,279.656 L370.347,279.656 C370.698335,279.304665 371.072331,279.001501 371.469,278.7465 C371.865669,278.491499 372.341664,278.364 372.897,278.364 C373.49767,278.364 373.982165,278.485832 374.3505,278.7295 C374.718835,278.973168 375.010666,279.321664 375.226,279.775 C375.600002,279.389665 375.993831,279.058168 376.4075,278.7805 C376.821169,278.502832 377.31133,278.364 377.878,278.364 C378.784671,278.364 379.450498,278.667164 379.8755,279.2735 C380.300502,279.879836 380.513,280.709995 380.513,281.764 L380.513,287 L378.014,287 L378.014,282.087 C378.014,281.474997 377.931834,281.055668 377.7675,280.829 C377.603166,280.602332 377.339668,280.489 376.977,280.489 C376.557665,280.489 376.076003,280.760997 375.532,281.305 L375.532,287 L373.033,287 L373.033,282.087 C373.033,281.474997 372.950834,281.055668 372.7865,280.829 C372.622166,280.602332 372.358668,280.489 371.996,280.489 C371.565331,280.489 371.089336,280.760997 370.568,281.305 L370.568,287 L368.069,287 Z" id="376mm" fill="#093169" fill-rule="nonzero"></path>
    </g>
</svg>