<?xml version="1.0" encoding="UTF-8"?>
<svg width="706px" height="296px" viewBox="0 0 706 296" version="1.1" xmlns="http://www.w3.org/2000/svg" xmlns:xlink="http://www.w3.org/1999/xlink">
    <!-- Generator: Sketch 58 (84663) - https://sketch.com -->
    <title>pierCaps/PC225</title>
    <desc>Created with Sketch.</desc>
    <g id="pierCaps/PC225" stroke="none" stroke-width="1" fill="none" fill-rule="evenodd">
        <rect fill="#F5F9FF" x="0" y="0" width="706" height="296"></rect>
        <g id="Group-2" transform="translate(203.000000, 35.000000)">
            <g id="Group" transform="translate(0.000000, 67.000000)">
                <polyline id="Path" stroke="#CBD8F2" fill="#FFFFFF" points="30.781 44.08 30.781 53.92 268.781 53.92 268.781 44.08"></polyline>
                <path d="M287,34.331 C280.745852,34.571 277.742534,39.125 277.444421,44.16 C277.444421,44.16 23.0653018,44.16 22.5555787,44.16 C22.2574664,39.125 20.254148,34.571 14,34.331" id="Path" stroke="#CBD8F2" fill="#FFFFFF"></path>
                <rect id="Rectangle" stroke-opacity="0.6" stroke="#FF5959" fill="#FFFFFF" x="42.781" y="57.72" width="105" height="32"></rect>
                <rect id="Rectangle-Copy" stroke-opacity="0.6" stroke="#FF5959" fill="#FFFFFF" x="153.781" y="57.72" width="105" height="32"></rect>
                <polyline id="Path" stroke="#CBD8F2" fill="#FFFFFF" points="13.06 28.44 13.06 34.32 287.06 34.32 287.06 33.84 287.06 28.44"></polyline>
                <path d="M0,11.17 C3.87602561,10.984 7.48058335,13.3959605 7.48058335,16.578 C7.48058335,17.9592878 7.48058335,21.9132878 7.48058335,28.44 L292.648455,28.44 C292.648455,22.6799757 292.648455,18.7259757 292.648455,16.578 C292.648455,13.3560365 296.123974,10.984 300,11.17" id="Path" stroke="#CBD8F2" fill="#FFFFFF"></path>
                <polygon id="Path" stroke="#CBD8F2" fill="#FFFFFF" points="0.06 11.28 0.06 -1.33226763e-14 300.06 -1.33226763e-14 300.06 11.28"></polygon>
                <polyline id="Rectangle-Copy-2" stroke="#CBD8F2" transform="translate(149.781000, 113.580000) rotate(-180.000000) translate(-149.781000, -113.580000) " points="31.1776667 121.08 30.781 106.08 268.781 106.08 268.781 121.08"></polyline>
                <path d="M127.246,153.08 L127.246,150.496 L122.571,150.496 L122.571,148.779 L126.515,142.285 L129.575,142.285 L129.575,148.592 L130.816,148.592 L130.816,150.496 L129.575,150.496 L129.575,153.08 L127.246,153.08 Z M124.968,148.592 L127.246,148.592 L127.246,146.841 L127.25144,146.39356 C127.255067,146.2358 127.260507,146.069427 127.26776,145.894441 L127.3208,144.86356 C127.329867,144.70852 127.338933,144.563001 127.348,144.427 L127.28,144.427 C127.143999,144.721668 127.002334,145.021998 126.855,145.328 C126.707666,145.634002 126.554667,145.939998 126.396,146.246 L124.968,148.592 Z M135.695,153.284 C135.150997,153.284 134.649502,153.213167 134.1905,153.0715 C133.731498,152.929833 133.334835,152.728668 133.0005,152.468 C132.666165,152.207332 132.405501,151.895668 132.2185,151.533 C132.031499,151.170332 131.938,150.768002 131.938,150.326 C131.938,149.668663 132.116498,149.130335 132.4735,148.711 C132.830502,148.291665 133.263997,147.946001 133.774,147.674 L133.774,147.606 C133.354665,147.288665 133.009001,146.928835 132.737,146.5265 C132.464999,146.124165 132.329,145.634003 132.329,145.056 C132.329,144.602664 132.413999,144.191835 132.584,143.8235 C132.754001,143.455165 132.991998,143.140668 133.298,142.88 C133.604002,142.619332 133.969498,142.421001 134.3945,142.285 C134.819502,142.148999 135.281331,142.081 135.78,142.081 C136.267336,142.081 136.714998,142.151833 137.123,142.2935 C137.531002,142.435167 137.876665,142.633499 138.16,142.8885 C138.443335,143.143501 138.664333,143.455165 138.823,143.8235 C138.981667,144.191835 139.061,144.596998 139.061,145.039 C139.061,145.560336 138.919335,146.022165 138.636,146.4245 C138.352665,146.826835 138.024002,147.152665 137.65,147.402 L137.65,147.47 C138.171336,147.753335 138.613332,148.115998 138.976,148.558 C139.338668,149.000002 139.52,149.577996 139.52,150.292 C139.52,150.722669 139.429334,151.119332 139.248,151.482 C139.066666,151.844668 138.808835,152.159165 138.4745,152.4255 C138.140165,152.691835 137.737836,152.901499 137.2675,153.0545 C136.797164,153.207501 136.273003,153.284 135.695,153.284 Z M136.375,146.79 C136.817002,146.279997 137.038,145.753003 137.038,145.209 C137.038,144.789665 136.921834,144.452501 136.6895,144.1975 C136.457166,143.942499 136.137002,143.815 135.729,143.815 C135.400332,143.815 135.117001,143.916999 134.879,144.121 C134.640999,144.325001 134.522,144.636665 134.522,145.056 C134.522,145.498002 134.691998,145.843665 135.032,146.093 C135.372002,146.342335 135.819664,146.574666 136.375,146.79 Z M135.746,151.55 C136.165335,151.55 136.510999,151.439501 136.783,151.2185 C137.055001,150.997499 137.191,150.660336 137.191,150.207 C137.191,149.968999 137.137167,149.765001 137.0295,149.595 C136.921833,149.424999 136.766001,149.269167 136.562,149.1275 C136.357999,148.985833 136.117168,148.852667 135.8395,148.728 L135.162157,148.428375 C135.081053,148.392959 134.998,148.356834 134.913,148.32 C134.674999,148.546668 134.476667,148.807332 134.318,149.102 C134.159333,149.396668 134.08,149.708332 134.08,150.037 C134.08,150.513002 134.244332,150.884165 134.573,151.1505 C134.901668,151.416835 135.292664,151.55 135.746,151.55 Z M144.331,153.284 C143.446996,153.284 142.699003,153.145168 142.087,152.8675 C141.474997,152.589832 140.970669,152.218669 140.574,151.754 L141.73,150.173 C142.058668,150.490335 142.418498,150.750999 142.8095,150.955 C143.200502,151.159001 143.628331,151.261 144.093,151.261 C144.625669,151.261 145.050665,151.150501 145.368,150.9295 C145.685335,150.708499 145.844,150.394002 145.844,149.986 C145.844,149.747999 145.8015,149.532668 145.7165,149.34 C145.6315,149.147332 145.481334,148.985834 145.266,148.8555 C145.050666,148.725166 144.756002,148.623167 144.382,148.5495 C144.007998,148.475833 143.526336,148.439 142.937,148.439 L142.937,146.671 C143.424336,146.671 143.829498,146.637 144.1525,146.569 C144.475502,146.501 144.736166,146.401834 144.9345,146.2715 C145.132834,146.141166 145.2745,145.988168 145.3595,145.8125 C145.4445,145.636832 145.487,145.441334 145.487,145.226 C145.487,144.851998 145.373668,144.560168 145.147,144.3505 C144.920332,144.140832 144.591669,144.036 144.161,144.036 C143.775665,144.036 143.427168,144.120999 143.1155,144.291 C142.803832,144.461001 142.478002,144.693332 142.138,144.988 L140.88,143.458 C141.378669,143.027331 141.902831,142.690168 142.4525,142.4465 C143.002169,142.202832 143.61133,142.081 144.28,142.081 C144.835336,142.081 145.342498,142.146166 145.8015,142.2765 C146.260502,142.406834 146.651498,142.599499 146.9745,142.8545 C147.297502,143.109501 147.549666,143.418332 147.731,143.781 C147.912334,144.143668 148.003,144.562998 148.003,145.039 C148.003,145.60567 147.847168,146.084498 147.5355,146.4755 C147.223832,146.866502 146.779003,147.186665 146.201,147.436 L146.201,147.504 C146.824336,147.685334 147.337165,147.994164 147.7395,148.4305 C148.141835,148.866836 148.343,149.43633 148.343,150.139 C148.343,150.637669 148.235334,151.082498 148.02,151.4735 C147.804666,151.864502 147.515668,152.193165 147.153,152.4595 C146.790332,152.725835 146.365336,152.929833 145.878,153.0715 C145.390664,153.213167 144.875003,153.284 144.331,153.284 Z M150.281,153.08 L150.281,144.648 L152.321,144.648 L152.491,145.736 L152.559,145.736 C152.910335,145.384665 153.284331,145.081501 153.681,144.8265 C154.077669,144.571499 154.553664,144.444 155.109,144.444 C155.70967,144.444 156.194165,144.565832 156.5625,144.8095 C156.930835,145.053168 157.222666,145.401664 157.438,145.855 C157.812002,145.469665 158.205831,145.138168 158.6195,144.8605 C159.033169,144.582832 159.52333,144.444 160.09,144.444 C160.996671,144.444 161.662498,144.747164 162.0875,145.3535 C162.512502,145.959836 162.725,146.789995 162.725,147.844 L162.725,153.08 L160.226,153.08 L160.226,148.167 C160.226,147.554997 160.143834,147.135668 159.9795,146.909 C159.815166,146.682332 159.551668,146.569 159.189,146.569 C158.769665,146.569 158.288003,146.840997 157.744,147.385 L157.744,153.08 L155.245,153.08 L155.245,148.167 C155.245,147.554997 155.162834,147.135668 154.9985,146.909 C154.834166,146.682332 154.570668,146.569 154.208,146.569 C153.777331,146.569 153.301336,146.840997 152.78,147.385 L152.78,153.08 L150.281,153.08 Z M164.85,153.08 L164.85,144.648 L166.89,144.648 L167.06,145.736 L167.128,145.736 C167.479335,145.384665 167.853331,145.081501 168.25,144.8265 C168.646669,144.571499 169.122664,144.444 169.678,144.444 C170.27867,144.444 170.763165,144.565832 171.1315,144.8095 C171.499835,145.053168 171.791666,145.401664 172.007,145.855 C172.381002,145.469665 172.774831,145.138168 173.1885,144.8605 C173.602169,144.582832 174.09233,144.444 174.659,144.444 C175.565671,144.444 176.231498,144.747164 176.6565,145.3535 C177.081502,145.959836 177.294,146.789995 177.294,147.844 L177.294,153.08 L174.795,153.08 L174.795,148.167 C174.795,147.554997 174.712834,147.135668 174.5485,146.909 C174.384166,146.682332 174.120668,146.569 173.758,146.569 C173.338665,146.569 172.857003,146.840997 172.313,147.385 L172.313,153.08 L169.814,153.08 L169.814,148.167 C169.814,147.554997 169.731834,147.135668 169.5675,146.909 C169.403166,146.682332 169.139668,146.569 168.777,146.569 C168.346331,146.569 167.870336,146.840997 167.349,147.385 L167.349,153.08 L164.85,153.08 Z" id="483mm" fill="#093169" fill-rule="nonzero"></path>
            </g>
            <path d="M329.657,100 L329.657,97.977 L332.003,97.977 L332.003,91.738 L329.98,91.738 L329.98,90.191 C330.569336,90.0776661 331.067998,89.9416675 331.476,89.783 C331.884002,89.6243325 332.280665,89.4316678 332.666,89.205 L334.502,89.205 L334.502,97.977 L336.525,97.977 L336.525,100 L329.657,100 Z M338.633,100 L338.633,97.977 L340.979,97.977 L340.979,91.738 L338.956,91.738 L338.956,90.191 C339.545336,90.0776661 340.043998,89.9416675 340.452,89.783 C340.860002,89.6243325 341.256665,89.4316678 341.642,89.205 L343.478,89.205 L343.478,97.977 L345.501,97.977 L345.501,100 L338.633,100 Z M350.907,100.204 C350.328997,100.204 349.802002,100.082168 349.326,99.8385 C348.849998,99.5948321 348.444835,99.2350024 348.1105,98.759 C347.776165,98.2829976 347.515501,97.6936702 347.3285,96.991 C347.141499,96.2883298 347.048,95.4780046 347.048,94.56 C347.048,93.6419954 347.141499,92.8373368 347.3285,92.146 C347.515501,91.4546632 347.776165,90.8738357 348.1105,90.4035 C348.444835,89.9331643 348.849998,89.5818345 349.326,89.3495 C349.802002,89.1171655 350.328997,89.001 350.907,89.001 C351.485003,89.001 352.011998,89.1171655 352.488,89.3495 C352.964002,89.5818345 353.369165,89.9331643 353.7035,90.4035 C354.037835,90.8738357 354.298499,91.4546632 354.4855,92.146 C354.672501,92.8373368 354.766,93.6419954 354.766,94.56 C354.766,95.4780046 354.672501,96.2883298 354.4855,96.991 C354.298499,97.6936702 354.037835,98.2829976 353.7035,98.759 C353.369165,99.2350024 352.964002,99.5948321 352.488,99.8385 C352.011998,100.082168 351.485003,100.204 350.907,100.204 Z M350.907,98.266 C351.122334,98.266 351.320666,98.2121672 351.502,98.1045 C351.683334,97.9968328 351.841999,97.8013347 351.978,97.518 C352.114001,97.2346653 352.218833,96.8550024 352.2925,96.379 C352.366167,95.9029976 352.403,95.2966703 352.403,94.56 C352.403,93.8233297 352.366167,93.2198357 352.2925,92.7495 C352.218833,92.2791643 352.114001,91.9108347 351.978,91.6445 C351.841999,91.3781653 351.683334,91.1940005 351.502,91.092 C351.320666,90.9899995 351.122334,90.939 350.907,90.939 C350.702999,90.939 350.510334,90.9899995 350.329,91.092 C350.147666,91.1940005 349.989001,91.3781653 349.853,91.6445 C349.716999,91.9108347 349.609334,92.2791643 349.53,92.7495 C349.450666,93.2198357 349.411,93.8233297 349.411,94.56 C349.411,95.2966703 349.450666,95.9029976 349.53,96.379 C349.609334,96.8550024 349.716999,97.2346653 349.853,97.518 C349.989001,97.8013347 350.147666,97.9968328 350.329,98.1045 C350.510334,98.2121672 350.702999,98.266 350.907,98.266 Z M356.5,100 L356.5,91.568 L358.54,91.568 L358.71,92.656 L358.778,92.656 C359.129335,92.3046649 359.503331,92.0015013 359.9,91.7465 C360.296669,91.4914987 360.772664,91.364 361.328,91.364 C361.92867,91.364 362.413165,91.4858321 362.7815,91.7295 C363.149835,91.9731679 363.441666,92.3216644 363.657,92.775 C364.031002,92.3896647 364.424831,92.0581681 364.8385,91.7805 C365.252169,91.5028319 365.74233,91.364 366.309,91.364 C367.215671,91.364 367.881498,91.6671636 368.3065,92.2735 C368.731502,92.8798364 368.944,93.7099947 368.944,94.764 L368.944,100 L366.445,100 L366.445,95.087 C366.445,94.4749969 366.362834,94.0556678 366.1985,93.829 C366.034166,93.6023322 365.770668,93.489 365.408,93.489 C364.988665,93.489 364.507003,93.7609973 363.963,94.305 L363.963,100 L361.464,100 L361.464,95.087 C361.464,94.4749969 361.381834,94.0556678 361.2175,93.829 C361.053166,93.6023322 360.789668,93.489 360.427,93.489 C359.996331,93.489 359.520336,93.7609973 358.999,94.305 L358.999,100 L356.5,100 Z M371.069,100 L371.069,91.568 L373.109,91.568 L373.279,92.656 L373.347,92.656 C373.698335,92.3046649 374.072331,92.0015013 374.469,91.7465 C374.865669,91.4914987 375.341664,91.364 375.897,91.364 C376.49767,91.364 376.982165,91.4858321 377.3505,91.7295 C377.718835,91.9731679 378.010666,92.3216644 378.226,92.775 C378.600002,92.3896647 378.993831,92.0581681 379.4075,91.7805 C379.821169,91.5028319 380.31133,91.364 380.878,91.364 C381.784671,91.364 382.450498,91.6671636 382.8755,92.2735 C383.300502,92.8798364 383.513,93.7099947 383.513,94.764 L383.513,100 L381.014,100 L381.014,95.087 C381.014,94.4749969 380.931834,94.0556678 380.7675,93.829 C380.603166,93.6023322 380.339668,93.489 379.977,93.489 C379.557665,93.489 379.076003,93.7609973 378.532,94.305 L378.532,100 L376.033,100 L376.033,95.087 C376.033,94.4749969 375.950834,94.0556678 375.7865,93.829 C375.622166,93.6023322 375.358668,93.489 374.996,93.489 C374.565331,93.489 374.089336,93.7609973 373.568,94.305 L373.568,100 L371.069,100 Z" id="110mm" fill="#093169" fill-rule="nonzero" transform="translate(356.585000, 94.602500) rotate(-270.000000) translate(-356.585000, -94.602500) "></path>
            <polyline id="Rectangle-Copy-3" stroke="#CBD8F2" transform="translate(323.000000, 93.500000) rotate(-270.000000) translate(-323.000000, -93.500000) " points="296.09 101 296 86 350 86 350 101"></polyline>
            <polyline id="Rectangle-Copy" stroke="#CBD8F2" points="0.5 52 0 37 300 37 300 52"></polyline>
            <path d="M127.244,17.204 C126.722664,17.204 126.215502,17.102001 125.7225,16.898 C125.229498,16.693999 124.793169,16.3766688 124.4135,15.946 C124.033831,15.5153312 123.730668,14.9628367 123.504,14.2885 C123.277332,13.6141633 123.164,12.8010048 123.164,11.849 C123.164,10.8403283 123.285832,9.96767035 123.5295,9.231 C123.773168,8.49432965 124.096165,7.88800238 124.4985,7.412 C124.900835,6.93599762 125.365497,6.58183449 125.8925,6.3495 C126.419503,6.1171655 126.96633,6.001 127.533,6.001 C128.247004,6.001 128.864664,6.12849873 129.386,6.3835 C129.907336,6.63850127 130.337998,6.94166491 130.678,7.293 L129.369,8.789 C129.176332,8.58499898 128.927002,8.40650076 128.621,8.2535 C128.314998,8.10049923 128.003335,8.024 127.686,8.024 C127.391332,8.024 127.113668,8.0806661 126.853,8.194 C126.592332,8.3073339 126.362834,8.49716533 126.1645,8.7635 C125.966166,9.02983466 125.804667,9.37833118 125.68,9.809 C125.555333,10.2396688 125.481667,10.7666636 125.459,11.39 C125.595001,11.2086658 125.753666,11.0471674 125.935,10.9055 C126.116334,10.7638326 126.303332,10.6448338 126.496,10.5485 C126.688668,10.4521662 126.881332,10.3785003 127.074,10.3275 C127.266668,10.2764997 127.447999,10.251 127.618,10.251 C128.082669,10.251 128.510498,10.3189993 128.9015,10.455 C129.292502,10.5910007 129.632499,10.7949986 129.9215,11.067 C130.210501,11.3390014 130.434333,11.6846646 130.593,12.104 C130.751667,12.5233354 130.831,13.0163305 130.831,13.583 C130.831,14.1496695 130.734668,14.6539978 130.542,15.096 C130.349332,15.5380022 130.091502,15.9176651 129.7685,16.235 C129.445498,16.5523349 129.065836,16.7931658 128.6295,16.9575 C128.193164,17.1218342 127.731336,17.204 127.244,17.204 Z M127.193,15.334 C127.567002,15.334 127.887165,15.1951681 128.1535,14.9175 C128.419835,14.6398319 128.553,14.1950031 128.553,13.583 C128.553,13.0049971 128.419835,12.5998345 128.1535,12.3675 C127.887165,12.1351655 127.550002,12.019 127.142,12.019 C126.858665,12.019 126.572501,12.1011658 126.2835,12.2655 C125.994499,12.4298342 125.736668,12.7046647 125.51,13.09 C125.566667,13.5206688 125.651666,13.8776652 125.765,14.161 C125.878334,14.4443347 126.008666,14.6738325 126.156,14.8495 C126.303334,15.0251675 126.464832,15.149833 126.6405,15.2235 C126.816168,15.297167 127.000332,15.334 127.193,15.334 Z M132.633,17 L132.633,14.977 L134.979,14.977 L134.979,8.738 L132.956,8.738 L132.956,7.191 C133.545336,7.0776661 134.043998,6.94166746 134.452,6.783 C134.860002,6.62433254 135.256665,6.4316678 135.642,6.205 L137.478,6.205 L137.478,14.977 L139.501,14.977 L139.501,17 L132.633,17 Z M144.907,17.204 C144.328997,17.204 143.802002,17.0821679 143.326,16.8385 C142.849998,16.5948321 142.444835,16.2350024 142.1105,15.759 C141.776165,15.2829976 141.515501,14.6936702 141.3285,13.991 C141.141499,13.2883298 141.048,12.4780046 141.048,11.56 C141.048,10.6419954 141.141499,9.83733679 141.3285,9.146 C141.515501,8.45466321 141.776165,7.87383568 142.1105,7.4035 C142.444835,6.93316431 142.849998,6.58183449 143.326,6.3495 C143.802002,6.1171655 144.328997,6.001 144.907,6.001 C145.485003,6.001 146.011998,6.1171655 146.488,6.3495 C146.964002,6.58183449 147.369165,6.93316431 147.7035,7.4035 C148.037835,7.87383568 148.298499,8.45466321 148.4855,9.146 C148.672501,9.83733679 148.766,10.6419954 148.766,11.56 C148.766,12.4780046 148.672501,13.2883298 148.4855,13.991 C148.298499,14.6936702 148.037835,15.2829976 147.7035,15.759 C147.369165,16.2350024 146.964002,16.5948321 146.488,16.8385 C146.011998,17.0821679 145.485003,17.204 144.907,17.204 Z M144.907,15.266 C145.122334,15.266 145.320666,15.2121672 145.502,15.1045 C145.683334,14.9968328 145.841999,14.8013347 145.978,14.518 C146.114001,14.2346652 146.218833,13.8550024 146.2925,13.379 C146.366167,12.9029976 146.403,12.2966703 146.403,11.56 C146.403,10.8233296 146.366167,10.2198357 146.2925,9.7495 C146.218833,9.27916431 146.114001,8.91083466 145.978,8.6445 C145.841999,8.37816533 145.683334,8.19400051 145.502,8.092 C145.320666,7.98999949 145.122334,7.939 144.907,7.939 C144.702999,7.939 144.510334,7.98999949 144.329,8.092 C144.147666,8.19400051 143.989001,8.37816533 143.853,8.6445 C143.716999,8.91083466 143.609334,9.27916431 143.53,9.7495 C143.450666,10.2198357 143.411,10.8233296 143.411,11.56 C143.411,12.2966703 143.450666,12.9029976 143.53,13.379 C143.609334,13.8550024 143.716999,14.2346652 143.853,14.518 C143.989001,14.8013347 144.147666,14.9968328 144.329,15.1045 C144.510334,15.2121672 144.702999,15.266 144.907,15.266 Z M150.5,17 L150.5,8.568 L152.54,8.568 L152.71,9.656 L152.778,9.656 C153.129335,9.30466491 153.503331,9.00150127 153.9,8.7465 C154.296669,8.49149872 154.772664,8.364 155.328,8.364 C155.92867,8.364 156.413165,8.48583211 156.7815,8.7295 C157.149835,8.97316788 157.441666,9.3216644 157.657,9.775 C158.031002,9.38966474 158.424831,9.05816805 158.8385,8.7805 C159.252169,8.50283194 159.742331,8.364 160.309,8.364 C161.215671,8.364 161.881498,8.66716363 162.3065,9.2735 C162.731502,9.87983636 162.944,10.7099947 162.944,11.764 L162.944,17 L160.445,17 L160.445,12.087 C160.445,11.4749969 160.362834,11.0556678 160.1985,10.829 C160.034166,10.6023322 159.770668,10.489 159.408,10.489 C158.988665,10.489 158.507003,10.7609973 157.963,11.305 L157.963,17 L155.464,17 L155.464,12.087 C155.464,11.4749969 155.381834,11.0556678 155.2175,10.829 C155.053166,10.6023322 154.789668,10.489 154.427,10.489 C153.996331,10.489 153.520336,10.7609973 152.999,11.305 L152.999,17 L150.5,17 Z M165.069,17 L165.069,8.568 L167.109,8.568 L167.279,9.656 L167.347,9.656 C167.698335,9.30466491 168.072331,9.00150127 168.469,8.7465 C168.865669,8.49149872 169.341664,8.364 169.897,8.364 C170.49767,8.364 170.982165,8.48583211 171.3505,8.7295 C171.718835,8.97316788 172.010666,9.3216644 172.226,9.775 C172.600002,9.38966474 172.993831,9.05816805 173.4075,8.7805 C173.821169,8.50283194 174.31133,8.364 174.878,8.364 C175.784671,8.364 176.450498,8.66716363 176.8755,9.2735 C177.300502,9.87983636 177.513,10.7099947 177.513,11.764 L177.513,17 L175.014,17 L175.014,12.087 C175.014,11.4749969 174.931834,11.0556678 174.7675,10.829 C174.603166,10.6023322 174.339668,10.489 173.977,10.489 C173.557665,10.489 173.076003,10.7609973 172.532,11.305 L172.532,17 L170.033,17 L170.033,12.087 C170.033,11.4749969 169.950834,11.0556678 169.7865,10.829 C169.622166,10.6023322 169.358668,10.489 168.996,10.489 C168.565331,10.489 168.089336,10.7609973 167.568,11.305 L167.568,17 L165.069,17 Z" id="610mm" fill="#093169" fill-rule="nonzero"></path>
        </g>
    </g>
</svg>