<?xml version="1.0" encoding="UTF-8"?>
<svg width="706px" height="327px" viewBox="0 0 706 327" version="1.1" xmlns="http://www.w3.org/2000/svg" xmlns:xlink="http://www.w3.org/1999/xlink">
    <!-- Generator: Sketch 58 (84663) - https://sketch.com -->
    <title>pierCaps/PC220</title>
    <desc>Created with Sketch.</desc>
    <g id="pierCaps/PC220" stroke="none" stroke-width="1" fill="none" fill-rule="evenodd">
        <rect fill="#F5F9FF" x="0" y="0" width="706" height="327"></rect>
        <g id="Group" transform="translate(203.000000, 35.000000)">
            <polyline id="Path" stroke="#CBD8F2" fill="#FFFFFF" points="31 143 31 152.84 269 152.84 269 143"></polyline>
            <path d="M287.219,133.251 C280.964852,133.491 277.961534,138.045 277.663421,143.08 C277.663421,143.08 23.2843018,143.08 22.7745787,143.08 C22.4764664,138.045 20.473148,133.491 14.219,133.251" id="Path" stroke="#CBD8F2" fill="#FFFFFF"></path>
            <polyline id="Path" stroke="#CBD8F2" fill="#FFFFFF" points="0.279 98.92 150.279 67 300.279 98.92"></polyline>
            <rect id="Rectangle" stroke-opacity="0.6" stroke="#FF5959" fill="#FFFFFF" x="43" y="156.64" width="105" height="32"></rect>
            <rect id="Rectangle-Copy" stroke-opacity="0.6" stroke="#FF5959" fill="#FFFFFF" x="154" y="156.64" width="105" height="32"></rect>
            <polyline id="Path" stroke="#CBD8F2" fill="#FFFFFF" points="13.279 127.36 13.279 133.24 287.279 133.24 287.279 132.76 287.279 127.36"></polyline>
            <path d="M0.219,110.09 C4.09502561,109.904 7.69958335,112.315961 7.69958335,115.498 C7.69958335,116.879288 7.69958335,120.833288 7.69958335,127.36 L292.867455,127.36 C292.867455,121.599976 292.867455,117.645976 292.867455,115.498 C292.867455,112.276036 296.342974,109.904 300.219,110.09" id="Path" stroke="#CBD8F2" fill="#FFFFFF"></path>
            <polygon id="Path" stroke="#CBD8F2" fill="#FFFFFF" points="0.279 110.2 0.279 98.92 300.279 98.92 300.279 110.2"></polygon>
            <path d="M328.157,116.5 L328.157,114.477 L330.503,114.477 L330.503,108.238 L328.48,108.238 L328.48,106.691 C329.069336,106.577666 329.567998,106.441667 329.976,106.283 C330.384002,106.124333 330.780665,105.931668 331.166,105.705 L333.002,105.705 L333.002,114.477 L335.025,114.477 L335.025,116.5 L328.157,116.5 Z M338.646,116.5 C338.691334,115.604662 338.773499,114.78017 338.8925,114.0265 C339.011501,113.27283 339.181499,112.55317 339.4025,111.8675 C339.623501,111.18183 339.906832,110.510337 340.2525,109.853 C340.598168,109.195663 341.025997,108.51567 341.536,107.813 L336.691,107.813 L336.691,105.705 L344.205,105.705 L344.205,107.235 C343.581664,107.994337 343.080169,108.705497 342.7005,109.3685 C342.320831,110.031503 342.026168,110.717163 341.8165,111.4255 C341.606832,112.133837 341.456667,112.893163 341.366,113.7035 C341.275333,114.513837 341.207334,115.445995 341.162,116.5 L338.646,116.5 Z M349.118,116.704 C348.233996,116.704 347.486003,116.559501 346.874,116.2705 C346.261997,115.981499 345.740669,115.621669 345.31,115.191 L346.432,113.61 C346.760668,113.904668 347.114831,114.156832 347.4945,114.3665 C347.874169,114.576168 348.296331,114.681 348.761,114.681 C349.316336,114.681 349.758332,114.539335 350.087,114.256 C350.415668,113.972665 350.58,113.553336 350.58,112.998 C350.58,112.453997 350.424168,112.040335 350.1125,111.757 C349.800832,111.473665 349.390003,111.332 348.88,111.332 C348.721333,111.332 348.579667,111.3405 348.455,111.3575 C348.330333,111.3745 348.208501,111.405666 348.0895,111.451 C347.970499,111.496334 347.845834,111.553 347.7155,111.621 C347.585166,111.689 347.440667,111.773999 347.282,111.876 L346.16,111.162 L346.466,105.705 L352.586,105.705 L352.586,107.813 L348.625,107.813 L348.438,109.836 C348.642001,109.745333 348.837499,109.680167 349.0245,109.6405 C349.211501,109.600833 349.418332,109.581 349.645,109.581 C350.109669,109.581 350.548831,109.648999 350.9625,109.785 C351.376169,109.921001 351.741665,110.124999 352.059,110.397 C352.376335,110.669001 352.625666,111.014665 352.807,111.434 C352.988334,111.853335 353.079,112.351997 353.079,112.93 C353.079,113.53067 352.971334,114.063331 352.756,114.528 C352.540666,114.992669 352.251668,115.386498 351.889,115.7095 C351.526332,116.032502 351.104169,116.278999 350.6225,116.449 C350.140831,116.619001 349.639336,116.704 349.118,116.704 Z M355,116.5 L355,108.068 L357.04,108.068 L357.21,109.156 L357.278,109.156 C357.629335,108.804665 358.003331,108.501501 358.4,108.2465 C358.796669,107.991499 359.272664,107.864 359.828,107.864 C360.42867,107.864 360.913165,107.985832 361.2815,108.2295 C361.649835,108.473168 361.941666,108.821664 362.157,109.275 C362.531002,108.889665 362.924831,108.558168 363.3385,108.2805 C363.752169,108.002832 364.24233,107.864 364.809,107.864 C365.715671,107.864 366.381498,108.167164 366.8065,108.7735 C367.231502,109.379836 367.444,110.209995 367.444,111.264 L367.444,116.5 L364.945,116.5 L364.945,111.587 C364.945,110.974997 364.862834,110.555668 364.6985,110.329 C364.534166,110.102332 364.270668,109.989 363.908,109.989 C363.488665,109.989 363.007003,110.260997 362.463,110.805 L362.463,116.5 L359.964,116.5 L359.964,111.587 C359.964,110.974997 359.881834,110.555668 359.7175,110.329 C359.553166,110.102332 359.289668,109.989 358.927,109.989 C358.496331,109.989 358.020336,110.260997 357.499,110.805 L357.499,116.5 L355,116.5 Z M369.569,116.5 L369.569,108.068 L371.609,108.068 L371.779,109.156 L371.847,109.156 C372.198335,108.804665 372.572331,108.501501 372.969,108.2465 C373.365669,107.991499 373.841664,107.864 374.397,107.864 C374.99767,107.864 375.482165,107.985832 375.8505,108.2295 C376.218835,108.473168 376.510666,108.821664 376.726,109.275 C377.100002,108.889665 377.493831,108.558168 377.9075,108.2805 C378.321169,108.002832 378.81133,107.864 379.378,107.864 C380.284671,107.864 380.950498,108.167164 381.3755,108.7735 C381.800502,109.379836 382.013,110.209995 382.013,111.264 L382.013,116.5 L379.514,116.5 L379.514,111.587 C379.514,110.974997 379.431834,110.555668 379.2675,110.329 C379.103166,110.102332 378.839668,109.989 378.477,109.989 C378.057665,109.989 377.576003,110.260997 377.032,110.805 L377.032,116.5 L374.533,116.5 L374.533,111.587 C374.533,110.974997 374.450834,110.555668 374.2865,110.329 C374.122166,110.102332 373.858668,109.989 373.496,109.989 C373.065331,109.989 372.589336,110.260997 372.068,110.805 L372.068,116.5 L369.569,116.5 Z" id="175mm" fill="#093169" fill-rule="nonzero" transform="translate(355.085000, 111.204500) rotate(-270.000000) translate(-355.085000, -111.204500) "></path>
            <polyline id="Rectangle-Copy-3" stroke="#CBD8F2" transform="translate(322.500000, 110.000000) rotate(-270.000000) translate(-322.500000, -110.000000) " points="279.643333 117.5 279.5 102.5 365.5 102.5 365.5 117.5"></polyline>
            <polyline id="Rectangle-Copy" stroke="#CBD8F2" points="0.5 52 0 37 300 37 300 52"></polyline>
            <polyline id="Rectangle-Copy-2" stroke="#CBD8F2" transform="translate(150.000000, 212.500000) rotate(-180.000000) translate(-150.000000, -212.500000) " points="31.3966667 220 31 205 269 205 269 220"></polyline>
            <path d="M127.244,17.204 C126.722664,17.204 126.215502,17.102001 125.7225,16.898 C125.229498,16.693999 124.793169,16.3766688 124.4135,15.946 C124.033831,15.5153312 123.730668,14.9628367 123.504,14.2885 C123.277332,13.6141633 123.164,12.8010048 123.164,11.849 C123.164,10.8403283 123.285832,9.96767035 123.5295,9.231 C123.773168,8.49432965 124.096165,7.88800238 124.4985,7.412 C124.900835,6.93599762 125.365497,6.58183449 125.8925,6.3495 C126.419503,6.1171655 126.96633,6.001 127.533,6.001 C128.247004,6.001 128.864664,6.12849873 129.386,6.3835 C129.907336,6.63850127 130.337998,6.94166491 130.678,7.293 L129.369,8.789 C129.176332,8.58499898 128.927002,8.40650076 128.621,8.2535 C128.314998,8.10049923 128.003335,8.024 127.686,8.024 C127.391332,8.024 127.113668,8.0806661 126.853,8.194 C126.592332,8.3073339 126.362834,8.49716533 126.1645,8.7635 C125.966166,9.02983466 125.804667,9.37833118 125.68,9.809 C125.555333,10.2396688 125.481667,10.7666636 125.459,11.39 C125.595001,11.2086658 125.753666,11.0471674 125.935,10.9055 C126.116334,10.7638326 126.303332,10.6448338 126.496,10.5485 C126.688668,10.4521662 126.881332,10.3785003 127.074,10.3275 C127.266668,10.2764997 127.447999,10.251 127.618,10.251 C128.082669,10.251 128.510498,10.3189993 128.9015,10.455 C129.292502,10.5910007 129.632499,10.7949986 129.9215,11.067 C130.210501,11.3390014 130.434333,11.6846646 130.593,12.104 C130.751667,12.5233354 130.831,13.0163305 130.831,13.583 C130.831,14.1496695 130.734668,14.6539978 130.542,15.096 C130.349332,15.5380022 130.091502,15.9176651 129.7685,16.235 C129.445498,16.5523349 129.065836,16.7931658 128.6295,16.9575 C128.193164,17.1218342 127.731336,17.204 127.244,17.204 Z M127.193,15.334 C127.567002,15.334 127.887165,15.1951681 128.1535,14.9175 C128.419835,14.6398319 128.553,14.1950031 128.553,13.583 C128.553,13.0049971 128.419835,12.5998345 128.1535,12.3675 C127.887165,12.1351655 127.550002,12.019 127.142,12.019 C126.858665,12.019 126.572501,12.1011658 126.2835,12.2655 C125.994499,12.4298342 125.736668,12.7046647 125.51,13.09 C125.566667,13.5206688 125.651666,13.8776652 125.765,14.161 C125.878334,14.4443347 126.008666,14.6738325 126.156,14.8495 C126.303334,15.0251675 126.464832,15.149833 126.6405,15.2235 C126.816168,15.297167 127.000332,15.334 127.193,15.334 Z M132.633,17 L132.633,14.977 L134.979,14.977 L134.979,8.738 L132.956,8.738 L132.956,7.191 C133.545336,7.0776661 134.043998,6.94166746 134.452,6.783 C134.860002,6.62433254 135.256665,6.4316678 135.642,6.205 L137.478,6.205 L137.478,14.977 L139.501,14.977 L139.501,17 L132.633,17 Z M144.907,17.204 C144.328997,17.204 143.802002,17.0821679 143.326,16.8385 C142.849998,16.5948321 142.444835,16.2350024 142.1105,15.759 C141.776165,15.2829976 141.515501,14.6936702 141.3285,13.991 C141.141499,13.2883298 141.048,12.4780046 141.048,11.56 C141.048,10.6419954 141.141499,9.83733679 141.3285,9.146 C141.515501,8.45466321 141.776165,7.87383568 142.1105,7.4035 C142.444835,6.93316431 142.849998,6.58183449 143.326,6.3495 C143.802002,6.1171655 144.328997,6.001 144.907,6.001 C145.485003,6.001 146.011998,6.1171655 146.488,6.3495 C146.964002,6.58183449 147.369165,6.93316431 147.7035,7.4035 C148.037835,7.87383568 148.298499,8.45466321 148.4855,9.146 C148.672501,9.83733679 148.766,10.6419954 148.766,11.56 C148.766,12.4780046 148.672501,13.2883298 148.4855,13.991 C148.298499,14.6936702 148.037835,15.2829976 147.7035,15.759 C147.369165,16.2350024 146.964002,16.5948321 146.488,16.8385 C146.011998,17.0821679 145.485003,17.204 144.907,17.204 Z M144.907,15.266 C145.122334,15.266 145.320666,15.2121672 145.502,15.1045 C145.683334,14.9968328 145.841999,14.8013347 145.978,14.518 C146.114001,14.2346652 146.218833,13.8550024 146.2925,13.379 C146.366167,12.9029976 146.403,12.2966703 146.403,11.56 C146.403,10.8233296 146.366167,10.2198357 146.2925,9.7495 C146.218833,9.27916431 146.114001,8.91083466 145.978,8.6445 C145.841999,8.37816533 145.683334,8.19400051 145.502,8.092 C145.320666,7.98999949 145.122334,7.939 144.907,7.939 C144.702999,7.939 144.510334,7.98999949 144.329,8.092 C144.147666,8.19400051 143.989001,8.37816533 143.853,8.6445 C143.716999,8.91083466 143.609334,9.27916431 143.53,9.7495 C143.450666,10.2198357 143.411,10.8233296 143.411,11.56 C143.411,12.2966703 143.450666,12.9029976 143.53,13.379 C143.609334,13.8550024 143.716999,14.2346652 143.853,14.518 C143.989001,14.8013347 144.147666,14.9968328 144.329,15.1045 C144.510334,15.2121672 144.702999,15.266 144.907,15.266 Z M150.5,17 L150.5,8.568 L152.54,8.568 L152.71,9.656 L152.778,9.656 C153.129335,9.30466491 153.503331,9.00150127 153.9,8.7465 C154.296669,8.49149872 154.772664,8.364 155.328,8.364 C155.92867,8.364 156.413165,8.48583211 156.7815,8.7295 C157.149835,8.97316788 157.441666,9.3216644 157.657,9.775 C158.031002,9.38966474 158.424831,9.05816805 158.8385,8.7805 C159.252169,8.50283194 159.742331,8.364 160.309,8.364 C161.215671,8.364 161.881498,8.66716363 162.3065,9.2735 C162.731502,9.87983636 162.944,10.7099947 162.944,11.764 L162.944,17 L160.445,17 L160.445,12.087 C160.445,11.4749969 160.362834,11.0556678 160.1985,10.829 C160.034166,10.6023322 159.770668,10.489 159.408,10.489 C158.988665,10.489 158.507003,10.7609973 157.963,11.305 L157.963,17 L155.464,17 L155.464,12.087 C155.464,11.4749969 155.381834,11.0556678 155.2175,10.829 C155.053166,10.6023322 154.789668,10.489 154.427,10.489 C153.996331,10.489 153.520336,10.7609973 152.999,11.305 L152.999,17 L150.5,17 Z M165.069,17 L165.069,8.568 L167.109,8.568 L167.279,9.656 L167.347,9.656 C167.698335,9.30466491 168.072331,9.00150127 168.469,8.7465 C168.865669,8.49149872 169.341664,8.364 169.897,8.364 C170.49767,8.364 170.982165,8.48583211 171.3505,8.7295 C171.718835,8.97316788 172.010666,9.3216644 172.226,9.775 C172.600002,9.38966474 172.993831,9.05816805 173.4075,8.7805 C173.821169,8.50283194 174.31133,8.364 174.878,8.364 C175.784671,8.364 176.450498,8.66716363 176.8755,9.2735 C177.300502,9.87983636 177.513,10.7099947 177.513,11.764 L177.513,17 L175.014,17 L175.014,12.087 C175.014,11.4749969 174.931834,11.0556678 174.7675,10.829 C174.603166,10.6023322 174.339668,10.489 173.977,10.489 C173.557665,10.489 173.076003,10.7609973 172.532,11.305 L172.532,17 L170.033,17 L170.033,12.087 C170.033,11.4749969 169.950834,11.0556678 169.7865,10.829 C169.622166,10.6023322 169.358668,10.489 168.996,10.489 C168.565331,10.489 168.089336,10.7609973 167.568,11.305 L167.568,17 L165.069,17 Z" id="610mm" fill="#093169" fill-rule="nonzero"></path>
            <path d="M127.465,252 L127.465,249.416 L122.79,249.416 L122.79,247.699 L126.734,241.205 L129.794,241.205 L129.794,247.512 L131.035,247.512 L131.035,249.416 L129.794,249.416 L129.794,252 L127.465,252 Z M125.187,247.512 L127.465,247.512 L127.465,245.761 C127.465,245.479932 127.472253,245.164414 127.48676,244.814441 L127.5398,243.78356 C127.548867,243.62852 127.557933,243.483001 127.567,243.347 L127.499,243.347 L127.074,244.248 L127.074,244.248 C126.926666,244.554002 126.773667,244.859998 126.615,245.166 L125.187,247.512 Z M135.914,252.204 C135.369997,252.204 134.868502,252.133167 134.4095,251.9915 C133.950498,251.849833 133.553835,251.648668 133.2195,251.388 C132.885165,251.127332 132.624501,250.815668 132.4375,250.453 C132.250499,250.090332 132.157,249.688002 132.157,249.246 C132.157,248.588663 132.335498,248.050335 132.6925,247.631 C133.049502,247.211665 133.482997,246.866001 133.993,246.594 L133.993,246.526 C133.573665,246.208665 133.228001,245.848835 132.956,245.4465 C132.683999,245.044165 132.548,244.554003 132.548,243.976 C132.548,243.522664 132.632999,243.111835 132.803,242.7435 C132.973001,242.375165 133.210998,242.060668 133.517,241.8 C133.823002,241.539332 134.188498,241.341001 134.6135,241.205 C135.038502,241.068999 135.500331,241.001 135.999,241.001 C136.486336,241.001 136.933998,241.071833 137.342,241.2135 C137.750002,241.355167 138.095665,241.553499 138.379,241.8085 C138.662335,242.063501 138.883333,242.375165 139.042,242.7435 C139.200667,243.111835 139.28,243.516998 139.28,243.959 C139.28,244.480336 139.138335,244.942165 138.855,245.3445 C138.571665,245.746835 138.243002,246.072665 137.869,246.322 L137.869,246.39 C138.390336,246.673335 138.832332,247.035998 139.195,247.478 C139.557668,247.920002 139.739,248.497996 139.739,249.212 C139.739,249.642669 139.648334,250.039332 139.467,250.402 C139.285666,250.764668 139.027835,251.079165 138.6935,251.3455 C138.359165,251.611835 137.956836,251.821499 137.4865,251.9745 C137.016164,252.127501 136.492003,252.204 135.914,252.204 Z M136.594,245.71 C137.036002,245.199997 137.257,244.673003 137.257,244.129 C137.257,243.709665 137.140834,243.372501 136.9085,243.1175 C136.676166,242.862499 136.356002,242.735 135.948,242.735 C135.619332,242.735 135.336001,242.836999 135.098,243.041 C134.859999,243.245001 134.741,243.556665 134.741,243.976 C134.741,244.418002 134.910998,244.763665 135.251,245.013 C135.591002,245.262335 136.038664,245.494666 136.594,245.71 Z M135.965,250.47 C136.384335,250.47 136.729999,250.359501 137.002,250.1385 C137.274001,249.917499 137.41,249.580336 137.41,249.127 C137.41,248.888999 137.356167,248.685001 137.2485,248.515 C137.140833,248.344999 136.985001,248.189167 136.781,248.0475 C136.576999,247.905833 136.336168,247.772667 136.0585,247.648 L135.381157,247.348375 C135.300053,247.312959 135.217,247.276834 135.132,247.24 C134.893999,247.466668 134.695667,247.727332 134.537,248.022 C134.378333,248.316668 134.299,248.628332 134.299,248.957 C134.299,249.433002 134.463332,249.804165 134.792,250.0705 C135.120668,250.336835 135.511664,250.47 135.965,250.47 Z M144.55,252.204 C143.665996,252.204 142.918003,252.065168 142.306,251.7875 C141.693997,251.509832 141.189669,251.138669 140.793,250.674 L141.949,249.093 C142.277668,249.410335 142.637498,249.670999 143.0285,249.875 C143.419502,250.079001 143.847331,250.181 144.312,250.181 C144.844669,250.181 145.269665,250.070501 145.587,249.8495 C145.904335,249.628499 146.063,249.314002 146.063,248.906 C146.063,248.667999 146.0205,248.452668 145.9355,248.26 C145.8505,248.067332 145.700334,247.905834 145.485,247.7755 C145.269666,247.645166 144.975002,247.543167 144.601,247.4695 C144.226998,247.395833 143.745336,247.359 143.156,247.359 L143.156,245.591 C143.643336,245.591 144.048498,245.557 144.3715,245.489 C144.694502,245.421 144.955166,245.321834 145.1535,245.1915 C145.351834,245.061166 145.4935,244.908168 145.5785,244.7325 C145.6635,244.556832 145.706,244.361334 145.706,244.146 C145.706,243.771998 145.592668,243.480168 145.366,243.2705 C145.139332,243.060832 144.810669,242.956 144.38,242.956 C143.994665,242.956 143.646168,243.040999 143.3345,243.211 C143.022832,243.381001 142.697002,243.613332 142.357,243.908 L141.099,242.378 C141.597669,241.947331 142.121831,241.610168 142.6715,241.3665 C143.221169,241.122832 143.83033,241.001 144.499,241.001 C145.054336,241.001 145.561498,241.066166 146.0205,241.1965 C146.479502,241.326834 146.870498,241.519499 147.1935,241.7745 C147.516502,242.029501 147.768666,242.338332 147.95,242.701 C148.131334,243.063668 148.222,243.482998 148.222,243.959 C148.222,244.525669 148.066168,245.004498 147.7545,245.3955 C147.442832,245.786502 146.998003,246.106665 146.42,246.356 L146.42,246.424 C147.043336,246.605334 147.556165,246.914164 147.9585,247.3505 C148.360835,247.786836 148.562,248.35633 148.562,249.059 C148.562,249.557669 148.454334,250.002498 148.239,250.3935 C148.023666,250.784502 147.734668,251.113165 147.372,251.3795 C147.009332,251.645835 146.584336,251.849833 146.097,251.9915 C145.609664,252.133167 145.094003,252.204 144.55,252.204 Z M150.5,252 L150.5,243.568 L152.54,243.568 L152.71,244.656 L152.778,244.656 C153.129335,244.304665 153.503331,244.001501 153.9,243.7465 C154.296669,243.491499 154.772664,243.364 155.328,243.364 C155.92867,243.364 156.413165,243.485832 156.7815,243.7295 C157.149835,243.973168 157.441666,244.321664 157.657,244.775 C158.031002,244.389665 158.424831,244.058168 158.8385,243.7805 C159.252169,243.502832 159.742331,243.364 160.309,243.364 C161.215671,243.364 161.881498,243.667164 162.3065,244.2735 C162.731502,244.879836 162.944,245.709995 162.944,246.764 L162.944,252 L160.445,252 L160.445,247.087 C160.445,246.474997 160.362834,246.055668 160.1985,245.829 C160.034166,245.602332 159.770668,245.489 159.408,245.489 C158.988665,245.489 158.507003,245.760997 157.963,246.305 L157.963,252 L155.464,252 L155.464,247.087 C155.464,246.474997 155.381834,246.055668 155.2175,245.829 C155.053166,245.602332 154.789668,245.489 154.427,245.489 C153.996331,245.489 153.520336,245.760997 152.999,246.305 L152.999,252 L150.5,252 Z M165.069,252 L165.069,243.568 L167.109,243.568 L167.279,244.656 L167.347,244.656 C167.698335,244.304665 168.072331,244.001501 168.469,243.7465 C168.865669,243.491499 169.341664,243.364 169.897,243.364 C170.49767,243.364 170.982165,243.485832 171.3505,243.7295 C171.718835,243.973168 172.010666,244.321664 172.226,244.775 C172.600002,244.389665 172.993831,244.058168 173.4075,243.7805 C173.821169,243.502832 174.31133,243.364 174.878,243.364 C175.784671,243.364 176.450498,243.667164 176.8755,244.2735 C177.300502,244.879836 177.513,245.709995 177.513,246.764 L177.513,252 L175.014,252 L175.014,247.087 C175.014,246.474997 174.931834,246.055668 174.7675,245.829 C174.603166,245.602332 174.339668,245.489 173.977,245.489 C173.557665,245.489 173.076003,245.760997 172.532,246.305 L172.532,252 L170.033,252 L170.033,247.087 C170.033,246.474997 169.950834,246.055668 169.7865,245.829 C169.622166,245.602332 169.358668,245.489 168.996,245.489 C168.565331,245.489 168.089336,245.760997 167.568,246.305 L167.568,252 L165.069,252 Z" id="483mm" fill="#093169" fill-rule="nonzero"></path>
        </g>
    </g>
</svg>