<?xml version="1.0" encoding="UTF-8"?>
<svg width="706px" height="296px" viewBox="0 0 706 296" version="1.1" xmlns="http://www.w3.org/2000/svg" xmlns:xlink="http://www.w3.org/1999/xlink">
    <!-- Generator: Sketch 58 (84663) - https://sketch.com -->
    <title>pierCaps/PC235</title>
    <desc>Created with Sketch.</desc>
    <g id="pierCaps/PC235" stroke="none" stroke-width="1" fill="none" fill-rule="evenodd">
        <rect fill="#F5F9FF" x="0" y="0" width="706" height="296"></rect>
        <g id="Group-7" transform="translate(182.000000, 35.000000)">
            <g id="Group-5" transform="translate(0.000000, 67.000000)" fill="#FFFFFF">
                <g id="Group" stroke="#CBD8F2">
                    <polyline id="Path" points="35 45 35 54.84 308 54.84 308 45"></polyline>
                    <path d="M329,35 C321.760766,35.24 319.284398,39.794 318.93933,44.829 C318.93933,44.829 22.4931698,44.829 21.9031607,44.829 C21.558093,39.794 20.2392336,35.24 13,35" id="Path"></path>
                    <polyline id="Path" points="13.06 29.36 13.06 35.24 329.06 35.24 329.06 34.76 329.06 29.36"></polyline>
                    <path d="M0,12.09 C4.4186692,11.904 6.52786502,14.3159605 6.52786502,17.498 C6.52786502,18.8792878 6.52786502,22.8332878 6.52786502,29.36 L335.619239,29.36 C335.619239,23.5999757 335.619239,19.6459757 335.619239,17.498 C335.619239,14.2760365 337.581331,11.904 342,12.09" id="Path"></path>
                    <polygon id="Path" points="0.06 12.2 0.06 0.92 342.06 0.92 342.06 12.2"></polygon>
                </g>
                <g id="Group-4" transform="translate(35.000000, 60.000000)" stroke="#FF5959" stroke-opacity="0.6">
                    <rect id="Rectangle" x="0" y="0" width="105" height="32"></rect>
                    <rect id="Rectangle-Copy" x="110" y="0" width="105" height="32"></rect>
                    <rect id="Rectangle-Copy-4" x="220" y="0" width="52.5" height="32"></rect>
                </g>
            </g>
            <g id="Group-2" transform="translate(357.000000, 66.000000)">
                <path d="M14.657,34.5 L14.657,32.477 L17.003,32.477 L17.003,26.238 L14.98,26.238 L14.98,24.691 C15.5693363,24.5776661 16.067998,24.4416675 16.476,24.283 C16.884002,24.1243325 17.2806647,23.9316678 17.666,23.705 L19.502,23.705 L19.502,32.477 L21.525,32.477 L21.525,34.5 L14.657,34.5 Z M23.633,34.5 L23.633,32.477 L25.979,32.477 L25.979,26.238 L23.956,26.238 L23.956,24.691 C24.5453363,24.5776661 25.043998,24.4416675 25.452,24.283 C25.860002,24.1243325 26.2566647,23.9316678 26.642,23.705 L28.478,23.705 L28.478,32.477 L30.501,32.477 L30.501,34.5 L23.633,34.5 Z M35.907,34.704 C35.3289971,34.704 34.8020024,34.5821679 34.326,34.3385 C33.8499976,34.0948321 33.444835,33.7350024 33.1105,33.259 C32.776165,32.7829976 32.5155009,32.1936702 32.3285,31.491 C32.1414991,30.7883298 32.048,29.9780046 32.048,29.06 C32.048,28.1419954 32.1414991,27.3373368 32.3285,26.646 C32.5155009,25.9546632 32.776165,25.3738357 33.1105,24.9035 C33.444835,24.4331643 33.8499976,24.0818345 34.326,23.8495 C34.8020024,23.6171655 35.3289971,23.501 35.907,23.501 C36.4850029,23.501 37.0119976,23.6171655 37.488,23.8495 C37.9640024,24.0818345 38.369165,24.4331643 38.7035,24.9035 C39.037835,25.3738357 39.2984991,25.9546632 39.4855,26.646 C39.6725009,27.3373368 39.766,28.1419954 39.766,29.06 C39.766,29.9780046 39.6725009,30.7883298 39.4855,31.491 C39.2984991,32.1936702 39.037835,32.7829976 38.7035,33.259 C38.369165,33.7350024 37.9640024,34.0948321 37.488,34.3385 C37.0119976,34.5821679 36.4850029,34.704 35.907,34.704 Z M35.907,32.766 C36.1223344,32.766 36.3206658,32.7121672 36.502,32.6045 C36.6833342,32.4968328 36.8419993,32.3013347 36.978,32.018 C37.1140007,31.7346652 37.218833,31.3550024 37.2925,30.879 C37.366167,30.4029976 37.403,29.7966703 37.403,29.06 C37.403,28.3233296 37.366167,27.7198357 37.2925,27.2495 C37.218833,26.7791643 37.1140007,26.4108347 36.978,26.1445 C36.8419993,25.8781653 36.6833342,25.6940005 36.502,25.592 C36.3206658,25.4899995 36.1223344,25.439 35.907,25.439 C35.702999,25.439 35.5103342,25.4899995 35.329,25.592 C35.1476658,25.6940005 34.9890007,25.8781653 34.853,26.1445 C34.7169993,26.4108347 34.6093337,26.7791643 34.53,27.2495 C34.4506663,27.7198357 34.411,28.3233296 34.411,29.06 C34.411,29.7966703 34.4506663,30.4029976 34.53,30.879 C34.6093337,31.3550024 34.7169993,31.7346652 34.853,32.018 C34.9890007,32.3013347 35.1476658,32.4968328 35.329,32.6045 C35.5103342,32.7121672 35.702999,32.766 35.907,32.766 Z M41.5,34.5 L41.5,26.068 L43.54,26.068 L43.71,27.156 L43.778,27.156 C44.1293351,26.8046649 44.5033314,26.5015013 44.9,26.2465 C45.2966687,25.9914987 45.7726639,25.864 46.328,25.864 C46.9286697,25.864 47.4131648,25.9858321 47.7815,26.2295 C48.1498352,26.4731679 48.4416656,26.8216644 48.657,27.275 C49.0310019,26.8896647 49.4248313,26.5581681 49.8385,26.2805 C50.2521687,26.0028319 50.7423305,25.864 51.309,25.864 C52.2156712,25.864 52.8814979,26.1671636 53.3065,26.7735 C53.7315021,27.3798364 53.944,28.2099947 53.944,29.264 L53.944,34.5 L51.445,34.5 L51.445,29.587 C51.445,28.9749969 51.3628342,28.5556678 51.1985,28.329 C51.0341658,28.1023322 50.7706685,27.989 50.408,27.989 C49.9886646,27.989 49.5070027,28.2609973 48.963,28.805 L48.963,34.5 L46.464,34.5 L46.464,29.587 C46.464,28.9749969 46.3818342,28.5556678 46.2175,28.329 C46.0531658,28.1023322 45.7896685,27.989 45.427,27.989 C44.9963312,27.989 44.5203359,28.2609973 43.999,28.805 L43.999,34.5 L41.5,34.5 Z M56.069,34.5 L56.069,26.068 L58.109,26.068 L58.279,27.156 L58.347,27.156 C58.6983351,26.8046649 59.0723314,26.5015013 59.469,26.2465 C59.8656687,25.9914987 60.3416639,25.864 60.897,25.864 C61.4976697,25.864 61.9821648,25.9858321 62.3505,26.2295 C62.7188352,26.4731679 63.0106656,26.8216644 63.226,27.275 C63.6000019,26.8896647 63.9938313,26.5581681 64.4075,26.2805 C64.8211687,26.0028319 65.3113305,25.864 65.878,25.864 C66.7846712,25.864 67.4504979,26.1671636 67.8755,26.7735 C68.3005021,27.3798364 68.513,28.2099947 68.513,29.264 L68.513,34.5 L66.014,34.5 L66.014,29.587 C66.014,28.9749969 65.9318342,28.5556678 65.7675,28.329 C65.6031658,28.1023322 65.3396685,27.989 64.977,27.989 C64.5576646,27.989 64.0760027,28.2609973 63.532,28.805 L63.532,34.5 L61.033,34.5 L61.033,29.587 C61.033,28.9749969 60.9508342,28.5556678 60.7865,28.329 C60.6221658,28.1023322 60.3586685,27.989 59.996,27.989 C59.5653312,27.989 59.0893359,28.2609973 58.568,28.805 L58.568,34.5 L56.069,34.5 Z" id="110mm" fill="#093169" fill-rule="nonzero" transform="translate(41.585000, 29.102500) rotate(-270.000000) translate(-41.585000, -29.102500) "></path>
                <polyline id="Rectangle-Copy-3" stroke="#CBD8F2" transform="translate(8.000000, 29.000000) rotate(-270.000000) translate(-8.000000, -29.000000) " points="-19.4083333 36.5 -19.5 21.5 35.5 21.5 35.5 36.5"></polyline>
            </g>
            <g id="Group-3">
                <polyline id="Rectangle-Copy" stroke="#CBD8F2" points="0.571666667 52 0 37 343 37 343 52"></polyline>
                <path d="M148.244,17.204 C147.722664,17.204 147.215502,17.102001 146.7225,16.898 C146.229498,16.693999 145.793169,16.3766688 145.4135,15.946 C145.033831,15.5153312 144.730668,14.9628367 144.504,14.2885 C144.277332,13.6141633 144.164,12.8010048 144.164,11.849 C144.164,10.8403283 144.285832,9.96767035 144.5295,9.231 C144.773168,8.49432965 145.096165,7.88800238 145.4985,7.412 C145.900835,6.93599762 146.365497,6.58183449 146.8925,6.3495 C147.419503,6.1171655 147.96633,6.001 148.533,6.001 C149.247004,6.001 149.864664,6.12849873 150.386,6.3835 C150.907336,6.63850127 151.337998,6.94166491 151.678,7.293 L150.369,8.789 C150.176332,8.58499898 149.927002,8.40650076 149.621,8.2535 C149.314998,8.10049923 149.003335,8.024 148.686,8.024 C148.391332,8.024 148.113668,8.0806661 147.853,8.194 C147.592332,8.3073339 147.362834,8.49716533 147.1645,8.7635 C146.966166,9.02983466 146.804667,9.37833118 146.68,9.809 C146.555333,10.2396688 146.481667,10.7666636 146.459,11.39 C146.595001,11.2086658 146.753666,11.0471674 146.935,10.9055 C147.116334,10.7638326 147.303332,10.6448338 147.496,10.5485 C147.688668,10.4521662 147.881332,10.3785003 148.074,10.3275 C148.266668,10.2764997 148.447999,10.251 148.618,10.251 C149.082669,10.251 149.510498,10.3189993 149.9015,10.455 C150.292502,10.5910007 150.632499,10.7949986 150.9215,11.067 C151.210501,11.3390014 151.434333,11.6846646 151.593,12.104 C151.751667,12.5233354 151.831,13.0163305 151.831,13.583 C151.831,14.1496695 151.734668,14.6539978 151.542,15.096 C151.349332,15.5380022 151.091502,15.9176651 150.7685,16.235 C150.445498,16.5523349 150.065836,16.7931658 149.6295,16.9575 C149.193164,17.1218342 148.731336,17.204 148.244,17.204 Z M148.193,15.334 C148.567002,15.334 148.887165,15.1951681 149.1535,14.9175 C149.419835,14.6398319 149.553,14.1950031 149.553,13.583 C149.553,13.0049971 149.419835,12.5998345 149.1535,12.3675 C148.887165,12.1351655 148.550002,12.019 148.142,12.019 C147.858665,12.019 147.572501,12.1011658 147.2835,12.2655 C146.994499,12.4298342 146.736668,12.7046647 146.51,13.09 C146.566667,13.5206688 146.651666,13.8776652 146.765,14.161 C146.878334,14.4443347 147.008666,14.6738325 147.156,14.8495 C147.303334,15.0251675 147.464832,15.149833 147.6405,15.2235 C147.816168,15.297167 148.000332,15.334 148.193,15.334 Z M156.727,11.186 C157.010335,11.186 157.296499,11.1038342 157.5855,10.9395 C157.874501,10.7751658 158.126666,10.5003353 158.342,10.115 C158.228666,9.26499575 158.016168,8.67850161 157.7045,8.3555 C157.392832,8.03249839 157.044335,7.871 156.659,7.871 C156.296332,7.871 155.979001,8.00983194 155.707,8.2875 C155.434999,8.56516805 155.299,9.00999694 155.299,9.622 C155.299,10.2000029 155.434999,10.6051655 155.707,10.8375 C155.979001,11.0698345 156.318998,11.186 156.727,11.186 Z M156.336,17.204 C155.621996,17.204 155.001503,17.073668 154.4745,16.813 C153.947497,16.552332 153.514002,16.2520017 153.174,15.912 L154.5,14.416 C154.681334,14.620001 154.924998,14.7984992 155.231,14.9515 C155.537002,15.1045008 155.848665,15.181 156.166,15.181 C156.472002,15.181 156.755332,15.1243339 157.016,15.011 C157.276668,14.8976661 157.506166,14.7078347 157.7045,14.4415 C157.902834,14.1751653 158.061499,13.8295021 158.1805,13.4045 C158.299501,12.9794979 158.370333,12.4496698 158.393,11.815 C158.256999,11.9963342 158.098334,12.1578326 157.917,12.2995 C157.735666,12.4411674 157.548668,12.5601662 157.356,12.6565 C157.163332,12.7528338 156.970668,12.8264997 156.778,12.8775 C156.585332,12.9285003 156.404001,12.954 156.234,12.954 C155.769331,12.954 155.341502,12.8860007 154.9505,12.75 C154.559498,12.6139993 154.222335,12.4100014 153.939,12.138 C153.655665,11.8659986 153.431834,11.5203354 153.2675,11.101 C153.103166,10.6816646 153.021,10.1886695 153.021,9.622 C153.021,9.06666389 153.117332,8.56516891 153.31,8.1175 C153.502668,7.66983109 153.760498,7.28733492 154.0835,6.97 C154.406502,6.65266508 154.786164,6.41183416 155.2225,6.2475 C155.658836,6.08316584 156.120664,6.001 156.608,6.001 C157.129336,6.001 157.636498,6.10299898 158.1295,6.307 C158.622502,6.51100102 159.058831,6.82833118 159.4385,7.259 C159.818169,7.68966882 160.124166,8.24216329 160.3565,8.9165 C160.588834,9.5908367 160.705,10.4039952 160.705,11.356 C160.705,12.3646717 160.583168,13.2373296 160.3395,13.974 C160.095832,14.7106704 159.772835,15.3169976 159.3705,15.793 C158.968165,16.2690024 158.503503,16.6231655 157.9765,16.8555 C157.449497,17.0878345 156.90267,17.204 156.336,17.204 Z M164.122,17 C164.167334,16.1046622 164.249499,15.2801704 164.3685,14.5265 C164.487501,13.7728296 164.657499,13.0531701 164.8785,12.3675 C165.099501,11.6818299 165.382832,11.0103366 165.7285,10.353 C166.074168,9.69566338 166.501997,9.01567018 167.012,8.313 L162.167,8.313 L162.167,6.205 L169.681,6.205 L169.681,7.735 C169.057664,8.49433713 168.556169,9.20549668 168.1765,9.8685 C167.796831,10.5315033 167.502168,11.2171631 167.2925,11.9255 C167.082832,12.6338369 166.932667,13.3931626 166.842,14.2035 C166.751333,15.0138374 166.683334,15.9459947 166.638,17 L164.122,17 Z M171.5,17 L171.5,8.568 L173.54,8.568 L173.71,9.656 L173.778,9.656 C174.129335,9.30466491 174.503331,9.00150127 174.9,8.7465 C175.296669,8.49149872 175.772664,8.364 176.328,8.364 C176.92867,8.364 177.413165,8.48583211 177.7815,8.7295 C178.149835,8.97316788 178.441666,9.3216644 178.657,9.775 C179.031002,9.38966474 179.424831,9.05816805 179.8385,8.7805 C180.252169,8.50283194 180.742331,8.364 181.309,8.364 C182.215671,8.364 182.881498,8.66716363 183.3065,9.2735 C183.731502,9.87983636 183.944,10.7099947 183.944,11.764 L183.944,17 L181.445,17 L181.445,12.087 C181.445,11.4749969 181.362834,11.0556678 181.1985,10.829 C181.034166,10.6023322 180.770668,10.489 180.408,10.489 C179.988665,10.489 179.507003,10.7609973 178.963,11.305 L178.963,17 L176.464,17 L176.464,12.087 C176.464,11.4749969 176.381834,11.0556678 176.2175,10.829 C176.053166,10.6023322 175.789668,10.489 175.427,10.489 C174.996331,10.489 174.520336,10.7609973 173.999,11.305 L173.999,17 L171.5,17 Z M186.069,17 L186.069,8.568 L188.109,8.568 L188.279,9.656 L188.347,9.656 C188.698335,9.30466491 189.072331,9.00150127 189.469,8.7465 C189.865669,8.49149872 190.341664,8.364 190.897,8.364 C191.49767,8.364 191.982165,8.48583211 192.3505,8.7295 C192.718835,8.97316788 193.010666,9.3216644 193.226,9.775 C193.600002,9.38966474 193.993831,9.05816805 194.4075,8.7805 C194.821169,8.50283194 195.31133,8.364 195.878,8.364 C196.784671,8.364 197.450498,8.66716363 197.8755,9.2735 C198.300502,9.87983636 198.513,10.7099947 198.513,11.764 L198.513,17 L196.014,17 L196.014,12.087 C196.014,11.4749969 195.931834,11.0556678 195.7675,10.829 C195.603166,10.6023322 195.339668,10.489 194.977,10.489 C194.557665,10.489 194.076003,10.7609973 193.532,11.305 L193.532,17 L191.033,17 L191.033,12.087 C191.033,11.4749969 190.950834,11.0556678 190.7865,10.829 C190.622166,10.6023322 190.358668,10.489 189.996,10.489 C189.565331,10.489 189.089336,10.7609973 188.568,11.305 L188.568,17 L186.069,17 Z" id="697mm" fill="#093169" fill-rule="nonzero"></path>
            </g>
            <g id="Group-6" transform="translate(35.000000, 174.000000)">
                <polyline id="Rectangle-Copy-2" stroke="#CBD8F2" transform="translate(136.500000, 7.500000) rotate(-180.000000) translate(-136.500000, -7.500000) " points="0.455 15 0 0 273 0 273 15"></polyline>
                <path d="M112.666,47.204 C111.781996,47.204 111.034003,47.0595014 110.422,46.7705 C109.809997,46.4814986 109.288669,46.1216688 108.858,45.691 L109.98,44.11 C110.308668,44.4046681 110.662831,44.6568323 111.0425,44.8665 C111.422169,45.0761677 111.844331,45.181 112.309,45.181 C112.864336,45.181 113.306332,45.0393348 113.635,44.756 C113.963668,44.4726652 114.128,44.0533361 114.128,43.498 C114.128,42.9539973 113.972168,42.5403347 113.6605,42.257 C113.348832,41.9736652 112.938003,41.832 112.428,41.832 C112.269333,41.832 112.127667,41.8404999 112.003,41.8575 C111.878333,41.8745001 111.756501,41.9056664 111.6375,41.951 C111.518499,41.9963336 111.393834,42.0529997 111.2635,42.121 C111.133166,42.1890003 110.988667,42.2739995 110.83,42.376 L109.708,41.662 L110.014,36.205 L116.134,36.205 L116.134,38.313 L112.173,38.313 L111.986,40.336 C112.190001,40.2453329 112.385499,40.1801669 112.5725,40.1405 C112.759501,40.1008331 112.966332,40.081 113.193,40.081 C113.657669,40.081 114.096831,40.1489993 114.5105,40.285 C114.924169,40.4210007 115.289665,40.6249986 115.607,40.897 C115.924335,41.1690014 116.173666,41.5146646 116.355,41.934 C116.536334,42.3533354 116.627,42.8519971 116.627,43.43 C116.627,44.0306697 116.519334,44.563331 116.304,45.028 C116.088666,45.492669 115.799668,45.8864984 115.437,46.2095 C115.074332,46.5325016 114.652169,46.7789992 114.1705,46.949 C113.688831,47.1190008 113.187336,47.204 112.666,47.204 Z M120.146,47 C120.191334,46.1046622 120.273499,45.2801704 120.3925,44.5265 C120.511501,43.7728296 120.681499,43.0531701 120.9025,42.3675 C121.123501,41.6818299 121.406832,41.0103366 121.7525,40.353 C122.098168,39.6956634 122.525997,39.0156702 123.036,38.313 L118.191,38.313 L118.191,36.205 L125.705,36.205 L125.705,37.735 C125.081664,38.4943371 124.580169,39.2054967 124.2005,39.8685 C123.820831,40.5315033 123.526168,41.2171631 123.3165,41.9255 C123.106832,42.6338369 122.956667,43.3931626 122.866,44.2035 C122.775333,45.0138374 122.707334,45.9459947 122.662,47 L120.146,47 Z M130.907,47.204 C130.328997,47.204 129.802002,47.0821679 129.326,46.8385 C128.849998,46.5948321 128.444835,46.2350024 128.1105,45.759 C127.776165,45.2829976 127.515501,44.6936702 127.3285,43.991 C127.141499,43.2883298 127.048,42.4780046 127.048,41.56 C127.048,40.6419954 127.141499,39.8373368 127.3285,39.146 C127.515501,38.4546632 127.776165,37.8738357 128.1105,37.4035 C128.444835,36.9331643 128.849998,36.5818345 129.326,36.3495 C129.802002,36.1171655 130.328997,36.001 130.907,36.001 C131.485003,36.001 132.011998,36.1171655 132.488,36.3495 C132.964002,36.5818345 133.369165,36.9331643 133.7035,37.4035 C134.037835,37.8738357 134.298499,38.4546632 134.4855,39.146 C134.672501,39.8373368 134.766,40.6419954 134.766,41.56 C134.766,42.4780046 134.672501,43.2883298 134.4855,43.991 C134.298499,44.6936702 134.037835,45.2829976 133.7035,45.759 C133.369165,46.2350024 132.964002,46.5948321 132.488,46.8385 C132.011998,47.0821679 131.485003,47.204 130.907,47.204 Z M130.907,45.266 C131.122334,45.266 131.320666,45.2121672 131.502,45.1045 C131.683334,44.9968328 131.841999,44.8013347 131.978,44.518 C132.114001,44.2346652 132.218833,43.8550024 132.2925,43.379 C132.366167,42.9029976 132.403,42.2966703 132.403,41.56 C132.403,40.8233296 132.366167,40.2198357 132.2925,39.7495 C132.218833,39.2791643 132.114001,38.9108347 131.978,38.6445 C131.841999,38.3781653 131.683334,38.1940005 131.502,38.092 C131.320666,37.9899995 131.122334,37.939 130.907,37.939 C130.702999,37.939 130.510334,37.9899995 130.329,38.092 C130.147666,38.1940005 129.989001,38.3781653 129.853,38.6445 C129.716999,38.9108347 129.609334,39.2791643 129.53,39.7495 C129.450666,40.2198357 129.411,40.8233296 129.411,41.56 C129.411,42.2966703 129.450666,42.9029976 129.53,43.379 C129.609334,43.8550024 129.716999,44.2346652 129.853,44.518 C129.989001,44.8013347 130.147666,44.9968328 130.329,45.1045 C130.510334,45.2121672 130.702999,45.266 130.907,45.266 Z M136.5,47 L136.5,38.568 L138.54,38.568 L138.71,39.656 L138.778,39.656 C139.129335,39.3046649 139.503331,39.0015013 139.9,38.7465 C140.296669,38.4914987 140.772664,38.364 141.328,38.364 C141.92867,38.364 142.413165,38.4858321 142.7815,38.7295 C143.149835,38.9731679 143.441666,39.3216644 143.657,39.775 C144.031002,39.3896647 144.424831,39.0581681 144.8385,38.7805 C145.252169,38.5028319 145.742331,38.364 146.309,38.364 C147.215671,38.364 147.881498,38.6671636 148.3065,39.2735 C148.731502,39.8798364 148.944,40.7099947 148.944,41.764 L148.944,47 L146.445,47 L146.445,42.087 C146.445,41.4749969 146.362834,41.0556678 146.1985,40.829 C146.034166,40.6023322 145.770668,40.489 145.408,40.489 C144.988665,40.489 144.507003,40.7609973 143.963,41.305 L143.963,47 L141.464,47 L141.464,42.087 C141.464,41.4749969 141.381834,41.0556678 141.2175,40.829 C141.053166,40.6023322 140.789668,40.489 140.427,40.489 C139.996331,40.489 139.520336,40.7609973 138.999,41.305 L138.999,47 L136.5,47 Z M151.069,47 L151.069,38.568 L153.109,38.568 L153.279,39.656 L153.347,39.656 C153.698335,39.3046649 154.072331,39.0015013 154.469,38.7465 C154.865669,38.4914987 155.341664,38.364 155.897,38.364 C156.49767,38.364 156.982165,38.4858321 157.3505,38.7295 C157.718835,38.9731679 158.010666,39.3216644 158.226,39.775 C158.600002,39.3896647 158.993831,39.0581681 159.4075,38.7805 C159.821169,38.5028319 160.31133,38.364 160.878,38.364 C161.784671,38.364 162.450498,38.6671636 162.8755,39.2735 C163.300502,39.8798364 163.513,40.7099947 163.513,41.764 L163.513,47 L161.014,47 L161.014,42.087 C161.014,41.4749969 160.931834,41.0556678 160.7675,40.829 C160.603166,40.6023322 160.339668,40.489 159.977,40.489 C159.557665,40.489 159.076003,40.7609973 158.532,41.305 L158.532,47 L156.033,47 L156.033,42.087 C156.033,41.4749969 155.950834,41.0556678 155.7865,40.829 C155.622166,40.6023322 155.358668,40.489 154.996,40.489 C154.565331,40.489 154.089336,40.7609973 153.568,41.305 L153.568,47 L151.069,47 Z" id="570mm" fill="#093169" fill-rule="nonzero"></path>
            </g>
        </g>
    </g>
</svg>