<?xml version="1.0" encoding="UTF-8"?>
<svg width="706px" height="327px" viewBox="0 0 706 327" version="1.1" xmlns="http://www.w3.org/2000/svg" xmlns:xlink="http://www.w3.org/1999/xlink">
    <!-- Generator: Sketch 58 (84663) - https://sketch.com -->
    <title>pierCaps/PC240</title>
    <desc>Created with Sketch.</desc>
    <g id="pierCaps/PC240" stroke="none" stroke-width="1" fill="none" fill-rule="evenodd">
        <rect fill="#F5F9FF" x="0" y="0" width="706" height="327"></rect>
        <g id="Group-3" transform="translate(157.000000, 35.000000)">
            <g id="Group" transform="translate(0.000000, 67.000000)" fill="#FFFFFF" stroke="#CBD8F2">
                <polyline id="Path" points="34 76 34 85.84 359 85.84 359 76"></polyline>
                <path d="M377,66 C368.752772,66.24 365.931592,70.794 365.538477,75.829 C365.538477,75.829 27.8150036,75.829 27.1428413,75.829 C26.7497262,70.794 25.2472281,66.24 17,66" id="Path"></path>
                <polyline id="Path" points="0 31.92 196.5 4.08562073e-14 393 31.92"></polyline>
                <polyline id="Path" points="17 60 17 65.88 377 65.88 377 65.4 377 60"></polyline>
                <path d="M0,43.0102269 C5.07759355,42.8242269 7.50131858,45.2361875 7.50131858,48.4182269 C7.50131858,49.7995147 7.50131858,53.7535147 7.50131858,60.2802269 L385.667722,60.2802269 C385.667722,54.5202026 385.667722,50.5662026 385.667722,48.4182269 C385.667722,45.1962634 387.922406,42.8242269 393,43.0102269" id="Path"></path>
                <polygon id="Path" points="0 43.28 0 32 393 32 393 43.28"></polygon>
            </g>
            <g id="Group-4" transform="translate(34.000000, 158.000000)" fill="#FFFFFF" stroke="#FF5959" stroke-opacity="0.6">
                <rect id="Rectangle" x="0" y="0" width="105" height="32"></rect>
                <rect id="Rectangle-Copy" x="110" y="0" width="105" height="32"></rect>
                <rect id="Rectangle-Copy-4" x="220" y="0" width="105" height="32"></rect>
            </g>
            <g id="Group-2" transform="translate(408.000000, 66.500000)">
                <path d="M13.657,50 L13.657,47.977 L16.003,47.977 L16.003,41.738 L13.98,41.738 L13.98,40.191 C14.5693363,40.0776661 15.067998,39.9416675 15.476,39.783 C15.884002,39.6243325 16.2806647,39.4316678 16.666,39.205 L18.502,39.205 L18.502,47.977 L20.525,47.977 L20.525,50 L13.657,50 Z M24.146,50 C24.1913336,49.1046622 24.2734994,48.2801704 24.3925,47.5265 C24.5115006,46.7728296 24.6814989,46.0531701 24.9025,45.3675 C25.1235011,44.6818299 25.4068316,44.0103366 25.7525,43.353 C26.0981684,42.6956634 26.5259974,42.0156702 27.036,41.313 L22.191,41.313 L22.191,39.205 L29.705,39.205 L29.705,40.735 C29.0816635,41.4943371 28.5801686,42.2054967 28.2005,42.8685 C27.8208314,43.5315033 27.5261677,44.2171631 27.3165,44.9255 C27.1068323,45.6338369 26.9566671,46.3931626 26.866,47.2035 C26.7753329,48.0138374 26.7073336,48.9459947 26.662,50 L24.146,50 Z M34.618,50.204 C33.7339956,50.204 32.9860031,50.0595014 32.374,49.7705 C31.7619969,49.4814986 31.2406688,49.1216688 30.81,48.691 L31.932,47.11 C32.2606683,47.4046681 32.6148314,47.6568323 32.9945,47.8665 C33.3741686,48.0761677 33.796331,48.181 34.261,48.181 C34.8163361,48.181 35.2583317,48.0393348 35.587,47.756 C35.9156683,47.4726652 36.08,47.0533361 36.08,46.498 C36.08,45.9539973 35.9241682,45.5403347 35.6125,45.257 C35.3008318,44.9736652 34.8900025,44.832 34.38,44.832 C34.2213325,44.832 34.0796673,44.8404999 33.955,44.8575 C33.8303327,44.8745001 33.7085006,44.9056664 33.5895,44.951 C33.4704994,44.9963336 33.345834,45.0529997 33.2155,45.121 C33.085166,45.1890003 32.9406675,45.2739995 32.782,45.376 L31.66,44.662 L31.966,39.205 L38.086,39.205 L38.086,41.313 L34.125,41.313 L33.938,43.336 C34.142001,43.2453329 34.3374991,43.1801669 34.5245,43.1405 C34.7115009,43.1008331 34.9183322,43.081 35.145,43.081 C35.609669,43.081 36.0488313,43.1489993 36.4625,43.285 C36.8761687,43.4210007 37.2416651,43.6249986 37.559,43.897 C37.8763349,44.1690014 38.1256658,44.5146646 38.307,44.934 C38.4883342,45.3533354 38.579,45.8519971 38.579,46.43 C38.579,47.0306697 38.4713344,47.563331 38.256,48.028 C38.0406656,48.492669 37.7516685,48.8864984 37.389,49.2095 C37.0263315,49.5325016 36.6041691,49.7789992 36.1225,49.949 C35.6408309,50.1190008 35.1393359,50.204 34.618,50.204 Z M40.5,50 L40.5,41.568 L42.54,41.568 L42.71,42.656 L42.778,42.656 C43.1293351,42.3046649 43.5033314,42.0015013 43.9,41.7465 C44.2966687,41.4914987 44.7726639,41.364 45.328,41.364 C45.9286697,41.364 46.4131648,41.4858321 46.7815,41.7295 C47.1498352,41.9731679 47.4416656,42.3216644 47.657,42.775 C48.0310019,42.3896647 48.4248313,42.0581681 48.8385,41.7805 C49.2521687,41.5028319 49.7423305,41.364 50.309,41.364 C51.2156712,41.364 51.8814979,41.6671636 52.3065,42.2735 C52.7315021,42.8798364 52.944,43.7099947 52.944,44.764 L52.944,50 L50.445,50 L50.445,45.087 C50.445,44.4749969 50.3628342,44.0556678 50.1985,43.829 C50.0341658,43.6023322 49.7706685,43.489 49.408,43.489 C48.9886646,43.489 48.5070027,43.7609973 47.963,44.305 L47.963,50 L45.464,50 L45.464,45.087 C45.464,44.4749969 45.3818342,44.0556678 45.2175,43.829 C45.0531658,43.6023322 44.7896685,43.489 44.427,43.489 C43.9963312,43.489 43.5203359,43.7609973 42.999,44.305 L42.999,50 L40.5,50 Z M55.069,50 L55.069,41.568 L57.109,41.568 L57.279,42.656 L57.347,42.656 C57.6983351,42.3046649 58.0723314,42.0015013 58.469,41.7465 C58.8656687,41.4914987 59.3416639,41.364 59.897,41.364 C60.4976697,41.364 60.9821648,41.4858321 61.3505,41.7295 C61.7188352,41.9731679 62.0106656,42.3216644 62.226,42.775 C62.6000019,42.3896647 62.9938313,42.0581681 63.4075,41.7805 C63.8211687,41.5028319 64.3113305,41.364 64.878,41.364 C65.7846712,41.364 66.4504979,41.6671636 66.8755,42.2735 C67.3005021,42.8798364 67.513,43.7099947 67.513,44.764 L67.513,50 L65.014,50 L65.014,45.087 C65.014,44.4749969 64.9318342,44.0556678 64.7675,43.829 C64.6031658,43.6023322 64.3396685,43.489 63.977,43.489 C63.5576646,43.489 63.0760027,43.7609973 62.532,44.305 L62.532,50 L60.033,50 L60.033,45.087 C60.033,44.4749969 59.9508342,44.0556678 59.7865,43.829 C59.6221658,43.6023322 59.3586685,43.489 58.996,43.489 C58.5653312,43.489 58.0893359,43.7609973 57.568,44.305 L57.568,50 L55.069,50 Z" id="175mm" fill="#093169" fill-rule="nonzero" transform="translate(40.585000, 44.704500) rotate(-270.000000) translate(-40.585000, -44.704500) "></path>
                <polyline id="Rectangle-Copy-3" stroke="#CBD8F2" transform="translate(8.000000, 43.500000) rotate(-270.000000) translate(-8.000000, -43.500000) " points="-34.8566667 51 -35 36 51 36 51 51"></polyline>
            </g>
            <polyline id="Rectangle-Copy" stroke="#CBD8F2" points="0.655 52 0 37 393 37 393 52"></polyline>
            <path d="M172.938,17.204 C172.393997,17.204 171.892502,17.1331674 171.4335,16.9915 C170.974498,16.8498326 170.577835,16.648668 170.2435,16.388 C169.909165,16.127332 169.648501,15.8156685 169.4615,15.453 C169.274499,15.0903315 169.181,14.6880022 169.181,14.246 C169.181,13.5886634 169.359498,13.0503354 169.7165,12.631 C170.073502,12.2116646 170.506997,11.8660014 171.017,11.594 L171.017,11.526 C170.597665,11.2086651 170.252001,10.8488353 169.98,10.4465 C169.707999,10.0441647 169.572,9.55400289 169.572,8.976 C169.572,8.5226644 169.656999,8.11183517 169.827,7.7435 C169.997001,7.37516482 170.234998,7.06066797 170.541,6.8 C170.847002,6.53933203 171.212498,6.34100068 171.6375,6.205 C172.062502,6.06899932 172.524331,6.001 173.023,6.001 C173.510336,6.001 173.957998,6.07183262 174.366,6.2135 C174.774002,6.35516737 175.119665,6.55349872 175.403,6.8085 C175.686335,7.06350127 175.907333,7.37516482 176.066,7.7435 C176.224667,8.11183517 176.304,8.51699779 176.304,8.959 C176.304,9.48033594 176.162335,9.94216465 175.879,10.3445 C175.595665,10.7468353 175.267002,11.0726654 174.893,11.322 L174.893,11.39 C175.414336,11.6733348 175.856332,12.0359978 176.219,12.478 C176.581668,12.9200022 176.763,13.4979964 176.763,14.212 C176.763,14.6426688 176.672334,15.0393315 176.491,15.402 C176.309666,15.7646685 176.051835,16.0791653 175.7175,16.3455 C175.383165,16.6118347 174.980836,16.8214992 174.5105,16.9745 C174.040164,17.1275008 173.516003,17.204 172.938,17.204 Z M173.618,10.71 C174.060002,10.1999974 174.281,9.67300272 174.281,9.129 C174.281,8.70966457 174.164834,8.37250127 173.9325,8.1175 C173.700166,7.86249873 173.380002,7.735 172.972,7.735 C172.643332,7.735 172.360001,7.83699898 172.122,8.041 C171.883999,8.24500102 171.765,8.55666457 171.765,8.976 C171.765,9.41800221 171.934998,9.76366542 172.275,10.013 C172.615002,10.2623346 173.062664,10.4946656 173.618,10.71 Z M172.989,15.47 C173.408335,15.47 173.753999,15.3595011 174.026,15.1385 C174.298001,14.9174989 174.434,14.5803356 174.434,14.127 C174.434,13.8889988 174.380167,13.6850008 174.2725,13.515 C174.164833,13.3449991 174.009001,13.1891674 173.805,13.0475 C173.600999,12.9058326 173.360168,12.7726673 173.0825,12.648 L172.156,12.24 L172.156,12.24 C171.917999,12.4666678 171.719667,12.7273319 171.561,13.022 C171.402333,13.3166681 171.323,13.6283317 171.323,13.957 C171.323,14.4330024 171.487332,14.8041653 171.816,15.0705 C172.144668,15.3368347 172.535664,15.47 172.989,15.47 Z M181.931,17.204 C181.352997,17.204 180.826002,17.0821679 180.35,16.8385 C179.873998,16.5948321 179.468835,16.2350024 179.1345,15.759 C178.800165,15.2829976 178.539501,14.6936702 178.3525,13.991 C178.165499,13.2883298 178.072,12.4780046 178.072,11.56 C178.072,10.6419954 178.165499,9.83733679 178.3525,9.146 C178.539501,8.45466321 178.800165,7.87383568 179.1345,7.4035 C179.468835,6.93316431 179.873998,6.58183449 180.35,6.3495 C180.826002,6.1171655 181.352997,6.001 181.931,6.001 C182.509003,6.001 183.035998,6.1171655 183.512,6.3495 C183.988002,6.58183449 184.393165,6.93316431 184.7275,7.4035 C185.061835,7.87383568 185.322499,8.45466321 185.5095,9.146 C185.696501,9.83733679 185.79,10.6419954 185.79,11.56 C185.79,12.4780046 185.696501,13.2883298 185.5095,13.991 C185.322499,14.6936702 185.061835,15.2829976 184.7275,15.759 C184.393165,16.2350024 183.988002,16.5948321 183.512,16.8385 C183.035998,17.0821679 182.509003,17.204 181.931,17.204 Z M181.931,15.266 C182.146334,15.266 182.344666,15.2121672 182.526,15.1045 C182.707334,14.9968328 182.865999,14.8013347 183.002,14.518 C183.138001,14.2346652 183.242833,13.8550024 183.3165,13.379 C183.390167,12.9029976 183.427,12.2966703 183.427,11.56 C183.427,10.8233296 183.390167,10.2198357 183.3165,9.7495 C183.242833,9.27916431 183.138001,8.91083466 183.002,8.6445 C182.865999,8.37816533 182.707334,8.19400051 182.526,8.092 C182.344666,7.98999949 182.146334,7.939 181.931,7.939 C181.726999,7.939 181.534334,7.98999949 181.353,8.092 C181.171666,8.19400051 181.013001,8.37816533 180.877,8.6445 C180.740999,8.91083466 180.633334,9.27916431 180.554,9.7495 C180.474666,10.2198357 180.435,10.8233296 180.435,11.56 C180.435,12.2966703 180.474666,12.9029976 180.554,13.379 C180.633334,13.8550024 180.740999,14.2346652 180.877,14.518 C181.013001,14.8013347 181.171666,14.9968328 181.353,15.1045 C181.534334,15.2121672 181.726999,15.266 181.931,15.266 Z M190.907,17.204 C190.328997,17.204 189.802002,17.0821679 189.326,16.8385 C188.849998,16.5948321 188.444835,16.2350024 188.1105,15.759 C187.776165,15.2829976 187.515501,14.6936702 187.3285,13.991 C187.141499,13.2883298 187.048,12.4780046 187.048,11.56 C187.048,10.6419954 187.141499,9.83733679 187.3285,9.146 C187.515501,8.45466321 187.776165,7.87383568 188.1105,7.4035 C188.444835,6.93316431 188.849998,6.58183449 189.326,6.3495 C189.802002,6.1171655 190.328997,6.001 190.907,6.001 C191.485003,6.001 192.011998,6.1171655 192.488,6.3495 C192.964002,6.58183449 193.369165,6.93316431 193.7035,7.4035 C194.037835,7.87383568 194.298499,8.45466321 194.4855,9.146 C194.672501,9.83733679 194.766,10.6419954 194.766,11.56 C194.766,12.4780046 194.672501,13.2883298 194.4855,13.991 C194.298499,14.6936702 194.037835,15.2829976 193.7035,15.759 C193.369165,16.2350024 192.964002,16.5948321 192.488,16.8385 C192.011998,17.0821679 191.485003,17.204 190.907,17.204 Z M190.907,15.266 C191.122334,15.266 191.320666,15.2121672 191.502,15.1045 C191.683334,14.9968328 191.841999,14.8013347 191.978,14.518 C192.114001,14.2346652 192.218833,13.8550024 192.2925,13.379 C192.366167,12.9029976 192.403,12.2966703 192.403,11.56 C192.403,10.8233296 192.366167,10.2198357 192.2925,9.7495 C192.218833,9.27916431 192.114001,8.91083466 191.978,8.6445 C191.841999,8.37816533 191.683334,8.19400051 191.502,8.092 C191.320666,7.98999949 191.122334,7.939 190.907,7.939 C190.702999,7.939 190.510334,7.98999949 190.329,8.092 C190.147666,8.19400051 189.989001,8.37816533 189.853,8.6445 C189.716999,8.91083466 189.609334,9.27916431 189.53,9.7495 C189.450666,10.2198357 189.411,10.8233296 189.411,11.56 C189.411,12.2966703 189.450666,12.9029976 189.53,13.379 C189.609334,13.8550024 189.716999,14.2346652 189.853,14.518 C189.989001,14.8013347 190.147666,14.9968328 190.329,15.1045 C190.510334,15.2121672 190.702999,15.266 190.907,15.266 Z M196.5,17 L196.5,8.568 L198.54,8.568 L198.71,9.656 L198.778,9.656 C199.129335,9.30466491 199.503331,9.00150127 199.9,8.7465 C200.296669,8.49149872 200.772664,8.364 201.328,8.364 C201.92867,8.364 202.413165,8.48583211 202.7815,8.7295 C203.149835,8.97316788 203.441666,9.3216644 203.657,9.775 C204.031002,9.38966474 204.424831,9.05816805 204.8385,8.7805 C205.252169,8.50283194 205.742331,8.364 206.309,8.364 C207.215671,8.364 207.881498,8.66716363 208.3065,9.2735 C208.731502,9.87983636 208.944,10.7099947 208.944,11.764 L208.944,17 L206.445,17 L206.445,12.087 C206.445,11.4749969 206.362834,11.0556678 206.1985,10.829 C206.034166,10.6023322 205.770668,10.489 205.408,10.489 C204.988665,10.489 204.507003,10.7609973 203.963,11.305 L203.963,17 L201.464,17 L201.464,12.087 C201.464,11.4749969 201.381834,11.0556678 201.2175,10.829 C201.053166,10.6023322 200.789668,10.489 200.427,10.489 C199.996331,10.489 199.520336,10.7609973 198.999,11.305 L198.999,17 L196.5,17 Z M211.069,17 L211.069,8.568 L213.109,8.568 L213.279,9.656 L213.347,9.656 C213.698335,9.30466491 214.072331,9.00150127 214.469,8.7465 C214.865669,8.49149872 215.341664,8.364 215.897,8.364 C216.49767,8.364 216.982165,8.48583211 217.3505,8.7295 C217.718835,8.97316788 218.010666,9.3216644 218.226,9.775 C218.600002,9.38966474 218.993831,9.05816805 219.4075,8.7805 C219.821169,8.50283194 220.31133,8.364 220.878,8.364 C221.784671,8.364 222.450498,8.66716363 222.8755,9.2735 C223.300502,9.87983636 223.513,10.7099947 223.513,11.764 L223.513,17 L221.014,17 L221.014,12.087 C221.014,11.4749969 220.931834,11.0556678 220.7675,10.829 C220.603166,10.6023322 220.339668,10.489 219.977,10.489 C219.557665,10.489 219.076003,10.7609973 218.532,11.305 L218.532,17 L216.033,17 L216.033,12.087 C216.033,11.4749969 215.950834,11.0556678 215.7865,10.829 C215.622166,10.6023322 215.358668,10.489 214.996,10.489 C214.565331,10.489 214.089336,10.7609973 213.568,11.305 L213.568,17 L211.069,17 Z" id="800mm" fill="#093169" fill-rule="nonzero"></path>
            <polyline id="Rectangle-Copy-2" stroke="#CBD8F2" transform="translate(196.500000, 212.500000) rotate(-180.000000) translate(-196.500000, -212.500000) " points="34.5416667 220 34 205 359 205 359 220"></polyline>
            <path d="M173.244,252.204 C172.722664,252.204 172.215502,252.102001 171.7225,251.898 C171.229498,251.693999 170.793169,251.376669 170.4135,250.946 C170.033831,250.515331 169.730668,249.962837 169.504,249.2885 C169.277332,248.614163 169.164,247.801005 169.164,246.849 C169.164,245.840328 169.285832,244.96767 169.5295,244.231 C169.773168,243.49433 170.096165,242.888002 170.4985,242.412 C170.900835,241.935998 171.365497,241.581834 171.8925,241.3495 C172.419503,241.117166 172.96633,241.001 173.533,241.001 C174.247004,241.001 174.864664,241.128499 175.386,241.3835 C175.907336,241.638501 176.337998,241.941665 176.678,242.293 L175.369,243.789 C175.176332,243.584999 174.927002,243.406501 174.621,243.2535 C174.314998,243.100499 174.003335,243.024 173.686,243.024 C173.391332,243.024 173.113668,243.080666 172.853,243.194 C172.592332,243.307334 172.362834,243.497165 172.1645,243.7635 C171.966166,244.029835 171.804667,244.378331 171.68,244.809 C171.555333,245.239669 171.481667,245.766664 171.459,246.39 C171.595001,246.208666 171.753666,246.047167 171.935,245.9055 C172.116334,245.763833 172.303332,245.644834 172.496,245.5485 C172.688668,245.452166 172.881332,245.3785 173.074,245.3275 C173.266668,245.2765 173.447999,245.251 173.618,245.251 C174.082669,245.251 174.510498,245.318999 174.9015,245.455 C175.292502,245.591001 175.632499,245.794999 175.9215,246.067 C176.210501,246.339001 176.434333,246.684665 176.593,247.104 C176.751667,247.523335 176.831,248.016331 176.831,248.583 C176.831,249.149669 176.734668,249.653998 176.542,250.096 C176.349332,250.538002 176.091502,250.917665 175.7685,251.235 C175.445498,251.552335 175.065836,251.793166 174.6295,251.9575 C174.193164,252.121834 173.731336,252.204 173.244,252.204 Z M173.193,250.334 C173.567002,250.334 173.887165,250.195168 174.1535,249.9175 C174.419835,249.639832 174.553,249.195003 174.553,248.583 C174.553,248.004997 174.419835,247.599834 174.1535,247.3675 C173.887165,247.135166 173.550002,247.019 173.142,247.019 C172.858665,247.019 172.572501,247.101166 172.2835,247.2655 C171.994499,247.429834 171.736668,247.704665 171.51,248.09 C171.566667,248.520669 171.651666,248.877665 171.765,249.161 C171.878334,249.444335 172.008666,249.673832 172.156,249.8495 C172.303334,250.025168 172.464832,250.149833 172.6405,250.2235 C172.816168,250.297167 173.000332,250.334 173.193,250.334 Z M180.146,252 C180.191334,251.104662 180.273499,250.28017 180.3925,249.5265 C180.511501,248.77283 180.681499,248.05317 180.9025,247.3675 C181.123501,246.68183 181.406832,246.010337 181.7525,245.353 C182.098168,244.695663 182.525997,244.01567 183.036,243.313 L178.191,243.313 L178.191,241.205 L185.705,241.205 L185.705,242.735 C185.081664,243.494337 184.580169,244.205497 184.2005,244.8685 C183.820831,245.531503 183.526168,246.217163 183.3165,246.9255 C183.106832,247.633837 182.956667,248.393163 182.866,249.2035 C182.775333,250.013837 182.707334,250.945995 182.662,252 L180.146,252 Z M190.55,252.204 C189.665996,252.204 188.918003,252.065168 188.306,251.7875 C187.693997,251.509832 187.189669,251.138669 186.793,250.674 L187.949,249.093 C188.277668,249.410335 188.637498,249.670999 189.0285,249.875 C189.419502,250.079001 189.847331,250.181 190.312,250.181 C190.844669,250.181 191.269665,250.070501 191.587,249.8495 C191.904335,249.628499 192.063,249.314002 192.063,248.906 C192.063,248.667999 192.0205,248.452668 191.9355,248.26 C191.8505,248.067332 191.700334,247.905834 191.485,247.7755 C191.269666,247.645166 190.975002,247.543167 190.601,247.4695 C190.226998,247.395833 189.745336,247.359 189.156,247.359 L189.156,245.591 C189.643336,245.591 190.048498,245.557 190.3715,245.489 C190.694502,245.421 190.955166,245.321834 191.1535,245.1915 C191.351834,245.061166 191.4935,244.908168 191.5785,244.7325 C191.6635,244.556832 191.706,244.361334 191.706,244.146 C191.706,243.771998 191.592668,243.480168 191.366,243.2705 C191.139332,243.060832 190.810669,242.956 190.38,242.956 C189.994665,242.956 189.646168,243.040999 189.3345,243.211 C189.022832,243.381001 188.697002,243.613332 188.357,243.908 L187.099,242.378 C187.597669,241.947331 188.121831,241.610168 188.6715,241.3665 C189.221169,241.122832 189.83033,241.001 190.499,241.001 C191.054336,241.001 191.561498,241.066166 192.0205,241.1965 C192.479502,241.326834 192.870498,241.519499 193.1935,241.7745 C193.516502,242.029501 193.768666,242.338332 193.95,242.701 C194.131334,243.063668 194.222,243.482998 194.222,243.959 C194.222,244.525669 194.066168,245.004498 193.7545,245.3955 C193.442832,245.786502 192.998003,246.106665 192.42,246.356 L192.42,246.424 C193.043336,246.605334 193.556165,246.914164 193.9585,247.3505 C194.360835,247.786836 194.562,248.35633 194.562,249.059 C194.562,249.557669 194.454334,250.002498 194.239,250.3935 C194.023666,250.784502 193.734668,251.113165 193.372,251.3795 C193.009332,251.645835 192.584336,251.849833 192.097,251.9915 C191.609664,252.133167 191.094003,252.204 190.55,252.204 Z M196.5,252 L196.5,243.568 L198.54,243.568 L198.71,244.656 L198.778,244.656 C199.129335,244.304665 199.503331,244.001501 199.9,243.7465 C200.296669,243.491499 200.772664,243.364 201.328,243.364 C201.92867,243.364 202.413165,243.485832 202.7815,243.7295 C203.149835,243.973168 203.441666,244.321664 203.657,244.775 C204.031002,244.389665 204.424831,244.058168 204.8385,243.7805 C205.252169,243.502832 205.742331,243.364 206.309,243.364 C207.215671,243.364 207.881498,243.667164 208.3065,244.2735 C208.731502,244.879836 208.944,245.709995 208.944,246.764 L208.944,252 L206.445,252 L206.445,247.087 C206.445,246.474997 206.362834,246.055668 206.1985,245.829 C206.034166,245.602332 205.770668,245.489 205.408,245.489 C204.988665,245.489 204.507003,245.760997 203.963,246.305 L203.963,252 L201.464,252 L201.464,247.087 C201.464,246.474997 201.381834,246.055668 201.2175,245.829 C201.053166,245.602332 200.789668,245.489 200.427,245.489 C199.996331,245.489 199.520336,245.760997 198.999,246.305 L198.999,252 L196.5,252 Z M211.069,252 L211.069,243.568 L213.109,243.568 L213.279,244.656 L213.347,244.656 C213.698335,244.304665 214.072331,244.001501 214.469,243.7465 C214.865669,243.491499 215.341664,243.364 215.897,243.364 C216.49767,243.364 216.982165,243.485832 217.3505,243.7295 C217.718835,243.973168 218.010666,244.321664 218.226,244.775 C218.600002,244.389665 218.993831,244.058168 219.4075,243.7805 C219.821169,243.502832 220.31133,243.364 220.878,243.364 C221.784671,243.364 222.450498,243.667164 222.8755,244.2735 C223.300502,244.879836 223.513,245.709995 223.513,246.764 L223.513,252 L221.014,252 L221.014,247.087 C221.014,246.474997 220.931834,246.055668 220.7675,245.829 C220.603166,245.602332 220.339668,245.489 219.977,245.489 C219.557665,245.489 219.076003,245.760997 218.532,246.305 L218.532,252 L216.033,252 L216.033,247.087 C216.033,246.474997 215.950834,246.055668 215.7865,245.829 C215.622166,245.602332 215.358668,245.489 214.996,245.489 C214.565331,245.489 214.089336,245.760997 213.568,246.305 L213.568,252 L211.069,252 Z" id="673mm" fill="#093169" fill-rule="nonzero"></path>
        </g>
    </g>
</svg>