<?xml version="1.0" encoding="UTF-8"?>
<svg width="706px" height="295px" viewBox="0 0 706 295" version="1.1" xmlns="http://www.w3.org/2000/svg" xmlns:xlink="http://www.w3.org/1999/xlink">
    <!-- Generator: Sketch 58 (84663) - https://sketch.com -->
    <title>pierCaps/PC245</title>
    <desc>Created with Sketch.</desc>
    <g id="pierCaps/PC245" stroke="none" stroke-width="1" fill="none" fill-rule="evenodd">
        <rect fill="#F5F9FF" x="0" y="0" width="706" height="295"></rect>
        <g id="Group-3" transform="translate(157.000000, 35.000000)">
            <g id="Group-2" transform="translate(0.000000, 67.000000)" fill="#FFFFFF">
                <g id="Group" stroke="#CBD8F2">
                    <polyline id="Path" points="34 44 34 53.84 359 53.84 359 44"></polyline>
                    <path d="M377,34 C368.752772,34.24 365.931592,38.794 365.538477,43.829 C365.538477,43.829 27.8150036,43.829 27.1428413,43.829 C26.7497262,38.794 25.2472281,34.24 17,34" id="Path"></path>
                    <polyline id="Path" points="17 28 17 33.88 377 33.88 377 33.4 377 28"></polyline>
                    <path d="M0,11.0102269 C5.07759355,10.8242269 7.50131858,13.2361875 7.50131858,16.4182269 C7.50131858,17.7995147 7.50131858,21.7535147 7.50131858,28.2802269 L385.667722,28.2802269 C385.667722,22.5202026 385.667722,18.5662026 385.667722,16.4182269 C385.667722,13.1962634 387.922406,10.8242269 393,11.0102269" id="Path"></path>
                    <polygon id="Path" points="0 11.28 0 0 393 0 393 11.28"></polygon>
                </g>
                <g id="Group-4" transform="translate(34.000000, 59.000000)" stroke="#FF5959" stroke-opacity="0.6">
                    <rect id="Rectangle" x="0" y="0" width="105" height="32"></rect>
                    <rect id="Rectangle-Copy" x="110" y="0" width="105" height="32"></rect>
                    <rect id="Rectangle-Copy-4" x="220" y="0" width="105" height="32"></rect>
                </g>
            </g>
            <path d="M421.657,102 L421.657,99.977 L424.003,99.977 L424.003,93.738 L421.98,93.738 L421.98,92.191 C422.569336,92.0776661 423.067998,91.9416675 423.476,91.783 C423.884002,91.6243325 424.280665,91.4316678 424.666,91.205 L426.502,91.205 L426.502,99.977 L428.525,99.977 L428.525,102 L421.657,102 Z M430.633,102 L430.633,99.977 L432.979,99.977 L432.979,93.738 L430.956,93.738 L430.956,92.191 C431.545336,92.0776661 432.043998,91.9416675 432.452,91.783 C432.860002,91.6243325 433.256665,91.4316678 433.642,91.205 L435.478,91.205 L435.478,99.977 L437.501,99.977 L437.501,102 L430.633,102 Z M442.907,102.204 C442.328997,102.204 441.802002,102.082168 441.326,101.8385 C440.849998,101.594832 440.444835,101.235002 440.1105,100.759 C439.776165,100.282998 439.515501,99.6936702 439.3285,98.991 C439.141499,98.2883298 439.048,97.4780046 439.048,96.56 C439.048,95.6419954 439.141499,94.8373368 439.3285,94.146 C439.515501,93.4546632 439.776165,92.8738357 440.1105,92.4035 C440.444835,91.9331643 440.849998,91.5818345 441.326,91.3495 C441.802002,91.1171655 442.328997,91.001 442.907,91.001 C443.485003,91.001 444.011998,91.1171655 444.488,91.3495 C444.964002,91.5818345 445.369165,91.9331643 445.7035,92.4035 C446.037835,92.8738357 446.298499,93.4546632 446.4855,94.146 C446.672501,94.8373368 446.766,95.6419954 446.766,96.56 C446.766,97.4780046 446.672501,98.2883298 446.4855,98.991 C446.298499,99.6936702 446.037835,100.282998 445.7035,100.759 C445.369165,101.235002 444.964002,101.594832 444.488,101.8385 C444.011998,102.082168 443.485003,102.204 442.907,102.204 Z M442.907,100.266 C443.122334,100.266 443.320666,100.212167 443.502,100.1045 C443.683334,99.9968328 443.841999,99.8013347 443.978,99.518 C444.114001,99.2346653 444.218833,98.8550024 444.2925,98.379 C444.366167,97.9029976 444.403,97.2966703 444.403,96.56 C444.403,95.8233297 444.366167,95.2198357 444.2925,94.7495 C444.218833,94.2791643 444.114001,93.9108347 443.978,93.6445 C443.841999,93.3781653 443.683334,93.1940005 443.502,93.092 C443.320666,92.9899995 443.122334,92.939 442.907,92.939 C442.702999,92.939 442.510334,92.9899995 442.329,93.092 C442.147666,93.1940005 441.989001,93.3781653 441.853,93.6445 C441.716999,93.9108347 441.609334,94.2791643 441.53,94.7495 C441.450666,95.2198357 441.411,95.8233297 441.411,96.56 C441.411,97.2966703 441.450666,97.9029976 441.53,98.379 C441.609334,98.8550024 441.716999,99.2346653 441.853,99.518 C441.989001,99.8013347 442.147666,99.9968328 442.329,100.1045 C442.510334,100.212167 442.702999,100.266 442.907,100.266 Z M448.5,102 L448.5,93.568 L450.54,93.568 L450.71,94.656 L450.778,94.656 C451.129335,94.3046649 451.503331,94.0015013 451.9,93.7465 C452.296669,93.4914987 452.772664,93.364 453.328,93.364 C453.92867,93.364 454.413165,93.4858321 454.7815,93.7295 C455.149835,93.9731679 455.441666,94.3216644 455.657,94.775 C456.031002,94.3896647 456.424831,94.0581681 456.8385,93.7805 C457.252169,93.5028319 457.74233,93.364 458.309,93.364 C459.215671,93.364 459.881498,93.6671636 460.3065,94.2735 C460.731502,94.8798364 460.944,95.7099947 460.944,96.764 L460.944,102 L458.445,102 L458.445,97.087 C458.445,96.4749969 458.362834,96.0556678 458.1985,95.829 C458.034166,95.6023322 457.770668,95.489 457.408,95.489 C456.988665,95.489 456.507003,95.7609973 455.963,96.305 L455.963,102 L453.464,102 L453.464,97.087 C453.464,96.4749969 453.381834,96.0556678 453.2175,95.829 C453.053166,95.6023322 452.789668,95.489 452.427,95.489 C451.996331,95.489 451.520336,95.7609973 450.999,96.305 L450.999,102 L448.5,102 Z M463.069,102 L463.069,93.568 L465.109,93.568 L465.279,94.656 L465.347,94.656 C465.698335,94.3046649 466.072331,94.0015013 466.469,93.7465 C466.865669,93.4914987 467.341664,93.364 467.897,93.364 C468.49767,93.364 468.982165,93.4858321 469.3505,93.7295 C469.718835,93.9731679 470.010666,94.3216644 470.226,94.775 C470.600002,94.3896647 470.993831,94.0581681 471.4075,93.7805 C471.821169,93.5028319 472.31133,93.364 472.878,93.364 C473.784671,93.364 474.450498,93.6671636 474.8755,94.2735 C475.300502,94.8798364 475.513,95.7099947 475.513,96.764 L475.513,102 L473.014,102 L473.014,97.087 C473.014,96.4749969 472.931834,96.0556678 472.7675,95.829 C472.603166,95.6023322 472.339668,95.489 471.977,95.489 C471.557665,95.489 471.076003,95.7609973 470.532,96.305 L470.532,102 L468.033,102 L468.033,97.087 C468.033,96.4749969 467.950834,96.0556678 467.7865,95.829 C467.622166,95.6023322 467.358668,95.489 466.996,95.489 C466.565331,95.489 466.089336,95.7609973 465.568,96.305 L465.568,102 L463.069,102 Z" id="110mm" fill="#093169" fill-rule="nonzero" transform="translate(448.585000, 96.602500) rotate(-270.000000) translate(-448.585000, -96.602500) "></path>
            <polyline id="Rectangle-Copy-3" stroke="#CBD8F2" transform="translate(415.000000, 94.500000) rotate(-270.000000) translate(-415.000000, -94.500000) " points="388.09 102 388 87 442 87 442 102"></polyline>
            <polyline id="Rectangle-Copy" stroke="#CBD8F2" points="0.655 52 0 37 393 37 393 52"></polyline>
            <path d="M172.938,17.204 C172.393997,17.204 171.892502,17.1331674 171.4335,16.9915 C170.974498,16.8498326 170.577835,16.648668 170.2435,16.388 C169.909165,16.127332 169.648501,15.8156685 169.4615,15.453 C169.274499,15.0903315 169.181,14.6880022 169.181,14.246 C169.181,13.5886634 169.359498,13.0503354 169.7165,12.631 C170.073502,12.2116646 170.506997,11.8660014 171.017,11.594 L171.017,11.526 C170.597665,11.2086651 170.252001,10.8488353 169.98,10.4465 C169.707999,10.0441647 169.572,9.55400289 169.572,8.976 C169.572,8.5226644 169.656999,8.11183517 169.827,7.7435 C169.997001,7.37516482 170.234998,7.06066797 170.541,6.8 C170.847002,6.53933203 171.212498,6.34100068 171.6375,6.205 C172.062502,6.06899932 172.524331,6.001 173.023,6.001 C173.510336,6.001 173.957998,6.07183262 174.366,6.2135 C174.774002,6.35516737 175.119665,6.55349872 175.403,6.8085 C175.686335,7.06350127 175.907333,7.37516482 176.066,7.7435 C176.224667,8.11183517 176.304,8.51699779 176.304,8.959 C176.304,9.48033594 176.162335,9.94216465 175.879,10.3445 C175.595665,10.7468353 175.267002,11.0726654 174.893,11.322 L174.893,11.39 C175.414336,11.6733348 175.856332,12.0359978 176.219,12.478 C176.581668,12.9200022 176.763,13.4979964 176.763,14.212 C176.763,14.6426688 176.672334,15.0393315 176.491,15.402 C176.309666,15.7646685 176.051835,16.0791653 175.7175,16.3455 C175.383165,16.6118347 174.980836,16.8214992 174.5105,16.9745 C174.040164,17.1275008 173.516003,17.204 172.938,17.204 Z M173.618,10.71 C174.060002,10.1999974 174.281,9.67300272 174.281,9.129 C174.281,8.70966457 174.164834,8.37250127 173.9325,8.1175 C173.700166,7.86249873 173.380002,7.735 172.972,7.735 C172.643332,7.735 172.360001,7.83699898 172.122,8.041 C171.883999,8.24500102 171.765,8.55666457 171.765,8.976 C171.765,9.41800221 171.934998,9.76366542 172.275,10.013 C172.615002,10.2623346 173.062664,10.4946656 173.618,10.71 Z M172.989,15.47 C173.408335,15.47 173.753999,15.3595011 174.026,15.1385 C174.298001,14.9174989 174.434,14.5803356 174.434,14.127 C174.434,13.8889988 174.380167,13.6850008 174.2725,13.515 C174.164833,13.3449991 174.009001,13.1891674 173.805,13.0475 C173.600999,12.9058326 173.360168,12.7726673 173.0825,12.648 L172.156,12.24 L172.156,12.24 C171.917999,12.4666678 171.719667,12.7273319 171.561,13.022 C171.402333,13.3166681 171.323,13.6283317 171.323,13.957 C171.323,14.4330024 171.487332,14.8041653 171.816,15.0705 C172.144668,15.3368347 172.535664,15.47 172.989,15.47 Z M181.931,17.204 C181.352997,17.204 180.826002,17.0821679 180.35,16.8385 C179.873998,16.5948321 179.468835,16.2350024 179.1345,15.759 C178.800165,15.2829976 178.539501,14.6936702 178.3525,13.991 C178.165499,13.2883298 178.072,12.4780046 178.072,11.56 C178.072,10.6419954 178.165499,9.83733679 178.3525,9.146 C178.539501,8.45466321 178.800165,7.87383568 179.1345,7.4035 C179.468835,6.93316431 179.873998,6.58183449 180.35,6.3495 C180.826002,6.1171655 181.352997,6.001 181.931,6.001 C182.509003,6.001 183.035998,6.1171655 183.512,6.3495 C183.988002,6.58183449 184.393165,6.93316431 184.7275,7.4035 C185.061835,7.87383568 185.322499,8.45466321 185.5095,9.146 C185.696501,9.83733679 185.79,10.6419954 185.79,11.56 C185.79,12.4780046 185.696501,13.2883298 185.5095,13.991 C185.322499,14.6936702 185.061835,15.2829976 184.7275,15.759 C184.393165,16.2350024 183.988002,16.5948321 183.512,16.8385 C183.035998,17.0821679 182.509003,17.204 181.931,17.204 Z M181.931,15.266 C182.146334,15.266 182.344666,15.2121672 182.526,15.1045 C182.707334,14.9968328 182.865999,14.8013347 183.002,14.518 C183.138001,14.2346652 183.242833,13.8550024 183.3165,13.379 C183.390167,12.9029976 183.427,12.2966703 183.427,11.56 C183.427,10.8233296 183.390167,10.2198357 183.3165,9.7495 C183.242833,9.27916431 183.138001,8.91083466 183.002,8.6445 C182.865999,8.37816533 182.707334,8.19400051 182.526,8.092 C182.344666,7.98999949 182.146334,7.939 181.931,7.939 C181.726999,7.939 181.534334,7.98999949 181.353,8.092 C181.171666,8.19400051 181.013001,8.37816533 180.877,8.6445 C180.740999,8.91083466 180.633334,9.27916431 180.554,9.7495 C180.474666,10.2198357 180.435,10.8233296 180.435,11.56 C180.435,12.2966703 180.474666,12.9029976 180.554,13.379 C180.633334,13.8550024 180.740999,14.2346652 180.877,14.518 C181.013001,14.8013347 181.171666,14.9968328 181.353,15.1045 C181.534334,15.2121672 181.726999,15.266 181.931,15.266 Z M190.907,17.204 C190.328997,17.204 189.802002,17.0821679 189.326,16.8385 C188.849998,16.5948321 188.444835,16.2350024 188.1105,15.759 C187.776165,15.2829976 187.515501,14.6936702 187.3285,13.991 C187.141499,13.2883298 187.048,12.4780046 187.048,11.56 C187.048,10.6419954 187.141499,9.83733679 187.3285,9.146 C187.515501,8.45466321 187.776165,7.87383568 188.1105,7.4035 C188.444835,6.93316431 188.849998,6.58183449 189.326,6.3495 C189.802002,6.1171655 190.328997,6.001 190.907,6.001 C191.485003,6.001 192.011998,6.1171655 192.488,6.3495 C192.964002,6.58183449 193.369165,6.93316431 193.7035,7.4035 C194.037835,7.87383568 194.298499,8.45466321 194.4855,9.146 C194.672501,9.83733679 194.766,10.6419954 194.766,11.56 C194.766,12.4780046 194.672501,13.2883298 194.4855,13.991 C194.298499,14.6936702 194.037835,15.2829976 193.7035,15.759 C193.369165,16.2350024 192.964002,16.5948321 192.488,16.8385 C192.011998,17.0821679 191.485003,17.204 190.907,17.204 Z M190.907,15.266 C191.122334,15.266 191.320666,15.2121672 191.502,15.1045 C191.683334,14.9968328 191.841999,14.8013347 191.978,14.518 C192.114001,14.2346652 192.218833,13.8550024 192.2925,13.379 C192.366167,12.9029976 192.403,12.2966703 192.403,11.56 C192.403,10.8233296 192.366167,10.2198357 192.2925,9.7495 C192.218833,9.27916431 192.114001,8.91083466 191.978,8.6445 C191.841999,8.37816533 191.683334,8.19400051 191.502,8.092 C191.320666,7.98999949 191.122334,7.939 190.907,7.939 C190.702999,7.939 190.510334,7.98999949 190.329,8.092 C190.147666,8.19400051 189.989001,8.37816533 189.853,8.6445 C189.716999,8.91083466 189.609334,9.27916431 189.53,9.7495 C189.450666,10.2198357 189.411,10.8233296 189.411,11.56 C189.411,12.2966703 189.450666,12.9029976 189.53,13.379 C189.609334,13.8550024 189.716999,14.2346652 189.853,14.518 C189.989001,14.8013347 190.147666,14.9968328 190.329,15.1045 C190.510334,15.2121672 190.702999,15.266 190.907,15.266 Z M196.5,17 L196.5,8.568 L198.54,8.568 L198.71,9.656 L198.778,9.656 C199.129335,9.30466491 199.503331,9.00150127 199.9,8.7465 C200.296669,8.49149872 200.772664,8.364 201.328,8.364 C201.92867,8.364 202.413165,8.48583211 202.7815,8.7295 C203.149835,8.97316788 203.441666,9.3216644 203.657,9.775 C204.031002,9.38966474 204.424831,9.05816805 204.8385,8.7805 C205.252169,8.50283194 205.742331,8.364 206.309,8.364 C207.215671,8.364 207.881498,8.66716363 208.3065,9.2735 C208.731502,9.87983636 208.944,10.7099947 208.944,11.764 L208.944,17 L206.445,17 L206.445,12.087 C206.445,11.4749969 206.362834,11.0556678 206.1985,10.829 C206.034166,10.6023322 205.770668,10.489 205.408,10.489 C204.988665,10.489 204.507003,10.7609973 203.963,11.305 L203.963,17 L201.464,17 L201.464,12.087 C201.464,11.4749969 201.381834,11.0556678 201.2175,10.829 C201.053166,10.6023322 200.789668,10.489 200.427,10.489 C199.996331,10.489 199.520336,10.7609973 198.999,11.305 L198.999,17 L196.5,17 Z M211.069,17 L211.069,8.568 L213.109,8.568 L213.279,9.656 L213.347,9.656 C213.698335,9.30466491 214.072331,9.00150127 214.469,8.7465 C214.865669,8.49149872 215.341664,8.364 215.897,8.364 C216.49767,8.364 216.982165,8.48583211 217.3505,8.7295 C217.718835,8.97316788 218.010666,9.3216644 218.226,9.775 C218.600002,9.38966474 218.993831,9.05816805 219.4075,8.7805 C219.821169,8.50283194 220.31133,8.364 220.878,8.364 C221.784671,8.364 222.450498,8.66716363 222.8755,9.2735 C223.300502,9.87983636 223.513,10.7099947 223.513,11.764 L223.513,17 L221.014,17 L221.014,12.087 C221.014,11.4749969 220.931834,11.0556678 220.7675,10.829 C220.603166,10.6023322 220.339668,10.489 219.977,10.489 C219.557665,10.489 219.076003,10.7609973 218.532,11.305 L218.532,17 L216.033,17 L216.033,12.087 C216.033,11.4749969 215.950834,11.0556678 215.7865,10.829 C215.622166,10.6023322 215.358668,10.489 214.996,10.489 C214.565331,10.489 214.089336,10.7609973 213.568,11.305 L213.568,17 L211.069,17 Z" id="800mm" fill="#093169" fill-rule="nonzero"></path>
            <polyline id="Rectangle-Copy-2" stroke="#CBD8F2" transform="translate(196.500000, 180.500000) rotate(-180.000000) translate(-196.500000, -180.500000) " points="34.5416667 188 34 173 359 173 359 188"></polyline>
            <path d="M173.244,220.204 C172.722664,220.204 172.215502,220.102001 171.7225,219.898 C171.229498,219.693999 170.793169,219.376669 170.4135,218.946 C170.033831,218.515331 169.730668,217.962837 169.504,217.2885 C169.277332,216.614163 169.164,215.801005 169.164,214.849 C169.164,213.840328 169.285832,212.96767 169.5295,212.231 C169.773168,211.49433 170.096165,210.888002 170.4985,210.412 C170.900835,209.935998 171.365497,209.581834 171.8925,209.3495 C172.419503,209.117166 172.96633,209.001 173.533,209.001 C174.247004,209.001 174.864664,209.128499 175.386,209.3835 C175.907336,209.638501 176.337998,209.941665 176.678,210.293 L175.369,211.789 C175.176332,211.584999 174.927002,211.406501 174.621,211.2535 C174.314998,211.100499 174.003335,211.024 173.686,211.024 C173.391332,211.024 173.113668,211.080666 172.853,211.194 C172.592332,211.307334 172.362834,211.497165 172.1645,211.7635 C171.966166,212.029835 171.804667,212.378331 171.68,212.809 C171.555333,213.239669 171.481667,213.766664 171.459,214.39 C171.595001,214.208666 171.753666,214.047167 171.935,213.9055 C172.116334,213.763833 172.303332,213.644834 172.496,213.5485 C172.688668,213.452166 172.881332,213.3785 173.074,213.3275 C173.266668,213.2765 173.447999,213.251 173.618,213.251 C174.082669,213.251 174.510498,213.318999 174.9015,213.455 C175.292502,213.591001 175.632499,213.794999 175.9215,214.067 C176.210501,214.339001 176.434333,214.684665 176.593,215.104 C176.751667,215.523335 176.831,216.016331 176.831,216.583 C176.831,217.149669 176.734668,217.653998 176.542,218.096 C176.349332,218.538002 176.091502,218.917665 175.7685,219.235 C175.445498,219.552335 175.065836,219.793166 174.6295,219.9575 C174.193164,220.121834 173.731336,220.204 173.244,220.204 Z M173.193,218.334 C173.567002,218.334 173.887165,218.195168 174.1535,217.9175 C174.419835,217.639832 174.553,217.195003 174.553,216.583 C174.553,216.004997 174.419835,215.599834 174.1535,215.3675 C173.887165,215.135166 173.550002,215.019 173.142,215.019 C172.858665,215.019 172.572501,215.101166 172.2835,215.2655 C171.994499,215.429834 171.736668,215.704665 171.51,216.09 C171.566667,216.520669 171.651666,216.877665 171.765,217.161 C171.878334,217.444335 172.008666,217.673832 172.156,217.8495 C172.303334,218.025168 172.464832,218.149833 172.6405,218.2235 C172.816168,218.297167 173.000332,218.334 173.193,218.334 Z M180.146,220 C180.191334,219.104662 180.273499,218.28017 180.3925,217.5265 C180.511501,216.77283 180.681499,216.05317 180.9025,215.3675 C181.123501,214.68183 181.406832,214.010337 181.7525,213.353 C182.098168,212.695663 182.525997,212.01567 183.036,211.313 L178.191,211.313 L178.191,209.205 L185.705,209.205 L185.705,210.735 C185.081664,211.494337 184.580169,212.205497 184.2005,212.8685 C183.820831,213.531503 183.526168,214.217163 183.3165,214.9255 C183.106832,215.633837 182.956667,216.393163 182.866,217.2035 C182.775333,218.013837 182.707334,218.945995 182.662,220 L180.146,220 Z M190.55,220.204 C189.665996,220.204 188.918003,220.065168 188.306,219.7875 C187.693997,219.509832 187.189669,219.138669 186.793,218.674 L187.949,217.093 C188.277668,217.410335 188.637498,217.670999 189.0285,217.875 C189.419502,218.079001 189.847331,218.181 190.312,218.181 C190.844669,218.181 191.269665,218.070501 191.587,217.8495 C191.904335,217.628499 192.063,217.314002 192.063,216.906 C192.063,216.667999 192.0205,216.452668 191.9355,216.26 C191.8505,216.067332 191.700334,215.905834 191.485,215.7755 C191.269666,215.645166 190.975002,215.543167 190.601,215.4695 C190.226998,215.395833 189.745336,215.359 189.156,215.359 L189.156,213.591 C189.643336,213.591 190.048498,213.557 190.3715,213.489 C190.694502,213.421 190.955166,213.321834 191.1535,213.1915 C191.351834,213.061166 191.4935,212.908168 191.5785,212.7325 C191.6635,212.556832 191.706,212.361334 191.706,212.146 C191.706,211.771998 191.592668,211.480168 191.366,211.2705 C191.139332,211.060832 190.810669,210.956 190.38,210.956 C189.994665,210.956 189.646168,211.040999 189.3345,211.211 C189.022832,211.381001 188.697002,211.613332 188.357,211.908 L187.099,210.378 C187.597669,209.947331 188.121831,209.610168 188.6715,209.3665 C189.221169,209.122832 189.83033,209.001 190.499,209.001 C191.054336,209.001 191.561498,209.066166 192.0205,209.1965 C192.479502,209.326834 192.870498,209.519499 193.1935,209.7745 C193.516502,210.029501 193.768666,210.338332 193.95,210.701 C194.131334,211.063668 194.222,211.482998 194.222,211.959 C194.222,212.525669 194.066168,213.004498 193.7545,213.3955 C193.442832,213.786502 192.998003,214.106665 192.42,214.356 L192.42,214.424 C193.043336,214.605334 193.556165,214.914164 193.9585,215.3505 C194.360835,215.786836 194.562,216.35633 194.562,217.059 C194.562,217.557669 194.454334,218.002498 194.239,218.3935 C194.023666,218.784502 193.734668,219.113165 193.372,219.3795 C193.009332,219.645835 192.584336,219.849833 192.097,219.9915 C191.609664,220.133167 191.094003,220.204 190.55,220.204 Z M196.5,220 L196.5,211.568 L198.54,211.568 L198.71,212.656 L198.778,212.656 C199.129335,212.304665 199.503331,212.001501 199.9,211.7465 C200.296669,211.491499 200.772664,211.364 201.328,211.364 C201.92867,211.364 202.413165,211.485832 202.7815,211.7295 C203.149835,211.973168 203.441666,212.321664 203.657,212.775 C204.031002,212.389665 204.424831,212.058168 204.8385,211.7805 C205.252169,211.502832 205.742331,211.364 206.309,211.364 C207.215671,211.364 207.881498,211.667164 208.3065,212.2735 C208.731502,212.879836 208.944,213.709995 208.944,214.764 L208.944,220 L206.445,220 L206.445,215.087 C206.445,214.474997 206.362834,214.055668 206.1985,213.829 C206.034166,213.602332 205.770668,213.489 205.408,213.489 C204.988665,213.489 204.507003,213.760997 203.963,214.305 L203.963,220 L201.464,220 L201.464,215.087 C201.464,214.474997 201.381834,214.055668 201.2175,213.829 C201.053166,213.602332 200.789668,213.489 200.427,213.489 C199.996331,213.489 199.520336,213.760997 198.999,214.305 L198.999,220 L196.5,220 Z M211.069,220 L211.069,211.568 L213.109,211.568 L213.279,212.656 L213.347,212.656 C213.698335,212.304665 214.072331,212.001501 214.469,211.7465 C214.865669,211.491499 215.341664,211.364 215.897,211.364 C216.49767,211.364 216.982165,211.485832 217.3505,211.7295 C217.718835,211.973168 218.010666,212.321664 218.226,212.775 C218.600002,212.389665 218.993831,212.058168 219.4075,211.7805 C219.821169,211.502832 220.31133,211.364 220.878,211.364 C221.784671,211.364 222.450498,211.667164 222.8755,212.2735 C223.300502,212.879836 223.513,213.709995 223.513,214.764 L223.513,220 L221.014,220 L221.014,215.087 C221.014,214.474997 220.931834,214.055668 220.7675,213.829 C220.603166,213.602332 220.339668,213.489 219.977,213.489 C219.557665,213.489 219.076003,213.760997 218.532,214.305 L218.532,220 L216.033,220 L216.033,215.087 C216.033,214.474997 215.950834,214.055668 215.7865,213.829 C215.622166,213.602332 215.358668,213.489 214.996,213.489 C214.565331,213.489 214.089336,213.760997 213.568,214.305 L213.568,220 L211.069,220 Z" id="673mm" fill="#093169" fill-rule="nonzero"></path>
        </g>
    </g>
</svg>