<?xml version="1.0" encoding="UTF-8"?>
<svg width="706px" height="327px" viewBox="0 0 706 327" version="1.1" xmlns="http://www.w3.org/2000/svg" xmlns:xlink="http://www.w3.org/1999/xlink">
    <!-- Generator: Sketch 58 (84663) - https://sketch.com -->
    <title>pierCaps/PC250</title>
    <desc>Created with Sketch.</desc>
    <g id="pierCaps/PC250" stroke="none" stroke-width="1" fill="none" fill-rule="evenodd">
        <rect fill="#F5F9FF" x="0" y="0" width="706" height="327"></rect>
        <g id="Group-8" transform="translate(87.000000, 35.000000)">
            <g id="Group-7">
                <g id="Group-3" transform="translate(0.000000, 67.000000)" fill="#FFFFFF" stroke="#CBD8F2">
                    <polyline id="Path" points="32 76 32 85.84 485 85.84 485 76"></polyline>
                    <path d="M500,66 C495.27,66.1025935 491.149887,70.794 490.622457,75.829 C490.622457,75.829 27.5101298,75.829 26.6083121,75.829 C26.0808826,70.794 21.45,66.0965203 17,66" id="Path"></path>
                    <polyline id="Path" points="0 31.92 258.5 4.08562073e-14 517 31.92"></polyline>
                    <polyline id="Path" points="17 60 17 65.88 500 65.88 500 65.4 500 60"></polyline>
                    <path d="M0,43.0102269 C6.67968414,42.8242269 8.86814683,45.2361875 8.86814683,48.4182269 C8.86814683,49.7995147 8.86814683,53.7535147 8.86814683,60.2802269 L508.35423,60.2802269 C508.35423,54.5202026 508.35423,50.5662026 508.35423,48.4182269 C508.35423,45.1962634 510.320316,42.8242269 517,43.0102269" id="Path"></path>
                    <polygon id="Path" points="0 43.28 0 32 517 32 517 43.28"></polygon>
                </g>
                <g id="Group" transform="translate(36.000000, 158.000000)" fill="#FFFFFF" stroke="#FF5959" stroke-opacity="0.6">
                    <rect id="Rectangle" x="59" y="0" width="105" height="32"></rect>
                    <rect id="Rectangle-Copy-5" x="0" y="0" width="54" height="32"></rect>
                    <rect id="Rectangle-Copy" x="169" y="0" width="105" height="32"></rect>
                    <rect id="Rectangle-Copy-4" x="279" y="0" width="105" height="32"></rect>
                    <rect id="Rectangle-Copy-6" x="389" y="0" width="54" height="32"></rect>
                </g>
                <g id="Group-6">
                    <polyline id="Rectangle-Copy" stroke="#CBD8F2" points="0.861666667 52 0 37 517 37 517 52"></polyline>
                    <path d="M227.169,17 L227.169,14.977 L229.515,14.977 L229.515,8.738 L227.492,8.738 L227.492,7.191 C228.081336,7.0776661 228.579998,6.94166746 228.988,6.783 C229.396002,6.62433254 229.792665,6.4316678 230.178,6.205 L232.014,6.205 L232.014,14.977 L234.037,14.977 L234.037,17 L227.169,17 Z M239.443,17.204 C238.864997,17.204 238.338002,17.0821679 237.862,16.8385 C237.385998,16.5948321 236.980835,16.2350024 236.6465,15.759 C236.312165,15.2829976 236.051501,14.6936702 235.8645,13.991 C235.677499,13.2883298 235.584,12.4780046 235.584,11.56 C235.584,10.6419954 235.677499,9.83733679 235.8645,9.146 C236.051501,8.45466321 236.312165,7.87383568 236.6465,7.4035 C236.980835,6.93316431 237.385998,6.58183449 237.862,6.3495 C238.338002,6.1171655 238.864997,6.001 239.443,6.001 C240.021003,6.001 240.547998,6.1171655 241.024,6.3495 C241.500002,6.58183449 241.905165,6.93316431 242.2395,7.4035 C242.573835,7.87383568 242.834499,8.45466321 243.0215,9.146 C243.208501,9.83733679 243.302,10.6419954 243.302,11.56 C243.302,12.4780046 243.208501,13.2883298 243.0215,13.991 C242.834499,14.6936702 242.573835,15.2829976 242.2395,15.759 C241.905165,16.2350024 241.500002,16.5948321 241.024,16.8385 C240.547998,17.0821679 240.021003,17.204 239.443,17.204 Z M239.443,15.266 C239.658334,15.266 239.856666,15.2121672 240.038,15.1045 C240.219334,14.9968328 240.377999,14.8013347 240.514,14.518 C240.650001,14.2346652 240.754833,13.8550024 240.8285,13.379 C240.902167,12.9029976 240.939,12.2966703 240.939,11.56 C240.939,10.8233296 240.902167,10.2198357 240.8285,9.7495 C240.754833,9.27916431 240.650001,8.91083466 240.514,8.6445 C240.377999,8.37816533 240.219334,8.19400051 240.038,8.092 C239.856666,7.98999949 239.658334,7.939 239.443,7.939 C239.238999,7.939 239.046334,7.98999949 238.865,8.092 C238.683666,8.19400051 238.525001,8.37816533 238.389,8.6445 C238.252999,8.91083466 238.145334,9.27916431 238.066,9.7495 C237.986666,10.2198357 237.947,10.8233296 237.947,11.56 C237.947,12.2966703 237.986666,12.9029976 238.066,13.379 C238.145334,13.8550024 238.252999,14.2346652 238.389,14.518 C238.525001,14.8013347 238.683666,14.9968328 238.865,15.1045 C239.046334,15.2121672 239.238999,15.266 239.443,15.266 Z M248.13,17.204 C247.245996,17.204 246.498003,17.0595014 245.886,16.7705 C245.273997,16.4814986 244.752669,16.1216688 244.322,15.691 L245.444,14.11 C245.772668,14.4046681 246.126831,14.6568323 246.5065,14.8665 C246.886169,15.0761677 247.308331,15.181 247.773,15.181 C248.328336,15.181 248.770332,15.0393348 249.099,14.756 C249.427668,14.4726652 249.592,14.0533361 249.592,13.498 C249.592,12.9539973 249.436168,12.5403347 249.1245,12.257 C248.812832,11.9736652 248.402003,11.832 247.892,11.832 C247.733333,11.832 247.591667,11.8404999 247.467,11.8575 C247.342333,11.8745001 247.220501,11.9056664 247.1015,11.951 C246.982499,11.9963336 246.857834,12.0529997 246.7275,12.121 C246.597166,12.1890003 246.452667,12.2739995 246.294,12.376 L245.172,11.662 L245.478,6.205 L251.598,6.205 L251.598,8.313 L247.637,8.313 L247.45,10.336 C247.654001,10.2453329 247.849499,10.1801669 248.0365,10.1405 C248.223501,10.1008331 248.430332,10.081 248.657,10.081 C249.121669,10.081 249.560831,10.1489993 249.9745,10.285 C250.388169,10.4210007 250.753665,10.6249986 251.071,10.897 C251.388335,11.1690014 251.637666,11.5146646 251.819,11.934 C252.000334,12.3533354 252.091,12.8519971 252.091,13.43 C252.091,14.0306697 251.983334,14.563331 251.768,15.028 C251.552666,15.492669 251.263668,15.8864984 250.901,16.2095 C250.538332,16.5325016 250.116169,16.7789992 249.6345,16.949 C249.152831,17.1190008 248.651336,17.204 248.13,17.204 Z M253.536,17 L253.536,15.572 L254.337041,14.8171994 C254.72328,14.4500002 255.088098,14.0981017 255.4315,13.7615 C256.003836,13.2004972 256.496831,12.6735025 256.9105,12.1805 C257.324169,11.6874975 257.647166,11.2285021 257.8795,10.8035 C258.111834,10.3784979 258.228,9.97333526 258.228,9.588 C258.228,9.05533067 258.092001,8.65016805 257.82,8.3725 C257.547999,8.09483194 257.174002,7.956 256.698,7.956 C256.301331,7.956 255.950002,8.06649889 255.644,8.2875 C255.337998,8.50850111 255.049001,8.76633186 254.777,9.061 L253.417,7.718 C253.949669,7.1513305 254.493664,6.72350145 255.049,6.4345 C255.604336,6.14549855 256.267329,6.001 257.038,6.001 C257.570669,6.001 258.055164,6.08316584 258.4915,6.2475 C258.927836,6.41183416 259.304665,6.64416517 259.622,6.9445 C259.939335,7.24483483 260.182999,7.60466457 260.353,8.024 C260.523001,8.44333543 260.608,8.91366406 260.608,9.435 C260.608,9.8883356 260.511668,10.3501643 260.319,10.8205 C260.126332,11.2908357 259.868502,11.7611643 259.5455,12.2315 C259.222498,12.7018357 258.854169,13.1721643 258.4405,13.6425 C258.026831,14.1128357 257.599002,14.5746644 257.157,15.028 L257.588375,14.979125 C257.739958,14.9635417 257.899332,14.9486667 258.0665,14.9345 C258.400835,14.9061665 258.698332,14.892 258.959,14.892 L261.135,14.892 L261.135,17 L253.536,17 Z M262.988,17 L262.988,8.568 L265.028,8.568 L265.198,9.656 L265.266,9.656 C265.617335,9.30466491 265.991331,9.00150127 266.388,8.7465 C266.784669,8.49149872 267.260664,8.364 267.816,8.364 C268.41667,8.364 268.901165,8.48583211 269.2695,8.7295 C269.637835,8.97316788 269.929666,9.3216644 270.145,9.775 C270.519002,9.38966474 270.912831,9.05816805 271.3265,8.7805 C271.740169,8.50283194 272.230331,8.364 272.797,8.364 C273.703671,8.364 274.369498,8.66716363 274.7945,9.2735 C275.219502,9.87983636 275.432,10.7099947 275.432,11.764 L275.432,17 L272.933,17 L272.933,12.087 C272.933,11.4749969 272.850834,11.0556678 272.6865,10.829 C272.522166,10.6023322 272.258668,10.489 271.896,10.489 C271.476665,10.489 270.995003,10.7609973 270.451,11.305 L270.451,17 L267.952,17 L267.952,12.087 C267.952,11.4749969 267.869834,11.0556678 267.7055,10.829 C267.541166,10.6023322 267.277668,10.489 266.915,10.489 C266.484331,10.489 266.008336,10.7609973 265.487,11.305 L265.487,17 L262.988,17 Z M277.557,17 L277.557,8.568 L279.597,8.568 L279.767,9.656 L279.835,9.656 C280.186335,9.30466491 280.560331,9.00150127 280.957,8.7465 C281.353669,8.49149872 281.829664,8.364 282.385,8.364 C282.98567,8.364 283.470165,8.48583211 283.8385,8.7295 C284.206835,8.97316788 284.498666,9.3216644 284.714,9.775 C285.088002,9.38966474 285.481831,9.05816805 285.8955,8.7805 C286.309169,8.50283194 286.79933,8.364 287.366,8.364 C288.272671,8.364 288.938498,8.66716363 289.3635,9.2735 C289.788502,9.87983636 290.001,10.7099947 290.001,11.764 L290.001,17 L287.502,17 L287.502,12.087 C287.502,11.4749969 287.419834,11.0556678 287.2555,10.829 C287.091166,10.6023322 286.827668,10.489 286.465,10.489 C286.045665,10.489 285.564003,10.7609973 285.02,11.305 L285.02,17 L282.521,17 L282.521,12.087 C282.521,11.4749969 282.438834,11.0556678 282.2745,10.829 C282.110166,10.6023322 281.846668,10.489 281.484,10.489 C281.053331,10.489 280.577336,10.7609973 280.056,11.305 L280.056,17 L277.557,17 Z" id="1052mm" fill="#093169" fill-rule="nonzero"></path>
                </g>
                <g id="Group-4" transform="translate(36.000000, 205.000000)">
                    <polyline id="Rectangle-Copy-2" stroke="#CBD8F2" transform="translate(221.500000, 7.500000) rotate(-180.000000) translate(-221.500000, -7.500000) " points="0.738333333 15 0 0 443 0 443 15"></polyline>
                    <path d="M197.751,41.186 C198.034335,41.186 198.320499,41.1038342 198.6095,40.9395 C198.898501,40.7751658 199.150666,40.5003353 199.366,40.115 C199.252666,39.2649957 199.040168,38.6785016 198.7285,38.3555 C198.416832,38.0324984 198.068335,37.871 197.683,37.871 C197.320332,37.871 197.003001,38.0098319 196.731,38.2875 C196.458999,38.5651681 196.323,39.0099969 196.323,39.622 C196.323,40.2000029 196.458999,40.6051655 196.731,40.8375 C197.003001,41.0698345 197.342998,41.186 197.751,41.186 Z M197.36,47.204 C196.645996,47.204 196.025503,47.073668 195.4985,46.813 C194.971497,46.552332 194.538002,46.2520017 194.198,45.912 L195.524,44.416 C195.705334,44.620001 195.948998,44.7984992 196.255,44.9515 C196.561002,45.1045008 196.872665,45.181 197.19,45.181 C197.496002,45.181 197.779332,45.1243339 198.04,45.011 C198.300668,44.8976661 198.530166,44.7078347 198.7285,44.4415 C198.926834,44.1751653 199.085499,43.8295021 199.2045,43.4045 C199.323501,42.9794979 199.394333,42.4496698 199.417,41.815 C199.280999,41.9963342 199.122334,42.1578326 198.941,42.2995 C198.759666,42.4411674 198.572668,42.5601662 198.38,42.6565 C198.187332,42.7528338 197.994668,42.8264997 197.802,42.8775 C197.609332,42.9285003 197.428001,42.954 197.258,42.954 C196.793331,42.954 196.365502,42.8860007 195.9745,42.75 C195.583498,42.6139993 195.246335,42.4100014 194.963,42.138 C194.679665,41.8659986 194.455834,41.5203354 194.2915,41.101 C194.127166,40.6816646 194.045,40.1886695 194.045,39.622 C194.045,39.0666639 194.141332,38.5651689 194.334,38.1175 C194.526668,37.6698311 194.784498,37.2873349 195.1075,36.97 C195.430502,36.6526651 195.810164,36.4118342 196.2465,36.2475 C196.682836,36.0831658 197.144664,36.001 197.632,36.001 C198.153336,36.001 198.660498,36.102999 199.1535,36.307 C199.646502,36.511001 200.082831,36.8283312 200.4625,37.259 C200.842169,37.6896688 201.148166,38.2421633 201.3805,38.9165 C201.612834,39.5908367 201.729,40.4039952 201.729,41.356 C201.729,42.3646717 201.607168,43.2373296 201.3635,43.974 C201.119832,44.7106704 200.796835,45.3169976 200.3945,45.793 C199.992165,46.2690024 199.527503,46.6231655 199.0005,46.8555 C198.473497,47.0878345 197.92667,47.204 197.36,47.204 Z M203.072,47 L203.072,45.572 L203.873041,44.8171994 C204.25928,44.4500002 204.624098,44.0981017 204.9675,43.7615 C205.539836,43.2004972 206.032831,42.6735025 206.4465,42.1805 C206.860169,41.6874975 207.183166,41.2285021 207.4155,40.8035 C207.647834,40.3784979 207.764,39.9733353 207.764,39.588 C207.764,39.0553307 207.628001,38.6501681 207.356,38.3725 C207.083999,38.0948319 206.710002,37.956 206.234,37.956 C205.837331,37.956 205.486002,38.0664989 205.18,38.2875 C204.873998,38.5085011 204.585001,38.7663319 204.313,39.061 L202.953,37.718 C203.485669,37.1513305 204.029664,36.7235014 204.585,36.4345 C205.140336,36.1454986 205.803329,36.001 206.574,36.001 C207.106669,36.001 207.591164,36.0831658 208.0275,36.2475 C208.463836,36.4118342 208.840665,36.6441652 209.158,36.9445 C209.475335,37.2448348 209.718999,37.6046646 209.889,38.024 C210.059001,38.4433354 210.144,38.9136641 210.144,39.435 C210.144,39.8883356 210.047668,40.3501643 209.855,40.8205 C209.662332,41.2908357 209.404502,41.7611643 209.0815,42.2315 C208.758498,42.7018357 208.390169,43.1721643 207.9765,43.6425 C207.562831,44.1128357 207.135002,44.5746644 206.693,45.028 L207.124375,44.979125 C207.275958,44.9635417 207.435332,44.9486667 207.6025,44.9345 C207.936835,44.9061665 208.234332,44.892 208.495,44.892 L210.671,44.892 L210.671,47 L203.072,47 Z M215.618,47.204 C214.733996,47.204 213.986003,47.0595014 213.374,46.7705 C212.761997,46.4814986 212.240669,46.1216688 211.81,45.691 L212.932,44.11 C213.260668,44.4046681 213.614831,44.6568323 213.9945,44.8665 C214.374169,45.0761677 214.796331,45.181 215.261,45.181 C215.816336,45.181 216.258332,45.0393348 216.587,44.756 C216.915668,44.4726652 217.08,44.0533361 217.08,43.498 C217.08,42.9539973 216.924168,42.5403347 216.6125,42.257 C216.300832,41.9736652 215.890003,41.832 215.38,41.832 C215.221333,41.832 215.079667,41.8404999 214.955,41.8575 C214.830333,41.8745001 214.708501,41.9056664 214.5895,41.951 C214.470499,41.9963336 214.345834,42.0529997 214.2155,42.121 C214.085166,42.1890003 213.940667,42.2739995 213.782,42.376 L212.66,41.662 L212.966,36.205 L219.086,36.205 L219.086,38.313 L215.125,38.313 L214.938,40.336 C215.142001,40.2453329 215.337499,40.1801669 215.5245,40.1405 C215.711501,40.1008331 215.918332,40.081 216.145,40.081 C216.609669,40.081 217.048831,40.1489993 217.4625,40.285 C217.876169,40.4210007 218.241665,40.6249986 218.559,40.897 C218.876335,41.1690014 219.125666,41.5146646 219.307,41.934 C219.488334,42.3533354 219.579,42.8519971 219.579,43.43 C219.579,44.0306697 219.471334,44.563331 219.256,45.028 C219.040666,45.492669 218.751668,45.8864984 218.389,46.2095 C218.026332,46.5325016 217.604169,46.7789992 217.1225,46.949 C216.640831,47.1190008 216.139336,47.204 215.618,47.204 Z M221.5,47 L221.5,38.568 L223.54,38.568 L223.71,39.656 L223.778,39.656 C224.129335,39.3046649 224.503331,39.0015013 224.9,38.7465 C225.296669,38.4914987 225.772664,38.364 226.328,38.364 C226.92867,38.364 227.413165,38.4858321 227.7815,38.7295 C228.149835,38.9731679 228.441666,39.3216644 228.657,39.775 C229.031002,39.3896647 229.424831,39.0581681 229.8385,38.7805 C230.252169,38.5028319 230.742331,38.364 231.309,38.364 C232.215671,38.364 232.881498,38.6671636 233.3065,39.2735 C233.731502,39.8798364 233.944,40.7099947 233.944,41.764 L233.944,47 L231.445,47 L231.445,42.087 C231.445,41.4749969 231.362834,41.0556678 231.1985,40.829 C231.034166,40.6023322 230.770668,40.489 230.408,40.489 C229.988665,40.489 229.507003,40.7609973 228.963,41.305 L228.963,47 L226.464,47 L226.464,42.087 C226.464,41.4749969 226.381834,41.0556678 226.2175,40.829 C226.053166,40.6023322 225.789668,40.489 225.427,40.489 C224.996331,40.489 224.520336,40.7609973 223.999,41.305 L223.999,47 L221.5,47 Z M236.069,47 L236.069,38.568 L238.109,38.568 L238.279,39.656 L238.347,39.656 C238.698335,39.3046649 239.072331,39.0015013 239.469,38.7465 C239.865669,38.4914987 240.341664,38.364 240.897,38.364 C241.49767,38.364 241.982165,38.4858321 242.3505,38.7295 C242.718835,38.9731679 243.010666,39.3216644 243.226,39.775 C243.600002,39.3896647 243.993831,39.0581681 244.4075,38.7805 C244.821169,38.5028319 245.31133,38.364 245.878,38.364 C246.784671,38.364 247.450498,38.6671636 247.8755,39.2735 C248.300502,39.8798364 248.513,40.7099947 248.513,41.764 L248.513,47 L246.014,47 L246.014,42.087 C246.014,41.4749969 245.931834,41.0556678 245.7675,40.829 C245.603166,40.6023322 245.339668,40.489 244.977,40.489 C244.557665,40.489 244.076003,40.7609973 243.532,41.305 L243.532,47 L241.033,47 L241.033,42.087 C241.033,41.4749969 240.950834,41.0556678 240.7865,40.829 C240.622166,40.6023322 240.358668,40.489 239.996,40.489 C239.565331,40.489 239.089336,40.7609973 238.568,41.305 L238.568,47 L236.069,47 Z" id="925mm" fill="#093169" fill-rule="nonzero"></path>
                </g>
            </g>
            <g id="Group-2" transform="translate(532.000000, 67.000000)">
                <path d="M13.657,50 L13.657,47.977 L16.003,47.977 L16.003,41.738 L13.98,41.738 L13.98,40.191 C14.5693363,40.0776661 15.067998,39.9416675 15.476,39.783 C15.884002,39.6243325 16.2806647,39.4316678 16.666,39.205 L18.502,39.205 L18.502,47.977 L20.525,47.977 L20.525,50 L13.657,50 Z M24.146,50 C24.1913336,49.1046622 24.2734994,48.2801704 24.3925,47.5265 C24.5115006,46.7728296 24.6814989,46.0531701 24.9025,45.3675 C25.1235011,44.6818299 25.4068316,44.0103366 25.7525,43.353 C26.0981684,42.6956634 26.5259974,42.0156702 27.036,41.313 L22.191,41.313 L22.191,39.205 L29.705,39.205 L29.705,40.735 C29.0816635,41.4943371 28.5801686,42.2054967 28.2005,42.8685 C27.8208314,43.5315033 27.5261677,44.2171631 27.3165,44.9255 C27.1068323,45.6338369 26.9566671,46.3931626 26.866,47.2035 C26.7753329,48.0138374 26.7073336,48.9459947 26.662,50 L24.146,50 Z M34.618,50.204 C33.7339956,50.204 32.9860031,50.0595014 32.374,49.7705 C31.7619969,49.4814986 31.2406688,49.1216688 30.81,48.691 L31.932,47.11 C32.2606683,47.4046681 32.6148314,47.6568323 32.9945,47.8665 C33.3741686,48.0761677 33.796331,48.181 34.261,48.181 C34.8163361,48.181 35.2583317,48.0393348 35.587,47.756 C35.9156683,47.4726652 36.08,47.0533361 36.08,46.498 C36.08,45.9539973 35.9241682,45.5403347 35.6125,45.257 C35.3008318,44.9736652 34.8900025,44.832 34.38,44.832 C34.2213325,44.832 34.0796673,44.8404999 33.955,44.8575 C33.8303327,44.8745001 33.7085006,44.9056664 33.5895,44.951 C33.4704994,44.9963336 33.345834,45.0529997 33.2155,45.121 C33.085166,45.1890003 32.9406675,45.2739995 32.782,45.376 L31.66,44.662 L31.966,39.205 L38.086,39.205 L38.086,41.313 L34.125,41.313 L33.938,43.336 C34.142001,43.2453329 34.3374991,43.1801669 34.5245,43.1405 C34.7115009,43.1008331 34.9183322,43.081 35.145,43.081 C35.609669,43.081 36.0488313,43.1489993 36.4625,43.285 C36.8761687,43.4210007 37.2416651,43.6249986 37.559,43.897 C37.8763349,44.1690014 38.1256658,44.5146646 38.307,44.934 C38.4883342,45.3533354 38.579,45.8519971 38.579,46.43 C38.579,47.0306697 38.4713344,47.563331 38.256,48.028 C38.0406656,48.492669 37.7516685,48.8864984 37.389,49.2095 C37.0263315,49.5325016 36.6041691,49.7789992 36.1225,49.949 C35.6408309,50.1190008 35.1393359,50.204 34.618,50.204 Z M40.5,50 L40.5,41.568 L42.54,41.568 L42.71,42.656 L42.778,42.656 C43.1293351,42.3046649 43.5033314,42.0015013 43.9,41.7465 C44.2966687,41.4914987 44.7726639,41.364 45.328,41.364 C45.9286697,41.364 46.4131648,41.4858321 46.7815,41.7295 C47.1498352,41.9731679 47.4416656,42.3216644 47.657,42.775 C48.0310019,42.3896647 48.4248313,42.0581681 48.8385,41.7805 C49.2521687,41.5028319 49.7423305,41.364 50.309,41.364 C51.2156712,41.364 51.8814979,41.6671636 52.3065,42.2735 C52.7315021,42.8798364 52.944,43.7099947 52.944,44.764 L52.944,50 L50.445,50 L50.445,45.087 C50.445,44.4749969 50.3628342,44.0556678 50.1985,43.829 C50.0341658,43.6023322 49.7706685,43.489 49.408,43.489 C48.9886646,43.489 48.5070027,43.7609973 47.963,44.305 L47.963,50 L45.464,50 L45.464,45.087 C45.464,44.4749969 45.3818342,44.0556678 45.2175,43.829 C45.0531658,43.6023322 44.7896685,43.489 44.427,43.489 C43.9963312,43.489 43.5203359,43.7609973 42.999,44.305 L42.999,50 L40.5,50 Z M55.069,50 L55.069,41.568 L57.109,41.568 L57.279,42.656 L57.347,42.656 C57.6983351,42.3046649 58.0723314,42.0015013 58.469,41.7465 C58.8656687,41.4914987 59.3416639,41.364 59.897,41.364 C60.4976697,41.364 60.9821648,41.4858321 61.3505,41.7295 C61.7188352,41.9731679 62.0106656,42.3216644 62.226,42.775 C62.6000019,42.3896647 62.9938313,42.0581681 63.4075,41.7805 C63.8211687,41.5028319 64.3113305,41.364 64.878,41.364 C65.7846712,41.364 66.4504979,41.6671636 66.8755,42.2735 C67.3005021,42.8798364 67.513,43.7099947 67.513,44.764 L67.513,50 L65.014,50 L65.014,45.087 C65.014,44.4749969 64.9318342,44.0556678 64.7675,43.829 C64.6031658,43.6023322 64.3396685,43.489 63.977,43.489 C63.5576646,43.489 63.0760027,43.7609973 62.532,44.305 L62.532,50 L60.033,50 L60.033,45.087 C60.033,44.4749969 59.9508342,44.0556678 59.7865,43.829 C59.6221658,43.6023322 59.3586685,43.489 58.996,43.489 C58.5653312,43.489 58.0893359,43.7609973 57.568,44.305 L57.568,50 L55.069,50 Z" id="175mm" fill="#093169" fill-rule="nonzero" transform="translate(40.585000, 44.704500) rotate(-270.000000) translate(-40.585000, -44.704500) "></path>
                <polyline id="Rectangle-Copy-3" stroke="#CBD8F2" transform="translate(8.000000, 43.500000) rotate(-270.000000) translate(-8.000000, -43.500000) " points="-34.8566667 51 -35 36 51 36 51 51"></polyline>
            </g>
        </g>
    </g>
</svg>