<?xml version="1.0" encoding="UTF-8"?>
<svg width="706px" height="285px" viewBox="0 0 706 285" version="1.1" xmlns="http://www.w3.org/2000/svg" xmlns:xlink="http://www.w3.org/1999/xlink">
    <!-- Generator: Sketch 58 (84663) - https://sketch.com -->
    <title>pierCaps/PC315</title>
    <desc>Created with Sketch.</desc>
    <g id="pierCaps/PC315" stroke="none" stroke-width="1" fill="none" fill-rule="evenodd">
        <rect fill="#F5F9FF" x="0" y="0" width="706" height="285"></rect>
        <g id="Group-2" transform="translate(227.000000, 102.000000)">
            <g id="Group" transform="translate(45.000000, 46.000000)" fill="#FFFFFF" stroke="#FF5959" stroke-opacity="0.6">
                <rect id="Rectangle" x="0" y="0" width="105" height="32"></rect>
                <rect id="Rectangle-Copy" x="110" y="0" width="52" height="32"></rect>
            </g>
            <polyline id="Rectangle" stroke="#CBD8F2" fill="#FFFFFF" points="219 34 219 39.5 33 39.5 33 34"></polyline>
            <polyline id="Rectangle-Copy-2" stroke="#CBD8F2" fill="#FFFFFF" points="226 28 226 33.5 26 33.5 26 28"></polyline>
            <path d="M242,13 C242,21.2842712 235.284271,28 227,28 L25,28 C16.7157288,28 10,21.2842712 10,13 C10,13 87.3333333,13 242,13 Z" id="Rectangle-Copy-3" stroke="#CBD8F2" fill="#FFFFFF"></path>
            <polygon id="Rectangle-Copy-4" stroke="#CBD8F2" fill="#FFFFFF" points="252 4.61852778e-14 252 13 0 13 0 4.61852778e-14"></polygon>
            <polyline id="Rectangle-Copy-2" stroke="#CBD8F2" transform="translate(126.000000, 103.500000) rotate(-180.000000) translate(-126.000000, -103.500000) " points="33.31 111 33 96 219 96 219 111"></polyline>
            <path d="M102.598,143.204 C101.713996,143.204 100.966003,143.065168 100.354,142.7875 C99.7419969,142.509832 99.2376687,142.138669 98.841,141.674 L99.997,140.093 C100.325668,140.410335 100.685498,140.670999 101.0765,140.875 C101.467502,141.079001 101.895331,141.181 102.36,141.181 C102.892669,141.181 103.317665,141.070501 103.635,140.8495 C103.952335,140.628499 104.111,140.314002 104.111,139.906 C104.111,139.667999 104.0685,139.452668 103.9835,139.26 C103.8985,139.067332 103.748334,138.905834 103.533,138.7755 C103.317666,138.645166 103.023002,138.543167 102.649,138.4695 C102.274998,138.395833 101.793336,138.359 101.204,138.359 L101.204,136.591 C101.691336,136.591 102.096498,136.557 102.4195,136.489 C102.742502,136.421 103.003166,136.321834 103.2015,136.1915 C103.399834,136.061166 103.5415,135.908168 103.6265,135.7325 C103.7115,135.556832 103.754,135.361334 103.754,135.146 C103.754,134.771998 103.640668,134.480168 103.414,134.2705 C103.187332,134.060832 102.858669,133.956 102.428,133.956 C102.042665,133.956 101.694168,134.040999 101.3825,134.211 C101.070832,134.381001 100.745002,134.613332 100.405,134.908 L99.147,133.378 C99.6456692,132.947331 100.169831,132.610168 100.7195,132.3665 C101.269169,132.122832 101.87833,132.001 102.547,132.001 C103.102336,132.001 103.609498,132.066166 104.0685,132.1965 C104.527502,132.326834 104.918498,132.519499 105.2415,132.7745 C105.564502,133.029501 105.816666,133.338332 105.998,133.701 C106.179334,134.063668 106.27,134.482998 106.27,134.959 C106.27,135.525669 106.114168,136.004498 105.8025,136.3955 C105.490832,136.786502 105.046003,137.106665 104.468,137.356 L104.468,137.424 C105.091336,137.605334 105.604165,137.914164 106.0065,138.3505 C106.408835,138.786836 106.61,139.35633 106.61,140.059 C106.61,140.557669 106.502334,141.002498 106.287,141.3935 C106.071666,141.784502 105.782668,142.113165 105.42,142.3795 C105.057332,142.645835 104.632336,142.849833 104.145,142.9915 C103.657664,143.133167 103.142003,143.204 102.598,143.204 Z M110.146,143 C110.191334,142.104662 110.273499,141.28017 110.3925,140.5265 C110.511501,139.77283 110.681499,139.05317 110.9025,138.3675 C111.123501,137.68183 111.406832,137.010337 111.7525,136.353 C112.098168,135.695663 112.525997,135.01567 113.036,134.313 L108.191,134.313 L108.191,132.205 L115.705,132.205 L115.705,133.735 C115.081664,134.494337 114.580169,135.205497 114.2005,135.8685 C113.820831,136.531503 113.526168,137.217163 113.3165,137.9255 C113.106832,138.633837 112.956667,139.393163 112.866,140.2035 C112.775333,141.013837 112.707334,141.945995 112.662,143 L110.146,143 Z M120.89,143.204 C120.345997,143.204 119.844502,143.133167 119.3855,142.9915 C118.926498,142.849833 118.529835,142.648668 118.1955,142.388 C117.861165,142.127332 117.600501,141.815668 117.4135,141.453 C117.226499,141.090332 117.133,140.688002 117.133,140.246 C117.133,139.588663 117.311498,139.050335 117.6685,138.631 C118.025502,138.211665 118.458997,137.866001 118.969,137.594 L118.969,137.526 C118.549665,137.208665 118.204001,136.848835 117.932,136.4465 C117.659999,136.044165 117.524,135.554003 117.524,134.976 C117.524,134.522664 117.608999,134.111835 117.779,133.7435 C117.949001,133.375165 118.186998,133.060668 118.493,132.8 C118.799002,132.539332 119.164498,132.341001 119.5895,132.205 C120.014502,132.068999 120.476331,132.001 120.975,132.001 C121.462336,132.001 121.909998,132.071833 122.318,132.2135 C122.726002,132.355167 123.071665,132.553499 123.355,132.8085 C123.638335,133.063501 123.859333,133.375165 124.018,133.7435 C124.176667,134.111835 124.256,134.516998 124.256,134.959 C124.256,135.480336 124.114335,135.942165 123.831,136.3445 C123.547665,136.746835 123.219002,137.072665 122.845,137.322 L122.845,137.39 C123.366336,137.673335 123.808332,138.035998 124.171,138.478 C124.533668,138.920002 124.715,139.497996 124.715,140.212 C124.715,140.642669 124.624334,141.039332 124.443,141.402 C124.261666,141.764668 124.003835,142.079165 123.6695,142.3455 C123.335165,142.611835 122.932836,142.821499 122.4625,142.9745 C121.992164,143.127501 121.468003,143.204 120.89,143.204 Z M121.57,136.71 C122.012002,136.199997 122.233,135.673003 122.233,135.129 C122.233,134.709665 122.116834,134.372501 121.8845,134.1175 C121.652166,133.862499 121.332002,133.735 120.924,133.735 C120.595332,133.735 120.312001,133.836999 120.074,134.041 C119.835999,134.245001 119.717,134.556665 119.717,134.976 C119.717,135.418002 119.886998,135.763665 120.227,136.013 C120.567002,136.262335 121.014664,136.494666 121.57,136.71 Z M120.941,141.47 C121.360335,141.47 121.705999,141.359501 121.978,141.1385 C122.250001,140.917499 122.386,140.580336 122.386,140.127 C122.386,139.888999 122.332167,139.685001 122.2245,139.515 C122.116833,139.344999 121.961001,139.189167 121.757,139.0475 C121.552999,138.905833 121.312168,138.772667 121.0345,138.648 L120.357157,138.348375 C120.276053,138.312959 120.193,138.276834 120.108,138.24 C119.869999,138.466668 119.671667,138.727332 119.513,139.022 C119.354333,139.316668 119.275,139.628332 119.275,139.957 C119.275,140.433002 119.439332,140.804165 119.768,141.0705 C120.096668,141.336835 120.487664,141.47 120.941,141.47 Z M126.5,143 L126.5,134.568 L128.54,134.568 L128.71,135.656 L128.778,135.656 C129.129335,135.304665 129.503331,135.001501 129.9,134.7465 C130.296669,134.491499 130.772664,134.364 131.328,134.364 C131.92867,134.364 132.413165,134.485832 132.7815,134.7295 C133.149835,134.973168 133.441666,135.321664 133.657,135.775 C134.031002,135.389665 134.424831,135.058168 134.8385,134.7805 C135.252169,134.502832 135.742331,134.364 136.309,134.364 C137.215671,134.364 137.881498,134.667164 138.3065,135.2735 C138.731502,135.879836 138.944,136.709995 138.944,137.764 L138.944,143 L136.445,143 L136.445,138.087 C136.445,137.474997 136.362834,137.055668 136.1985,136.829 C136.034166,136.602332 135.770668,136.489 135.408,136.489 C134.988665,136.489 134.507003,136.760997 133.963,137.305 L133.963,143 L131.464,143 L131.464,138.087 C131.464,137.474997 131.381834,137.055668 131.2175,136.829 C131.053166,136.602332 130.789668,136.489 130.427,136.489 C129.996331,136.489 129.520336,136.760997 128.999,137.305 L128.999,143 L126.5,143 Z M141.069,143 L141.069,134.568 L143.109,134.568 L143.279,135.656 L143.347,135.656 C143.698335,135.304665 144.072331,135.001501 144.469,134.7465 C144.865669,134.491499 145.341664,134.364 145.897,134.364 C146.49767,134.364 146.982165,134.485832 147.3505,134.7295 C147.718835,134.973168 148.010666,135.321664 148.226,135.775 C148.600002,135.389665 148.993831,135.058168 149.4075,134.7805 C149.821169,134.502832 150.31133,134.364 150.878,134.364 C151.784671,134.364 152.450498,134.667164 152.8755,135.2735 C153.300502,135.879836 153.513,136.709995 153.513,137.764 L153.513,143 L151.014,143 L151.014,138.087 C151.014,137.474997 150.931834,137.055668 150.7675,136.829 C150.603166,136.602332 150.339668,136.489 149.977,136.489 C149.557665,136.489 149.076003,136.760997 148.532,137.305 L148.532,143 L146.033,143 L146.033,138.087 C146.033,137.474997 145.950834,137.055668 145.7865,136.829 C145.622166,136.602332 145.358668,136.489 144.996,136.489 C144.565331,136.489 144.089336,136.760997 143.568,137.305 L143.568,143 L141.069,143 Z" id="378mm" fill="#093169" fill-rule="nonzero"></path>
        </g>
        <polyline id="Rectangle-Copy" stroke="#CBD8F2" points="227.42 87 227 72 479 72 479 87"></polyline>
        <path d="M329.666,52.204 C328.781996,52.204 328.034003,52.0595014 327.422,51.7705 C326.809997,51.4814986 326.288669,51.1216688 325.858,50.691 L326.98,49.11 C327.308668,49.4046681 327.662831,49.6568323 328.0425,49.8665 C328.422169,50.0761677 328.844331,50.181 329.309,50.181 C329.864336,50.181 330.306332,50.0393348 330.635,49.756 C330.963668,49.4726652 331.128,49.0533361 331.128,48.498 C331.128,47.9539973 330.972168,47.5403347 330.6605,47.257 C330.348832,46.9736652 329.938003,46.832 329.428,46.832 C329.269333,46.832 329.127667,46.8404999 329.003,46.8575 C328.878333,46.8745001 328.756501,46.9056664 328.6375,46.951 C328.518499,46.9963336 328.393834,47.0529997 328.2635,47.121 C328.133166,47.1890003 327.988667,47.2739995 327.83,47.376 L326.708,46.662 L327.014,41.205 L333.134,41.205 L333.134,43.313 L329.173,43.313 L328.986,45.336 C329.190001,45.2453329 329.385499,45.1801669 329.5725,45.1405 C329.759501,45.1008331 329.966332,45.081 330.193,45.081 C330.657669,45.081 331.096831,45.1489993 331.5105,45.285 C331.924169,45.4210007 332.289665,45.6249986 332.607,45.897 C332.924335,46.1690014 333.173666,46.5146646 333.355,46.934 C333.536334,47.3533354 333.627,47.8519971 333.627,48.43 C333.627,49.0306697 333.519334,49.563331 333.304,50.028 C333.088666,50.492669 332.799668,50.8864984 332.437,51.2095 C332.074332,51.5325016 331.652169,51.7789992 331.1705,51.949 C330.688831,52.1190008 330.187336,52.204 329.666,52.204 Z M335.633,52 L335.633,49.977 L337.979,49.977 L337.979,43.738 L335.956,43.738 L335.956,42.191 C336.545336,42.0776661 337.043998,41.9416675 337.452,41.783 C337.860002,41.6243325 338.256665,41.4316678 338.642,41.205 L340.478,41.205 L340.478,49.977 L342.501,49.977 L342.501,52 L335.633,52 Z M344.609,52 L344.609,49.977 L346.955,49.977 L346.955,43.738 L344.932,43.738 L344.932,42.191 C345.521336,42.0776661 346.019998,41.9416675 346.428,41.783 C346.836002,41.6243325 347.232665,41.4316678 347.618,41.205 L349.454,41.205 L349.454,49.977 L351.477,49.977 L351.477,52 L344.609,52 Z M353.5,52 L353.5,43.568 L355.54,43.568 L355.71,44.656 L355.778,44.656 C356.129335,44.3046649 356.503331,44.0015013 356.9,43.7465 C357.296669,43.4914987 357.772664,43.364 358.328,43.364 C358.92867,43.364 359.413165,43.4858321 359.7815,43.7295 C360.149835,43.9731679 360.441666,44.3216644 360.657,44.775 C361.031002,44.3896647 361.424831,44.0581681 361.8385,43.7805 C362.252169,43.5028319 362.74233,43.364 363.309,43.364 C364.215671,43.364 364.881498,43.6671636 365.3065,44.2735 C365.731502,44.8798364 365.944,45.7099947 365.944,46.764 L365.944,52 L363.445,52 L363.445,47.087 C363.445,46.4749969 363.362834,46.0556678 363.1985,45.829 C363.034166,45.6023322 362.770668,45.489 362.408,45.489 C361.988665,45.489 361.507003,45.7609973 360.963,46.305 L360.963,52 L358.464,52 L358.464,47.087 C358.464,46.4749969 358.381834,46.0556678 358.2175,45.829 C358.053166,45.6023322 357.789668,45.489 357.427,45.489 C356.996331,45.489 356.520336,45.7609973 355.999,46.305 L355.999,52 L353.5,52 Z M368.069,52 L368.069,43.568 L370.109,43.568 L370.279,44.656 L370.347,44.656 C370.698335,44.3046649 371.072331,44.0015013 371.469,43.7465 C371.865669,43.4914987 372.341664,43.364 372.897,43.364 C373.49767,43.364 373.982165,43.4858321 374.3505,43.7295 C374.718835,43.9731679 375.010666,44.3216644 375.226,44.775 C375.600002,44.3896647 375.993831,44.0581681 376.4075,43.7805 C376.821169,43.5028319 377.31133,43.364 377.878,43.364 C378.784671,43.364 379.450498,43.6671636 379.8755,44.2735 C380.300502,44.8798364 380.513,45.7099947 380.513,46.764 L380.513,52 L378.014,52 L378.014,47.087 C378.014,46.4749969 377.931834,46.0556678 377.7675,45.829 C377.603166,45.6023322 377.339668,45.489 376.977,45.489 C376.557665,45.489 376.076003,45.7609973 375.532,46.305 L375.532,52 L373.033,52 L373.033,47.087 C373.033,46.4749969 372.950834,46.0556678 372.7865,45.829 C372.622166,45.6023322 372.358668,45.489 371.996,45.489 C371.565331,45.489 371.089336,45.7609973 370.568,46.305 L370.568,52 L368.069,52 Z" id="511mm" fill="#093169" fill-rule="nonzero"></path>
        <path d="M516.926,128.204 C516.381997,128.204 515.880502,128.133167 515.4215,127.9915 C514.962498,127.849833 514.565835,127.648668 514.2315,127.388 C513.897165,127.127332 513.636501,126.815668 513.4495,126.453 C513.262499,126.090332 513.169,125.688002 513.169,125.246 C513.169,124.588663 513.347498,124.050335 513.7045,123.631 C514.061502,123.211665 514.494997,122.866001 515.005,122.594 L515.005,122.526 C514.585665,122.208665 514.240001,121.848835 513.968,121.4465 C513.695999,121.044165 513.56,120.554003 513.56,119.976 C513.56,119.522664 513.644999,119.111835 513.815,118.7435 C513.985001,118.375165 514.222998,118.060668 514.529,117.8 C514.835002,117.539332 515.200498,117.341001 515.6255,117.205 C516.050502,117.068999 516.512331,117.001 517.011,117.001 C517.498336,117.001 517.945998,117.071833 518.354,117.2135 C518.762002,117.355167 519.107665,117.553499 519.391,117.8085 C519.674335,118.063501 519.895333,118.375165 520.054,118.7435 C520.212667,119.111835 520.292,119.516998 520.292,119.959 C520.292,120.480336 520.150335,120.942165 519.867,121.3445 C519.583665,121.746835 519.255002,122.072665 518.881,122.322 L518.881,122.39 C519.402336,122.673335 519.844332,123.035998 520.207,123.478 C520.569668,123.920002 520.751,124.497996 520.751,125.212 C520.751,125.642669 520.660334,126.039332 520.479,126.402 C520.297666,126.764668 520.039835,127.079165 519.7055,127.3455 C519.371165,127.611835 518.968836,127.821499 518.4985,127.9745 C518.028164,128.127501 517.504003,128.204 516.926,128.204 Z M517.606,121.71 C518.048002,121.199997 518.269,120.673003 518.269,120.129 C518.269,119.709665 518.152834,119.372501 517.9205,119.1175 C517.688166,118.862499 517.368002,118.735 516.96,118.735 C516.631332,118.735 516.348001,118.836999 516.11,119.041 C515.871999,119.245001 515.753,119.556665 515.753,119.976 C515.753,120.418002 515.922998,120.763665 516.263,121.013 C516.603002,121.262335 517.050664,121.494666 517.606,121.71 Z M516.977,126.47 C517.396335,126.47 517.741999,126.359501 518.014,126.1385 C518.286001,125.917499 518.422,125.580336 518.422,125.127 C518.422,124.888999 518.368167,124.685001 518.2605,124.515 C518.152833,124.344999 517.997001,124.189167 517.793,124.0475 C517.588999,123.905833 517.348168,123.772667 517.0705,123.648 L516.393157,123.348375 C516.312053,123.312959 516.229,123.276834 516.144,123.24 C515.905999,123.466668 515.707667,123.727332 515.549,124.022 C515.390333,124.316668 515.311,124.628332 515.311,124.957 C515.311,125.433002 515.475332,125.804165 515.804,126.0705 C516.132668,126.336835 516.523664,126.47 516.977,126.47 Z M525.919,128.204 C525.340997,128.204 524.814002,128.082168 524.338,127.8385 C523.861998,127.594832 523.456835,127.235002 523.1225,126.759 C522.788165,126.282998 522.527501,125.69367 522.3405,124.991 C522.153499,124.28833 522.06,123.478005 522.06,122.56 C522.06,121.641995 522.153499,120.837337 522.3405,120.146 C522.527501,119.454663 522.788165,118.873836 523.1225,118.4035 C523.456835,117.933164 523.861998,117.581834 524.338,117.3495 C524.814002,117.117166 525.340997,117.001 525.919,117.001 C526.497003,117.001 527.023998,117.117166 527.5,117.3495 C527.976002,117.581834 528.381165,117.933164 528.7155,118.4035 C529.049835,118.873836 529.310499,119.454663 529.4975,120.146 C529.684501,120.837337 529.778,121.641995 529.778,122.56 C529.778,123.478005 529.684501,124.28833 529.4975,124.991 C529.310499,125.69367 529.049835,126.282998 528.7155,126.759 C528.381165,127.235002 527.976002,127.594832 527.5,127.8385 C527.023998,128.082168 526.497003,128.204 525.919,128.204 Z M525.919,126.266 C526.134334,126.266 526.332666,126.212167 526.514,126.1045 C526.695334,125.996833 526.853999,125.801335 526.99,125.518 C527.126001,125.234665 527.230833,124.855002 527.3045,124.379 C527.378167,123.902998 527.415,123.29667 527.415,122.56 C527.415,121.82333 527.378167,121.219836 527.3045,120.7495 C527.230833,120.279164 527.126001,119.910835 526.99,119.6445 C526.853999,119.378165 526.695334,119.194001 526.514,119.092 C526.332666,118.989999 526.134334,118.939 525.919,118.939 C525.714999,118.939 525.522334,118.989999 525.341,119.092 C525.159666,119.194001 525.001001,119.378165 524.865,119.6445 C524.728999,119.910835 524.621334,120.279164 524.542,120.7495 C524.462666,121.219836 524.423,121.82333 524.423,122.56 C524.423,123.29667 524.462666,123.902998 524.542,124.379 C524.621334,124.855002 524.728999,125.234665 524.865,125.518 C525.001001,125.801335 525.159666,125.996833 525.341,126.1045 C525.522334,126.212167 525.714999,126.266 525.919,126.266 Z M531.512,128 L531.512,119.568 L533.552,119.568 L533.722,120.656 L533.79,120.656 C534.141335,120.304665 534.515331,120.001501 534.912,119.7465 C535.308669,119.491499 535.784664,119.364 536.34,119.364 C536.94067,119.364 537.425165,119.485832 537.7935,119.7295 C538.161835,119.973168 538.453666,120.321664 538.669,120.775 C539.043002,120.389665 539.436831,120.058168 539.8505,119.7805 C540.264169,119.502832 540.754331,119.364 541.321,119.364 C542.227671,119.364 542.893498,119.667164 543.3185,120.2735 C543.743502,120.879836 543.956,121.709995 543.956,122.764 L543.956,128 L541.457,128 L541.457,123.087 C541.457,122.474997 541.374834,122.055668 541.2105,121.829 C541.046166,121.602332 540.782668,121.489 540.42,121.489 C540.000665,121.489 539.519003,121.760997 538.975,122.305 L538.975,128 L536.476,128 L536.476,123.087 C536.476,122.474997 536.393834,122.055668 536.2295,121.829 C536.065166,121.602332 535.801668,121.489 535.439,121.489 C535.008331,121.489 534.532336,121.760997 534.011,122.305 L534.011,128 L531.512,128 Z M546.081,128 L546.081,119.568 L548.121,119.568 L548.291,120.656 L548.359,120.656 C548.710335,120.304665 549.084331,120.001501 549.481,119.7465 C549.877669,119.491499 550.353664,119.364 550.909,119.364 C551.50967,119.364 551.994165,119.485832 552.3625,119.7295 C552.730835,119.973168 553.022666,120.321664 553.238,120.775 C553.612002,120.389665 554.005831,120.058168 554.4195,119.7805 C554.833169,119.502832 555.32333,119.364 555.89,119.364 C556.796671,119.364 557.462498,119.667164 557.8875,120.2735 C558.312502,120.879836 558.525,121.709995 558.525,122.764 L558.525,128 L556.026,128 L556.026,123.087 C556.026,122.474997 555.943834,122.055668 555.7795,121.829 C555.615166,121.602332 555.351668,121.489 554.989,121.489 C554.569665,121.489 554.088003,121.760997 553.544,122.305 L553.544,128 L551.045,128 L551.045,123.087 C551.045,122.474997 550.962834,122.055668 550.7985,121.829 C550.634166,121.602332 550.370668,121.489 550.008,121.489 C549.577331,121.489 549.101336,121.760997 548.58,122.305 L548.58,128 L546.081,128 Z" id="80mm" fill="#093169" fill-rule="nonzero" transform="translate(535.847000, 122.602500) rotate(-270.000000) translate(-535.847000, -122.602500) "></path>
        <polyline id="Rectangle-Copy-3" stroke="#CBD8F2" transform="translate(502.500000, 121.500000) rotate(-270.000000) translate(-502.500000, -121.500000) " points="483.065 129 483 114 522 114 522 129"></polyline>
    </g>
</svg>