<?xml version="1.0" encoding="UTF-8"?>
<svg width="706px" height="295px" viewBox="0 0 706 295" version="1.1" xmlns="http://www.w3.org/2000/svg" xmlns:xlink="http://www.w3.org/1999/xlink">
    <!-- Generator: Sketch 58 (84663) - https://sketch.com -->
    <title>pierCaps/PC310</title>
    <desc>Created with Sketch.</desc>
    <g id="pierCaps/PC310" stroke="none" stroke-width="1" fill="none" fill-rule="evenodd">
        <rect fill="#F5F9FF" x="0" y="0" width="706" height="295"></rect>
        <g id="Group-2" transform="translate(227.000000, 35.000000)">
            <g id="Group" transform="translate(45.000000, 123.000000)" fill="#FFFFFF" stroke="#FF5959" stroke-opacity="0.6">
                <rect id="Rectangle" x="0" y="0" width="105" height="32"></rect>
                <rect id="Rectangle-Copy" x="110" y="0" width="52" height="32"></rect>
            </g>
            <polyline id="Rectangle" stroke="#CBD8F2" fill="#FFFFFF" points="219 111 219 116.5 33 116.5 33 111"></polyline>
            <polyline id="Rectangle-Copy-2" stroke="#CBD8F2" fill="#FFFFFF" points="226 105 226 110.5 26 110.5 26 105"></polyline>
            <path d="M242,90 C242,98.2842712 235.284271,105 227,105 L25,105 C16.7157288,105 10,98.2842712 10,90 C10,90 87.3333333,90 242,90 Z" id="Rectangle-Copy-3" stroke="#CBD8F2" fill="#FFFFFF"></path>
            <polygon id="Rectangle-Copy-4" stroke="#CBD8F2" fill="#FFFFFF" points="252 77 252 90 0 90 0 77"></polygon>
            <polygon id="Path" stroke="#CBD8F2" fill="#FFFFFF" points="0 77 126 67 252 77"></polygon>
            <polyline id="Rectangle-Copy" stroke="#CBD8F2" points="0.42 52 0 37 252 37 252 52"></polyline>
            <path d="M102.166,17.204 C101.281996,17.204 100.534003,17.0595014 99.922,16.7705 C99.3099969,16.4814986 98.7886688,16.1216688 98.358,15.691 L99.48,14.11 C99.8086683,14.4046681 100.162831,14.6568323 100.5425,14.8665 C100.922169,15.0761677 101.344331,15.181 101.809,15.181 C102.364336,15.181 102.806332,15.0393348 103.135,14.756 C103.463668,14.4726652 103.628,14.0533361 103.628,13.498 C103.628,12.9539973 103.472168,12.5403347 103.1605,12.257 C102.848832,11.9736652 102.438003,11.832 101.928,11.832 C101.769333,11.832 101.627667,11.8404999 101.503,11.8575 C101.378333,11.8745001 101.256501,11.9056664 101.1375,11.951 C101.018499,11.9963336 100.893834,12.0529997 100.7635,12.121 C100.633166,12.1890003 100.488667,12.2739995 100.33,12.376 L99.208,11.662 L99.514,6.205 L105.634,6.205 L105.634,8.313 L101.673,8.313 L101.486,10.336 C101.690001,10.2453329 101.885499,10.1801669 102.0725,10.1405 C102.259501,10.1008331 102.466332,10.081 102.693,10.081 C103.157669,10.081 103.596831,10.1489993 104.0105,10.285 C104.424169,10.4210007 104.789665,10.6249986 105.107,10.897 C105.424335,11.1690014 105.673666,11.5146646 105.855,11.934 C106.036334,12.3533354 106.127,12.8519971 106.127,13.43 C106.127,14.0306697 106.019334,14.563331 105.804,15.028 C105.588666,15.492669 105.299668,15.8864984 104.937,16.2095 C104.574332,16.5325016 104.152169,16.7789992 103.6705,16.949 C103.188831,17.1190008 102.687336,17.204 102.166,17.204 Z M108.133,17 L108.133,14.977 L110.479,14.977 L110.479,8.738 L108.456,8.738 L108.456,7.191 C109.045336,7.0776661 109.543998,6.94166746 109.952,6.783 C110.360002,6.62433254 110.756665,6.4316678 111.142,6.205 L112.978,6.205 L112.978,14.977 L115.001,14.977 L115.001,17 L108.133,17 Z M117.109,17 L117.109,14.977 L119.455,14.977 L119.455,8.738 L117.432,8.738 L117.432,7.191 C118.021336,7.0776661 118.519998,6.94166746 118.928,6.783 C119.336002,6.62433254 119.732665,6.4316678 120.118,6.205 L121.954,6.205 L121.954,14.977 L123.977,14.977 L123.977,17 L117.109,17 Z M126,17 L126,8.568 L128.04,8.568 L128.21,9.656 L128.278,9.656 C128.629335,9.30466491 129.003331,9.00150127 129.4,8.7465 C129.796669,8.49149872 130.272664,8.364 130.828,8.364 C131.42867,8.364 131.913165,8.48583211 132.2815,8.7295 C132.649835,8.97316788 132.941666,9.3216644 133.157,9.775 C133.531002,9.38966474 133.924831,9.05816805 134.3385,8.7805 C134.752169,8.50283194 135.242331,8.364 135.809,8.364 C136.715671,8.364 137.381498,8.66716363 137.8065,9.2735 C138.231502,9.87983636 138.444,10.7099947 138.444,11.764 L138.444,17 L135.945,17 L135.945,12.087 C135.945,11.4749969 135.862834,11.0556678 135.6985,10.829 C135.534166,10.6023322 135.270668,10.489 134.908,10.489 C134.488665,10.489 134.007003,10.7609973 133.463,11.305 L133.463,17 L130.964,17 L130.964,12.087 C130.964,11.4749969 130.881834,11.0556678 130.7175,10.829 C130.553166,10.6023322 130.289668,10.489 129.927,10.489 C129.496331,10.489 129.020336,10.7609973 128.499,11.305 L128.499,17 L126,17 Z M140.569,17 L140.569,8.568 L142.609,8.568 L142.779,9.656 L142.847,9.656 C143.198335,9.30466491 143.572331,9.00150127 143.969,8.7465 C144.365669,8.49149872 144.841664,8.364 145.397,8.364 C145.99767,8.364 146.482165,8.48583211 146.8505,8.7295 C147.218835,8.97316788 147.510666,9.3216644 147.726,9.775 C148.100002,9.38966474 148.493831,9.05816805 148.9075,8.7805 C149.321169,8.50283194 149.81133,8.364 150.378,8.364 C151.284671,8.364 151.950498,8.66716363 152.3755,9.2735 C152.800502,9.87983636 153.013,10.7099947 153.013,11.764 L153.013,17 L150.514,17 L150.514,12.087 C150.514,11.4749969 150.431834,11.0556678 150.2675,10.829 C150.103166,10.6023322 149.839668,10.489 149.477,10.489 C149.057665,10.489 148.576003,10.7609973 148.032,11.305 L148.032,17 L145.533,17 L145.533,12.087 C145.533,11.4749969 145.450834,11.0556678 145.2865,10.829 C145.122166,10.6023322 144.858668,10.489 144.496,10.489 C144.065331,10.489 143.589336,10.7609973 143.068,11.305 L143.068,17 L140.569,17 Z" id="511mm" fill="#093169" fill-rule="nonzero"></path>
            <polyline id="Rectangle-Copy-2" stroke="#CBD8F2" transform="translate(126.000000, 180.500000) rotate(-180.000000) translate(-126.000000, -180.500000) " points="33.31 188 33 173 219 173 219 188"></polyline>
            <path d="M102.598,220.204 C101.713996,220.204 100.966003,220.065168 100.354,219.7875 C99.7419969,219.509832 99.2376687,219.138669 98.841,218.674 L99.997,217.093 C100.325668,217.410335 100.685498,217.670999 101.0765,217.875 C101.467502,218.079001 101.895331,218.181 102.36,218.181 C102.892669,218.181 103.317665,218.070501 103.635,217.8495 C103.952335,217.628499 104.111,217.314002 104.111,216.906 C104.111,216.667999 104.0685,216.452668 103.9835,216.26 C103.8985,216.067332 103.748334,215.905834 103.533,215.7755 C103.317666,215.645166 103.023002,215.543167 102.649,215.4695 C102.274998,215.395833 101.793336,215.359 101.204,215.359 L101.204,213.591 C101.691336,213.591 102.096498,213.557 102.4195,213.489 C102.742502,213.421 103.003166,213.321834 103.2015,213.1915 C103.399834,213.061166 103.5415,212.908168 103.6265,212.7325 C103.7115,212.556832 103.754,212.361334 103.754,212.146 C103.754,211.771998 103.640668,211.480168 103.414,211.2705 C103.187332,211.060832 102.858669,210.956 102.428,210.956 C102.042665,210.956 101.694168,211.040999 101.3825,211.211 C101.070832,211.381001 100.745002,211.613332 100.405,211.908 L99.147,210.378 C99.6456692,209.947331 100.169831,209.610168 100.7195,209.3665 C101.269169,209.122832 101.87833,209.001 102.547,209.001 C103.102336,209.001 103.609498,209.066166 104.0685,209.1965 C104.527502,209.326834 104.918498,209.519499 105.2415,209.7745 C105.564502,210.029501 105.816666,210.338332 105.998,210.701 C106.179334,211.063668 106.27,211.482998 106.27,211.959 C106.27,212.525669 106.114168,213.004498 105.8025,213.3955 C105.490832,213.786502 105.046003,214.106665 104.468,214.356 L104.468,214.424 C105.091336,214.605334 105.604165,214.914164 106.0065,215.3505 C106.408835,215.786836 106.61,216.35633 106.61,217.059 C106.61,217.557669 106.502334,218.002498 106.287,218.3935 C106.071666,218.784502 105.782668,219.113165 105.42,219.3795 C105.057332,219.645835 104.632336,219.849833 104.145,219.9915 C103.657664,220.133167 103.142003,220.204 102.598,220.204 Z M110.146,220 C110.191334,219.104662 110.273499,218.28017 110.3925,217.5265 C110.511501,216.77283 110.681499,216.05317 110.9025,215.3675 C111.123501,214.68183 111.406832,214.010337 111.7525,213.353 C112.098168,212.695663 112.525997,212.01567 113.036,211.313 L108.191,211.313 L108.191,209.205 L115.705,209.205 L115.705,210.735 C115.081664,211.494337 114.580169,212.205497 114.2005,212.8685 C113.820831,213.531503 113.526168,214.217163 113.3165,214.9255 C113.106832,215.633837 112.956667,216.393163 112.866,217.2035 C112.775333,218.013837 112.707334,218.945995 112.662,220 L110.146,220 Z M120.89,220.204 C120.345997,220.204 119.844502,220.133167 119.3855,219.9915 C118.926498,219.849833 118.529835,219.648668 118.1955,219.388 C117.861165,219.127332 117.600501,218.815668 117.4135,218.453 C117.226499,218.090332 117.133,217.688002 117.133,217.246 C117.133,216.588663 117.311498,216.050335 117.6685,215.631 C118.025502,215.211665 118.458997,214.866001 118.969,214.594 L118.969,214.526 C118.549665,214.208665 118.204001,213.848835 117.932,213.4465 C117.659999,213.044165 117.524,212.554003 117.524,211.976 C117.524,211.522664 117.608999,211.111835 117.779,210.7435 C117.949001,210.375165 118.186998,210.060668 118.493,209.8 C118.799002,209.539332 119.164498,209.341001 119.5895,209.205 C120.014502,209.068999 120.476331,209.001 120.975,209.001 C121.462336,209.001 121.909998,209.071833 122.318,209.2135 C122.726002,209.355167 123.071665,209.553499 123.355,209.8085 C123.638335,210.063501 123.859333,210.375165 124.018,210.7435 C124.176667,211.111835 124.256,211.516998 124.256,211.959 C124.256,212.480336 124.114335,212.942165 123.831,213.3445 C123.547665,213.746835 123.219002,214.072665 122.845,214.322 L122.845,214.39 C123.366336,214.673335 123.808332,215.035998 124.171,215.478 C124.533668,215.920002 124.715,216.497996 124.715,217.212 C124.715,217.642669 124.624334,218.039332 124.443,218.402 C124.261666,218.764668 124.003835,219.079165 123.6695,219.3455 C123.335165,219.611835 122.932836,219.821499 122.4625,219.9745 C121.992164,220.127501 121.468003,220.204 120.89,220.204 Z M121.57,213.71 C122.012002,213.199997 122.233,212.673003 122.233,212.129 C122.233,211.709665 122.116834,211.372501 121.8845,211.1175 C121.652166,210.862499 121.332002,210.735 120.924,210.735 C120.595332,210.735 120.312001,210.836999 120.074,211.041 C119.835999,211.245001 119.717,211.556665 119.717,211.976 C119.717,212.418002 119.886998,212.763665 120.227,213.013 C120.567002,213.262335 121.014664,213.494666 121.57,213.71 Z M120.941,218.47 C121.360335,218.47 121.705999,218.359501 121.978,218.1385 C122.250001,217.917499 122.386,217.580336 122.386,217.127 C122.386,216.888999 122.332167,216.685001 122.2245,216.515 C122.116833,216.344999 121.961001,216.189167 121.757,216.0475 C121.552999,215.905833 121.312168,215.772667 121.0345,215.648 L120.357157,215.348375 C120.276053,215.312959 120.193,215.276834 120.108,215.24 C119.869999,215.466668 119.671667,215.727332 119.513,216.022 C119.354333,216.316668 119.275,216.628332 119.275,216.957 C119.275,217.433002 119.439332,217.804165 119.768,218.0705 C120.096668,218.336835 120.487664,218.47 120.941,218.47 Z M126.5,220 L126.5,211.568 L128.54,211.568 L128.71,212.656 L128.778,212.656 C129.129335,212.304665 129.503331,212.001501 129.9,211.7465 C130.296669,211.491499 130.772664,211.364 131.328,211.364 C131.92867,211.364 132.413165,211.485832 132.7815,211.7295 C133.149835,211.973168 133.441666,212.321664 133.657,212.775 C134.031002,212.389665 134.424831,212.058168 134.8385,211.7805 C135.252169,211.502832 135.742331,211.364 136.309,211.364 C137.215671,211.364 137.881498,211.667164 138.3065,212.2735 C138.731502,212.879836 138.944,213.709995 138.944,214.764 L138.944,220 L136.445,220 L136.445,215.087 C136.445,214.474997 136.362834,214.055668 136.1985,213.829 C136.034166,213.602332 135.770668,213.489 135.408,213.489 C134.988665,213.489 134.507003,213.760997 133.963,214.305 L133.963,220 L131.464,220 L131.464,215.087 C131.464,214.474997 131.381834,214.055668 131.2175,213.829 C131.053166,213.602332 130.789668,213.489 130.427,213.489 C129.996331,213.489 129.520336,213.760997 128.999,214.305 L128.999,220 L126.5,220 Z M141.069,220 L141.069,211.568 L143.109,211.568 L143.279,212.656 L143.347,212.656 C143.698335,212.304665 144.072331,212.001501 144.469,211.7465 C144.865669,211.491499 145.341664,211.364 145.897,211.364 C146.49767,211.364 146.982165,211.485832 147.3505,211.7295 C147.718835,211.973168 148.010666,212.321664 148.226,212.775 C148.600002,212.389665 148.993831,212.058168 149.4075,211.7805 C149.821169,211.502832 150.31133,211.364 150.878,211.364 C151.784671,211.364 152.450498,211.667164 152.8755,212.2735 C153.300502,212.879836 153.513,213.709995 153.513,214.764 L153.513,220 L151.014,220 L151.014,215.087 C151.014,214.474997 150.931834,214.055668 150.7675,213.829 C150.603166,213.602332 150.339668,213.489 149.977,213.489 C149.557665,213.489 149.076003,213.760997 148.532,214.305 L148.532,220 L146.033,220 L146.033,215.087 C146.033,214.474997 145.950834,214.055668 145.7865,213.829 C145.622166,213.602332 145.358668,213.489 144.996,213.489 C144.565331,213.489 144.089336,213.760997 143.568,214.305 L143.568,220 L141.069,220 Z" id="378mm" fill="#093169" fill-rule="nonzero"></path>
            <path d="M281.657,98 L281.657,95.977 L284.003,95.977 L284.003,89.738 L281.98,89.738 L281.98,88.191 C282.569336,88.0776661 283.067998,87.9416675 283.476,87.783 C283.884002,87.6243325 284.280665,87.4316678 284.666,87.205 L286.502,87.205 L286.502,95.977 L288.525,95.977 L288.525,98 L281.657,98 Z M293.931,98.204 C293.352997,98.204 292.826002,98.0821679 292.35,97.8385 C291.873998,97.5948321 291.468835,97.2350024 291.1345,96.759 C290.800165,96.2829976 290.539501,95.6936702 290.3525,94.991 C290.165499,94.2883298 290.072,93.4780046 290.072,92.56 C290.072,91.6419954 290.165499,90.8373368 290.3525,90.146 C290.539501,89.4546632 290.800165,88.8738357 291.1345,88.4035 C291.468835,87.9331643 291.873998,87.5818345 292.35,87.3495 C292.826002,87.1171655 293.352997,87.001 293.931,87.001 C294.509003,87.001 295.035998,87.1171655 295.512,87.3495 C295.988002,87.5818345 296.393165,87.9331643 296.7275,88.4035 C297.061835,88.8738357 297.322499,89.4546632 297.5095,90.146 C297.696501,90.8373368 297.79,91.6419954 297.79,92.56 C297.79,93.4780046 297.696501,94.2883298 297.5095,94.991 C297.322499,95.6936702 297.061835,96.2829976 296.7275,96.759 C296.393165,97.2350024 295.988002,97.5948321 295.512,97.8385 C295.035998,98.0821679 294.509003,98.204 293.931,98.204 Z M293.931,96.266 C294.146334,96.266 294.344666,96.2121672 294.526,96.1045 C294.707334,95.9968328 294.865999,95.8013347 295.002,95.518 C295.138001,95.2346653 295.242833,94.8550024 295.3165,94.379 C295.390167,93.9029976 295.427,93.2966703 295.427,92.56 C295.427,91.8233297 295.390167,91.2198357 295.3165,90.7495 C295.242833,90.2791643 295.138001,89.9108347 295.002,89.6445 C294.865999,89.3781653 294.707334,89.1940005 294.526,89.092 C294.344666,88.9899995 294.146334,88.939 293.931,88.939 C293.726999,88.939 293.534334,88.9899995 293.353,89.092 C293.171666,89.1940005 293.013001,89.3781653 292.877,89.6445 C292.740999,89.9108347 292.633334,90.2791643 292.554,90.7495 C292.474666,91.2198357 292.435,91.8233297 292.435,92.56 C292.435,93.2966703 292.474666,93.9029976 292.554,94.379 C292.633334,94.8550024 292.740999,95.2346653 292.877,95.518 C293.013001,95.8013347 293.171666,95.9968328 293.353,96.1045 C293.534334,96.2121672 293.726999,96.266 293.931,96.266 Z M302.907,98.204 C302.328997,98.204 301.802002,98.0821679 301.326,97.8385 C300.849998,97.5948321 300.444835,97.2350024 300.1105,96.759 C299.776165,96.2829976 299.515501,95.6936702 299.3285,94.991 C299.141499,94.2883298 299.048,93.4780046 299.048,92.56 C299.048,91.6419954 299.141499,90.8373368 299.3285,90.146 C299.515501,89.4546632 299.776165,88.8738357 300.1105,88.4035 C300.444835,87.9331643 300.849998,87.5818345 301.326,87.3495 C301.802002,87.1171655 302.328997,87.001 302.907,87.001 C303.485003,87.001 304.011998,87.1171655 304.488,87.3495 C304.964002,87.5818345 305.369165,87.9331643 305.7035,88.4035 C306.037835,88.8738357 306.298499,89.4546632 306.4855,90.146 C306.672501,90.8373368 306.766,91.6419954 306.766,92.56 C306.766,93.4780046 306.672501,94.2883298 306.4855,94.991 C306.298499,95.6936702 306.037835,96.2829976 305.7035,96.759 C305.369165,97.2350024 304.964002,97.5948321 304.488,97.8385 C304.011998,98.0821679 303.485003,98.204 302.907,98.204 Z M302.907,96.266 C303.122334,96.266 303.320666,96.2121672 303.502,96.1045 C303.683334,95.9968328 303.841999,95.8013347 303.978,95.518 C304.114001,95.2346653 304.218833,94.8550024 304.2925,94.379 C304.366167,93.9029976 304.403,93.2966703 304.403,92.56 C304.403,91.8233297 304.366167,91.2198357 304.2925,90.7495 C304.218833,90.2791643 304.114001,89.9108347 303.978,89.6445 C303.841999,89.3781653 303.683334,89.1940005 303.502,89.092 C303.320666,88.9899995 303.122334,88.939 302.907,88.939 C302.702999,88.939 302.510334,88.9899995 302.329,89.092 C302.147666,89.1940005 301.989001,89.3781653 301.853,89.6445 C301.716999,89.9108347 301.609334,90.2791643 301.53,90.7495 C301.450666,91.2198357 301.411,91.8233297 301.411,92.56 C301.411,93.2966703 301.450666,93.9029976 301.53,94.379 C301.609334,94.8550024 301.716999,95.2346653 301.853,95.518 C301.989001,95.8013347 302.147666,95.9968328 302.329,96.1045 C302.510334,96.2121672 302.702999,96.266 302.907,96.266 Z M308.5,98 L308.5,89.568 L310.54,89.568 L310.71,90.656 L310.778,90.656 C311.129335,90.3046649 311.503331,90.0015013 311.9,89.7465 C312.296669,89.4914987 312.772664,89.364 313.328,89.364 C313.92867,89.364 314.413165,89.4858321 314.7815,89.7295 C315.149835,89.9731679 315.441666,90.3216644 315.657,90.775 C316.031002,90.3896647 316.424831,90.0581681 316.8385,89.7805 C317.252169,89.5028319 317.74233,89.364 318.309,89.364 C319.215671,89.364 319.881498,89.6671636 320.3065,90.2735 C320.731502,90.8798364 320.944,91.7099947 320.944,92.764 L320.944,98 L318.445,98 L318.445,93.087 C318.445,92.4749969 318.362834,92.0556678 318.1985,91.829 C318.034166,91.6023322 317.770668,91.489 317.408,91.489 C316.988665,91.489 316.507003,91.7609973 315.963,92.305 L315.963,98 L313.464,98 L313.464,93.087 C313.464,92.4749969 313.381834,92.0556678 313.2175,91.829 C313.053166,91.6023322 312.789668,91.489 312.427,91.489 C311.996331,91.489 311.520336,91.7609973 310.999,92.305 L310.999,98 L308.5,98 Z M323.069,98 L323.069,89.568 L325.109,89.568 L325.279,90.656 L325.347,90.656 C325.698335,90.3046649 326.072331,90.0015013 326.469,89.7465 C326.865669,89.4914987 327.341664,89.364 327.897,89.364 C328.49767,89.364 328.982165,89.4858321 329.3505,89.7295 C329.718835,89.9731679 330.010666,90.3216644 330.226,90.775 C330.600002,90.3896647 330.993831,90.0581681 331.4075,89.7805 C331.821169,89.5028319 332.31133,89.364 332.878,89.364 C333.784671,89.364 334.450498,89.6671636 334.8755,90.2735 C335.300502,90.8798364 335.513,91.7099947 335.513,92.764 L335.513,98 L333.014,98 L333.014,93.087 C333.014,92.4749969 332.931834,92.0556678 332.7675,91.829 C332.603166,91.6023322 332.339668,91.489 331.977,91.489 C331.557665,91.489 331.076003,91.7609973 330.532,92.305 L330.532,98 L328.033,98 L328.033,93.087 C328.033,92.4749969 327.950834,92.0556678 327.7865,91.829 C327.622166,91.6023322 327.358668,91.489 326.996,91.489 C326.565331,91.489 326.089336,91.7609973 325.568,92.305 L325.568,98 L323.069,98 Z" id="100mm" fill="#093169" fill-rule="nonzero" transform="translate(308.585000, 92.602500) rotate(-270.000000) translate(-308.585000, -92.602500) "></path>
            <polyline id="Rectangle-Copy-3" stroke="#CBD8F2" transform="translate(275.000000, 92.000000) rotate(-270.000000) translate(-275.000000, -92.000000) " points="250.581667 99.5 250.5 84.5 299.5 84.5 299.5 99.5"></polyline>
        </g>
    </g>
</svg>