<?xml version="1.0" encoding="UTF-8"?>
<svg width="706px" height="295px" viewBox="0 0 706 295" version="1.1" xmlns="http://www.w3.org/2000/svg" xmlns:xlink="http://www.w3.org/1999/xlink">
    <!-- Generator: Sketch 58 (84663) - https://sketch.com -->
    <title>pierCaps/PC320</title>
    <desc>Created with Sketch.</desc>
    <g id="pierCaps/PC320" stroke="none" stroke-width="1" fill="none" fill-rule="evenodd">
        <rect fill="#F5F9FF" x="0" y="0" width="706" height="295"></rect>
        <g id="Group" transform="translate(246.000000, 155.000000)" fill="#FFFFFF" stroke="#FF5959" stroke-opacity="0.6">
            <rect id="Rectangle" x="0" y="0" width="105" height="32"></rect>
            <rect id="Rectangle-Copy-5" x="110" y="0" width="105" height="32"></rect>
        </g>
        <g id="Group-2" transform="translate(203.000000, 102.000000)" fill="#FFFFFF" stroke="#CBD8F2">
            <polyline id="Rectangle" points="267 44 267 49.5 33 49.5 33 44"></polyline>
            <polyline id="Rectangle-Copy-2" points="274 38 274 43.5 26 43.5 26 38"></polyline>
            <path d="M290,23 C290,31.2842712 281.89481,38 271.896552,38 L28.1034483,38 C18.1051899,38 10,31.2842712 10,23 C10,23 103.333333,23 290,23 Z" id="Rectangle-Copy-3"></path>
            <polygon id="Rectangle-Copy-4" points="300 10 300 23 0 23 0 10"></polygon>
            <polygon id="Path" points="2 10 150 0 298 10"></polygon>
        </g>
        <polyline id="Rectangle-Copy" stroke="#CBD8F2" points="203.5 87 203 72 503 72 503 87"></polyline>
        <path d="M330.244,52.204 C329.722664,52.204 329.215502,52.102001 328.7225,51.898 C328.229498,51.693999 327.793169,51.3766688 327.4135,50.946 C327.033831,50.5153312 326.730668,49.9628367 326.504,49.2885 C326.277332,48.6141633 326.164,47.8010048 326.164,46.849 C326.164,45.8403283 326.285832,44.9676703 326.5295,44.231 C326.773168,43.4943296 327.096165,42.8880024 327.4985,42.412 C327.900835,41.9359976 328.365497,41.5818345 328.8925,41.3495 C329.419503,41.1171655 329.966331,41.001 330.533,41.001 C331.247004,41.001 331.864664,41.1284987 332.386,41.3835 C332.907336,41.6385013 333.337998,41.9416649 333.678,42.293 L332.369,43.789 C332.176332,43.584999 331.927002,43.4065008 331.621,43.2535 C331.314998,43.1004992 331.003335,43.024 330.686,43.024 C330.391332,43.024 330.113668,43.0806661 329.853,43.194 C329.592332,43.3073339 329.362834,43.4971653 329.1645,43.7635 C328.966166,44.0298347 328.804667,44.3783312 328.68,44.809 C328.555333,45.2396688 328.481667,45.7666636 328.459,46.39 C328.595001,46.2086658 328.753666,46.0471674 328.935,45.9055 C329.116334,45.7638326 329.303332,45.6448338 329.496,45.5485 C329.688668,45.4521662 329.881332,45.3785003 330.074,45.3275 C330.266668,45.2764997 330.447999,45.251 330.618,45.251 C331.082669,45.251 331.510498,45.3189993 331.9015,45.455 C332.292502,45.5910007 332.632499,45.7949986 332.9215,46.067 C333.210501,46.3390014 333.434333,46.6846646 333.593,47.104 C333.751667,47.5233354 333.831,48.0163305 333.831,48.583 C333.831,49.1496695 333.734668,49.6539978 333.542,50.096 C333.349332,50.5380022 333.091502,50.9176651 332.7685,51.235 C332.445498,51.5523349 332.065836,51.7931658 331.6295,51.9575 C331.193164,52.1218342 330.731336,52.204 330.244,52.204 Z M330.193,50.334 C330.567002,50.334 330.887165,50.1951681 331.1535,49.9175 C331.419835,49.6398319 331.553,49.1950031 331.553,48.583 C331.553,48.0049971 331.419835,47.5998345 331.1535,47.3675 C330.887165,47.1351655 330.550002,47.019 330.142,47.019 C329.858665,47.019 329.572501,47.1011658 329.2835,47.2655 C328.994499,47.4298342 328.736668,47.7046647 328.51,48.09 C328.566667,48.5206688 328.651666,48.8776652 328.765,49.161 C328.878334,49.4443347 329.008666,49.6738325 329.156,49.8495 C329.303334,50.0251675 329.464832,50.149833 329.6405,50.2235 C329.816168,50.297167 330.000332,50.334 330.193,50.334 Z M335.633,52 L335.633,49.977 L337.979,49.977 L337.979,43.738 L335.956,43.738 L335.956,42.191 C336.545336,42.0776661 337.043998,41.9416675 337.452,41.783 C337.860002,41.6243325 338.256665,41.4316678 338.642,41.205 L340.478,41.205 L340.478,49.977 L342.501,49.977 L342.501,52 L335.633,52 Z M347.907,52.204 C347.328997,52.204 346.802002,52.0821679 346.326,51.8385 C345.849998,51.5948321 345.444835,51.2350024 345.1105,50.759 C344.776165,50.2829976 344.515501,49.6936702 344.3285,48.991 C344.141499,48.2883298 344.048,47.4780046 344.048,46.56 C344.048,45.6419954 344.141499,44.8373368 344.3285,44.146 C344.515501,43.4546632 344.776165,42.8738357 345.1105,42.4035 C345.444835,41.9331643 345.849998,41.5818345 346.326,41.3495 C346.802002,41.1171655 347.328997,41.001 347.907,41.001 C348.485003,41.001 349.011998,41.1171655 349.488,41.3495 C349.964002,41.5818345 350.369165,41.9331643 350.7035,42.4035 C351.037835,42.8738357 351.298499,43.4546632 351.4855,44.146 C351.672501,44.8373368 351.766,45.6419954 351.766,46.56 C351.766,47.4780046 351.672501,48.2883298 351.4855,48.991 C351.298499,49.6936702 351.037835,50.2829976 350.7035,50.759 C350.369165,51.2350024 349.964002,51.5948321 349.488,51.8385 C349.011998,52.0821679 348.485003,52.204 347.907,52.204 Z M347.907,50.266 C348.122334,50.266 348.320666,50.2121672 348.502,50.1045 C348.683334,49.9968328 348.841999,49.8013347 348.978,49.518 C349.114001,49.2346652 349.218833,48.8550024 349.2925,48.379 C349.366167,47.9029976 349.403,47.2966703 349.403,46.56 C349.403,45.8233296 349.366167,45.2198357 349.2925,44.7495 C349.218833,44.2791643 349.114001,43.9108347 348.978,43.6445 C348.841999,43.3781653 348.683334,43.1940005 348.502,43.092 C348.320666,42.9899995 348.122334,42.939 347.907,42.939 C347.702999,42.939 347.510334,42.9899995 347.329,43.092 C347.147666,43.1940005 346.989001,43.3781653 346.853,43.6445 C346.716999,43.9108347 346.609334,44.2791643 346.53,44.7495 C346.450666,45.2198357 346.411,45.8233296 346.411,46.56 C346.411,47.2966703 346.450666,47.9029976 346.53,48.379 C346.609334,48.8550024 346.716999,49.2346652 346.853,49.518 C346.989001,49.8013347 347.147666,49.9968328 347.329,50.1045 C347.510334,50.2121672 347.702999,50.266 347.907,50.266 Z M353.5,52 L353.5,43.568 L355.54,43.568 L355.71,44.656 L355.778,44.656 C356.129335,44.3046649 356.503331,44.0015013 356.9,43.7465 C357.296669,43.4914987 357.772664,43.364 358.328,43.364 C358.92867,43.364 359.413165,43.4858321 359.7815,43.7295 C360.149835,43.9731679 360.441666,44.3216644 360.657,44.775 C361.031002,44.3896647 361.424831,44.0581681 361.8385,43.7805 C362.252169,43.5028319 362.74233,43.364 363.309,43.364 C364.215671,43.364 364.881498,43.6671636 365.3065,44.2735 C365.731502,44.8798364 365.944,45.7099947 365.944,46.764 L365.944,52 L363.445,52 L363.445,47.087 C363.445,46.4749969 363.362834,46.0556678 363.1985,45.829 C363.034166,45.6023322 362.770668,45.489 362.408,45.489 C361.988665,45.489 361.507003,45.7609973 360.963,46.305 L360.963,52 L358.464,52 L358.464,47.087 C358.464,46.4749969 358.381834,46.0556678 358.2175,45.829 C358.053166,45.6023322 357.789668,45.489 357.427,45.489 C356.996331,45.489 356.520336,45.7609973 355.999,46.305 L355.999,52 L353.5,52 Z M368.069,52 L368.069,43.568 L370.109,43.568 L370.279,44.656 L370.347,44.656 C370.698335,44.3046649 371.072331,44.0015013 371.469,43.7465 C371.865669,43.4914987 372.341664,43.364 372.897,43.364 C373.49767,43.364 373.982165,43.4858321 374.3505,43.7295 C374.718835,43.9731679 375.010666,44.3216644 375.226,44.775 C375.600002,44.3896647 375.993831,44.0581681 376.4075,43.7805 C376.821169,43.5028319 377.31133,43.364 377.878,43.364 C378.784671,43.364 379.450498,43.6671636 379.8755,44.2735 C380.300502,44.8798364 380.513,45.7099947 380.513,46.764 L380.513,52 L378.014,52 L378.014,47.087 C378.014,46.4749969 377.931834,46.0556678 377.7675,45.829 C377.603166,45.6023322 377.339668,45.489 376.977,45.489 C376.557665,45.489 376.076003,45.7609973 375.532,46.305 L375.532,52 L373.033,52 L373.033,47.087 C373.033,46.4749969 372.950834,46.0556678 372.7865,45.829 C372.622166,45.6023322 372.358668,45.489 371.996,45.489 C371.565331,45.489 371.089336,45.7609973 370.568,46.305 L370.568,52 L368.069,52 Z" id="610mm" fill="#093169" fill-rule="nonzero"></path>
        <polyline id="Rectangle-Copy-2" stroke="#CBD8F2" transform="translate(353.000000, 215.500000) rotate(-180.000000) translate(-353.000000, -215.500000) " points="236.39 223 236 208 470 208 470 223"></polyline>
        <path d="M330.465,255 L330.465,252.416 L325.79,252.416 L325.79,250.699 L329.734,244.205 L332.794,244.205 L332.794,250.512 L334.035,250.512 L334.035,252.416 L332.794,252.416 L332.794,255 L330.465,255 Z M328.187,250.512 L330.465,250.512 L330.465,248.761 C330.465,248.479932 330.472253,248.164414 330.48676,247.814441 L330.5398,246.78356 C330.548867,246.62852 330.557933,246.483001 330.567,246.347 L330.499,246.347 L330.074,247.248 L330.074,247.248 C329.926666,247.554002 329.773667,247.859998 329.615,248.166 L328.187,250.512 Z M337.146,255 C337.191334,254.104662 337.273499,253.28017 337.3925,252.5265 C337.511501,251.77283 337.681499,251.05317 337.9025,250.3675 C338.123501,249.68183 338.406832,249.010337 338.7525,248.353 C339.098168,247.695663 339.525997,247.01567 340.036,246.313 L335.191,246.313 L335.191,244.205 L342.705,244.205 L342.705,245.735 C342.081664,246.494337 341.580169,247.205497 341.2005,247.8685 C340.820831,248.531503 340.526168,249.217163 340.3165,249.9255 C340.106832,250.633837 339.956667,251.393163 339.866,252.2035 C339.775333,253.013837 339.707334,253.945995 339.662,255 L337.146,255 Z M346.122,255 C346.167334,254.104662 346.249499,253.28017 346.3685,252.5265 C346.487501,251.77283 346.657499,251.05317 346.8785,250.3675 C347.099501,249.68183 347.382832,249.010337 347.7285,248.353 C348.074168,247.695663 348.501997,247.01567 349.012,246.313 L344.167,246.313 L344.167,244.205 L351.681,244.205 L351.681,245.735 C351.057664,246.494337 350.556169,247.205497 350.1765,247.8685 C349.796831,248.531503 349.502168,249.217163 349.2925,249.9255 C349.082832,250.633837 348.932667,251.393163 348.842,252.2035 C348.751333,253.013837 348.683334,253.945995 348.638,255 L346.122,255 Z M353.5,255 L353.5,246.568 L355.54,246.568 L355.71,247.656 L355.778,247.656 C356.129335,247.304665 356.503331,247.001501 356.9,246.7465 C357.296669,246.491499 357.772664,246.364 358.328,246.364 C358.92867,246.364 359.413165,246.485832 359.7815,246.7295 C360.149835,246.973168 360.441666,247.321664 360.657,247.775 C361.031002,247.389665 361.424831,247.058168 361.8385,246.7805 C362.252169,246.502832 362.74233,246.364 363.309,246.364 C364.215671,246.364 364.881498,246.667164 365.3065,247.2735 C365.731502,247.879836 365.944,248.709995 365.944,249.764 L365.944,255 L363.445,255 L363.445,250.087 C363.445,249.474997 363.362834,249.055668 363.1985,248.829 C363.034166,248.602332 362.770668,248.489 362.408,248.489 C361.988665,248.489 361.507003,248.760997 360.963,249.305 L360.963,255 L358.464,255 L358.464,250.087 C358.464,249.474997 358.381834,249.055668 358.2175,248.829 C358.053166,248.602332 357.789668,248.489 357.427,248.489 C356.996331,248.489 356.520336,248.760997 355.999,249.305 L355.999,255 L353.5,255 Z M368.069,255 L368.069,246.568 L370.109,246.568 L370.279,247.656 L370.347,247.656 C370.698335,247.304665 371.072331,247.001501 371.469,246.7465 C371.865669,246.491499 372.341664,246.364 372.897,246.364 C373.49767,246.364 373.982165,246.485832 374.3505,246.7295 C374.718835,246.973168 375.010666,247.321664 375.226,247.775 C375.600002,247.389665 375.993831,247.058168 376.4075,246.7805 C376.821169,246.502832 377.31133,246.364 377.878,246.364 C378.784671,246.364 379.450498,246.667164 379.8755,247.2735 C380.300502,247.879836 380.513,248.709995 380.513,249.764 L380.513,255 L378.014,255 L378.014,250.087 C378.014,249.474997 377.931834,249.055668 377.7675,248.829 C377.603166,248.602332 377.339668,248.489 376.977,248.489 C376.557665,248.489 376.076003,248.760997 375.532,249.305 L375.532,255 L373.033,255 L373.033,250.087 C373.033,249.474997 372.950834,249.055668 372.7865,248.829 C372.622166,248.602332 372.358668,248.489 371.996,248.489 C371.565331,248.489 371.089336,248.760997 370.568,249.305 L370.568,255 L368.069,255 Z" id="477mm" fill="#093169" fill-rule="nonzero"></path>
        <path d="M532.657,134 L532.657,131.977 L535.003,131.977 L535.003,125.738 L532.98,125.738 L532.98,124.191 C533.569336,124.077666 534.067998,123.941667 534.476,123.783 C534.884002,123.624333 535.280665,123.431668 535.666,123.205 L537.502,123.205 L537.502,131.977 L539.525,131.977 L539.525,134 L532.657,134 Z M544.931,134.204 C544.352997,134.204 543.826002,134.082168 543.35,133.8385 C542.873998,133.594832 542.468835,133.235002 542.1345,132.759 C541.800165,132.282998 541.539501,131.69367 541.3525,130.991 C541.165499,130.28833 541.072,129.478005 541.072,128.56 C541.072,127.641995 541.165499,126.837337 541.3525,126.146 C541.539501,125.454663 541.800165,124.873836 542.1345,124.4035 C542.468835,123.933164 542.873998,123.581834 543.35,123.3495 C543.826002,123.117166 544.352997,123.001 544.931,123.001 C545.509003,123.001 546.035998,123.117166 546.512,123.3495 C546.988002,123.581834 547.393165,123.933164 547.7275,124.4035 C548.061835,124.873836 548.322499,125.454663 548.5095,126.146 C548.696501,126.837337 548.79,127.641995 548.79,128.56 C548.79,129.478005 548.696501,130.28833 548.5095,130.991 C548.322499,131.69367 548.061835,132.282998 547.7275,132.759 C547.393165,133.235002 546.988002,133.594832 546.512,133.8385 C546.035998,134.082168 545.509003,134.204 544.931,134.204 Z M544.931,132.266 C545.146334,132.266 545.344666,132.212167 545.526,132.1045 C545.707334,131.996833 545.865999,131.801335 546.002,131.518 C546.138001,131.234665 546.242833,130.855002 546.3165,130.379 C546.390167,129.902998 546.427,129.29667 546.427,128.56 C546.427,127.82333 546.390167,127.219836 546.3165,126.7495 C546.242833,126.279164 546.138001,125.910835 546.002,125.6445 C545.865999,125.378165 545.707334,125.194001 545.526,125.092 C545.344666,124.989999 545.146334,124.939 544.931,124.939 C544.726999,124.939 544.534334,124.989999 544.353,125.092 C544.171666,125.194001 544.013001,125.378165 543.877,125.6445 C543.740999,125.910835 543.633334,126.279164 543.554,126.7495 C543.474666,127.219836 543.435,127.82333 543.435,128.56 C543.435,129.29667 543.474666,129.902998 543.554,130.379 C543.633334,130.855002 543.740999,131.234665 543.877,131.518 C544.013001,131.801335 544.171666,131.996833 544.353,132.1045 C544.534334,132.212167 544.726999,132.266 544.931,132.266 Z M553.907,134.204 C553.328997,134.204 552.802002,134.082168 552.326,133.8385 C551.849998,133.594832 551.444835,133.235002 551.1105,132.759 C550.776165,132.282998 550.515501,131.69367 550.3285,130.991 C550.141499,130.28833 550.048,129.478005 550.048,128.56 C550.048,127.641995 550.141499,126.837337 550.3285,126.146 C550.515501,125.454663 550.776165,124.873836 551.1105,124.4035 C551.444835,123.933164 551.849998,123.581834 552.326,123.3495 C552.802002,123.117166 553.328997,123.001 553.907,123.001 C554.485003,123.001 555.011998,123.117166 555.488,123.3495 C555.964002,123.581834 556.369165,123.933164 556.7035,124.4035 C557.037835,124.873836 557.298499,125.454663 557.4855,126.146 C557.672501,126.837337 557.766,127.641995 557.766,128.56 C557.766,129.478005 557.672501,130.28833 557.4855,130.991 C557.298499,131.69367 557.037835,132.282998 556.7035,132.759 C556.369165,133.235002 555.964002,133.594832 555.488,133.8385 C555.011998,134.082168 554.485003,134.204 553.907,134.204 Z M553.907,132.266 C554.122334,132.266 554.320666,132.212167 554.502,132.1045 C554.683334,131.996833 554.841999,131.801335 554.978,131.518 C555.114001,131.234665 555.218833,130.855002 555.2925,130.379 C555.366167,129.902998 555.403,129.29667 555.403,128.56 C555.403,127.82333 555.366167,127.219836 555.2925,126.7495 C555.218833,126.279164 555.114001,125.910835 554.978,125.6445 C554.841999,125.378165 554.683334,125.194001 554.502,125.092 C554.320666,124.989999 554.122334,124.939 553.907,124.939 C553.702999,124.939 553.510334,124.989999 553.329,125.092 C553.147666,125.194001 552.989001,125.378165 552.853,125.6445 C552.716999,125.910835 552.609334,126.279164 552.53,126.7495 C552.450666,127.219836 552.411,127.82333 552.411,128.56 C552.411,129.29667 552.450666,129.902998 552.53,130.379 C552.609334,130.855002 552.716999,131.234665 552.853,131.518 C552.989001,131.801335 553.147666,131.996833 553.329,132.1045 C553.510334,132.212167 553.702999,132.266 553.907,132.266 Z M559.5,134 L559.5,125.568 L561.54,125.568 L561.71,126.656 L561.778,126.656 C562.129335,126.304665 562.503331,126.001501 562.9,125.7465 C563.296669,125.491499 563.772664,125.364 564.328,125.364 C564.92867,125.364 565.413165,125.485832 565.7815,125.7295 C566.149835,125.973168 566.441666,126.321664 566.657,126.775 C567.031002,126.389665 567.424831,126.058168 567.8385,125.7805 C568.252169,125.502832 568.74233,125.364 569.309,125.364 C570.215671,125.364 570.881498,125.667164 571.3065,126.2735 C571.731502,126.879836 571.944,127.709995 571.944,128.764 L571.944,134 L569.445,134 L569.445,129.087 C569.445,128.474997 569.362834,128.055668 569.1985,127.829 C569.034166,127.602332 568.770668,127.489 568.408,127.489 C567.988665,127.489 567.507003,127.760997 566.963,128.305 L566.963,134 L564.464,134 L564.464,129.087 C564.464,128.474997 564.381834,128.055668 564.2175,127.829 C564.053166,127.602332 563.789668,127.489 563.427,127.489 C562.996331,127.489 562.520336,127.760997 561.999,128.305 L561.999,134 L559.5,134 Z M574.069,134 L574.069,125.568 L576.109,125.568 L576.279,126.656 L576.347,126.656 C576.698335,126.304665 577.072331,126.001501 577.469,125.7465 C577.865669,125.491499 578.341664,125.364 578.897,125.364 C579.49767,125.364 579.982165,125.485832 580.3505,125.7295 C580.718835,125.973168 581.010666,126.321664 581.226,126.775 C581.600002,126.389665 581.993831,126.058168 582.4075,125.7805 C582.821169,125.502832 583.311331,125.364 583.878,125.364 C584.784671,125.364 585.450498,125.667164 585.8755,126.2735 C586.300502,126.879836 586.513,127.709995 586.513,128.764 L586.513,134 L584.014,134 L584.014,129.087 C584.014,128.474997 583.931834,128.055668 583.7675,127.829 C583.603166,127.602332 583.339668,127.489 582.977,127.489 C582.557665,127.489 582.076003,127.760997 581.532,128.305 L581.532,134 L579.033,134 L579.033,129.087 C579.033,128.474997 578.950834,128.055668 578.7865,127.829 C578.622166,127.602332 578.358668,127.489 577.996,127.489 C577.565331,127.489 577.089336,127.760997 576.568,128.305 L576.568,134 L574.069,134 Z" id="100mm" fill="#093169" fill-rule="nonzero" transform="translate(559.585000, 128.602500) rotate(-270.000000) translate(-559.585000, -128.602500) "></path>
        <polyline id="Rectangle-Copy-3" stroke="#CBD8F2" transform="translate(526.000000, 127.500000) rotate(-270.000000) translate(-526.000000, -127.500000) " points="501.083333 135 501 120 551 120 551 135"></polyline>
    </g>
</svg>