<?xml version="1.0" encoding="UTF-8"?>
<svg width="706px" height="285px" viewBox="0 0 706 285" version="1.1" xmlns="http://www.w3.org/2000/svg" xmlns:xlink="http://www.w3.org/1999/xlink">
    <!-- Generator: Sketch 58 (84663) - https://sketch.com -->
    <title>pierCaps/PC325</title>
    <desc>Created with Sketch.</desc>
    <g id="pierCaps/PC325" stroke="none" stroke-width="1" fill="none" fill-rule="evenodd">
        <rect fill="#F5F9FF" x="0" y="0" width="706" height="285"></rect>
        <g id="Group" transform="translate(246.000000, 145.000000)" fill="#FFFFFF" stroke="#FF5959" stroke-opacity="0.6">
            <rect id="Rectangle" x="0" y="0" width="105" height="32"></rect>
            <rect id="Rectangle-Copy-5" x="110" y="0" width="105" height="32"></rect>
        </g>
        <g id="Group-2" transform="translate(203.000000, 102.000000)" fill="#FFFFFF" stroke="#CBD8F2">
            <polyline id="Rectangle" points="267 34 267 39.5 33 39.5 33 34"></polyline>
            <polyline id="Rectangle-Copy-2" points="274 28 274 33.5 26 33.5 26 28"></polyline>
            <path d="M290,13 C290,21.2842712 281.89481,28 271.896552,28 L28.1034483,28 C18.1051899,28 10,21.2842712 10,13 C10,13 103.333333,13 290,13 Z" id="Rectangle-Copy-3"></path>
            <polygon id="Rectangle-Copy-4" points="300 4.61852778e-14 300 13 0 13 0 4.61852778e-14"></polygon>
        </g>
        <g id="Group-5" transform="translate(236.000000, 198.000000)">
            <polyline id="Rectangle-Copy-2" stroke="#CBD8F2" transform="translate(117.000000, 7.500000) rotate(-180.000000) translate(-117.000000, -7.500000) " points="0.39 15 0 0 234 0 234 15"></polyline>
            <path d="M94.465,47 L94.465,44.416 L89.79,44.416 L89.79,42.699 L93.734,36.205 L96.794,36.205 L96.794,42.512 L98.035,42.512 L98.035,44.416 L96.794,44.416 L96.794,47 L94.465,47 Z M92.187,42.512 L94.465,42.512 L94.465,40.761 C94.465,40.4799319 94.4722533,40.1644142 94.48676,39.8144407 L94.5398,38.7835601 C94.5488666,38.6285204 94.5579333,38.4830007 94.567,38.347 L94.499,38.347 L94.074,39.248 L94.074,39.248 C93.9266659,39.5540015 93.7736675,39.8599985 93.615,40.166 L92.187,42.512 Z M101.146,47 C101.191334,46.1046622 101.273499,45.2801704 101.3925,44.5265 C101.511501,43.7728296 101.681499,43.0531701 101.9025,42.3675 C102.123501,41.6818299 102.406832,41.0103366 102.7525,40.353 C103.098168,39.6956634 103.525997,39.0156702 104.036,38.313 L99.191,38.313 L99.191,36.205 L106.705,36.205 L106.705,37.735 C106.081664,38.4943371 105.580169,39.2054967 105.2005,39.8685 C104.820831,40.5315033 104.526168,41.2171631 104.3165,41.9255 C104.106832,42.6338369 103.956667,43.3931626 103.866,44.2035 C103.775333,45.0138374 103.707334,45.9459947 103.662,47 L101.146,47 Z M110.122,47 C110.167334,46.1046622 110.249499,45.2801704 110.3685,44.5265 C110.487501,43.7728296 110.657499,43.0531701 110.8785,42.3675 C111.099501,41.6818299 111.382832,41.0103366 111.7285,40.353 C112.074168,39.6956634 112.501997,39.0156702 113.012,38.313 L108.167,38.313 L108.167,36.205 L115.681,36.205 L115.681,37.735 C115.057664,38.4943371 114.556169,39.2054967 114.1765,39.8685 C113.796831,40.5315033 113.502168,41.2171631 113.2925,41.9255 C113.082832,42.6338369 112.932667,43.3931626 112.842,44.2035 C112.751333,45.0138374 112.683334,45.9459947 112.638,47 L110.122,47 Z M117.5,47 L117.5,38.568 L119.54,38.568 L119.71,39.656 L119.778,39.656 C120.129335,39.3046649 120.503331,39.0015013 120.9,38.7465 C121.296669,38.4914987 121.772664,38.364 122.328,38.364 C122.92867,38.364 123.413165,38.4858321 123.7815,38.7295 C124.149835,38.9731679 124.441666,39.3216644 124.657,39.775 C125.031002,39.3896647 125.424831,39.0581681 125.8385,38.7805 C126.252169,38.5028319 126.742331,38.364 127.309,38.364 C128.215671,38.364 128.881498,38.6671636 129.3065,39.2735 C129.731502,39.8798364 129.944,40.7099947 129.944,41.764 L129.944,47 L127.445,47 L127.445,42.087 C127.445,41.4749969 127.362834,41.0556678 127.1985,40.829 C127.034166,40.6023322 126.770668,40.489 126.408,40.489 C125.988665,40.489 125.507003,40.7609973 124.963,41.305 L124.963,47 L122.464,47 L122.464,42.087 C122.464,41.4749969 122.381834,41.0556678 122.2175,40.829 C122.053166,40.6023322 121.789668,40.489 121.427,40.489 C120.996331,40.489 120.520336,40.7609973 119.999,41.305 L119.999,47 L117.5,47 Z M132.069,47 L132.069,38.568 L134.109,38.568 L134.279,39.656 L134.347,39.656 C134.698335,39.3046649 135.072331,39.0015013 135.469,38.7465 C135.865669,38.4914987 136.341664,38.364 136.897,38.364 C137.49767,38.364 137.982165,38.4858321 138.3505,38.7295 C138.718835,38.9731679 139.010666,39.3216644 139.226,39.775 C139.600002,39.3896647 139.993831,39.0581681 140.4075,38.7805 C140.821169,38.5028319 141.31133,38.364 141.878,38.364 C142.784671,38.364 143.450498,38.6671636 143.8755,39.2735 C144.300502,39.8798364 144.513,40.7099947 144.513,41.764 L144.513,47 L142.014,47 L142.014,42.087 C142.014,41.4749969 141.931834,41.0556678 141.7675,40.829 C141.603166,40.6023322 141.339668,40.489 140.977,40.489 C140.557665,40.489 140.076003,40.7609973 139.532,41.305 L139.532,47 L137.033,47 L137.033,42.087 C137.033,41.4749969 136.950834,41.0556678 136.7865,40.829 C136.622166,40.6023322 136.358668,40.489 135.996,40.489 C135.565331,40.489 135.089336,40.7609973 134.568,41.305 L134.568,47 L132.069,47 Z" id="477mm" fill="#093169" fill-rule="nonzero"></path>
        </g>
        <g id="Group-3" transform="translate(519.000000, 98.000000)">
            <path d="M21.926,30.204 C21.3819973,30.204 20.8805023,30.1331674 20.4215,29.9915 C19.9624977,29.8498326 19.565835,29.648668 19.2315,29.388 C18.897165,29.127332 18.6365009,28.8156685 18.4495,28.453 C18.2624991,28.0903315 18.169,27.6880022 18.169,27.246 C18.169,26.5886634 18.3474982,26.0503354 18.7045,25.631 C19.0615018,25.2116646 19.4949974,24.8660014 20.005,24.594 L20.005,24.526 C19.5856646,24.2086651 19.2400014,23.8488353 18.968,23.4465 C18.6959986,23.0441647 18.56,22.5540029 18.56,21.976 C18.56,21.5226644 18.6449991,21.1118352 18.815,20.7435 C18.9850008,20.3751648 19.2229985,20.060668 19.529,19.8 C19.8350015,19.539332 20.2004979,19.3410007 20.6255,19.205 C21.0505021,19.0689993 21.5123308,19.001 22.011,19.001 C22.4983358,19.001 22.945998,19.0718326 23.354,19.2135 C23.762002,19.3551674 24.1076652,19.5534987 24.391,19.8085 C24.6743347,20.0635013 24.8953325,20.3751648 25.054,20.7435 C25.2126675,21.1118352 25.292,21.5169978 25.292,21.959 C25.292,22.4803359 25.1503347,22.9421647 24.867,23.3445 C24.5836652,23.7468353 24.2550019,24.0726654 23.881,24.322 L23.881,24.39 C24.4023359,24.6733348 24.8443315,25.0359978 25.207,25.478 C25.5696685,25.9200022 25.751,26.4979964 25.751,27.212 C25.751,27.6426688 25.6603342,28.0393315 25.479,28.402 C25.2976658,28.7646685 25.039835,29.0791653 24.7055,29.3455 C24.371165,29.6118347 23.9688357,29.8214992 23.4985,29.9745 C23.0281643,30.1275008 22.5040029,30.204 21.926,30.204 Z M22.606,23.71 C23.0480022,23.1999974 23.269,22.6730027 23.269,22.129 C23.269,21.7096646 23.1528345,21.3725013 22.9205,21.1175 C22.6881655,20.8624987 22.368002,20.735 21.96,20.735 C21.6313317,20.735 21.3480012,20.836999 21.11,21.041 C20.8719988,21.245001 20.753,21.5566646 20.753,21.976 C20.753,22.4180022 20.9229983,22.7636654 21.263,23.013 C21.6030017,23.2623346 22.0506639,23.4946656 22.606,23.71 Z M21.977,28.47 C22.3963354,28.47 22.7419986,28.3595011 23.014,28.1385 C23.2860014,27.9174989 23.422,27.5803356 23.422,27.127 C23.422,26.8889988 23.3681672,26.6850009 23.2605,26.515 C23.1528328,26.3449991 22.997001,26.1891674 22.793,26.0475 C22.588999,25.9058326 22.3481681,25.7726673 22.0705,25.648 L21.3931568,25.3483752 C21.3120526,25.3129586 21.2290004,25.2768335 21.144,25.24 C20.9059988,25.4666678 20.7076675,25.7273319 20.549,26.022 C20.3903325,26.3166681 20.311,26.6283317 20.311,26.957 C20.311,27.4330024 20.4753317,27.8041653 20.804,28.0705 C21.1326683,28.3368347 21.5236644,28.47 21.977,28.47 Z M30.919,30.204 C30.3409971,30.204 29.8140024,30.0821679 29.338,29.8385 C28.8619976,29.5948321 28.456835,29.2350024 28.1225,28.759 C27.788165,28.2829976 27.5275009,27.6936702 27.3405,26.991 C27.1534991,26.2883298 27.06,25.4780046 27.06,24.56 C27.06,23.6419954 27.1534991,22.8373368 27.3405,22.146 C27.5275009,21.4546632 27.788165,20.8738357 28.1225,20.4035 C28.456835,19.9331643 28.8619976,19.5818345 29.338,19.3495 C29.8140024,19.1171655 30.3409971,19.001 30.919,19.001 C31.4970029,19.001 32.0239976,19.1171655 32.5,19.3495 C32.9760024,19.5818345 33.381165,19.9331643 33.7155,20.4035 C34.049835,20.8738357 34.3104991,21.4546632 34.4975,22.146 C34.6845009,22.8373368 34.778,23.6419954 34.778,24.56 C34.778,25.4780046 34.6845009,26.2883298 34.4975,26.991 C34.3104991,27.6936702 34.049835,28.2829976 33.7155,28.759 C33.381165,29.2350024 32.9760024,29.5948321 32.5,29.8385 C32.0239976,30.0821679 31.4970029,30.204 30.919,30.204 Z M30.919,28.266 C31.1343344,28.266 31.3326658,28.2121672 31.514,28.1045 C31.6953342,27.9968328 31.8539993,27.8013347 31.99,27.518 C32.1260007,27.2346652 32.230833,26.8550024 32.3045,26.379 C32.378167,25.9029976 32.415,25.2966703 32.415,24.56 C32.415,23.8233296 32.378167,23.2198357 32.3045,22.7495 C32.230833,22.2791643 32.1260007,21.9108347 31.99,21.6445 C31.8539993,21.3781653 31.6953342,21.1940005 31.514,21.092 C31.3326658,20.9899995 31.1343344,20.939 30.919,20.939 C30.714999,20.939 30.5223342,20.9899995 30.341,21.092 C30.1596658,21.1940005 30.0010007,21.3781653 29.865,21.6445 C29.7289993,21.9108347 29.6213337,22.2791643 29.542,22.7495 C29.4626663,23.2198357 29.423,23.8233296 29.423,24.56 C29.423,25.2966703 29.4626663,25.9029976 29.542,26.379 C29.6213337,26.8550024 29.7289993,27.2346652 29.865,27.518 C30.0010007,27.8013347 30.1596658,27.9968328 30.341,28.1045 C30.5223342,28.2121672 30.714999,28.266 30.919,28.266 Z M36.512,30 L36.512,21.568 L38.552,21.568 L38.722,22.656 L38.79,22.656 C39.1413351,22.3046649 39.5153313,22.0015013 39.912,21.7465 C40.3086687,21.4914987 40.7846639,21.364 41.34,21.364 C41.9406697,21.364 42.4251648,21.4858321 42.7935,21.7295 C43.1618352,21.9731679 43.4536656,22.3216644 43.669,22.775 C44.0430019,22.3896647 44.4368313,22.0581681 44.8505,21.7805 C45.2641687,21.5028319 45.7543305,21.364 46.321,21.364 C47.2276712,21.364 47.8934979,21.6671636 48.3185,22.2735 C48.7435021,22.8798364 48.956,23.7099947 48.956,24.764 L48.956,30 L46.457,30 L46.457,25.087 C46.457,24.4749969 46.3748342,24.0556678 46.2105,23.829 C46.0461658,23.6023322 45.7826685,23.489 45.42,23.489 C45.0006646,23.489 44.5190027,23.7609973 43.975,24.305 L43.975,30 L41.476,30 L41.476,25.087 C41.476,24.4749969 41.3938342,24.0556678 41.2295,23.829 C41.0651658,23.6023322 40.8016685,23.489 40.439,23.489 C40.0083312,23.489 39.5323359,23.7609973 39.011,24.305 L39.011,30 L36.512,30 Z M51.081,30 L51.081,21.568 L53.121,21.568 L53.291,22.656 L53.359,22.656 C53.7103351,22.3046649 54.0843313,22.0015013 54.481,21.7465 C54.8776687,21.4914987 55.3536639,21.364 55.909,21.364 C56.5096697,21.364 56.9941648,21.4858321 57.3625,21.7295 C57.7308352,21.9731679 58.0226656,22.3216644 58.238,22.775 C58.6120019,22.3896647 59.0058313,22.0581681 59.4195,21.7805 C59.8331687,21.5028319 60.3233305,21.364 60.89,21.364 C61.7966712,21.364 62.4624979,21.6671636 62.8875,22.2735 C63.3125021,22.8798364 63.525,23.7099947 63.525,24.764 L63.525,30 L61.026,30 L61.026,25.087 C61.026,24.4749969 60.9438342,24.0556678 60.7795,23.829 C60.6151658,23.6023322 60.3516685,23.489 59.989,23.489 C59.5696646,23.489 59.0880027,23.7609973 58.544,24.305 L58.544,30 L56.045,30 L56.045,25.087 C56.045,24.4749969 55.9628342,24.0556678 55.7985,23.829 C55.6341658,23.6023322 55.3706685,23.489 55.008,23.489 C54.5773312,23.489 54.1013359,23.7609973 53.58,24.305 L53.58,30 L51.081,30 Z" id="80mm" fill="#093169" fill-rule="nonzero" transform="translate(40.847000, 24.602500) rotate(-270.000000) translate(-40.847000, -24.602500) "></path>
            <polyline id="Rectangle-Copy-3" stroke="#CBD8F2" transform="translate(7.500000, 23.500000) rotate(-270.000000) translate(-7.500000, -23.500000) " points="-11.935 31 -12 16 27 16 27 31"></polyline>
        </g>
        <g id="Group-4" transform="translate(203.000000, 35.000000)">
            <polyline id="Rectangle-Copy" stroke="#CBD8F2" points="0.5 52 0 37 300 37 300 52"></polyline>
            <path d="M127.244,17.204 C126.722664,17.204 126.215502,17.102001 125.7225,16.898 C125.229498,16.693999 124.793169,16.3766688 124.4135,15.946 C124.033831,15.5153312 123.730668,14.9628367 123.504,14.2885 C123.277332,13.6141633 123.164,12.8010048 123.164,11.849 C123.164,10.8403283 123.285832,9.96767035 123.5295,9.231 C123.773168,8.49432965 124.096165,7.88800238 124.4985,7.412 C124.900835,6.93599762 125.365497,6.58183449 125.8925,6.3495 C126.419503,6.1171655 126.96633,6.001 127.533,6.001 C128.247004,6.001 128.864664,6.12849873 129.386,6.3835 C129.907336,6.63850127 130.337998,6.94166491 130.678,7.293 L129.369,8.789 C129.176332,8.58499898 128.927002,8.40650076 128.621,8.2535 C128.314998,8.10049923 128.003335,8.024 127.686,8.024 C127.391332,8.024 127.113668,8.0806661 126.853,8.194 C126.592332,8.3073339 126.362834,8.49716533 126.1645,8.7635 C125.966166,9.02983466 125.804667,9.37833118 125.68,9.809 C125.555333,10.2396688 125.481667,10.7666636 125.459,11.39 C125.595001,11.2086658 125.753666,11.0471674 125.935,10.9055 C126.116334,10.7638326 126.303332,10.6448338 126.496,10.5485 C126.688668,10.4521662 126.881332,10.3785003 127.074,10.3275 C127.266668,10.2764997 127.447999,10.251 127.618,10.251 C128.082669,10.251 128.510498,10.3189993 128.9015,10.455 C129.292502,10.5910007 129.632499,10.7949986 129.9215,11.067 C130.210501,11.3390014 130.434333,11.6846646 130.593,12.104 C130.751667,12.5233354 130.831,13.0163305 130.831,13.583 C130.831,14.1496695 130.734668,14.6539978 130.542,15.096 C130.349332,15.5380022 130.091502,15.9176651 129.7685,16.235 C129.445498,16.5523349 129.065836,16.7931658 128.6295,16.9575 C128.193164,17.1218342 127.731336,17.204 127.244,17.204 Z M127.193,15.334 C127.567002,15.334 127.887165,15.1951681 128.1535,14.9175 C128.419835,14.6398319 128.553,14.1950031 128.553,13.583 C128.553,13.0049971 128.419835,12.5998345 128.1535,12.3675 C127.887165,12.1351655 127.550002,12.019 127.142,12.019 C126.858665,12.019 126.572501,12.1011658 126.2835,12.2655 C125.994499,12.4298342 125.736668,12.7046647 125.51,13.09 C125.566667,13.5206688 125.651666,13.8776652 125.765,14.161 C125.878334,14.4443347 126.008666,14.6738325 126.156,14.8495 C126.303334,15.0251675 126.464832,15.149833 126.6405,15.2235 C126.816168,15.297167 127.000332,15.334 127.193,15.334 Z M132.633,17 L132.633,14.977 L134.979,14.977 L134.979,8.738 L132.956,8.738 L132.956,7.191 C133.545336,7.0776661 134.043998,6.94166746 134.452,6.783 C134.860002,6.62433254 135.256665,6.4316678 135.642,6.205 L137.478,6.205 L137.478,14.977 L139.501,14.977 L139.501,17 L132.633,17 Z M144.907,17.204 C144.328997,17.204 143.802002,17.0821679 143.326,16.8385 C142.849998,16.5948321 142.444835,16.2350024 142.1105,15.759 C141.776165,15.2829976 141.515501,14.6936702 141.3285,13.991 C141.141499,13.2883298 141.048,12.4780046 141.048,11.56 C141.048,10.6419954 141.141499,9.83733679 141.3285,9.146 C141.515501,8.45466321 141.776165,7.87383568 142.1105,7.4035 C142.444835,6.93316431 142.849998,6.58183449 143.326,6.3495 C143.802002,6.1171655 144.328997,6.001 144.907,6.001 C145.485003,6.001 146.011998,6.1171655 146.488,6.3495 C146.964002,6.58183449 147.369165,6.93316431 147.7035,7.4035 C148.037835,7.87383568 148.298499,8.45466321 148.4855,9.146 C148.672501,9.83733679 148.766,10.6419954 148.766,11.56 C148.766,12.4780046 148.672501,13.2883298 148.4855,13.991 C148.298499,14.6936702 148.037835,15.2829976 147.7035,15.759 C147.369165,16.2350024 146.964002,16.5948321 146.488,16.8385 C146.011998,17.0821679 145.485003,17.204 144.907,17.204 Z M144.907,15.266 C145.122334,15.266 145.320666,15.2121672 145.502,15.1045 C145.683334,14.9968328 145.841999,14.8013347 145.978,14.518 C146.114001,14.2346652 146.218833,13.8550024 146.2925,13.379 C146.366167,12.9029976 146.403,12.2966703 146.403,11.56 C146.403,10.8233296 146.366167,10.2198357 146.2925,9.7495 C146.218833,9.27916431 146.114001,8.91083466 145.978,8.6445 C145.841999,8.37816533 145.683334,8.19400051 145.502,8.092 C145.320666,7.98999949 145.122334,7.939 144.907,7.939 C144.702999,7.939 144.510334,7.98999949 144.329,8.092 C144.147666,8.19400051 143.989001,8.37816533 143.853,8.6445 C143.716999,8.91083466 143.609334,9.27916431 143.53,9.7495 C143.450666,10.2198357 143.411,10.8233296 143.411,11.56 C143.411,12.2966703 143.450666,12.9029976 143.53,13.379 C143.609334,13.8550024 143.716999,14.2346652 143.853,14.518 C143.989001,14.8013347 144.147666,14.9968328 144.329,15.1045 C144.510334,15.2121672 144.702999,15.266 144.907,15.266 Z M150.5,17 L150.5,8.568 L152.54,8.568 L152.71,9.656 L152.778,9.656 C153.129335,9.30466491 153.503331,9.00150127 153.9,8.7465 C154.296669,8.49149872 154.772664,8.364 155.328,8.364 C155.92867,8.364 156.413165,8.48583211 156.7815,8.7295 C157.149835,8.97316788 157.441666,9.3216644 157.657,9.775 C158.031002,9.38966474 158.424831,9.05816805 158.8385,8.7805 C159.252169,8.50283194 159.742331,8.364 160.309,8.364 C161.215671,8.364 161.881498,8.66716363 162.3065,9.2735 C162.731502,9.87983636 162.944,10.7099947 162.944,11.764 L162.944,17 L160.445,17 L160.445,12.087 C160.445,11.4749969 160.362834,11.0556678 160.1985,10.829 C160.034166,10.6023322 159.770668,10.489 159.408,10.489 C158.988665,10.489 158.507003,10.7609973 157.963,11.305 L157.963,17 L155.464,17 L155.464,12.087 C155.464,11.4749969 155.381834,11.0556678 155.2175,10.829 C155.053166,10.6023322 154.789668,10.489 154.427,10.489 C153.996331,10.489 153.520336,10.7609973 152.999,11.305 L152.999,17 L150.5,17 Z M165.069,17 L165.069,8.568 L167.109,8.568 L167.279,9.656 L167.347,9.656 C167.698335,9.30466491 168.072331,9.00150127 168.469,8.7465 C168.865669,8.49149872 169.341664,8.364 169.897,8.364 C170.49767,8.364 170.982165,8.48583211 171.3505,8.7295 C171.718835,8.97316788 172.010666,9.3216644 172.226,9.775 C172.600002,9.38966474 172.993831,9.05816805 173.4075,8.7805 C173.821169,8.50283194 174.31133,8.364 174.878,8.364 C175.784671,8.364 176.450498,8.66716363 176.8755,9.2735 C177.300502,9.87983636 177.513,10.7099947 177.513,11.764 L177.513,17 L175.014,17 L175.014,12.087 C175.014,11.4749969 174.931834,11.0556678 174.7675,10.829 C174.603166,10.6023322 174.339668,10.489 173.977,10.489 C173.557665,10.489 173.076003,10.7609973 172.532,11.305 L172.532,17 L170.033,17 L170.033,12.087 C170.033,11.4749969 169.950834,11.0556678 169.7865,10.829 C169.622166,10.6023322 169.358668,10.489 168.996,10.489 C168.565331,10.489 168.089336,10.7609973 167.568,11.305 L167.568,17 L165.069,17 Z" id="610mm" fill="#093169" fill-rule="nonzero"></path>
        </g>
    </g>
</svg>