<?xml version="1.0" encoding="UTF-8"?>
<svg width="706px" height="314px" viewBox="0 0 706 314" version="1.1" xmlns="http://www.w3.org/2000/svg" xmlns:xlink="http://www.w3.org/1999/xlink">
    <!-- Generator: Sketch 58 (84663) - https://sketch.com -->
    <title>pierCaps/PC420</title>
    <desc>Created with Sketch.</desc>
    <g id="pierCaps/PC420" stroke="none" stroke-width="1" fill="none" fill-rule="evenodd">
        <rect fill="#F5F9FF" x="0" y="0" width="706" height="314"></rect>
        <g id="Group-2" transform="translate(219.000000, 102.000000)" fill="#FFFFFF" stroke="#CBD8F2">
            <polygon id="Path" stroke-linejoin="bevel" points="0 41 134 0 268 41"></polygon>
            <rect id="Rectangle" x="0" y="41" width="268" height="17"></rect>
            <path d="M266.963994,58 C261.91276,58 257.705722,62.2640678 257.231246,67.4525424 C257.281086,70.8838652 257.306006,72.7330177 257.306006,73 L10.7776043,73 C10.7776043,72.7288798 10.7626523,70.8797272 10.7327483,67.4525424 C10.2582718,62.2640678 6.16345928,58 1,58 C180.396517,58 269.051182,58 266.963994,58 Z" id="Path"></path>
        </g>
        <g id="Group" transform="translate(246.000000, 180.000000)" fill="#FFFFFF" stroke="#FF5959" stroke-opacity="0.6">
            <rect id="Rectangle" x="0" y="0" width="105" height="32"></rect>
            <rect id="Rectangle-Copy-5" x="110" y="0" width="105" height="32"></rect>
        </g>
        <g id="Group-5" transform="translate(232.000000, 227.000000)">
            <polyline id="Rectangle-Copy-2" stroke="#CBD8F2" transform="translate(121.000000, 7.500000) rotate(-180.000000) translate(-121.000000, -7.500000) " points="0.403333333 15 0 0 242 0 242 15"></polyline>
            <path d="M98.465,47 L98.465,44.416 L93.79,44.416 L93.79,42.699 L97.734,36.205 L100.794,36.205 L100.794,42.512 L102.035,42.512 L102.035,44.416 L100.794,44.416 L100.794,47 L98.465,47 Z M96.187,42.512 L98.465,42.512 L98.465,40.761 C98.465,40.4799319 98.4722533,40.1644142 98.48676,39.8144407 L98.5398,38.7835601 C98.5488666,38.6285204 98.5579333,38.4830007 98.567,38.347 L98.499,38.347 L98.074,39.248 L98.074,39.248 C97.9266659,39.5540015 97.7736675,39.8599985 97.615,40.166 L96.187,42.512 Z M106.727,41.186 C107.010335,41.186 107.296499,41.1038342 107.5855,40.9395 C107.874501,40.7751658 108.126666,40.5003353 108.342,40.115 C108.228666,39.2649957 108.016168,38.6785016 107.7045,38.3555 C107.392832,38.0324984 107.044335,37.871 106.659,37.871 C106.296332,37.871 105.979001,38.0098319 105.707,38.2875 C105.434999,38.5651681 105.299,39.0099969 105.299,39.622 C105.299,40.2000029 105.434999,40.6051655 105.707,40.8375 C105.979001,41.0698345 106.318998,41.186 106.727,41.186 Z M106.336,47.204 C105.621996,47.204 105.001503,47.073668 104.4745,46.813 C103.947497,46.552332 103.514002,46.2520017 103.174,45.912 L104.5,44.416 C104.681334,44.620001 104.924998,44.7984992 105.231,44.9515 C105.537002,45.1045008 105.848665,45.181 106.166,45.181 C106.472002,45.181 106.755332,45.1243339 107.016,45.011 C107.276668,44.8976661 107.506166,44.7078347 107.7045,44.4415 C107.902834,44.1751653 108.061499,43.8295021 108.1805,43.4045 C108.299501,42.9794979 108.370333,42.4496698 108.393,41.815 C108.256999,41.9963342 108.098334,42.1578326 107.917,42.2995 C107.735666,42.4411674 107.548668,42.5601662 107.356,42.6565 C107.163332,42.7528338 106.970668,42.8264997 106.778,42.8775 C106.585332,42.9285003 106.404001,42.954 106.234,42.954 C105.769331,42.954 105.341502,42.8860007 104.9505,42.75 C104.559498,42.6139993 104.222335,42.4100014 103.939,42.138 C103.655665,41.8659986 103.431834,41.5203354 103.2675,41.101 C103.103166,40.6816646 103.021,40.1886695 103.021,39.622 C103.021,39.0666639 103.117332,38.5651689 103.31,38.1175 C103.502668,37.6698311 103.760498,37.2873349 104.0835,36.97 C104.406502,36.6526651 104.786164,36.4118342 105.2225,36.2475 C105.658836,36.0831658 106.120664,36.001 106.608,36.001 C107.129336,36.001 107.636498,36.102999 108.1295,36.307 C108.622502,36.511001 109.058831,36.8283312 109.4385,37.259 C109.818169,37.6896688 110.124166,38.2421633 110.3565,38.9165 C110.588834,39.5908367 110.705,40.4039952 110.705,41.356 C110.705,42.3646717 110.583168,43.2373296 110.3395,43.974 C110.095832,44.7106704 109.772835,45.3169976 109.3705,45.793 C108.968165,46.2690024 108.503503,46.6231655 107.9765,46.8555 C107.449497,47.0878345 106.90267,47.204 106.336,47.204 Z M116.417,47 L116.417,44.416 L111.742,44.416 L111.742,42.699 L115.686,36.205 L118.746,36.205 L118.746,42.512 L119.987,42.512 L119.987,44.416 L118.746,44.416 L118.746,47 L116.417,47 Z M114.139,42.512 L116.417,42.512 L116.417,40.761 C116.417,40.4799319 116.424253,40.1644142 116.43876,39.8144407 L116.4918,38.7835601 C116.500867,38.6285204 116.509933,38.4830007 116.519,38.347 L116.451,38.347 L116.026,39.248 L116.026,39.248 C115.878666,39.5540015 115.725667,39.8599985 115.567,40.166 L114.139,42.512 Z M121.5,47 L121.5,38.568 L123.54,38.568 L123.71,39.656 L123.778,39.656 C124.129335,39.3046649 124.503331,39.0015013 124.9,38.7465 C125.296669,38.4914987 125.772664,38.364 126.328,38.364 C126.92867,38.364 127.413165,38.4858321 127.7815,38.7295 C128.149835,38.9731679 128.441666,39.3216644 128.657,39.775 C129.031002,39.3896647 129.424831,39.0581681 129.8385,38.7805 C130.252169,38.5028319 130.742331,38.364 131.309,38.364 C132.215671,38.364 132.881498,38.6671636 133.3065,39.2735 C133.731502,39.8798364 133.944,40.7099947 133.944,41.764 L133.944,47 L131.445,47 L131.445,42.087 C131.445,41.4749969 131.362834,41.0556678 131.1985,40.829 C131.034166,40.6023322 130.770668,40.489 130.408,40.489 C129.988665,40.489 129.507003,40.7609973 128.963,41.305 L128.963,47 L126.464,47 L126.464,42.087 C126.464,41.4749969 126.381834,41.0556678 126.2175,40.829 C126.053166,40.6023322 125.789668,40.489 125.427,40.489 C124.996331,40.489 124.520336,40.7609973 123.999,41.305 L123.999,47 L121.5,47 Z M136.069,47 L136.069,38.568 L138.109,38.568 L138.279,39.656 L138.347,39.656 C138.698335,39.3046649 139.072331,39.0015013 139.469,38.7465 C139.865669,38.4914987 140.341664,38.364 140.897,38.364 C141.49767,38.364 141.982165,38.4858321 142.3505,38.7295 C142.718835,38.9731679 143.010666,39.3216644 143.226,39.775 C143.600002,39.3896647 143.993831,39.0581681 144.4075,38.7805 C144.821169,38.5028319 145.31133,38.364 145.878,38.364 C146.784671,38.364 147.450498,38.6671636 147.8755,39.2735 C148.300502,39.8798364 148.513,40.7099947 148.513,41.764 L148.513,47 L146.014,47 L146.014,42.087 C146.014,41.4749969 145.931834,41.0556678 145.7675,40.829 C145.603166,40.6023322 145.339668,40.489 144.977,40.489 C144.557665,40.489 144.076003,40.7609973 143.532,41.305 L143.532,47 L141.033,47 L141.033,42.087 C141.033,41.4749969 140.950834,41.0556678 140.7865,40.829 C140.622166,40.6023322 140.358668,40.489 139.996,40.489 C139.565331,40.489 139.089336,40.7609973 138.568,41.305 L138.568,47 L136.069,47 Z" id="494mm" fill="#093169" fill-rule="nonzero"></path>
        </g>
        <path d="M515.657,144 L515.657,141.977 L518.003,141.977 L518.003,135.738 L515.98,135.738 L515.98,134.191 C516.569336,134.077666 517.067998,133.941667 517.476,133.783 C517.884002,133.624333 518.280665,133.431668 518.666,133.205 L520.502,133.205 L520.502,141.977 L522.525,141.977 L522.525,144 L515.657,144 Z M528.441,144 L528.441,141.416 L523.766,141.416 L523.766,139.699 L527.71,133.205 L530.77,133.205 L530.77,139.512 L532.011,139.512 L532.011,141.416 L530.77,141.416 L530.77,144 L528.441,144 Z M526.163,139.512 L528.441,139.512 L528.441,137.761 C528.441,137.479932 528.448253,137.164414 528.46276,136.814441 L528.5158,135.78356 C528.524867,135.62852 528.533933,135.483001 528.543,135.347 L528.475,135.347 L528.05,136.248 L528.05,136.248 C527.902666,136.554002 527.749667,136.859998 527.591,137.166 L526.163,139.512 Z M536.618,144.204 C535.733996,144.204 534.986003,144.059501 534.374,143.7705 C533.761997,143.481499 533.240669,143.121669 532.81,142.691 L533.932,141.11 C534.260668,141.404668 534.614831,141.656832 534.9945,141.8665 C535.374169,142.076168 535.796331,142.181 536.261,142.181 C536.816336,142.181 537.258332,142.039335 537.587,141.756 C537.915668,141.472665 538.08,141.053336 538.08,140.498 C538.08,139.953997 537.924168,139.540335 537.6125,139.257 C537.300832,138.973665 536.890003,138.832 536.38,138.832 C536.221333,138.832 536.079667,138.8405 535.955,138.8575 C535.830333,138.8745 535.708501,138.905666 535.5895,138.951 C535.470499,138.996334 535.345834,139.053 535.2155,139.121 C535.085166,139.189 534.940667,139.273999 534.782,139.376 L533.66,138.662 L533.966,133.205 L540.086,133.205 L540.086,135.313 L536.125,135.313 L535.938,137.336 C536.142001,137.245333 536.337499,137.180167 536.5245,137.1405 C536.711501,137.100833 536.918332,137.081 537.145,137.081 C537.609669,137.081 538.048831,137.148999 538.4625,137.285 C538.876169,137.421001 539.241665,137.624999 539.559,137.897 C539.876335,138.169001 540.125666,138.514665 540.307,138.934 C540.488334,139.353335 540.579,139.851997 540.579,140.43 C540.579,141.03067 540.471334,141.563331 540.256,142.028 C540.040666,142.492669 539.751668,142.886498 539.389,143.2095 C539.026332,143.532502 538.604169,143.778999 538.1225,143.949 C537.640831,144.119001 537.139336,144.204 536.618,144.204 Z M542.5,144 L542.5,135.568 L544.54,135.568 L544.71,136.656 L544.778,136.656 C545.129335,136.304665 545.503331,136.001501 545.9,135.7465 C546.296669,135.491499 546.772664,135.364 547.328,135.364 C547.92867,135.364 548.413165,135.485832 548.7815,135.7295 C549.149835,135.973168 549.441666,136.321664 549.657,136.775 C550.031002,136.389665 550.424831,136.058168 550.8385,135.7805 C551.252169,135.502832 551.74233,135.364 552.309,135.364 C553.215671,135.364 553.881498,135.667164 554.3065,136.2735 C554.731502,136.879836 554.944,137.709995 554.944,138.764 L554.944,144 L552.445,144 L552.445,139.087 C552.445,138.474997 552.362834,138.055668 552.1985,137.829 C552.034166,137.602332 551.770668,137.489 551.408,137.489 C550.988665,137.489 550.507003,137.760997 549.963,138.305 L549.963,144 L547.464,144 L547.464,139.087 C547.464,138.474997 547.381834,138.055668 547.2175,137.829 C547.053166,137.602332 546.789668,137.489 546.427,137.489 C545.996331,137.489 545.520336,137.760997 544.999,138.305 L544.999,144 L542.5,144 Z M557.069,144 L557.069,135.568 L559.109,135.568 L559.279,136.656 L559.347,136.656 C559.698335,136.304665 560.072331,136.001501 560.469,135.7465 C560.865669,135.491499 561.341664,135.364 561.897,135.364 C562.49767,135.364 562.982165,135.485832 563.3505,135.7295 C563.718835,135.973168 564.010666,136.321664 564.226,136.775 C564.600002,136.389665 564.993831,136.058168 565.4075,135.7805 C565.821169,135.502832 566.311331,135.364 566.878,135.364 C567.784671,135.364 568.450498,135.667164 568.8755,136.2735 C569.300502,136.879836 569.513,137.709995 569.513,138.764 L569.513,144 L567.014,144 L567.014,139.087 C567.014,138.474997 566.931834,138.055668 566.7675,137.829 C566.603166,137.602332 566.339668,137.489 565.977,137.489 C565.557665,137.489 565.076003,137.760997 564.532,138.305 L564.532,144 L562.033,144 L562.033,139.087 C562.033,138.474997 561.950834,138.055668 561.7865,137.829 C561.622166,137.602332 561.358668,137.489 560.996,137.489 C560.565331,137.489 560.089336,137.760997 559.568,138.305 L559.568,144 L557.069,144 Z" id="145mm" fill="#093169" fill-rule="nonzero" transform="translate(542.585000, 138.704500) rotate(-270.000000) translate(-542.585000, -138.704500) "></path>
        <polyline id="Rectangle-Copy-3" stroke="#CBD8F2" transform="translate(510.000000, 138.500000) rotate(-270.000000) translate(-510.000000, -138.500000) " points="474.12 146 474 131 546 131 546 146"></polyline>
        <polyline id="Rectangle-Copy" stroke="#CBD8F2" points="219.446667 87 219 72 487 72 487 87"></polyline>
        <path d="M329.666,52.204 C328.781996,52.204 328.034003,52.0595014 327.422,51.7705 C326.809997,51.4814986 326.288669,51.1216688 325.858,50.691 L326.98,49.11 C327.308668,49.4046681 327.662831,49.6568323 328.0425,49.8665 C328.422169,50.0761677 328.844331,50.181 329.309,50.181 C329.864336,50.181 330.306332,50.0393348 330.635,49.756 C330.963668,49.4726652 331.128,49.0533361 331.128,48.498 C331.128,47.9539973 330.972168,47.5403347 330.6605,47.257 C330.348832,46.9736652 329.938003,46.832 329.428,46.832 C329.269333,46.832 329.127667,46.8404999 329.003,46.8575 C328.878333,46.8745001 328.756501,46.9056664 328.6375,46.951 C328.518499,46.9963336 328.393834,47.0529997 328.2635,47.121 C328.133166,47.1890003 327.988667,47.2739995 327.83,47.376 L326.708,46.662 L327.014,41.205 L333.134,41.205 L333.134,43.313 L329.173,43.313 L328.986,45.336 C329.190001,45.2453329 329.385499,45.1801669 329.5725,45.1405 C329.759501,45.1008331 329.966332,45.081 330.193,45.081 C330.657669,45.081 331.096831,45.1489993 331.5105,45.285 C331.924169,45.4210007 332.289665,45.6249986 332.607,45.897 C332.924335,46.1690014 333.173666,46.5146646 333.355,46.934 C333.536334,47.3533354 333.627,47.8519971 333.627,48.43 C333.627,49.0306697 333.519334,49.563331 333.304,50.028 C333.088666,50.492669 332.799668,50.8864984 332.437,51.2095 C332.074332,51.5325016 331.652169,51.7789992 331.1705,51.949 C330.688831,52.1190008 330.187336,52.204 329.666,52.204 Z M339.441,52 L339.441,49.416 L334.766,49.416 L334.766,47.699 L338.71,41.205 L341.77,41.205 L341.77,47.512 L343.011,47.512 L343.011,49.416 L341.77,49.416 L341.77,52 L339.441,52 Z M337.163,47.512 L339.441,47.512 L339.441,45.761 C339.441,45.4799319 339.448253,45.1644142 339.46276,44.8144407 L339.5158,43.7835601 C339.524867,43.6285204 339.533933,43.4830007 339.543,43.347 L339.475,43.347 L339.05,44.248 L339.05,44.248 C338.902666,44.5540015 338.749667,44.8599985 338.591,45.166 L337.163,47.512 Z M348.417,52 L348.417,49.416 L343.742,49.416 L343.742,47.699 L347.686,41.205 L350.746,41.205 L350.746,47.512 L351.987,47.512 L351.987,49.416 L350.746,49.416 L350.746,52 L348.417,52 Z M346.139,47.512 L348.417,47.512 L348.417,45.761 C348.417,45.4799319 348.424253,45.1644142 348.43876,44.8144407 L348.4918,43.7835601 C348.500867,43.6285204 348.509933,43.4830007 348.519,43.347 L348.451,43.347 L348.026,44.248 L348.026,44.248 C347.878666,44.5540015 347.725667,44.8599985 347.567,45.166 L346.139,47.512 Z M353.5,52 L353.5,43.568 L355.54,43.568 L355.71,44.656 L355.778,44.656 C356.129335,44.3046649 356.503331,44.0015013 356.9,43.7465 C357.296669,43.4914987 357.772664,43.364 358.328,43.364 C358.92867,43.364 359.413165,43.4858321 359.7815,43.7295 C360.149835,43.9731679 360.441666,44.3216644 360.657,44.775 C361.031002,44.3896647 361.424831,44.0581681 361.8385,43.7805 C362.252169,43.5028319 362.74233,43.364 363.309,43.364 C364.215671,43.364 364.881498,43.6671636 365.3065,44.2735 C365.731502,44.8798364 365.944,45.7099947 365.944,46.764 L365.944,52 L363.445,52 L363.445,47.087 C363.445,46.4749969 363.362834,46.0556678 363.1985,45.829 C363.034166,45.6023322 362.770668,45.489 362.408,45.489 C361.988665,45.489 361.507003,45.7609973 360.963,46.305 L360.963,52 L358.464,52 L358.464,47.087 C358.464,46.4749969 358.381834,46.0556678 358.2175,45.829 C358.053166,45.6023322 357.789668,45.489 357.427,45.489 C356.996331,45.489 356.520336,45.7609973 355.999,46.305 L355.999,52 L353.5,52 Z M368.069,52 L368.069,43.568 L370.109,43.568 L370.279,44.656 L370.347,44.656 C370.698335,44.3046649 371.072331,44.0015013 371.469,43.7465 C371.865669,43.4914987 372.341664,43.364 372.897,43.364 C373.49767,43.364 373.982165,43.4858321 374.3505,43.7295 C374.718835,43.9731679 375.010666,44.3216644 375.226,44.775 C375.600002,44.3896647 375.993831,44.0581681 376.4075,43.7805 C376.821169,43.5028319 377.31133,43.364 377.878,43.364 C378.784671,43.364 379.450498,43.6671636 379.8755,44.2735 C380.300502,44.8798364 380.513,45.7099947 380.513,46.764 L380.513,52 L378.014,52 L378.014,47.087 C378.014,46.4749969 377.931834,46.0556678 377.7675,45.829 C377.603166,45.6023322 377.339668,45.489 376.977,45.489 C376.557665,45.489 376.076003,45.7609973 375.532,46.305 L375.532,52 L373.033,52 L373.033,47.087 C373.033,46.4749969 372.950834,46.0556678 372.7865,45.829 C372.622166,45.6023322 372.358668,45.489 371.996,45.489 C371.565331,45.489 371.089336,45.7609973 370.568,46.305 L370.568,52 L368.069,52 Z" id="544mm" fill="#093169" fill-rule="nonzero"></path>
    </g>
</svg>