<?xml version="1.0" encoding="UTF-8"?>
<svg width="706px" height="314px" viewBox="0 0 706 314" version="1.1" xmlns="http://www.w3.org/2000/svg" xmlns:xlink="http://www.w3.org/1999/xlink">
    <!-- Generator: Sketch 58 (84663) - https://sketch.com -->
    <title>pierCaps/PC430</title>
    <desc>Created with Sketch.</desc>
    <g id="pierCaps/PC430" stroke="none" stroke-width="1" fill="none" fill-rule="evenodd">
        <rect fill="#F5F9FF" x="0" y="0" width="706" height="314"></rect>
        <g id="Group-2" transform="translate(196.000000, 102.000000)" fill="#FFFFFF" stroke="#CBD8F2">
            <polygon id="Path" stroke-linejoin="bevel" points="0 41.0074627 157 4.33431069e-13 314 41.0074627"></polygon>
            <rect id="Rectangle" x="0" y="41" width="314" height="17"></rect>
            <path d="M313.957497,58 C307.994762,58 303.060096,62.2640678 302.5,67.4525424 C302.5,71.1508475 302.5,73 302.5,73 L11.5,73 C11.5,73 11.5,71.1508475 11.5,67.4525424 C10.9399037,62.2640678 6.09521133,58 0,58 C211.768821,58 316.42132,58 313.957497,58 Z" id="Path"></path>
        </g>
        <g id="Group" transform="translate(217.000000, 180.000000)" fill="#FFFFFF" stroke="#FF5959" stroke-opacity="0.6">
            <rect id="Rectangle" x="0" y="0" width="105" height="32"></rect>
            <rect id="Rectangle-Copy-5" x="110" y="0" width="105" height="32"></rect>
            <rect id="Rectangle-Copy-6" x="220" y="0" width="52" height="32"></rect>
        </g>
        <g id="Group-6" transform="translate(207.000000, 227.000000)">
            <polyline id="Rectangle-Copy-2" stroke="#CBD8F2" transform="translate(146.000000, 7.500000) rotate(-180.000000) translate(-146.000000, -7.500000) " points="0.486666667 15 0 0 292 0 292 15"></polyline>
            <path d="M122.666,47.204 C121.781996,47.204 121.034003,47.0595014 120.422,46.7705 C119.809997,46.4814986 119.288669,46.1216688 118.858,45.691 L119.98,44.11 C120.308668,44.4046681 120.662831,44.6568323 121.0425,44.8665 C121.422169,45.0761677 121.844331,45.181 122.309,45.181 C122.864336,45.181 123.306332,45.0393348 123.635,44.756 C123.963668,44.4726652 124.128,44.0533361 124.128,43.498 C124.128,42.9539973 123.972168,42.5403347 123.6605,42.257 C123.348832,41.9736652 122.938003,41.832 122.428,41.832 C122.269333,41.832 122.127667,41.8404999 122.003,41.8575 C121.878333,41.8745001 121.756501,41.9056664 121.6375,41.951 C121.518499,41.9963336 121.393834,42.0529997 121.2635,42.121 C121.133166,42.1890003 120.988667,42.2739995 120.83,42.376 L119.708,41.662 L120.014,36.205 L126.134,36.205 L126.134,38.313 L122.173,38.313 L121.986,40.336 C122.190001,40.2453329 122.385499,40.1801669 122.5725,40.1405 C122.759501,40.1008331 122.966332,40.081 123.193,40.081 C123.657669,40.081 124.096831,40.1489993 124.5105,40.285 C124.924169,40.4210007 125.289665,40.6249986 125.607,40.897 C125.924335,41.1690014 126.173666,41.5146646 126.355,41.934 C126.536334,42.3533354 126.627,42.8519971 126.627,43.43 C126.627,44.0306697 126.519334,44.563331 126.304,45.028 C126.088666,45.492669 125.799668,45.8864984 125.437,46.2095 C125.074332,46.5325016 124.652169,46.7789992 124.1705,46.949 C123.688831,47.1190008 123.187336,47.204 122.666,47.204 Z M131.727,41.186 C132.010335,41.186 132.296499,41.1038342 132.5855,40.9395 C132.874501,40.7751658 133.126666,40.5003353 133.342,40.115 C133.228666,39.2649957 133.016168,38.6785016 132.7045,38.3555 C132.392832,38.0324984 132.044335,37.871 131.659,37.871 C131.296332,37.871 130.979001,38.0098319 130.707,38.2875 C130.434999,38.5651681 130.299,39.0099969 130.299,39.622 C130.299,40.2000029 130.434999,40.6051655 130.707,40.8375 C130.979001,41.0698345 131.318998,41.186 131.727,41.186 Z M131.336,47.204 C130.621996,47.204 130.001503,47.073668 129.4745,46.813 C128.947497,46.552332 128.514002,46.2520017 128.174,45.912 L129.5,44.416 C129.681334,44.620001 129.924998,44.7984992 130.231,44.9515 C130.537002,45.1045008 130.848665,45.181 131.166,45.181 C131.472002,45.181 131.755332,45.1243339 132.016,45.011 C132.276668,44.8976661 132.506166,44.7078347 132.7045,44.4415 C132.902834,44.1751653 133.061499,43.8295021 133.1805,43.4045 C133.299501,42.9794979 133.370333,42.4496698 133.393,41.815 C133.256999,41.9963342 133.098334,42.1578326 132.917,42.2995 C132.735666,42.4411674 132.548668,42.5601662 132.356,42.6565 C132.163332,42.7528338 131.970668,42.8264997 131.778,42.8775 C131.585332,42.9285003 131.404001,42.954 131.234,42.954 C130.769331,42.954 130.341502,42.8860007 129.9505,42.75 C129.559498,42.6139993 129.222335,42.4100014 128.939,42.138 C128.655665,41.8659986 128.431834,41.5203354 128.2675,41.101 C128.103166,40.6816646 128.021,40.1886695 128.021,39.622 C128.021,39.0666639 128.117332,38.5651689 128.31,38.1175 C128.502668,37.6698311 128.760498,37.2873349 129.0835,36.97 C129.406502,36.6526651 129.786164,36.4118342 130.2225,36.2475 C130.658836,36.0831658 131.120664,36.001 131.608,36.001 C132.129336,36.001 132.636498,36.102999 133.1295,36.307 C133.622502,36.511001 134.058831,36.8283312 134.4385,37.259 C134.818169,37.6896688 135.124166,38.2421633 135.3565,38.9165 C135.588834,39.5908367 135.705,40.4039952 135.705,41.356 C135.705,42.3646717 135.583168,43.2373296 135.3395,43.974 C135.095832,44.7106704 134.772835,45.3169976 134.3705,45.793 C133.968165,46.2690024 133.503503,46.6231655 132.9765,46.8555 C132.449497,47.0878345 131.90267,47.204 131.336,47.204 Z M140.907,47.204 C140.328997,47.204 139.802002,47.0821679 139.326,46.8385 C138.849998,46.5948321 138.444835,46.2350024 138.1105,45.759 C137.776165,45.2829976 137.515501,44.6936702 137.3285,43.991 C137.141499,43.2883298 137.048,42.4780046 137.048,41.56 C137.048,40.6419954 137.141499,39.8373368 137.3285,39.146 C137.515501,38.4546632 137.776165,37.8738357 138.1105,37.4035 C138.444835,36.9331643 138.849998,36.5818345 139.326,36.3495 C139.802002,36.1171655 140.328997,36.001 140.907,36.001 C141.485003,36.001 142.011998,36.1171655 142.488,36.3495 C142.964002,36.5818345 143.369165,36.9331643 143.7035,37.4035 C144.037835,37.8738357 144.298499,38.4546632 144.4855,39.146 C144.672501,39.8373368 144.766,40.6419954 144.766,41.56 C144.766,42.4780046 144.672501,43.2883298 144.4855,43.991 C144.298499,44.6936702 144.037835,45.2829976 143.7035,45.759 C143.369165,46.2350024 142.964002,46.5948321 142.488,46.8385 C142.011998,47.0821679 141.485003,47.204 140.907,47.204 Z M140.907,45.266 C141.122334,45.266 141.320666,45.2121672 141.502,45.1045 C141.683334,44.9968328 141.841999,44.8013347 141.978,44.518 C142.114001,44.2346652 142.218833,43.8550024 142.2925,43.379 C142.366167,42.9029976 142.403,42.2966703 142.403,41.56 C142.403,40.8233296 142.366167,40.2198357 142.2925,39.7495 C142.218833,39.2791643 142.114001,38.9108347 141.978,38.6445 C141.841999,38.3781653 141.683334,38.1940005 141.502,38.092 C141.320666,37.9899995 141.122334,37.939 140.907,37.939 C140.702999,37.939 140.510334,37.9899995 140.329,38.092 C140.147666,38.1940005 139.989001,38.3781653 139.853,38.6445 C139.716999,38.9108347 139.609334,39.2791643 139.53,39.7495 C139.450666,40.2198357 139.411,40.8233296 139.411,41.56 C139.411,42.2966703 139.450666,42.9029976 139.53,43.379 C139.609334,43.8550024 139.716999,44.2346652 139.853,44.518 C139.989001,44.8013347 140.147666,44.9968328 140.329,45.1045 C140.510334,45.2121672 140.702999,45.266 140.907,45.266 Z M146.5,47 L146.5,38.568 L148.54,38.568 L148.71,39.656 L148.778,39.656 C149.129335,39.3046649 149.503331,39.0015013 149.9,38.7465 C150.296669,38.4914987 150.772664,38.364 151.328,38.364 C151.92867,38.364 152.413165,38.4858321 152.7815,38.7295 C153.149835,38.9731679 153.441666,39.3216644 153.657,39.775 C154.031002,39.3896647 154.424831,39.0581681 154.8385,38.7805 C155.252169,38.5028319 155.742331,38.364 156.309,38.364 C157.215671,38.364 157.881498,38.6671636 158.3065,39.2735 C158.731502,39.8798364 158.944,40.7099947 158.944,41.764 L158.944,47 L156.445,47 L156.445,42.087 C156.445,41.4749969 156.362834,41.0556678 156.1985,40.829 C156.034166,40.6023322 155.770668,40.489 155.408,40.489 C154.988665,40.489 154.507003,40.7609973 153.963,41.305 L153.963,47 L151.464,47 L151.464,42.087 C151.464,41.4749969 151.381834,41.0556678 151.2175,40.829 C151.053166,40.6023322 150.789668,40.489 150.427,40.489 C149.996331,40.489 149.520336,40.7609973 148.999,41.305 L148.999,47 L146.5,47 Z M161.069,47 L161.069,38.568 L163.109,38.568 L163.279,39.656 L163.347,39.656 C163.698335,39.3046649 164.072331,39.0015013 164.469,38.7465 C164.865669,38.4914987 165.341664,38.364 165.897,38.364 C166.49767,38.364 166.982165,38.4858321 167.3505,38.7295 C167.718835,38.9731679 168.010666,39.3216644 168.226,39.775 C168.600002,39.3896647 168.993831,39.0581681 169.4075,38.7805 C169.821169,38.5028319 170.31133,38.364 170.878,38.364 C171.784671,38.364 172.450498,38.6671636 172.8755,39.2735 C173.300502,39.8798364 173.513,40.7099947 173.513,41.764 L173.513,47 L171.014,47 L171.014,42.087 C171.014,41.4749969 170.931834,41.0556678 170.7675,40.829 C170.603166,40.6023322 170.339668,40.489 169.977,40.489 C169.557665,40.489 169.076003,40.7609973 168.532,41.305 L168.532,47 L166.033,47 L166.033,42.087 C166.033,41.4749969 165.950834,41.0556678 165.7865,40.829 C165.622166,40.6023322 165.358668,40.489 164.996,40.489 C164.565331,40.489 164.089336,40.7609973 163.568,41.305 L163.568,47 L161.069,47 Z" id="590mm" fill="#093169" fill-rule="nonzero"></path>
        </g>
        <g id="Group-7" transform="translate(526.000000, 102.000000)">
            <path d="M14.157,43 L14.157,40.977 L16.503,40.977 L16.503,34.738 L14.48,34.738 L14.48,33.191 C15.0693363,33.0776661 15.567998,32.9416675 15.976,32.783 C16.384002,32.6243325 16.7806647,32.4316678 17.166,32.205 L19.002,32.205 L19.002,40.977 L21.025,40.977 L21.025,43 L14.157,43 Z M26.941,43 L26.941,40.416 L22.266,40.416 L22.266,38.699 L26.21,32.205 L29.27,32.205 L29.27,38.512 L30.511,38.512 L30.511,40.416 L29.27,40.416 L29.27,43 L26.941,43 Z M24.663,38.512 L26.941,38.512 L26.941,36.761 C26.941,36.4799319 26.9482533,36.1644142 26.96276,35.8144407 L27.0158,34.7835601 C27.0248666,34.6285204 27.0339333,34.4830007 27.043,34.347 L26.975,34.347 L26.55,35.248 L26.55,35.248 C26.4026659,35.5540015 26.2496675,35.8599985 26.091,36.166 L24.663,38.512 Z M35.118,43.204 C34.2339956,43.204 33.4860031,43.0595014 32.874,42.7705 C32.2619969,42.4814986 31.7406688,42.1216688 31.31,41.691 L32.432,40.11 C32.7606683,40.4046681 33.1148314,40.6568323 33.4945,40.8665 C33.8741686,41.0761677 34.296331,41.181 34.761,41.181 C35.3163361,41.181 35.7583317,41.0393348 36.087,40.756 C36.4156683,40.4726652 36.58,40.0533361 36.58,39.498 C36.58,38.9539973 36.4241682,38.5403347 36.1125,38.257 C35.8008318,37.9736652 35.3900025,37.832 34.88,37.832 C34.7213325,37.832 34.5796673,37.8404999 34.455,37.8575 C34.3303327,37.8745001 34.2085006,37.9056664 34.0895,37.951 C33.9704994,37.9963336 33.845834,38.0529997 33.7155,38.121 C33.585166,38.1890003 33.4406675,38.2739995 33.282,38.376 L32.16,37.662 L32.466,32.205 L38.586,32.205 L38.586,34.313 L34.625,34.313 L34.438,36.336 C34.642001,36.2453329 34.8374991,36.1801669 35.0245,36.1405 C35.2115009,36.1008331 35.4183322,36.081 35.645,36.081 C36.109669,36.081 36.5488313,36.1489993 36.9625,36.285 C37.3761687,36.4210007 37.7416651,36.6249986 38.059,36.897 C38.3763349,37.1690014 38.6256658,37.5146646 38.807,37.934 C38.9883342,38.3533354 39.079,38.8519971 39.079,39.43 C39.079,40.0306697 38.9713344,40.563331 38.756,41.028 C38.5406656,41.492669 38.2516685,41.8864984 37.889,42.2095 C37.5263315,42.5325016 37.1041691,42.7789992 36.6225,42.949 C36.1408309,43.1190008 35.6393359,43.204 35.118,43.204 Z M41,43 L41,34.568 L43.04,34.568 L43.21,35.656 L43.278,35.656 C43.6293351,35.3046649 44.0033314,35.0015013 44.4,34.7465 C44.7966687,34.4914987 45.2726639,34.364 45.828,34.364 C46.4286697,34.364 46.9131648,34.4858321 47.2815,34.7295 C47.6498352,34.9731679 47.9416656,35.3216644 48.157,35.775 C48.5310019,35.3896647 48.9248313,35.0581681 49.3385,34.7805 C49.7521687,34.5028319 50.2423305,34.364 50.809,34.364 C51.7156712,34.364 52.3814979,34.6671636 52.8065,35.2735 C53.2315021,35.8798364 53.444,36.7099947 53.444,37.764 L53.444,43 L50.945,43 L50.945,38.087 C50.945,37.4749969 50.8628342,37.0556678 50.6985,36.829 C50.5341658,36.6023322 50.2706685,36.489 49.908,36.489 C49.4886646,36.489 49.0070027,36.7609973 48.463,37.305 L48.463,43 L45.964,43 L45.964,38.087 C45.964,37.4749969 45.8818342,37.0556678 45.7175,36.829 C45.5531658,36.6023322 45.2896685,36.489 44.927,36.489 C44.4963312,36.489 44.0203359,36.7609973 43.499,37.305 L43.499,43 L41,43 Z M55.569,43 L55.569,34.568 L57.609,34.568 L57.779,35.656 L57.847,35.656 C58.1983351,35.3046649 58.5723314,35.0015013 58.969,34.7465 C59.3656687,34.4914987 59.8416639,34.364 60.397,34.364 C60.9976697,34.364 61.4821648,34.4858321 61.8505,34.7295 C62.2188352,34.9731679 62.5106656,35.3216644 62.726,35.775 C63.1000019,35.3896647 63.4938313,35.0581681 63.9075,34.7805 C64.3211687,34.5028319 64.8113305,34.364 65.378,34.364 C66.2846712,34.364 66.9504979,34.6671636 67.3755,35.2735 C67.8005021,35.8798364 68.013,36.7099947 68.013,37.764 L68.013,43 L65.514,43 L65.514,38.087 C65.514,37.4749969 65.4318342,37.0556678 65.2675,36.829 C65.1031658,36.6023322 64.8396685,36.489 64.477,36.489 C64.0576646,36.489 63.5760027,36.7609973 63.032,37.305 L63.032,43 L60.533,43 L60.533,38.087 C60.533,37.4749969 60.4508342,37.0556678 60.2865,36.829 C60.1221658,36.6023322 59.8586685,36.489 59.496,36.489 C59.0653312,36.489 58.5893359,36.7609973 58.068,37.305 L58.068,43 L55.569,43 Z" id="145mm" fill="#093169" fill-rule="nonzero" transform="translate(41.085000, 37.704500) rotate(-270.000000) translate(-41.085000, -37.704500) "></path>
            <polyline id="Rectangle-Copy-3" stroke="#CBD8F2" transform="translate(7.500000, 36.500000) rotate(-270.000000) translate(-7.500000, -36.500000) " points="-28.8783333 44 -29 29 44 29 44 44"></polyline>
        </g>
        <g id="Group-4" transform="translate(196.000000, 35.000000)">
            <polyline id="Rectangle-Copy" stroke="#CBD8F2" points="0.523333333 52 0 37 314 37 314 52"></polyline>
            <path d="M134.244,17.204 C133.722664,17.204 133.215502,17.102001 132.7225,16.898 C132.229498,16.693999 131.793169,16.3766688 131.4135,15.946 C131.033831,15.5153312 130.730668,14.9628367 130.504,14.2885 C130.277332,13.6141633 130.164,12.8010048 130.164,11.849 C130.164,10.8403283 130.285832,9.96767035 130.5295,9.231 C130.773168,8.49432965 131.096165,7.88800238 131.4985,7.412 C131.900835,6.93599762 132.365497,6.58183449 132.8925,6.3495 C133.419503,6.1171655 133.96633,6.001 134.533,6.001 C135.247004,6.001 135.864664,6.12849873 136.386,6.3835 C136.907336,6.63850127 137.337998,6.94166491 137.678,7.293 L136.369,8.789 C136.176332,8.58499898 135.927002,8.40650076 135.621,8.2535 C135.314998,8.10049923 135.003335,8.024 134.686,8.024 C134.391332,8.024 134.113668,8.0806661 133.853,8.194 C133.592332,8.3073339 133.362834,8.49716533 133.1645,8.7635 C132.966166,9.02983466 132.804667,9.37833118 132.68,9.809 C132.555333,10.2396688 132.481667,10.7666636 132.459,11.39 C132.595001,11.2086658 132.753666,11.0471674 132.935,10.9055 C133.116334,10.7638326 133.303332,10.6448338 133.496,10.5485 C133.688668,10.4521662 133.881332,10.3785003 134.074,10.3275 C134.266668,10.2764997 134.447999,10.251 134.618,10.251 C135.082669,10.251 135.510498,10.3189993 135.9015,10.455 C136.292502,10.5910007 136.632499,10.7949986 136.9215,11.067 C137.210501,11.3390014 137.434333,11.6846646 137.593,12.104 C137.751667,12.5233354 137.831,13.0163305 137.831,13.583 C137.831,14.1496695 137.734668,14.6539978 137.542,15.096 C137.349332,15.5380022 137.091502,15.9176651 136.7685,16.235 C136.445498,16.5523349 136.065836,16.7931658 135.6295,16.9575 C135.193164,17.1218342 134.731336,17.204 134.244,17.204 Z M134.193,15.334 C134.567002,15.334 134.887165,15.1951681 135.1535,14.9175 C135.419835,14.6398319 135.553,14.1950031 135.553,13.583 C135.553,13.0049971 135.419835,12.5998345 135.1535,12.3675 C134.887165,12.1351655 134.550002,12.019 134.142,12.019 C133.858665,12.019 133.572501,12.1011658 133.2835,12.2655 C132.994499,12.4298342 132.736668,12.7046647 132.51,13.09 C132.566667,13.5206688 132.651666,13.8776652 132.765,14.161 C132.878334,14.4443347 133.008666,14.6738325 133.156,14.8495 C133.303334,15.0251675 133.464832,15.149833 133.6405,15.2235 C133.816168,15.297167 134.000332,15.334 134.193,15.334 Z M143.441,17 L143.441,14.416 L138.766,14.416 L138.766,12.699 L142.71,6.205 L145.77,6.205 L145.77,12.512 L147.011,12.512 L147.011,14.416 L145.77,14.416 L145.77,17 L143.441,17 Z M141.163,12.512 L143.441,12.512 L143.441,10.761 C143.441,10.4799319 143.448253,10.1644142 143.46276,9.81444071 L143.5158,8.78356007 C143.524867,8.62852045 143.533933,8.48300068 143.543,8.347 L143.475,8.347 L143.05,9.248 L143.05,9.248 C142.902666,9.55400153 142.749667,9.85999847 142.591,10.166 L141.163,12.512 Z M151.907,17.204 C151.328997,17.204 150.802002,17.0821679 150.326,16.8385 C149.849998,16.5948321 149.444835,16.2350024 149.1105,15.759 C148.776165,15.2829976 148.515501,14.6936702 148.3285,13.991 C148.141499,13.2883298 148.048,12.4780046 148.048,11.56 C148.048,10.6419954 148.141499,9.83733679 148.3285,9.146 C148.515501,8.45466321 148.776165,7.87383568 149.1105,7.4035 C149.444835,6.93316431 149.849998,6.58183449 150.326,6.3495 C150.802002,6.1171655 151.328997,6.001 151.907,6.001 C152.485003,6.001 153.011998,6.1171655 153.488,6.3495 C153.964002,6.58183449 154.369165,6.93316431 154.7035,7.4035 C155.037835,7.87383568 155.298499,8.45466321 155.4855,9.146 C155.672501,9.83733679 155.766,10.6419954 155.766,11.56 C155.766,12.4780046 155.672501,13.2883298 155.4855,13.991 C155.298499,14.6936702 155.037835,15.2829976 154.7035,15.759 C154.369165,16.2350024 153.964002,16.5948321 153.488,16.8385 C153.011998,17.0821679 152.485003,17.204 151.907,17.204 Z M151.907,15.266 C152.122334,15.266 152.320666,15.2121672 152.502,15.1045 C152.683334,14.9968328 152.841999,14.8013347 152.978,14.518 C153.114001,14.2346652 153.218833,13.8550024 153.2925,13.379 C153.366167,12.9029976 153.403,12.2966703 153.403,11.56 C153.403,10.8233296 153.366167,10.2198357 153.2925,9.7495 C153.218833,9.27916431 153.114001,8.91083466 152.978,8.6445 C152.841999,8.37816533 152.683334,8.19400051 152.502,8.092 C152.320666,7.98999949 152.122334,7.939 151.907,7.939 C151.702999,7.939 151.510334,7.98999949 151.329,8.092 C151.147666,8.19400051 150.989001,8.37816533 150.853,8.6445 C150.716999,8.91083466 150.609334,9.27916431 150.53,9.7495 C150.450666,10.2198357 150.411,10.8233296 150.411,11.56 C150.411,12.2966703 150.450666,12.9029976 150.53,13.379 C150.609334,13.8550024 150.716999,14.2346652 150.853,14.518 C150.989001,14.8013347 151.147666,14.9968328 151.329,15.1045 C151.510334,15.2121672 151.702999,15.266 151.907,15.266 Z M157.5,17 L157.5,8.568 L159.54,8.568 L159.71,9.656 L159.778,9.656 C160.129335,9.30466491 160.503331,9.00150127 160.9,8.7465 C161.296669,8.49149872 161.772664,8.364 162.328,8.364 C162.92867,8.364 163.413165,8.48583211 163.7815,8.7295 C164.149835,8.97316788 164.441666,9.3216644 164.657,9.775 C165.031002,9.38966474 165.424831,9.05816805 165.8385,8.7805 C166.252169,8.50283194 166.742331,8.364 167.309,8.364 C168.215671,8.364 168.881498,8.66716363 169.3065,9.2735 C169.731502,9.87983636 169.944,10.7099947 169.944,11.764 L169.944,17 L167.445,17 L167.445,12.087 C167.445,11.4749969 167.362834,11.0556678 167.1985,10.829 C167.034166,10.6023322 166.770668,10.489 166.408,10.489 C165.988665,10.489 165.507003,10.7609973 164.963,11.305 L164.963,17 L162.464,17 L162.464,12.087 C162.464,11.4749969 162.381834,11.0556678 162.2175,10.829 C162.053166,10.6023322 161.789668,10.489 161.427,10.489 C160.996331,10.489 160.520336,10.7609973 159.999,11.305 L159.999,17 L157.5,17 Z M172.069,17 L172.069,8.568 L174.109,8.568 L174.279,9.656 L174.347,9.656 C174.698335,9.30466491 175.072331,9.00150127 175.469,8.7465 C175.865669,8.49149872 176.341664,8.364 176.897,8.364 C177.49767,8.364 177.982165,8.48583211 178.3505,8.7295 C178.718835,8.97316788 179.010666,9.3216644 179.226,9.775 C179.600002,9.38966474 179.993831,9.05816805 180.4075,8.7805 C180.821169,8.50283194 181.31133,8.364 181.878,8.364 C182.784671,8.364 183.450498,8.66716363 183.8755,9.2735 C184.300502,9.87983636 184.513,10.7099947 184.513,11.764 L184.513,17 L182.014,17 L182.014,12.087 C182.014,11.4749969 181.931834,11.0556678 181.7675,10.829 C181.603166,10.6023322 181.339668,10.489 180.977,10.489 C180.557665,10.489 180.076003,10.7609973 179.532,11.305 L179.532,17 L177.033,17 L177.033,12.087 C177.033,11.4749969 176.950834,11.0556678 176.7865,10.829 C176.622166,10.6023322 176.358668,10.489 175.996,10.489 C175.565331,10.489 175.089336,10.7609973 174.568,11.305 L174.568,17 L172.069,17 Z" id="640mm" fill="#093169" fill-rule="nonzero"></path>
        </g>
    </g>
</svg>