<?xml version="1.0" encoding="UTF-8"?>
<svg width="706px" height="314px" viewBox="0 0 706 314" version="1.1" xmlns="http://www.w3.org/2000/svg" xmlns:xlink="http://www.w3.org/1999/xlink">
    <!-- Generator: Sketch 58 (84663) - https://sketch.com -->
    <title>pierCaps/PC450</title>
    <desc>Created with Sketch.</desc>
    <g id="pierCaps/PC450" stroke="none" stroke-width="1" fill="none" fill-rule="evenodd">
        <rect fill="#F5F9FF" x="0" y="0" width="706" height="314"></rect>
        <g id="Group-2" transform="translate(139.000000, 102.000000)" fill="#FFFFFF" stroke="#CBD8F2">
            <polygon id="Path" stroke-linejoin="bevel" points="0 41.0074627 214 4.29878355e-13 428 41.0074627"></polygon>
            <rect id="Rectangle" x="0" y="41" width="428" height="17"></rect>
            <path d="M427.942065,58 C419.814516,58 415.088284,63.2640678 414.324841,68.4525424 C414.324841,72.1508475 414.324841,73.6666667 414.324841,73 L13.6751592,73 C13.6751592,73.6666667 13.6751592,72.1508475 13.6751592,68.4525424 C12.9117159,63.2640678 8.30812245,58 0,58 C288.653042,58 431.300397,58 427.942065,58 Z" id="Path"></path>
        </g>
        <g id="Group-7" transform="translate(582.000000, 102.000000)">
            <path d="M14.157,43 L14.157,40.977 L16.503,40.977 L16.503,34.738 L14.48,34.738 L14.48,33.191 C15.0693363,33.0776661 15.567998,32.9416675 15.976,32.783 C16.384002,32.6243325 16.7806647,32.4316678 17.166,32.205 L19.002,32.205 L19.002,40.977 L21.025,40.977 L21.025,43 L14.157,43 Z M26.941,43 L26.941,40.416 L22.266,40.416 L22.266,38.699 L26.21,32.205 L29.27,32.205 L29.27,38.512 L30.511,38.512 L30.511,40.416 L29.27,40.416 L29.27,43 L26.941,43 Z M24.663,38.512 L26.941,38.512 L26.941,36.761 C26.941,36.4799319 26.9482533,36.1644142 26.96276,35.8144407 L27.0158,34.7835601 C27.0248666,34.6285204 27.0339333,34.4830007 27.043,34.347 L26.975,34.347 L26.55,35.248 L26.55,35.248 C26.4026659,35.5540015 26.2496675,35.8599985 26.091,36.166 L24.663,38.512 Z M35.118,43.204 C34.2339956,43.204 33.4860031,43.0595014 32.874,42.7705 C32.2619969,42.4814986 31.7406688,42.1216688 31.31,41.691 L32.432,40.11 C32.7606683,40.4046681 33.1148314,40.6568323 33.4945,40.8665 C33.8741686,41.0761677 34.296331,41.181 34.761,41.181 C35.3163361,41.181 35.7583317,41.0393348 36.087,40.756 C36.4156683,40.4726652 36.58,40.0533361 36.58,39.498 C36.58,38.9539973 36.4241682,38.5403347 36.1125,38.257 C35.8008318,37.9736652 35.3900025,37.832 34.88,37.832 C34.7213325,37.832 34.5796673,37.8404999 34.455,37.8575 C34.3303327,37.8745001 34.2085006,37.9056664 34.0895,37.951 C33.9704994,37.9963336 33.845834,38.0529997 33.7155,38.121 C33.585166,38.1890003 33.4406675,38.2739995 33.282,38.376 L32.16,37.662 L32.466,32.205 L38.586,32.205 L38.586,34.313 L34.625,34.313 L34.438,36.336 C34.642001,36.2453329 34.8374991,36.1801669 35.0245,36.1405 C35.2115009,36.1008331 35.4183322,36.081 35.645,36.081 C36.109669,36.081 36.5488313,36.1489993 36.9625,36.285 C37.3761687,36.4210007 37.7416651,36.6249986 38.059,36.897 C38.3763349,37.1690014 38.6256658,37.5146646 38.807,37.934 C38.9883342,38.3533354 39.079,38.8519971 39.079,39.43 C39.079,40.0306697 38.9713344,40.563331 38.756,41.028 C38.5406656,41.492669 38.2516685,41.8864984 37.889,42.2095 C37.5263315,42.5325016 37.1041691,42.7789992 36.6225,42.949 C36.1408309,43.1190008 35.6393359,43.204 35.118,43.204 Z M41,43 L41,34.568 L43.04,34.568 L43.21,35.656 L43.278,35.656 C43.6293351,35.3046649 44.0033314,35.0015013 44.4,34.7465 C44.7966687,34.4914987 45.2726639,34.364 45.828,34.364 C46.4286697,34.364 46.9131648,34.4858321 47.2815,34.7295 C47.6498352,34.9731679 47.9416656,35.3216644 48.157,35.775 C48.5310019,35.3896647 48.9248313,35.0581681 49.3385,34.7805 C49.7521687,34.5028319 50.2423305,34.364 50.809,34.364 C51.7156712,34.364 52.3814979,34.6671636 52.8065,35.2735 C53.2315021,35.8798364 53.444,36.7099947 53.444,37.764 L53.444,43 L50.945,43 L50.945,38.087 C50.945,37.4749969 50.8628342,37.0556678 50.6985,36.829 C50.5341658,36.6023322 50.2706685,36.489 49.908,36.489 C49.4886646,36.489 49.0070027,36.7609973 48.463,37.305 L48.463,43 L45.964,43 L45.964,38.087 C45.964,37.4749969 45.8818342,37.0556678 45.7175,36.829 C45.5531658,36.6023322 45.2896685,36.489 44.927,36.489 C44.4963312,36.489 44.0203359,36.7609973 43.499,37.305 L43.499,43 L41,43 Z M55.569,43 L55.569,34.568 L57.609,34.568 L57.779,35.656 L57.847,35.656 C58.1983351,35.3046649 58.5723314,35.0015013 58.969,34.7465 C59.3656687,34.4914987 59.8416639,34.364 60.397,34.364 C60.9976697,34.364 61.4821648,34.4858321 61.8505,34.7295 C62.2188352,34.9731679 62.5106656,35.3216644 62.726,35.775 C63.1000019,35.3896647 63.4938313,35.0581681 63.9075,34.7805 C64.3211687,34.5028319 64.8113305,34.364 65.378,34.364 C66.2846712,34.364 66.9504979,34.6671636 67.3755,35.2735 C67.8005021,35.8798364 68.013,36.7099947 68.013,37.764 L68.013,43 L65.514,43 L65.514,38.087 C65.514,37.4749969 65.4318342,37.0556678 65.2675,36.829 C65.1031658,36.6023322 64.8396685,36.489 64.477,36.489 C64.0576646,36.489 63.5760027,36.7609973 63.032,37.305 L63.032,43 L60.533,43 L60.533,38.087 C60.533,37.4749969 60.4508342,37.0556678 60.2865,36.829 C60.1221658,36.6023322 59.8586685,36.489 59.496,36.489 C59.0653312,36.489 58.5893359,36.7609973 58.068,37.305 L58.068,43 L55.569,43 Z" id="145mm" fill="#093169" fill-rule="nonzero" transform="translate(41.085000, 37.704500) rotate(-270.000000) translate(-41.085000, -37.704500) "></path>
            <polyline id="Rectangle-Copy-3" stroke="#CBD8F2" transform="translate(7.500000, 36.500000) rotate(-270.000000) translate(-7.500000, -36.500000) " points="-28.8783333 44 -29 29 44 29 44 44"></polyline>
        </g>
        <polyline id="Rectangle-Copy" stroke="#CBD8F2" points="139.713333 87 139 72 567 72 567 87"></polyline>
        <path d="M329.938,52.204 C329.393997,52.204 328.892502,52.1331674 328.4335,51.9915 C327.974498,51.8498326 327.577835,51.648668 327.2435,51.388 C326.909165,51.127332 326.648501,50.8156685 326.4615,50.453 C326.274499,50.0903315 326.181,49.6880022 326.181,49.246 C326.181,48.5886634 326.359498,48.0503354 326.7165,47.631 C327.073502,47.2116646 327.506997,46.8660014 328.017,46.594 L328.017,46.526 C327.597665,46.2086651 327.252001,45.8488353 326.98,45.4465 C326.707999,45.0441647 326.572,44.5540029 326.572,43.976 C326.572,43.5226644 326.656999,43.1118352 326.827,42.7435 C326.997001,42.3751648 327.234998,42.060668 327.541,41.8 C327.847002,41.539332 328.212498,41.3410007 328.6375,41.205 C329.062502,41.0689993 329.524331,41.001 330.023,41.001 C330.510336,41.001 330.957998,41.0718326 331.366,41.2135 C331.774002,41.3551674 332.119665,41.5534987 332.403,41.8085 C332.686335,42.0635013 332.907333,42.3751648 333.066,42.7435 C333.224667,43.1118352 333.304,43.5169978 333.304,43.959 C333.304,44.4803359 333.162335,44.9421647 332.879,45.3445 C332.595665,45.7468353 332.267002,46.0726654 331.893,46.322 L331.893,46.39 C332.414336,46.6733348 332.856332,47.0359978 333.219,47.478 C333.581668,47.9200022 333.763,48.4979964 333.763,49.212 C333.763,49.6426688 333.672334,50.0393315 333.491,50.402 C333.309666,50.7646685 333.051835,51.0791653 332.7175,51.3455 C332.383165,51.6118347 331.980836,51.8214992 331.5105,51.9745 C331.040164,52.1275008 330.516003,52.204 329.938,52.204 Z M330.618,45.71 C331.060002,45.1999974 331.281,44.6730027 331.281,44.129 C331.281,43.7096646 331.164834,43.3725013 330.9325,43.1175 C330.700166,42.8624987 330.380002,42.735 329.972,42.735 C329.643332,42.735 329.360001,42.836999 329.122,43.041 C328.883999,43.245001 328.765,43.5566646 328.765,43.976 C328.765,44.4180022 328.934998,44.7636654 329.275,45.013 C329.615002,45.2623346 330.062664,45.4946656 330.618,45.71 Z M329.989,50.47 C330.408335,50.47 330.753999,50.3595011 331.026,50.1385 C331.298001,49.9174989 331.434,49.5803356 331.434,49.127 C331.434,48.8889988 331.380167,48.6850009 331.2725,48.515 C331.164833,48.3449991 331.009001,48.1891674 330.805,48.0475 C330.600999,47.9058326 330.360168,47.7726673 330.0825,47.648 L329.156,47.24 L329.156,47.24 C328.917999,47.4666678 328.719667,47.7273319 328.561,48.022 C328.402333,48.3166681 328.323,48.6283317 328.323,48.957 C328.323,49.4330024 328.487332,49.8041653 328.816,50.0705 C329.144668,50.3368347 329.535664,50.47 329.989,50.47 Z M337.146,52 C337.191334,51.1046622 337.273499,50.2801704 337.3925,49.5265 C337.511501,48.7728296 337.681499,48.0531701 337.9025,47.3675 C338.123501,46.6818299 338.406832,46.0103366 338.7525,45.353 C339.098168,44.6956634 339.525997,44.0156702 340.036,43.313 L335.191,43.313 L335.191,41.205 L342.705,41.205 L342.705,42.735 C342.081664,43.4943371 341.580169,44.2054967 341.2005,44.8685 C340.820831,45.5315033 340.526168,46.2171631 340.3165,46.9255 C340.106832,47.6338369 339.956667,48.3931626 339.866,49.2035 C339.775333,50.0138374 339.707334,50.9459947 339.662,52 L337.146,52 Z M347.907,52.204 C347.328997,52.204 346.802002,52.0821679 346.326,51.8385 C345.849998,51.5948321 345.444835,51.2350024 345.1105,50.759 C344.776165,50.2829976 344.515501,49.6936702 344.3285,48.991 C344.141499,48.2883298 344.048,47.4780046 344.048,46.56 C344.048,45.6419954 344.141499,44.8373368 344.3285,44.146 C344.515501,43.4546632 344.776165,42.8738357 345.1105,42.4035 C345.444835,41.9331643 345.849998,41.5818345 346.326,41.3495 C346.802002,41.1171655 347.328997,41.001 347.907,41.001 C348.485003,41.001 349.011998,41.1171655 349.488,41.3495 C349.964002,41.5818345 350.369165,41.9331643 350.7035,42.4035 C351.037835,42.8738357 351.298499,43.4546632 351.4855,44.146 C351.672501,44.8373368 351.766,45.6419954 351.766,46.56 C351.766,47.4780046 351.672501,48.2883298 351.4855,48.991 C351.298499,49.6936702 351.037835,50.2829976 350.7035,50.759 C350.369165,51.2350024 349.964002,51.5948321 349.488,51.8385 C349.011998,52.0821679 348.485003,52.204 347.907,52.204 Z M347.907,50.266 C348.122334,50.266 348.320666,50.2121672 348.502,50.1045 C348.683334,49.9968328 348.841999,49.8013347 348.978,49.518 C349.114001,49.2346652 349.218833,48.8550024 349.2925,48.379 C349.366167,47.9029976 349.403,47.2966703 349.403,46.56 C349.403,45.8233296 349.366167,45.2198357 349.2925,44.7495 C349.218833,44.2791643 349.114001,43.9108347 348.978,43.6445 C348.841999,43.3781653 348.683334,43.1940005 348.502,43.092 C348.320666,42.9899995 348.122334,42.939 347.907,42.939 C347.702999,42.939 347.510334,42.9899995 347.329,43.092 C347.147666,43.1940005 346.989001,43.3781653 346.853,43.6445 C346.716999,43.9108347 346.609334,44.2791643 346.53,44.7495 C346.450666,45.2198357 346.411,45.8233296 346.411,46.56 C346.411,47.2966703 346.450666,47.9029976 346.53,48.379 C346.609334,48.8550024 346.716999,49.2346652 346.853,49.518 C346.989001,49.8013347 347.147666,49.9968328 347.329,50.1045 C347.510334,50.2121672 347.702999,50.266 347.907,50.266 Z M353.5,52 L353.5,43.568 L355.54,43.568 L355.71,44.656 L355.778,44.656 C356.129335,44.3046649 356.503331,44.0015013 356.9,43.7465 C357.296669,43.4914987 357.772664,43.364 358.328,43.364 C358.92867,43.364 359.413165,43.4858321 359.7815,43.7295 C360.149835,43.9731679 360.441666,44.3216644 360.657,44.775 C361.031002,44.3896647 361.424831,44.0581681 361.8385,43.7805 C362.252169,43.5028319 362.74233,43.364 363.309,43.364 C364.215671,43.364 364.881498,43.6671636 365.3065,44.2735 C365.731502,44.8798364 365.944,45.7099947 365.944,46.764 L365.944,52 L363.445,52 L363.445,47.087 C363.445,46.4749969 363.362834,46.0556678 363.1985,45.829 C363.034166,45.6023322 362.770668,45.489 362.408,45.489 C361.988665,45.489 361.507003,45.7609973 360.963,46.305 L360.963,52 L358.464,52 L358.464,47.087 C358.464,46.4749969 358.381834,46.0556678 358.2175,45.829 C358.053166,45.6023322 357.789668,45.489 357.427,45.489 C356.996331,45.489 356.520336,45.7609973 355.999,46.305 L355.999,52 L353.5,52 Z M368.069,52 L368.069,43.568 L370.109,43.568 L370.279,44.656 L370.347,44.656 C370.698335,44.3046649 371.072331,44.0015013 371.469,43.7465 C371.865669,43.4914987 372.341664,43.364 372.897,43.364 C373.49767,43.364 373.982165,43.4858321 374.3505,43.7295 C374.718835,43.9731679 375.010666,44.3216644 375.226,44.775 C375.600002,44.3896647 375.993831,44.0581681 376.4075,43.7805 C376.821169,43.5028319 377.31133,43.364 377.878,43.364 C378.784671,43.364 379.450498,43.6671636 379.8755,44.2735 C380.300502,44.8798364 380.513,45.7099947 380.513,46.764 L380.513,52 L378.014,52 L378.014,47.087 C378.014,46.4749969 377.931834,46.0556678 377.7675,45.829 C377.603166,45.6023322 377.339668,45.489 376.977,45.489 C376.557665,45.489 376.076003,45.7609973 375.532,46.305 L375.532,52 L373.033,52 L373.033,47.087 C373.033,46.4749969 372.950834,46.0556678 372.7865,45.829 C372.622166,45.6023322 372.358668,45.489 371.996,45.489 C371.565331,45.489 371.089336,45.7609973 370.568,46.305 L370.568,52 L368.069,52 Z" id="870mm" fill="#093169" fill-rule="nonzero"></path>
        <g id="Group" transform="translate(162.000000, 180.000000)" fill="#FFFFFF" stroke="#FF5959" stroke-opacity="0.6">
            <rect id="Rectangle" x="57" y="0" width="105" height="32"></rect>
            <rect id="Rectangle-Copy-5" x="167" y="0" width="105" height="32"></rect>
            <rect id="Rectangle-Copy-7" x="277" y="0" width="105" height="32"></rect>
            <rect id="Rectangle-Copy-6" x="0" y="0" width="52" height="32"></rect>
        </g>
        <polyline id="Rectangle-Copy-2" stroke="#CBD8F2" transform="translate(353.000000, 234.500000) rotate(-180.000000) translate(-353.000000, -234.500000) " points="153.666667 242 153 227 553 227 553 242"></polyline>
        <path d="M329.938,274.204 C329.393997,274.204 328.892502,274.133167 328.4335,273.9915 C327.974498,273.849833 327.577835,273.648668 327.2435,273.388 C326.909165,273.127332 326.648501,272.815668 326.4615,272.453 C326.274499,272.090332 326.181,271.688002 326.181,271.246 C326.181,270.588663 326.359498,270.050335 326.7165,269.631 C327.073502,269.211665 327.506997,268.866001 328.017,268.594 L328.017,268.526 C327.597665,268.208665 327.252001,267.848835 326.98,267.4465 C326.707999,267.044165 326.572,266.554003 326.572,265.976 C326.572,265.522664 326.656999,265.111835 326.827,264.7435 C326.997001,264.375165 327.234998,264.060668 327.541,263.8 C327.847002,263.539332 328.212498,263.341001 328.6375,263.205 C329.062502,263.068999 329.524331,263.001 330.023,263.001 C330.510336,263.001 330.957998,263.071833 331.366,263.2135 C331.774002,263.355167 332.119665,263.553499 332.403,263.8085 C332.686335,264.063501 332.907333,264.375165 333.066,264.7435 C333.224667,265.111835 333.304,265.516998 333.304,265.959 C333.304,266.480336 333.162335,266.942165 332.879,267.3445 C332.595665,267.746835 332.267002,268.072665 331.893,268.322 L331.893,268.39 C332.414336,268.673335 332.856332,269.035998 333.219,269.478 C333.581668,269.920002 333.763,270.497996 333.763,271.212 C333.763,271.642669 333.672334,272.039332 333.491,272.402 C333.309666,272.764668 333.051835,273.079165 332.7175,273.3455 C332.383165,273.611835 331.980836,273.821499 331.5105,273.9745 C331.040164,274.127501 330.516003,274.204 329.938,274.204 Z M330.618,267.71 C331.060002,267.199997 331.281,266.673003 331.281,266.129 C331.281,265.709665 331.164834,265.372501 330.9325,265.1175 C330.700166,264.862499 330.380002,264.735 329.972,264.735 C329.643332,264.735 329.360001,264.836999 329.122,265.041 C328.883999,265.245001 328.765,265.556665 328.765,265.976 C328.765,266.418002 328.934998,266.763665 329.275,267.013 C329.615002,267.262335 330.062664,267.494666 330.618,267.71 Z M329.989,272.47 C330.408335,272.47 330.753999,272.359501 331.026,272.1385 C331.298001,271.917499 331.434,271.580336 331.434,271.127 C331.434,270.888999 331.380167,270.685001 331.2725,270.515 C331.164833,270.344999 331.009001,270.189167 330.805,270.0475 C330.600999,269.905833 330.360168,269.772667 330.0825,269.648 L329.405157,269.348375 C329.324053,269.312959 329.241,269.276834 329.156,269.24 C328.917999,269.466668 328.719667,269.727332 328.561,270.022 C328.402333,270.316668 328.323,270.628332 328.323,270.957 C328.323,271.433002 328.487332,271.804165 328.816,272.0705 C329.144668,272.336835 329.535664,272.47 329.989,272.47 Z M335.072,274 L335.072,272.572 L335.873041,271.817199 C336.25928,271.45 336.624098,271.098102 336.9675,270.7615 C337.539836,270.200497 338.032831,269.673502 338.4465,269.1805 C338.860169,268.687498 339.183166,268.228502 339.4155,267.8035 C339.647834,267.378498 339.764,266.973335 339.764,266.588 C339.764,266.055331 339.628001,265.650168 339.356,265.3725 C339.083999,265.094832 338.710002,264.956 338.234,264.956 C337.837331,264.956 337.486002,265.066499 337.18,265.2875 C336.873998,265.508501 336.585001,265.766332 336.313,266.061 L334.953,264.718 C335.485669,264.15133 336.029664,263.723501 336.585,263.4345 C337.140336,263.145499 337.803329,263.001 338.574,263.001 C339.106669,263.001 339.591164,263.083166 340.0275,263.2475 C340.463836,263.411834 340.840665,263.644165 341.158,263.9445 C341.475335,264.244835 341.718999,264.604665 341.889,265.024 C342.059001,265.443335 342.144,265.913664 342.144,266.435 C342.144,266.888336 342.047668,267.350164 341.855,267.8205 C341.662332,268.290836 341.404502,268.761164 341.0815,269.2315 C340.758498,269.701836 340.390169,270.172164 339.9765,270.6425 C339.562831,271.112836 339.135002,271.574664 338.693,272.028 L339.124375,271.979125 C339.275958,271.963542 339.435332,271.948667 339.6025,271.9345 C339.936835,271.906167 340.234332,271.892 340.495,271.892 L342.671,271.892 L342.671,274 L335.072,274 Z M347.907,274.204 C347.328997,274.204 346.802002,274.082168 346.326,273.8385 C345.849998,273.594832 345.444835,273.235002 345.1105,272.759 C344.776165,272.282998 344.515501,271.69367 344.3285,270.991 C344.141499,270.28833 344.048,269.478005 344.048,268.56 C344.048,267.641995 344.141499,266.837337 344.3285,266.146 C344.515501,265.454663 344.776165,264.873836 345.1105,264.4035 C345.444835,263.933164 345.849998,263.581834 346.326,263.3495 C346.802002,263.117166 347.328997,263.001 347.907,263.001 C348.485003,263.001 349.011998,263.117166 349.488,263.3495 C349.964002,263.581834 350.369165,263.933164 350.7035,264.4035 C351.037835,264.873836 351.298499,265.454663 351.4855,266.146 C351.672501,266.837337 351.766,267.641995 351.766,268.56 C351.766,269.478005 351.672501,270.28833 351.4855,270.991 C351.298499,271.69367 351.037835,272.282998 350.7035,272.759 C350.369165,273.235002 349.964002,273.594832 349.488,273.8385 C349.011998,274.082168 348.485003,274.204 347.907,274.204 Z M347.907,272.266 C348.122334,272.266 348.320666,272.212167 348.502,272.1045 C348.683334,271.996833 348.841999,271.801335 348.978,271.518 C349.114001,271.234665 349.218833,270.855002 349.2925,270.379 C349.366167,269.902998 349.403,269.29667 349.403,268.56 C349.403,267.82333 349.366167,267.219836 349.2925,266.7495 C349.218833,266.279164 349.114001,265.910835 348.978,265.6445 C348.841999,265.378165 348.683334,265.194001 348.502,265.092 C348.320666,264.989999 348.122334,264.939 347.907,264.939 C347.702999,264.939 347.510334,264.989999 347.329,265.092 C347.147666,265.194001 346.989001,265.378165 346.853,265.6445 C346.716999,265.910835 346.609334,266.279164 346.53,266.7495 C346.450666,267.219836 346.411,267.82333 346.411,268.56 C346.411,269.29667 346.450666,269.902998 346.53,270.379 C346.609334,270.855002 346.716999,271.234665 346.853,271.518 C346.989001,271.801335 347.147666,271.996833 347.329,272.1045 C347.510334,272.212167 347.702999,272.266 347.907,272.266 Z M353.5,274 L353.5,265.568 L355.54,265.568 L355.71,266.656 L355.778,266.656 C356.129335,266.304665 356.503331,266.001501 356.9,265.7465 C357.296669,265.491499 357.772664,265.364 358.328,265.364 C358.92867,265.364 359.413165,265.485832 359.7815,265.7295 C360.149835,265.973168 360.441666,266.321664 360.657,266.775 C361.031002,266.389665 361.424831,266.058168 361.8385,265.7805 C362.252169,265.502832 362.74233,265.364 363.309,265.364 C364.215671,265.364 364.881498,265.667164 365.3065,266.2735 C365.731502,266.879836 365.944,267.709995 365.944,268.764 L365.944,274 L363.445,274 L363.445,269.087 C363.445,268.474997 363.362834,268.055668 363.1985,267.829 C363.034166,267.602332 362.770668,267.489 362.408,267.489 C361.988665,267.489 361.507003,267.760997 360.963,268.305 L360.963,274 L358.464,274 L358.464,269.087 C358.464,268.474997 358.381834,268.055668 358.2175,267.829 C358.053166,267.602332 357.789668,267.489 357.427,267.489 C356.996331,267.489 356.520336,267.760997 355.999,268.305 L355.999,274 L353.5,274 Z M368.069,274 L368.069,265.568 L370.109,265.568 L370.279,266.656 L370.347,266.656 C370.698335,266.304665 371.072331,266.001501 371.469,265.7465 C371.865669,265.491499 372.341664,265.364 372.897,265.364 C373.49767,265.364 373.982165,265.485832 374.3505,265.7295 C374.718835,265.973168 375.010666,266.321664 375.226,266.775 C375.600002,266.389665 375.993831,266.058168 376.4075,265.7805 C376.821169,265.502832 377.31133,265.364 377.878,265.364 C378.784671,265.364 379.450498,265.667164 379.8755,266.2735 C380.300502,266.879836 380.513,267.709995 380.513,268.764 L380.513,274 L378.014,274 L378.014,269.087 C378.014,268.474997 377.931834,268.055668 377.7675,267.829 C377.603166,267.602332 377.339668,267.489 376.977,267.489 C376.557665,267.489 376.076003,267.760997 375.532,268.305 L375.532,274 L373.033,274 L373.033,269.087 C373.033,268.474997 372.950834,268.055668 372.7865,267.829 C372.622166,267.602332 372.358668,267.489 371.996,267.489 C371.565331,267.489 371.089336,267.760997 370.568,268.305 L370.568,274 L368.069,274 Z" id="820mm" fill="#093169" fill-rule="nonzero"></path>
    </g>
</svg>