<?xml version="1.0" encoding="UTF-8"?>
<svg width="706px" height="211px" viewBox="0 0 706 211" version="1.1" xmlns="http://www.w3.org/2000/svg" xmlns:xlink="http://www.w3.org/1999/xlink">
    <!-- Generator: Sketch 58 (84663) - https://sketch.com -->
    <title>pierCaps/PC910</title>
    <desc>Created with Sketch.</desc>
    <g id="pierCaps/PC910" stroke="none" stroke-width="1" fill="none" fill-rule="evenodd">
        <rect fill="#F5F9FF" x="0" y="0" width="706" height="211"></rect>
        <g id="Group" transform="translate(245.000000, 102.000000)" fill="#FFFFFF" stroke="#CBD8F2">
            <polygon id="Path" stroke-linejoin="bevel" points="0 12 108 0 216 12"></polygon>
            <rect id="Rectangle" x="0" y="12" width="216" height="25"></rect>
        </g>
        <g id="Group-2" transform="translate(272.000000, 144.000000)" fill="#FFFFFF" stroke="#FF5959" stroke-opacity="0.6">
            <rect id="Rectangle" x="0" y="0" width="105" height="32"></rect>
            <rect id="Rectangle-Copy" x="110" y="0" width="52" height="32"></rect>
        </g>
        <path d="M496.158,127 C496.203334,126.104662 496.285499,125.28017 496.4045,124.5265 C496.523501,123.77283 496.693499,123.05317 496.9145,122.3675 C497.135501,121.68183 497.418832,121.010337 497.7645,120.353 C498.110168,119.695663 498.537997,119.01567 499.048,118.313 L494.203,118.313 L494.203,116.205 L501.717,116.205 L501.717,117.735 C501.093664,118.494337 500.592169,119.205497 500.2125,119.8685 C499.832831,120.531503 499.538168,121.217163 499.3285,121.9255 C499.118832,122.633837 498.968667,123.393163 498.878,124.2035 C498.787333,125.013837 498.719334,125.945995 498.674,127 L496.158,127 Z M506.63,127.204 C505.745996,127.204 504.998003,127.059501 504.386,126.7705 C503.773997,126.481499 503.252669,126.121669 502.822,125.691 L503.944,124.11 C504.272668,124.404668 504.626831,124.656832 505.0065,124.8665 C505.386169,125.076168 505.808331,125.181 506.273,125.181 C506.828336,125.181 507.270332,125.039335 507.599,124.756 C507.927668,124.472665 508.092,124.053336 508.092,123.498 C508.092,122.953997 507.936168,122.540335 507.6245,122.257 C507.312832,121.973665 506.902003,121.832 506.392,121.832 C506.233333,121.832 506.091667,121.8405 505.967,121.8575 C505.842333,121.8745 505.720501,121.905666 505.6015,121.951 C505.482499,121.996334 505.357834,122.053 505.2275,122.121 C505.097166,122.189 504.952667,122.273999 504.794,122.376 L503.672,121.662 L503.978,116.205 L510.098,116.205 L510.098,118.313 L506.137,118.313 L505.95,120.336 C506.154001,120.245333 506.349499,120.180167 506.5365,120.1405 C506.723501,120.100833 506.930332,120.081 507.157,120.081 C507.621669,120.081 508.060831,120.148999 508.4745,120.285 C508.888169,120.421001 509.253665,120.624999 509.571,120.897 C509.888335,121.169001 510.137666,121.514665 510.319,121.934 C510.500334,122.353335 510.591,122.851997 510.591,123.43 C510.591,124.03067 510.483334,124.563331 510.268,125.028 C510.052666,125.492669 509.763668,125.886498 509.401,126.2095 C509.038332,126.532502 508.616169,126.778999 508.1345,126.949 C507.652831,127.119001 507.151336,127.204 506.63,127.204 Z M512.512,127 L512.512,118.568 L514.552,118.568 L514.722,119.656 L514.79,119.656 C515.141335,119.304665 515.515331,119.001501 515.912,118.7465 C516.308669,118.491499 516.784664,118.364 517.34,118.364 C517.94067,118.364 518.425165,118.485832 518.7935,118.7295 C519.161835,118.973168 519.453666,119.321664 519.669,119.775 C520.043002,119.389665 520.436831,119.058168 520.8505,118.7805 C521.264169,118.502832 521.754331,118.364 522.321,118.364 C523.227671,118.364 523.893498,118.667164 524.3185,119.2735 C524.743502,119.879836 524.956,120.709995 524.956,121.764 L524.956,127 L522.457,127 L522.457,122.087 C522.457,121.474997 522.374834,121.055668 522.2105,120.829 C522.046166,120.602332 521.782668,120.489 521.42,120.489 C521.000665,120.489 520.519003,120.760997 519.975,121.305 L519.975,127 L517.476,127 L517.476,122.087 C517.476,121.474997 517.393834,121.055668 517.2295,120.829 C517.065166,120.602332 516.801668,120.489 516.439,120.489 C516.008331,120.489 515.532336,120.760997 515.011,121.305 L515.011,127 L512.512,127 Z M527.081,127 L527.081,118.568 L529.121,118.568 L529.291,119.656 L529.359,119.656 C529.710335,119.304665 530.084331,119.001501 530.481,118.7465 C530.877669,118.491499 531.353664,118.364 531.909,118.364 C532.50967,118.364 532.994165,118.485832 533.3625,118.7295 C533.730835,118.973168 534.022666,119.321664 534.238,119.775 C534.612002,119.389665 535.005831,119.058168 535.4195,118.7805 C535.833169,118.502832 536.32333,118.364 536.89,118.364 C537.796671,118.364 538.462498,118.667164 538.8875,119.2735 C539.312502,119.879836 539.525,120.709995 539.525,121.764 L539.525,127 L537.026,127 L537.026,122.087 C537.026,121.474997 536.943834,121.055668 536.7795,120.829 C536.615166,120.602332 536.351668,120.489 535.989,120.489 C535.569665,120.489 535.088003,120.760997 534.544,121.305 L534.544,127 L532.045,127 L532.045,122.087 C532.045,121.474997 531.962834,121.055668 531.7985,120.829 C531.634166,120.602332 531.370668,120.489 531.008,120.489 C530.577331,120.489 530.101336,120.760997 529.58,121.305 L529.58,127 L527.081,127 Z" id="75mm" fill="#093169" fill-rule="nonzero" transform="translate(516.864000, 121.704500) rotate(-270.000000) translate(-516.864000, -121.704500) "></path>
        <polyline id="Rectangle-Copy-3" stroke="#CBD8F2" transform="translate(483.500000, 120.500000) rotate(-270.000000) translate(-483.500000, -120.500000) " points="465.061667 128 465 113 502 113 502 128"></polyline>
        <polyline id="Rectangle-Copy" stroke="#CBD8F2" points="245.36 87 245 72 461 72 461 87"></polyline>
        <path d="M330.465,52 L330.465,49.416 L325.79,49.416 L325.79,47.699 L329.734,41.205 L332.794,41.205 L332.794,47.512 L334.035,47.512 L334.035,49.416 L332.794,49.416 L332.794,52 L330.465,52 Z M328.187,47.512 L330.465,47.512 L330.465,45.761 C330.465,45.4799319 330.472253,45.1644142 330.48676,44.8144407 L330.5398,43.7835601 C330.548867,43.6285204 330.557933,43.4830007 330.567,43.347 L330.499,43.347 L330.074,44.248 L330.074,44.248 C329.926666,44.5540015 329.773667,44.8599985 329.615,45.166 L328.187,47.512 Z M339.441,52 L339.441,49.416 L334.766,49.416 L334.766,47.699 L338.71,41.205 L341.77,41.205 L341.77,47.512 L343.011,47.512 L343.011,49.416 L341.77,49.416 L341.77,52 L339.441,52 Z M337.163,47.512 L339.441,47.512 L339.441,45.761 C339.441,45.4799319 339.448253,45.1644142 339.46276,44.8144407 L339.5158,43.7835601 C339.524867,43.6285204 339.533933,43.4830007 339.543,43.347 L339.475,43.347 L339.05,44.248 L339.05,44.248 C338.902666,44.5540015 338.749667,44.8599985 338.591,45.166 L337.163,47.512 Z M347.907,52.204 C347.328997,52.204 346.802002,52.0821679 346.326,51.8385 C345.849998,51.5948321 345.444835,51.2350024 345.1105,50.759 C344.776165,50.2829976 344.515501,49.6936702 344.3285,48.991 C344.141499,48.2883298 344.048,47.4780046 344.048,46.56 C344.048,45.6419954 344.141499,44.8373368 344.3285,44.146 C344.515501,43.4546632 344.776165,42.8738357 345.1105,42.4035 C345.444835,41.9331643 345.849998,41.5818345 346.326,41.3495 C346.802002,41.1171655 347.328997,41.001 347.907,41.001 C348.485003,41.001 349.011998,41.1171655 349.488,41.3495 C349.964002,41.5818345 350.369165,41.9331643 350.7035,42.4035 C351.037835,42.8738357 351.298499,43.4546632 351.4855,44.146 C351.672501,44.8373368 351.766,45.6419954 351.766,46.56 C351.766,47.4780046 351.672501,48.2883298 351.4855,48.991 C351.298499,49.6936702 351.037835,50.2829976 350.7035,50.759 C350.369165,51.2350024 349.964002,51.5948321 349.488,51.8385 C349.011998,52.0821679 348.485003,52.204 347.907,52.204 Z M347.907,50.266 C348.122334,50.266 348.320666,50.2121672 348.502,50.1045 C348.683334,49.9968328 348.841999,49.8013347 348.978,49.518 C349.114001,49.2346652 349.218833,48.8550024 349.2925,48.379 C349.366167,47.9029976 349.403,47.2966703 349.403,46.56 C349.403,45.8233296 349.366167,45.2198357 349.2925,44.7495 C349.218833,44.2791643 349.114001,43.9108347 348.978,43.6445 C348.841999,43.3781653 348.683334,43.1940005 348.502,43.092 C348.320666,42.9899995 348.122334,42.939 347.907,42.939 C347.702999,42.939 347.510334,42.9899995 347.329,43.092 C347.147666,43.1940005 346.989001,43.3781653 346.853,43.6445 C346.716999,43.9108347 346.609334,44.2791643 346.53,44.7495 C346.450666,45.2198357 346.411,45.8233296 346.411,46.56 C346.411,47.2966703 346.450666,47.9029976 346.53,48.379 C346.609334,48.8550024 346.716999,49.2346652 346.853,49.518 C346.989001,49.8013347 347.147666,49.9968328 347.329,50.1045 C347.510334,50.2121672 347.702999,50.266 347.907,50.266 Z M353.5,52 L353.5,43.568 L355.54,43.568 L355.71,44.656 L355.778,44.656 C356.129335,44.3046649 356.503331,44.0015013 356.9,43.7465 C357.296669,43.4914987 357.772664,43.364 358.328,43.364 C358.92867,43.364 359.413165,43.4858321 359.7815,43.7295 C360.149835,43.9731679 360.441666,44.3216644 360.657,44.775 C361.031002,44.3896647 361.424831,44.0581681 361.8385,43.7805 C362.252169,43.5028319 362.74233,43.364 363.309,43.364 C364.215671,43.364 364.881498,43.6671636 365.3065,44.2735 C365.731502,44.8798364 365.944,45.7099947 365.944,46.764 L365.944,52 L363.445,52 L363.445,47.087 C363.445,46.4749969 363.362834,46.0556678 363.1985,45.829 C363.034166,45.6023322 362.770668,45.489 362.408,45.489 C361.988665,45.489 361.507003,45.7609973 360.963,46.305 L360.963,52 L358.464,52 L358.464,47.087 C358.464,46.4749969 358.381834,46.0556678 358.2175,45.829 C358.053166,45.6023322 357.789668,45.489 357.427,45.489 C356.996331,45.489 356.520336,45.7609973 355.999,46.305 L355.999,52 L353.5,52 Z M368.069,52 L368.069,43.568 L370.109,43.568 L370.279,44.656 L370.347,44.656 C370.698335,44.3046649 371.072331,44.0015013 371.469,43.7465 C371.865669,43.4914987 372.341664,43.364 372.897,43.364 C373.49767,43.364 373.982165,43.4858321 374.3505,43.7295 C374.718835,43.9731679 375.010666,44.3216644 375.226,44.775 C375.600002,44.3896647 375.993831,44.0581681 376.4075,43.7805 C376.821169,43.5028319 377.31133,43.364 377.878,43.364 C378.784671,43.364 379.450498,43.6671636 379.8755,44.2735 C380.300502,44.8798364 380.513,45.7099947 380.513,46.764 L380.513,52 L378.014,52 L378.014,47.087 C378.014,46.4749969 377.931834,46.0556678 377.7675,45.829 C377.603166,45.6023322 377.339668,45.489 376.977,45.489 C376.557665,45.489 376.076003,45.7609973 375.532,46.305 L375.532,52 L373.033,52 L373.033,47.087 C373.033,46.4749969 372.950834,46.0556678 372.7865,45.829 C372.622166,45.6023322 372.358668,45.489 371.996,45.489 C371.565331,45.489 371.089336,45.7609973 370.568,46.305 L370.568,52 L368.069,52 Z" id="440mm" fill="#093169" fill-rule="nonzero"></path>
    </g>
</svg>