<?xml version="1.0" encoding="UTF-8"?>
<svg width="706px" height="211px" viewBox="0 0 706 211" version="1.1" xmlns="http://www.w3.org/2000/svg" xmlns:xlink="http://www.w3.org/1999/xlink">
    <!-- Generator: Sketch 58 (84663) - https://sketch.com -->
    <title>pierCaps/PC920</title>
    <desc>Created with Sketch.</desc>
    <g id="pierCaps/PC920" stroke="none" stroke-width="1" fill="none" fill-rule="evenodd">
        <rect fill="#F5F9FF" x="0" y="0" width="706" height="211"></rect>
        <g id="Group-4" transform="translate(225.000000, 102.000000)" fill="#FFFFFF">
            <g id="Group" stroke="#CBD8F2">
                <polygon id="Path" stroke-linejoin="bevel" points="0 12 128 0 256 12"></polygon>
                <rect id="Rectangle" x="0" y="12" width="256" height="25"></rect>
            </g>
            <g id="Group-2" transform="translate(21.000000, 42.000000)" stroke="#FF5959" stroke-opacity="0.6">
                <rect id="Rectangle" x="0" y="0" width="105" height="32"></rect>
                <rect id="Rectangle-Copy-2" x="110" y="0" width="105" height="32"></rect>
            </g>
        </g>
        <g id="Group-3" transform="translate(496.000000, 97.000000)">
            <path d="M20.158,30 C20.2033336,29.1046622 20.2854994,28.2801704 20.4045,27.5265 C20.5235006,26.7728296 20.6934989,26.0531701 20.9145,25.3675 C21.1355011,24.6818299 21.4188316,24.0103366 21.7645,23.353 C22.1101684,22.6956634 22.5379974,22.0156702 23.048,21.313 L18.203,21.313 L18.203,19.205 L25.717,19.205 L25.717,20.735 C25.0936635,21.4943371 24.5921686,22.2054967 24.2125,22.8685 C23.8328314,23.5315033 23.5381677,24.2171631 23.3285,24.9255 C23.1188323,25.6338369 22.9686671,26.3931626 22.878,27.2035 C22.7873329,28.0138374 22.7193336,28.9459947 22.674,30 L20.158,30 Z M30.63,30.204 C29.7459956,30.204 28.9980031,30.0595014 28.386,29.7705 C27.7739969,29.4814986 27.2526688,29.1216688 26.822,28.691 L27.944,27.11 C28.2726683,27.4046681 28.6268314,27.6568323 29.0065,27.8665 C29.3861686,28.0761677 29.808331,28.181 30.273,28.181 C30.8283361,28.181 31.2703317,28.0393348 31.599,27.756 C31.9276683,27.4726652 32.092,27.0533361 32.092,26.498 C32.092,25.9539973 31.9361682,25.5403347 31.6245,25.257 C31.3128318,24.9736652 30.9020025,24.832 30.392,24.832 C30.2333325,24.832 30.0916673,24.8404999 29.967,24.8575 C29.8423327,24.8745001 29.7205006,24.9056664 29.6015,24.951 C29.4824994,24.9963336 29.357834,25.0529997 29.2275,25.121 C29.097166,25.1890003 28.9526675,25.2739995 28.794,25.376 L27.672,24.662 L27.978,19.205 L34.098,19.205 L34.098,21.313 L30.137,21.313 L29.95,23.336 C30.154001,23.2453329 30.3494991,23.1801669 30.5365,23.1405 C30.7235009,23.1008331 30.9303322,23.081 31.157,23.081 C31.621669,23.081 32.0608313,23.1489993 32.4745,23.285 C32.8881687,23.4210007 33.2536651,23.6249986 33.571,23.897 C33.8883349,24.1690014 34.1376658,24.5146646 34.319,24.934 C34.5003342,25.3533354 34.591,25.8519971 34.591,26.43 C34.591,27.0306697 34.4833344,27.563331 34.268,28.028 C34.0526656,28.492669 33.7636685,28.8864984 33.401,29.2095 C33.0383315,29.5325016 32.6161691,29.7789992 32.1345,29.949 C31.6528309,30.1190008 31.1513359,30.204 30.63,30.204 Z M36.512,30 L36.512,21.568 L38.552,21.568 L38.722,22.656 L38.79,22.656 C39.1413351,22.3046649 39.5153313,22.0015013 39.912,21.7465 C40.3086687,21.4914987 40.7846639,21.364 41.34,21.364 C41.9406697,21.364 42.4251648,21.4858321 42.7935,21.7295 C43.1618352,21.9731679 43.4536656,22.3216644 43.669,22.775 C44.0430019,22.3896647 44.4368313,22.0581681 44.8505,21.7805 C45.2641687,21.5028319 45.7543305,21.364 46.321,21.364 C47.2276712,21.364 47.8934979,21.6671636 48.3185,22.2735 C48.7435021,22.8798364 48.956,23.7099947 48.956,24.764 L48.956,30 L46.457,30 L46.457,25.087 C46.457,24.4749969 46.3748342,24.0556678 46.2105,23.829 C46.0461658,23.6023322 45.7826685,23.489 45.42,23.489 C45.0006646,23.489 44.5190027,23.7609973 43.975,24.305 L43.975,30 L41.476,30 L41.476,25.087 C41.476,24.4749969 41.3938342,24.0556678 41.2295,23.829 C41.0651658,23.6023322 40.8016685,23.489 40.439,23.489 C40.0083312,23.489 39.5323359,23.7609973 39.011,24.305 L39.011,30 L36.512,30 Z M51.081,30 L51.081,21.568 L53.121,21.568 L53.291,22.656 L53.359,22.656 C53.7103351,22.3046649 54.0843313,22.0015013 54.481,21.7465 C54.8776687,21.4914987 55.3536639,21.364 55.909,21.364 C56.5096697,21.364 56.9941648,21.4858321 57.3625,21.7295 C57.7308352,21.9731679 58.0226656,22.3216644 58.238,22.775 C58.6120019,22.3896647 59.0058313,22.0581681 59.4195,21.7805 C59.8331687,21.5028319 60.3233305,21.364 60.89,21.364 C61.7966712,21.364 62.4624979,21.6671636 62.8875,22.2735 C63.3125021,22.8798364 63.525,23.7099947 63.525,24.764 L63.525,30 L61.026,30 L61.026,25.087 C61.026,24.4749969 60.9438342,24.0556678 60.7795,23.829 C60.6151658,23.6023322 60.3516685,23.489 59.989,23.489 C59.5696646,23.489 59.0880027,23.7609973 58.544,24.305 L58.544,30 L56.045,30 L56.045,25.087 C56.045,24.4749969 55.9628342,24.0556678 55.7985,23.829 C55.6341658,23.6023322 55.3706685,23.489 55.008,23.489 C54.5773312,23.489 54.1013359,23.7609973 53.58,24.305 L53.58,30 L51.081,30 Z" id="75mm" fill="#093169" fill-rule="nonzero" transform="translate(40.864000, 24.704500) rotate(-270.000000) translate(-40.864000, -24.704500) "></path>
            <polyline id="Rectangle-Copy-3" stroke="#CBD8F2" transform="translate(7.500000, 23.500000) rotate(-270.000000) translate(-7.500000, -23.500000) " points="-10.9383333 31 -11 16 26 16 26 31"></polyline>
        </g>
        <polyline id="Rectangle-Copy" stroke="#CBD8F2" points="225.426667 87 225 72 481 72 481 87"></polyline>
        <path d="M329.666,52.204 C328.781996,52.204 328.034003,52.0595014 327.422,51.7705 C326.809997,51.4814986 326.288669,51.1216688 325.858,50.691 L326.98,49.11 C327.308668,49.4046681 327.662831,49.6568323 328.0425,49.8665 C328.422169,50.0761677 328.844331,50.181 329.309,50.181 C329.864336,50.181 330.306332,50.0393348 330.635,49.756 C330.963668,49.4726652 331.128,49.0533361 331.128,48.498 C331.128,47.9539973 330.972168,47.5403347 330.6605,47.257 C330.348832,46.9736652 329.938003,46.832 329.428,46.832 C329.269333,46.832 329.127667,46.8404999 329.003,46.8575 C328.878333,46.8745001 328.756501,46.9056664 328.6375,46.951 C328.518499,46.9963336 328.393834,47.0529997 328.2635,47.121 C328.133166,47.1890003 327.988667,47.2739995 327.83,47.376 L326.708,46.662 L327.014,41.205 L333.134,41.205 L333.134,43.313 L329.173,43.313 L328.986,45.336 C329.190001,45.2453329 329.385499,45.1801669 329.5725,45.1405 C329.759501,45.1008331 329.966332,45.081 330.193,45.081 C330.657669,45.081 331.096831,45.1489993 331.5105,45.285 C331.924169,45.4210007 332.289665,45.6249986 332.607,45.897 C332.924335,46.1690014 333.173666,46.5146646 333.355,46.934 C333.536334,47.3533354 333.627,47.8519971 333.627,48.43 C333.627,49.0306697 333.519334,49.563331 333.304,50.028 C333.088666,50.492669 332.799668,50.8864984 332.437,51.2095 C332.074332,51.5325016 331.652169,51.7789992 331.1705,51.949 C330.688831,52.1190008 330.187336,52.204 329.666,52.204 Z M335.072,52 L335.072,50.572 L335.873041,49.8171994 C336.25928,49.4500002 336.624098,49.0981017 336.9675,48.7615 C337.539836,48.2004972 338.032831,47.6735025 338.4465,47.1805 C338.860169,46.6874975 339.183166,46.2285021 339.4155,45.8035 C339.647834,45.3784979 339.764,44.9733353 339.764,44.588 C339.764,44.0553307 339.628001,43.6501681 339.356,43.3725 C339.083999,43.0948319 338.710002,42.956 338.234,42.956 C337.837331,42.956 337.486002,43.0664989 337.18,43.2875 C336.873998,43.5085011 336.585001,43.7663319 336.313,44.061 L334.953,42.718 C335.485669,42.1513305 336.029664,41.7235014 336.585,41.4345 C337.140336,41.1454986 337.803329,41.001 338.574,41.001 C339.106669,41.001 339.591164,41.0831658 340.0275,41.2475 C340.463836,41.4118342 340.840665,41.6441652 341.158,41.9445 C341.475335,42.2448348 341.718999,42.6046646 341.889,43.024 C342.059001,43.4433354 342.144,43.9136641 342.144,44.435 C342.144,44.8883356 342.047668,45.3501643 341.855,45.8205 C341.662332,46.2908357 341.404502,46.7611643 341.0815,47.2315 C340.758498,47.7018357 340.390169,48.1721643 339.9765,48.6425 C339.562831,49.1128357 339.135002,49.5746644 338.693,50.028 L339.124375,49.979125 C339.275958,49.9635417 339.435332,49.9486667 339.6025,49.9345 C339.936835,49.9061665 340.234332,49.892 340.495,49.892 L342.671,49.892 L342.671,52 L335.072,52 Z M347.618,52.204 C346.733996,52.204 345.986003,52.0595014 345.374,51.7705 C344.761997,51.4814986 344.240669,51.1216688 343.81,50.691 L344.932,49.11 C345.260668,49.4046681 345.614831,49.6568323 345.9945,49.8665 C346.374169,50.0761677 346.796331,50.181 347.261,50.181 C347.816336,50.181 348.258332,50.0393348 348.587,49.756 C348.915668,49.4726652 349.08,49.0533361 349.08,48.498 C349.08,47.9539973 348.924168,47.5403347 348.6125,47.257 C348.300832,46.9736652 347.890003,46.832 347.38,46.832 C347.221333,46.832 347.079667,46.8404999 346.955,46.8575 C346.830333,46.8745001 346.708501,46.9056664 346.5895,46.951 C346.470499,46.9963336 346.345834,47.0529997 346.2155,47.121 C346.085166,47.1890003 345.940667,47.2739995 345.782,47.376 L344.66,46.662 L344.966,41.205 L351.086,41.205 L351.086,43.313 L347.125,43.313 L346.938,45.336 C347.142001,45.2453329 347.337499,45.1801669 347.5245,45.1405 C347.711501,45.1008331 347.918332,45.081 348.145,45.081 C348.609669,45.081 349.048831,45.1489993 349.4625,45.285 C349.876169,45.4210007 350.241665,45.6249986 350.559,45.897 C350.876335,46.1690014 351.125666,46.5146646 351.307,46.934 C351.488334,47.3533354 351.579,47.8519971 351.579,48.43 C351.579,49.0306697 351.471334,49.563331 351.256,50.028 C351.040666,50.492669 350.751668,50.8864984 350.389,51.2095 C350.026332,51.5325016 349.604169,51.7789992 349.1225,51.949 C348.640831,52.1190008 348.139336,52.204 347.618,52.204 Z M353.5,52 L353.5,43.568 L355.54,43.568 L355.71,44.656 L355.778,44.656 C356.129335,44.3046649 356.503331,44.0015013 356.9,43.7465 C357.296669,43.4914987 357.772664,43.364 358.328,43.364 C358.92867,43.364 359.413165,43.4858321 359.7815,43.7295 C360.149835,43.9731679 360.441666,44.3216644 360.657,44.775 C361.031002,44.3896647 361.424831,44.0581681 361.8385,43.7805 C362.252169,43.5028319 362.74233,43.364 363.309,43.364 C364.215671,43.364 364.881498,43.6671636 365.3065,44.2735 C365.731502,44.8798364 365.944,45.7099947 365.944,46.764 L365.944,52 L363.445,52 L363.445,47.087 C363.445,46.4749969 363.362834,46.0556678 363.1985,45.829 C363.034166,45.6023322 362.770668,45.489 362.408,45.489 C361.988665,45.489 361.507003,45.7609973 360.963,46.305 L360.963,52 L358.464,52 L358.464,47.087 C358.464,46.4749969 358.381834,46.0556678 358.2175,45.829 C358.053166,45.6023322 357.789668,45.489 357.427,45.489 C356.996331,45.489 356.520336,45.7609973 355.999,46.305 L355.999,52 L353.5,52 Z M368.069,52 L368.069,43.568 L370.109,43.568 L370.279,44.656 L370.347,44.656 C370.698335,44.3046649 371.072331,44.0015013 371.469,43.7465 C371.865669,43.4914987 372.341664,43.364 372.897,43.364 C373.49767,43.364 373.982165,43.4858321 374.3505,43.7295 C374.718835,43.9731679 375.010666,44.3216644 375.226,44.775 C375.600002,44.3896647 375.993831,44.0581681 376.4075,43.7805 C376.821169,43.5028319 377.31133,43.364 377.878,43.364 C378.784671,43.364 379.450498,43.6671636 379.8755,44.2735 C380.300502,44.8798364 380.513,45.7099947 380.513,46.764 L380.513,52 L378.014,52 L378.014,47.087 C378.014,46.4749969 377.931834,46.0556678 377.7675,45.829 C377.603166,45.6023322 377.339668,45.489 376.977,45.489 C376.557665,45.489 376.076003,45.7609973 375.532,46.305 L375.532,52 L373.033,52 L373.033,47.087 C373.033,46.4749969 372.950834,46.0556678 372.7865,45.829 C372.622166,45.6023322 372.358668,45.489 371.996,45.489 C371.565331,45.489 371.089336,45.7609973 370.568,46.305 L370.568,52 L368.069,52 Z" id="525mm" fill="#093169" fill-rule="nonzero"></path>
    </g>
</svg>