<?xml version="1.0" encoding="UTF-8"?>
<svg width="706px" height="211px" viewBox="0 0 706 211" version="1.1" xmlns="http://www.w3.org/2000/svg" xmlns:xlink="http://www.w3.org/1999/xlink">
    <!-- Generator: Sketch 58 (84663) - https://sketch.com -->
    <title>pierCaps/PC930</title>
    <desc>Created with Sketch.</desc>
    <g id="pierCaps/PC930" stroke="none" stroke-width="1" fill="none" fill-rule="evenodd">
        <rect fill="#F5F9FF" x="0" y="0" width="706" height="211"></rect>
        <g id="Group-4" transform="translate(203.000000, 102.000000)" fill="#FFFFFF">
            <g id="Group" stroke="#CBD8F2">
                <polygon id="Path" stroke-linejoin="bevel" points="0 12 150 0 300 12"></polygon>
                <rect id="Rectangle" x="0" y="12" width="300" height="25"></rect>
            </g>
            <g id="Group-2" transform="translate(14.000000, 42.000000)" stroke="#FF5959" stroke-opacity="0.6">
                <rect id="Rectangle" x="0" y="0" width="105" height="32"></rect>
                <rect id="Rectangle-Copy-2" x="110" y="0" width="105" height="32"></rect>
                <rect id="Rectangle-Copy-4" x="220" y="0" width="52" height="32"></rect>
            </g>
        </g>
        <g id="Group-3" transform="translate(518.000000, 97.000000)">
            <path d="M20.158,30 C20.2033336,29.1046622 20.2854994,28.2801704 20.4045,27.5265 C20.5235006,26.7728296 20.6934989,26.0531701 20.9145,25.3675 C21.1355011,24.6818299 21.4188316,24.0103366 21.7645,23.353 C22.1101684,22.6956634 22.5379974,22.0156702 23.048,21.313 L18.203,21.313 L18.203,19.205 L25.717,19.205 L25.717,20.735 C25.0936635,21.4943371 24.5921686,22.2054967 24.2125,22.8685 C23.8328314,23.5315033 23.5381677,24.2171631 23.3285,24.9255 C23.1188323,25.6338369 22.9686671,26.3931626 22.878,27.2035 C22.7873329,28.0138374 22.7193336,28.9459947 22.674,30 L20.158,30 Z M30.63,30.204 C29.7459956,30.204 28.9980031,30.0595014 28.386,29.7705 C27.7739969,29.4814986 27.2526688,29.1216688 26.822,28.691 L27.944,27.11 C28.2726683,27.4046681 28.6268314,27.6568323 29.0065,27.8665 C29.3861686,28.0761677 29.808331,28.181 30.273,28.181 C30.8283361,28.181 31.2703317,28.0393348 31.599,27.756 C31.9276683,27.4726652 32.092,27.0533361 32.092,26.498 C32.092,25.9539973 31.9361682,25.5403347 31.6245,25.257 C31.3128318,24.9736652 30.9020025,24.832 30.392,24.832 C30.2333325,24.832 30.0916673,24.8404999 29.967,24.8575 C29.8423327,24.8745001 29.7205006,24.9056664 29.6015,24.951 C29.4824994,24.9963336 29.357834,25.0529997 29.2275,25.121 C29.097166,25.1890003 28.9526675,25.2739995 28.794,25.376 L27.672,24.662 L27.978,19.205 L34.098,19.205 L34.098,21.313 L30.137,21.313 L29.95,23.336 C30.154001,23.2453329 30.3494991,23.1801669 30.5365,23.1405 C30.7235009,23.1008331 30.9303322,23.081 31.157,23.081 C31.621669,23.081 32.0608313,23.1489993 32.4745,23.285 C32.8881687,23.4210007 33.2536651,23.6249986 33.571,23.897 C33.8883349,24.1690014 34.1376658,24.5146646 34.319,24.934 C34.5003342,25.3533354 34.591,25.8519971 34.591,26.43 C34.591,27.0306697 34.4833344,27.563331 34.268,28.028 C34.0526656,28.492669 33.7636685,28.8864984 33.401,29.2095 C33.0383315,29.5325016 32.6161691,29.7789992 32.1345,29.949 C31.6528309,30.1190008 31.1513359,30.204 30.63,30.204 Z M36.512,30 L36.512,21.568 L38.552,21.568 L38.722,22.656 L38.79,22.656 C39.1413351,22.3046649 39.5153313,22.0015013 39.912,21.7465 C40.3086687,21.4914987 40.7846639,21.364 41.34,21.364 C41.9406697,21.364 42.4251648,21.4858321 42.7935,21.7295 C43.1618352,21.9731679 43.4536656,22.3216644 43.669,22.775 C44.0430019,22.3896647 44.4368313,22.0581681 44.8505,21.7805 C45.2641687,21.5028319 45.7543305,21.364 46.321,21.364 C47.2276712,21.364 47.8934979,21.6671636 48.3185,22.2735 C48.7435021,22.8798364 48.956,23.7099947 48.956,24.764 L48.956,30 L46.457,30 L46.457,25.087 C46.457,24.4749969 46.3748342,24.0556678 46.2105,23.829 C46.0461658,23.6023322 45.7826685,23.489 45.42,23.489 C45.0006646,23.489 44.5190027,23.7609973 43.975,24.305 L43.975,30 L41.476,30 L41.476,25.087 C41.476,24.4749969 41.3938342,24.0556678 41.2295,23.829 C41.0651658,23.6023322 40.8016685,23.489 40.439,23.489 C40.0083312,23.489 39.5323359,23.7609973 39.011,24.305 L39.011,30 L36.512,30 Z M51.081,30 L51.081,21.568 L53.121,21.568 L53.291,22.656 L53.359,22.656 C53.7103351,22.3046649 54.0843313,22.0015013 54.481,21.7465 C54.8776687,21.4914987 55.3536639,21.364 55.909,21.364 C56.5096697,21.364 56.9941648,21.4858321 57.3625,21.7295 C57.7308352,21.9731679 58.0226656,22.3216644 58.238,22.775 C58.6120019,22.3896647 59.0058313,22.0581681 59.4195,21.7805 C59.8331687,21.5028319 60.3233305,21.364 60.89,21.364 C61.7966712,21.364 62.4624979,21.6671636 62.8875,22.2735 C63.3125021,22.8798364 63.525,23.7099947 63.525,24.764 L63.525,30 L61.026,30 L61.026,25.087 C61.026,24.4749969 60.9438342,24.0556678 60.7795,23.829 C60.6151658,23.6023322 60.3516685,23.489 59.989,23.489 C59.5696646,23.489 59.0880027,23.7609973 58.544,24.305 L58.544,30 L56.045,30 L56.045,25.087 C56.045,24.4749969 55.9628342,24.0556678 55.7985,23.829 C55.6341658,23.6023322 55.3706685,23.489 55.008,23.489 C54.5773312,23.489 54.1013359,23.7609973 53.58,24.305 L53.58,30 L51.081,30 Z" id="75mm" fill="#093169" fill-rule="nonzero" transform="translate(40.864000, 24.704500) rotate(-270.000000) translate(-40.864000, -24.704500) "></path>
            <polyline id="Rectangle-Copy-3" stroke="#CBD8F2" transform="translate(7.500000, 23.500000) rotate(-270.000000) translate(-7.500000, -23.500000) " points="-10.9383333 31 -11 16 26 16 26 31"></polyline>
        </g>
        <polyline id="Rectangle-Copy" stroke="#CBD8F2" points="203.5 87 203 72 503 72 503 87"></polyline>
        <path d="M330.244,52.204 C329.722664,52.204 329.215502,52.102001 328.7225,51.898 C328.229498,51.693999 327.793169,51.3766688 327.4135,50.946 C327.033831,50.5153312 326.730668,49.9628367 326.504,49.2885 C326.277332,48.6141633 326.164,47.8010048 326.164,46.849 C326.164,45.8403283 326.285832,44.9676703 326.5295,44.231 C326.773168,43.4943296 327.096165,42.8880024 327.4985,42.412 C327.900835,41.9359976 328.365497,41.5818345 328.8925,41.3495 C329.419503,41.1171655 329.966331,41.001 330.533,41.001 C331.247004,41.001 331.864664,41.1284987 332.386,41.3835 C332.907336,41.6385013 333.337998,41.9416649 333.678,42.293 L332.369,43.789 C332.176332,43.584999 331.927002,43.4065008 331.621,43.2535 C331.314998,43.1004992 331.003335,43.024 330.686,43.024 C330.391332,43.024 330.113668,43.0806661 329.853,43.194 C329.592332,43.3073339 329.362834,43.4971653 329.1645,43.7635 C328.966166,44.0298347 328.804667,44.3783312 328.68,44.809 C328.555333,45.2396688 328.481667,45.7666636 328.459,46.39 C328.595001,46.2086658 328.753666,46.0471674 328.935,45.9055 C329.116334,45.7638326 329.303332,45.6448338 329.496,45.5485 C329.688668,45.4521662 329.881332,45.3785003 330.074,45.3275 C330.266668,45.2764997 330.447999,45.251 330.618,45.251 C331.082669,45.251 331.510498,45.3189993 331.9015,45.455 C332.292502,45.5910007 332.632499,45.7949986 332.9215,46.067 C333.210501,46.3390014 333.434333,46.6846646 333.593,47.104 C333.751667,47.5233354 333.831,48.0163305 333.831,48.583 C333.831,49.1496695 333.734668,49.6539978 333.542,50.096 C333.349332,50.5380022 333.091502,50.9176651 332.7685,51.235 C332.445498,51.5523349 332.065836,51.7931658 331.6295,51.9575 C331.193164,52.1218342 330.731336,52.204 330.244,52.204 Z M330.193,50.334 C330.567002,50.334 330.887165,50.1951681 331.1535,49.9175 C331.419835,49.6398319 331.553,49.1950031 331.553,48.583 C331.553,48.0049971 331.419835,47.5998345 331.1535,47.3675 C330.887165,47.1351655 330.550002,47.019 330.142,47.019 C329.858665,47.019 329.572501,47.1011658 329.2835,47.2655 C328.994499,47.4298342 328.736668,47.7046647 328.51,48.09 C328.566667,48.5206688 328.651666,48.8776652 328.765,49.161 C328.878334,49.4443347 329.008666,49.6738325 329.156,49.8495 C329.303334,50.0251675 329.464832,50.149833 329.6405,50.2235 C329.816168,50.297167 330.000332,50.334 330.193,50.334 Z M335.633,52 L335.633,49.977 L337.979,49.977 L337.979,43.738 L335.956,43.738 L335.956,42.191 C336.545336,42.0776661 337.043998,41.9416675 337.452,41.783 C337.860002,41.6243325 338.256665,41.4316678 338.642,41.205 L340.478,41.205 L340.478,49.977 L342.501,49.977 L342.501,52 L335.633,52 Z M347.907,52.204 C347.328997,52.204 346.802002,52.0821679 346.326,51.8385 C345.849998,51.5948321 345.444835,51.2350024 345.1105,50.759 C344.776165,50.2829976 344.515501,49.6936702 344.3285,48.991 C344.141499,48.2883298 344.048,47.4780046 344.048,46.56 C344.048,45.6419954 344.141499,44.8373368 344.3285,44.146 C344.515501,43.4546632 344.776165,42.8738357 345.1105,42.4035 C345.444835,41.9331643 345.849998,41.5818345 346.326,41.3495 C346.802002,41.1171655 347.328997,41.001 347.907,41.001 C348.485003,41.001 349.011998,41.1171655 349.488,41.3495 C349.964002,41.5818345 350.369165,41.9331643 350.7035,42.4035 C351.037835,42.8738357 351.298499,43.4546632 351.4855,44.146 C351.672501,44.8373368 351.766,45.6419954 351.766,46.56 C351.766,47.4780046 351.672501,48.2883298 351.4855,48.991 C351.298499,49.6936702 351.037835,50.2829976 350.7035,50.759 C350.369165,51.2350024 349.964002,51.5948321 349.488,51.8385 C349.011998,52.0821679 348.485003,52.204 347.907,52.204 Z M347.907,50.266 C348.122334,50.266 348.320666,50.2121672 348.502,50.1045 C348.683334,49.9968328 348.841999,49.8013347 348.978,49.518 C349.114001,49.2346652 349.218833,48.8550024 349.2925,48.379 C349.366167,47.9029976 349.403,47.2966703 349.403,46.56 C349.403,45.8233296 349.366167,45.2198357 349.2925,44.7495 C349.218833,44.2791643 349.114001,43.9108347 348.978,43.6445 C348.841999,43.3781653 348.683334,43.1940005 348.502,43.092 C348.320666,42.9899995 348.122334,42.939 347.907,42.939 C347.702999,42.939 347.510334,42.9899995 347.329,43.092 C347.147666,43.1940005 346.989001,43.3781653 346.853,43.6445 C346.716999,43.9108347 346.609334,44.2791643 346.53,44.7495 C346.450666,45.2198357 346.411,45.8233296 346.411,46.56 C346.411,47.2966703 346.450666,47.9029976 346.53,48.379 C346.609334,48.8550024 346.716999,49.2346652 346.853,49.518 C346.989001,49.8013347 347.147666,49.9968328 347.329,50.1045 C347.510334,50.2121672 347.702999,50.266 347.907,50.266 Z M353.5,52 L353.5,43.568 L355.54,43.568 L355.71,44.656 L355.778,44.656 C356.129335,44.3046649 356.503331,44.0015013 356.9,43.7465 C357.296669,43.4914987 357.772664,43.364 358.328,43.364 C358.92867,43.364 359.413165,43.4858321 359.7815,43.7295 C360.149835,43.9731679 360.441666,44.3216644 360.657,44.775 C361.031002,44.3896647 361.424831,44.0581681 361.8385,43.7805 C362.252169,43.5028319 362.74233,43.364 363.309,43.364 C364.215671,43.364 364.881498,43.6671636 365.3065,44.2735 C365.731502,44.8798364 365.944,45.7099947 365.944,46.764 L365.944,52 L363.445,52 L363.445,47.087 C363.445,46.4749969 363.362834,46.0556678 363.1985,45.829 C363.034166,45.6023322 362.770668,45.489 362.408,45.489 C361.988665,45.489 361.507003,45.7609973 360.963,46.305 L360.963,52 L358.464,52 L358.464,47.087 C358.464,46.4749969 358.381834,46.0556678 358.2175,45.829 C358.053166,45.6023322 357.789668,45.489 357.427,45.489 C356.996331,45.489 356.520336,45.7609973 355.999,46.305 L355.999,52 L353.5,52 Z M368.069,52 L368.069,43.568 L370.109,43.568 L370.279,44.656 L370.347,44.656 C370.698335,44.3046649 371.072331,44.0015013 371.469,43.7465 C371.865669,43.4914987 372.341664,43.364 372.897,43.364 C373.49767,43.364 373.982165,43.4858321 374.3505,43.7295 C374.718835,43.9731679 375.010666,44.3216644 375.226,44.775 C375.600002,44.3896647 375.993831,44.0581681 376.4075,43.7805 C376.821169,43.5028319 377.31133,43.364 377.878,43.364 C378.784671,43.364 379.450498,43.6671636 379.8755,44.2735 C380.300502,44.8798364 380.513,45.7099947 380.513,46.764 L380.513,52 L378.014,52 L378.014,47.087 C378.014,46.4749969 377.931834,46.0556678 377.7675,45.829 C377.603166,45.6023322 377.339668,45.489 376.977,45.489 C376.557665,45.489 376.076003,45.7609973 375.532,46.305 L375.532,52 L373.033,52 L373.033,47.087 C373.033,46.4749969 372.950834,46.0556678 372.7865,45.829 C372.622166,45.6023322 372.358668,45.489 371.996,45.489 C371.565331,45.489 371.089336,45.7609973 370.568,46.305 L370.568,52 L368.069,52 Z" id="610mm" fill="#093169" fill-rule="nonzero"></path>
    </g>
</svg>