<?xml version="1.0" encoding="UTF-8"?>
<svg width="600px" height="316px" viewBox="0 0 600 316" version="1.1" xmlns="http://www.w3.org/2000/svg" xmlns:xlink="http://www.w3.org/1999/xlink">
    <!-- Generator: Sketch 58 (84663) - https://sketch.com -->
    <title>architecturalPieces/GV1</title>
    <desc>Created with Sketch.</desc>
    <g id="architecturalPieces/GV1" stroke="none" stroke-width="1" fill="none" fill-rule="evenodd">
        <rect fill="#F5F9FF" x="0" y="0" width="600" height="316"></rect>
        <g id="Group-3" transform="translate(140.000000, 35.000000)">
            <polygon id="Path" stroke="#CBD8F2" fill="#FFFFFF" points="0 246 105 246 105 67 0 67"></polygon>
            <path d="M136.598,163.204 C135.713996,163.204 134.966003,163.065168 134.354,162.7875 C133.741997,162.509832 133.237669,162.138669 132.841,161.674 L133.997,160.093 C134.325668,160.410335 134.685498,160.670999 135.0765,160.875 C135.467502,161.079001 135.895331,161.181 136.36,161.181 C136.892669,161.181 137.317665,161.070501 137.635,160.8495 C137.952335,160.628499 138.111,160.314002 138.111,159.906 C138.111,159.667999 138.0685,159.452668 137.9835,159.26 C137.8985,159.067332 137.748334,158.905834 137.533,158.7755 C137.317666,158.645166 137.023002,158.543167 136.649,158.4695 C136.274998,158.395833 135.793336,158.359 135.204,158.359 L135.204,156.591 C135.691336,156.591 136.096498,156.557 136.4195,156.489 C136.742502,156.421 137.003166,156.321834 137.2015,156.1915 C137.399834,156.061166 137.5415,155.908168 137.6265,155.7325 C137.7115,155.556832 137.754,155.361334 137.754,155.146 C137.754,154.771998 137.640668,154.480168 137.414,154.2705 C137.187332,154.060832 136.858669,153.956 136.428,153.956 C136.042665,153.956 135.694168,154.040999 135.3825,154.211 C135.070832,154.381001 134.745002,154.613332 134.405,154.908 L133.147,153.378 C133.645669,152.947331 134.169831,152.610168 134.7195,152.3665 C135.269169,152.122832 135.87833,152.001 136.547,152.001 C137.102336,152.001 137.609498,152.066166 138.0685,152.1965 C138.527502,152.326834 138.918498,152.519499 139.2415,152.7745 C139.564502,153.029501 139.816666,153.338332 139.998,153.701 C140.179334,154.063668 140.27,154.482998 140.27,154.959 C140.27,155.525669 140.114168,156.004498 139.8025,156.3955 C139.490832,156.786502 139.046003,157.106665 138.468,157.356 L138.468,157.424 C139.091336,157.605334 139.604165,157.914164 140.0065,158.3505 C140.408835,158.786836 140.61,159.35633 140.61,160.059 C140.61,160.557669 140.502334,161.002498 140.287,161.3935 C140.071666,161.784502 139.782668,162.113165 139.42,162.3795 C139.057332,162.645835 138.632336,162.849833 138.145,162.9915 C137.657664,163.133167 137.142003,163.204 136.598,163.204 Z M146.22,163.204 C145.698664,163.204 145.191502,163.102001 144.6985,162.898 C144.205498,162.693999 143.769169,162.376669 143.3895,161.946 C143.009831,161.515331 142.706668,160.962837 142.48,160.2885 C142.253332,159.614163 142.14,158.801005 142.14,157.849 C142.14,156.840328 142.261832,155.96767 142.5055,155.231 C142.749168,154.49433 143.072165,153.888002 143.4745,153.412 C143.876835,152.935998 144.341497,152.581834 144.8685,152.3495 C145.395503,152.117166 145.94233,152.001 146.509,152.001 C147.223004,152.001 147.840664,152.128499 148.362,152.3835 C148.883336,152.638501 149.313998,152.941665 149.654,153.293 L148.345,154.789 C148.152332,154.584999 147.903002,154.406501 147.597,154.2535 C147.290998,154.100499 146.979335,154.024 146.662,154.024 C146.367332,154.024 146.089668,154.080666 145.829,154.194 C145.568332,154.307334 145.338834,154.497165 145.1405,154.7635 C144.942166,155.029835 144.780667,155.378331 144.656,155.809 C144.531333,156.239669 144.457667,156.766664 144.435,157.39 C144.571001,157.208666 144.729666,157.047167 144.911,156.9055 C145.092334,156.763833 145.279332,156.644834 145.472,156.5485 C145.664668,156.452166 145.857332,156.3785 146.05,156.3275 C146.242668,156.2765 146.423999,156.251 146.594,156.251 C147.058669,156.251 147.486498,156.318999 147.8775,156.455 C148.268502,156.591001 148.608499,156.794999 148.8975,157.067 C149.186501,157.339001 149.410333,157.684665 149.569,158.104 C149.727667,158.523335 149.807,159.016331 149.807,159.583 C149.807,160.149669 149.710668,160.653998 149.518,161.096 C149.325332,161.538002 149.067502,161.917665 148.7445,162.235 C148.421498,162.552335 148.041836,162.793166 147.6055,162.9575 C147.169164,163.121834 146.707336,163.204 146.22,163.204 Z M146.169,161.334 C146.543002,161.334 146.863165,161.195168 147.1295,160.9175 C147.395835,160.639832 147.529,160.195003 147.529,159.583 C147.529,159.004997 147.395835,158.599834 147.1295,158.3675 C146.863165,158.135166 146.526002,158.019 146.118,158.019 C145.834665,158.019 145.548501,158.101166 145.2595,158.2655 C144.970499,158.429834 144.712668,158.704665 144.486,159.09 C144.542667,159.520669 144.627666,159.877665 144.741,160.161 C144.854334,160.444335 144.984666,160.673832 145.132,160.8495 C145.279334,161.025168 145.440832,161.149833 145.6165,161.2235 C145.792168,161.297167 145.976332,161.334 146.169,161.334 Z M154.618,163.204 C153.733996,163.204 152.986003,163.059501 152.374,162.7705 C151.761997,162.481499 151.240669,162.121669 150.81,161.691 L151.932,160.11 C152.260668,160.404668 152.614831,160.656832 152.9945,160.8665 C153.374169,161.076168 153.796331,161.181 154.261,161.181 C154.816336,161.181 155.258332,161.039335 155.587,160.756 C155.915668,160.472665 156.08,160.053336 156.08,159.498 C156.08,158.953997 155.924168,158.540335 155.6125,158.257 C155.300832,157.973665 154.890003,157.832 154.38,157.832 C154.221333,157.832 154.079667,157.8405 153.955,157.8575 C153.830333,157.8745 153.708501,157.905666 153.5895,157.951 C153.470499,157.996334 153.345834,158.053 153.2155,158.121 C153.085166,158.189 152.940667,158.273999 152.782,158.376 L151.66,157.662 L151.966,152.205 L158.086,152.205 L158.086,154.313 L154.125,154.313 L153.938,156.336 C154.142001,156.245333 154.337499,156.180167 154.5245,156.1405 C154.711501,156.100833 154.918332,156.081 155.145,156.081 C155.609669,156.081 156.048831,156.148999 156.4625,156.285 C156.876169,156.421001 157.241665,156.624999 157.559,156.897 C157.876335,157.169001 158.125666,157.514665 158.307,157.934 C158.488334,158.353335 158.579,158.851997 158.579,159.43 C158.579,160.03067 158.471334,160.563331 158.256,161.028 C158.040666,161.492669 157.751668,161.886498 157.389,162.2095 C157.026332,162.532502 156.604169,162.778999 156.1225,162.949 C155.640831,163.119001 155.139336,163.204 154.618,163.204 Z M160.5,163 L160.5,154.568 L162.54,154.568 L162.71,155.656 L162.778,155.656 C163.129335,155.304665 163.503331,155.001501 163.9,154.7465 C164.296669,154.491499 164.772664,154.364 165.328,154.364 C165.92867,154.364 166.413165,154.485832 166.7815,154.7295 C167.149835,154.973168 167.441666,155.321664 167.657,155.775 C168.031002,155.389665 168.424831,155.058168 168.8385,154.7805 C169.252169,154.502832 169.742331,154.364 170.309,154.364 C171.215671,154.364 171.881498,154.667164 172.3065,155.2735 C172.731502,155.879836 172.944,156.709995 172.944,157.764 L172.944,163 L170.445,163 L170.445,158.087 C170.445,157.474997 170.362834,157.055668 170.1985,156.829 C170.034166,156.602332 169.770668,156.489 169.408,156.489 C168.988665,156.489 168.507003,156.760997 167.963,157.305 L167.963,163 L165.464,163 L165.464,158.087 C165.464,157.474997 165.381834,157.055668 165.2175,156.829 C165.053166,156.602332 164.789668,156.489 164.427,156.489 C163.996331,156.489 163.520336,156.760997 162.999,157.305 L162.999,163 L160.5,163 Z M175.069,163 L175.069,154.568 L177.109,154.568 L177.279,155.656 L177.347,155.656 C177.698335,155.304665 178.072331,155.001501 178.469,154.7465 C178.865669,154.491499 179.341664,154.364 179.897,154.364 C180.49767,154.364 180.982165,154.485832 181.3505,154.7295 C181.718835,154.973168 182.010666,155.321664 182.226,155.775 C182.600002,155.389665 182.993831,155.058168 183.4075,154.7805 C183.821169,154.502832 184.31133,154.364 184.878,154.364 C185.784671,154.364 186.450498,154.667164 186.8755,155.2735 C187.300502,155.879836 187.513,156.709995 187.513,157.764 L187.513,163 L185.014,163 L185.014,158.087 C185.014,157.474997 184.931834,157.055668 184.7675,156.829 C184.603166,156.602332 184.339668,156.489 183.977,156.489 C183.557665,156.489 183.076003,156.760997 182.532,157.305 L182.532,163 L180.033,163 L180.033,158.087 C180.033,157.474997 179.950834,157.055668 179.7865,156.829 C179.622166,156.602332 179.358668,156.489 178.996,156.489 C178.565331,156.489 178.089336,156.760997 177.568,157.305 L177.568,163 L175.069,163 Z" id="365mm" fill="#093169" fill-rule="nonzero" transform="translate(160.177000, 157.602500) rotate(-270.000000) translate(-160.177000, -157.602500) "></path>
            <polyline id="Rectangle-Copy-3" stroke="#CBD8F2" transform="translate(127.500000, 156.500000) rotate(-270.000000) translate(-127.500000, -156.500000) " points="38.2983333 164 38 149 217 149 217 164"></polyline>
            <polyline id="Rectangle-Copy" stroke="#CBD8F2" points="0.176666667 52 0 37 106 37 106 52"></polyline>
            <path d="M26.096,17 L26.096,15.572 L26.8970407,14.8171994 C27.2832799,14.4500002 27.6480983,14.0981017 27.9915,13.7615 C28.5638362,13.2004972 29.0568313,12.6735025 29.4705,12.1805 C29.8841687,11.6874975 30.2071655,11.2285021 30.4395,10.8035 C30.6718345,10.3784979 30.788,9.97333526 30.788,9.588 C30.788,9.05533067 30.6520014,8.65016806 30.38,8.3725 C30.1079986,8.09483195 29.7340024,7.956 29.258,7.956 C28.8613314,7.956 28.5100015,8.0664989 28.204,8.2875 C27.8979985,8.50850111 27.6090014,8.76633186 27.337,9.061 L25.977,7.718 C26.5096693,7.1513305 27.0536639,6.72350145 27.609,6.4345 C28.1643361,6.14549856 28.8273295,6.001 29.598,6.001 C30.1306693,6.001 30.6151645,6.08316585 31.0515,6.2475 C31.4878355,6.41183416 31.8646651,6.64416517 32.182,6.9445 C32.4993349,7.24483484 32.7429992,7.60466457 32.913,8.024 C33.0830008,8.44333543 33.168,8.91366406 33.168,9.435 C33.168,9.8883356 33.0716676,10.3501643 32.879,10.8205 C32.6863324,11.2908357 32.4285016,11.7611643 32.1055,12.2315 C31.7824984,12.7018357 31.4141687,13.1721643 31.0005,13.6425 C30.5868313,14.1128357 30.1590022,14.5746644 29.717,15.028 L30.1483749,14.979125 C30.2999578,14.9635417 30.4593325,14.9486667 30.6265,14.9345 C30.960835,14.9061665 31.258332,14.892 31.519,14.892 L33.695,14.892 L33.695,17 L26.096,17 Z M35.633,17 L35.633,14.977 L37.979,14.977 L37.979,8.738 L35.956,8.738 L35.956,7.191 C36.5453363,7.0776661 37.043998,6.94166746 37.452,6.783 C37.860002,6.62433254 38.2566647,6.4316678 38.642,6.205 L40.478,6.205 L40.478,14.977 L42.501,14.977 L42.501,17 L35.633,17 Z M47.618,17.204 C46.7339956,17.204 45.9860031,17.0595014 45.374,16.7705 C44.7619969,16.4814986 44.2406688,16.1216688 43.81,15.691 L44.932,14.11 C45.2606683,14.4046681 45.6148314,14.6568323 45.9945,14.8665 C46.3741686,15.0761677 46.796331,15.181 47.261,15.181 C47.8163361,15.181 48.2583317,15.0393348 48.587,14.756 C48.9156683,14.4726653 49.08,14.0533361 49.08,13.498 C49.08,12.9539973 48.9241682,12.5403348 48.6125,12.257 C48.3008318,11.9736653 47.8900025,11.832 47.38,11.832 C47.2213325,11.832 47.0796673,11.8404999 46.955,11.8575 C46.8303327,11.8745001 46.7085006,11.9056664 46.5895,11.951 C46.4704994,11.9963336 46.345834,12.0529997 46.2155,12.121 C46.085166,12.1890003 45.9406675,12.2739995 45.782,12.376 L44.66,11.662 L44.966,6.205 L51.086,6.205 L51.086,8.313 L47.125,8.313 L46.938,10.336 C47.142001,10.2453329 47.3374991,10.1801669 47.5245,10.1405 C47.7115009,10.1008331 47.9183322,10.081 48.145,10.081 C48.609669,10.081 49.0488313,10.1489993 49.4625,10.285 C49.8761687,10.4210007 50.2416651,10.6249986 50.559,10.897 C50.8763349,11.1690014 51.1256658,11.5146646 51.307,11.934 C51.4883342,12.3533354 51.579,12.8519971 51.579,13.43 C51.579,14.0306697 51.4713344,14.563331 51.256,15.028 C51.0406656,15.492669 50.7516685,15.8864984 50.389,16.2095 C50.0263315,16.5325016 49.6041691,16.7789992 49.1225,16.949 C48.6408309,17.1190009 48.1393359,17.204 47.618,17.204 Z M53.5,17 L53.5,8.568 L55.54,8.568 L55.71,9.656 L55.778,9.656 C56.1293351,9.30466491 56.5033313,9.00150128 56.9,8.7465 C57.2966687,8.49149873 57.7726639,8.364 58.328,8.364 C58.9286697,8.364 59.4131648,8.48583212 59.7815,8.7295 C60.1498352,8.97316789 60.4416656,9.3216644 60.657,9.775 C61.0310019,9.38966474 61.4248313,9.05816806 61.8385,8.7805 C62.2521687,8.50283195 62.7423305,8.364 63.309,8.364 C64.2156712,8.364 64.8814979,8.66716364 65.3065,9.2735 C65.7315021,9.87983637 65.944,10.7099947 65.944,11.764 L65.944,17 L63.445,17 L63.445,12.087 C63.445,11.4749969 63.3628342,11.0556678 63.1985,10.829 C63.0341658,10.6023322 62.7706685,10.489 62.408,10.489 C61.9886646,10.489 61.5070027,10.7609973 60.963,11.305 L60.963,17 L58.464,17 L58.464,12.087 C58.464,11.4749969 58.3818342,11.0556678 58.2175,10.829 C58.0531658,10.6023322 57.7896685,10.489 57.427,10.489 C56.9963312,10.489 56.5203359,10.7609973 55.999,11.305 L55.999,17 L53.5,17 Z M68.069,17 L68.069,8.568 L70.109,8.568 L70.279,9.656 L70.347,9.656 C70.6983351,9.30466491 71.0723314,9.00150128 71.469,8.7465 C71.8656687,8.49149873 72.3416639,8.364 72.897,8.364 C73.4976697,8.364 73.9821648,8.48583212 74.3505,8.7295 C74.7188352,8.97316789 75.0106656,9.3216644 75.226,9.775 C75.6000019,9.38966474 75.9938313,9.05816806 76.4075,8.7805 C76.8211687,8.50283195 77.3113305,8.364 77.878,8.364 C78.7846712,8.364 79.4504979,8.66716364 79.8755,9.2735 C80.3005021,9.87983637 80.513,10.7099947 80.513,11.764 L80.513,17 L78.014,17 L78.014,12.087 C78.014,11.4749969 77.9318342,11.0556678 77.7675,10.829 C77.6031658,10.6023322 77.3396685,10.489 76.977,10.489 C76.5576646,10.489 76.0760027,10.7609973 75.532,11.305 L75.532,17 L73.033,17 L73.033,12.087 C73.033,11.4749969 72.9508342,11.0556678 72.7865,10.829 C72.6221658,10.6023322 72.3586685,10.489 71.996,10.489 C71.5653312,10.489 71.0893359,10.7609973 70.568,11.305 L70.568,17 L68.069,17 Z" id="215mm" fill="#093169" fill-rule="nonzero"></path>
            <polygon id="Path" stroke="#CBD8F2" fill="#FFFFFF" points="77.22 96.46 28.2 96.46 28.2 216.58 77.22 216.58"></polygon>
            <path d="M47.34,194.98 L58.14,194.98 L47.34,194.98 Z" id="Path" stroke="#CBD8F2"></path>
            <path d="M47.34,118 L58.14,118 L47.34,118 Z" id="Path" stroke="#CBD8F2"></path>
            <path d="M77.22,96.46 L77.22,216.58 L77.22,96.46 Z" id="Path" stroke="#CBD8F2" fill="#FFFFFF"></path>
            <path d="M47.34,118 L47.34,194.98 L47.34,118 Z" id="Path" stroke="#CBD8F2" fill="#FFFFFF"></path>
            <path d="M58.14,118 L58.14,194.98 L58.14,118 Z" id="Path" stroke="#CBD8F2" fill="#FFFFFF"></path>
            <path d="M58.14,194.98 L77.22,216.58 L58.14,194.98 Z" id="Path" stroke="#CBD8F2"></path>
            <path d="M47.34,194.98 L28.2,216.58 L47.34,194.98 Z" id="Path" stroke="#CBD8F2"></path>
            <path d="M47.34,118 L28.2,96.46 L47.34,118 Z" id="Path" stroke="#CBD8F2"></path>
            <path d="M58.14,118 L77.22,96.46" id="Line" stroke="#CBD8F2"></path>
            <g id="Group-2" transform="translate(257.000000, 0.000000)">
                <path d="M88.598,163.204 C87.7139956,163.204 86.9660031,163.065168 86.354,162.7875 C85.7419969,162.509832 85.2376687,162.138669 84.841,161.674 L85.997,160.093 C86.3256683,160.410335 86.685498,160.670999 87.0765,160.875 C87.467502,161.079001 87.895331,161.181 88.36,161.181 C88.8926693,161.181 89.3176651,161.070501 89.635,160.8495 C89.9523349,160.628499 90.111,160.314002 90.111,159.906 C90.111,159.667999 90.0685004,159.452668 89.9835,159.26 C89.8984996,159.067332 89.7483344,158.905834 89.533,158.7755 C89.3176656,158.645166 89.0230019,158.543167 88.649,158.4695 C88.2749981,158.395833 87.7933363,158.359 87.204,158.359 L87.204,156.591 C87.6913358,156.591 88.0964984,156.557 88.4195,156.489 C88.7425016,156.421 89.0031657,156.321834 89.2015,156.1915 C89.3998343,156.061166 89.5414996,155.908168 89.6265,155.7325 C89.7115004,155.556832 89.754,155.361334 89.754,155.146 C89.754,154.771998 89.6406678,154.480168 89.414,154.2705 C89.1873322,154.060832 88.8586688,153.956 88.428,153.956 C88.0426647,153.956 87.6941682,154.040999 87.3825,154.211 C87.0708318,154.381001 86.7450017,154.613332 86.405,154.908 L85.147,153.378 C85.6456692,152.947331 86.1698306,152.610168 86.7195,152.3665 C87.2691694,152.122832 87.87833,152.001 88.547,152.001 C89.1023361,152.001 89.6094977,152.066166 90.0685,152.1965 C90.5275023,152.326834 90.9184984,152.519499 91.2415,152.7745 C91.5645016,153.029501 91.8166658,153.338332 91.998,153.701 C92.1793342,154.063668 92.27,154.482998 92.27,154.959 C92.27,155.525669 92.1141682,156.004498 91.8025,156.3955 C91.4908318,156.786502 91.0460029,157.106665 90.468,157.356 L90.468,157.424 C91.0913365,157.605334 91.6041647,157.914164 92.0065,158.3505 C92.4088353,158.786836 92.61,159.35633 92.61,160.059 C92.61,160.557669 92.5023344,161.002498 92.287,161.3935 C92.0716656,161.784502 91.7826685,162.113165 91.42,162.3795 C91.0573315,162.645835 90.6323358,162.849833 90.145,162.9915 C89.6576642,163.133167 89.1420027,163.204 88.598,163.204 Z M98.22,163.204 C97.6986641,163.204 97.1915025,163.102001 96.6985,162.898 C96.2054975,162.693999 95.7691686,162.376669 95.3895,161.946 C95.0098314,161.515331 94.7066678,160.962837 94.48,160.2885 C94.2533322,159.614163 94.14,158.801005 94.14,157.849 C94.14,156.840328 94.2618321,155.96767 94.5055,155.231 C94.7491679,154.49433 95.0721647,153.888002 95.4745,153.412 C95.8768353,152.935998 96.3414974,152.581834 96.8685,152.3495 C97.3955026,152.117166 97.9423305,152.001 98.509,152.001 C99.2230036,152.001 99.8406641,152.128499 100.362,152.3835 C100.883336,152.638501 101.313998,152.941665 101.654,153.293 L100.345,154.789 C100.152332,154.584999 99.9030015,154.406501 99.597,154.2535 C99.2909985,154.100499 98.9793349,154.024 98.662,154.024 C98.3673319,154.024 98.089668,154.080666 97.829,154.194 C97.568332,154.307334 97.3388343,154.497165 97.1405,154.7635 C96.9421657,155.029835 96.7806673,155.378331 96.656,155.809 C96.5313327,156.239669 96.4576668,156.766664 96.435,157.39 C96.5710007,157.208666 96.7296658,157.047167 96.911,156.9055 C97.0923342,156.763833 97.2793324,156.644834 97.472,156.5485 C97.6646676,156.452166 97.8573324,156.3785 98.05,156.3275 C98.2426676,156.2765 98.4239992,156.251 98.594,156.251 C99.058669,156.251 99.486498,156.318999 99.8775,156.455 C100.268502,156.591001 100.608499,156.794999 100.8975,157.067 C101.186501,157.339001 101.410333,157.684665 101.569,158.104 C101.727667,158.523335 101.807,159.016331 101.807,159.583 C101.807,160.149669 101.710668,160.653998 101.518,161.096 C101.325332,161.538002 101.067502,161.917665 100.7445,162.235 C100.421498,162.552335 100.041836,162.793166 99.6055,162.9575 C99.1691645,163.121834 98.7073358,163.204 98.22,163.204 Z M98.169,161.334 C98.5430019,161.334 98.8631653,161.195168 99.1295,160.9175 C99.3958347,160.639832 99.529,160.195003 99.529,159.583 C99.529,159.004997 99.3958347,158.599834 99.1295,158.3675 C98.8631653,158.135166 98.526002,158.019 98.118,158.019 C97.8346653,158.019 97.5485014,158.101166 97.2595,158.2655 C96.9704986,158.429834 96.7126678,158.704665 96.486,159.09 C96.5426669,159.520669 96.6276661,159.877665 96.741,160.161 C96.8543339,160.444335 96.9846659,160.673832 97.132,160.8495 C97.2793341,161.025168 97.4408325,161.149833 97.6165,161.2235 C97.7921675,161.297167 97.9763324,161.334 98.169,161.334 Z M106.618,163.204 C105.733996,163.204 104.986003,163.059501 104.374,162.7705 C103.761997,162.481499 103.240669,162.121669 102.81,161.691 L103.932,160.11 C104.260668,160.404668 104.614831,160.656832 104.9945,160.8665 C105.374169,161.076168 105.796331,161.181 106.261,161.181 C106.816336,161.181 107.258332,161.039335 107.587,160.756 C107.915668,160.472665 108.08,160.053336 108.08,159.498 C108.08,158.953997 107.924168,158.540335 107.6125,158.257 C107.300832,157.973665 106.890003,157.832 106.38,157.832 C106.221333,157.832 106.079667,157.8405 105.955,157.8575 C105.830333,157.8745 105.708501,157.905666 105.5895,157.951 C105.470499,157.996334 105.345834,158.053 105.2155,158.121 C105.085166,158.189 104.940667,158.273999 104.782,158.376 L103.66,157.662 L103.966,152.205 L110.086,152.205 L110.086,154.313 L106.125,154.313 L105.938,156.336 C106.142001,156.245333 106.337499,156.180167 106.5245,156.1405 C106.711501,156.100833 106.918332,156.081 107.145,156.081 C107.609669,156.081 108.048831,156.148999 108.4625,156.285 C108.876169,156.421001 109.241665,156.624999 109.559,156.897 C109.876335,157.169001 110.125666,157.514665 110.307,157.934 C110.488334,158.353335 110.579,158.851997 110.579,159.43 C110.579,160.03067 110.471334,160.563331 110.256,161.028 C110.040666,161.492669 109.751668,161.886498 109.389,162.2095 C109.026332,162.532502 108.604169,162.778999 108.1225,162.949 C107.640831,163.119001 107.139336,163.204 106.618,163.204 Z M112.5,163 L112.5,154.568 L114.54,154.568 L114.71,155.656 L114.778,155.656 C115.129335,155.304665 115.503331,155.001501 115.9,154.7465 C116.296669,154.491499 116.772664,154.364 117.328,154.364 C117.92867,154.364 118.413165,154.485832 118.7815,154.7295 C119.149835,154.973168 119.441666,155.321664 119.657,155.775 C120.031002,155.389665 120.424831,155.058168 120.8385,154.7805 C121.252169,154.502832 121.742331,154.364 122.309,154.364 C123.215671,154.364 123.881498,154.667164 124.3065,155.2735 C124.731502,155.879836 124.944,156.709995 124.944,157.764 L124.944,163 L122.445,163 L122.445,158.087 C122.445,157.474997 122.362834,157.055668 122.1985,156.829 C122.034166,156.602332 121.770668,156.489 121.408,156.489 C120.988665,156.489 120.507003,156.760997 119.963,157.305 L119.963,163 L117.464,163 L117.464,158.087 C117.464,157.474997 117.381834,157.055668 117.2175,156.829 C117.053166,156.602332 116.789668,156.489 116.427,156.489 C115.996331,156.489 115.520336,156.760997 114.999,157.305 L114.999,163 L112.5,163 Z M127.069,163 L127.069,154.568 L129.109,154.568 L129.279,155.656 L129.347,155.656 C129.698335,155.304665 130.072331,155.001501 130.469,154.7465 C130.865669,154.491499 131.341664,154.364 131.897,154.364 C132.49767,154.364 132.982165,154.485832 133.3505,154.7295 C133.718835,154.973168 134.010666,155.321664 134.226,155.775 C134.600002,155.389665 134.993831,155.058168 135.4075,154.7805 C135.821169,154.502832 136.31133,154.364 136.878,154.364 C137.784671,154.364 138.450498,154.667164 138.8755,155.2735 C139.300502,155.879836 139.513,156.709995 139.513,157.764 L139.513,163 L137.014,163 L137.014,158.087 C137.014,157.474997 136.931834,157.055668 136.7675,156.829 C136.603166,156.602332 136.339668,156.489 135.977,156.489 C135.557665,156.489 135.076003,156.760997 134.532,157.305 L134.532,163 L132.033,163 L132.033,158.087 C132.033,157.474997 131.950834,157.055668 131.7865,156.829 C131.622166,156.602332 131.358668,156.489 130.996,156.489 C130.565331,156.489 130.089336,156.760997 129.568,157.305 L129.568,163 L127.069,163 Z" id="365mm" fill="#093169" fill-rule="nonzero" transform="translate(112.177000, 157.602500) rotate(-270.000000) translate(-112.177000, -157.602500) "></path>
                <polyline id="Rectangle-Copy-4" stroke="#CBD8F2" transform="translate(79.500000, 156.500000) rotate(-270.000000) translate(-79.500000, -156.500000) " points="-9.70166667 164 -10 149 169 149 169 164"></polyline>
                <g id="Group">
                    <polyline id="Rectangle-Copy-2" stroke="#CBD8F2" points="4.08 52 4 37 52 37 52 52"></polyline>
                    <path d="M1.657,17 L1.657,14.977 L4.003,14.977 L4.003,8.738 L1.98,8.738 L1.98,7.191 C2.56933628,7.0776661 3.06799796,6.94166746 3.476,6.783 C3.88400204,6.62433254 4.28066474,6.4316678 4.666,6.205 L6.502,6.205 L6.502,14.977 L8.525,14.977 L8.525,17 L1.657,17 Z M13.931,17.204 C13.3529971,17.204 12.8260024,17.0821679 12.35,16.8385 C11.8739976,16.5948321 11.468835,16.2350024 11.1345,15.759 C10.800165,15.2829976 10.5395009,14.6936702 10.3525,13.991 C10.1654991,13.2883298 10.072,12.4780046 10.072,11.56 C10.072,10.6419954 10.1654991,9.83733679 10.3525,9.146 C10.5395009,8.45466321 10.800165,7.87383568 11.1345,7.4035 C11.468835,6.93316431 11.8739976,6.58183449 12.35,6.3495 C12.8260024,6.1171655 13.3529971,6.001 13.931,6.001 C14.5090029,6.001 15.0359976,6.1171655 15.512,6.3495 C15.9880024,6.58183449 16.393165,6.93316431 16.7275,7.4035 C17.061835,7.87383568 17.3224991,8.45466321 17.5095,9.146 C17.6965009,9.83733679 17.79,10.6419954 17.79,11.56 C17.79,12.4780046 17.6965009,13.2883298 17.5095,13.991 C17.3224991,14.6936702 17.061835,15.2829976 16.7275,15.759 C16.393165,16.2350024 15.9880024,16.5948321 15.512,16.8385 C15.0359976,17.0821679 14.5090029,17.204 13.931,17.204 Z M13.931,15.266 C14.1463344,15.266 14.3446658,15.2121672 14.526,15.1045 C14.7073342,14.9968328 14.8659993,14.8013347 15.002,14.518 C15.1380007,14.2346652 15.242833,13.8550024 15.3165,13.379 C15.390167,12.9029976 15.427,12.2966703 15.427,11.56 C15.427,10.8233296 15.390167,10.2198357 15.3165,9.7495 C15.242833,9.27916431 15.1380007,8.91083466 15.002,8.6445 C14.8659993,8.37816533 14.7073342,8.19400051 14.526,8.092 C14.3446658,7.98999949 14.1463344,7.939 13.931,7.939 C13.726999,7.939 13.5343342,7.98999949 13.353,8.092 C13.1716658,8.19400051 13.0130007,8.37816533 12.877,8.6445 C12.7409993,8.91083466 12.6333337,9.27916431 12.554,9.7495 C12.4746663,10.2198357 12.435,10.8233296 12.435,11.56 C12.435,12.2966703 12.4746663,12.9029976 12.554,13.379 C12.6333337,13.8550024 12.7409993,14.2346652 12.877,14.518 C13.0130007,14.8013347 13.1716658,14.9968328 13.353,15.1045 C13.5343342,15.2121672 13.726999,15.266 13.931,15.266 Z M22.907,17.204 C22.3289971,17.204 21.8020024,17.0821679 21.326,16.8385 C20.8499976,16.5948321 20.444835,16.2350024 20.1105,15.759 C19.776165,15.2829976 19.5155009,14.6936702 19.3285,13.991 C19.1414991,13.2883298 19.048,12.4780046 19.048,11.56 C19.048,10.6419954 19.1414991,9.83733679 19.3285,9.146 C19.5155009,8.45466321 19.776165,7.87383568 20.1105,7.4035 C20.444835,6.93316431 20.8499976,6.58183449 21.326,6.3495 C21.8020024,6.1171655 22.3289971,6.001 22.907,6.001 C23.4850029,6.001 24.0119976,6.1171655 24.488,6.3495 C24.9640024,6.58183449 25.369165,6.93316431 25.7035,7.4035 C26.037835,7.87383568 26.2984991,8.45466321 26.4855,9.146 C26.6725009,9.83733679 26.766,10.6419954 26.766,11.56 C26.766,12.4780046 26.6725009,13.2883298 26.4855,13.991 C26.2984991,14.6936702 26.037835,15.2829976 25.7035,15.759 C25.369165,16.2350024 24.9640024,16.5948321 24.488,16.8385 C24.0119976,17.0821679 23.4850029,17.204 22.907,17.204 Z M22.907,15.266 C23.1223344,15.266 23.3206658,15.2121672 23.502,15.1045 C23.6833342,14.9968328 23.8419993,14.8013347 23.978,14.518 C24.1140007,14.2346652 24.218833,13.8550024 24.2925,13.379 C24.366167,12.9029976 24.403,12.2966703 24.403,11.56 C24.403,10.8233296 24.366167,10.2198357 24.2925,9.7495 C24.218833,9.27916431 24.1140007,8.91083466 23.978,8.6445 C23.8419993,8.37816533 23.6833342,8.19400051 23.502,8.092 C23.3206658,7.98999949 23.1223344,7.939 22.907,7.939 C22.702999,7.939 22.5103342,7.98999949 22.329,8.092 C22.1476658,8.19400051 21.9890007,8.37816533 21.853,8.6445 C21.7169993,8.91083466 21.6093337,9.27916431 21.53,9.7495 C21.4506663,10.2198357 21.411,10.8233296 21.411,11.56 C21.411,12.2966703 21.4506663,12.9029976 21.53,13.379 C21.6093337,13.8550024 21.7169993,14.2346652 21.853,14.518 C21.9890007,14.8013347 22.1476658,14.9968328 22.329,15.1045 C22.5103342,15.2121672 22.702999,15.266 22.907,15.266 Z M28.5,17 L28.5,8.568 L30.54,8.568 L30.71,9.656 L30.778,9.656 C31.1293351,9.30466491 31.5033314,9.00150127 31.9,8.7465 C32.2966687,8.49149872 32.7726639,8.364 33.328,8.364 C33.9286697,8.364 34.4131648,8.48583211 34.7815,8.7295 C35.1498352,8.97316788 35.4416656,9.3216644 35.657,9.775 C36.0310019,9.38966474 36.4248313,9.05816805 36.8385,8.7805 C37.2521687,8.50283194 37.7423305,8.364 38.309,8.364 C39.2156712,8.364 39.8814979,8.66716363 40.3065,9.2735 C40.7315021,9.87983636 40.944,10.7099947 40.944,11.764 L40.944,17 L38.445,17 L38.445,12.087 C38.445,11.4749969 38.3628342,11.0556678 38.1985,10.829 C38.0341658,10.6023322 37.7706685,10.489 37.408,10.489 C36.9886646,10.489 36.5070027,10.7609973 35.963,11.305 L35.963,17 L33.464,17 L33.464,12.087 C33.464,11.4749969 33.3818342,11.0556678 33.2175,10.829 C33.0531658,10.6023322 32.7896685,10.489 32.427,10.489 C31.9963312,10.489 31.5203359,10.7609973 30.999,11.305 L30.999,17 L28.5,17 Z M43.069,17 L43.069,8.568 L45.109,8.568 L45.279,9.656 L45.347,9.656 C45.6983351,9.30466491 46.0723314,9.00150127 46.469,8.7465 C46.8656687,8.49149872 47.3416639,8.364 47.897,8.364 C48.4976697,8.364 48.9821648,8.48583211 49.3505,8.7295 C49.7188352,8.97316788 50.0106656,9.3216644 50.226,9.775 C50.6000019,9.38966474 50.9938313,9.05816805 51.4075,8.7805 C51.8211687,8.50283194 52.3113305,8.364 52.878,8.364 C53.7846712,8.364 54.4504979,8.66716363 54.8755,9.2735 C55.3005021,9.87983636 55.513,10.7099947 55.513,11.764 L55.513,17 L53.014,17 L53.014,12.087 C53.014,11.4749969 52.9318342,11.0556678 52.7675,10.829 C52.6031658,10.6023322 52.3396685,10.489 51.977,10.489 C51.5576646,10.489 51.0760027,10.7609973 50.532,11.305 L50.532,17 L48.033,17 L48.033,12.087 C48.033,11.4749969 47.9508342,11.0556678 47.7865,10.829 C47.6221658,10.6023322 47.3586685,10.489 46.996,10.489 C46.5653312,10.489 46.0893359,10.7609973 45.568,11.305 L45.568,17 L43.069,17 Z" id="100mm" fill="#093169" fill-rule="nonzero"></path>
                    <polygon id="Path-Copy" stroke="#CBD8F2" fill="#FFFFFF" transform="translate(28.000000, 156.500000) scale(-1, 1) translate(-28.000000, -156.500000) " points="4 246 52 246 52 67 4 67"></polygon>
                    <path d="M22.8,118 L22.8,194.98 L22.8,118 Z" id="Path" stroke="#CBD8F2" fill="#FFFFFF"></path>
                    <path d="M22.8,194.98 L3.72,216.58 L22.8,194.98 Z" id="Path" stroke="#CBD8F2"></path>
                    <path d="M22.8,118 L3.72,96.46 L22.8,118 Z" id="Path" stroke="#CBD8F2"></path>
                </g>
            </g>
        </g>
    </g>
</svg>