<?xml version="1.0" encoding="UTF-8"?>
<svg width="600px" height="428px" viewBox="0 0 600 428" version="1.1" xmlns="http://www.w3.org/2000/svg" xmlns:xlink="http://www.w3.org/1999/xlink">
    <!-- Generator: Sketch 58 (84663) - https://sketch.com -->
    <title>architecturalPieces/GV2</title>
    <desc>Created with Sketch.</desc>
    <g id="architecturalPieces/GV2" stroke="none" stroke-width="1" fill="none" fill-rule="evenodd">
        <rect fill="#F5F9FF" x="0" y="0" width="600" height="428"></rect>
        <g id="Group-3" transform="translate(112.000000, 35.000000)">
            <g id="Group-2" transform="translate(0.000000, 67.000000)" stroke="#CBD8F2">
                <polygon id="Path" fill="#FFFFFF" points="0 289.32 160.38 289.32 160.38 -2.84217094e-14 0 -2.84217094e-14"></polygon>
                <path d="M74.52,238.32 L87.18,238.32 L74.52,238.32 Z" id="Path"></path>
                <path d="M74.52,51 L87.18,51 L74.52,51 Z" id="Path"></path>
                <path d="M87.18,238.32 L111.54,259.92 L87.18,238.32 Z" id="Path"></path>
                <path d="M74.52,238.32 L48.78,259.92 L74.52,238.32 Z" id="Path"></path>
                <path d="M74.52,51 L48.78,29.4 L74.52,51 Z" id="Path"></path>
                <polygon id="Path" points="111.54 29.4 48.78 29.4 48.78 259.92 111.54 259.92"></polygon>
                <path d="M87.18,51 L111.54,29.4" id="Line"></path>
                <path d="M111.54,29.4 L111.54,259.92 L111.54,29.4 Z" id="Path"></path>
                <path d="M74.52,51 L74.52,238.32 L74.52,51 Z" id="Path"></path>
                <path d="M87.18,51 L87.18,238.32 L87.18,51 Z" id="Path"></path>
            </g>
            <path d="M192.166,218.204 C191.281996,218.204 190.534003,218.059501 189.922,217.7705 C189.309997,217.481499 188.788669,217.121669 188.358,216.691 L189.48,215.11 C189.808668,215.404668 190.162831,215.656832 190.5425,215.8665 C190.922169,216.076168 191.344331,216.181 191.809,216.181 C192.364336,216.181 192.806332,216.039335 193.135,215.756 C193.463668,215.472665 193.628,215.053336 193.628,214.498 C193.628,213.953997 193.472168,213.540335 193.1605,213.257 C192.848832,212.973665 192.438003,212.832 191.928,212.832 C191.769333,212.832 191.627667,212.8405 191.503,212.8575 C191.378333,212.8745 191.256501,212.905666 191.1375,212.951 C191.018499,212.996334 190.893834,213.053 190.7635,213.121 C190.633166,213.189 190.488667,213.273999 190.33,213.376 L189.208,212.662 L189.514,207.205 L195.634,207.205 L195.634,209.313 L191.673,209.313 L191.486,211.336 C191.690001,211.245333 191.885499,211.180167 192.0725,211.1405 C192.259501,211.100833 192.466332,211.081 192.693,211.081 C193.157669,211.081 193.596831,211.148999 194.0105,211.285 C194.424169,211.421001 194.789665,211.624999 195.107,211.897 C195.424335,212.169001 195.673666,212.514665 195.855,212.934 C196.036334,213.353335 196.127,213.851997 196.127,214.43 C196.127,215.03067 196.019334,215.563331 195.804,216.028 C195.588666,216.492669 195.299668,216.886498 194.937,217.2095 C194.574332,217.532502 194.152169,217.778999 193.6705,217.949 C193.188831,218.119001 192.687336,218.204 192.166,218.204 Z M201.227,212.186 C201.510335,212.186 201.796499,212.103834 202.0855,211.9395 C202.374501,211.775166 202.626666,211.500335 202.842,211.115 C202.728666,210.264996 202.516168,209.678502 202.2045,209.3555 C201.892832,209.032498 201.544335,208.871 201.159,208.871 C200.796332,208.871 200.479001,209.009832 200.207,209.2875 C199.934999,209.565168 199.799,210.009997 199.799,210.622 C199.799,211.200003 199.934999,211.605166 200.207,211.8375 C200.479001,212.069834 200.818998,212.186 201.227,212.186 Z M200.836,218.204 C200.121996,218.204 199.501503,218.073668 198.9745,217.813 C198.447497,217.552332 198.014002,217.252002 197.674,216.912 L199,215.416 C199.181334,215.620001 199.424998,215.798499 199.731,215.9515 C200.037002,216.104501 200.348665,216.181 200.666,216.181 C200.972002,216.181 201.255332,216.124334 201.516,216.011 C201.776668,215.897666 202.006166,215.707835 202.2045,215.4415 C202.402834,215.175165 202.561499,214.829502 202.6805,214.4045 C202.799501,213.979498 202.870333,213.44967 202.893,212.815 C202.756999,212.996334 202.598334,213.157833 202.417,213.2995 C202.235666,213.441167 202.048668,213.560166 201.856,213.6565 C201.663332,213.752834 201.470668,213.8265 201.278,213.8775 C201.085332,213.9285 200.904001,213.954 200.734,213.954 C200.269331,213.954 199.841502,213.886001 199.4505,213.75 C199.059498,213.613999 198.722335,213.410001 198.439,213.138 C198.155665,212.865999 197.931834,212.520335 197.7675,212.101 C197.603166,211.681665 197.521,211.18867 197.521,210.622 C197.521,210.066664 197.617332,209.565169 197.81,209.1175 C198.002668,208.669831 198.260498,208.287335 198.5835,207.97 C198.906502,207.652665 199.286164,207.411834 199.7225,207.2475 C200.158836,207.083166 200.620664,207.001 201.108,207.001 C201.629336,207.001 202.136498,207.102999 202.6295,207.307 C203.122502,207.511001 203.558831,207.828331 203.9385,208.259 C204.318169,208.689669 204.624166,209.242163 204.8565,209.9165 C205.088834,210.590837 205.205,211.403995 205.205,212.356 C205.205,213.364672 205.083168,214.23733 204.8395,214.974 C204.595832,215.71067 204.272835,216.316998 203.8705,216.793 C203.468165,217.269002 203.003503,217.623166 202.4765,217.8555 C201.949497,218.087834 201.40267,218.204 200.836,218.204 Z M210.407,218.204 C209.828997,218.204 209.302002,218.082168 208.826,217.8385 C208.349998,217.594832 207.944835,217.235002 207.6105,216.759 C207.276165,216.282998 207.015501,215.69367 206.8285,214.991 C206.641499,214.28833 206.548,213.478005 206.548,212.56 C206.548,211.641995 206.641499,210.837337 206.8285,210.146 C207.015501,209.454663 207.276165,208.873836 207.6105,208.4035 C207.944835,207.933164 208.349998,207.581834 208.826,207.3495 C209.302002,207.117166 209.828997,207.001 210.407,207.001 C210.985003,207.001 211.511998,207.117166 211.988,207.3495 C212.464002,207.581834 212.869165,207.933164 213.2035,208.4035 C213.537835,208.873836 213.798499,209.454663 213.9855,210.146 C214.172501,210.837337 214.266,211.641995 214.266,212.56 C214.266,213.478005 214.172501,214.28833 213.9855,214.991 C213.798499,215.69367 213.537835,216.282998 213.2035,216.759 C212.869165,217.235002 212.464002,217.594832 211.988,217.8385 C211.511998,218.082168 210.985003,218.204 210.407,218.204 Z M210.407,216.266 C210.622334,216.266 210.820666,216.212167 211.002,216.1045 C211.183334,215.996833 211.341999,215.801335 211.478,215.518 C211.614001,215.234665 211.718833,214.855002 211.7925,214.379 C211.866167,213.902998 211.903,213.29667 211.903,212.56 C211.903,211.82333 211.866167,211.219836 211.7925,210.7495 C211.718833,210.279164 211.614001,209.910835 211.478,209.6445 C211.341999,209.378165 211.183334,209.194001 211.002,209.092 C210.820666,208.989999 210.622334,208.939 210.407,208.939 C210.202999,208.939 210.010334,208.989999 209.829,209.092 C209.647666,209.194001 209.489001,209.378165 209.353,209.6445 C209.216999,209.910835 209.109334,210.279164 209.03,210.7495 C208.950666,211.219836 208.911,211.82333 208.911,212.56 C208.911,213.29667 208.950666,213.902998 209.03,214.379 C209.109334,214.855002 209.216999,215.234665 209.353,215.518 C209.489001,215.801335 209.647666,215.996833 209.829,216.1045 C210.010334,216.212167 210.202999,216.266 210.407,216.266 Z M216,218 L216,209.568 L218.04,209.568 L218.21,210.656 L218.278,210.656 C218.629335,210.304665 219.003331,210.001501 219.4,209.7465 C219.796669,209.491499 220.272664,209.364 220.828,209.364 C221.42867,209.364 221.913165,209.485832 222.2815,209.7295 C222.649835,209.973168 222.941666,210.321664 223.157,210.775 C223.531002,210.389665 223.924831,210.058168 224.3385,209.7805 C224.752169,209.502832 225.242331,209.364 225.809,209.364 C226.715671,209.364 227.381498,209.667164 227.8065,210.2735 C228.231502,210.879836 228.444,211.709995 228.444,212.764 L228.444,218 L225.945,218 L225.945,213.087 C225.945,212.474997 225.862834,212.055668 225.6985,211.829 C225.534166,211.602332 225.270668,211.489 224.908,211.489 C224.488665,211.489 224.007003,211.760997 223.463,212.305 L223.463,218 L220.964,218 L220.964,213.087 C220.964,212.474997 220.881834,212.055668 220.7175,211.829 C220.553166,211.602332 220.289668,211.489 219.927,211.489 C219.496331,211.489 219.020336,211.760997 218.499,212.305 L218.499,218 L216,218 Z M230.569,218 L230.569,209.568 L232.609,209.568 L232.779,210.656 L232.847,210.656 C233.198335,210.304665 233.572331,210.001501 233.969,209.7465 C234.365669,209.491499 234.841664,209.364 235.397,209.364 C235.99767,209.364 236.482165,209.485832 236.8505,209.7295 C237.218835,209.973168 237.510666,210.321664 237.726,210.775 C238.100002,210.389665 238.493831,210.058168 238.9075,209.7805 C239.321169,209.502832 239.81133,209.364 240.378,209.364 C241.284671,209.364 241.950498,209.667164 242.3755,210.2735 C242.800502,210.879836 243.013,211.709995 243.013,212.764 L243.013,218 L240.514,218 L240.514,213.087 C240.514,212.474997 240.431834,212.055668 240.2675,211.829 C240.103166,211.602332 239.839668,211.489 239.477,211.489 C239.057665,211.489 238.576003,211.760997 238.032,212.305 L238.032,218 L235.533,218 L235.533,213.087 C235.533,212.474997 235.450834,212.055668 235.2865,211.829 C235.122166,211.602332 234.858668,211.489 234.496,211.489 C234.065331,211.489 233.589336,211.760997 233.068,212.305 L233.068,218 L230.569,218 Z" id="590mm" fill="#093169" fill-rule="nonzero" transform="translate(215.685500, 212.602500) rotate(-270.000000) translate(-215.685500, -212.602500) "></path>
            <polyline id="Rectangle-Copy-3" stroke="#CBD8F2" transform="translate(183.500000, 212.500000) rotate(-270.000000) translate(-183.500000, -212.500000) " points="38.9833333 220 38.5 205 328.5 205 328.5 220"></polyline>
            <polyline id="Rectangle-Copy" stroke="#CBD8F2" points="0.268333333 52 0 37 161 37 161 52"></polyline>
            <path d="M56.598,17.204 C55.7139956,17.204 54.9660031,17.0651681 54.354,16.7875 C53.7419969,16.5098319 53.2376686,16.138669 52.841,15.674 L53.997,14.093 C54.3256683,14.4103349 54.685498,14.670999 55.0765,14.875 C55.467502,15.079001 55.895331,15.181 56.36,15.181 C56.8926693,15.181 57.3176651,15.0705011 57.635,14.8495 C57.9523349,14.6284989 58.111,14.314002 58.111,13.906 C58.111,13.6679988 58.0685004,13.4526676 57.9835,13.26 C57.8984996,13.0673324 57.7483344,12.905834 57.533,12.7755 C57.3176656,12.645166 57.0230019,12.543167 56.649,12.4695 C56.2749981,12.395833 55.7933363,12.359 55.204,12.359 L55.204,10.591 C55.6913358,10.591 56.0964984,10.5570003 56.4195,10.489 C56.7425016,10.4209997 57.0031657,10.321834 57.2015,10.1915 C57.3998343,10.061166 57.5414996,9.90816754 57.6265,9.7325 C57.7115004,9.55683245 57.754,9.36133441 57.754,9.146 C57.754,8.77199813 57.6406678,8.48016772 57.414,8.2705 C57.1873322,8.06083229 56.8586688,7.956 56.428,7.956 C56.0426647,7.956 55.6941682,8.04099915 55.3825,8.211 C55.0708318,8.38100085 54.7450017,8.61333186 54.405,8.908 L53.147,7.378 C53.6456692,6.94733118 54.1698306,6.61016788 54.7195,6.3665 C55.2691694,6.12283211 55.87833,6.001 56.547,6.001 C57.1023361,6.001 57.6094977,6.06616601 58.0685,6.1965 C58.5275023,6.32683398 58.9184984,6.51949872 59.2415,6.7745 C59.5645016,7.02950128 59.8166658,7.33833152 59.998,7.701 C60.1793342,8.06366848 60.27,8.48299762 60.27,8.959 C60.27,9.5256695 60.1141682,10.004498 59.8025,10.3955 C59.4908318,10.786502 59.0460029,11.1066654 58.468,11.356 L58.468,11.424 C59.0913365,11.6053342 59.6041647,11.9141645 60.0065,12.3505 C60.4088353,12.7868355 60.61,13.3563298 60.61,14.059 C60.61,14.5576692 60.5023344,15.002498 60.287,15.3935 C60.0716656,15.784502 59.7826685,16.1131653 59.42,16.3795 C59.0573315,16.6458347 58.6323358,16.8498326 58.145,16.9915 C57.6576642,17.1331674 57.1420027,17.204 56.598,17.204 Z M62.072,17 L62.072,15.572 L62.8730407,14.8171994 C63.2592799,14.4500002 63.6240983,14.0981017 63.9675,13.7615 C64.5398362,13.2004972 65.0328313,12.6735025 65.4465,12.1805 C65.8601687,11.6874975 66.1831655,11.2285021 66.4155,10.8035 C66.6478345,10.3784979 66.764,9.97333526 66.764,9.588 C66.764,9.05533067 66.6280014,8.65016805 66.356,8.3725 C66.0839986,8.09483194 65.7100024,7.956 65.234,7.956 C64.8373313,7.956 64.4860015,8.06649889 64.18,8.2875 C63.8739985,8.50850111 63.5850014,8.76633186 63.313,9.061 L61.953,7.718 C62.4856693,7.1513305 63.0296639,6.72350145 63.585,6.4345 C64.1403361,6.14549855 64.8033295,6.001 65.574,6.001 C66.1066693,6.001 66.5911645,6.08316584 67.0275,6.2475 C67.4638355,6.41183416 67.8406651,6.64416517 68.158,6.9445 C68.4753349,7.24483483 68.7189992,7.60466457 68.889,8.024 C69.0590008,8.44333543 69.144,8.91366406 69.144,9.435 C69.144,9.8883356 69.0476676,10.3501643 68.855,10.8205 C68.6623324,11.2908357 68.4045016,11.7611643 68.0815,12.2315 C67.7584984,12.7018357 67.3901687,13.1721643 66.9765,13.6425 C66.5628313,14.1128357 66.1350022,14.5746644 65.693,15.028 L66.1243749,14.979125 C66.2759578,14.9635417 66.4353325,14.9486667 66.6025,14.9345 C66.936835,14.9061665 67.234332,14.892 67.495,14.892 L69.671,14.892 L69.671,17 L62.072,17 Z M73.122,17 C73.1673336,16.1046622 73.2494994,15.2801704 73.3685,14.5265 C73.4875006,13.7728296 73.6574989,13.0531701 73.8785,12.3675 C74.0995011,11.6818299 74.3828316,11.0103366 74.7285,10.353 C75.0741684,9.69566338 75.5019975,9.01567018 76.012,8.313 L71.167,8.313 L71.167,6.205 L78.681,6.205 L78.681,7.735 C78.0576636,8.49433713 77.5561686,9.20549668 77.1765,9.8685 C76.7968314,10.5315033 76.5021677,11.2171631 76.2925,11.9255 C76.0828323,12.6338369 75.9326671,13.3931626 75.842,14.2035 C75.7513329,15.0138374 75.6833336,15.9459947 75.638,17 L73.122,17 Z M80.5,17 L80.5,8.568 L82.54,8.568 L82.71,9.656 L82.778,9.656 C83.1293351,9.30466491 83.5033313,9.00150127 83.9,8.7465 C84.2966687,8.49149872 84.7726639,8.364 85.328,8.364 C85.9286697,8.364 86.4131648,8.48583211 86.7815,8.7295 C87.1498352,8.97316788 87.4416656,9.3216644 87.657,9.775 C88.0310019,9.38966474 88.4248313,9.05816805 88.8385,8.7805 C89.2521687,8.50283194 89.7423305,8.364 90.309,8.364 C91.2156712,8.364 91.8814979,8.66716363 92.3065,9.2735 C92.7315021,9.87983636 92.944,10.7099947 92.944,11.764 L92.944,17 L90.445,17 L90.445,12.087 C90.445,11.4749969 90.3628342,11.0556678 90.1985,10.829 C90.0341658,10.6023322 89.7706685,10.489 89.408,10.489 C88.9886646,10.489 88.5070027,10.7609973 87.963,11.305 L87.963,17 L85.464,17 L85.464,12.087 C85.464,11.4749969 85.3818342,11.0556678 85.2175,10.829 C85.0531658,10.6023322 84.7896685,10.489 84.427,10.489 C83.9963312,10.489 83.5203359,10.7609973 82.999,11.305 L82.999,17 L80.5,17 Z M95.069,17 L95.069,8.568 L97.109,8.568 L97.279,9.656 L97.347,9.656 C97.6983351,9.30466491 98.0723314,9.00150127 98.469,8.7465 C98.8656687,8.49149872 99.3416639,8.364 99.897,8.364 C100.49767,8.364 100.982165,8.48583211 101.3505,8.7295 C101.718835,8.97316788 102.010666,9.3216644 102.226,9.775 C102.600002,9.38966474 102.993831,9.05816805 103.4075,8.7805 C103.821169,8.50283194 104.311331,8.364 104.878,8.364 C105.784671,8.364 106.450498,8.66716363 106.8755,9.2735 C107.300502,9.87983636 107.513,10.7099947 107.513,11.764 L107.513,17 L105.014,17 L105.014,12.087 C105.014,11.4749969 104.931834,11.0556678 104.7675,10.829 C104.603166,10.6023322 104.339668,10.489 103.977,10.489 C103.557665,10.489 103.076003,10.7609973 102.532,11.305 L102.532,17 L100.033,17 L100.033,12.087 C100.033,11.4749969 99.9508342,11.0556678 99.7865,10.829 C99.6221658,10.6023322 99.3586685,10.489 98.996,10.489 C98.5653312,10.489 98.0893359,10.7609973 97.568,11.305 L97.568,17 L95.069,17 Z" id="327mm" fill="#093169" fill-rule="nonzero"></path>
        </g>
        <g id="Group-4" transform="translate(397.000000, 35.000000)">
            <path d="M85.666,218.204 C84.7819956,218.204 84.0340031,218.059501 83.422,217.7705 C82.8099969,217.481499 82.2886688,217.121669 81.858,216.691 L82.98,215.11 C83.3086683,215.404668 83.6628314,215.656832 84.0425,215.8665 C84.4221686,216.076168 84.844331,216.181 85.309,216.181 C85.8643361,216.181 86.3063317,216.039335 86.635,215.756 C86.9636683,215.472665 87.128,215.053336 87.128,214.498 C87.128,213.953997 86.9721682,213.540335 86.6605,213.257 C86.3488318,212.973665 85.9380025,212.832 85.428,212.832 C85.2693325,212.832 85.1276673,212.8405 85.003,212.8575 C84.8783327,212.8745 84.7565006,212.905666 84.6375,212.951 C84.5184994,212.996334 84.393834,213.053 84.2635,213.121 C84.133166,213.189 83.9886675,213.273999 83.83,213.376 L82.708,212.662 L83.014,207.205 L89.134,207.205 L89.134,209.313 L85.173,209.313 L84.986,211.336 C85.190001,211.245333 85.3854991,211.180167 85.5725,211.1405 C85.7595009,211.100833 85.9663322,211.081 86.193,211.081 C86.657669,211.081 87.0968313,211.148999 87.5105,211.285 C87.9241687,211.421001 88.2896651,211.624999 88.607,211.897 C88.9243349,212.169001 89.1736658,212.514665 89.355,212.934 C89.5363342,213.353335 89.627,213.851997 89.627,214.43 C89.627,215.03067 89.5193344,215.563331 89.304,216.028 C89.0886656,216.492669 88.7996685,216.886498 88.437,217.2095 C88.0743315,217.532502 87.6521691,217.778999 87.1705,217.949 C86.6888309,218.119001 86.1873359,218.204 85.666,218.204 Z M94.727,212.186 C95.0103347,212.186 95.2964986,212.103834 95.5855,211.9395 C95.8745014,211.775166 96.1266656,211.500335 96.342,211.115 C96.2286661,210.264996 96.0161682,209.678502 95.7045,209.3555 C95.3928318,209.032498 95.0443353,208.871 94.659,208.871 C94.2963315,208.871 93.9790014,209.009832 93.707,209.2875 C93.4349986,209.565168 93.299,210.009997 93.299,210.622 C93.299,211.200003 93.4349986,211.605166 93.707,211.8375 C93.9790014,212.069834 94.318998,212.186 94.727,212.186 Z M94.336,218.204 C93.6219964,218.204 93.0015026,218.073668 92.4745,217.813 C91.9474974,217.552332 91.5140017,217.252002 91.174,216.912 L92.5,215.416 C92.6813342,215.620001 92.9249985,215.798499 93.231,215.9515 C93.5370015,216.104501 93.8486651,216.181 94.166,216.181 C94.4720015,216.181 94.755332,216.124334 95.016,216.011 C95.276668,215.897666 95.5061657,215.707835 95.7045,215.4415 C95.9028343,215.175165 96.0614994,214.829502 96.1805,214.4045 C96.2995006,213.979498 96.3703332,213.44967 96.393,212.815 C96.2569993,212.996334 96.0983342,213.157833 95.917,213.2995 C95.7356658,213.441167 95.5486676,213.560166 95.356,213.6565 C95.1633324,213.752834 94.9706676,213.8265 94.778,213.8775 C94.5853324,213.9285 94.4040009,213.954 94.234,213.954 C93.769331,213.954 93.341502,213.886001 92.9505,213.75 C92.559498,213.613999 92.2223348,213.410001 91.939,213.138 C91.6556652,212.865999 91.4318342,212.520335 91.2675,212.101 C91.1031658,211.681665 91.021,211.18867 91.021,210.622 C91.021,210.066664 91.1173324,209.565169 91.31,209.1175 C91.5026676,208.669831 91.7604984,208.287335 92.0835,207.97 C92.4065016,207.652665 92.7861645,207.411834 93.2225,207.2475 C93.6588355,207.083166 94.1206642,207.001 94.608,207.001 C95.1293359,207.001 95.6364975,207.102999 96.1295,207.307 C96.6225025,207.511001 97.0588314,207.828331 97.4385,208.259 C97.8181686,208.689669 98.1241655,209.242163 98.3565,209.9165 C98.5888345,210.590837 98.705,211.403995 98.705,212.356 C98.705,213.364672 98.5831679,214.23733 98.3395,214.974 C98.0958321,215.71067 97.7728353,216.316998 97.3705,216.793 C96.9681647,217.269002 96.5035026,217.623166 95.9765,217.8555 C95.4494974,218.087834 94.9026695,218.204 94.336,218.204 Z M103.907,218.204 C103.328997,218.204 102.802002,218.082168 102.326,217.8385 C101.849998,217.594832 101.444835,217.235002 101.1105,216.759 C100.776165,216.282998 100.515501,215.69367 100.3285,214.991 C100.141499,214.28833 100.048,213.478005 100.048,212.56 C100.048,211.641995 100.141499,210.837337 100.3285,210.146 C100.515501,209.454663 100.776165,208.873836 101.1105,208.4035 C101.444835,207.933164 101.849998,207.581834 102.326,207.3495 C102.802002,207.117166 103.328997,207.001 103.907,207.001 C104.485003,207.001 105.011998,207.117166 105.488,207.3495 C105.964002,207.581834 106.369165,207.933164 106.7035,208.4035 C107.037835,208.873836 107.298499,209.454663 107.4855,210.146 C107.672501,210.837337 107.766,211.641995 107.766,212.56 C107.766,213.478005 107.672501,214.28833 107.4855,214.991 C107.298499,215.69367 107.037835,216.282998 106.7035,216.759 C106.369165,217.235002 105.964002,217.594832 105.488,217.8385 C105.011998,218.082168 104.485003,218.204 103.907,218.204 Z M103.907,216.266 C104.122334,216.266 104.320666,216.212167 104.502,216.1045 C104.683334,215.996833 104.841999,215.801335 104.978,215.518 C105.114001,215.234665 105.218833,214.855002 105.2925,214.379 C105.366167,213.902998 105.403,213.29667 105.403,212.56 C105.403,211.82333 105.366167,211.219836 105.2925,210.7495 C105.218833,210.279164 105.114001,209.910835 104.978,209.6445 C104.841999,209.378165 104.683334,209.194001 104.502,209.092 C104.320666,208.989999 104.122334,208.939 103.907,208.939 C103.702999,208.939 103.510334,208.989999 103.329,209.092 C103.147666,209.194001 102.989001,209.378165 102.853,209.6445 C102.716999,209.910835 102.609334,210.279164 102.53,210.7495 C102.450666,211.219836 102.411,211.82333 102.411,212.56 C102.411,213.29667 102.450666,213.902998 102.53,214.379 C102.609334,214.855002 102.716999,215.234665 102.853,215.518 C102.989001,215.801335 103.147666,215.996833 103.329,216.1045 C103.510334,216.212167 103.702999,216.266 103.907,216.266 Z M109.5,218 L109.5,209.568 L111.54,209.568 L111.71,210.656 L111.778,210.656 C112.129335,210.304665 112.503331,210.001501 112.9,209.7465 C113.296669,209.491499 113.772664,209.364 114.328,209.364 C114.92867,209.364 115.413165,209.485832 115.7815,209.7295 C116.149835,209.973168 116.441666,210.321664 116.657,210.775 C117.031002,210.389665 117.424831,210.058168 117.8385,209.7805 C118.252169,209.502832 118.742331,209.364 119.309,209.364 C120.215671,209.364 120.881498,209.667164 121.3065,210.2735 C121.731502,210.879836 121.944,211.709995 121.944,212.764 L121.944,218 L119.445,218 L119.445,213.087 C119.445,212.474997 119.362834,212.055668 119.1985,211.829 C119.034166,211.602332 118.770668,211.489 118.408,211.489 C117.988665,211.489 117.507003,211.760997 116.963,212.305 L116.963,218 L114.464,218 L114.464,213.087 C114.464,212.474997 114.381834,212.055668 114.2175,211.829 C114.053166,211.602332 113.789668,211.489 113.427,211.489 C112.996331,211.489 112.520336,211.760997 111.999,212.305 L111.999,218 L109.5,218 Z M124.069,218 L124.069,209.568 L126.109,209.568 L126.279,210.656 L126.347,210.656 C126.698335,210.304665 127.072331,210.001501 127.469,209.7465 C127.865669,209.491499 128.341664,209.364 128.897,209.364 C129.49767,209.364 129.982165,209.485832 130.3505,209.7295 C130.718835,209.973168 131.010666,210.321664 131.226,210.775 C131.600002,210.389665 131.993831,210.058168 132.4075,209.7805 C132.821169,209.502832 133.31133,209.364 133.878,209.364 C134.784671,209.364 135.450498,209.667164 135.8755,210.2735 C136.300502,210.879836 136.513,211.709995 136.513,212.764 L136.513,218 L134.014,218 L134.014,213.087 C134.014,212.474997 133.931834,212.055668 133.7675,211.829 C133.603166,211.602332 133.339668,211.489 132.977,211.489 C132.557665,211.489 132.076003,211.760997 131.532,212.305 L131.532,218 L129.033,218 L129.033,213.087 C129.033,212.474997 128.950834,212.055668 128.7865,211.829 C128.622166,211.602332 128.358668,211.489 127.996,211.489 C127.565331,211.489 127.089336,211.760997 126.568,212.305 L126.568,218 L124.069,218 Z" id="590mm" fill="#093169" fill-rule="nonzero" transform="translate(109.185500, 212.602500) rotate(-270.000000) translate(-109.185500, -212.602500) "></path>
            <polyline id="Rectangle-Copy-4" stroke="#CBD8F2" transform="translate(77.000000, 212.500000) rotate(-270.000000) translate(-77.000000, -212.500000) " points="-67.5166667 220 -68 205 222 205 222 220"></polyline>
            <polyline id="Rectangle-Copy-2" stroke="#CBD8F2" points="4.58333333 52 4.5 37 54.5 37 54.5 52"></polyline>
            <path d="M2.657,17 L2.657,14.977 L5.003,14.977 L5.003,8.738 L2.98,8.738 L2.98,7.191 C3.56933628,7.0776661 4.06799796,6.94166746 4.476,6.783 C4.88400204,6.62433254 5.28066474,6.4316678 5.666,6.205 L7.502,6.205 L7.502,14.977 L9.525,14.977 L9.525,17 L2.657,17 Z M14.931,17.204 C14.3529971,17.204 13.8260024,17.0821679 13.35,16.8385 C12.8739976,16.5948321 12.468835,16.2350024 12.1345,15.759 C11.800165,15.2829976 11.5395009,14.6936702 11.3525,13.991 C11.1654991,13.2883298 11.072,12.4780046 11.072,11.56 C11.072,10.6419954 11.1654991,9.83733679 11.3525,9.146 C11.5395009,8.45466321 11.800165,7.87383568 12.1345,7.4035 C12.468835,6.93316431 12.8739976,6.58183449 13.35,6.3495 C13.8260024,6.1171655 14.3529971,6.001 14.931,6.001 C15.5090029,6.001 16.0359976,6.1171655 16.512,6.3495 C16.9880024,6.58183449 17.393165,6.93316431 17.7275,7.4035 C18.061835,7.87383568 18.3224991,8.45466321 18.5095,9.146 C18.6965009,9.83733679 18.79,10.6419954 18.79,11.56 C18.79,12.4780046 18.6965009,13.2883298 18.5095,13.991 C18.3224991,14.6936702 18.061835,15.2829976 17.7275,15.759 C17.393165,16.2350024 16.9880024,16.5948321 16.512,16.8385 C16.0359976,17.0821679 15.5090029,17.204 14.931,17.204 Z M14.931,15.266 C15.1463344,15.266 15.3446658,15.2121672 15.526,15.1045 C15.7073342,14.9968328 15.8659993,14.8013347 16.002,14.518 C16.1380007,14.2346652 16.242833,13.8550024 16.3165,13.379 C16.390167,12.9029976 16.427,12.2966703 16.427,11.56 C16.427,10.8233296 16.390167,10.2198357 16.3165,9.7495 C16.242833,9.27916431 16.1380007,8.91083466 16.002,8.6445 C15.8659993,8.37816533 15.7073342,8.19400051 15.526,8.092 C15.3446658,7.98999949 15.1463344,7.939 14.931,7.939 C14.726999,7.939 14.5343342,7.98999949 14.353,8.092 C14.1716658,8.19400051 14.0130007,8.37816533 13.877,8.6445 C13.7409993,8.91083466 13.6333337,9.27916431 13.554,9.7495 C13.4746663,10.2198357 13.435,10.8233296 13.435,11.56 C13.435,12.2966703 13.4746663,12.9029976 13.554,13.379 C13.6333337,13.8550024 13.7409993,14.2346652 13.877,14.518 C14.0130007,14.8013347 14.1716658,14.9968328 14.353,15.1045 C14.5343342,15.2121672 14.726999,15.266 14.931,15.266 Z M23.907,17.204 C23.3289971,17.204 22.8020024,17.0821679 22.326,16.8385 C21.8499976,16.5948321 21.444835,16.2350024 21.1105,15.759 C20.776165,15.2829976 20.5155009,14.6936702 20.3285,13.991 C20.1414991,13.2883298 20.048,12.4780046 20.048,11.56 C20.048,10.6419954 20.1414991,9.83733679 20.3285,9.146 C20.5155009,8.45466321 20.776165,7.87383568 21.1105,7.4035 C21.444835,6.93316431 21.8499976,6.58183449 22.326,6.3495 C22.8020024,6.1171655 23.3289971,6.001 23.907,6.001 C24.4850029,6.001 25.0119976,6.1171655 25.488,6.3495 C25.9640024,6.58183449 26.369165,6.93316431 26.7035,7.4035 C27.037835,7.87383568 27.2984991,8.45466321 27.4855,9.146 C27.6725009,9.83733679 27.766,10.6419954 27.766,11.56 C27.766,12.4780046 27.6725009,13.2883298 27.4855,13.991 C27.2984991,14.6936702 27.037835,15.2829976 26.7035,15.759 C26.369165,16.2350024 25.9640024,16.5948321 25.488,16.8385 C25.0119976,17.0821679 24.4850029,17.204 23.907,17.204 Z M23.907,15.266 C24.1223344,15.266 24.3206658,15.2121672 24.502,15.1045 C24.6833342,14.9968328 24.8419993,14.8013347 24.978,14.518 C25.1140007,14.2346652 25.218833,13.8550024 25.2925,13.379 C25.366167,12.9029976 25.403,12.2966703 25.403,11.56 C25.403,10.8233296 25.366167,10.2198357 25.2925,9.7495 C25.218833,9.27916431 25.1140007,8.91083466 24.978,8.6445 C24.8419993,8.37816533 24.6833342,8.19400051 24.502,8.092 C24.3206658,7.98999949 24.1223344,7.939 23.907,7.939 C23.702999,7.939 23.5103342,7.98999949 23.329,8.092 C23.1476658,8.19400051 22.9890007,8.37816533 22.853,8.6445 C22.7169993,8.91083466 22.6093337,9.27916431 22.53,9.7495 C22.4506663,10.2198357 22.411,10.8233296 22.411,11.56 C22.411,12.2966703 22.4506663,12.9029976 22.53,13.379 C22.6093337,13.8550024 22.7169993,14.2346652 22.853,14.518 C22.9890007,14.8013347 23.1476658,14.9968328 23.329,15.1045 C23.5103342,15.2121672 23.702999,15.266 23.907,15.266 Z M29.5,17 L29.5,8.568 L31.54,8.568 L31.71,9.656 L31.778,9.656 C32.1293351,9.30466491 32.5033314,9.00150127 32.9,8.7465 C33.2966687,8.49149872 33.7726639,8.364 34.328,8.364 C34.9286697,8.364 35.4131648,8.48583211 35.7815,8.7295 C36.1498352,8.97316788 36.4416656,9.3216644 36.657,9.775 C37.0310019,9.38966474 37.4248313,9.05816805 37.8385,8.7805 C38.2521687,8.50283194 38.7423305,8.364 39.309,8.364 C40.2156712,8.364 40.8814979,8.66716363 41.3065,9.2735 C41.7315021,9.87983636 41.944,10.7099947 41.944,11.764 L41.944,17 L39.445,17 L39.445,12.087 C39.445,11.4749969 39.3628342,11.0556678 39.1985,10.829 C39.0341658,10.6023322 38.7706685,10.489 38.408,10.489 C37.9886646,10.489 37.5070027,10.7609973 36.963,11.305 L36.963,17 L34.464,17 L34.464,12.087 C34.464,11.4749969 34.3818342,11.0556678 34.2175,10.829 C34.0531658,10.6023322 33.7896685,10.489 33.427,10.489 C32.9963312,10.489 32.5203359,10.7609973 31.999,11.305 L31.999,17 L29.5,17 Z M44.069,17 L44.069,8.568 L46.109,8.568 L46.279,9.656 L46.347,9.656 C46.6983351,9.30466491 47.0723314,9.00150127 47.469,8.7465 C47.8656687,8.49149872 48.3416639,8.364 48.897,8.364 C49.4976697,8.364 49.9821648,8.48583211 50.3505,8.7295 C50.7188352,8.97316788 51.0106656,9.3216644 51.226,9.775 C51.6000019,9.38966474 51.9938313,9.05816805 52.4075,8.7805 C52.8211687,8.50283194 53.3113305,8.364 53.878,8.364 C54.7846712,8.364 55.4504979,8.66716363 55.8755,9.2735 C56.3005021,9.87983636 56.513,10.7099947 56.513,11.764 L56.513,17 L54.014,17 L54.014,12.087 C54.014,11.4749969 53.9318342,11.0556678 53.7675,10.829 C53.6031658,10.6023322 53.3396685,10.489 52.977,10.489 C52.5576646,10.489 52.0760027,10.7609973 51.532,11.305 L51.532,17 L49.033,17 L49.033,12.087 C49.033,11.4749969 48.9508342,11.0556678 48.7865,10.829 C48.6221658,10.6023322 48.3586685,10.489 47.996,10.489 C47.5653312,10.489 47.0893359,10.7609973 46.568,11.305 L46.568,17 L44.069,17 Z" id="100mm" fill="#093169" fill-rule="nonzero"></path>
            <g id="Group" transform="translate(4.500000, 67.000000)" stroke="#CBD8F2">
                <polygon id="Path-Copy" fill="#FFFFFF" points="0 289.32 50 289.32 50 -2.84217094e-14 0 -2.84217094e-14"></polygon>
                <path d="M19.76,51 L19.76,238.32 L19.76,51 Z" id="Path"></path>
                <path d="M19.76,238.32 L0.62,259.92 L19.76,238.32 Z" id="Path"></path>
                <path d="M19.76,51 L0.62,29.4 L19.76,51 Z" id="Path"></path>
            </g>
        </g>
    </g>
</svg>