<?xml version="1.0" encoding="UTF-8"?>
<svg width="600px" height="280px" viewBox="0 0 600 280" version="1.1" xmlns="http://www.w3.org/2000/svg" xmlns:xlink="http://www.w3.org/1999/xlink">
    <!-- Generator: Sketch 58 (84663) - https://sketch.com -->
    <title>architecturalPieces/P100</title>
    <desc>Created with Sketch.</desc>
    <g id="architecturalPieces/P100" stroke="none" stroke-width="1" fill="none" fill-rule="evenodd">
        <rect fill="#F5F9FF" x="0" y="0" width="600" height="280"></rect>
        <g id="Group" transform="translate(84.000000, 35.000000)">
            <polyline id="Stroke-1" stroke="#CBD8F2" fill="#FFFFFF" points="0.36 66.78 216.24 66.78 216.24 209.1 0.36 209.1 0.36 66.78"></polyline>
            <path d="M166.9139,140.4805 C165.4289,140.9995 164.1429,141.2585 163.0589,141.2585 C160.8189,141.2585 158.9329,140.2455 157.3999,138.2165 C155.3009,135.4115 154.2519,131.5205 154.2519,126.5455 C154.2519,122.8205 155.0419,120.0145 156.6219,118.1285 C158.2009,116.2425 160.0409,115.2985 162.1389,115.2985 C163.9549,115.2985 165.5759,116.0065 167.0019,117.4205 C168.4289,118.8355 169.5309,120.8695 170.3089,123.5215 C171.0869,126.1745 171.4759,128.6445 171.4759,130.9315 C171.4759,132.7705 171.2639,135.2225 170.8399,138.2875 C169.7079,139.2315 168.3989,139.9625 166.9139,140.4805 L166.9139,140.4805 Z M150.9279,162.9385 C155.4069,162.9385 159.5449,161.6895 163.3419,159.1895 C168.0099,156.1485 171.6529,152.3235 174.2699,147.7135 C176.8879,143.1035 178.1959,138.1345 178.1959,132.8055 C178.1959,126.8875 176.4749,121.9125 173.0329,117.8805 C170.2259,114.6265 166.8549,113.0005 162.9169,113.0005 C158.2489,113.0005 154.4649,114.9925 151.5649,118.9775 C149.1599,122.2545 147.9569,125.9925 147.9569,130.1885 C147.9569,134.5035 149.1599,137.9635 151.5649,140.5685 C153.9699,143.1745 156.8569,144.4775 160.2299,144.4775 C163.2239,144.4775 166.5719,143.2865 170.2739,140.9045 C169.3069,145.0315 167.5909,148.8155 165.1279,152.2575 C162.6639,155.7005 160.1109,158.1115 157.4709,159.4905 C154.8299,160.8695 151.9769,161.5835 148.9119,161.6305 L148.9119,162.9385 L150.9279,162.9385 Z M117.8949,119.7905 C119.4509,119.0605 120.6649,118.6945 121.5379,118.6945 C122.1509,118.6945 122.6749,118.8715 123.1119,119.2245 C123.5479,119.5785 123.8479,120.1325 124.0129,120.8865 C124.2489,121.8775 124.3669,124.1175 124.3669,127.6065 L124.3669,153.4955 C124.3669,156.3725 124.2369,158.0995 123.9779,158.6765 C123.7179,159.2555 123.2589,159.7145 122.5989,160.0565 C121.9379,160.3985 120.4769,160.5925 118.2129,160.6395 L118.2129,161.9485 L136.2509,161.9485 L136.2509,160.6395 C134.0809,160.5925 132.6429,160.3925 131.9359,160.0385 C131.2279,159.6845 130.7629,159.1785 130.5389,158.5175 C130.3139,157.8585 130.2029,156.1835 130.2029,153.4955 L130.2029,113.0005 L129.0359,113.0005 L117.3639,118.6945 L117.8949,119.7905 Z M83.1289,126.7225 C83.7419,122.5265 84.8969,119.4495 86.5949,117.4915 C87.8439,116.0535 89.2709,115.3345 90.8739,115.3345 C92.2409,115.3345 93.4089,115.7235 94.3759,116.5015 C95.7199,117.6335 96.8159,119.5555 97.6649,122.2665 C98.7969,125.9215 99.3619,130.4835 99.3619,135.9535 C99.3619,143.3335 98.8199,149.0515 97.7359,153.1065 C97.0279,155.7945 95.9899,157.7105 94.6229,158.8535 C93.2549,159.9975 91.9349,160.5695 90.6619,160.5695 C87.9969,160.5695 85.9939,158.8125 84.6499,155.2995 C83.0229,151.1265 82.2089,145.7385 82.2089,139.1365 C82.2089,135.0575 82.5149,130.9195 83.1289,126.7225 L83.1289,126.7225 Z M79.1319,154.6985 C82.1739,160.0975 85.9809,162.7975 90.5559,162.7975 C92.8659,162.7975 95.2649,161.9195 97.7529,160.1625 C100.2409,158.4065 102.2859,155.5825 103.8889,151.6915 C105.4929,147.8015 106.2939,143.0745 106.2939,137.5095 C106.2939,129.5645 104.4669,123.2685 100.8119,118.6235 C97.8889,114.8745 94.5879,113.0005 90.9099,113.0005 C88.6459,113.0005 86.4529,113.7665 84.3309,115.2985 C81.5959,117.2325 79.4029,120.1745 77.7529,124.1235 C76.1019,128.0725 75.2769,132.7825 75.2769,138.2525 C75.2769,144.6665 76.5619,150.1475 79.1319,154.6985 L79.1319,154.6985 Z M68.3449,152.7175 C67.7319,153.7785 67.0129,154.5985 66.1879,155.1755 C65.3619,155.7535 64.4369,156.1365 63.4119,156.3255 C62.3859,156.5145 60.5999,156.6085 58.0529,156.6085 L45.5329,156.6085 C46.9949,155.2875 50.6619,151.4215 56.5329,145.0075 C60.4459,140.7405 63.2759,136.6965 65.0209,132.8765 C66.1529,130.4485 66.7179,128.0195 66.7179,125.5905 C66.7179,122.1955 65.4149,119.2485 62.8099,116.7495 C60.2049,114.2505 56.9569,113.0005 53.0669,113.0005 C49.4119,113.0005 46.3649,114.1675 43.9239,116.5015 C41.4839,118.8355 39.9689,122.1835 39.3789,126.5455 L40.6879,126.5455 C41.5839,123.8815 42.9689,121.8595 44.8439,120.4805 C46.7179,119.1005 48.8339,118.4115 51.1919,118.4115 C53.7859,118.4115 56.0139,119.3895 57.8769,121.3465 C59.7389,123.3045 60.6709,125.8035 60.6709,128.8445 C60.6709,132.8295 58.9729,137.2265 55.5779,142.0365 C52.1819,146.8465 46.3229,153.0485 37.9999,160.6395 L37.9999,161.9485 L66.2939,161.9485 L69.6539,152.7175 L68.3449,152.7175 Z" id="Fill-1" fill="#CBD8F2"></path>
            <polyline id="Rectangle-Copy" stroke="#CBD8F2" points="0.36 52 0 37 216 37 216 52"></polyline>
            <path d="M85.465,17 L85.465,14.416 L80.79,14.416 L80.79,12.699 L84.734,6.205 L87.794,6.205 L87.794,12.512 L89.035,12.512 L89.035,14.416 L87.794,14.416 L87.794,17 L85.465,17 Z M83.187,12.512 L85.465,12.512 L85.465,10.761 C85.465,10.4799319 85.4722533,10.1644142 85.48676,9.81444071 L85.5398,8.78356007 C85.5488666,8.62852045 85.5579333,8.48300068 85.567,8.347 L85.499,8.347 L85.074,9.248 L85.074,9.248 C84.9266659,9.55400153 84.7736675,9.85999847 84.615,10.166 L83.187,12.512 Z M94.441,17 L94.441,14.416 L89.766,14.416 L89.766,12.699 L93.71,6.205 L96.77,6.205 L96.77,12.512 L98.011,12.512 L98.011,14.416 L96.77,14.416 L96.77,17 L94.441,17 Z M92.163,12.512 L94.441,12.512 L94.441,10.761 C94.441,10.4799319 94.4482533,10.1644142 94.46276,9.81444071 L94.5158,8.78356007 C94.5248666,8.62852045 94.5339333,8.48300068 94.543,8.347 L94.475,8.347 L94.05,9.248 L94.05,9.248 C93.9026659,9.55400153 93.7496675,9.85999847 93.591,10.166 L92.163,12.512 Z M102.907,17.204 C102.328997,17.204 101.802002,17.0821679 101.326,16.8385 C100.849998,16.5948321 100.444835,16.2350024 100.1105,15.759 C99.776165,15.2829976 99.5155009,14.6936702 99.3285,13.991 C99.1414991,13.2883298 99.048,12.4780046 99.048,11.56 C99.048,10.6419954 99.1414991,9.83733679 99.3285,9.146 C99.5155009,8.45466321 99.776165,7.87383568 100.1105,7.4035 C100.444835,6.93316431 100.849998,6.58183449 101.326,6.3495 C101.802002,6.1171655 102.328997,6.001 102.907,6.001 C103.485003,6.001 104.011998,6.1171655 104.488,6.3495 C104.964002,6.58183449 105.369165,6.93316431 105.7035,7.4035 C106.037835,7.87383568 106.298499,8.45466321 106.4855,9.146 C106.672501,9.83733679 106.766,10.6419954 106.766,11.56 C106.766,12.4780046 106.672501,13.2883298 106.4855,13.991 C106.298499,14.6936702 106.037835,15.2829976 105.7035,15.759 C105.369165,16.2350024 104.964002,16.5948321 104.488,16.8385 C104.011998,17.0821679 103.485003,17.204 102.907,17.204 Z M102.907,15.266 C103.122334,15.266 103.320666,15.2121672 103.502,15.1045 C103.683334,14.9968328 103.841999,14.8013347 103.978,14.518 C104.114001,14.2346652 104.218833,13.8550024 104.2925,13.379 C104.366167,12.9029976 104.403,12.2966703 104.403,11.56 C104.403,10.8233296 104.366167,10.2198357 104.2925,9.7495 C104.218833,9.27916431 104.114001,8.91083466 103.978,8.6445 C103.841999,8.37816533 103.683334,8.19400051 103.502,8.092 C103.320666,7.98999949 103.122334,7.939 102.907,7.939 C102.702999,7.939 102.510334,7.98999949 102.329,8.092 C102.147666,8.19400051 101.989001,8.37816533 101.853,8.6445 C101.716999,8.91083466 101.609334,9.27916431 101.53,9.7495 C101.450666,10.2198357 101.411,10.8233296 101.411,11.56 C101.411,12.2966703 101.450666,12.9029976 101.53,13.379 C101.609334,13.8550024 101.716999,14.2346652 101.853,14.518 C101.989001,14.8013347 102.147666,14.9968328 102.329,15.1045 C102.510334,15.2121672 102.702999,15.266 102.907,15.266 Z M108.5,17 L108.5,8.568 L110.54,8.568 L110.71,9.656 L110.778,9.656 C111.129335,9.30466491 111.503331,9.00150127 111.9,8.7465 C112.296669,8.49149872 112.772664,8.364 113.328,8.364 C113.92867,8.364 114.413165,8.48583211 114.7815,8.7295 C115.149835,8.97316788 115.441666,9.3216644 115.657,9.775 C116.031002,9.38966474 116.424831,9.05816805 116.8385,8.7805 C117.252169,8.50283194 117.742331,8.364 118.309,8.364 C119.215671,8.364 119.881498,8.66716363 120.3065,9.2735 C120.731502,9.87983636 120.944,10.7099947 120.944,11.764 L120.944,17 L118.445,17 L118.445,12.087 C118.445,11.4749969 118.362834,11.0556678 118.1985,10.829 C118.034166,10.6023322 117.770668,10.489 117.408,10.489 C116.988665,10.489 116.507003,10.7609973 115.963,11.305 L115.963,17 L113.464,17 L113.464,12.087 C113.464,11.4749969 113.381834,11.0556678 113.2175,10.829 C113.053166,10.6023322 112.789668,10.489 112.427,10.489 C111.996331,10.489 111.520336,10.7609973 110.999,11.305 L110.999,17 L108.5,17 Z M123.069,17 L123.069,8.568 L125.109,8.568 L125.279,9.656 L125.347,9.656 C125.698335,9.30466491 126.072331,9.00150127 126.469,8.7465 C126.865669,8.49149872 127.341664,8.364 127.897,8.364 C128.49767,8.364 128.982165,8.48583211 129.3505,8.7295 C129.718835,8.97316788 130.010666,9.3216644 130.226,9.775 C130.600002,9.38966474 130.993831,9.05816805 131.4075,8.7805 C131.821169,8.50283194 132.31133,8.364 132.878,8.364 C133.784671,8.364 134.450498,8.66716363 134.8755,9.2735 C135.300502,9.87983636 135.513,10.7099947 135.513,11.764 L135.513,17 L133.014,17 L133.014,12.087 C133.014,11.4749969 132.931834,11.0556678 132.7675,10.829 C132.603166,10.6023322 132.339668,10.489 131.977,10.489 C131.557665,10.489 131.076003,10.7609973 130.532,11.305 L130.532,17 L128.033,17 L128.033,12.087 C128.033,11.4749969 127.950834,11.0556678 127.7865,10.829 C127.622166,10.6023322 127.358668,10.489 126.996,10.489 C126.565331,10.489 126.089336,10.7609973 125.568,11.305 L125.568,17 L123.069,17 Z" id="440mm" fill="#093169" fill-rule="nonzero"></path>
            <path d="M244.096,140 L244.096,138.572 L244.897041,137.817199 C245.28328,137.45 245.648098,137.098102 245.9915,136.7615 C246.563836,136.200497 247.056831,135.673502 247.4705,135.1805 C247.884169,134.687498 248.207166,134.228502 248.4395,133.8035 C248.671834,133.378498 248.788,132.973335 248.788,132.588 C248.788,132.055331 248.652001,131.650168 248.38,131.3725 C248.107999,131.094832 247.734002,130.956 247.258,130.956 C246.861331,130.956 246.510002,131.066499 246.204,131.2875 C245.897998,131.508501 245.609001,131.766332 245.337,132.061 L243.977,130.718 C244.509669,130.151331 245.053664,129.723501 245.609,129.4345 C246.164336,129.145499 246.827329,129.001 247.598,129.001 C248.130669,129.001 248.615164,129.083166 249.0515,129.2475 C249.487836,129.411834 249.864665,129.644165 250.182,129.9445 C250.499335,130.244835 250.742999,130.604665 250.913,131.024 C251.083001,131.443335 251.168,131.913664 251.168,132.435 C251.168,132.888336 251.071668,133.350164 250.879,133.8205 C250.686332,134.290836 250.428502,134.761164 250.1055,135.2315 C249.782498,135.701836 249.414169,136.172164 249.0005,136.6425 C248.586831,137.112836 248.159002,137.574664 247.717,138.028 L248.148375,137.979125 C248.299958,137.963542 248.459332,137.948667 248.6265,137.9345 C248.960835,137.906167 249.258332,137.892 249.519,137.892 L251.695,137.892 L251.695,140 L244.096,140 Z M256.727,134.186 C257.010335,134.186 257.296499,134.103834 257.5855,133.9395 C257.874501,133.775166 258.126666,133.500335 258.342,133.115 C258.228666,132.264996 258.016168,131.678502 257.7045,131.3555 C257.392832,131.032498 257.044335,130.871 256.659,130.871 C256.296332,130.871 255.979001,131.009832 255.707,131.2875 C255.434999,131.565168 255.299,132.009997 255.299,132.622 C255.299,133.200003 255.434999,133.605166 255.707,133.8375 C255.979001,134.069834 256.318998,134.186 256.727,134.186 Z M256.336,140.204 C255.621996,140.204 255.001503,140.073668 254.4745,139.813 C253.947497,139.552332 253.514002,139.252002 253.174,138.912 L254.5,137.416 C254.681334,137.620001 254.924998,137.798499 255.231,137.9515 C255.537002,138.104501 255.848665,138.181 256.166,138.181 C256.472002,138.181 256.755332,138.124334 257.016,138.011 C257.276668,137.897666 257.506166,137.707835 257.7045,137.4415 C257.902834,137.175165 258.061499,136.829502 258.1805,136.4045 C258.299501,135.979498 258.370333,135.44967 258.393,134.815 C258.256999,134.996334 258.098334,135.157833 257.917,135.2995 C257.735666,135.441167 257.548668,135.560166 257.356,135.6565 C257.163332,135.752834 256.970668,135.8265 256.778,135.8775 C256.585332,135.9285 256.404001,135.954 256.234,135.954 C255.769331,135.954 255.341502,135.886001 254.9505,135.75 C254.559498,135.613999 254.222335,135.410001 253.939,135.138 C253.655665,134.865999 253.431834,134.520335 253.2675,134.101 C253.103166,133.681665 253.021,133.18867 253.021,132.622 C253.021,132.066664 253.117332,131.565169 253.31,131.1175 C253.502668,130.669831 253.760498,130.287335 254.0835,129.97 C254.406502,129.652665 254.786164,129.411834 255.2225,129.2475 C255.658836,129.083166 256.120664,129.001 256.608,129.001 C257.129336,129.001 257.636498,129.102999 258.1295,129.307 C258.622502,129.511001 259.058831,129.828331 259.4385,130.259 C259.818169,130.689669 260.124166,131.242163 260.3565,131.9165 C260.588834,132.590837 260.705,133.403995 260.705,134.356 C260.705,135.364672 260.583168,136.23733 260.3395,136.974 C260.095832,137.71067 259.772835,138.316998 259.3705,138.793 C258.968165,139.269002 258.503503,139.623166 257.9765,139.8555 C257.449497,140.087834 256.90267,140.204 256.336,140.204 Z M265.907,140.204 C265.328997,140.204 264.802002,140.082168 264.326,139.8385 C263.849998,139.594832 263.444835,139.235002 263.1105,138.759 C262.776165,138.282998 262.515501,137.69367 262.3285,136.991 C262.141499,136.28833 262.048,135.478005 262.048,134.56 C262.048,133.641995 262.141499,132.837337 262.3285,132.146 C262.515501,131.454663 262.776165,130.873836 263.1105,130.4035 C263.444835,129.933164 263.849998,129.581834 264.326,129.3495 C264.802002,129.117166 265.328997,129.001 265.907,129.001 C266.485003,129.001 267.011998,129.117166 267.488,129.3495 C267.964002,129.581834 268.369165,129.933164 268.7035,130.4035 C269.037835,130.873836 269.298499,131.454663 269.4855,132.146 C269.672501,132.837337 269.766,133.641995 269.766,134.56 C269.766,135.478005 269.672501,136.28833 269.4855,136.991 C269.298499,137.69367 269.037835,138.282998 268.7035,138.759 C268.369165,139.235002 267.964002,139.594832 267.488,139.8385 C267.011998,140.082168 266.485003,140.204 265.907,140.204 Z M265.907,138.266 C266.122334,138.266 266.320666,138.212167 266.502,138.1045 C266.683334,137.996833 266.841999,137.801335 266.978,137.518 C267.114001,137.234665 267.218833,136.855002 267.2925,136.379 C267.366167,135.902998 267.403,135.29667 267.403,134.56 C267.403,133.82333 267.366167,133.219836 267.2925,132.7495 C267.218833,132.279164 267.114001,131.910835 266.978,131.6445 C266.841999,131.378165 266.683334,131.194001 266.502,131.092 C266.320666,130.989999 266.122334,130.939 265.907,130.939 C265.702999,130.939 265.510334,130.989999 265.329,131.092 C265.147666,131.194001 264.989001,131.378165 264.853,131.6445 C264.716999,131.910835 264.609334,132.279164 264.53,132.7495 C264.450666,133.219836 264.411,133.82333 264.411,134.56 C264.411,135.29667 264.450666,135.902998 264.53,136.379 C264.609334,136.855002 264.716999,137.234665 264.853,137.518 C264.989001,137.801335 265.147666,137.996833 265.329,138.1045 C265.510334,138.212167 265.702999,138.266 265.907,138.266 Z M271.5,140 L271.5,131.568 L273.54,131.568 L273.71,132.656 L273.778,132.656 C274.129335,132.304665 274.503331,132.001501 274.9,131.7465 C275.296669,131.491499 275.772664,131.364 276.328,131.364 C276.92867,131.364 277.413165,131.485832 277.7815,131.7295 C278.149835,131.973168 278.441666,132.321664 278.657,132.775 C279.031002,132.389665 279.424831,132.058168 279.8385,131.7805 C280.252169,131.502832 280.74233,131.364 281.309,131.364 C282.215671,131.364 282.881498,131.667164 283.3065,132.2735 C283.731502,132.879836 283.944,133.709995 283.944,134.764 L283.944,140 L281.445,140 L281.445,135.087 C281.445,134.474997 281.362834,134.055668 281.1985,133.829 C281.034166,133.602332 280.770668,133.489 280.408,133.489 C279.988665,133.489 279.507003,133.760997 278.963,134.305 L278.963,140 L276.464,140 L276.464,135.087 C276.464,134.474997 276.381834,134.055668 276.2175,133.829 C276.053166,133.602332 275.789668,133.489 275.427,133.489 C274.996331,133.489 274.520336,133.760997 273.999,134.305 L273.999,140 L271.5,140 Z M286.069,140 L286.069,131.568 L288.109,131.568 L288.279,132.656 L288.347,132.656 C288.698335,132.304665 289.072331,132.001501 289.469,131.7465 C289.865669,131.491499 290.341664,131.364 290.897,131.364 C291.49767,131.364 291.982165,131.485832 292.3505,131.7295 C292.718835,131.973168 293.010666,132.321664 293.226,132.775 C293.600002,132.389665 293.993831,132.058168 294.4075,131.7805 C294.821169,131.502832 295.31133,131.364 295.878,131.364 C296.784671,131.364 297.450498,131.667164 297.8755,132.2735 C298.300502,132.879836 298.513,133.709995 298.513,134.764 L298.513,140 L296.014,140 L296.014,135.087 C296.014,134.474997 295.931834,134.055668 295.7675,133.829 C295.603166,133.602332 295.339668,133.489 294.977,133.489 C294.557665,133.489 294.076003,133.760997 293.532,134.305 L293.532,140 L291.033,140 L291.033,135.087 C291.033,134.474997 290.950834,134.055668 290.7865,133.829 C290.622166,133.602332 290.358668,133.489 289.996,133.489 C289.565331,133.489 289.089336,133.760997 288.568,134.305 L288.568,140 L286.069,140 Z" id="290mm" fill="#093169" fill-rule="nonzero" transform="translate(271.245000, 134.602500) rotate(-270.000000) translate(-271.245000, -134.602500) "></path>
            <polyline id="Rectangle-Copy-3" stroke="#CBD8F2" transform="translate(238.500000, 138.000000) rotate(-270.000000) translate(-238.500000, -138.000000) " points="167.736667 145.5 167.5 130.5 309.5 130.5 309.5 145.5"></polyline>
        </g>
        <g id="Group-2" transform="translate(397.000000, 35.000000)">
            <polygon id="Path" stroke="#CBD8F2" fill="#FFFFFF" points="3.8 209.1 52.88 209.1 52.88 66.78 3.8 66.78"></polygon>
            <path d="M80.096,140 L80.096,138.572 L80.8970407,137.817199 C81.2832799,137.45 81.6480983,137.098102 81.9915,136.7615 C82.5638362,136.200497 83.0568313,135.673502 83.4705,135.1805 C83.8841687,134.687498 84.2071655,134.228502 84.4395,133.8035 C84.6718345,133.378498 84.788,132.973335 84.788,132.588 C84.788,132.055331 84.6520014,131.650168 84.38,131.3725 C84.1079986,131.094832 83.7340024,130.956 83.258,130.956 C82.8613314,130.956 82.5100015,131.066499 82.204,131.2875 C81.8979985,131.508501 81.6090014,131.766332 81.337,132.061 L79.977,130.718 C80.5096693,130.151331 81.0536639,129.723501 81.609,129.4345 C82.1643361,129.145499 82.8273295,129.001 83.598,129.001 C84.1306693,129.001 84.6151645,129.083166 85.0515,129.2475 C85.4878355,129.411834 85.8646651,129.644165 86.182,129.9445 C86.4993349,130.244835 86.7429992,130.604665 86.913,131.024 C87.0830009,131.443335 87.168,131.913664 87.168,132.435 C87.168,132.888336 87.0716676,133.350164 86.879,133.8205 C86.6863324,134.290836 86.4285016,134.761164 86.1055,135.2315 C85.7824984,135.701836 85.4141687,136.172164 85.0005,136.6425 C84.5868313,137.112836 84.1590022,137.574664 83.717,138.028 L84.1483749,137.979125 C84.2999578,137.963542 84.4593325,137.948667 84.6265,137.9345 C84.960835,137.906167 85.258332,137.892 85.519,137.892 L87.695,137.892 L87.695,140 L80.096,140 Z M92.727,134.186 C93.0103347,134.186 93.2964986,134.103834 93.5855,133.9395 C93.8745014,133.775166 94.1266656,133.500335 94.342,133.115 C94.2286661,132.264996 94.0161682,131.678502 93.7045,131.3555 C93.3928318,131.032498 93.0443353,130.871 92.659,130.871 C92.2963315,130.871 91.9790014,131.009832 91.707,131.2875 C91.4349986,131.565168 91.299,132.009997 91.299,132.622 C91.299,133.200003 91.4349986,133.605166 91.707,133.8375 C91.9790014,134.069834 92.318998,134.186 92.727,134.186 Z M92.336,140.204 C91.6219964,140.204 91.0015026,140.073668 90.4745,139.813 C89.9474974,139.552332 89.5140017,139.252002 89.174,138.912 L90.5,137.416 C90.6813342,137.620001 90.9249985,137.798499 91.231,137.9515 C91.5370015,138.104501 91.8486651,138.181 92.166,138.181 C92.4720015,138.181 92.755332,138.124334 93.016,138.011 C93.276668,137.897666 93.5061657,137.707835 93.7045,137.4415 C93.9028343,137.175165 94.0614994,136.829502 94.1805,136.4045 C94.2995006,135.979498 94.3703332,135.44967 94.393,134.815 C94.2569993,134.996334 94.0983342,135.157833 93.917,135.2995 C93.7356658,135.441167 93.5486676,135.560166 93.356,135.6565 C93.1633324,135.752834 92.9706676,135.8265 92.778,135.8775 C92.5853324,135.9285 92.4040009,135.954 92.234,135.954 C91.769331,135.954 91.341502,135.886001 90.9505,135.75 C90.559498,135.613999 90.2223348,135.410001 89.939,135.138 C89.6556652,134.865999 89.4318342,134.520335 89.2675,134.101 C89.1031658,133.681665 89.021,133.18867 89.021,132.622 C89.021,132.066664 89.1173324,131.565169 89.31,131.1175 C89.5026676,130.669831 89.7604984,130.287335 90.0835,129.97 C90.4065016,129.652665 90.7861645,129.411834 91.2225,129.2475 C91.6588355,129.083166 92.1206642,129.001 92.608,129.001 C93.1293359,129.001 93.6364975,129.102999 94.1295,129.307 C94.6225025,129.511001 95.0588314,129.828331 95.4385,130.259 C95.8181686,130.689669 96.1241655,131.242163 96.3565,131.9165 C96.5888345,132.590837 96.705,133.403995 96.705,134.356 C96.705,135.364672 96.5831679,136.23733 96.3395,136.974 C96.0958321,137.71067 95.7728353,138.316998 95.3705,138.793 C94.9681647,139.269002 94.5035026,139.623166 93.9765,139.8555 C93.4494974,140.087834 92.9026695,140.204 92.336,140.204 Z M101.907,140.204 C101.328997,140.204 100.802002,140.082168 100.326,139.8385 C99.8499976,139.594832 99.444835,139.235002 99.1105,138.759 C98.776165,138.282998 98.5155009,137.69367 98.3285,136.991 C98.1414991,136.28833 98.048,135.478005 98.048,134.56 C98.048,133.641995 98.1414991,132.837337 98.3285,132.146 C98.5155009,131.454663 98.776165,130.873836 99.1105,130.4035 C99.444835,129.933164 99.8499976,129.581834 100.326,129.3495 C100.802002,129.117166 101.328997,129.001 101.907,129.001 C102.485003,129.001 103.011998,129.117166 103.488,129.3495 C103.964002,129.581834 104.369165,129.933164 104.7035,130.4035 C105.037835,130.873836 105.298499,131.454663 105.4855,132.146 C105.672501,132.837337 105.766,133.641995 105.766,134.56 C105.766,135.478005 105.672501,136.28833 105.4855,136.991 C105.298499,137.69367 105.037835,138.282998 104.7035,138.759 C104.369165,139.235002 103.964002,139.594832 103.488,139.8385 C103.011998,140.082168 102.485003,140.204 101.907,140.204 Z M101.907,138.266 C102.122334,138.266 102.320666,138.212167 102.502,138.1045 C102.683334,137.996833 102.841999,137.801335 102.978,137.518 C103.114001,137.234665 103.218833,136.855002 103.2925,136.379 C103.366167,135.902998 103.403,135.29667 103.403,134.56 C103.403,133.82333 103.366167,133.219836 103.2925,132.7495 C103.218833,132.279164 103.114001,131.910835 102.978,131.6445 C102.841999,131.378165 102.683334,131.194001 102.502,131.092 C102.320666,130.989999 102.122334,130.939 101.907,130.939 C101.702999,130.939 101.510334,130.989999 101.329,131.092 C101.147666,131.194001 100.989001,131.378165 100.853,131.6445 C100.716999,131.910835 100.609334,132.279164 100.53,132.7495 C100.450666,133.219836 100.411,133.82333 100.411,134.56 C100.411,135.29667 100.450666,135.902998 100.53,136.379 C100.609334,136.855002 100.716999,137.234665 100.853,137.518 C100.989001,137.801335 101.147666,137.996833 101.329,138.1045 C101.510334,138.212167 101.702999,138.266 101.907,138.266 Z M107.5,140 L107.5,131.568 L109.54,131.568 L109.71,132.656 L109.778,132.656 C110.129335,132.304665 110.503331,132.001501 110.9,131.7465 C111.296669,131.491499 111.772664,131.364 112.328,131.364 C112.92867,131.364 113.413165,131.485832 113.7815,131.7295 C114.149835,131.973168 114.441666,132.321664 114.657,132.775 C115.031002,132.389665 115.424831,132.058168 115.8385,131.7805 C116.252169,131.502832 116.742331,131.364 117.309,131.364 C118.215671,131.364 118.881498,131.667164 119.3065,132.2735 C119.731502,132.879836 119.944,133.709995 119.944,134.764 L119.944,140 L117.445,140 L117.445,135.087 C117.445,134.474997 117.362834,134.055668 117.1985,133.829 C117.034166,133.602332 116.770668,133.489 116.408,133.489 C115.988665,133.489 115.507003,133.760997 114.963,134.305 L114.963,140 L112.464,140 L112.464,135.087 C112.464,134.474997 112.381834,134.055668 112.2175,133.829 C112.053166,133.602332 111.789668,133.489 111.427,133.489 C110.996331,133.489 110.520336,133.760997 109.999,134.305 L109.999,140 L107.5,140 Z M122.069,140 L122.069,131.568 L124.109,131.568 L124.279,132.656 L124.347,132.656 C124.698335,132.304665 125.072331,132.001501 125.469,131.7465 C125.865669,131.491499 126.341664,131.364 126.897,131.364 C127.49767,131.364 127.982165,131.485832 128.3505,131.7295 C128.718835,131.973168 129.010666,132.321664 129.226,132.775 C129.600002,132.389665 129.993831,132.058168 130.4075,131.7805 C130.821169,131.502832 131.31133,131.364 131.878,131.364 C132.784671,131.364 133.450498,131.667164 133.8755,132.2735 C134.300502,132.879836 134.513,133.709995 134.513,134.764 L134.513,140 L132.014,140 L132.014,135.087 C132.014,134.474997 131.931834,134.055668 131.7675,133.829 C131.603166,133.602332 131.339668,133.489 130.977,133.489 C130.557665,133.489 130.076003,133.760997 129.532,134.305 L129.532,140 L127.033,140 L127.033,135.087 C127.033,134.474997 126.950834,134.055668 126.7865,133.829 C126.622166,133.602332 126.358668,133.489 125.996,133.489 C125.565331,133.489 125.089336,133.760997 124.568,134.305 L124.568,140 L122.069,140 Z" id="290mm" fill="#093169" fill-rule="nonzero" transform="translate(107.245000, 134.602500) rotate(-270.000000) translate(-107.245000, -134.602500) "></path>
            <path d="M1.657,17 L1.657,14.977 L4.003,14.977 L4.003,8.738 L1.98,8.738 L1.98,7.191 C2.56933628,7.0776661 3.06799796,6.94166746 3.476,6.783 C3.88400204,6.62433254 4.28066474,6.4316678 4.666,6.205 L6.502,6.205 L6.502,14.977 L8.525,14.977 L8.525,17 L1.657,17 Z M13.931,17.204 C13.3529971,17.204 12.8260024,17.0821679 12.35,16.8385 C11.8739976,16.5948321 11.468835,16.2350024 11.1345,15.759 C10.800165,15.2829976 10.5395009,14.6936702 10.3525,13.991 C10.1654991,13.2883298 10.072,12.4780046 10.072,11.56 C10.072,10.6419954 10.1654991,9.83733679 10.3525,9.146 C10.5395009,8.45466321 10.800165,7.87383568 11.1345,7.4035 C11.468835,6.93316431 11.8739976,6.58183449 12.35,6.3495 C12.8260024,6.1171655 13.3529971,6.001 13.931,6.001 C14.5090029,6.001 15.0359976,6.1171655 15.512,6.3495 C15.9880024,6.58183449 16.393165,6.93316431 16.7275,7.4035 C17.061835,7.87383568 17.3224991,8.45466321 17.5095,9.146 C17.6965009,9.83733679 17.79,10.6419954 17.79,11.56 C17.79,12.4780046 17.6965009,13.2883298 17.5095,13.991 C17.3224991,14.6936702 17.061835,15.2829976 16.7275,15.759 C16.393165,16.2350024 15.9880024,16.5948321 15.512,16.8385 C15.0359976,17.0821679 14.5090029,17.204 13.931,17.204 Z M13.931,15.266 C14.1463344,15.266 14.3446658,15.2121672 14.526,15.1045 C14.7073342,14.9968328 14.8659993,14.8013347 15.002,14.518 C15.1380007,14.2346652 15.242833,13.8550024 15.3165,13.379 C15.390167,12.9029976 15.427,12.2966703 15.427,11.56 C15.427,10.8233296 15.390167,10.2198357 15.3165,9.7495 C15.242833,9.27916431 15.1380007,8.91083466 15.002,8.6445 C14.8659993,8.37816533 14.7073342,8.19400051 14.526,8.092 C14.3446658,7.98999949 14.1463344,7.939 13.931,7.939 C13.726999,7.939 13.5343342,7.98999949 13.353,8.092 C13.1716658,8.19400051 13.0130007,8.37816533 12.877,8.6445 C12.7409993,8.91083466 12.6333337,9.27916431 12.554,9.7495 C12.4746663,10.2198357 12.435,10.8233296 12.435,11.56 C12.435,12.2966703 12.4746663,12.9029976 12.554,13.379 C12.6333337,13.8550024 12.7409993,14.2346652 12.877,14.518 C13.0130007,14.8013347 13.1716658,14.9968328 13.353,15.1045 C13.5343342,15.2121672 13.726999,15.266 13.931,15.266 Z M22.907,17.204 C22.3289971,17.204 21.8020024,17.0821679 21.326,16.8385 C20.8499976,16.5948321 20.444835,16.2350024 20.1105,15.759 C19.776165,15.2829976 19.5155009,14.6936702 19.3285,13.991 C19.1414991,13.2883298 19.048,12.4780046 19.048,11.56 C19.048,10.6419954 19.1414991,9.83733679 19.3285,9.146 C19.5155009,8.45466321 19.776165,7.87383568 20.1105,7.4035 C20.444835,6.93316431 20.8499976,6.58183449 21.326,6.3495 C21.8020024,6.1171655 22.3289971,6.001 22.907,6.001 C23.4850029,6.001 24.0119976,6.1171655 24.488,6.3495 C24.9640024,6.58183449 25.369165,6.93316431 25.7035,7.4035 C26.037835,7.87383568 26.2984991,8.45466321 26.4855,9.146 C26.6725009,9.83733679 26.766,10.6419954 26.766,11.56 C26.766,12.4780046 26.6725009,13.2883298 26.4855,13.991 C26.2984991,14.6936702 26.037835,15.2829976 25.7035,15.759 C25.369165,16.2350024 24.9640024,16.5948321 24.488,16.8385 C24.0119976,17.0821679 23.4850029,17.204 22.907,17.204 Z M22.907,15.266 C23.1223344,15.266 23.3206658,15.2121672 23.502,15.1045 C23.6833342,14.9968328 23.8419993,14.8013347 23.978,14.518 C24.1140007,14.2346652 24.218833,13.8550024 24.2925,13.379 C24.366167,12.9029976 24.403,12.2966703 24.403,11.56 C24.403,10.8233296 24.366167,10.2198357 24.2925,9.7495 C24.218833,9.27916431 24.1140007,8.91083466 23.978,8.6445 C23.8419993,8.37816533 23.6833342,8.19400051 23.502,8.092 C23.3206658,7.98999949 23.1223344,7.939 22.907,7.939 C22.702999,7.939 22.5103342,7.98999949 22.329,8.092 C22.1476658,8.19400051 21.9890007,8.37816533 21.853,8.6445 C21.7169993,8.91083466 21.6093337,9.27916431 21.53,9.7495 C21.4506663,10.2198357 21.411,10.8233296 21.411,11.56 C21.411,12.2966703 21.4506663,12.9029976 21.53,13.379 C21.6093337,13.8550024 21.7169993,14.2346652 21.853,14.518 C21.9890007,14.8013347 22.1476658,14.9968328 22.329,15.1045 C22.5103342,15.2121672 22.702999,15.266 22.907,15.266 Z M28.5,17 L28.5,8.568 L30.54,8.568 L30.71,9.656 L30.778,9.656 C31.1293351,9.30466491 31.5033314,9.00150127 31.9,8.7465 C32.2966687,8.49149872 32.7726639,8.364 33.328,8.364 C33.9286697,8.364 34.4131648,8.48583211 34.7815,8.7295 C35.1498352,8.97316788 35.4416656,9.3216644 35.657,9.775 C36.0310019,9.38966474 36.4248313,9.05816805 36.8385,8.7805 C37.2521687,8.50283194 37.7423305,8.364 38.309,8.364 C39.2156712,8.364 39.8814979,8.66716363 40.3065,9.2735 C40.7315021,9.87983636 40.944,10.7099947 40.944,11.764 L40.944,17 L38.445,17 L38.445,12.087 C38.445,11.4749969 38.3628342,11.0556678 38.1985,10.829 C38.0341658,10.6023322 37.7706685,10.489 37.408,10.489 C36.9886646,10.489 36.5070027,10.7609973 35.963,11.305 L35.963,17 L33.464,17 L33.464,12.087 C33.464,11.4749969 33.3818342,11.0556678 33.2175,10.829 C33.0531658,10.6023322 32.7896685,10.489 32.427,10.489 C31.9963312,10.489 31.5203359,10.7609973 30.999,11.305 L30.999,17 L28.5,17 Z M43.069,17 L43.069,8.568 L45.109,8.568 L45.279,9.656 L45.347,9.656 C45.6983351,9.30466491 46.0723314,9.00150127 46.469,8.7465 C46.8656687,8.49149872 47.3416639,8.364 47.897,8.364 C48.4976697,8.364 48.9821648,8.48583211 49.3505,8.7295 C49.7188352,8.97316788 50.0106656,9.3216644 50.226,9.775 C50.6000019,9.38966474 50.9938313,9.05816805 51.4075,8.7805 C51.8211687,8.50283194 52.3113305,8.364 52.878,8.364 C53.7846712,8.364 54.4504979,8.66716363 54.8755,9.2735 C55.3005021,9.87983636 55.513,10.7099947 55.513,11.764 L55.513,17 L53.014,17 L53.014,12.087 C53.014,11.4749969 52.9318342,11.0556678 52.7675,10.829 C52.6031658,10.6023322 52.3396685,10.489 51.977,10.489 C51.5576646,10.489 51.0760027,10.7609973 50.532,11.305 L50.532,17 L48.033,17 L48.033,12.087 C48.033,11.4749969 47.9508342,11.0556678 47.7865,10.829 C47.6221658,10.6023322 47.3586685,10.489 46.996,10.489 C46.5653312,10.489 46.0893359,10.7609973 45.568,11.305 L45.568,17 L43.069,17 Z" id="100mm" fill="#093169" fill-rule="nonzero"></path>
            <polyline id="Rectangle-Copy-4" stroke="#CBD8F2" transform="translate(74.500000, 138.000000) rotate(-270.000000) translate(-74.500000, -138.000000) " points="3.73666667 145.5 3.5 130.5 145.5 130.5 145.5 145.5"></polyline>
            <polyline id="Rectangle-Copy-2" stroke="#CBD8F2" points="4.08166667 52 4 37 53 37 53 52"></polyline>
        </g>
    </g>
</svg>