<?xml version="1.0" encoding="UTF-8"?>
<svg width="600px" height="280px" viewBox="0 0 600 280" version="1.1" xmlns="http://www.w3.org/2000/svg" xmlns:xlink="http://www.w3.org/1999/xlink">
    <!-- Generator: Sketch 58 (84663) - https://sketch.com -->
    <title>architecturalPieces/P120</title>
    <desc>Created with Sketch.</desc>
    <g id="architecturalPieces/P120" stroke="none" stroke-width="1" fill="none" fill-rule="evenodd">
        <rect fill="#F5F9FF" x="0" y="0" width="600" height="280"></rect>
        <g id="Group-2" transform="translate(83.000000, 35.000000)">
            <rect id="Rectangle" stroke="#CBD8F2" fill="#FFFFFF" x="0.5" y="67.5" width="215.5" height="142"></rect>
            <polyline id="Rectangle-Copy" stroke="#CBD8F2" points="1.36 52 1 37 217 37 217 52"></polyline>
            <path d="M86.465,17 L86.465,14.416 L81.79,14.416 L81.79,12.699 L85.734,6.205 L88.794,6.205 L88.794,12.512 L90.035,12.512 L90.035,14.416 L88.794,14.416 L88.794,17 L86.465,17 Z M84.187,12.512 L86.465,12.512 L86.465,10.761 C86.465,10.4799319 86.4722533,10.1644142 86.48676,9.81444071 L86.5398,8.78356007 C86.5488666,8.62852045 86.5579333,8.48300068 86.567,8.347 L86.499,8.347 L86.074,9.248 L86.074,9.248 C85.9266659,9.55400153 85.7736675,9.85999847 85.615,10.166 L84.187,12.512 Z M95.441,17 L95.441,14.416 L90.766,14.416 L90.766,12.699 L94.71,6.205 L97.77,6.205 L97.77,12.512 L99.011,12.512 L99.011,14.416 L97.77,14.416 L97.77,17 L95.441,17 Z M93.163,12.512 L95.441,12.512 L95.441,10.761 C95.441,10.4799319 95.4482533,10.1644142 95.46276,9.81444071 L95.5158,8.78356007 C95.5248666,8.62852045 95.5339333,8.48300068 95.543,8.347 L95.475,8.347 L95.05,9.248 L95.05,9.248 C94.9026659,9.55400153 94.7496675,9.85999847 94.591,10.166 L93.163,12.512 Z M103.907,17.204 C103.328997,17.204 102.802002,17.0821679 102.326,16.8385 C101.849998,16.5948321 101.444835,16.2350024 101.1105,15.759 C100.776165,15.2829976 100.515501,14.6936702 100.3285,13.991 C100.141499,13.2883298 100.048,12.4780046 100.048,11.56 C100.048,10.6419954 100.141499,9.83733679 100.3285,9.146 C100.515501,8.45466321 100.776165,7.87383568 101.1105,7.4035 C101.444835,6.93316431 101.849998,6.58183449 102.326,6.3495 C102.802002,6.1171655 103.328997,6.001 103.907,6.001 C104.485003,6.001 105.011998,6.1171655 105.488,6.3495 C105.964002,6.58183449 106.369165,6.93316431 106.7035,7.4035 C107.037835,7.87383568 107.298499,8.45466321 107.4855,9.146 C107.672501,9.83733679 107.766,10.6419954 107.766,11.56 C107.766,12.4780046 107.672501,13.2883298 107.4855,13.991 C107.298499,14.6936702 107.037835,15.2829976 106.7035,15.759 C106.369165,16.2350024 105.964002,16.5948321 105.488,16.8385 C105.011998,17.0821679 104.485003,17.204 103.907,17.204 Z M103.907,15.266 C104.122334,15.266 104.320666,15.2121672 104.502,15.1045 C104.683334,14.9968328 104.841999,14.8013347 104.978,14.518 C105.114001,14.2346652 105.218833,13.8550024 105.2925,13.379 C105.366167,12.9029976 105.403,12.2966703 105.403,11.56 C105.403,10.8233296 105.366167,10.2198357 105.2925,9.7495 C105.218833,9.27916431 105.114001,8.91083466 104.978,8.6445 C104.841999,8.37816533 104.683334,8.19400051 104.502,8.092 C104.320666,7.98999949 104.122334,7.939 103.907,7.939 C103.702999,7.939 103.510334,7.98999949 103.329,8.092 C103.147666,8.19400051 102.989001,8.37816533 102.853,8.6445 C102.716999,8.91083466 102.609334,9.27916431 102.53,9.7495 C102.450666,10.2198357 102.411,10.8233296 102.411,11.56 C102.411,12.2966703 102.450666,12.9029976 102.53,13.379 C102.609334,13.8550024 102.716999,14.2346652 102.853,14.518 C102.989001,14.8013347 103.147666,14.9968328 103.329,15.1045 C103.510334,15.2121672 103.702999,15.266 103.907,15.266 Z M109.5,17 L109.5,8.568 L111.54,8.568 L111.71,9.656 L111.778,9.656 C112.129335,9.30466491 112.503331,9.00150127 112.9,8.7465 C113.296669,8.49149872 113.772664,8.364 114.328,8.364 C114.92867,8.364 115.413165,8.48583211 115.7815,8.7295 C116.149835,8.97316788 116.441666,9.3216644 116.657,9.775 C117.031002,9.38966474 117.424831,9.05816805 117.8385,8.7805 C118.252169,8.50283194 118.742331,8.364 119.309,8.364 C120.215671,8.364 120.881498,8.66716363 121.3065,9.2735 C121.731502,9.87983636 121.944,10.7099947 121.944,11.764 L121.944,17 L119.445,17 L119.445,12.087 C119.445,11.4749969 119.362834,11.0556678 119.1985,10.829 C119.034166,10.6023322 118.770668,10.489 118.408,10.489 C117.988665,10.489 117.507003,10.7609973 116.963,11.305 L116.963,17 L114.464,17 L114.464,12.087 C114.464,11.4749969 114.381834,11.0556678 114.2175,10.829 C114.053166,10.6023322 113.789668,10.489 113.427,10.489 C112.996331,10.489 112.520336,10.7609973 111.999,11.305 L111.999,17 L109.5,17 Z M124.069,17 L124.069,8.568 L126.109,8.568 L126.279,9.656 L126.347,9.656 C126.698335,9.30466491 127.072331,9.00150127 127.469,8.7465 C127.865669,8.49149872 128.341664,8.364 128.897,8.364 C129.49767,8.364 129.982165,8.48583211 130.3505,8.7295 C130.718835,8.97316788 131.010666,9.3216644 131.226,9.775 C131.600002,9.38966474 131.993831,9.05816805 132.4075,8.7805 C132.821169,8.50283194 133.31133,8.364 133.878,8.364 C134.784671,8.364 135.450498,8.66716363 135.8755,9.2735 C136.300502,9.87983636 136.513,10.7099947 136.513,11.764 L136.513,17 L134.014,17 L134.014,12.087 C134.014,11.4749969 133.931834,11.0556678 133.7675,10.829 C133.603166,10.6023322 133.339668,10.489 132.977,10.489 C132.557665,10.489 132.076003,10.7609973 131.532,11.305 L131.532,17 L129.033,17 L129.033,12.087 C129.033,11.4749969 128.950834,11.0556678 128.7865,10.829 C128.622166,10.6023322 128.358668,10.489 127.996,10.489 C127.565331,10.489 127.089336,10.7609973 126.568,11.305 L126.568,17 L124.069,17 Z" id="440mm" fill="#093169" fill-rule="nonzero"></path>
            <path d="M245.096,144 L245.096,142.572 L245.897041,141.817199 C246.28328,141.45 246.648098,141.098102 246.9915,140.7615 C247.563836,140.200497 248.056831,139.673502 248.4705,139.1805 C248.884169,138.687498 249.207166,138.228502 249.4395,137.8035 C249.671834,137.378498 249.788,136.973335 249.788,136.588 C249.788,136.055331 249.652001,135.650168 249.38,135.3725 C249.107999,135.094832 248.734002,134.956 248.258,134.956 C247.861331,134.956 247.510002,135.066499 247.204,135.2875 C246.897998,135.508501 246.609001,135.766332 246.337,136.061 L244.977,134.718 C245.509669,134.151331 246.053664,133.723501 246.609,133.4345 C247.164336,133.145499 247.827329,133.001 248.598,133.001 C249.130669,133.001 249.615164,133.083166 250.0515,133.2475 C250.487836,133.411834 250.864665,133.644165 251.182,133.9445 C251.499335,134.244835 251.742999,134.604665 251.913,135.024 C252.083001,135.443335 252.168,135.913664 252.168,136.435 C252.168,136.888336 252.071668,137.350164 251.879,137.8205 C251.686332,138.290836 251.428502,138.761164 251.1055,139.2315 C250.782498,139.701836 250.414169,140.172164 250.0005,140.6425 C249.586831,141.112836 249.159002,141.574664 248.717,142.028 L249.148375,141.979125 C249.299958,141.963542 249.459332,141.948667 249.6265,141.9345 C249.960835,141.906167 250.258332,141.892 250.519,141.892 L252.695,141.892 L252.695,144 L245.096,144 Z M257.727,138.186 C258.010335,138.186 258.296499,138.103834 258.5855,137.9395 C258.874501,137.775166 259.126666,137.500335 259.342,137.115 C259.228666,136.264996 259.016168,135.678502 258.7045,135.3555 C258.392832,135.032498 258.044335,134.871 257.659,134.871 C257.296332,134.871 256.979001,135.009832 256.707,135.2875 C256.434999,135.565168 256.299,136.009997 256.299,136.622 C256.299,137.200003 256.434999,137.605166 256.707,137.8375 C256.979001,138.069834 257.318998,138.186 257.727,138.186 Z M257.336,144.204 C256.621996,144.204 256.001503,144.073668 255.4745,143.813 C254.947497,143.552332 254.514002,143.252002 254.174,142.912 L255.5,141.416 C255.681334,141.620001 255.924998,141.798499 256.231,141.9515 C256.537002,142.104501 256.848665,142.181 257.166,142.181 C257.472002,142.181 257.755332,142.124334 258.016,142.011 C258.276668,141.897666 258.506166,141.707835 258.7045,141.4415 C258.902834,141.175165 259.061499,140.829502 259.1805,140.4045 C259.299501,139.979498 259.370333,139.44967 259.393,138.815 C259.256999,138.996334 259.098334,139.157833 258.917,139.2995 C258.735666,139.441167 258.548668,139.560166 258.356,139.6565 C258.163332,139.752834 257.970668,139.8265 257.778,139.8775 C257.585332,139.9285 257.404001,139.954 257.234,139.954 C256.769331,139.954 256.341502,139.886001 255.9505,139.75 C255.559498,139.613999 255.222335,139.410001 254.939,139.138 C254.655665,138.865999 254.431834,138.520335 254.2675,138.101 C254.103166,137.681665 254.021,137.18867 254.021,136.622 C254.021,136.066664 254.117332,135.565169 254.31,135.1175 C254.502668,134.669831 254.760498,134.287335 255.0835,133.97 C255.406502,133.652665 255.786164,133.411834 256.2225,133.2475 C256.658836,133.083166 257.120664,133.001 257.608,133.001 C258.129336,133.001 258.636498,133.102999 259.1295,133.307 C259.622502,133.511001 260.058831,133.828331 260.4385,134.259 C260.818169,134.689669 261.124166,135.242163 261.3565,135.9165 C261.588834,136.590837 261.705,137.403995 261.705,138.356 C261.705,139.364672 261.583168,140.23733 261.3395,140.974 C261.095832,141.71067 260.772835,142.316998 260.3705,142.793 C259.968165,143.269002 259.503503,143.623166 258.9765,143.8555 C258.449497,144.087834 257.90267,144.204 257.336,144.204 Z M266.907,144.204 C266.328997,144.204 265.802002,144.082168 265.326,143.8385 C264.849998,143.594832 264.444835,143.235002 264.1105,142.759 C263.776165,142.282998 263.515501,141.69367 263.3285,140.991 C263.141499,140.28833 263.048,139.478005 263.048,138.56 C263.048,137.641995 263.141499,136.837337 263.3285,136.146 C263.515501,135.454663 263.776165,134.873836 264.1105,134.4035 C264.444835,133.933164 264.849998,133.581834 265.326,133.3495 C265.802002,133.117166 266.328997,133.001 266.907,133.001 C267.485003,133.001 268.011998,133.117166 268.488,133.3495 C268.964002,133.581834 269.369165,133.933164 269.7035,134.4035 C270.037835,134.873836 270.298499,135.454663 270.4855,136.146 C270.672501,136.837337 270.766,137.641995 270.766,138.56 C270.766,139.478005 270.672501,140.28833 270.4855,140.991 C270.298499,141.69367 270.037835,142.282998 269.7035,142.759 C269.369165,143.235002 268.964002,143.594832 268.488,143.8385 C268.011998,144.082168 267.485003,144.204 266.907,144.204 Z M266.907,142.266 C267.122334,142.266 267.320666,142.212167 267.502,142.1045 C267.683334,141.996833 267.841999,141.801335 267.978,141.518 C268.114001,141.234665 268.218833,140.855002 268.2925,140.379 C268.366167,139.902998 268.403,139.29667 268.403,138.56 C268.403,137.82333 268.366167,137.219836 268.2925,136.7495 C268.218833,136.279164 268.114001,135.910835 267.978,135.6445 C267.841999,135.378165 267.683334,135.194001 267.502,135.092 C267.320666,134.989999 267.122334,134.939 266.907,134.939 C266.702999,134.939 266.510334,134.989999 266.329,135.092 C266.147666,135.194001 265.989001,135.378165 265.853,135.6445 C265.716999,135.910835 265.609334,136.279164 265.53,136.7495 C265.450666,137.219836 265.411,137.82333 265.411,138.56 C265.411,139.29667 265.450666,139.902998 265.53,140.379 C265.609334,140.855002 265.716999,141.234665 265.853,141.518 C265.989001,141.801335 266.147666,141.996833 266.329,142.1045 C266.510334,142.212167 266.702999,142.266 266.907,142.266 Z M272.5,144 L272.5,135.568 L274.54,135.568 L274.71,136.656 L274.778,136.656 C275.129335,136.304665 275.503331,136.001501 275.9,135.7465 C276.296669,135.491499 276.772664,135.364 277.328,135.364 C277.92867,135.364 278.413165,135.485832 278.7815,135.7295 C279.149835,135.973168 279.441666,136.321664 279.657,136.775 C280.031002,136.389665 280.424831,136.058168 280.8385,135.7805 C281.252169,135.502832 281.74233,135.364 282.309,135.364 C283.215671,135.364 283.881498,135.667164 284.3065,136.2735 C284.731502,136.879836 284.944,137.709995 284.944,138.764 L284.944,144 L282.445,144 L282.445,139.087 C282.445,138.474997 282.362834,138.055668 282.1985,137.829 C282.034166,137.602332 281.770668,137.489 281.408,137.489 C280.988665,137.489 280.507003,137.760997 279.963,138.305 L279.963,144 L277.464,144 L277.464,139.087 C277.464,138.474997 277.381834,138.055668 277.2175,137.829 C277.053166,137.602332 276.789668,137.489 276.427,137.489 C275.996331,137.489 275.520336,137.760997 274.999,138.305 L274.999,144 L272.5,144 Z M287.069,144 L287.069,135.568 L289.109,135.568 L289.279,136.656 L289.347,136.656 C289.698335,136.304665 290.072331,136.001501 290.469,135.7465 C290.865669,135.491499 291.341664,135.364 291.897,135.364 C292.49767,135.364 292.982165,135.485832 293.3505,135.7295 C293.718835,135.973168 294.010666,136.321664 294.226,136.775 C294.600002,136.389665 294.993831,136.058168 295.4075,135.7805 C295.821169,135.502832 296.31133,135.364 296.878,135.364 C297.784671,135.364 298.450498,135.667164 298.8755,136.2735 C299.300502,136.879836 299.513,137.709995 299.513,138.764 L299.513,144 L297.014,144 L297.014,139.087 C297.014,138.474997 296.931834,138.055668 296.7675,137.829 C296.603166,137.602332 296.339668,137.489 295.977,137.489 C295.557665,137.489 295.076003,137.760997 294.532,138.305 L294.532,144 L292.033,144 L292.033,139.087 C292.033,138.474997 291.950834,138.055668 291.7865,137.829 C291.622166,137.602332 291.358668,137.489 290.996,137.489 C290.565331,137.489 290.089336,137.760997 289.568,138.305 L289.568,144 L287.069,144 Z" id="290mm" fill="#093169" fill-rule="nonzero" transform="translate(272.245000, 138.602500) rotate(-270.000000) translate(-272.245000, -138.602500) "></path>
            <polyline id="Rectangle-Copy-3" stroke="#CBD8F2" transform="translate(240.000000, 138.500000) rotate(-270.000000) translate(-240.000000, -138.500000) " points="169.236667 146 169 131 311 131 311 146"></polyline>
            <polygon id="Stroke-12" stroke="#CBD8F2" fill="#FFFFFF" points="10.14 199.84 206.4 199.84 206.4 77.2 10.14 77.2"></polygon>
            <path d="M0.36,67.36 L10.14,77.2" id="Stroke-13" stroke="#CBD8F2" fill="#FFFFFF"></path>
            <path d="M206.4,77.2 L216.18,67.36" id="Stroke-15" stroke="#CBD8F2" fill="#FFFFFF"></path>
            <path d="M10.14,199.84 L0.36,209.68" id="Stroke-17" stroke="#CBD8F2" fill="#FFFFFF"></path>
            <path d="M206.4,199.84 L216.18,209.68" id="Stroke-19" stroke="#CBD8F2" fill="#FFFFFF"></path>
            <path d="M166.914,140.4805 C165.429,140.9995 164.143,141.2585 163.059,141.2585 C160.819,141.2585 158.933,140.2455 157.4,138.2165 C155.301,135.4115 154.252,131.5205 154.252,126.5455 C154.252,122.8205 155.042,120.0145 156.622,118.1285 C158.201,116.2425 160.041,115.2985 162.139,115.2985 C163.955,115.2985 165.576,116.0065 167.002,117.4205 C168.429,118.8355 169.531,120.8695 170.309,123.5215 C171.087,126.1745 171.476,128.6445 171.476,130.9315 C171.476,132.7705 171.264,135.2225 170.84,138.2875 C169.708,139.2315 168.399,139.9625 166.914,140.4805 L166.914,140.4805 Z M150.928,162.9385 C155.407,162.9385 159.545,161.6895 163.342,159.1895 C168.01,156.1485 171.653,152.3235 174.27,147.7135 C176.888,143.1035 178.196,138.1345 178.196,132.8055 C178.196,126.8875 176.475,121.9125 173.033,117.8805 C170.226,114.6265 166.855,113.0005 162.917,113.0005 C158.249,113.0005 154.465,114.9925 151.565,118.9775 C149.16,122.2545 147.957,125.9925 147.957,130.1885 C147.957,134.5035 149.16,137.9635 151.565,140.5685 C153.97,143.1745 156.857,144.4775 160.23,144.4775 C163.224,144.4775 166.572,143.2865 170.274,140.9045 C169.307,145.0315 167.591,148.8155 165.128,152.2575 C162.664,155.7005 160.111,158.1115 157.471,159.4905 C154.83,160.8695 151.977,161.5835 148.912,161.6305 L148.912,162.9385 L150.928,162.9385 Z M117.895,119.7905 C119.451,119.0605 120.665,118.6945 121.538,118.6945 C122.151,118.6945 122.675,118.8715 123.112,119.2245 C123.548,119.5785 123.848,120.1325 124.013,120.8865 C124.249,121.8775 124.367,124.1175 124.367,127.6065 L124.367,153.4955 C124.367,156.3725 124.237,158.0995 123.978,158.6765 C123.718,159.2555 123.259,159.7145 122.599,160.0565 C121.938,160.3985 120.477,160.5925 118.213,160.6395 L118.213,161.9485 L136.251,161.9485 L136.251,160.6395 C134.081,160.5925 132.643,160.3925 131.936,160.0385 C131.228,159.6845 130.763,159.1785 130.539,158.5175 C130.314,157.8585 130.203,156.1835 130.203,153.4955 L130.203,113.0005 L129.036,113.0005 L117.364,118.6945 L117.895,119.7905 Z M83.129,126.7225 C83.742,122.5265 84.897,119.4495 86.595,117.4915 C87.844,116.0535 89.271,115.3345 90.874,115.3345 C92.241,115.3345 93.409,115.7235 94.376,116.5015 C95.72,117.6335 96.816,119.5555 97.665,122.2665 C98.797,125.9215 99.362,130.4835 99.362,135.9535 C99.362,143.3335 98.82,149.0515 97.736,153.1065 C97.028,155.7945 95.99,157.7105 94.623,158.8535 C93.255,159.9975 91.935,160.5695 90.662,160.5695 C87.997,160.5695 85.994,158.8125 84.65,155.2995 C83.023,151.1265 82.209,145.7385 82.209,139.1365 C82.209,135.0575 82.515,130.9195 83.129,126.7225 L83.129,126.7225 Z M79.132,154.6985 C82.174,160.0975 85.981,162.7975 90.556,162.7975 C92.866,162.7975 95.265,161.9195 97.753,160.1625 C100.241,158.4065 102.286,155.5825 103.889,151.6915 C105.493,147.8015 106.294,143.0745 106.294,137.5095 C106.294,129.5645 104.467,123.2685 100.812,118.6235 C97.889,114.8745 94.588,113.0005 90.91,113.0005 C88.646,113.0005 86.453,113.7665 84.331,115.2985 C81.596,117.2325 79.403,120.1745 77.753,124.1235 C76.102,128.0725 75.277,132.7825 75.277,138.2525 C75.277,144.6665 76.562,150.1475 79.132,154.6985 L79.132,154.6985 Z M68.345,152.7175 C67.732,153.7785 67.013,154.5985 66.188,155.1755 C65.362,155.7535 64.437,156.1365 63.412,156.3255 C62.386,156.5145 60.6,156.6085 58.053,156.6085 L45.533,156.6085 C46.995,155.2875 50.662,151.4215 56.533,145.0075 C60.446,140.7405 63.276,136.6965 65.021,132.8765 C66.153,130.4485 66.718,128.0195 66.718,125.5905 C66.718,122.1955 65.415,119.2485 62.81,116.7495 C60.205,114.2505 56.957,113.0005 53.067,113.0005 C49.412,113.0005 46.365,114.1675 43.924,116.5015 C41.484,118.8355 39.969,122.1835 39.379,126.5455 L40.688,126.5455 C41.584,123.8815 42.969,121.8595 44.844,120.4805 C46.718,119.1005 48.834,118.4115 51.192,118.4115 C53.786,118.4115 56.014,119.3895 57.877,121.3465 C59.739,123.3045 60.671,125.8035 60.671,128.8445 C60.671,132.8295 58.973,137.2265 55.578,142.0365 C52.182,146.8465 46.323,153.0485 38,160.6395 L38,161.9485 L66.294,161.9485 L69.654,152.7175 L68.345,152.7175 Z" id="Fill-1" fill="#CBD8F2"></path>
        </g>
        <g id="Group" transform="translate(397.000000, 35.000000)">
            <path d="M90.596,144 L90.596,142.572 L91.3970407,141.817199 C91.7832799,141.45 92.1480983,141.098102 92.4915,140.7615 C93.0638362,140.200497 93.5568313,139.673502 93.9705,139.1805 C94.3841687,138.687498 94.7071655,138.228502 94.9395,137.8035 C95.1718345,137.378498 95.288,136.973335 95.288,136.588 C95.288,136.055331 95.1520014,135.650168 94.88,135.3725 C94.6079986,135.094832 94.2340024,134.956 93.758,134.956 C93.3613314,134.956 93.0100015,135.066499 92.704,135.2875 C92.3979985,135.508501 92.1090014,135.766332 91.837,136.061 L90.477,134.718 C91.0096693,134.151331 91.5536639,133.723501 92.109,133.4345 C92.6643361,133.145499 93.3273295,133.001 94.098,133.001 C94.6306693,133.001 95.1151645,133.083166 95.5515,133.2475 C95.9878355,133.411834 96.3646651,133.644165 96.682,133.9445 C96.9993349,134.244835 97.2429992,134.604665 97.413,135.024 C97.5830009,135.443335 97.668,135.913664 97.668,136.435 C97.668,136.888336 97.5716676,137.350164 97.379,137.8205 C97.1863324,138.290836 96.9285016,138.761164 96.6055,139.2315 C96.2824984,139.701836 95.9141687,140.172164 95.5005,140.6425 C95.0868313,141.112836 94.6590022,141.574664 94.217,142.028 L94.6483749,141.979125 C94.7999578,141.963542 94.9593325,141.948667 95.1265,141.9345 C95.460835,141.906167 95.758332,141.892 96.019,141.892 L98.195,141.892 L98.195,144 L90.596,144 Z M103.227,138.186 C103.510335,138.186 103.796499,138.103834 104.0855,137.9395 C104.374501,137.775166 104.626666,137.500335 104.842,137.115 C104.728666,136.264996 104.516168,135.678502 104.2045,135.3555 C103.892832,135.032498 103.544335,134.871 103.159,134.871 C102.796332,134.871 102.479001,135.009832 102.207,135.2875 C101.934999,135.565168 101.799,136.009997 101.799,136.622 C101.799,137.200003 101.934999,137.605166 102.207,137.8375 C102.479001,138.069834 102.818998,138.186 103.227,138.186 Z M102.836,144.204 C102.121996,144.204 101.501503,144.073668 100.9745,143.813 C100.447497,143.552332 100.014002,143.252002 99.674,142.912 L101,141.416 C101.181334,141.620001 101.424998,141.798499 101.731,141.9515 C102.037002,142.104501 102.348665,142.181 102.666,142.181 C102.972002,142.181 103.255332,142.124334 103.516,142.011 C103.776668,141.897666 104.006166,141.707835 104.2045,141.4415 C104.402834,141.175165 104.561499,140.829502 104.6805,140.4045 C104.799501,139.979498 104.870333,139.44967 104.893,138.815 C104.756999,138.996334 104.598334,139.157833 104.417,139.2995 C104.235666,139.441167 104.048668,139.560166 103.856,139.6565 C103.663332,139.752834 103.470668,139.8265 103.278,139.8775 C103.085332,139.9285 102.904001,139.954 102.734,139.954 C102.269331,139.954 101.841502,139.886001 101.4505,139.75 C101.059498,139.613999 100.722335,139.410001 100.439,139.138 C100.155665,138.865999 99.9318342,138.520335 99.7675,138.101 C99.6031658,137.681665 99.521,137.18867 99.521,136.622 C99.521,136.066664 99.6173324,135.565169 99.81,135.1175 C100.002668,134.669831 100.260498,134.287335 100.5835,133.97 C100.906502,133.652665 101.286164,133.411834 101.7225,133.2475 C102.158836,133.083166 102.620664,133.001 103.108,133.001 C103.629336,133.001 104.136498,133.102999 104.6295,133.307 C105.122502,133.511001 105.558831,133.828331 105.9385,134.259 C106.318169,134.689669 106.624166,135.242163 106.8565,135.9165 C107.088834,136.590837 107.205,137.403995 107.205,138.356 C107.205,139.364672 107.083168,140.23733 106.8395,140.974 C106.595832,141.71067 106.272835,142.316998 105.8705,142.793 C105.468165,143.269002 105.003503,143.623166 104.4765,143.8555 C103.949497,144.087834 103.40267,144.204 102.836,144.204 Z M112.407,144.204 C111.828997,144.204 111.302002,144.082168 110.826,143.8385 C110.349998,143.594832 109.944835,143.235002 109.6105,142.759 C109.276165,142.282998 109.015501,141.69367 108.8285,140.991 C108.641499,140.28833 108.548,139.478005 108.548,138.56 C108.548,137.641995 108.641499,136.837337 108.8285,136.146 C109.015501,135.454663 109.276165,134.873836 109.6105,134.4035 C109.944835,133.933164 110.349998,133.581834 110.826,133.3495 C111.302002,133.117166 111.828997,133.001 112.407,133.001 C112.985003,133.001 113.511998,133.117166 113.988,133.3495 C114.464002,133.581834 114.869165,133.933164 115.2035,134.4035 C115.537835,134.873836 115.798499,135.454663 115.9855,136.146 C116.172501,136.837337 116.266,137.641995 116.266,138.56 C116.266,139.478005 116.172501,140.28833 115.9855,140.991 C115.798499,141.69367 115.537835,142.282998 115.2035,142.759 C114.869165,143.235002 114.464002,143.594832 113.988,143.8385 C113.511998,144.082168 112.985003,144.204 112.407,144.204 Z M112.407,142.266 C112.622334,142.266 112.820666,142.212167 113.002,142.1045 C113.183334,141.996833 113.341999,141.801335 113.478,141.518 C113.614001,141.234665 113.718833,140.855002 113.7925,140.379 C113.866167,139.902998 113.903,139.29667 113.903,138.56 C113.903,137.82333 113.866167,137.219836 113.7925,136.7495 C113.718833,136.279164 113.614001,135.910835 113.478,135.6445 C113.341999,135.378165 113.183334,135.194001 113.002,135.092 C112.820666,134.989999 112.622334,134.939 112.407,134.939 C112.202999,134.939 112.010334,134.989999 111.829,135.092 C111.647666,135.194001 111.489001,135.378165 111.353,135.6445 C111.216999,135.910835 111.109334,136.279164 111.03,136.7495 C110.950666,137.219836 110.911,137.82333 110.911,138.56 C110.911,139.29667 110.950666,139.902998 111.03,140.379 C111.109334,140.855002 111.216999,141.234665 111.353,141.518 C111.489001,141.801335 111.647666,141.996833 111.829,142.1045 C112.010334,142.212167 112.202999,142.266 112.407,142.266 Z M118,144 L118,135.568 L120.04,135.568 L120.21,136.656 L120.278,136.656 C120.629335,136.304665 121.003331,136.001501 121.4,135.7465 C121.796669,135.491499 122.272664,135.364 122.828,135.364 C123.42867,135.364 123.913165,135.485832 124.2815,135.7295 C124.649835,135.973168 124.941666,136.321664 125.157,136.775 C125.531002,136.389665 125.924831,136.058168 126.3385,135.7805 C126.752169,135.502832 127.242331,135.364 127.809,135.364 C128.715671,135.364 129.381498,135.667164 129.8065,136.2735 C130.231502,136.879836 130.444,137.709995 130.444,138.764 L130.444,144 L127.945,144 L127.945,139.087 C127.945,138.474997 127.862834,138.055668 127.6985,137.829 C127.534166,137.602332 127.270668,137.489 126.908,137.489 C126.488665,137.489 126.007003,137.760997 125.463,138.305 L125.463,144 L122.964,144 L122.964,139.087 C122.964,138.474997 122.881834,138.055668 122.7175,137.829 C122.553166,137.602332 122.289668,137.489 121.927,137.489 C121.496331,137.489 121.020336,137.760997 120.499,138.305 L120.499,144 L118,144 Z M132.569,144 L132.569,135.568 L134.609,135.568 L134.779,136.656 L134.847,136.656 C135.198335,136.304665 135.572331,136.001501 135.969,135.7465 C136.365669,135.491499 136.841664,135.364 137.397,135.364 C137.99767,135.364 138.482165,135.485832 138.8505,135.7295 C139.218835,135.973168 139.510666,136.321664 139.726,136.775 C140.100002,136.389665 140.493831,136.058168 140.9075,135.7805 C141.321169,135.502832 141.81133,135.364 142.378,135.364 C143.284671,135.364 143.950498,135.667164 144.3755,136.2735 C144.800502,136.879836 145.013,137.709995 145.013,138.764 L145.013,144 L142.514,144 L142.514,139.087 C142.514,138.474997 142.431834,138.055668 142.2675,137.829 C142.103166,137.602332 141.839668,137.489 141.477,137.489 C141.057665,137.489 140.576003,137.760997 140.032,138.305 L140.032,144 L137.533,144 L137.533,139.087 C137.533,138.474997 137.450834,138.055668 137.2865,137.829 C137.122166,137.602332 136.858668,137.489 136.496,137.489 C136.065331,137.489 135.589336,137.760997 135.068,138.305 L135.068,144 L132.569,144 Z" id="290mm" fill="#093169" fill-rule="nonzero" transform="translate(117.745000, 138.602500) rotate(-270.000000) translate(-117.745000, -138.602500) "></path>
            <polyline id="Rectangle-Copy-4" stroke="#CBD8F2" transform="translate(85.500000, 138.500000) rotate(-270.000000) translate(-85.500000, -138.500000) " points="14.7366667 146 14.5 131 156.5 131 156.5 146"></polyline>
            <rect id="Rectangle" stroke="#CBD8F2" fill="#FFFFFF" x="3.5" y="67.5" width="48" height="142"></rect>
            <path d="M1.657,17 L1.657,14.977 L4.003,14.977 L4.003,8.738 L1.98,8.738 L1.98,7.191 C2.56933628,7.0776661 3.06799796,6.94166746 3.476,6.783 C3.88400204,6.62433254 4.28066474,6.4316678 4.666,6.205 L6.502,6.205 L6.502,14.977 L8.525,14.977 L8.525,17 L1.657,17 Z M13.931,17.204 C13.3529971,17.204 12.8260024,17.0821679 12.35,16.8385 C11.8739976,16.5948321 11.468835,16.2350024 11.1345,15.759 C10.800165,15.2829976 10.5395009,14.6936702 10.3525,13.991 C10.1654991,13.2883298 10.072,12.4780046 10.072,11.56 C10.072,10.6419954 10.1654991,9.83733679 10.3525,9.146 C10.5395009,8.45466321 10.800165,7.87383568 11.1345,7.4035 C11.468835,6.93316431 11.8739976,6.58183449 12.35,6.3495 C12.8260024,6.1171655 13.3529971,6.001 13.931,6.001 C14.5090029,6.001 15.0359976,6.1171655 15.512,6.3495 C15.9880024,6.58183449 16.393165,6.93316431 16.7275,7.4035 C17.061835,7.87383568 17.3224991,8.45466321 17.5095,9.146 C17.6965009,9.83733679 17.79,10.6419954 17.79,11.56 C17.79,12.4780046 17.6965009,13.2883298 17.5095,13.991 C17.3224991,14.6936702 17.061835,15.2829976 16.7275,15.759 C16.393165,16.2350024 15.9880024,16.5948321 15.512,16.8385 C15.0359976,17.0821679 14.5090029,17.204 13.931,17.204 Z M13.931,15.266 C14.1463344,15.266 14.3446658,15.2121672 14.526,15.1045 C14.7073342,14.9968328 14.8659993,14.8013347 15.002,14.518 C15.1380007,14.2346652 15.242833,13.8550024 15.3165,13.379 C15.390167,12.9029976 15.427,12.2966703 15.427,11.56 C15.427,10.8233296 15.390167,10.2198357 15.3165,9.7495 C15.242833,9.27916431 15.1380007,8.91083466 15.002,8.6445 C14.8659993,8.37816533 14.7073342,8.19400051 14.526,8.092 C14.3446658,7.98999949 14.1463344,7.939 13.931,7.939 C13.726999,7.939 13.5343342,7.98999949 13.353,8.092 C13.1716658,8.19400051 13.0130007,8.37816533 12.877,8.6445 C12.7409993,8.91083466 12.6333337,9.27916431 12.554,9.7495 C12.4746663,10.2198357 12.435,10.8233296 12.435,11.56 C12.435,12.2966703 12.4746663,12.9029976 12.554,13.379 C12.6333337,13.8550024 12.7409993,14.2346652 12.877,14.518 C13.0130007,14.8013347 13.1716658,14.9968328 13.353,15.1045 C13.5343342,15.2121672 13.726999,15.266 13.931,15.266 Z M22.907,17.204 C22.3289971,17.204 21.8020024,17.0821679 21.326,16.8385 C20.8499976,16.5948321 20.444835,16.2350024 20.1105,15.759 C19.776165,15.2829976 19.5155009,14.6936702 19.3285,13.991 C19.1414991,13.2883298 19.048,12.4780046 19.048,11.56 C19.048,10.6419954 19.1414991,9.83733679 19.3285,9.146 C19.5155009,8.45466321 19.776165,7.87383568 20.1105,7.4035 C20.444835,6.93316431 20.8499976,6.58183449 21.326,6.3495 C21.8020024,6.1171655 22.3289971,6.001 22.907,6.001 C23.4850029,6.001 24.0119976,6.1171655 24.488,6.3495 C24.9640024,6.58183449 25.369165,6.93316431 25.7035,7.4035 C26.037835,7.87383568 26.2984991,8.45466321 26.4855,9.146 C26.6725009,9.83733679 26.766,10.6419954 26.766,11.56 C26.766,12.4780046 26.6725009,13.2883298 26.4855,13.991 C26.2984991,14.6936702 26.037835,15.2829976 25.7035,15.759 C25.369165,16.2350024 24.9640024,16.5948321 24.488,16.8385 C24.0119976,17.0821679 23.4850029,17.204 22.907,17.204 Z M22.907,15.266 C23.1223344,15.266 23.3206658,15.2121672 23.502,15.1045 C23.6833342,14.9968328 23.8419993,14.8013347 23.978,14.518 C24.1140007,14.2346652 24.218833,13.8550024 24.2925,13.379 C24.366167,12.9029976 24.403,12.2966703 24.403,11.56 C24.403,10.8233296 24.366167,10.2198357 24.2925,9.7495 C24.218833,9.27916431 24.1140007,8.91083466 23.978,8.6445 C23.8419993,8.37816533 23.6833342,8.19400051 23.502,8.092 C23.3206658,7.98999949 23.1223344,7.939 22.907,7.939 C22.702999,7.939 22.5103342,7.98999949 22.329,8.092 C22.1476658,8.19400051 21.9890007,8.37816533 21.853,8.6445 C21.7169993,8.91083466 21.6093337,9.27916431 21.53,9.7495 C21.4506663,10.2198357 21.411,10.8233296 21.411,11.56 C21.411,12.2966703 21.4506663,12.9029976 21.53,13.379 C21.6093337,13.8550024 21.7169993,14.2346652 21.853,14.518 C21.9890007,14.8013347 22.1476658,14.9968328 22.329,15.1045 C22.5103342,15.2121672 22.702999,15.266 22.907,15.266 Z M28.5,17 L28.5,8.568 L30.54,8.568 L30.71,9.656 L30.778,9.656 C31.1293351,9.30466491 31.5033314,9.00150127 31.9,8.7465 C32.2966687,8.49149872 32.7726639,8.364 33.328,8.364 C33.9286697,8.364 34.4131648,8.48583211 34.7815,8.7295 C35.1498352,8.97316788 35.4416656,9.3216644 35.657,9.775 C36.0310019,9.38966474 36.4248313,9.05816805 36.8385,8.7805 C37.2521687,8.50283194 37.7423305,8.364 38.309,8.364 C39.2156712,8.364 39.8814979,8.66716363 40.3065,9.2735 C40.7315021,9.87983636 40.944,10.7099947 40.944,11.764 L40.944,17 L38.445,17 L38.445,12.087 C38.445,11.4749969 38.3628342,11.0556678 38.1985,10.829 C38.0341658,10.6023322 37.7706685,10.489 37.408,10.489 C36.9886646,10.489 36.5070027,10.7609973 35.963,11.305 L35.963,17 L33.464,17 L33.464,12.087 C33.464,11.4749969 33.3818342,11.0556678 33.2175,10.829 C33.0531658,10.6023322 32.7896685,10.489 32.427,10.489 C31.9963312,10.489 31.5203359,10.7609973 30.999,11.305 L30.999,17 L28.5,17 Z M43.069,17 L43.069,8.568 L45.109,8.568 L45.279,9.656 L45.347,9.656 C45.6983351,9.30466491 46.0723314,9.00150127 46.469,8.7465 C46.8656687,8.49149872 47.3416639,8.364 47.897,8.364 C48.4976697,8.364 48.9821648,8.48583211 49.3505,8.7295 C49.7188352,8.97316788 50.0106656,9.3216644 50.226,9.775 C50.6000019,9.38966474 50.9938313,9.05816805 51.4075,8.7805 C51.8211687,8.50283194 52.3113305,8.364 52.878,8.364 C53.7846712,8.364 54.4504979,8.66716363 54.8755,9.2735 C55.3005021,9.87983636 55.513,10.7099947 55.513,11.764 L55.513,17 L53.014,17 L53.014,12.087 C53.014,11.4749969 52.9318342,11.0556678 52.7675,10.829 C52.6031658,10.6023322 52.3396685,10.489 51.977,10.489 C51.5576646,10.489 51.0760027,10.7609973 50.532,11.305 L50.532,17 L48.033,17 L48.033,12.087 C48.033,11.4749969 47.9508342,11.0556678 47.7865,10.829 C47.6221658,10.6023322 47.3586685,10.489 46.996,10.489 C46.5653312,10.489 46.0893359,10.7609973 45.568,11.305 L45.568,17 L43.069,17 Z" id="100mm" fill="#093169" fill-rule="nonzero"></path>
            <polyline id="Rectangle-Copy-2" stroke="#CBD8F2" points="4.08166667 52 4 37 53 37 53 52"></polyline>
            <polyline id="Stroke-21" stroke="#CBD8F2" fill="#FFFFFF" points="51.8199 67.36 61.6599 77.2 61.6599 199.84 51.8199 209.68"></polyline>
        </g>
    </g>
</svg>