<?xml version="1.0" encoding="UTF-8"?>
<svg width="600px" height="352px" viewBox="0 0 600 352" version="1.1" xmlns="http://www.w3.org/2000/svg" xmlns:xlink="http://www.w3.org/1999/xlink">
    <!-- Generator: Sketch 58 (84663) - https://sketch.com -->
    <title>architecturalPieces/P200</title>
    <desc>Created with Sketch.</desc>
    <g id="architecturalPieces/P200" stroke="none" stroke-width="1" fill="none" fill-rule="evenodd">
        <rect fill="#F5F9FF" x="0" y="0" width="600" height="352"></rect>
        <g id="Group-5" transform="translate(101.000000, 35.000000)">
            <g id="Group" transform="translate(0.000000, 27.000000)">
                <polyline id="Stroke-1" stroke="#CBD8F2" fill="#FFFFFF" points="2.84217094e-14 127.346641 100.56 26.7266415 201.18 127.346641 100.56 227.966641 2.84217094e-14 127.346641"></polyline>
                <path d="M143.8725,130.445641 C142.7585,130.834641 141.7945,131.029641 140.9815,131.029641 C139.3015,131.029641 137.8865,130.268641 136.7375,128.747641 C135.1635,126.643641 134.3765,123.725641 134.3765,119.994641 C134.3765,117.200641 134.9685,115.096641 136.1535,113.681641 C137.3385,112.266641 138.7175,111.559641 140.2915,111.559641 C141.6535,111.559641 142.8685,112.089641 143.9385,113.150641 C145.0085,114.211641 145.8355,115.737641 146.4185,117.726641 C147.0025,119.715641 147.2945,121.568641 147.2945,123.283641 C147.2945,124.662641 147.1355,126.502641 146.8165,128.800641 C145.9685,129.508641 144.9865,130.056641 143.8725,130.445641 L143.8725,130.445641 Z M131.8825,147.289641 C135.2425,147.289641 138.3465,146.352641 141.1935,144.477641 C144.6945,142.196641 147.4265,139.327641 149.3895,135.869641 C151.3525,132.412641 152.3345,128.686641 152.3345,124.689641 C152.3345,120.251641 151.0435,116.519641 148.4615,113.495641 C146.3565,111.055641 143.8285,109.835641 140.8755,109.835641 C137.3735,109.835641 134.5355,111.329641 132.3605,114.317641 C130.5565,116.776641 129.6545,119.579641 129.6545,122.726641 C129.6545,125.962641 130.5565,128.558641 132.3605,130.511641 C134.1645,132.465641 136.3305,133.442641 138.8595,133.442641 C141.1045,133.442641 143.6155,132.550641 146.3925,130.763641 C145.6675,133.858641 144.3805,136.696641 142.5325,139.278641 C140.6845,141.860641 138.7705,143.668641 136.7905,144.702641 C134.8095,145.737641 132.6695,146.272641 130.3715,146.307641 L130.3715,147.289641 L131.8825,147.289641 Z M107.1085,114.928641 C108.2755,114.380641 109.1855,114.105641 109.8405,114.105641 C110.2995,114.105641 110.6935,114.238641 111.0205,114.503641 C111.3475,114.768641 111.5735,115.184641 111.6975,115.750641 C111.8735,116.493641 111.9625,118.173641 111.9625,120.790641 L111.9625,140.206641 C111.9625,142.364641 111.8645,143.659641 111.6705,144.092641 C111.4755,144.526641 111.1305,144.871641 110.6365,145.127641 C110.1405,145.383641 109.0445,145.529641 107.3465,145.565641 L107.3465,146.546641 L120.8745,146.546641 L120.8745,145.565641 C119.2475,145.529641 118.1695,145.379641 117.6385,145.114641 C117.1085,144.848641 116.7585,144.468641 116.5915,143.973641 C116.4225,143.478641 116.3395,142.222641 116.3395,140.206641 L116.3395,109.835641 L115.4635,109.835641 L106.7105,114.105641 L107.1085,114.928641 Z M81.0335,120.127641 C81.4935,116.979641 82.3595,114.671641 83.6335,113.203641 C84.5705,112.125641 85.6395,111.585641 86.8425,111.585641 C87.8685,111.585641 88.7435,111.877641 89.4685,112.461641 C90.4765,113.310641 91.2985,114.751641 91.9355,116.784641 C92.7845,119.526641 93.2085,122.947641 93.2085,127.050641 C93.2085,132.585641 92.8015,136.873641 91.9885,139.915641 C91.4585,141.931641 90.6795,143.367641 89.6545,144.225641 C88.6285,145.083641 87.6385,145.511641 86.6835,145.511641 C84.6845,145.511641 83.1825,144.194641 82.1745,141.559641 C80.9545,138.429641 80.3435,134.389641 80.3435,129.437641 C80.3435,126.378641 80.5735,123.274641 81.0335,120.127641 L81.0335,120.127641 Z M78.0365,141.108641 C80.3175,145.158641 83.1735,147.183641 86.6035,147.183641 C88.3365,147.183641 90.1355,146.524641 92.0015,145.206641 C93.8675,143.889641 95.4015,141.771641 96.6045,138.854641 C97.8065,135.936641 98.4075,132.390641 98.4075,128.217641 C98.4075,122.258641 97.0375,117.536641 94.2965,114.052641 C92.1035,111.241641 89.6275,109.835641 86.8695,109.835641 C85.1715,109.835641 83.5275,110.410641 81.9355,111.559641 C79.8835,113.009641 78.2395,115.215641 77.0015,118.177641 C75.7635,121.139641 75.1445,124.672641 75.1445,128.774641 C75.1445,133.584641 76.1085,137.696641 78.0365,141.108641 L78.0365,141.108641 Z M69.9455,139.623641 C69.4855,140.419641 68.9465,141.033641 68.3275,141.466641 C67.7085,141.900641 67.0145,142.187641 66.2455,142.328641 C65.4765,142.470641 64.1365,142.541641 62.2265,142.541641 L52.8365,142.541641 C53.9335,141.550641 56.6835,138.650641 61.0865,133.840641 C64.0215,130.640641 66.1435,127.607641 67.4525,124.742641 C68.3015,122.921641 68.7255,121.099641 68.7255,119.278641 C68.7255,116.731641 67.7485,114.521641 65.7945,112.646641 C63.8405,110.772641 61.4045,109.835641 58.4865,109.835641 C55.7455,109.835641 53.4605,110.710641 51.6305,112.461641 C49.7995,114.211641 48.6635,116.723641 48.2215,119.994641 L49.2035,119.994641 C49.8745,117.996641 50.9135,116.479641 52.3195,115.445641 C53.7255,114.410641 55.3125,113.893641 57.0815,113.893641 C59.0265,113.893641 60.6975,114.627641 62.0945,116.095641 C63.4915,117.563641 64.1895,119.437641 64.1895,121.718641 C64.1895,124.707641 62.9165,128.005641 60.3705,131.612641 C57.8235,135.220641 53.4295,139.871641 47.1875,145.565641 L47.1875,146.546641 L68.4075,146.546641 L70.9275,139.623641 L69.9455,139.623641 Z" id="Fill-3" fill="#CBD8F2"></path>
                <g id="Group-2" transform="translate(107.507882, 0.000000)">
                    <path d="M51.223417,39 L51.223417,37.572 L52.0244577,36.8171994 C52.4106969,36.4500002 52.7755153,36.0981017 53.118917,35.7615 C53.6912532,35.2004972 54.1842483,34.6735025 54.597917,34.1805 C55.0115857,33.6874975 55.3345825,33.2285021 55.566917,32.8035 C55.7992515,32.3784979 55.915417,31.9733353 55.915417,31.588 C55.915417,31.0553307 55.7794184,30.6501681 55.507417,30.3725 C55.2354156,30.0948319 54.8614194,29.956 54.385417,29.956 C53.9887483,29.956 53.6374185,30.0664989 53.331417,30.2875 C53.0254155,30.5085011 52.7364184,30.7663319 52.464417,31.061 L51.104417,29.718 C51.6370863,29.1513305 52.1810809,28.7235014 52.736417,28.4345 C53.2917531,28.1454986 53.9547465,28.001 54.725417,28.001 C55.2580863,28.001 55.7425815,28.0831658 56.178917,28.2475 C56.6152525,28.4118342 56.9920821,28.6441652 57.309417,28.9445 C57.6267519,29.2448348 57.8704161,29.6046646 58.040417,30.024 C58.2104178,30.4433354 58.295417,30.9136641 58.295417,31.435 C58.295417,31.8883356 58.1990846,32.3501643 58.006417,32.8205 C57.8137494,33.2908357 57.5559186,33.7611643 57.232917,34.2315 C56.9099154,34.7018357 56.5415857,35.1721643 56.127917,35.6425 C55.7142483,36.1128357 55.2864192,36.5746644 54.844417,37.028 L55.2757919,36.979125 C55.4273748,36.9635417 55.5867495,36.9486667 55.753917,36.9345 C56.088252,36.9061665 56.385749,36.892 56.646417,36.892 L58.822417,36.892 L58.822417,39 L51.223417,39 Z M63.854417,33.186 C64.1377517,33.186 64.4239156,33.1038342 64.712917,32.9395 C65.0019184,32.7751658 65.2540826,32.5003353 65.469417,32.115 C65.3560831,31.2649957 65.1435852,30.6785016 64.831917,30.3555 C64.5202488,30.0324984 64.1717523,29.871 63.786417,29.871 C63.4237485,29.871 63.1064184,30.0098319 62.834417,30.2875 C62.5624156,30.5651681 62.426417,31.0099969 62.426417,31.622 C62.426417,32.2000029 62.5624156,32.6051655 62.834417,32.8375 C63.1064184,33.0698345 63.446415,33.186 63.854417,33.186 Z M63.463417,39.204 C62.7494134,39.204 62.1289196,39.073668 61.601917,38.813 C61.0749144,38.552332 60.6414187,38.2520017 60.301417,37.912 L61.627417,36.416 C61.8087512,36.620001 62.0524155,36.7984992 62.358417,36.9515 C62.6644185,37.1045008 62.9760821,37.181 63.293417,37.181 C63.5994185,37.181 63.882749,37.1243339 64.143417,37.011 C64.404085,36.8976661 64.6335827,36.7078347 64.831917,36.4415 C65.0302513,36.1751653 65.1889164,35.8295021 65.307917,35.4045 C65.4269176,34.9794979 65.4977502,34.4496698 65.520417,33.815 C65.3844163,33.9963342 65.2257512,34.1578326 65.044417,34.2995 C64.8630828,34.4411674 64.6760846,34.5601662 64.483417,34.6565 C64.2907494,34.7528338 64.0980846,34.8264997 63.905417,34.8775 C63.7127494,34.9285003 63.5314178,34.954 63.361417,34.954 C62.896748,34.954 62.468919,34.8860007 62.077917,34.75 C61.686915,34.6139993 61.3497517,34.4100014 61.066417,34.138 C60.7830822,33.8659986 60.5592512,33.5203354 60.394917,33.101 C60.2305828,32.6816646 60.148417,32.1886695 60.148417,31.622 C60.148417,31.0666639 60.2447494,30.5651689 60.437417,30.1175 C60.6300846,29.6698311 60.8879154,29.2873349 61.210917,28.97 C61.5339186,28.6526651 61.9135815,28.4118342 62.349917,28.2475 C62.7862525,28.0831658 63.2480812,28.001 63.735417,28.001 C64.2567529,28.001 64.7639145,28.102999 65.256917,28.307 C65.7499195,28.511001 66.1862484,28.8283312 66.565917,29.259 C66.9455856,29.6896688 67.2515825,30.2421633 67.483917,30.9165 C67.7162515,31.5908367 67.832417,32.4039952 67.832417,33.356 C67.832417,34.3646717 67.7105849,35.2373296 67.466917,35.974 C67.2232491,36.7106704 66.9002523,37.3169976 66.497917,37.793 C66.0955817,38.2690024 65.6309196,38.6231655 65.103917,38.8555 C64.5769144,39.0878345 64.0300865,39.204 63.463417,39.204 Z M73.034417,39.204 C72.4564141,39.204 71.9294194,39.0821679 71.453417,38.8385 C70.9774146,38.5948321 70.572252,38.2350024 70.237917,37.759 C69.903582,37.2829976 69.6429179,36.6936702 69.455917,35.991 C69.2689161,35.2883298 69.175417,34.4780046 69.175417,33.56 C69.175417,32.6419954 69.2689161,31.8373368 69.455917,31.146 C69.6429179,30.4546632 69.903582,29.8738357 70.237917,29.4035 C70.572252,28.9331643 70.9774146,28.5818345 71.453417,28.3495 C71.9294194,28.1171655 72.4564141,28.001 73.034417,28.001 C73.6124199,28.001 74.1394146,28.1171655 74.615417,28.3495 C75.0914194,28.5818345 75.496582,28.9331643 75.830917,29.4035 C76.165252,29.8738357 76.4259161,30.4546632 76.612917,31.146 C76.7999179,31.8373368 76.893417,32.6419954 76.893417,33.56 C76.893417,34.4780046 76.7999179,35.2883298 76.612917,35.991 C76.4259161,36.6936702 76.165252,37.2829976 75.830917,37.759 C75.496582,38.2350024 75.0914194,38.5948321 74.615417,38.8385 C74.1394146,39.0821679 73.6124199,39.204 73.034417,39.204 Z M73.034417,37.266 C73.2497514,37.266 73.4480828,37.2121672 73.629417,37.1045 C73.8107512,36.9968328 73.9694163,36.8013347 74.105417,36.518 C74.2414177,36.2346652 74.34625,35.8550024 74.419917,35.379 C74.493584,34.9029976 74.530417,34.2966703 74.530417,33.56 C74.530417,32.8233296 74.493584,32.2198357 74.419917,31.7495 C74.34625,31.2791643 74.2414177,30.9108347 74.105417,30.6445 C73.9694163,30.3781653 73.8107512,30.1940005 73.629417,30.092 C73.4480828,29.9899995 73.2497514,29.939 73.034417,29.939 C72.830416,29.939 72.6377512,29.9899995 72.456417,30.092 C72.2750828,30.1940005 72.1164177,30.3781653 71.980417,30.6445 C71.8444163,30.9108347 71.7367507,31.2791643 71.657417,31.7495 C71.5780833,32.2198357 71.538417,32.8233296 71.538417,33.56 C71.538417,34.2966703 71.5780833,34.9029976 71.657417,35.379 C71.7367507,35.8550024 71.8444163,36.2346652 71.980417,36.518 C72.1164177,36.8013347 72.2750828,36.9968328 72.456417,37.1045 C72.6377512,37.2121672 72.830416,37.266 73.034417,37.266 Z M78.627417,39 L78.627417,30.568 L80.667417,30.568 L80.837417,31.656 L80.905417,31.656 C81.2567521,31.3046649 81.6307483,31.0015013 82.027417,30.7465 C82.4240856,30.4914987 82.9000809,30.364 83.455417,30.364 C84.0560867,30.364 84.5405818,30.4858321 84.908917,30.7295 C85.2772522,30.9731679 85.5690826,31.3216644 85.784417,31.775 C86.1584189,31.3896647 86.5522483,31.0581681 86.965917,30.7805 C87.3795857,30.5028319 87.8697475,30.364 88.436417,30.364 C89.3430882,30.364 90.0089149,30.6671636 90.433917,31.2735 C90.8589191,31.8798364 91.071417,32.7099947 91.071417,33.764 L91.071417,39 L88.572417,39 L88.572417,34.087 C88.572417,33.4749969 88.4902512,33.0556678 88.325917,32.829 C88.1615828,32.6023322 87.8980855,32.489 87.535417,32.489 C87.1160816,32.489 86.6344197,32.7609973 86.090417,33.305 L86.090417,39 L83.591417,39 L83.591417,34.087 C83.591417,33.4749969 83.5092512,33.0556678 83.344917,32.829 C83.1805828,32.6023322 82.9170855,32.489 82.554417,32.489 C82.1237482,32.489 81.6477529,32.7609973 81.126417,33.305 L81.126417,39 L78.627417,39 Z M93.196417,39 L93.196417,30.568 L95.236417,30.568 L95.406417,31.656 L95.474417,31.656 C95.8257521,31.3046649 96.1997483,31.0015013 96.596417,30.7465 C96.9930856,30.4914987 97.4690809,30.364 98.024417,30.364 C98.6250867,30.364 99.1095818,30.4858321 99.477917,30.7295 C99.8462522,30.9731679 100.138083,31.3216644 100.353417,31.775 C100.727419,31.3896647 101.121248,31.0581681 101.534917,30.7805 C101.948586,30.5028319 102.438747,30.364 103.005417,30.364 C103.912088,30.364 104.577915,30.6671636 105.002917,31.2735 C105.427919,31.8798364 105.640417,32.7099947 105.640417,33.764 L105.640417,39 L103.141417,39 L103.141417,34.087 C103.141417,33.4749969 103.059251,33.0556678 102.894917,32.829 C102.730583,32.6023322 102.467085,32.489 102.104417,32.489 C101.685082,32.489 101.20342,32.7609973 100.659417,33.305 L100.659417,39 L98.160417,39 L98.160417,34.087 C98.160417,33.4749969 98.0782512,33.0556678 97.913917,32.829 C97.7495828,32.6023322 97.4860855,32.489 97.123417,32.489 C96.6927482,32.489 96.2167529,32.7609973 95.695417,33.305 L95.695417,39 L93.196417,39 Z" id="290mm" fill="#093169" fill-rule="nonzero" transform="translate(78.372417, 33.602500) rotate(-315.000000) translate(-78.372417, -33.602500) "></path>
                    <polyline id="Rectangle-Copy-3" stroke="#CBD8F2" transform="translate(56.000000, 56.334524) rotate(-315.000000) translate(-56.000000, -56.334524) " points="-14.7633333 63.8345238 -15 48.8345238 127 48.8345238 127 63.8345238"></polyline>
                </g>
                <g id="Group-3" transform="translate(107.507882, 141.834524)">
                    <path d="M51.9305238,85.127417 L51.9305238,83.699417 L52.7315644,82.9446164 C53.1178036,82.5774172 53.4826221,82.2255187 53.8260238,81.888917 C54.39836,81.3279142 54.891355,80.8009195 55.3050238,80.307917 C55.7186925,79.8149145 56.0416893,79.3559191 56.2740238,78.930917 C56.5063583,78.5059149 56.6225238,78.1007523 56.6225238,77.715417 C56.6225238,77.1827477 56.4865251,76.7775851 56.2145238,76.499917 C55.9425224,76.2222489 55.5685262,76.083417 55.0925238,76.083417 C54.6958551,76.083417 54.3445253,76.1939159 54.0385238,76.414917 C53.7325222,76.6359181 53.4435251,76.8937489 53.1715238,77.188417 L51.8115238,75.845417 C52.3441931,75.2787475 52.8881877,74.8509184 53.4435238,74.561917 C53.9988599,74.2729156 54.6618533,74.128417 55.4325238,74.128417 C55.9651931,74.128417 56.4496883,74.2105828 56.8860238,74.374917 C57.3223593,74.5392512 57.6991889,74.7715822 58.0165238,75.071917 C58.3338587,75.3722518 58.5775229,75.7320816 58.7475238,76.151417 C58.9175246,76.5707524 59.0025238,77.0410811 59.0025238,77.562417 C59.0025238,78.0157526 58.9061914,78.4775813 58.7135238,78.947917 C58.5208561,79.4182527 58.2630254,79.8885813 57.9400238,80.358917 C57.6170222,80.8292527 57.2486925,81.2995813 56.8350238,81.769917 C56.421355,82.2402527 55.993526,82.7020814 55.5515238,83.155417 L55.9828987,83.106542 C56.1344816,83.0909587 56.2938563,83.0760837 56.4610238,83.061917 C56.7953588,83.0335835 57.0928558,83.019417 57.3535238,83.019417 L59.5295238,83.019417 L59.5295238,85.127417 L51.9305238,85.127417 Z M64.5615238,79.313417 C64.8448585,79.313417 65.1310223,79.2312512 65.4200238,79.066917 C65.7090252,78.9025828 65.9611894,78.6277523 66.1765238,78.242417 C66.0631899,77.3924127 65.850692,76.8059186 65.5390238,76.482917 C65.2273556,76.1599154 64.878859,75.998417 64.4935238,75.998417 C64.1308553,75.998417 63.8135251,76.1372489 63.5415238,76.414917 C63.2695224,76.6925851 63.1335238,77.1374139 63.1335238,77.749417 C63.1335238,78.3274199 63.2695224,78.7325825 63.5415238,78.964917 C63.8135251,79.1972515 64.1535217,79.313417 64.5615238,79.313417 Z M64.1705238,85.331417 C63.4565202,85.331417 62.8360264,85.201085 62.3090238,84.940417 C61.7820211,84.679749 61.3485255,84.3794187 61.0085238,84.039417 L62.3345238,82.543417 C62.515858,82.747418 62.7595222,82.9259162 63.0655238,83.078917 C63.3715253,83.2319178 63.6831889,83.308417 64.0005238,83.308417 C64.3065253,83.308417 64.5898558,83.2517509 64.8505238,83.138417 C65.1111917,83.0250831 65.3406895,82.8352517 65.5390238,82.568917 C65.7373581,82.3025823 65.8960232,81.9569191 66.0150238,81.531917 C66.1340244,81.1069149 66.204857,80.5770868 66.2275238,79.942417 C66.0915231,80.1237512 65.932858,80.2852496 65.7515238,80.426917 C65.5701895,80.5685844 65.3831914,80.6875832 65.1905238,80.783917 C64.9978561,80.8802508 64.8051914,80.9539167 64.6125238,81.004917 C64.4198561,81.0559173 64.2385246,81.081417 64.0685238,81.081417 C63.6038548,81.081417 63.1760257,81.0134177 62.7850238,80.877417 C62.3940218,80.7414163 62.0568585,80.5374184 61.7735238,80.265417 C61.490189,79.9934156 61.2663579,79.6477524 61.1020238,79.228417 C60.9376896,78.8090816 60.8555238,78.3160865 60.8555238,77.749417 C60.8555238,77.1940809 60.9518561,76.6925859 61.1445238,76.244917 C61.3371914,75.7972481 61.5950222,75.4147519 61.9180238,75.097417 C62.2410254,74.7800821 62.6206883,74.5392512 63.0570238,74.374917 C63.4933593,74.2105828 63.955188,74.128417 64.4425238,74.128417 C64.9638597,74.128417 65.4710213,74.230416 65.9640238,74.434417 C66.4570262,74.638418 66.8933552,74.9557482 67.2730238,75.386417 C67.6526923,75.8170858 67.9586893,76.3695803 68.1910238,77.043917 C68.4233583,77.7182537 68.5395238,78.5314122 68.5395238,79.483417 C68.5395238,80.4920887 68.4176917,81.3647466 68.1740238,82.101417 C67.9303559,82.8380873 67.6073591,83.4444146 67.2050238,83.920417 C66.8026884,84.3964194 66.3380264,84.7505825 65.8110238,84.982917 C65.2840211,85.2152515 64.7371933,85.331417 64.1705238,85.331417 Z M73.7415238,85.331417 C73.1635209,85.331417 72.6365262,85.2095849 72.1605238,84.965917 C71.6845214,84.7222491 71.2793588,84.3624194 70.9450238,83.886417 C70.6106888,83.4104146 70.3500247,82.8210872 70.1630238,82.118417 C69.9760228,81.4157468 69.8825238,80.6054216 69.8825238,79.687417 C69.8825238,78.7694124 69.9760228,77.9647538 70.1630238,77.273417 C70.3500247,76.5820802 70.6106888,76.0012527 70.9450238,75.530917 C71.2793588,75.0605813 71.6845214,74.7092515 72.1605238,74.476917 C72.6365262,74.2445825 73.1635209,74.128417 73.7415238,74.128417 C74.3195267,74.128417 74.8465214,74.2445825 75.3225238,74.476917 C75.7985262,74.7092515 76.2036888,75.0605813 76.5380238,75.530917 C76.8723588,76.0012527 77.1330228,76.5820802 77.3200238,77.273417 C77.5070247,77.9647538 77.6005238,78.7694124 77.6005238,79.687417 C77.6005238,80.6054216 77.5070247,81.4157468 77.3200238,82.118417 C77.1330228,82.8210872 76.8723588,83.4104146 76.5380238,83.886417 C76.2036888,84.3624194 75.7985262,84.7222491 75.3225238,84.965917 C74.8465214,85.2095849 74.3195267,85.331417 73.7415238,85.331417 Z M73.7415238,83.393417 C73.9568582,83.393417 74.1551895,83.3395842 74.3365238,83.231917 C74.517858,83.1242498 74.6765231,82.9287517 74.8125238,82.645417 C74.9485245,82.3620822 75.0533567,81.9824194 75.1270238,81.506417 C75.2006908,81.0304146 75.2375238,80.4240873 75.2375238,79.687417 C75.2375238,78.9507466 75.2006908,78.3472527 75.1270238,77.876917 C75.0533567,77.4065813 74.9485245,77.0382517 74.8125238,76.771917 C74.6765231,76.5055823 74.517858,76.3214175 74.3365238,76.219417 C74.1551895,76.1174165 73.9568582,76.066417 73.7415238,76.066417 C73.5375228,76.066417 73.344858,76.1174165 73.1635238,76.219417 C72.9821895,76.3214175 72.8235245,76.5055823 72.6875238,76.771917 C72.5515231,77.0382517 72.4438575,77.4065813 72.3645238,77.876917 C72.28519,78.3472527 72.2455238,78.9507466 72.2455238,79.687417 C72.2455238,80.4240873 72.28519,81.0304146 72.3645238,81.506417 C72.4438575,81.9824194 72.5515231,82.3620822 72.6875238,82.645417 C72.8235245,82.9287517 72.9821895,83.1242498 73.1635238,83.231917 C73.344858,83.3395842 73.5375228,83.393417 73.7415238,83.393417 Z M79.3345238,85.127417 L79.3345238,76.695417 L81.3745238,76.695417 L81.5445238,77.783417 L81.6125238,77.783417 C81.9638589,77.4320819 82.3378551,77.1289183 82.7345238,76.873917 C83.1311924,76.6189157 83.6071877,76.491417 84.1625238,76.491417 C84.7631934,76.491417 85.2476886,76.6132491 85.6160238,76.856917 C85.984359,77.1005849 86.2761894,77.4490814 86.4915238,77.902417 C86.8655256,77.5170817 87.259355,77.1855851 87.6730238,76.907917 C88.0866925,76.6302489 88.5768543,76.491417 89.1435238,76.491417 C90.050195,76.491417 90.7160217,76.7945806 91.1410238,77.400917 C91.5660259,78.0072534 91.7785238,78.8374117 91.7785238,79.891417 L91.7785238,85.127417 L89.2795238,85.127417 L89.2795238,80.214417 C89.2795238,79.6024139 89.1973579,79.1830848 89.0330238,78.956417 C88.8686896,78.7297492 88.6051923,78.616417 88.2425238,78.616417 C87.8231883,78.616417 87.3415265,78.8884143 86.7975238,79.432417 L86.7975238,85.127417 L84.2985238,85.127417 L84.2985238,80.214417 C84.2985238,79.6024139 84.2163579,79.1830848 84.0520238,78.956417 C83.8876896,78.7297492 83.6241923,78.616417 83.2615238,78.616417 C82.830855,78.616417 82.3548597,78.8884143 81.8335238,79.432417 L81.8335238,85.127417 L79.3345238,85.127417 Z M93.9035238,85.127417 L93.9035238,76.695417 L95.9435238,76.695417 L96.1135238,77.783417 L96.1815238,77.783417 C96.5328589,77.4320819 96.9068551,77.1289183 97.3035238,76.873917 C97.7001924,76.6189157 98.1761877,76.491417 98.7315238,76.491417 C99.3321934,76.491417 99.8166886,76.6132491 100.185024,76.856917 C100.553359,77.1005849 100.845189,77.4490814 101.060524,77.902417 C101.434526,77.5170817 101.828355,77.1855851 102.242024,76.907917 C102.655693,76.6302489 103.145854,76.491417 103.712524,76.491417 C104.619195,76.491417 105.285022,76.7945806 105.710024,77.400917 C106.135026,78.0072534 106.347524,78.8374117 106.347524,79.891417 L106.347524,85.127417 L103.848524,85.127417 L103.848524,80.214417 C103.848524,79.6024139 103.766358,79.1830848 103.602024,78.956417 C103.43769,78.7297492 103.174192,78.616417 102.811524,78.616417 C102.392188,78.616417 101.910526,78.8884143 101.366524,79.432417 L101.366524,85.127417 L98.8675238,85.127417 L98.8675238,80.214417 C98.8675238,79.6024139 98.7853579,79.1830848 98.6210238,78.956417 C98.4566896,78.7297492 98.1931923,78.616417 97.8305238,78.616417 C97.399855,78.616417 96.9238597,78.8884143 96.4025238,79.432417 L96.4025238,85.127417 L93.9035238,85.127417 Z" id="290mm" fill="#093169" fill-rule="nonzero" transform="translate(79.079524, 79.729917) rotate(-45.000000) translate(-79.079524, -79.729917) "></path>
                    <polyline id="Rectangle-Copy-5" stroke="#CBD8F2" transform="translate(56.000000, 56.500000) rotate(-225.000000) translate(-56.000000, -56.500000) " points="-14.7633333 64 -15 49 127 49 127 64"></polyline>
                </g>
            </g>
            <g id="Group-4" transform="translate(296.000000, 0.000000)">
                <rect id="Rectangle" stroke="#CBD8F2" fill="#FFFFFF" x="4.1" y="67" width="49" height="202"></rect>
                <path d="M4.1,168.5 L53.12,168.5" id="Path" stroke="#CBD8F2" fill="#FFFFFF"></path>
                <path d="M97.465,174 L97.465,171.416 L92.79,171.416 L92.79,169.699 L96.734,163.205 L99.794,163.205 L99.794,169.512 L101.035,169.512 L101.035,171.416 L99.794,171.416 L99.794,174 L97.465,174 Z M95.187,169.512 L97.465,169.512 L97.465,167.761 C97.465,167.479932 97.4722533,167.164414 97.48676,166.814441 L97.5398,165.78356 C97.5488666,165.62852 97.5579333,165.483001 97.567,165.347 L97.499,165.347 L97.074,166.248 L97.074,166.248 C96.9266659,166.554002 96.7736675,166.859998 96.615,167.166 L95.187,169.512 Z M102.633,174 L102.633,171.977 L104.979,171.977 L104.979,165.738 L102.956,165.738 L102.956,164.191 C103.545336,164.077666 104.043998,163.941667 104.452,163.783 C104.860002,163.624333 105.256665,163.431668 105.642,163.205 L107.478,163.205 L107.478,171.977 L109.501,171.977 L109.501,174 L102.633,174 Z M114.907,174.204 C114.328997,174.204 113.802002,174.082168 113.326,173.8385 C112.849998,173.594832 112.444835,173.235002 112.1105,172.759 C111.776165,172.282998 111.515501,171.69367 111.3285,170.991 C111.141499,170.28833 111.048,169.478005 111.048,168.56 C111.048,167.641995 111.141499,166.837337 111.3285,166.146 C111.515501,165.454663 111.776165,164.873836 112.1105,164.4035 C112.444835,163.933164 112.849998,163.581834 113.326,163.3495 C113.802002,163.117166 114.328997,163.001 114.907,163.001 C115.485003,163.001 116.011998,163.117166 116.488,163.3495 C116.964002,163.581834 117.369165,163.933164 117.7035,164.4035 C118.037835,164.873836 118.298499,165.454663 118.4855,166.146 C118.672501,166.837337 118.766,167.641995 118.766,168.56 C118.766,169.478005 118.672501,170.28833 118.4855,170.991 C118.298499,171.69367 118.037835,172.282998 117.7035,172.759 C117.369165,173.235002 116.964002,173.594832 116.488,173.8385 C116.011998,174.082168 115.485003,174.204 114.907,174.204 Z M114.907,172.266 C115.122334,172.266 115.320666,172.212167 115.502,172.1045 C115.683334,171.996833 115.841999,171.801335 115.978,171.518 C116.114001,171.234665 116.218833,170.855002 116.2925,170.379 C116.366167,169.902998 116.403,169.29667 116.403,168.56 C116.403,167.82333 116.366167,167.219836 116.2925,166.7495 C116.218833,166.279164 116.114001,165.910835 115.978,165.6445 C115.841999,165.378165 115.683334,165.194001 115.502,165.092 C115.320666,164.989999 115.122334,164.939 114.907,164.939 C114.702999,164.939 114.510334,164.989999 114.329,165.092 C114.147666,165.194001 113.989001,165.378165 113.853,165.6445 C113.716999,165.910835 113.609334,166.279164 113.53,166.7495 C113.450666,167.219836 113.411,167.82333 113.411,168.56 C113.411,169.29667 113.450666,169.902998 113.53,170.379 C113.609334,170.855002 113.716999,171.234665 113.853,171.518 C113.989001,171.801335 114.147666,171.996833 114.329,172.1045 C114.510334,172.212167 114.702999,172.266 114.907,172.266 Z M120.5,174 L120.5,165.568 L122.54,165.568 L122.71,166.656 L122.778,166.656 C123.129335,166.304665 123.503331,166.001501 123.9,165.7465 C124.296669,165.491499 124.772664,165.364 125.328,165.364 C125.92867,165.364 126.413165,165.485832 126.7815,165.7295 C127.149835,165.973168 127.441666,166.321664 127.657,166.775 C128.031002,166.389665 128.424831,166.058168 128.8385,165.7805 C129.252169,165.502832 129.742331,165.364 130.309,165.364 C131.215671,165.364 131.881498,165.667164 132.3065,166.2735 C132.731502,166.879836 132.944,167.709995 132.944,168.764 L132.944,174 L130.445,174 L130.445,169.087 C130.445,168.474997 130.362834,168.055668 130.1985,167.829 C130.034166,167.602332 129.770668,167.489 129.408,167.489 C128.988665,167.489 128.507003,167.760997 127.963,168.305 L127.963,174 L125.464,174 L125.464,169.087 C125.464,168.474997 125.381834,168.055668 125.2175,167.829 C125.053166,167.602332 124.789668,167.489 124.427,167.489 C123.996331,167.489 123.520336,167.760997 122.999,168.305 L122.999,174 L120.5,174 Z M135.069,174 L135.069,165.568 L137.109,165.568 L137.279,166.656 L137.347,166.656 C137.698335,166.304665 138.072331,166.001501 138.469,165.7465 C138.865669,165.491499 139.341664,165.364 139.897,165.364 C140.49767,165.364 140.982165,165.485832 141.3505,165.7295 C141.718835,165.973168 142.010666,166.321664 142.226,166.775 C142.600002,166.389665 142.993831,166.058168 143.4075,165.7805 C143.821169,165.502832 144.31133,165.364 144.878,165.364 C145.784671,165.364 146.450498,165.667164 146.8755,166.2735 C147.300502,166.879836 147.513,167.709995 147.513,168.764 L147.513,174 L145.014,174 L145.014,169.087 C145.014,168.474997 144.931834,168.055668 144.7675,167.829 C144.603166,167.602332 144.339668,167.489 143.977,167.489 C143.557665,167.489 143.076003,167.760997 142.532,168.305 L142.532,174 L140.033,174 L140.033,169.087 C140.033,168.474997 139.950834,168.055668 139.7865,167.829 C139.622166,167.602332 139.358668,167.489 138.996,167.489 C138.565331,167.489 138.089336,167.760997 137.568,168.305 L137.568,174 L135.069,174 Z" id="410mm" fill="#093169" fill-rule="nonzero" transform="translate(120.151500, 168.602500) rotate(-270.000000) translate(-120.151500, -168.602500) "></path>
                <polyline id="Rectangle-Copy-4" stroke="#CBD8F2" transform="translate(76.500000, 168.500000) rotate(-270.000000) translate(-76.500000, -168.500000) " points="-24.6616667 176 -25 161 178 161 178 176"></polyline>
                <path d="M1.657,17 L1.657,14.977 L4.003,14.977 L4.003,8.738 L1.98,8.738 L1.98,7.191 C2.56933628,7.0776661 3.06799796,6.94166746 3.476,6.783 C3.88400204,6.62433254 4.28066474,6.4316678 4.666,6.205 L6.502,6.205 L6.502,14.977 L8.525,14.977 L8.525,17 L1.657,17 Z M13.931,17.204 C13.3529971,17.204 12.8260024,17.0821679 12.35,16.8385 C11.8739976,16.5948321 11.468835,16.2350024 11.1345,15.759 C10.800165,15.2829976 10.5395009,14.6936702 10.3525,13.991 C10.1654991,13.2883298 10.072,12.4780046 10.072,11.56 C10.072,10.6419954 10.1654991,9.83733679 10.3525,9.146 C10.5395009,8.45466321 10.800165,7.87383568 11.1345,7.4035 C11.468835,6.93316431 11.8739976,6.58183449 12.35,6.3495 C12.8260024,6.1171655 13.3529971,6.001 13.931,6.001 C14.5090029,6.001 15.0359976,6.1171655 15.512,6.3495 C15.9880024,6.58183449 16.393165,6.93316431 16.7275,7.4035 C17.061835,7.87383568 17.3224991,8.45466321 17.5095,9.146 C17.6965009,9.83733679 17.79,10.6419954 17.79,11.56 C17.79,12.4780046 17.6965009,13.2883298 17.5095,13.991 C17.3224991,14.6936702 17.061835,15.2829976 16.7275,15.759 C16.393165,16.2350024 15.9880024,16.5948321 15.512,16.8385 C15.0359976,17.0821679 14.5090029,17.204 13.931,17.204 Z M13.931,15.266 C14.1463344,15.266 14.3446658,15.2121672 14.526,15.1045 C14.7073342,14.9968328 14.8659993,14.8013347 15.002,14.518 C15.1380007,14.2346652 15.242833,13.8550024 15.3165,13.379 C15.390167,12.9029976 15.427,12.2966703 15.427,11.56 C15.427,10.8233296 15.390167,10.2198357 15.3165,9.7495 C15.242833,9.27916431 15.1380007,8.91083466 15.002,8.6445 C14.8659993,8.37816533 14.7073342,8.19400051 14.526,8.092 C14.3446658,7.98999949 14.1463344,7.939 13.931,7.939 C13.726999,7.939 13.5343342,7.98999949 13.353,8.092 C13.1716658,8.19400051 13.0130007,8.37816533 12.877,8.6445 C12.7409993,8.91083466 12.6333337,9.27916431 12.554,9.7495 C12.4746663,10.2198357 12.435,10.8233296 12.435,11.56 C12.435,12.2966703 12.4746663,12.9029976 12.554,13.379 C12.6333337,13.8550024 12.7409993,14.2346652 12.877,14.518 C13.0130007,14.8013347 13.1716658,14.9968328 13.353,15.1045 C13.5343342,15.2121672 13.726999,15.266 13.931,15.266 Z M22.907,17.204 C22.3289971,17.204 21.8020024,17.0821679 21.326,16.8385 C20.8499976,16.5948321 20.444835,16.2350024 20.1105,15.759 C19.776165,15.2829976 19.5155009,14.6936702 19.3285,13.991 C19.1414991,13.2883298 19.048,12.4780046 19.048,11.56 C19.048,10.6419954 19.1414991,9.83733679 19.3285,9.146 C19.5155009,8.45466321 19.776165,7.87383568 20.1105,7.4035 C20.444835,6.93316431 20.8499976,6.58183449 21.326,6.3495 C21.8020024,6.1171655 22.3289971,6.001 22.907,6.001 C23.4850029,6.001 24.0119976,6.1171655 24.488,6.3495 C24.9640024,6.58183449 25.369165,6.93316431 25.7035,7.4035 C26.037835,7.87383568 26.2984991,8.45466321 26.4855,9.146 C26.6725009,9.83733679 26.766,10.6419954 26.766,11.56 C26.766,12.4780046 26.6725009,13.2883298 26.4855,13.991 C26.2984991,14.6936702 26.037835,15.2829976 25.7035,15.759 C25.369165,16.2350024 24.9640024,16.5948321 24.488,16.8385 C24.0119976,17.0821679 23.4850029,17.204 22.907,17.204 Z M22.907,15.266 C23.1223344,15.266 23.3206658,15.2121672 23.502,15.1045 C23.6833342,14.9968328 23.8419993,14.8013347 23.978,14.518 C24.1140007,14.2346652 24.218833,13.8550024 24.2925,13.379 C24.366167,12.9029976 24.403,12.2966703 24.403,11.56 C24.403,10.8233296 24.366167,10.2198357 24.2925,9.7495 C24.218833,9.27916431 24.1140007,8.91083466 23.978,8.6445 C23.8419993,8.37816533 23.6833342,8.19400051 23.502,8.092 C23.3206658,7.98999949 23.1223344,7.939 22.907,7.939 C22.702999,7.939 22.5103342,7.98999949 22.329,8.092 C22.1476658,8.19400051 21.9890007,8.37816533 21.853,8.6445 C21.7169993,8.91083466 21.6093337,9.27916431 21.53,9.7495 C21.4506663,10.2198357 21.411,10.8233296 21.411,11.56 C21.411,12.2966703 21.4506663,12.9029976 21.53,13.379 C21.6093337,13.8550024 21.7169993,14.2346652 21.853,14.518 C21.9890007,14.8013347 22.1476658,14.9968328 22.329,15.1045 C22.5103342,15.2121672 22.702999,15.266 22.907,15.266 Z M28.5,17 L28.5,8.568 L30.54,8.568 L30.71,9.656 L30.778,9.656 C31.1293351,9.30466491 31.5033314,9.00150127 31.9,8.7465 C32.2966687,8.49149872 32.7726639,8.364 33.328,8.364 C33.9286697,8.364 34.4131648,8.48583211 34.7815,8.7295 C35.1498352,8.97316788 35.4416656,9.3216644 35.657,9.775 C36.0310019,9.38966474 36.4248313,9.05816805 36.8385,8.7805 C37.2521687,8.50283194 37.7423305,8.364 38.309,8.364 C39.2156712,8.364 39.8814979,8.66716363 40.3065,9.2735 C40.7315021,9.87983636 40.944,10.7099947 40.944,11.764 L40.944,17 L38.445,17 L38.445,12.087 C38.445,11.4749969 38.3628342,11.0556678 38.1985,10.829 C38.0341658,10.6023322 37.7706685,10.489 37.408,10.489 C36.9886646,10.489 36.5070027,10.7609973 35.963,11.305 L35.963,17 L33.464,17 L33.464,12.087 C33.464,11.4749969 33.3818342,11.0556678 33.2175,10.829 C33.0531658,10.6023322 32.7896685,10.489 32.427,10.489 C31.9963312,10.489 31.5203359,10.7609973 30.999,11.305 L30.999,17 L28.5,17 Z M43.069,17 L43.069,8.568 L45.109,8.568 L45.279,9.656 L45.347,9.656 C45.6983351,9.30466491 46.0723314,9.00150127 46.469,8.7465 C46.8656687,8.49149872 47.3416639,8.364 47.897,8.364 C48.4976697,8.364 48.9821648,8.48583211 49.3505,8.7295 C49.7188352,8.97316788 50.0106656,9.3216644 50.226,9.775 C50.6000019,9.38966474 50.9938313,9.05816805 51.4075,8.7805 C51.8211687,8.50283194 52.3113305,8.364 52.878,8.364 C53.7846712,8.364 54.4504979,8.66716363 54.8755,9.2735 C55.3005021,9.87983636 55.513,10.7099947 55.513,11.764 L55.513,17 L53.014,17 L53.014,12.087 C53.014,11.4749969 52.9318342,11.0556678 52.7675,10.829 C52.6031658,10.6023322 52.3396685,10.489 51.977,10.489 C51.5576646,10.489 51.0760027,10.7609973 50.532,11.305 L50.532,17 L48.033,17 L48.033,12.087 C48.033,11.4749969 47.9508342,11.0556678 47.7865,10.829 C47.6221658,10.6023322 47.3586685,10.489 46.996,10.489 C46.5653312,10.489 46.0893359,10.7609973 45.568,11.305 L45.568,17 L43.069,17 Z" id="100mm" fill="#093169" fill-rule="nonzero"></path>
                <polyline id="Rectangle-Copy-2" stroke="#CBD8F2" points="4.08166667 52 4 37 53 37 53 52"></polyline>
            </g>
        </g>
    </g>
</svg>