<?xml version="1.0" encoding="UTF-8"?>
<svg width="600px" height="352px" viewBox="0 0 600 352" version="1.1" xmlns="http://www.w3.org/2000/svg" xmlns:xlink="http://www.w3.org/1999/xlink">
    <!-- Generator: Sketch 58 (84663) - https://sketch.com -->
    <title>architecturalPieces/P300</title>
    <desc>Created with Sketch.</desc>
    <g id="architecturalPieces/P300" stroke="none" stroke-width="1" fill="none" fill-rule="evenodd">
        <rect fill="#F5F9FF" x="0" y="0" width="600" height="352"></rect>
        <g id="Group-6" transform="translate(101.000000, 35.000000)">
            <g id="Group-5" transform="translate(0.000000, 27.000000)">
                <g id="Group">
                    <polyline id="Stroke-1" stroke="#CBD8F2" fill="#FFFFFF" points="2.84217094e-14 127.346641 100.56 26.7266415 201.18 127.346641 100.56 227.966641 2.84217094e-14 127.346641"></polyline>
                    <polyline id="Stroke-1-Copy" stroke="#CBD8F2" fill="#FFFFFF" points="20.59 127.346641 100.566141 47.3227822 180.59 127.346641 100.566141 207.370501 20.59 127.346641"></polyline>
                    <path d="M180.59,127.5 L201.18,127.5" id="Line" stroke="#CBD8F2"></path>
                    <path d="M20.59,127.5 L0,127.5" id="Line-2" stroke="#CBD8F2"></path>
                    <path d="M100.59,47.3227822 L100.59,26.7266415" id="Line-3" stroke="#CBD8F2"></path>
                    <path d="M139.82118,130.286734 C138.786345,130.646364 137.89085,130.826641 137.135625,130.826641 C135.575012,130.826641 134.260567,130.123098 133.193219,128.716934 C131.731073,126.771788 131,124.074099 131,120.624792 C131,118.041742 131.54993,116.096595 132.65072,114.788429 C133.75151,113.480262 135.032513,112.826641 136.494659,112.826641 C137.75987,112.826641 138.888528,113.316626 139.88249,114.29752 C140.876451,115.278413 141.644682,116.689199 142.186252,118.528028 C142.728751,120.366857 143,122.079954 143,123.66547 C143,124.940355 142.852299,126.641433 142.555968,128.765933 C141.76823,129.420478 140.856015,129.927104 139.82118,130.286734 L139.82118,130.286734 Z M129.062963,145.826641 C132.174074,145.826641 135.048148,144.976051 137.684259,143.273964 C140.925926,141.203317 143.455556,138.598895 145.273148,135.459791 C147.090741,132.321595 148,128.939206 148,125.310809 C148,121.28208 146.80463,117.894244 144.413889,115.149117 C142.464815,112.934133 140.124074,111.826641 137.389815,111.826641 C134.147222,111.826641 131.519444,113.182865 129.505556,115.895312 C127.835185,118.127544 127,120.672052 127,123.528836 C127,126.466413 127.835185,128.82301 129.505556,130.595905 C131.175926,132.369708 133.181481,133.256609 135.523148,133.256609 C137.601852,133.256609 139.926852,132.446869 142.498148,130.824666 C141.826852,133.634245 140.635185,136.210526 138.924074,138.554414 C137.212963,140.898303 135.440741,142.539569 133.607407,143.478214 C131.773148,144.417767 129.791667,144.903429 127.663889,144.935201 L127.663889,145.826641 L129.062963,145.826641 Z M106.365292,115.543538 C107.436388,115.036006 108.271604,114.781314 108.872776,114.781314 C109.294055,114.781314 109.655676,114.904493 109.955803,115.149923 C110.255931,115.395354 110.463358,115.780633 110.577167,116.304836 C110.738704,116.992968 110.82039,118.548905 110.82039,120.972647 L110.82039,138.954832 C110.82039,140.95347 110.730443,142.152838 110.552386,142.553862 C110.373411,142.955813 110.056764,143.275335 109.603361,143.51243 C109.148122,143.749526 108.142191,143.884744 106.583733,143.918085 L106.583733,144.826641 L119,144.826641 L119,143.918085 C117.506707,143.884744 116.517297,143.745821 116.029935,143.50039 C115.543491,143.254034 115.222254,142.902096 115.068978,142.44365 C114.913866,141.985204 114.837687,140.821956 114.837687,138.954832 L114.837687,110.826641 L114.033677,110.826641 L106,114.781314 L106.365292,115.543538 Z M82.6436067,120.631924 C83.0726778,117.755428 83.8804508,115.646485 85.0687913,114.305095 C85.9427905,113.320068 86.9399145,112.826641 88.0620288,112.826641 C89.0190439,112.826641 89.8352118,113.093457 90.5114652,113.627089 C91.4516906,114.402866 92.2184221,115.719585 92.8125923,117.577246 C93.6045084,120.082758 94,123.208708 94,126.957839 C94,132.015464 93.6203653,135.933639 92.8620288,138.713277 C92.3676642,140.555404 91.6410416,141.867554 90.6849592,142.651555 C89.727944,143.435555 88.8045084,143.826641 87.9137194,143.826641 C86.0491255,143.826641 84.648115,142.623228 83.7078896,140.215488 C82.5699184,137.355439 82,133.663875 82,129.138968 C82,126.343796 82.2145356,123.507506 82.6436067,120.631924 L82.6436067,120.631924 Z M79.6106693,140.296225 C81.669776,143.983169 84.2479474,145.826641 87.3442806,145.826641 C88.9086962,145.826641 90.5326914,145.226716 92.2171689,144.026866 C93.9016464,142.827927 95.2864205,140.899791 96.3723939,138.244281 C97.4574646,135.58786 98,132.359736 98,128.560817 C98,123.136002 96.7632721,118.837298 94.2889137,115.665615 C92.3092464,113.106603 90.0741091,111.826641 87.5844044,111.826641 C86.0515841,111.826641 84.5675106,112.350097 83.1303787,113.396096 C81.2779951,114.716113 79.7939217,116.72436 78.676353,119.420837 C77.5587843,122.117313 77,125.333603 77,129.067886 C77,133.446701 77.8702231,137.190088 79.6106693,140.296225 L79.6106693,140.296225 Z M73.0899747,138.414885 C72.66369,139.152102 72.1641955,139.72076 71.5905644,140.121785 C71.0169334,140.523735 70.3737995,140.789541 69.6611626,140.920128 C68.9485257,141.051642 67.7067397,141.117399 65.9367313,141.117399 L57.2349621,141.117399 C58.2515586,140.199581 60.8,137.513738 64.8802864,133.058942 C67.6001685,130.095253 69.5666386,127.286231 70.7796967,124.632803 C71.5664701,122.946279 71.9593934,121.258828 71.9593934,119.572304 C71.9593934,117.213392 71.0540017,115.166594 69.2432182,113.430057 C67.4324347,111.694447 65.1749789,110.826641 62.4708509,110.826641 C59.9307498,110.826641 57.8132266,111.637025 56.1173547,113.258719 C54.420556,114.879487 53.367818,117.205983 52.958214,120.235429 L53.8682393,120.235429 C54.490059,118.384975 55.4529065,116.980001 56.7558551,116.022359 C58.0588037,115.063791 59.5294861,114.58497 61.168829,114.58497 C62.9712721,114.58497 64.5197978,115.264766 65.8144061,116.624359 C67.1090143,117.983951 67.7558551,119.719562 67.7558551,121.832117 C67.7558551,124.600388 66.5761584,127.65484 64.216765,130.995474 C61.8564448,134.337033 57.7844987,138.644571 52,143.918085 L52,144.826641 L71.6647009,144.826641 L74,138.414885 L73.0899747,138.414885 Z" id="Fill-3" fill="#CBD8F2"></path>
                    <g id="Group-2" transform="translate(107.507882, 0.000000)">
                        <path d="M51.223417,39 L51.223417,37.572 L52.0244577,36.8171994 C52.4106969,36.4500002 52.7755153,36.0981017 53.118917,35.7615 C53.6912532,35.2004972 54.1842483,34.6735025 54.597917,34.1805 C55.0115857,33.6874975 55.3345825,33.2285021 55.566917,32.8035 C55.7992515,32.3784979 55.915417,31.9733353 55.915417,31.588 C55.915417,31.0553307 55.7794184,30.6501681 55.507417,30.3725 C55.2354156,30.0948319 54.8614194,29.956 54.385417,29.956 C53.9887483,29.956 53.6374185,30.0664989 53.331417,30.2875 C53.0254155,30.5085011 52.7364184,30.7663319 52.464417,31.061 L51.104417,29.718 C51.6370863,29.1513305 52.1810809,28.7235014 52.736417,28.4345 C53.2917531,28.1454986 53.9547465,28.001 54.725417,28.001 C55.2580863,28.001 55.7425815,28.0831658 56.178917,28.2475 C56.6152525,28.4118342 56.9920821,28.6441652 57.309417,28.9445 C57.6267519,29.2448348 57.8704161,29.6046646 58.040417,30.024 C58.2104178,30.4433354 58.295417,30.9136641 58.295417,31.435 C58.295417,31.8883356 58.1990846,32.3501643 58.006417,32.8205 C57.8137494,33.2908357 57.5559186,33.7611643 57.232917,34.2315 C56.9099154,34.7018357 56.5415857,35.1721643 56.127917,35.6425 C55.7142483,36.1128357 55.2864192,36.5746644 54.844417,37.028 L55.2757919,36.979125 C55.4273748,36.9635417 55.5867495,36.9486667 55.753917,36.9345 C56.088252,36.9061665 56.385749,36.892 56.646417,36.892 L58.822417,36.892 L58.822417,39 L51.223417,39 Z M63.854417,33.186 C64.1377517,33.186 64.4239156,33.1038342 64.712917,32.9395 C65.0019184,32.7751658 65.2540826,32.5003353 65.469417,32.115 C65.3560831,31.2649957 65.1435852,30.6785016 64.831917,30.3555 C64.5202488,30.0324984 64.1717523,29.871 63.786417,29.871 C63.4237485,29.871 63.1064184,30.0098319 62.834417,30.2875 C62.5624156,30.5651681 62.426417,31.0099969 62.426417,31.622 C62.426417,32.2000029 62.5624156,32.6051655 62.834417,32.8375 C63.1064184,33.0698345 63.446415,33.186 63.854417,33.186 Z M63.463417,39.204 C62.7494134,39.204 62.1289196,39.073668 61.601917,38.813 C61.0749144,38.552332 60.6414187,38.2520017 60.301417,37.912 L61.627417,36.416 C61.8087512,36.620001 62.0524155,36.7984992 62.358417,36.9515 C62.6644185,37.1045008 62.9760821,37.181 63.293417,37.181 C63.5994185,37.181 63.882749,37.1243339 64.143417,37.011 C64.404085,36.8976661 64.6335827,36.7078347 64.831917,36.4415 C65.0302513,36.1751653 65.1889164,35.8295021 65.307917,35.4045 C65.4269176,34.9794979 65.4977502,34.4496698 65.520417,33.815 C65.3844163,33.9963342 65.2257512,34.1578326 65.044417,34.2995 C64.8630828,34.4411674 64.6760846,34.5601662 64.483417,34.6565 C64.2907494,34.7528338 64.0980846,34.8264997 63.905417,34.8775 C63.7127494,34.9285003 63.5314178,34.954 63.361417,34.954 C62.896748,34.954 62.468919,34.8860007 62.077917,34.75 C61.686915,34.6139993 61.3497517,34.4100014 61.066417,34.138 C60.7830822,33.8659986 60.5592512,33.5203354 60.394917,33.101 C60.2305828,32.6816646 60.148417,32.1886695 60.148417,31.622 C60.148417,31.0666639 60.2447494,30.5651689 60.437417,30.1175 C60.6300846,29.6698311 60.8879154,29.2873349 61.210917,28.97 C61.5339186,28.6526651 61.9135815,28.4118342 62.349917,28.2475 C62.7862525,28.0831658 63.2480812,28.001 63.735417,28.001 C64.2567529,28.001 64.7639145,28.102999 65.256917,28.307 C65.7499195,28.511001 66.1862484,28.8283312 66.565917,29.259 C66.9455856,29.6896688 67.2515825,30.2421633 67.483917,30.9165 C67.7162515,31.5908367 67.832417,32.4039952 67.832417,33.356 C67.832417,34.3646717 67.7105849,35.2373296 67.466917,35.974 C67.2232491,36.7106704 66.9002523,37.3169976 66.497917,37.793 C66.0955817,38.2690024 65.6309196,38.6231655 65.103917,38.8555 C64.5769144,39.0878345 64.0300865,39.204 63.463417,39.204 Z M73.034417,39.204 C72.4564141,39.204 71.9294194,39.0821679 71.453417,38.8385 C70.9774146,38.5948321 70.572252,38.2350024 70.237917,37.759 C69.903582,37.2829976 69.6429179,36.6936702 69.455917,35.991 C69.2689161,35.2883298 69.175417,34.4780046 69.175417,33.56 C69.175417,32.6419954 69.2689161,31.8373368 69.455917,31.146 C69.6429179,30.4546632 69.903582,29.8738357 70.237917,29.4035 C70.572252,28.9331643 70.9774146,28.5818345 71.453417,28.3495 C71.9294194,28.1171655 72.4564141,28.001 73.034417,28.001 C73.6124199,28.001 74.1394146,28.1171655 74.615417,28.3495 C75.0914194,28.5818345 75.496582,28.9331643 75.830917,29.4035 C76.165252,29.8738357 76.4259161,30.4546632 76.612917,31.146 C76.7999179,31.8373368 76.893417,32.6419954 76.893417,33.56 C76.893417,34.4780046 76.7999179,35.2883298 76.612917,35.991 C76.4259161,36.6936702 76.165252,37.2829976 75.830917,37.759 C75.496582,38.2350024 75.0914194,38.5948321 74.615417,38.8385 C74.1394146,39.0821679 73.6124199,39.204 73.034417,39.204 Z M73.034417,37.266 C73.2497514,37.266 73.4480828,37.2121672 73.629417,37.1045 C73.8107512,36.9968328 73.9694163,36.8013347 74.105417,36.518 C74.2414177,36.2346652 74.34625,35.8550024 74.419917,35.379 C74.493584,34.9029976 74.530417,34.2966703 74.530417,33.56 C74.530417,32.8233296 74.493584,32.2198357 74.419917,31.7495 C74.34625,31.2791643 74.2414177,30.9108347 74.105417,30.6445 C73.9694163,30.3781653 73.8107512,30.1940005 73.629417,30.092 C73.4480828,29.9899995 73.2497514,29.939 73.034417,29.939 C72.830416,29.939 72.6377512,29.9899995 72.456417,30.092 C72.2750828,30.1940005 72.1164177,30.3781653 71.980417,30.6445 C71.8444163,30.9108347 71.7367507,31.2791643 71.657417,31.7495 C71.5780833,32.2198357 71.538417,32.8233296 71.538417,33.56 C71.538417,34.2966703 71.5780833,34.9029976 71.657417,35.379 C71.7367507,35.8550024 71.8444163,36.2346652 71.980417,36.518 C72.1164177,36.8013347 72.2750828,36.9968328 72.456417,37.1045 C72.6377512,37.2121672 72.830416,37.266 73.034417,37.266 Z M78.627417,39 L78.627417,30.568 L80.667417,30.568 L80.837417,31.656 L80.905417,31.656 C81.2567521,31.3046649 81.6307483,31.0015013 82.027417,30.7465 C82.4240856,30.4914987 82.9000809,30.364 83.455417,30.364 C84.0560867,30.364 84.5405818,30.4858321 84.908917,30.7295 C85.2772522,30.9731679 85.5690826,31.3216644 85.784417,31.775 C86.1584189,31.3896647 86.5522483,31.0581681 86.965917,30.7805 C87.3795857,30.5028319 87.8697475,30.364 88.436417,30.364 C89.3430882,30.364 90.0089149,30.6671636 90.433917,31.2735 C90.8589191,31.8798364 91.071417,32.7099947 91.071417,33.764 L91.071417,39 L88.572417,39 L88.572417,34.087 C88.572417,33.4749969 88.4902512,33.0556678 88.325917,32.829 C88.1615828,32.6023322 87.8980855,32.489 87.535417,32.489 C87.1160816,32.489 86.6344197,32.7609973 86.090417,33.305 L86.090417,39 L83.591417,39 L83.591417,34.087 C83.591417,33.4749969 83.5092512,33.0556678 83.344917,32.829 C83.1805828,32.6023322 82.9170855,32.489 82.554417,32.489 C82.1237482,32.489 81.6477529,32.7609973 81.126417,33.305 L81.126417,39 L78.627417,39 Z M93.196417,39 L93.196417,30.568 L95.236417,30.568 L95.406417,31.656 L95.474417,31.656 C95.8257521,31.3046649 96.1997483,31.0015013 96.596417,30.7465 C96.9930856,30.4914987 97.4690809,30.364 98.024417,30.364 C98.6250867,30.364 99.1095818,30.4858321 99.477917,30.7295 C99.8462522,30.9731679 100.138083,31.3216644 100.353417,31.775 C100.727419,31.3896647 101.121248,31.0581681 101.534917,30.7805 C101.948586,30.5028319 102.438747,30.364 103.005417,30.364 C103.912088,30.364 104.577915,30.6671636 105.002917,31.2735 C105.427919,31.8798364 105.640417,32.7099947 105.640417,33.764 L105.640417,39 L103.141417,39 L103.141417,34.087 C103.141417,33.4749969 103.059251,33.0556678 102.894917,32.829 C102.730583,32.6023322 102.467085,32.489 102.104417,32.489 C101.685082,32.489 101.20342,32.7609973 100.659417,33.305 L100.659417,39 L98.160417,39 L98.160417,34.087 C98.160417,33.4749969 98.0782512,33.0556678 97.913917,32.829 C97.7495828,32.6023322 97.4860855,32.489 97.123417,32.489 C96.6927482,32.489 96.2167529,32.7609973 95.695417,33.305 L95.695417,39 L93.196417,39 Z" id="290mm" fill="#093169" fill-rule="nonzero" transform="translate(78.372417, 33.602500) rotate(-315.000000) translate(-78.372417, -33.602500) "></path>
                        <polyline id="Rectangle-Copy-3" stroke="#CBD8F2" transform="translate(56.000000, 56.334524) rotate(-315.000000) translate(-56.000000, -56.334524) " points="-14.7633333 63.8345238 -15 48.8345238 127 48.8345238 127 63.8345238"></polyline>
                    </g>
                    <g id="Group-3" transform="translate(107.507882, 141.834524)">
                        <path d="M51.9305238,85.127417 L51.9305238,83.699417 L52.7315644,82.9446164 C53.1178036,82.5774172 53.4826221,82.2255187 53.8260238,81.888917 C54.39836,81.3279142 54.891355,80.8009195 55.3050238,80.307917 C55.7186925,79.8149145 56.0416893,79.3559191 56.2740238,78.930917 C56.5063583,78.5059149 56.6225238,78.1007523 56.6225238,77.715417 C56.6225238,77.1827477 56.4865251,76.7775851 56.2145238,76.499917 C55.9425224,76.2222489 55.5685262,76.083417 55.0925238,76.083417 C54.6958551,76.083417 54.3445253,76.1939159 54.0385238,76.414917 C53.7325222,76.6359181 53.4435251,76.8937489 53.1715238,77.188417 L51.8115238,75.845417 C52.3441931,75.2787475 52.8881877,74.8509184 53.4435238,74.561917 C53.9988599,74.2729156 54.6618533,74.128417 55.4325238,74.128417 C55.9651931,74.128417 56.4496883,74.2105828 56.8860238,74.374917 C57.3223593,74.5392512 57.6991889,74.7715822 58.0165238,75.071917 C58.3338587,75.3722518 58.5775229,75.7320816 58.7475238,76.151417 C58.9175246,76.5707524 59.0025238,77.0410811 59.0025238,77.562417 C59.0025238,78.0157526 58.9061914,78.4775813 58.7135238,78.947917 C58.5208561,79.4182527 58.2630254,79.8885813 57.9400238,80.358917 C57.6170222,80.8292527 57.2486925,81.2995813 56.8350238,81.769917 C56.421355,82.2402527 55.993526,82.7020814 55.5515238,83.155417 L55.9828987,83.106542 C56.1344816,83.0909587 56.2938563,83.0760837 56.4610238,83.061917 C56.7953588,83.0335835 57.0928558,83.019417 57.3535238,83.019417 L59.5295238,83.019417 L59.5295238,85.127417 L51.9305238,85.127417 Z M64.5615238,79.313417 C64.8448585,79.313417 65.1310223,79.2312512 65.4200238,79.066917 C65.7090252,78.9025828 65.9611894,78.6277523 66.1765238,78.242417 C66.0631899,77.3924127 65.850692,76.8059186 65.5390238,76.482917 C65.2273556,76.1599154 64.878859,75.998417 64.4935238,75.998417 C64.1308553,75.998417 63.8135251,76.1372489 63.5415238,76.414917 C63.2695224,76.6925851 63.1335238,77.1374139 63.1335238,77.749417 C63.1335238,78.3274199 63.2695224,78.7325825 63.5415238,78.964917 C63.8135251,79.1972515 64.1535217,79.313417 64.5615238,79.313417 Z M64.1705238,85.331417 C63.4565202,85.331417 62.8360264,85.201085 62.3090238,84.940417 C61.7820211,84.679749 61.3485255,84.3794187 61.0085238,84.039417 L62.3345238,82.543417 C62.515858,82.747418 62.7595222,82.9259162 63.0655238,83.078917 C63.3715253,83.2319178 63.6831889,83.308417 64.0005238,83.308417 C64.3065253,83.308417 64.5898558,83.2517509 64.8505238,83.138417 C65.1111917,83.0250831 65.3406895,82.8352517 65.5390238,82.568917 C65.7373581,82.3025823 65.8960232,81.9569191 66.0150238,81.531917 C66.1340244,81.1069149 66.204857,80.5770868 66.2275238,79.942417 C66.0915231,80.1237512 65.932858,80.2852496 65.7515238,80.426917 C65.5701895,80.5685844 65.3831914,80.6875832 65.1905238,80.783917 C64.9978561,80.8802508 64.8051914,80.9539167 64.6125238,81.004917 C64.4198561,81.0559173 64.2385246,81.081417 64.0685238,81.081417 C63.6038548,81.081417 63.1760257,81.0134177 62.7850238,80.877417 C62.3940218,80.7414163 62.0568585,80.5374184 61.7735238,80.265417 C61.490189,79.9934156 61.2663579,79.6477524 61.1020238,79.228417 C60.9376896,78.8090816 60.8555238,78.3160865 60.8555238,77.749417 C60.8555238,77.1940809 60.9518561,76.6925859 61.1445238,76.244917 C61.3371914,75.7972481 61.5950222,75.4147519 61.9180238,75.097417 C62.2410254,74.7800821 62.6206883,74.5392512 63.0570238,74.374917 C63.4933593,74.2105828 63.955188,74.128417 64.4425238,74.128417 C64.9638597,74.128417 65.4710213,74.230416 65.9640238,74.434417 C66.4570262,74.638418 66.8933552,74.9557482 67.2730238,75.386417 C67.6526923,75.8170858 67.9586893,76.3695803 68.1910238,77.043917 C68.4233583,77.7182537 68.5395238,78.5314122 68.5395238,79.483417 C68.5395238,80.4920887 68.4176917,81.3647466 68.1740238,82.101417 C67.9303559,82.8380873 67.6073591,83.4444146 67.2050238,83.920417 C66.8026884,84.3964194 66.3380264,84.7505825 65.8110238,84.982917 C65.2840211,85.2152515 64.7371933,85.331417 64.1705238,85.331417 Z M73.7415238,85.331417 C73.1635209,85.331417 72.6365262,85.2095849 72.1605238,84.965917 C71.6845214,84.7222491 71.2793588,84.3624194 70.9450238,83.886417 C70.6106888,83.4104146 70.3500247,82.8210872 70.1630238,82.118417 C69.9760228,81.4157468 69.8825238,80.6054216 69.8825238,79.687417 C69.8825238,78.7694124 69.9760228,77.9647538 70.1630238,77.273417 C70.3500247,76.5820802 70.6106888,76.0012527 70.9450238,75.530917 C71.2793588,75.0605813 71.6845214,74.7092515 72.1605238,74.476917 C72.6365262,74.2445825 73.1635209,74.128417 73.7415238,74.128417 C74.3195267,74.128417 74.8465214,74.2445825 75.3225238,74.476917 C75.7985262,74.7092515 76.2036888,75.0605813 76.5380238,75.530917 C76.8723588,76.0012527 77.1330228,76.5820802 77.3200238,77.273417 C77.5070247,77.9647538 77.6005238,78.7694124 77.6005238,79.687417 C77.6005238,80.6054216 77.5070247,81.4157468 77.3200238,82.118417 C77.1330228,82.8210872 76.8723588,83.4104146 76.5380238,83.886417 C76.2036888,84.3624194 75.7985262,84.7222491 75.3225238,84.965917 C74.8465214,85.2095849 74.3195267,85.331417 73.7415238,85.331417 Z M73.7415238,83.393417 C73.9568582,83.393417 74.1551895,83.3395842 74.3365238,83.231917 C74.517858,83.1242498 74.6765231,82.9287517 74.8125238,82.645417 C74.9485245,82.3620822 75.0533567,81.9824194 75.1270238,81.506417 C75.2006908,81.0304146 75.2375238,80.4240873 75.2375238,79.687417 C75.2375238,78.9507466 75.2006908,78.3472527 75.1270238,77.876917 C75.0533567,77.4065813 74.9485245,77.0382517 74.8125238,76.771917 C74.6765231,76.5055823 74.517858,76.3214175 74.3365238,76.219417 C74.1551895,76.1174165 73.9568582,76.066417 73.7415238,76.066417 C73.5375228,76.066417 73.344858,76.1174165 73.1635238,76.219417 C72.9821895,76.3214175 72.8235245,76.5055823 72.6875238,76.771917 C72.5515231,77.0382517 72.4438575,77.4065813 72.3645238,77.876917 C72.28519,78.3472527 72.2455238,78.9507466 72.2455238,79.687417 C72.2455238,80.4240873 72.28519,81.0304146 72.3645238,81.506417 C72.4438575,81.9824194 72.5515231,82.3620822 72.6875238,82.645417 C72.8235245,82.9287517 72.9821895,83.1242498 73.1635238,83.231917 C73.344858,83.3395842 73.5375228,83.393417 73.7415238,83.393417 Z M79.3345238,85.127417 L79.3345238,76.695417 L81.3745238,76.695417 L81.5445238,77.783417 L81.6125238,77.783417 C81.9638589,77.4320819 82.3378551,77.1289183 82.7345238,76.873917 C83.1311924,76.6189157 83.6071877,76.491417 84.1625238,76.491417 C84.7631934,76.491417 85.2476886,76.6132491 85.6160238,76.856917 C85.984359,77.1005849 86.2761894,77.4490814 86.4915238,77.902417 C86.8655256,77.5170817 87.259355,77.1855851 87.6730238,76.907917 C88.0866925,76.6302489 88.5768543,76.491417 89.1435238,76.491417 C90.050195,76.491417 90.7160217,76.7945806 91.1410238,77.400917 C91.5660259,78.0072534 91.7785238,78.8374117 91.7785238,79.891417 L91.7785238,85.127417 L89.2795238,85.127417 L89.2795238,80.214417 C89.2795238,79.6024139 89.1973579,79.1830848 89.0330238,78.956417 C88.8686896,78.7297492 88.6051923,78.616417 88.2425238,78.616417 C87.8231883,78.616417 87.3415265,78.8884143 86.7975238,79.432417 L86.7975238,85.127417 L84.2985238,85.127417 L84.2985238,80.214417 C84.2985238,79.6024139 84.2163579,79.1830848 84.0520238,78.956417 C83.8876896,78.7297492 83.6241923,78.616417 83.2615238,78.616417 C82.830855,78.616417 82.3548597,78.8884143 81.8335238,79.432417 L81.8335238,85.127417 L79.3345238,85.127417 Z M93.9035238,85.127417 L93.9035238,76.695417 L95.9435238,76.695417 L96.1135238,77.783417 L96.1815238,77.783417 C96.5328589,77.4320819 96.9068551,77.1289183 97.3035238,76.873917 C97.7001924,76.6189157 98.1761877,76.491417 98.7315238,76.491417 C99.3321934,76.491417 99.8166886,76.6132491 100.185024,76.856917 C100.553359,77.1005849 100.845189,77.4490814 101.060524,77.902417 C101.434526,77.5170817 101.828355,77.1855851 102.242024,76.907917 C102.655693,76.6302489 103.145854,76.491417 103.712524,76.491417 C104.619195,76.491417 105.285022,76.7945806 105.710024,77.400917 C106.135026,78.0072534 106.347524,78.8374117 106.347524,79.891417 L106.347524,85.127417 L103.848524,85.127417 L103.848524,80.214417 C103.848524,79.6024139 103.766358,79.1830848 103.602024,78.956417 C103.43769,78.7297492 103.174192,78.616417 102.811524,78.616417 C102.392188,78.616417 101.910526,78.8884143 101.366524,79.432417 L101.366524,85.127417 L98.8675238,85.127417 L98.8675238,80.214417 C98.8675238,79.6024139 98.7853579,79.1830848 98.6210238,78.956417 C98.4566896,78.7297492 98.1931923,78.616417 97.8305238,78.616417 C97.399855,78.616417 96.9238597,78.8884143 96.4025238,79.432417 L96.4025238,85.127417 L93.9035238,85.127417 Z" id="290mm" fill="#093169" fill-rule="nonzero" transform="translate(79.079524, 79.729917) rotate(-45.000000) translate(-79.079524, -79.729917) "></path>
                        <polyline id="Rectangle-Copy-5" stroke="#CBD8F2" transform="translate(56.000000, 56.500000) rotate(-225.000000) translate(-56.000000, -56.500000) " points="-14.7633333 64 -15 49 127 49 127 64"></polyline>
                    </g>
                </g>
                <path d="M100.59,207.370501 L100.59,227.966641" id="Line-4" stroke="#CBD8F2"></path>
            </g>
            <g id="Group-4" transform="translate(296.000000, 0.000000)">
                <rect id="Rectangle" stroke="#CBD8F2" fill="#FFFFFF" x="4" y="67" width="49" height="202"></rect>
                <path d="M63,80.9725701 L53,67 L53,269 L63,255.02743 M63,80.9725701 L63,255.02743" id="Stroke-1" stroke="#CBD8F2" fill="#FFFFFF" stroke-linejoin="bevel"></path>
                <path d="M4.60788232,168.5 L62.78,168.5" id="Path" stroke="#CBD8F2" fill="#FFFFFF"></path>
                <path d="M106.465,174 L106.465,171.416 L101.79,171.416 L101.79,169.699 L105.734,163.205 L108.794,163.205 L108.794,169.512 L110.035,169.512 L110.035,171.416 L108.794,171.416 L108.794,174 L106.465,174 Z M104.187,169.512 L106.465,169.512 L106.465,167.761 C106.465,167.479932 106.472253,167.164414 106.48676,166.814441 L106.5398,165.78356 C106.548867,165.62852 106.557933,165.483001 106.567,165.347 L106.499,165.347 L106.074,166.248 L106.074,166.248 C105.926666,166.554002 105.773667,166.859998 105.615,167.166 L104.187,169.512 Z M111.633,174 L111.633,171.977 L113.979,171.977 L113.979,165.738 L111.956,165.738 L111.956,164.191 C112.545336,164.077666 113.043998,163.941667 113.452,163.783 C113.860002,163.624333 114.256665,163.431668 114.642,163.205 L116.478,163.205 L116.478,171.977 L118.501,171.977 L118.501,174 L111.633,174 Z M123.907,174.204 C123.328997,174.204 122.802002,174.082168 122.326,173.8385 C121.849998,173.594832 121.444835,173.235002 121.1105,172.759 C120.776165,172.282998 120.515501,171.69367 120.3285,170.991 C120.141499,170.28833 120.048,169.478005 120.048,168.56 C120.048,167.641995 120.141499,166.837337 120.3285,166.146 C120.515501,165.454663 120.776165,164.873836 121.1105,164.4035 C121.444835,163.933164 121.849998,163.581834 122.326,163.3495 C122.802002,163.117166 123.328997,163.001 123.907,163.001 C124.485003,163.001 125.011998,163.117166 125.488,163.3495 C125.964002,163.581834 126.369165,163.933164 126.7035,164.4035 C127.037835,164.873836 127.298499,165.454663 127.4855,166.146 C127.672501,166.837337 127.766,167.641995 127.766,168.56 C127.766,169.478005 127.672501,170.28833 127.4855,170.991 C127.298499,171.69367 127.037835,172.282998 126.7035,172.759 C126.369165,173.235002 125.964002,173.594832 125.488,173.8385 C125.011998,174.082168 124.485003,174.204 123.907,174.204 Z M123.907,172.266 C124.122334,172.266 124.320666,172.212167 124.502,172.1045 C124.683334,171.996833 124.841999,171.801335 124.978,171.518 C125.114001,171.234665 125.218833,170.855002 125.2925,170.379 C125.366167,169.902998 125.403,169.29667 125.403,168.56 C125.403,167.82333 125.366167,167.219836 125.2925,166.7495 C125.218833,166.279164 125.114001,165.910835 124.978,165.6445 C124.841999,165.378165 124.683334,165.194001 124.502,165.092 C124.320666,164.989999 124.122334,164.939 123.907,164.939 C123.702999,164.939 123.510334,164.989999 123.329,165.092 C123.147666,165.194001 122.989001,165.378165 122.853,165.6445 C122.716999,165.910835 122.609334,166.279164 122.53,166.7495 C122.450666,167.219836 122.411,167.82333 122.411,168.56 C122.411,169.29667 122.450666,169.902998 122.53,170.379 C122.609334,170.855002 122.716999,171.234665 122.853,171.518 C122.989001,171.801335 123.147666,171.996833 123.329,172.1045 C123.510334,172.212167 123.702999,172.266 123.907,172.266 Z M129.5,174 L129.5,165.568 L131.54,165.568 L131.71,166.656 L131.778,166.656 C132.129335,166.304665 132.503331,166.001501 132.9,165.7465 C133.296669,165.491499 133.772664,165.364 134.328,165.364 C134.92867,165.364 135.413165,165.485832 135.7815,165.7295 C136.149835,165.973168 136.441666,166.321664 136.657,166.775 C137.031002,166.389665 137.424831,166.058168 137.8385,165.7805 C138.252169,165.502832 138.742331,165.364 139.309,165.364 C140.215671,165.364 140.881498,165.667164 141.3065,166.2735 C141.731502,166.879836 141.944,167.709995 141.944,168.764 L141.944,174 L139.445,174 L139.445,169.087 C139.445,168.474997 139.362834,168.055668 139.1985,167.829 C139.034166,167.602332 138.770668,167.489 138.408,167.489 C137.988665,167.489 137.507003,167.760997 136.963,168.305 L136.963,174 L134.464,174 L134.464,169.087 C134.464,168.474997 134.381834,168.055668 134.2175,167.829 C134.053166,167.602332 133.789668,167.489 133.427,167.489 C132.996331,167.489 132.520336,167.760997 131.999,168.305 L131.999,174 L129.5,174 Z M144.069,174 L144.069,165.568 L146.109,165.568 L146.279,166.656 L146.347,166.656 C146.698335,166.304665 147.072331,166.001501 147.469,165.7465 C147.865669,165.491499 148.341664,165.364 148.897,165.364 C149.49767,165.364 149.982165,165.485832 150.3505,165.7295 C150.718835,165.973168 151.010666,166.321664 151.226,166.775 C151.600002,166.389665 151.993831,166.058168 152.4075,165.7805 C152.821169,165.502832 153.31133,165.364 153.878,165.364 C154.784671,165.364 155.450498,165.667164 155.8755,166.2735 C156.300502,166.879836 156.513,167.709995 156.513,168.764 L156.513,174 L154.014,174 L154.014,169.087 C154.014,168.474997 153.931834,168.055668 153.7675,167.829 C153.603166,167.602332 153.339668,167.489 152.977,167.489 C152.557665,167.489 152.076003,167.760997 151.532,168.305 L151.532,174 L149.033,174 L149.033,169.087 C149.033,168.474997 148.950834,168.055668 148.7865,167.829 C148.622166,167.602332 148.358668,167.489 147.996,167.489 C147.565331,167.489 147.089336,167.760997 146.568,168.305 L146.568,174 L144.069,174 Z" id="410mm" fill="#093169" fill-rule="nonzero" transform="translate(129.151500, 168.602500) rotate(-270.000000) translate(-129.151500, -168.602500) "></path>
                <polyline id="Rectangle-Copy-4" stroke="#CBD8F2" transform="translate(85.500000, 168.500000) rotate(-270.000000) translate(-85.500000, -168.500000) " points="-15.6616667 176 -16 161 187 161 187 176"></polyline>
                <path d="M2.16488232,17 L2.16488232,14.977 L4.51088232,14.977 L4.51088232,8.738 L2.48788232,8.738 L2.48788232,7.191 C3.0772186,7.0776661 3.57588028,6.94166746 3.98388232,6.783 C4.39188436,6.62433254 4.78854706,6.4316678 5.17388232,6.205 L7.00988232,6.205 L7.00988232,14.977 L9.03288232,14.977 L9.03288232,17 L2.16488232,17 Z M14.4388823,17.204 C13.8608794,17.204 13.3338847,17.0821679 12.8578823,16.8385 C12.3818799,16.5948321 11.9767173,16.2350024 11.6423823,15.759 C11.3080473,15.2829976 11.0473833,14.6936702 10.8603823,13.991 C10.6733814,13.2883298 10.5798823,12.4780046 10.5798823,11.56 C10.5798823,10.6419954 10.6733814,9.83733679 10.8603823,9.146 C11.0473833,8.45466321 11.3080473,7.87383568 11.6423823,7.4035 C11.9767173,6.93316431 12.3818799,6.58183449 12.8578823,6.3495 C13.3338847,6.1171655 13.8608794,6.001 14.4388823,6.001 C15.0168852,6.001 15.5438799,6.1171655 16.0198823,6.3495 C16.4958847,6.58183449 16.9010473,6.93316431 17.2353823,7.4035 C17.5697173,7.87383568 17.8303814,8.45466321 18.0173823,9.146 C18.2043833,9.83733679 18.2978823,10.6419954 18.2978823,11.56 C18.2978823,12.4780046 18.2043833,13.2883298 18.0173823,13.991 C17.8303814,14.6936702 17.5697173,15.2829976 17.2353823,15.759 C16.9010473,16.2350024 16.4958847,16.5948321 16.0198823,16.8385 C15.5438799,17.0821679 15.0168852,17.204 14.4388823,17.204 Z M14.4388823,15.266 C14.6542167,15.266 14.8525481,15.2121672 15.0338823,15.1045 C15.2152166,14.9968328 15.3738816,14.8013347 15.5098823,14.518 C15.645883,14.2346652 15.7507153,13.8550024 15.8243823,13.379 C15.8980494,12.9029976 15.9348823,12.2966703 15.9348823,11.56 C15.9348823,10.8233296 15.8980494,10.2198357 15.8243823,9.7495 C15.7507153,9.27916431 15.645883,8.91083466 15.5098823,8.6445 C15.3738816,8.37816533 15.2152166,8.19400051 15.0338823,8.092 C14.8525481,7.98999949 14.6542167,7.939 14.4388823,7.939 C14.2348813,7.939 14.0422166,7.98999949 13.8608823,8.092 C13.6795481,8.19400051 13.520883,8.37816533 13.3848823,8.6445 C13.2488816,8.91083466 13.1412161,9.27916431 13.0618823,9.7495 C12.9825486,10.2198357 12.9428823,10.8233296 12.9428823,11.56 C12.9428823,12.2966703 12.9825486,12.9029976 13.0618823,13.379 C13.1412161,13.8550024 13.2488816,14.2346652 13.3848823,14.518 C13.520883,14.8013347 13.6795481,14.9968328 13.8608823,15.1045 C14.0422166,15.2121672 14.2348813,15.266 14.4388823,15.266 Z M23.4148823,17.204 C22.8368794,17.204 22.3098847,17.0821679 21.8338823,16.8385 C21.3578799,16.5948321 20.9527173,16.2350024 20.6183823,15.759 C20.2840473,15.2829976 20.0233833,14.6936702 19.8363823,13.991 C19.6493814,13.2883298 19.5558823,12.4780046 19.5558823,11.56 C19.5558823,10.6419954 19.6493814,9.83733679 19.8363823,9.146 C20.0233833,8.45466321 20.2840473,7.87383568 20.6183823,7.4035 C20.9527173,6.93316431 21.3578799,6.58183449 21.8338823,6.3495 C22.3098847,6.1171655 22.8368794,6.001 23.4148823,6.001 C23.9928852,6.001 24.5198799,6.1171655 24.9958823,6.3495 C25.4718847,6.58183449 25.8770473,6.93316431 26.2113823,7.4035 C26.5457173,7.87383568 26.8063814,8.45466321 26.9933823,9.146 C27.1803833,9.83733679 27.2738823,10.6419954 27.2738823,11.56 C27.2738823,12.4780046 27.1803833,13.2883298 26.9933823,13.991 C26.8063814,14.6936702 26.5457173,15.2829976 26.2113823,15.759 C25.8770473,16.2350024 25.4718847,16.5948321 24.9958823,16.8385 C24.5198799,17.0821679 23.9928852,17.204 23.4148823,17.204 Z M23.4148823,15.266 C23.6302167,15.266 23.8285481,15.2121672 24.0098823,15.1045 C24.1912166,14.9968328 24.3498816,14.8013347 24.4858823,14.518 C24.621883,14.2346652 24.7267153,13.8550024 24.8003823,13.379 C24.8740494,12.9029976 24.9108823,12.2966703 24.9108823,11.56 C24.9108823,10.8233296 24.8740494,10.2198357 24.8003823,9.7495 C24.7267153,9.27916431 24.621883,8.91083466 24.4858823,8.6445 C24.3498816,8.37816533 24.1912166,8.19400051 24.0098823,8.092 C23.8285481,7.98999949 23.6302167,7.939 23.4148823,7.939 C23.2108813,7.939 23.0182166,7.98999949 22.8368823,8.092 C22.6555481,8.19400051 22.496883,8.37816533 22.3608823,8.6445 C22.2248816,8.91083466 22.1172161,9.27916431 22.0378823,9.7495 C21.9585486,10.2198357 21.9188823,10.8233296 21.9188823,11.56 C21.9188823,12.2966703 21.9585486,12.9029976 22.0378823,13.379 C22.1172161,13.8550024 22.2248816,14.2346652 22.3608823,14.518 C22.496883,14.8013347 22.6555481,14.9968328 22.8368823,15.1045 C23.0182166,15.2121672 23.2108813,15.266 23.4148823,15.266 Z M29.0078823,17 L29.0078823,8.568 L31.0478823,8.568 L31.2178823,9.656 L31.2858823,9.656 C31.6372174,9.30466491 32.0112137,9.00150127 32.4078823,8.7465 C32.804551,8.49149872 33.2805462,8.364 33.8358823,8.364 C34.436552,8.364 34.9210471,8.48583211 35.2893823,8.7295 C35.6577175,8.97316788 35.9495479,9.3216644 36.1648823,9.775 C36.5388842,9.38966474 36.9327136,9.05816805 37.3463823,8.7805 C37.7600511,8.50283194 38.2502128,8.364 38.8168823,8.364 C39.7235535,8.364 40.3893802,8.66716363 40.8143823,9.2735 C41.2393844,9.87983636 41.4518823,10.7099947 41.4518823,11.764 L41.4518823,17 L38.9528823,17 L38.9528823,12.087 C38.9528823,11.4749969 38.8707165,11.0556678 38.7063823,10.829 C38.5420482,10.6023322 38.2785508,10.489 37.9158823,10.489 C37.4965469,10.489 37.014885,10.7609973 36.4708823,11.305 L36.4708823,17 L33.9718823,17 L33.9718823,12.087 C33.9718823,11.4749969 33.8897165,11.0556678 33.7253823,10.829 C33.5610482,10.6023322 33.2975508,10.489 32.9348823,10.489 C32.5042135,10.489 32.0282183,10.7609973 31.5068823,11.305 L31.5068823,17 L29.0078823,17 Z M43.5768823,17 L43.5768823,8.568 L45.6168823,8.568 L45.7868823,9.656 L45.8548823,9.656 C46.2062174,9.30466491 46.5802137,9.00150127 46.9768823,8.7465 C47.373551,8.49149872 47.8495462,8.364 48.4048823,8.364 C49.005552,8.364 49.4900471,8.48583211 49.8583823,8.7295 C50.2267175,8.97316788 50.5185479,9.3216644 50.7338823,9.775 C51.1078842,9.38966474 51.5017136,9.05816805 51.9153823,8.7805 C52.3290511,8.50283194 52.8192128,8.364 53.3858823,8.364 C54.2925535,8.364 54.9583802,8.66716363 55.3833823,9.2735 C55.8083844,9.87983636 56.0208823,10.7099947 56.0208823,11.764 L56.0208823,17 L53.5218823,17 L53.5218823,12.087 C53.5218823,11.4749969 53.4397165,11.0556678 53.2753823,10.829 C53.1110482,10.6023322 52.8475508,10.489 52.4848823,10.489 C52.0655469,10.489 51.583885,10.7609973 51.0398823,11.305 L51.0398823,17 L48.5408823,17 L48.5408823,12.087 C48.5408823,11.4749969 48.4587165,11.0556678 48.2943823,10.829 C48.1300482,10.6023322 47.8665508,10.489 47.5038823,10.489 C47.0732135,10.489 46.5972183,10.7609973 46.0758823,11.305 L46.0758823,17 L43.5768823,17 Z" id="100mm" fill="#093169" fill-rule="nonzero"></path>
                <polyline id="Rectangle-Copy-2" stroke="#CBD8F2" points="4.58954899 52 4.50788232 37 53.5078823 37 53.5078823 52"></polyline>
            </g>
        </g>
    </g>
</svg>