<?xml version="1.0" encoding="UTF-8"?>
<svg width="600px" height="280px" viewBox="0 0 600 280" version="1.1" xmlns="http://www.w3.org/2000/svg" xmlns:xlink="http://www.w3.org/1999/xlink">
    <!-- Generator: Sketch 58 (84663) - https://sketch.com -->
    <title>architecturalPieces/P330</title>
    <desc>Created with Sketch.</desc>
    <g id="architecturalPieces/P330" stroke="none" stroke-width="1" fill="none" fill-rule="evenodd">
        <rect fill="#F5F9FF" x="0" y="0" width="600" height="280"></rect>
        <g id="Group-4" transform="translate(121.000000, 35.000000)">
            <g id="Group-2">
                <g id="Group" transform="translate(0.000000, 67.000000)">
                    <rect id="Rectangle" stroke="#CBD8F2" fill="#FFFFFF" x="0" y="0" width="142" height="142"></rect>
                    <rect id="Rectangle-Copy-5" stroke="#CBD8F2" fill="#FFFFFF" x="16" y="16" width="110" height="110"></rect>
                    <path d="M126,16 L142,0" id="Line" stroke="#CBD8F2"></path>
                    <path d="M126,126 L142,142" id="Line-2" stroke="#CBD8F2"></path>
                    <path d="M16,126 L0,142" id="Line-3" stroke="#CBD8F2"></path>
                    <path d="M16,16 L0,0" id="Line-4" stroke="#CBD8F2"></path>
                    <path d="M108.086081,73.4900873 C107.137483,73.8297381 106.316612,74 105.624323,74 C104.193761,74 102.988853,73.3355419 102.010451,72.0074987 C100.67015,70.170416 100,67.6225989 100,64.3649204 C100,61.9253724 100.504103,60.0882897 101.51316,58.8527992 C102.522217,57.6173087 103.69647,57 105.03677,57 C106.196547,57 107.23115,57.4627632 108.142282,58.3891628 C109.053414,59.3155624 109.757625,60.6479712 110.254064,62.384643 C110.751355,64.1213148 111,65.7392399 111,67.2366718 C111,68.4407293 110.864608,70.0473035 110.592971,72.053775 C109.870878,72.6719569 109.03468,73.1504366 108.086081,73.4900873 L108.086081,73.4900873 Z M97.8664903,88 C100.681305,88 103.281658,87.1994447 105.666711,85.5974796 C108.599647,83.6486357 110.88836,81.1974155 112.532848,78.2429647 C114.177337,75.2893683 115,72.1059433 115,68.6909809 C115,64.8992364 113.918474,61.7106851 111.755423,59.1270358 C109.991975,57.0423453 107.874162,56 105.400309,56 C102.466534,56 100.089021,57.2764458 98.2669312,59.8293373 C96.7556437,61.9302611 96,64.3250921 96,67.0138303 C96,69.7786084 96.7556437,71.9965825 98.2669312,73.6651893 C99.7782187,75.3346505 101.592769,76.1693811 103.71142,76.1693811 C105.592152,76.1693811 107.695723,75.4072729 110.022134,73.8804934 C109.414771,76.5248038 108.336596,78.9495381 106.788448,81.1555508 C105.2403,83.3615635 103.636861,84.906285 101.978131,85.7897154 C100.318563,86.6740001 98.5257937,87.1310941 96.6006614,87.1609975 L96.6006614,88 L97.8664903,88 Z M77.3371929,60.3007001 C78.3258966,59.8379505 79.0968653,59.6057313 79.6517933,59.6057313 C80.0406665,59.6057313 80.3744705,59.7180409 80.6515109,59.9418158 C80.9285513,60.1655907 81.1200226,60.5168751 81.2250777,60.9948244 C81.3741881,61.6222386 81.4495905,63.0408869 81.4495905,65.2507695 L81.4495905,81.6462913 C81.4495905,83.4685789 81.3665631,84.5621203 81.2022028,84.9277601 C81.0369952,85.2942442 80.7447049,85.5855738 80.326179,85.8017488 C79.9059588,86.0179238 78.9774075,86.1412111 77.5388308,86.1716107 L77.5388308,87 L89,87 L89,86.1716107 C87.6215758,86.1412111 86.7082745,86.014546 86.2584016,85.7907712 C85.8093759,85.5661518 85.5128495,85.2452671 85.371364,84.8272725 C85.2281841,84.4092779 85.157865,83.3486693 85.157865,81.6462913 L85.157865,56 L84.4157018,56 L77,59.6057313 L77.3371929,60.3007001 Z M54.5899728,64.3017155 C54.983288,61.6108 55.7237466,59.6379178 56.8130587,58.383069 C57.6142246,57.4615929 58.528255,57 59.5568597,57 C60.4341236,57 61.1822775,57.2496021 61.8021764,57.7488062 C62.6640497,58.4745328 63.3668869,59.706302 63.9115429,61.4441137 C64.637466,63.7879797 65,66.7122561 65,70.2195072 C65,74.9508342 64.6520016,78.6162235 63.9568597,81.2165301 C63.5036922,82.9398102 62.8376215,84.1673053 61.9612126,84.9007251 C61.0839487,85.6341449 60.237466,86 59.4209094,86 C57.7116984,86 56.4274388,84.8742263 55.5655655,82.621824 C54.5224252,79.9462949 54,76.4928963 54,72.2599186 C54,69.6450805 54.1966576,66.9917762 54.5899728,64.3017155 L54.5899728,64.3017155 Z M51.4863517,82.794902 C53.4474058,86.2649673 55.902807,88 58.8516958,88 C60.3416154,88 61.8882775,87.4353647 63.4925418,86.306094 C65.0968061,85.1776802 66.4156386,83.3629645 67.449899,80.8636607 C68.4832997,78.3635001 69,75.3252651 69,71.7498126 C69,66.6441041 67.822164,62.598265 65.4656321,59.613152 C63.5802347,57.2046696 61.4515325,56 59.0803852,56 C57.6205562,56 56.207153,56.4926636 54.8384559,57.477134 C53.074281,58.7195031 51.6608778,60.6096177 50.5965267,63.1474778 C49.5321756,65.6853379 49,68.7124344 49,72.2270537 C49,76.3482917 49.8287839,79.8714791 51.4863517,82.794902 L51.4863517,82.794902 Z M45.1727043,81.1539865 C44.7851727,81.8261556 44.3310868,82.3446378 43.809604,82.7102776 C43.2881213,83.0767617 42.7034541,83.3191142 42.0556024,83.4381793 C41.4077506,83.5580889 40.2788543,83.6180436 38.6697557,83.6180436 L30.7590564,83.6180436 C31.683235,82.78121 34,80.3323527 37.7093513,76.2706273 C40.1819714,73.56844 41.9696714,71.007273 43.0724516,68.5879709 C43.7877001,67.0502574 44.1449031,65.5116995 44.1449031,63.973986 C44.1449031,61.8232138 43.3218197,59.9570156 41.6756529,58.3737027 C40.0294861,56.7912342 37.9772536,56 35.5189553,56 C33.2097725,56 31.2847515,56.7388794 29.7430497,58.2174825 C28.2005055,59.6952412 27.2434709,61.8164583 26.8711036,64.5786004 L27.6983993,64.5786004 C28.26369,62.8914222 29.1390059,61.6104165 30.3235046,60.7372722 C31.5080034,59.8632835 32.8449874,59.4267113 34.3352991,59.4267113 C35.9738837,59.4267113 37.3816344,60.0465256 38.558551,61.286154 C39.7354676,62.5257825 40.3235046,64.1082509 40.3235046,66.0344039 C40.3235046,68.5584157 39.2510531,71.3433576 37.10615,74.3892294 C34.9604044,77.4359456 31.2586352,81.3634061 26,86.1716107 L26,87 L43.8770008,87 L46,81.1539865 L45.1727043,81.1539865 Z" id="Fill-3" fill="#CBD8F2"></path>
                </g>
                <polyline id="Rectangle-Copy" stroke="#CBD8F2" points="0.236666667 52 0 37 142 37 142 52"></polyline>
                <polyline id="Rectangle-Copy-3" stroke="#CBD8F2" transform="translate(164.500000, 138.000000) rotate(-270.000000) translate(-164.500000, -138.000000) " points="93.7366667 145.5 93.5 130.5 235.5 130.5 235.5 145.5"></polyline>
                <path d="M44.096,17 L44.096,15.572 L44.8970407,14.8171994 C45.2832799,14.4500002 45.6480983,14.0981017 45.9915,13.7615 C46.5638362,13.2004972 47.0568313,12.6735025 47.4705,12.1805 C47.8841687,11.6874975 48.2071655,11.2285021 48.4395,10.8035 C48.6718345,10.3784979 48.788,9.97333526 48.788,9.588 C48.788,9.05533067 48.6520014,8.65016805 48.38,8.3725 C48.1079986,8.09483194 47.7340024,7.956 47.258,7.956 C46.8613314,7.956 46.5100015,8.06649889 46.204,8.2875 C45.8979985,8.50850111 45.6090014,8.76633186 45.337,9.061 L43.977,7.718 C44.5096693,7.1513305 45.0536639,6.72350145 45.609,6.4345 C46.1643361,6.14549855 46.8273295,6.001 47.598,6.001 C48.1306693,6.001 48.6151645,6.08316584 49.0515,6.2475 C49.4878355,6.41183416 49.8646651,6.64416517 50.182,6.9445 C50.4993349,7.24483483 50.7429992,7.60466457 50.913,8.024 C51.0830008,8.44333543 51.168,8.91366406 51.168,9.435 C51.168,9.8883356 51.0716676,10.3501643 50.879,10.8205 C50.6863324,11.2908357 50.4285016,11.7611643 50.1055,12.2315 C49.7824984,12.7018357 49.4141687,13.1721643 49.0005,13.6425 C48.5868313,14.1128357 48.1590022,14.5746644 47.717,15.028 L48.1483749,14.979125 C48.2999578,14.9635417 48.4593325,14.9486667 48.6265,14.9345 C48.960835,14.9061665 49.258332,14.892 49.519,14.892 L51.695,14.892 L51.695,17 L44.096,17 Z M56.727,11.186 C57.0103347,11.186 57.2964986,11.1038342 57.5855,10.9395 C57.8745014,10.7751658 58.1266656,10.5003353 58.342,10.115 C58.2286661,9.26499575 58.0161682,8.67850161 57.7045,8.3555 C57.3928318,8.03249839 57.0443353,7.871 56.659,7.871 C56.2963315,7.871 55.9790014,8.00983194 55.707,8.2875 C55.4349986,8.56516805 55.299,9.00999694 55.299,9.622 C55.299,10.2000029 55.4349986,10.6051655 55.707,10.8375 C55.9790014,11.0698345 56.318998,11.186 56.727,11.186 Z M56.336,17.204 C55.6219964,17.204 55.0015026,17.073668 54.4745,16.813 C53.9474974,16.552332 53.5140017,16.2520017 53.174,15.912 L54.5,14.416 C54.6813342,14.620001 54.9249985,14.7984992 55.231,14.9515 C55.5370015,15.1045008 55.8486651,15.181 56.166,15.181 C56.4720015,15.181 56.755332,15.1243339 57.016,15.011 C57.276668,14.8976661 57.5061657,14.7078347 57.7045,14.4415 C57.9028343,14.1751653 58.0614994,13.8295021 58.1805,13.4045 C58.2995006,12.9794979 58.3703332,12.4496698 58.393,11.815 C58.2569993,11.9963342 58.0983342,12.1578326 57.917,12.2995 C57.7356658,12.4411674 57.5486676,12.5601662 57.356,12.6565 C57.1633324,12.7528338 56.9706676,12.8264997 56.778,12.8775 C56.5853324,12.9285003 56.4040009,12.954 56.234,12.954 C55.769331,12.954 55.341502,12.8860007 54.9505,12.75 C54.559498,12.6139993 54.2223348,12.4100014 53.939,12.138 C53.6556652,11.8659986 53.4318342,11.5203354 53.2675,11.101 C53.1031658,10.6816646 53.021,10.1886695 53.021,9.622 C53.021,9.06666389 53.1173324,8.56516891 53.31,8.1175 C53.5026676,7.66983109 53.7604984,7.28733492 54.0835,6.97 C54.4065016,6.65266508 54.7861645,6.41183416 55.2225,6.2475 C55.6588355,6.08316584 56.1206642,6.001 56.608,6.001 C57.1293359,6.001 57.6364975,6.10299898 58.1295,6.307 C58.6225025,6.51100102 59.0588314,6.82833118 59.4385,7.259 C59.8181686,7.68966882 60.1241655,8.24216329 60.3565,8.9165 C60.5888345,9.5908367 60.705,10.4039952 60.705,11.356 C60.705,12.3646717 60.5831679,13.2373296 60.3395,13.974 C60.0958321,14.7106704 59.7728353,15.3169976 59.3705,15.793 C58.9681647,16.2690024 58.5035026,16.6231655 57.9765,16.8555 C57.4494974,17.0878345 56.9026695,17.204 56.336,17.204 Z M65.907,17.204 C65.3289971,17.204 64.8020024,17.0821679 64.326,16.8385 C63.8499976,16.5948321 63.444835,16.2350024 63.1105,15.759 C62.776165,15.2829976 62.5155009,14.6936702 62.3285,13.991 C62.1414991,13.2883298 62.048,12.4780046 62.048,11.56 C62.048,10.6419954 62.1414991,9.83733679 62.3285,9.146 C62.5155009,8.45466321 62.776165,7.87383568 63.1105,7.4035 C63.444835,6.93316431 63.8499976,6.58183449 64.326,6.3495 C64.8020024,6.1171655 65.3289971,6.001 65.907,6.001 C66.4850029,6.001 67.0119976,6.1171655 67.488,6.3495 C67.9640024,6.58183449 68.369165,6.93316431 68.7035,7.4035 C69.037835,7.87383568 69.2984991,8.45466321 69.4855,9.146 C69.6725009,9.83733679 69.766,10.6419954 69.766,11.56 C69.766,12.4780046 69.6725009,13.2883298 69.4855,13.991 C69.2984991,14.6936702 69.037835,15.2829976 68.7035,15.759 C68.369165,16.2350024 67.9640024,16.5948321 67.488,16.8385 C67.0119976,17.0821679 66.4850029,17.204 65.907,17.204 Z M65.907,15.266 C66.1223344,15.266 66.3206658,15.2121672 66.502,15.1045 C66.6833342,14.9968328 66.8419993,14.8013347 66.978,14.518 C67.1140007,14.2346652 67.218833,13.8550024 67.2925,13.379 C67.366167,12.9029976 67.403,12.2966703 67.403,11.56 C67.403,10.8233296 67.366167,10.2198357 67.2925,9.7495 C67.218833,9.27916431 67.1140007,8.91083466 66.978,8.6445 C66.8419993,8.37816533 66.6833342,8.19400051 66.502,8.092 C66.3206658,7.98999949 66.1223344,7.939 65.907,7.939 C65.702999,7.939 65.5103342,7.98999949 65.329,8.092 C65.1476658,8.19400051 64.9890007,8.37816533 64.853,8.6445 C64.7169993,8.91083466 64.6093337,9.27916431 64.53,9.7495 C64.4506663,10.2198357 64.411,10.8233296 64.411,11.56 C64.411,12.2966703 64.4506663,12.9029976 64.53,13.379 C64.6093337,13.8550024 64.7169993,14.2346652 64.853,14.518 C64.9890007,14.8013347 65.1476658,14.9968328 65.329,15.1045 C65.5103342,15.2121672 65.702999,15.266 65.907,15.266 Z M71.5,17 L71.5,8.568 L73.54,8.568 L73.71,9.656 L73.778,9.656 C74.1293351,9.30466491 74.5033313,9.00150127 74.9,8.7465 C75.2966687,8.49149872 75.7726639,8.364 76.328,8.364 C76.9286697,8.364 77.4131648,8.48583211 77.7815,8.7295 C78.1498352,8.97316788 78.4416656,9.3216644 78.657,9.775 C79.0310019,9.38966474 79.4248313,9.05816805 79.8385,8.7805 C80.2521687,8.50283194 80.7423305,8.364 81.309,8.364 C82.2156712,8.364 82.8814979,8.66716363 83.3065,9.2735 C83.7315021,9.87983636 83.944,10.7099947 83.944,11.764 L83.944,17 L81.445,17 L81.445,12.087 C81.445,11.4749969 81.3628342,11.0556678 81.1985,10.829 C81.0341658,10.6023322 80.7706685,10.489 80.408,10.489 C79.9886646,10.489 79.5070027,10.7609973 78.963,11.305 L78.963,17 L76.464,17 L76.464,12.087 C76.464,11.4749969 76.3818342,11.0556678 76.2175,10.829 C76.0531658,10.6023322 75.7896685,10.489 75.427,10.489 C74.9963312,10.489 74.5203359,10.7609973 73.999,11.305 L73.999,17 L71.5,17 Z M86.069,17 L86.069,8.568 L88.109,8.568 L88.279,9.656 L88.347,9.656 C88.6983351,9.30466491 89.0723314,9.00150127 89.469,8.7465 C89.8656687,8.49149872 90.3416639,8.364 90.897,8.364 C91.4976697,8.364 91.9821648,8.48583211 92.3505,8.7295 C92.7188352,8.97316788 93.0106656,9.3216644 93.226,9.775 C93.6000019,9.38966474 93.9938313,9.05816805 94.4075,8.7805 C94.8211687,8.50283194 95.3113305,8.364 95.878,8.364 C96.7846712,8.364 97.4504979,8.66716363 97.8755,9.2735 C98.3005021,9.87983636 98.513,10.7099947 98.513,11.764 L98.513,17 L96.014,17 L96.014,12.087 C96.014,11.4749969 95.9318342,11.0556678 95.7675,10.829 C95.6031658,10.6023322 95.3396685,10.489 94.977,10.489 C94.5576646,10.489 94.0760027,10.7609973 93.532,11.305 L93.532,17 L91.033,17 L91.033,12.087 C91.033,11.4749969 90.9508342,11.0556678 90.7865,10.829 C90.6221658,10.6023322 90.3586685,10.489 89.996,10.489 C89.5653312,10.489 89.0893359,10.7609973 88.568,11.305 L88.568,17 L86.069,17 Z" id="290mm" fill="#093169" fill-rule="nonzero"></path>
                <path d="M170.596,144.5 L170.596,143.072 L171.397041,142.317199 C171.78328,141.95 172.148098,141.598102 172.4915,141.2615 C173.063836,140.700497 173.556831,140.173502 173.9705,139.6805 C174.384169,139.187498 174.707166,138.728502 174.9395,138.3035 C175.171834,137.878498 175.288,137.473335 175.288,137.088 C175.288,136.555331 175.152001,136.150168 174.88,135.8725 C174.607999,135.594832 174.234002,135.456 173.758,135.456 C173.361331,135.456 173.010002,135.566499 172.704,135.7875 C172.397998,136.008501 172.109001,136.266332 171.837,136.561 L170.477,135.218 C171.009669,134.651331 171.553664,134.223501 172.109,133.9345 C172.664336,133.645499 173.327329,133.501 174.098,133.501 C174.630669,133.501 175.115164,133.583166 175.5515,133.7475 C175.987836,133.911834 176.364665,134.144165 176.682,134.4445 C176.999335,134.744835 177.242999,135.104665 177.413,135.524 C177.583001,135.943335 177.668,136.413664 177.668,136.935 C177.668,137.388336 177.571668,137.850164 177.379,138.3205 C177.186332,138.790836 176.928502,139.261164 176.6055,139.7315 C176.282498,140.201836 175.914169,140.672164 175.5005,141.1425 C175.086831,141.612836 174.659002,142.074664 174.217,142.528 L174.648375,142.479125 C174.799958,142.463542 174.959332,142.448667 175.1265,142.4345 C175.460835,142.406167 175.758332,142.392 176.019,142.392 L178.195,142.392 L178.195,144.5 L170.596,144.5 Z M183.227,138.686 C183.510335,138.686 183.796499,138.603834 184.0855,138.4395 C184.374501,138.275166 184.626666,138.000335 184.842,137.615 C184.728666,136.764996 184.516168,136.178502 184.2045,135.8555 C183.892832,135.532498 183.544335,135.371 183.159,135.371 C182.796332,135.371 182.479001,135.509832 182.207,135.7875 C181.934999,136.065168 181.799,136.509997 181.799,137.122 C181.799,137.700003 181.934999,138.105166 182.207,138.3375 C182.479001,138.569834 182.818998,138.686 183.227,138.686 Z M182.836,144.704 C182.121996,144.704 181.501503,144.573668 180.9745,144.313 C180.447497,144.052332 180.014002,143.752002 179.674,143.412 L181,141.916 C181.181334,142.120001 181.424998,142.298499 181.731,142.4515 C182.037002,142.604501 182.348665,142.681 182.666,142.681 C182.972002,142.681 183.255332,142.624334 183.516,142.511 C183.776668,142.397666 184.006166,142.207835 184.2045,141.9415 C184.402834,141.675165 184.561499,141.329502 184.6805,140.9045 C184.799501,140.479498 184.870333,139.94967 184.893,139.315 C184.756999,139.496334 184.598334,139.657833 184.417,139.7995 C184.235666,139.941167 184.048668,140.060166 183.856,140.1565 C183.663332,140.252834 183.470668,140.3265 183.278,140.3775 C183.085332,140.4285 182.904001,140.454 182.734,140.454 C182.269331,140.454 181.841502,140.386001 181.4505,140.25 C181.059498,140.113999 180.722335,139.910001 180.439,139.638 C180.155665,139.365999 179.931834,139.020335 179.7675,138.601 C179.603166,138.181665 179.521,137.68867 179.521,137.122 C179.521,136.566664 179.617332,136.065169 179.81,135.6175 C180.002668,135.169831 180.260498,134.787335 180.5835,134.47 C180.906502,134.152665 181.286164,133.911834 181.7225,133.7475 C182.158836,133.583166 182.620664,133.501 183.108,133.501 C183.629336,133.501 184.136498,133.602999 184.6295,133.807 C185.122502,134.011001 185.558831,134.328331 185.9385,134.759 C186.318169,135.189669 186.624166,135.742163 186.8565,136.4165 C187.088834,137.090837 187.205,137.903995 187.205,138.856 C187.205,139.864672 187.083168,140.73733 186.8395,141.474 C186.595832,142.21067 186.272835,142.816998 185.8705,143.293 C185.468165,143.769002 185.003503,144.123166 184.4765,144.3555 C183.949497,144.587834 183.40267,144.704 182.836,144.704 Z M192.407,144.704 C191.828997,144.704 191.302002,144.582168 190.826,144.3385 C190.349998,144.094832 189.944835,143.735002 189.6105,143.259 C189.276165,142.782998 189.015501,142.19367 188.8285,141.491 C188.641499,140.78833 188.548,139.978005 188.548,139.06 C188.548,138.141995 188.641499,137.337337 188.8285,136.646 C189.015501,135.954663 189.276165,135.373836 189.6105,134.9035 C189.944835,134.433164 190.349998,134.081834 190.826,133.8495 C191.302002,133.617166 191.828997,133.501 192.407,133.501 C192.985003,133.501 193.511998,133.617166 193.988,133.8495 C194.464002,134.081834 194.869165,134.433164 195.2035,134.9035 C195.537835,135.373836 195.798499,135.954663 195.9855,136.646 C196.172501,137.337337 196.266,138.141995 196.266,139.06 C196.266,139.978005 196.172501,140.78833 195.9855,141.491 C195.798499,142.19367 195.537835,142.782998 195.2035,143.259 C194.869165,143.735002 194.464002,144.094832 193.988,144.3385 C193.511998,144.582168 192.985003,144.704 192.407,144.704 Z M192.407,142.766 C192.622334,142.766 192.820666,142.712167 193.002,142.6045 C193.183334,142.496833 193.341999,142.301335 193.478,142.018 C193.614001,141.734665 193.718833,141.355002 193.7925,140.879 C193.866167,140.402998 193.903,139.79667 193.903,139.06 C193.903,138.32333 193.866167,137.719836 193.7925,137.2495 C193.718833,136.779164 193.614001,136.410835 193.478,136.1445 C193.341999,135.878165 193.183334,135.694001 193.002,135.592 C192.820666,135.489999 192.622334,135.439 192.407,135.439 C192.202999,135.439 192.010334,135.489999 191.829,135.592 C191.647666,135.694001 191.489001,135.878165 191.353,136.1445 C191.216999,136.410835 191.109334,136.779164 191.03,137.2495 C190.950666,137.719836 190.911,138.32333 190.911,139.06 C190.911,139.79667 190.950666,140.402998 191.03,140.879 C191.109334,141.355002 191.216999,141.734665 191.353,142.018 C191.489001,142.301335 191.647666,142.496833 191.829,142.6045 C192.010334,142.712167 192.202999,142.766 192.407,142.766 Z M198,144.5 L198,136.068 L200.04,136.068 L200.21,137.156 L200.278,137.156 C200.629335,136.804665 201.003331,136.501501 201.4,136.2465 C201.796669,135.991499 202.272664,135.864 202.828,135.864 C203.42867,135.864 203.913165,135.985832 204.2815,136.2295 C204.649835,136.473168 204.941666,136.821664 205.157,137.275 C205.531002,136.889665 205.924831,136.558168 206.3385,136.2805 C206.752169,136.002832 207.242331,135.864 207.809,135.864 C208.715671,135.864 209.381498,136.167164 209.8065,136.7735 C210.231502,137.379836 210.444,138.209995 210.444,139.264 L210.444,144.5 L207.945,144.5 L207.945,139.587 C207.945,138.974997 207.862834,138.555668 207.6985,138.329 C207.534166,138.102332 207.270668,137.989 206.908,137.989 C206.488665,137.989 206.007003,138.260997 205.463,138.805 L205.463,144.5 L202.964,144.5 L202.964,139.587 C202.964,138.974997 202.881834,138.555668 202.7175,138.329 C202.553166,138.102332 202.289668,137.989 201.927,137.989 C201.496331,137.989 201.020336,138.260997 200.499,138.805 L200.499,144.5 L198,144.5 Z M212.569,144.5 L212.569,136.068 L214.609,136.068 L214.779,137.156 L214.847,137.156 C215.198335,136.804665 215.572331,136.501501 215.969,136.2465 C216.365669,135.991499 216.841664,135.864 217.397,135.864 C217.99767,135.864 218.482165,135.985832 218.8505,136.2295 C219.218835,136.473168 219.510666,136.821664 219.726,137.275 C220.100002,136.889665 220.493831,136.558168 220.9075,136.2805 C221.321169,136.002832 221.81133,135.864 222.378,135.864 C223.284671,135.864 223.950498,136.167164 224.3755,136.7735 C224.800502,137.379836 225.013,138.209995 225.013,139.264 L225.013,144.5 L222.514,144.5 L222.514,139.587 C222.514,138.974997 222.431834,138.555668 222.2675,138.329 C222.103166,138.102332 221.839668,137.989 221.477,137.989 C221.057665,137.989 220.576003,138.260997 220.032,138.805 L220.032,144.5 L217.533,144.5 L217.533,139.587 C217.533,138.974997 217.450834,138.555668 217.2865,138.329 C217.122166,138.102332 216.858668,137.989 216.496,137.989 C216.065331,137.989 215.589336,138.260997 215.068,138.805 L215.068,144.5 L212.569,144.5 Z" id="290mm" fill="#093169" fill-rule="nonzero" transform="translate(197.745000, 139.102500) rotate(-270.000000) translate(-197.745000, -139.102500) "></path>
            </g>
            <g id="Group-3" transform="translate(276.000000, 0.000000)">
                <polygon id="Path" stroke="#CBD8F2" fill="#FFFFFF" points="3.8 209.1 52.88 209.1 52.88 66.78 3.8 66.78"></polygon>
                <polygon id="Path-Copy" stroke="#CBD8F2" fill="#FFFFFF" stroke-linejoin="bevel" transform="translate(58.000000, 137.986285) scale(1, -1) translate(-58.000000, -137.986285) " points="53 208.97257 63 195 63 80.9725701 53 67"></polygon>
                <path d="M91.096,140 L91.096,138.572 L91.8970407,137.817199 C92.2832799,137.45 92.6480983,137.098102 92.9915,136.7615 C93.5638362,136.200497 94.0568313,135.673502 94.4705,135.1805 C94.8841687,134.687498 95.2071655,134.228502 95.4395,133.8035 C95.6718345,133.378498 95.788,132.973335 95.788,132.588 C95.788,132.055331 95.6520014,131.650168 95.38,131.3725 C95.1079986,131.094832 94.7340024,130.956 94.258,130.956 C93.8613313,130.956 93.5100015,131.066499 93.204,131.2875 C92.8979985,131.508501 92.6090014,131.766332 92.337,132.061 L90.977,130.718 C91.5096693,130.151331 92.0536639,129.723501 92.609,129.4345 C93.1643361,129.145499 93.8273295,129.001 94.598,129.001 C95.1306693,129.001 95.6151645,129.083166 96.0515,129.2475 C96.4878355,129.411834 96.8646651,129.644165 97.182,129.9445 C97.4993349,130.244835 97.7429991,130.604665 97.913,131.024 C98.0830008,131.443335 98.168,131.913664 98.168,132.435 C98.168,132.888336 98.0716676,133.350164 97.879,133.8205 C97.6863324,134.290836 97.4285016,134.761164 97.1055,135.2315 C96.7824984,135.701836 96.4141687,136.172164 96.0005,136.6425 C95.5868313,137.112836 95.1590022,137.574664 94.717,138.028 L95.1483749,137.979125 C95.2999578,137.963542 95.4593325,137.948667 95.6265,137.9345 C95.960835,137.906167 96.258332,137.892 96.519,137.892 L98.695,137.892 L98.695,140 L91.096,140 Z M103.727,134.186 C104.010335,134.186 104.296499,134.103834 104.5855,133.9395 C104.874501,133.775166 105.126666,133.500335 105.342,133.115 C105.228666,132.264996 105.016168,131.678502 104.7045,131.3555 C104.392832,131.032498 104.044335,130.871 103.659,130.871 C103.296332,130.871 102.979001,131.009832 102.707,131.2875 C102.434999,131.565168 102.299,132.009997 102.299,132.622 C102.299,133.200003 102.434999,133.605166 102.707,133.8375 C102.979001,134.069834 103.318998,134.186 103.727,134.186 Z M103.336,140.204 C102.621996,140.204 102.001503,140.073668 101.4745,139.813 C100.947497,139.552332 100.514002,139.252002 100.174,138.912 L101.5,137.416 C101.681334,137.620001 101.924998,137.798499 102.231,137.9515 C102.537002,138.104501 102.848665,138.181 103.166,138.181 C103.472002,138.181 103.755332,138.124334 104.016,138.011 C104.276668,137.897666 104.506166,137.707835 104.7045,137.4415 C104.902834,137.175165 105.061499,136.829502 105.1805,136.4045 C105.299501,135.979498 105.370333,135.44967 105.393,134.815 C105.256999,134.996334 105.098334,135.157833 104.917,135.2995 C104.735666,135.441167 104.548668,135.560166 104.356,135.6565 C104.163332,135.752834 103.970668,135.8265 103.778,135.8775 C103.585332,135.9285 103.404001,135.954 103.234,135.954 C102.769331,135.954 102.341502,135.886001 101.9505,135.75 C101.559498,135.613999 101.222335,135.410001 100.939,135.138 C100.655665,134.865999 100.431834,134.520335 100.2675,134.101 C100.103166,133.681665 100.021,133.18867 100.021,132.622 C100.021,132.066664 100.117332,131.565169 100.31,131.1175 C100.502668,130.669831 100.760498,130.287335 101.0835,129.97 C101.406502,129.652665 101.786164,129.411834 102.2225,129.2475 C102.658836,129.083166 103.120664,129.001 103.608,129.001 C104.129336,129.001 104.636498,129.102999 105.1295,129.307 C105.622502,129.511001 106.058831,129.828331 106.4385,130.259 C106.818169,130.689669 107.124166,131.242163 107.3565,131.9165 C107.588834,132.590837 107.705,133.403995 107.705,134.356 C107.705,135.364672 107.583168,136.23733 107.3395,136.974 C107.095832,137.71067 106.772835,138.316998 106.3705,138.793 C105.968165,139.269002 105.503503,139.623166 104.9765,139.8555 C104.449497,140.087834 103.902669,140.204 103.336,140.204 Z M112.907,140.204 C112.328997,140.204 111.802002,140.082168 111.326,139.8385 C110.849998,139.594832 110.444835,139.235002 110.1105,138.759 C109.776165,138.282998 109.515501,137.69367 109.3285,136.991 C109.141499,136.28833 109.048,135.478005 109.048,134.56 C109.048,133.641995 109.141499,132.837337 109.3285,132.146 C109.515501,131.454663 109.776165,130.873836 110.1105,130.4035 C110.444835,129.933164 110.849998,129.581834 111.326,129.3495 C111.802002,129.117166 112.328997,129.001 112.907,129.001 C113.485003,129.001 114.011998,129.117166 114.488,129.3495 C114.964002,129.581834 115.369165,129.933164 115.7035,130.4035 C116.037835,130.873836 116.298499,131.454663 116.4855,132.146 C116.672501,132.837337 116.766,133.641995 116.766,134.56 C116.766,135.478005 116.672501,136.28833 116.4855,136.991 C116.298499,137.69367 116.037835,138.282998 115.7035,138.759 C115.369165,139.235002 114.964002,139.594832 114.488,139.8385 C114.011998,140.082168 113.485003,140.204 112.907,140.204 Z M112.907,138.266 C113.122334,138.266 113.320666,138.212167 113.502,138.1045 C113.683334,137.996833 113.841999,137.801335 113.978,137.518 C114.114001,137.234665 114.218833,136.855002 114.2925,136.379 C114.366167,135.902998 114.403,135.29667 114.403,134.56 C114.403,133.82333 114.366167,133.219836 114.2925,132.7495 C114.218833,132.279164 114.114001,131.910835 113.978,131.6445 C113.841999,131.378165 113.683334,131.194001 113.502,131.092 C113.320666,130.989999 113.122334,130.939 112.907,130.939 C112.702999,130.939 112.510334,130.989999 112.329,131.092 C112.147666,131.194001 111.989001,131.378165 111.853,131.6445 C111.716999,131.910835 111.609334,132.279164 111.53,132.7495 C111.450666,133.219836 111.411,133.82333 111.411,134.56 C111.411,135.29667 111.450666,135.902998 111.53,136.379 C111.609334,136.855002 111.716999,137.234665 111.853,137.518 C111.989001,137.801335 112.147666,137.996833 112.329,138.1045 C112.510334,138.212167 112.702999,138.266 112.907,138.266 Z M118.5,140 L118.5,131.568 L120.54,131.568 L120.71,132.656 L120.778,132.656 C121.129335,132.304665 121.503331,132.001501 121.9,131.7465 C122.296669,131.491499 122.772664,131.364 123.328,131.364 C123.92867,131.364 124.413165,131.485832 124.7815,131.7295 C125.149835,131.973168 125.441666,132.321664 125.657,132.775 C126.031002,132.389665 126.424831,132.058168 126.8385,131.7805 C127.252169,131.502832 127.74233,131.364 128.309,131.364 C129.215671,131.364 129.881498,131.667164 130.3065,132.2735 C130.731502,132.879836 130.944,133.709995 130.944,134.764 L130.944,140 L128.445,140 L128.445,135.087 C128.445,134.474997 128.362834,134.055668 128.1985,133.829 C128.034166,133.602332 127.770668,133.489 127.408,133.489 C126.988665,133.489 126.507003,133.760997 125.963,134.305 L125.963,140 L123.464,140 L123.464,135.087 C123.464,134.474997 123.381834,134.055668 123.2175,133.829 C123.053166,133.602332 122.789668,133.489 122.427,133.489 C121.996331,133.489 121.520336,133.760997 120.999,134.305 L120.999,140 L118.5,140 Z M133.069,140 L133.069,131.568 L135.109,131.568 L135.279,132.656 L135.347,132.656 C135.698335,132.304665 136.072331,132.001501 136.469,131.7465 C136.865669,131.491499 137.341664,131.364 137.897,131.364 C138.49767,131.364 138.982165,131.485832 139.3505,131.7295 C139.718835,131.973168 140.010666,132.321664 140.226,132.775 C140.600002,132.389665 140.993831,132.058168 141.4075,131.7805 C141.821169,131.502832 142.31133,131.364 142.878,131.364 C143.784671,131.364 144.450498,131.667164 144.8755,132.2735 C145.300502,132.879836 145.513,133.709995 145.513,134.764 L145.513,140 L143.014,140 L143.014,135.087 C143.014,134.474997 142.931834,134.055668 142.7675,133.829 C142.603166,133.602332 142.339668,133.489 141.977,133.489 C141.557665,133.489 141.076003,133.760997 140.532,134.305 L140.532,140 L138.033,140 L138.033,135.087 C138.033,134.474997 137.950834,134.055668 137.7865,133.829 C137.622166,133.602332 137.358668,133.489 136.996,133.489 C136.565331,133.489 136.089336,133.760997 135.568,134.305 L135.568,140 L133.069,140 Z" id="290mm" fill="#093169" fill-rule="nonzero" transform="translate(118.245000, 134.602500) rotate(-270.000000) translate(-118.245000, -134.602500) "></path>
                <path d="M1.657,17 L1.657,14.977 L4.003,14.977 L4.003,8.738 L1.98,8.738 L1.98,7.191 C2.56933628,7.0776661 3.06799796,6.94166746 3.476,6.783 C3.88400204,6.62433254 4.28066474,6.4316678 4.666,6.205 L6.502,6.205 L6.502,14.977 L8.525,14.977 L8.525,17 L1.657,17 Z M13.931,17.204 C13.3529971,17.204 12.8260024,17.0821679 12.35,16.8385 C11.8739976,16.5948321 11.468835,16.2350024 11.1345,15.759 C10.800165,15.2829976 10.5395009,14.6936702 10.3525,13.991 C10.1654991,13.2883298 10.072,12.4780046 10.072,11.56 C10.072,10.6419954 10.1654991,9.83733679 10.3525,9.146 C10.5395009,8.45466321 10.800165,7.87383568 11.1345,7.4035 C11.468835,6.93316431 11.8739976,6.58183449 12.35,6.3495 C12.8260024,6.1171655 13.3529971,6.001 13.931,6.001 C14.5090029,6.001 15.0359976,6.1171655 15.512,6.3495 C15.9880024,6.58183449 16.393165,6.93316431 16.7275,7.4035 C17.061835,7.87383568 17.3224991,8.45466321 17.5095,9.146 C17.6965009,9.83733679 17.79,10.6419954 17.79,11.56 C17.79,12.4780046 17.6965009,13.2883298 17.5095,13.991 C17.3224991,14.6936702 17.061835,15.2829976 16.7275,15.759 C16.393165,16.2350024 15.9880024,16.5948321 15.512,16.8385 C15.0359976,17.0821679 14.5090029,17.204 13.931,17.204 Z M13.931,15.266 C14.1463344,15.266 14.3446658,15.2121672 14.526,15.1045 C14.7073342,14.9968328 14.8659993,14.8013347 15.002,14.518 C15.1380007,14.2346652 15.242833,13.8550024 15.3165,13.379 C15.390167,12.9029976 15.427,12.2966703 15.427,11.56 C15.427,10.8233296 15.390167,10.2198357 15.3165,9.7495 C15.242833,9.27916431 15.1380007,8.91083466 15.002,8.6445 C14.8659993,8.37816533 14.7073342,8.19400051 14.526,8.092 C14.3446658,7.98999949 14.1463344,7.939 13.931,7.939 C13.726999,7.939 13.5343342,7.98999949 13.353,8.092 C13.1716658,8.19400051 13.0130007,8.37816533 12.877,8.6445 C12.7409993,8.91083466 12.6333337,9.27916431 12.554,9.7495 C12.4746663,10.2198357 12.435,10.8233296 12.435,11.56 C12.435,12.2966703 12.4746663,12.9029976 12.554,13.379 C12.6333337,13.8550024 12.7409993,14.2346652 12.877,14.518 C13.0130007,14.8013347 13.1716658,14.9968328 13.353,15.1045 C13.5343342,15.2121672 13.726999,15.266 13.931,15.266 Z M22.907,17.204 C22.3289971,17.204 21.8020024,17.0821679 21.326,16.8385 C20.8499976,16.5948321 20.444835,16.2350024 20.1105,15.759 C19.776165,15.2829976 19.5155009,14.6936702 19.3285,13.991 C19.1414991,13.2883298 19.048,12.4780046 19.048,11.56 C19.048,10.6419954 19.1414991,9.83733679 19.3285,9.146 C19.5155009,8.45466321 19.776165,7.87383568 20.1105,7.4035 C20.444835,6.93316431 20.8499976,6.58183449 21.326,6.3495 C21.8020024,6.1171655 22.3289971,6.001 22.907,6.001 C23.4850029,6.001 24.0119976,6.1171655 24.488,6.3495 C24.9640024,6.58183449 25.369165,6.93316431 25.7035,7.4035 C26.037835,7.87383568 26.2984991,8.45466321 26.4855,9.146 C26.6725009,9.83733679 26.766,10.6419954 26.766,11.56 C26.766,12.4780046 26.6725009,13.2883298 26.4855,13.991 C26.2984991,14.6936702 26.037835,15.2829976 25.7035,15.759 C25.369165,16.2350024 24.9640024,16.5948321 24.488,16.8385 C24.0119976,17.0821679 23.4850029,17.204 22.907,17.204 Z M22.907,15.266 C23.1223344,15.266 23.3206658,15.2121672 23.502,15.1045 C23.6833342,14.9968328 23.8419993,14.8013347 23.978,14.518 C24.1140007,14.2346652 24.218833,13.8550024 24.2925,13.379 C24.366167,12.9029976 24.403,12.2966703 24.403,11.56 C24.403,10.8233296 24.366167,10.2198357 24.2925,9.7495 C24.218833,9.27916431 24.1140007,8.91083466 23.978,8.6445 C23.8419993,8.37816533 23.6833342,8.19400051 23.502,8.092 C23.3206658,7.98999949 23.1223344,7.939 22.907,7.939 C22.702999,7.939 22.5103342,7.98999949 22.329,8.092 C22.1476658,8.19400051 21.9890007,8.37816533 21.853,8.6445 C21.7169993,8.91083466 21.6093337,9.27916431 21.53,9.7495 C21.4506663,10.2198357 21.411,10.8233296 21.411,11.56 C21.411,12.2966703 21.4506663,12.9029976 21.53,13.379 C21.6093337,13.8550024 21.7169993,14.2346652 21.853,14.518 C21.9890007,14.8013347 22.1476658,14.9968328 22.329,15.1045 C22.5103342,15.2121672 22.702999,15.266 22.907,15.266 Z M28.5,17 L28.5,8.568 L30.54,8.568 L30.71,9.656 L30.778,9.656 C31.1293351,9.30466491 31.5033314,9.00150127 31.9,8.7465 C32.2966687,8.49149872 32.7726639,8.364 33.328,8.364 C33.9286697,8.364 34.4131648,8.48583211 34.7815,8.7295 C35.1498352,8.97316788 35.4416656,9.3216644 35.657,9.775 C36.0310019,9.38966474 36.4248313,9.05816805 36.8385,8.7805 C37.2521687,8.50283194 37.7423305,8.364 38.309,8.364 C39.2156712,8.364 39.8814979,8.66716363 40.3065,9.2735 C40.7315021,9.87983636 40.944,10.7099947 40.944,11.764 L40.944,17 L38.445,17 L38.445,12.087 C38.445,11.4749969 38.3628342,11.0556678 38.1985,10.829 C38.0341658,10.6023322 37.7706685,10.489 37.408,10.489 C36.9886646,10.489 36.5070027,10.7609973 35.963,11.305 L35.963,17 L33.464,17 L33.464,12.087 C33.464,11.4749969 33.3818342,11.0556678 33.2175,10.829 C33.0531658,10.6023322 32.7896685,10.489 32.427,10.489 C31.9963312,10.489 31.5203359,10.7609973 30.999,11.305 L30.999,17 L28.5,17 Z M43.069,17 L43.069,8.568 L45.109,8.568 L45.279,9.656 L45.347,9.656 C45.6983351,9.30466491 46.0723314,9.00150127 46.469,8.7465 C46.8656687,8.49149872 47.3416639,8.364 47.897,8.364 C48.4976697,8.364 48.9821648,8.48583211 49.3505,8.7295 C49.7188352,8.97316788 50.0106656,9.3216644 50.226,9.775 C50.6000019,9.38966474 50.9938313,9.05816805 51.4075,8.7805 C51.8211687,8.50283194 52.3113305,8.364 52.878,8.364 C53.7846712,8.364 54.4504979,8.66716363 54.8755,9.2735 C55.3005021,9.87983636 55.513,10.7099947 55.513,11.764 L55.513,17 L53.014,17 L53.014,12.087 C53.014,11.4749969 52.9318342,11.0556678 52.7675,10.829 C52.6031658,10.6023322 52.3396685,10.489 51.977,10.489 C51.5576646,10.489 51.0760027,10.7609973 50.532,11.305 L50.532,17 L48.033,17 L48.033,12.087 C48.033,11.4749969 47.9508342,11.0556678 47.7865,10.829 C47.6221658,10.6023322 47.3586685,10.489 46.996,10.489 C46.5653312,10.489 46.0893359,10.7609973 45.568,11.305 L45.568,17 L43.069,17 Z" id="100mm" fill="#093169" fill-rule="nonzero"></path>
                <polyline id="Rectangle-Copy-4" stroke="#CBD8F2" transform="translate(85.500000, 138.000000) rotate(-270.000000) translate(-85.500000, -138.000000) " points="14.7366667 145.5 14.5 130.5 156.5 130.5 156.5 145.5"></polyline>
                <polyline id="Rectangle-Copy-2" stroke="#CBD8F2" points="4.08166667 52 4 37 53 37 53 52"></polyline>
            </g>
        </g>
    </g>
</svg>