<?xml version="1.0" encoding="UTF-8"?>
<svg width="600px" height="415px" viewBox="0 0 600 415" version="1.1" xmlns="http://www.w3.org/2000/svg" xmlns:xlink="http://www.w3.org/1999/xlink">
    <!-- Generator: Sketch 59.1 (86144) - https://sketch.com -->
    <title>windowSurrounds/Chamfered-surround-2</title>
    <desc>Created with Sketch.</desc>
    <g id="windowSurrounds/Chamfered-surround-2" stroke="none" stroke-width="1" fill="none" fill-rule="evenodd">
        <rect fill="#F5F9FF" x="0" y="0" width="600" height="415"></rect>
        <g id="Group-4" transform="translate(152.000000, 39.000000)">
            <g id="Group-3">
                <g id="Group-2" transform="translate(0.000000, 63.000000)" stroke="#CBD8F2">
                    <g id="Group">
                        <rect id="Rectangle" fill="#FFFFFF" x="0" y="0" width="148" height="27"></rect>
                        <rect id="Rectangle-Copy" fill="#FFFFFF" x="9" y="23" width="130" height="4"></rect>
                        <line x1="9" y1="23" x2="13" y2="27" id="Line"></line>
                        <line x1="135" y1="23" x2="139" y2="27" id="Line-Copy" transform="translate(137.000000, 25.000000) rotate(-270.000000) translate(-137.000000, -25.000000) "></line>
                    </g>
                    <g id="Group-Copy" transform="translate(74.000000, 194.500000) rotate(-180.000000) translate(-74.000000, -194.500000) translate(0.000000, 186.000000)">
                        <rect id="Rectangle" fill="#FFFFFF" x="0" y="0" width="148" height="17"></rect>
                        <line x1="9" y1="15" x2="13" y2="17" id="Line"></line>
                        <line x1="136" y1="14" x2="138" y2="18" id="Line-Copy" transform="translate(137.000000, 16.000000) rotate(-270.000000) translate(-137.000000, -16.000000) "></line>
                    </g>
                    <rect id="Rectangle" fill="#FFFFFF" x="0" y="27" width="9" height="161"></rect>
                    <polygon id="Rectangle-Copy-2" fill="#FFFFFF" transform="translate(11.000000, 107.500000) scale(-1, 1) translate(-11.000000, -107.500000) " points="9 27 13 27 13 188 9 186"></polygon>
                    <polygon id="Rectangle-Copy-4" fill="#FFFFFF" transform="translate(137.000000, 107.500000) scale(-1, 1) rotate(-180.000000) translate(-137.000000, -107.500000) " points="135 29 139 27 139 188 135 188"></polygon>
                    <line x1="0" y1="190.5" x2="148" y2="190.5" id="Line-11"></line>
                </g>
                <polyline id="Rectangle-Copy-6" stroke="#CBD8F2" transform="translate(74.000000, 288.500000) rotate(-180.000000) translate(-74.000000, -288.500000) " points="0.246666667 296 0 281 148 281 148 296"></polyline>
                <polyline id="Rectangle-Copy-7" stroke="#CBD8F2" points="13.2033333 48 13 33 135 33 135 48"></polyline>
                <path d="M25.2625,328 L25.2625,316.916 L27.9995,316.916 L29.7845,321.846 L29.95025,322.345375 L29.95025,322.345375 L30.1075,322.8575 C30.2095005,323.203168 30.3171661,323.545998 30.4305,323.886 L30.4985,323.886 L30.662125,323.373875 L30.662125,323.373875 L30.813,322.8575 C30.9093338,322.511832 31.0141661,322.174668 31.1275,321.846 L32.8785,316.916 L35.5985,316.916 L35.5985,328 L33.3205,328 L33.3205,323.937 C33.3205,323.664999 33.3318332,323.364668 33.3545,323.036 C33.3771668,322.707332 33.4054998,322.375835 33.4395,322.0415 L33.5415,321.0555 C33.5755002,320.732498 33.6094998,320.435001 33.6435,320.163 L33.5755,320.163 L32.6745,322.798 L31.0935,327.031 L29.7165,327.031 L28.1355,322.798 L27.2515,320.163 L27.1835,320.163 L27.2515,320.741 L27.2515,320.741 L27.3875,322.0415 L27.3875,322.0415 C27.4215002,322.375835 27.4498332,322.707332 27.4725,323.036 C27.4951668,323.364668 27.5065,323.664999 27.5065,323.937 L27.5065,328 L25.2625,328 Z M40.1375,328.204 C39.7521647,328.204 39.4036682,328.138834 39.092,328.0085 C38.7803318,327.878166 38.5168344,327.696834 38.3015,327.4645 C38.0861656,327.232166 37.9190006,326.963002 37.8,326.657 C37.6809994,326.350998 37.6215,326.016668 37.6215,325.654 C37.6215,324.769996 37.9954963,324.078669 38.7435,323.58 C39.4915037,323.081331 40.6984917,322.747001 42.3645,322.577 C42.3418332,322.202998 42.2313343,321.905501 42.033,321.6845 C41.8346657,321.463499 41.503169,321.353 41.0385,321.353 C40.6758315,321.353 40.3160018,321.420999 39.959,321.557 C39.6019982,321.693001 39.219502,321.879999 38.8115,322.118 L37.9105,320.469 C38.4545027,320.140332 39.023997,319.874001 39.619,319.67 C40.214003,319.465999 40.84583,319.364 41.5145,319.364 C42.6025054,319.364 43.4326638,319.67283 44.005,320.2905 C44.5773362,320.90817 44.8635,321.86866 44.8635,323.172 L44.8635,328 L42.8235,328 L42.6535,327.133 L42.5855,327.133 C42.2228315,327.450335 41.8431686,327.708166 41.4465,327.9065 C41.0498313,328.104834 40.6135024,328.204 40.1375,328.204 Z M40.9875,326.266 C41.2708347,326.266 41.514499,326.203667 41.7185,326.079 C41.922501,325.954333 42.1378322,325.778668 42.3645,325.552 L42.3645,324.073 C41.4804956,324.197667 40.8685017,324.378999 40.5285,324.617 C40.1884983,324.855001 40.0185,325.138332 40.0185,325.467 C40.0185,325.739001 40.1063325,325.940166 40.282,326.0705 C40.4576675,326.200834 40.6928319,326.266 40.9875,326.266 Z M46.1045,328 L48.6885,323.614 L46.2575,319.568 L48.9435,319.568 L49.6915,320.928 L50.04,321.6505 L50.04,321.6505 C50.1590006,321.894168 50.2808327,322.134999 50.4055,322.373 L50.4735,322.373 L50.61375,322.013875 L50.61375,322.013875 L50.7625,321.6505 C50.8645005,321.406832 50.9608329,321.166001 51.0515,320.928 L51.6295,319.568 L54.2135,319.568 L51.7655,323.903 L54.3665,328 L51.6805,328 L50.8645,326.606 L50.662625,326.24475 L50.662625,326.24475 L50.465,325.875 C50.334666,325.625665 50.2015007,325.382001 50.0655,325.144 L49.9975,325.144 L49.84025,325.503125 L49.84025,325.503125 L49.6745,325.8665 C49.5611661,326.110168 49.4535005,326.356665 49.3515,326.606 L48.6885,328 L46.1045,328 Z M59.1945,328 L59.1945,325.977 L61.5405,325.977 L61.5405,319.738 L59.5175,319.738 L59.5175,318.191 C60.1068363,318.077666 60.605498,317.941667 61.0135,317.783 C61.421502,317.624333 61.8181647,317.431668 62.2035,317.205 L64.0395,317.205 L64.0395,325.977 L66.0625,325.977 L66.0625,328 L59.1945,328 Z M71.9785,328 L71.9785,325.416 L67.3035,325.416 L67.3035,323.699 L71.2475,317.205 L74.3075,317.205 L74.3075,323.512 L75.5485,323.512 L75.5485,325.416 L74.3075,325.416 L74.3075,328 L71.9785,328 Z M69.7005,323.512 L71.9785,323.512 L71.9785,321.761 C71.9785,321.409665 71.9898332,321.004502 72.0125,320.5455 L72.0669,319.55814 C72.0714333,319.48538 72.0759666,319.415 72.0805,319.347 L72.0125,319.347 C71.8764993,319.641668 71.7348341,319.941998 71.5875,320.248 C71.4401659,320.554002 71.2871675,320.859998 71.1285,321.166 L69.7005,323.512 Z M80.4445,328.204 C79.8664971,328.204 79.3395024,328.082168 78.8635,327.8385 C78.3874976,327.594832 77.982335,327.235002 77.648,326.759 C77.313665,326.282998 77.0530009,325.69367 76.866,324.991 C76.6789991,324.28833 76.5855,323.478005 76.5855,322.56 C76.5855,321.641995 76.6789991,320.837337 76.866,320.146 C77.0530009,319.454663 77.313665,318.873836 77.648,318.4035 C77.982335,317.933164 78.3874976,317.581834 78.8635,317.3495 C79.3395024,317.117166 79.8664971,317.001 80.4445,317.001 C81.0225029,317.001 81.5494976,317.117166 82.0255,317.3495 C82.5015024,317.581834 82.906665,317.933164 83.241,318.4035 C83.575335,318.873836 83.8359991,319.454663 84.023,320.146 C84.2100009,320.837337 84.3035,321.641995 84.3035,322.56 C84.3035,323.478005 84.2100009,324.28833 84.023,324.991 C83.8359991,325.69367 83.575335,326.282998 83.241,326.759 C82.906665,327.235002 82.5015024,327.594832 82.0255,327.8385 C81.5494976,328.082168 81.0225029,328.204 80.4445,328.204 Z M80.4445,326.266 C80.6598344,326.266 80.8581658,326.212167 81.0395,326.1045 C81.2208342,325.996833 81.3794993,325.801335 81.5155,325.518 C81.6515007,325.234665 81.756333,324.855002 81.83,324.379 C81.903667,323.902998 81.9405,323.29667 81.9405,322.56 C81.9405,321.82333 81.903667,321.219836 81.83,320.7495 C81.756333,320.279164 81.6515007,319.910835 81.5155,319.6445 C81.3794993,319.378165 81.2208342,319.194001 81.0395,319.092 C80.8581658,318.989999 80.6598344,318.939 80.4445,318.939 C80.240499,318.939 80.0478342,318.989999 79.8665,319.092 C79.6851658,319.194001 79.5265007,319.378165 79.3905,319.6445 C79.2544993,319.910835 79.1468337,320.279164 79.0675,320.7495 C78.9881663,321.219836 78.9485,321.82333 78.9485,322.56 C78.9485,323.29667 78.9881663,323.902998 79.0675,324.379 C79.1468337,324.855002 79.2544993,325.234665 79.3905,325.518 C79.5265007,325.801335 79.6851658,325.996833 79.8665,326.1045 C80.0478342,326.212167 80.240499,326.266 80.4445,326.266 Z M89.4205,328.204 C88.8424971,328.204 88.3155024,328.082168 87.8395,327.8385 C87.3634976,327.594832 86.958335,327.235002 86.624,326.759 C86.289665,326.282998 86.0290009,325.69367 85.842,324.991 C85.6549991,324.28833 85.5615,323.478005 85.5615,322.56 C85.5615,321.641995 85.6549991,320.837337 85.842,320.146 C86.0290009,319.454663 86.289665,318.873836 86.624,318.4035 C86.958335,317.933164 87.3634976,317.581834 87.8395,317.3495 C88.3155024,317.117166 88.8424971,317.001 89.4205,317.001 C89.9985029,317.001 90.5254976,317.117166 91.0015,317.3495 C91.4775024,317.581834 91.882665,317.933164 92.217,318.4035 C92.551335,318.873836 92.8119991,319.454663 92.999,320.146 C93.1860009,320.837337 93.2795,321.641995 93.2795,322.56 C93.2795,323.478005 93.1860009,324.28833 92.999,324.991 C92.8119991,325.69367 92.551335,326.282998 92.217,326.759 C91.882665,327.235002 91.4775024,327.594832 91.0015,327.8385 C90.5254976,328.082168 89.9985029,328.204 89.4205,328.204 Z M89.4205,326.266 C89.6358344,326.266 89.8341658,326.212167 90.0155,326.1045 C90.1968342,325.996833 90.3554993,325.801335 90.4915,325.518 C90.6275007,325.234665 90.732333,324.855002 90.806,324.379 C90.879667,323.902998 90.9165,323.29667 90.9165,322.56 C90.9165,321.82333 90.879667,321.219836 90.806,320.7495 C90.732333,320.279164 90.6275007,319.910835 90.4915,319.6445 C90.3554993,319.378165 90.1968342,319.194001 90.0155,319.092 C89.8341658,318.989999 89.6358344,318.939 89.4205,318.939 C89.216499,318.939 89.0238342,318.989999 88.8425,319.092 C88.6611658,319.194001 88.5025007,319.378165 88.3665,319.6445 C88.2304993,319.910835 88.1228337,320.279164 88.0435,320.7495 C87.9641663,321.219836 87.9245,321.82333 87.9245,322.56 C87.9245,323.29667 87.9641663,323.902998 88.0435,324.379 C88.1228337,324.855002 88.2304993,325.234665 88.3665,325.518 C88.5025007,325.801335 88.6611658,325.996833 88.8425,326.1045 C89.0238342,326.212167 89.216499,326.266 89.4205,326.266 Z M95.0135,328 L95.0135,319.568 L97.0535,319.568 L97.2235,320.656 L97.2915,320.656 C97.6428351,320.304665 98.0168313,320.001501 98.4135,319.7465 C98.8101686,319.491499 99.2861639,319.364 99.8415,319.364 C100.44217,319.364 100.926665,319.485832 101.295,319.7295 C101.663335,319.973168 101.955166,320.321664 102.1705,320.775 C102.544502,320.389665 102.938331,320.058168 103.352,319.7805 C103.765669,319.502832 104.25583,319.364 104.8225,319.364 C105.729171,319.364 106.394998,319.667164 106.82,320.2735 C107.245002,320.879836 107.4575,321.709995 107.4575,322.764 L107.4575,328 L104.9585,328 L104.9585,323.087 C104.9585,322.474997 104.876334,322.055668 104.712,321.829 C104.547666,321.602332 104.284168,321.489 103.9215,321.489 C103.502165,321.489 103.020503,321.760997 102.4765,322.305 L102.4765,328 L99.9775,328 L99.9775,323.087 C99.9775,322.474997 99.8953342,322.055668 99.731,321.829 C99.5666658,321.602332 99.3031685,321.489 98.9405,321.489 C98.5098312,321.489 98.0338359,321.760997 97.5125,322.305 L97.5125,328 L95.0135,328 Z M109.5825,328 L109.5825,319.568 L111.6225,319.568 L111.7925,320.656 L111.8605,320.656 C112.211835,320.304665 112.585831,320.001501 112.9825,319.7465 C113.379169,319.491499 113.855164,319.364 114.4105,319.364 C115.01117,319.364 115.495665,319.485832 115.864,319.7295 C116.232335,319.973168 116.524166,320.321664 116.7395,320.775 C117.113502,320.389665 117.507331,320.058168 117.921,319.7805 C118.334669,319.502832 118.82483,319.364 119.3915,319.364 C120.298171,319.364 120.963998,319.667164 121.389,320.2735 C121.814002,320.879836 122.0265,321.709995 122.0265,322.764 L122.0265,328 L119.5275,328 L119.5275,323.087 C119.5275,322.474997 119.445334,322.055668 119.281,321.829 C119.116666,321.602332 118.853168,321.489 118.4905,321.489 C118.071165,321.489 117.589503,321.760997 117.0455,322.305 L117.0455,328 L114.5465,328 L114.5465,323.087 C114.5465,322.474997 114.464334,322.055668 114.3,321.829 C114.135666,321.602332 113.872168,321.489 113.5095,321.489 C113.078831,321.489 112.602836,321.760997 112.0815,322.305 L112.0815,328 L109.5825,328 Z M40.2565,353.128 L40.2565,341.568 L42.2965,341.568 L42.4665,342.401 L42.5345,342.401 C42.8631683,342.106332 43.2343313,341.859834 43.648,341.6615 C44.0616687,341.463166 44.4894978,341.364 44.9315,341.364 C45.4415025,341.364 45.900498,341.465999 46.3085,341.67 C46.716502,341.874001 47.0621652,342.162998 47.3455,342.537 C47.6288347,342.911002 47.8469992,343.361497 48,343.8885 C48.1530008,344.415503 48.2295,345.001997 48.2295,345.648 C48.2295,346.373337 48.1303343,347.016497 47.932,347.5775 C47.7336657,348.138503 47.467335,348.614498 47.133,349.0055 C46.798665,349.396502 46.4190021,349.693999 45.994,349.898 C45.5689979,350.102001 45.1298356,350.204 44.6765,350.204 C44.3138315,350.204 43.9625017,350.127501 43.6225,349.9745 C43.2824983,349.821499 42.9651681,349.603335 42.6705,349.32 L42.7555,350.663 L42.7555,353.128 L40.2565,353.128 Z M44.0985,348.164 C44.5291688,348.164 44.8974985,347.968502 45.2035,347.5775 C45.5095015,347.186498 45.6625,346.554671 45.6625,345.682 C45.6625,344.163326 45.1751715,343.404 44.2005,343.404 C43.7131642,343.404 43.2315024,343.658997 42.7555,344.169 L42.7555,347.62 C42.9821678,347.824001 43.2088322,347.965666 43.4355,348.045 C43.6621678,348.124334 43.8831656,348.164 44.0985,348.164 Z M53.7715,350.204 C53.1708303,350.204 52.6098359,350.104834 52.0885,349.9065 C51.5671641,349.708166 51.1138353,349.419169 50.7285,349.0395 C50.3431647,348.659831 50.0428344,348.198003 49.8275,347.654 C49.6121656,347.109997 49.5045,346.48667 49.5045,345.784 C49.5045,345.103997 49.6178322,344.489169 49.8445,343.9395 C50.0711678,343.389831 50.3686648,342.925169 50.737,342.5455 C51.1053352,342.165831 51.5274976,341.874001 52.0035,341.67 C52.4795024,341.465999 52.9724974,341.364 53.4825,341.364 C54.0831697,341.364 54.6073311,341.465999 55.055,341.67 C55.5026689,341.874001 55.8766652,342.157332 56.177,342.52 C56.4773348,342.882668 56.7011659,343.310498 56.8485,343.8035 C56.9958341,344.296502 57.0695,344.831997 57.0695,345.41 C57.0695,345.636668 57.0581668,345.851999 57.0355,346.056 L57.0015,346.32375 C56.9901667,346.40025 56.9788334,346.464 56.9675,346.515 L51.9185,346.515 C52.0318339,347.127003 52.283998,347.577499 52.675,347.8665 C53.066002,348.155501 53.5448305,348.3 54.1115,348.3 C54.7121697,348.3 55.3184969,348.113002 55.9305,347.739 L56.7635,349.252 C56.3328312,349.546668 55.8540026,349.778999 55.327,349.949 C54.7999974,350.119001 54.2815025,350.204 53.7715,350.204 Z M51.9015,344.866 L54.9445,344.866 C54.9445,344.389998 54.8368344,344.004668 54.6215,343.71 C54.4061656,343.415332 54.0435025,343.268 53.5335,343.268 C53.1368313,343.268 52.7883348,343.398332 52.488,343.659 C52.1876652,343.919668 51.9921671,344.321997 51.9015,344.866 Z M58.8035,350 L58.8035,341.568 L60.8435,341.568 L61.0135,343.047 L61.0815,343.047 C61.3875015,342.468997 61.7558312,342.044001 62.1865,341.772 C62.6171688,341.499999 63.0478312,341.364 63.4785,341.364 C63.7165012,341.364 63.9119992,341.378167 64.065,341.4065 C64.2180008,341.434833 64.3568327,341.477333 64.4815,341.534 L64.0735,343.693 C63.9148325,343.647666 63.7675007,343.613667 63.6315,343.591 C63.4954993,343.568333 63.3368342,343.557 63.1555,343.557 C62.8381651,343.557 62.5066684,343.670332 62.161,343.897 C61.8153316,344.123668 61.5291678,344.525997 61.3025,345.104 L61.3025,350 L58.8035,350 Z M68.9695,353.128 L68.9695,341.568 L71.0095,341.568 L71.1795,342.401 L71.2475,342.401 C71.5761683,342.106332 71.9473313,341.859834 72.361,341.6615 C72.7746687,341.463166 73.2024978,341.364 73.6445,341.364 C74.1545025,341.364 74.613498,341.465999 75.0215,341.67 C75.429502,341.874001 75.7751652,342.162998 76.0585,342.537 C76.3418347,342.911002 76.5599992,343.361497 76.713,343.8885 C76.8660008,344.415503 76.9425,345.001997 76.9425,345.648 C76.9425,346.373337 76.8433343,347.016497 76.645,347.5775 C76.4466657,348.138503 76.180335,348.614498 75.846,349.0055 C75.511665,349.396502 75.1320021,349.693999 74.707,349.898 C74.2819979,350.102001 73.8428356,350.204 73.3895,350.204 C73.0268315,350.204 72.6755017,350.127501 72.3355,349.9745 C71.9954983,349.821499 71.6781681,349.603335 71.3835,349.32 L71.4685,350.663 L71.4685,353.128 L68.9695,353.128 Z M72.8115,348.164 C73.2421688,348.164 73.6104985,347.968502 73.9165,347.5775 C74.2225015,347.186498 74.3755,346.554671 74.3755,345.682 C74.3755,344.163326 73.8881715,343.404 72.9135,343.404 C72.4261642,343.404 71.9445024,343.658997 71.4685,344.169 L71.4685,347.62 C71.6951678,347.824001 71.9218322,347.965666 72.1485,348.045 C72.3751678,348.124334 72.5961656,348.164 72.8115,348.164 Z M78.7105,350 L78.7105,341.568 L81.2095,341.568 L81.2095,350 L78.7105,350 Z M79.9515,340.327 C79.5321646,340.327 79.1865014,340.205168 78.9145,339.9615 C78.6424986,339.717832 78.5065,339.403335 78.5065,339.018 C78.5065,338.632665 78.6424986,338.321001 78.9145,338.083 C79.1865014,337.844999 79.5321646,337.726 79.9515,337.726 C80.3821688,337.726 80.7306653,337.844999 80.997,338.083 C81.2633347,338.321001 81.3965,338.632665 81.3965,339.018 C81.3965,339.403335 81.2633347,339.717832 80.997,339.9615 C80.7306653,340.205168 80.3821688,340.327 79.9515,340.327 Z M87.1765,350.204 C86.5758303,350.204 86.0148359,350.104834 85.4935,349.9065 C84.9721641,349.708166 84.5188353,349.419169 84.1335,349.0395 C83.7481647,348.659831 83.4478344,348.198003 83.2325,347.654 C83.0171656,347.109997 82.9095,346.48667 82.9095,345.784 C82.9095,345.103997 83.0228322,344.489169 83.2495,343.9395 C83.4761678,343.389831 83.7736648,342.925169 84.142,342.5455 C84.5103352,342.165831 84.9324976,341.874001 85.4085,341.67 C85.8845024,341.465999 86.3774974,341.364 86.8875,341.364 C87.4881697,341.364 88.0123311,341.465999 88.46,341.67 C88.9076689,341.874001 89.2816652,342.157332 89.582,342.52 C89.8823348,342.882668 90.1061659,343.310498 90.2535,343.8035 C90.4008341,344.296502 90.4745,344.831997 90.4745,345.41 C90.4745,345.636668 90.4631668,345.851999 90.4405,346.056 L90.4065,346.32375 C90.3951667,346.40025 90.3838334,346.464 90.3725,346.515 L85.3235,346.515 C85.4368339,347.127003 85.688998,347.577499 86.08,347.8665 C86.471002,348.155501 86.9498305,348.3 87.5165,348.3 C88.1171697,348.3 88.7234969,348.113002 89.3355,347.739 L90.1685,349.252 C89.7378312,349.546668 89.2590026,349.778999 88.732,349.949 C88.2049974,350.119001 87.6865025,350.204 87.1765,350.204 Z M85.3065,344.866 L88.3495,344.866 C88.3495,344.389998 88.2418344,344.004668 88.0265,343.71 C87.8111656,343.415332 87.4485025,343.268 86.9385,343.268 C86.5418313,343.268 86.1933348,343.398332 85.893,343.659 C85.5926652,343.919668 85.3971671,344.321997 85.3065,344.866 Z M95.8805,350.204 C95.2911637,350.204 94.7443359,350.104834 94.24,349.9065 C93.7356641,349.708166 93.2965019,349.422002 92.9225,349.048 C92.5484981,348.673998 92.2538344,348.212169 92.0385,347.6625 C91.8231656,347.112831 91.7155,346.48667 91.7155,345.784 C91.7155,345.08133 91.8344988,344.455169 92.0725,343.9055 C92.3105012,343.355831 92.6306647,342.894002 93.033,342.52 C93.4353353,342.145998 93.9028307,341.859834 94.4355,341.6615 C94.9681693,341.463166 95.5234971,341.364 96.1015,341.364 C96.6228359,341.364 97.0846647,341.448999 97.487,341.619 C97.8893353,341.789001 98.2491651,342.004332 98.5665,342.265 L97.3935,343.88 C96.9968313,343.551332 96.6171685,343.387 96.2545,343.387 C95.6424969,343.387 95.1608351,343.602331 94.8095,344.033 C94.4581649,344.463669 94.2825,345.04733 94.2825,345.784 C94.2825,346.52067 94.4609982,347.104331 94.818,347.535 C95.1750018,347.965669 95.6254973,348.181 96.1695,348.181 C96.4415014,348.181 96.7049987,348.121501 96.96,348.0025 C97.2150013,347.883499 97.4558322,347.739001 97.6825,347.569 L98.6685,349.201 C98.2491646,349.563668 97.7958358,349.821499 97.3085,349.9745 C96.8211642,350.127501 96.345169,350.204 95.8805,350.204 Z M103.6325,341.364 C104.23317,341.364 104.757331,341.465999 105.205,341.67 C105.652669,341.874001 106.026665,342.157332 106.327,342.52 C106.627335,342.882668 106.851166,343.310498 106.9985,343.8035 C107.145834,344.296502 107.2195,344.831997 107.2195,345.41 C107.2195,345.636668 107.208167,345.851999 107.1855,346.056 L107.1515,346.32375 C107.140167,346.40025 107.128833,346.464 107.1175,346.515 L102.0685,346.515 C102.181834,347.127003 102.433998,347.577499 102.825,347.8665 C103.216002,348.155501 103.69483,348.3 104.2615,348.3 C104.86217,348.3 105.468497,348.113002 106.0805,347.739 L106.9135,349.252 C106.482831,349.546668 106.004003,349.778999 105.477,349.949 C104.949997,350.119001 104.431503,350.204 103.9215,350.204 C103.32083,350.204 102.759836,350.104834 102.2385,349.9065 C101.717164,349.708166 101.263835,349.419169 100.8785,349.0395 C100.493165,348.659831 100.192834,348.198003 99.9775,347.654 C99.7621656,347.109997 99.6545,346.48667 99.6545,345.784 C99.6545,345.103997 99.7678322,344.489169 99.9945,343.9395 C100.221168,343.389831 100.518665,342.925169 100.887,342.5455 C101.255335,342.165831 101.677498,341.874001 102.1535,341.67 C102.629502,341.465999 103.122497,341.364 103.6325,341.364 Z M103.6835,343.268 C103.286831,343.268 102.938335,343.398332 102.638,343.659 C102.337665,343.919668 102.142167,344.321997 102.0515,344.866 L102.0515,344.866 L105.0945,344.866 C105.0945,344.389998 104.986834,344.004668 104.7715,343.71 C104.556166,343.415332 104.193503,343.268 103.6835,343.268 Z" id="Max1400mmperpiece" fill="#093169" fill-rule="nonzero" transform="translate(73.644500, 335.022000) rotate(-360.000000) translate(-73.644500, -335.022000) "></path>
                <path d="M32.493,13.204 C31.7449963,13.204 31.0621698,13.0708347 30.4445,12.8045 C29.8268302,12.5381653 29.2970022,12.1556692 28.855,11.657 C28.4129978,11.1583308 28.0701679,10.5520036 27.8265,9.838 C27.5828321,9.12399643 27.461,8.3136712 27.461,7.407 C27.461,6.5003288 27.5828321,5.69283688 27.8265,4.9845 C28.0701679,4.27616313 28.4129978,3.68116908 28.855,3.1995 C29.2970022,2.71783093 29.8268302,2.34950128 30.4445,2.0945 C31.0621698,1.83949873 31.7449963,1.712 32.493,1.712 C33.2410037,1.712 33.9238302,1.83949873 34.5415,2.0945 C35.1591698,2.34950128 35.6889978,2.72066423 36.131,3.208 C36.5730022,3.69533577 36.9158321,4.29316313 37.1595,5.0015 C37.4031679,5.70983688 37.525,6.51166219 37.525,7.407 C37.525,8.3136712 37.4031679,9.12399643 37.1595,9.838 C36.9158321,10.5520036 36.5730022,11.1583308 36.131,11.657 C35.6889978,12.1556692 35.1591698,12.5381653 34.5415,12.8045 C33.9238302,13.0708347 33.2410037,13.204 32.493,13.204 Z M32.493,11.045 C33.2523371,11.045 33.8529978,10.7191699 34.295,10.0675 C34.7370022,9.41583008 34.958,8.52900561 34.958,7.407 C34.958,6.29632778 34.7370022,5.42933645 34.295,4.806 C33.8529978,4.18266355 33.2523371,3.871 32.493,3.871 C31.7336629,3.871 31.1330022,4.18266355 30.691,4.806 C30.2489978,5.42933645 30.028,6.29632778 30.028,7.407 C30.028,8.52900561 30.2489978,9.41583008 30.691,10.0675 C31.1330022,10.7191699 31.7336629,11.045 32.493,11.045 Z M39.412,16.128 L39.412,4.568 L41.452,4.568 L41.622,5.401 L41.69,5.401 C42.0186683,5.10633186 42.3898313,4.85983433 42.8035,4.6615 C43.2171687,4.46316568 43.6449978,4.364 44.087,4.364 C44.5970026,4.364 45.055998,4.46599898 45.464,4.67 C45.872002,4.87400102 46.2176653,5.16299813 46.501,5.537 C46.7843348,5.91100187 47.0024992,6.36149737 47.1555,6.8885 C47.3085008,7.41550264 47.385,8.00199677 47.385,8.648 C47.385,9.37333696 47.2858343,10.0164972 47.0875,10.5775 C46.8891657,11.1385028 46.622835,11.614498 46.2885,12.0055 C45.954165,12.396502 45.5745021,12.693999 45.1495,12.898 C44.7244979,13.102001 44.2853356,13.204 43.832,13.204 C43.4693315,13.204 43.1180017,13.1275008 42.778,12.9745 C42.4379983,12.8214992 42.1206681,12.6033348 41.826,12.32 L41.911,13.663 L41.911,16.128 L39.412,16.128 Z M43.254,11.164 C43.6846688,11.164 44.0529985,10.968502 44.359,10.5775 C44.6650015,10.186498 44.818,9.55467103 44.818,8.682 C44.818,7.16332574 44.3306715,6.404 43.356,6.404 C42.8686642,6.404 42.3870024,6.65899745 41.911,7.169 L41.911,10.62 C42.1376678,10.824001 42.3643322,10.9656663 42.591,11.045 C42.8176678,11.1243337 43.0386656,11.164 43.254,11.164 Z M52.927,13.204 C52.3263303,13.204 51.7653359,13.1048343 51.244,12.9065 C50.7226641,12.7081657 50.2693353,12.4191686 49.884,12.0395 C49.4986647,11.6598314 49.1983344,11.1980027 48.983,10.654 C48.7676656,10.1099973 48.66,9.48667018 48.66,8.784 C48.66,8.1039966 48.7733322,7.48916942 49,6.9395 C49.2266678,6.38983059 49.5241648,5.92516857 49.8925,5.5455 C50.2608352,5.16583144 50.6829976,4.87400102 51.159,4.67 C51.6350024,4.46599898 52.1279975,4.364 52.638,4.364 C53.2386697,4.364 53.7628311,4.46599898 54.2105,4.67 C54.6581689,4.87400102 55.0321652,5.15733152 55.3325,5.52 C55.6328348,5.88266848 55.8566659,6.31049754 56.004,6.8035 C56.1513341,7.29650247 56.225,7.83199711 56.225,8.41 C56.225,8.6366678 56.2136668,8.85199898 56.191,9.056 L56.157,9.32375019 C56.1456667,9.40025 56.1343334,9.46399975 56.123,9.515 L51.074,9.515 C51.1873339,10.1270031 51.439498,10.5774986 51.8305,10.8665 C52.221502,11.1555014 52.7003305,11.3 53.267,11.3 C53.8676697,11.3 54.4739969,11.1130019 55.086,10.739 L55.919,12.252 C55.4883312,12.5466681 55.0095026,12.7789992 54.4825,12.949 C53.9554974,13.1190009 53.4370026,13.204 52.927,13.204 Z M51.057,7.866 L54.1,7.866 C54.1,7.38999762 53.9923344,7.00466814 53.777,6.71 C53.5616656,6.41533186 53.1990026,6.268 52.689,6.268 C52.2923314,6.268 51.9438348,6.39833203 51.6435,6.659 C51.3431652,6.91966797 51.1476671,7.32199728 51.057,7.866 Z M57.959,13 L57.959,4.568 L59.999,4.568 L60.169,5.639 L60.237,5.639 C60.5996685,5.2989983 60.9963312,5.00150128 61.427,4.7465 C61.8576688,4.49149873 62.3619971,4.364 62.94,4.364 C63.8580046,4.364 64.5238313,4.66433033 64.9375,5.265 C65.3511687,5.86566967 65.558,6.69866134 65.558,7.764 L65.558,13 L63.059,13 L63.059,8.087 C63.059,7.47499694 62.9768342,7.0556678 62.8125,6.829 C62.6481658,6.6023322 62.3846685,6.489 62.022,6.489 C61.7046651,6.489 61.4326678,6.55983263 61.206,6.7015 C60.9793322,6.84316738 60.7300014,7.04433203 60.458,7.305 L60.458,13 L57.959,13 Z M67.683,13 L67.683,4.568 L70.182,4.568 L70.182,13 L67.683,13 Z M68.924,3.327 C68.5046646,3.327 68.1590014,3.20516789 67.887,2.9615 C67.6149986,2.71783212 67.479,2.40333526 67.479,2.018 C67.479,1.63266474 67.6149986,1.32100119 67.887,1.083 C68.1590014,0.84499881 68.5046646,0.726 68.924,0.726 C69.3546688,0.726 69.7031653,0.84499881 69.9695,1.083 C70.2358347,1.32100119 70.369,1.63266474 70.369,2.018 C70.369,2.40333526 70.2358347,2.71783212 69.9695,2.9615 C69.7031653,3.20516789 69.3546688,3.327 68.924,3.327 Z M72.375,13 L72.375,4.568 L74.415,4.568 L74.585,5.639 L74.653,5.639 C75.0156685,5.2989983 75.4123312,5.00150128 75.843,4.7465 C76.2736688,4.49149873 76.7779971,4.364 77.356,4.364 C78.2740046,4.364 78.9398313,4.66433033 79.3535,5.265 C79.7671687,5.86566967 79.974,6.69866134 79.974,7.764 L79.974,13 L77.475,13 L77.475,8.087 C77.475,7.47499694 77.3928342,7.0556678 77.2285,6.829 C77.0641658,6.6023322 76.8006685,6.489 76.438,6.489 C76.1206651,6.489 75.8486678,6.55983263 75.622,6.7015 C75.3953322,6.84316738 75.1460014,7.04433203 74.874,7.305 L74.874,13 L72.375,13 Z M85.108,16.587 C84.6093308,16.587 84.1475021,16.5445004 83.7225,16.4595 C83.2974979,16.3744996 82.9235016,16.2470009 82.6005,16.077 C82.2774984,15.9069992 82.0253342,15.6860014 81.844,15.414 C81.6626658,15.1419986 81.572,14.8190019 81.572,14.445 C81.572,13.7649966 81.9743293,13.1983356 82.779,12.745 L82.779,12.677 C82.5523322,12.5296659 82.3653341,12.3426678 82.218,12.116 C82.0706659,11.8893322 81.997,11.6003351 81.997,11.249 C81.997,10.9429985 82.0876658,10.6511681 82.269,10.3735 C82.4503342,10.0958319 82.6769986,9.86066763 82.949,9.668 L82.949,9.6 C82.6543319,9.39599898 82.3908345,9.10416857 82.1585,8.7245 C81.9261655,8.34483144 81.81,7.90566916 81.81,7.407 C81.81,6.89699745 81.9063324,6.45216857 82.099,6.0725 C82.2916676,5.69283144 82.5494984,5.37550128 82.8725,5.1205 C83.1955016,4.86549873 83.5666646,4.67566729 83.986,4.551 C84.4053354,4.42633271 84.8416644,4.364 85.295,4.364 C85.7936692,4.364 86.2299981,4.43199932 86.604,4.568 L89.681,4.568 L89.681,6.387 L88.338,6.387 C88.4173337,6.51166729 88.4824997,6.67033237 88.5335,6.863 C88.5845003,7.05566763 88.61,7.2653322 88.61,7.492 C88.61,7.97933577 88.5250009,8.40149822 88.355,8.7585 C88.1849992,9.11550179 87.9498348,9.41016551 87.6495,9.6425 C87.3491652,9.8748345 86.9978353,10.0476661 86.5955,10.161 C86.1931647,10.2743339 85.759669,10.331 85.295,10.331 C84.9663317,10.331 84.6263351,10.2743339 84.275,10.161 C84.1616661,10.2516671 84.0823336,10.3423329 84.037,10.433 C83.9916664,10.5236671 83.969,10.6426659 83.969,10.79 C83.969,11.0053344 84.0624991,11.1639995 84.2495,11.266 C84.4365009,11.3680005 84.7679976,11.419 85.244,11.419 L86.604,11.419 C87.6466719,11.419 88.4428306,11.586165 88.9925,11.9205 C89.5421694,12.254835 89.817,12.8016629 89.817,13.561 C89.817,14.0030022 89.7065011,14.4081648 89.4855,14.7765 C89.2644989,15.1448352 88.950002,15.4621653 88.542,15.7285 C88.133998,15.9948347 87.6410029,16.2044992 87.063,16.3575 C86.4849971,16.5105008 85.833337,16.587 85.108,16.587 Z M85.295,8.818 C85.6236683,8.818 85.8984989,8.7018345 86.1195,8.4695 C86.3405011,8.23716551 86.451,7.88300238 86.451,7.407 C86.451,6.96499779 86.3405011,6.6278345 86.1195,6.3955 C85.8984989,6.16316551 85.6236683,6.047 85.295,6.047 C84.9663317,6.047 84.6915011,6.1603322 84.4705,6.387 C84.2494989,6.6136678 84.139,6.9536644 84.139,7.407 C84.139,7.88300238 84.2494989,8.23716551 84.4705,8.4695 C84.6915011,8.7018345 84.9663317,8.818 85.295,8.818 Z M85.499,15.023 C86.0656695,15.023 86.5303315,14.9238343 86.893,14.7255 C87.2556685,14.5271657 87.437,14.2806681 87.437,13.986 C87.437,13.725332 87.3265011,13.5496671 87.1055,13.459 C86.8844989,13.3683329 86.5643354,13.323 86.145,13.323 L85.278,13.323 L84.9515996,13.31892 C84.8019999,13.31484 84.6728005,13.3077001 84.564,13.2975 C84.3826658,13.2804999 84.2240007,13.2550002 84.088,13.221 C83.7819985,13.4930014 83.629,13.7706653 83.629,14.054 C83.629,14.3713349 83.7989983,14.6121658 84.139,14.7765 C84.4790017,14.9408342 84.9323305,15.023 85.499,15.023 Z M97.059,13.204 C96.5036639,13.204 95.9341696,13.0963344 95.3505,12.881 C94.7668304,12.6656656 94.2596688,12.3823351 93.829,12.031 L94.951,10.467 C95.3363353,10.7616681 95.7046649,10.9826659 96.056,11.13 C96.4073351,11.2773341 96.7643315,11.351 97.127,11.351 C97.5010019,11.351 97.7729992,11.2886673 97.943,11.164 C98.1130009,11.0393327 98.198,10.8636678 98.198,10.637 C98.198,10.5009993 98.1498338,10.3791672 98.0535,10.2715 C97.9571662,10.1638328 97.8268342,10.0646671 97.6625,9.974 C97.4981658,9.88333288 97.314001,9.80116704 97.11,9.7275 L96.79975,9.61062503 L96.79975,9.61062503 L96.481,9.481 C96.220332,9.37899949 95.959668,9.26000068 95.699,9.124 C95.438332,8.98799932 95.2003344,8.82083433 94.985,8.6225 C94.7696656,8.42416568 94.5940007,8.19183467 94.458,7.9255 C94.3219993,7.65916534 94.254,7.35033509 94.254,6.999 C94.254,6.61366474 94.3304992,6.25666831 94.4835,5.928 C94.6365008,5.59933169 94.8546653,5.3216678 95.138,5.095 C95.4213348,4.8683322 95.7613314,4.68983399 96.158,4.5595 C96.5546687,4.42916602 96.9966642,4.364 97.484,4.364 C98.1300032,4.364 98.6966642,4.4744989 99.184,4.6955 C99.6713358,4.91650111 100.096332,5.16299864 100.459,5.435 L99.337,6.931 C99.0309985,6.7043322 98.7306681,6.52866729 98.436,6.404 C98.1413319,6.27933271 97.8466681,6.217 97.552,6.217 C96.9173302,6.217 96.6,6.43799779 96.6,6.88 C96.6,7.01600068 96.6453329,7.13216619 96.736,7.2285 C96.8266671,7.32483382 96.9484992,7.41266627 97.1015,7.492 C97.2545008,7.57133373 97.4301657,7.64783297 97.6285,7.7215 L98.249,7.951 L98.249,7.951 C98.5210014,8.05300051 98.7901653,8.16916602 99.0565,8.2995 C99.3228347,8.42983399 99.5664989,8.59133237 99.7875,8.784 C100.008501,8.97666763 100.186999,9.21183195 100.323,9.4895 C100.459001,9.76716806 100.527,10.0986647 100.527,10.484 C100.527,10.8693353 100.453334,11.2263317 100.306,11.555 C100.158666,11.8836683 99.9376681,12.1698321 99.643,12.4135 C99.3483319,12.6571679 98.9856688,12.8498326 98.555,12.9915 C98.1243312,13.1331674 97.6256695,13.204 97.059,13.204 Z M102.108,13 L102.108,4.568 L104.607,4.568 L104.607,13 L102.108,13 Z M103.349,3.327 C102.929665,3.327 102.584001,3.20516789 102.312,2.9615 C102.039999,2.71783212 101.904,2.40333526 101.904,2.018 C101.904,1.63266474 102.039999,1.32100119 102.312,1.083 C102.584001,0.84499881 102.929665,0.726 103.349,0.726 C103.779669,0.726 104.128165,0.84499881 104.3945,1.083 C104.660835,1.32100119 104.794,1.63266474 104.794,2.018 C104.794,2.40333526 104.660835,2.71783212 104.3945,2.9615 C104.128165,3.20516789 103.779669,3.327 103.349,3.327 Z M106.341,13 L106.341,11.657 L109.877,6.523 L106.732,6.523 L106.732,4.568 L112.988,4.568 L112.988,5.894 L109.452,11.045 L113.107,11.045 L113.107,13 L106.341,13 Z M118.105,4.364 C118.70567,4.364 119.229831,4.46599898 119.6775,4.67 C120.125169,4.87400102 120.499165,5.15733152 120.7995,5.52 C121.099835,5.88266848 121.323666,6.31049754 121.471,6.8035 C121.618334,7.29650247 121.692,7.83199711 121.692,8.41 C121.692,8.6366678 121.680667,8.85199898 121.658,9.056 L121.624,9.32375019 C121.612667,9.40025 121.601333,9.46399975 121.59,9.515 L116.541,9.515 C116.654334,10.1270031 116.906498,10.5774986 117.2975,10.8665 C117.688502,11.1555014 118.167331,11.3 118.734,11.3 C119.33467,11.3 119.940997,11.1130019 120.553,10.739 L121.386,12.252 C120.955331,12.5466681 120.476503,12.7789992 119.9495,12.949 C119.422497,13.1190009 118.904003,13.204 118.394,13.204 C117.79333,13.204 117.232336,13.1048343 116.711,12.9065 C116.189664,12.7081657 115.736335,12.4191686 115.351,12.0395 C114.965665,11.6598314 114.665334,11.1980027 114.45,10.654 C114.234666,10.1099973 114.127,9.48667018 114.127,8.784 C114.127,8.1039966 114.240332,7.48916942 114.467,6.9395 C114.693668,6.38983059 114.991165,5.92516857 115.3595,5.5455 C115.727835,5.16583144 116.149998,4.87400102 116.626,4.67 C117.102002,4.46599898 117.594997,4.364 118.105,4.364 Z M118.156,6.268 C117.759331,6.268 117.410835,6.39833203 117.1105,6.659 C116.810165,6.91966797 116.614667,7.32199728 116.524,7.866 L116.524,7.866 L119.567,7.866 C119.567,7.38999762 119.459334,7.00466814 119.244,6.71 C119.028666,6.41533186 118.666003,6.268 118.156,6.268 Z" id="Openingsize" fill="#093169" fill-rule="nonzero"></path>
            </g>
            <g id="Group-3-Copy" transform="translate(148.000000, 63.000000)" stroke="#CBD8F2">
                <g id="Group-2">
                    <g id="Group">
                        <rect id="Rectangle" fill="#FFFFFF" x="0" y="0" width="148" height="27"></rect>
                        <rect id="Rectangle-Copy" fill="#FFFFFF" x="9" y="23" width="130" height="4"></rect>
                        <line x1="9" y1="23" x2="13" y2="27" id="Line"></line>
                        <line x1="135" y1="23" x2="139" y2="27" id="Line-Copy" transform="translate(137.000000, 25.000000) rotate(-270.000000) translate(-137.000000, -25.000000) "></line>
                    </g>
                    <g id="Group-Copy" transform="translate(74.000000, 194.500000) rotate(-180.000000) translate(-74.000000, -194.500000) translate(0.000000, 186.000000)">
                        <rect id="Rectangle" fill="#FFFFFF" x="0" y="0" width="148" height="17"></rect>
                        <line x1="136" y1="14" x2="138" y2="18" id="Line-Copy" transform="translate(137.000000, 16.000000) rotate(-270.000000) translate(-137.000000, -16.000000) "></line>
                        <line x1="9" y1="15" x2="13" y2="17" id="Line"></line>
                    </g>
                    <rect id="Rectangle-Copy-3" fill="#FFFFFF" transform="translate(143.500000, 107.500000) rotate(-180.000000) translate(-143.500000, -107.500000) " x="139" y="27" width="9" height="161"></rect>
                    <polygon id="Rectangle-Copy-2" fill="#FFFFFF" transform="translate(11.000000, 107.500000) scale(-1, 1) translate(-11.000000, -107.500000) " points="9 27 13 27 13 188 9 186"></polygon>
                    <polygon id="Rectangle-Copy-4" fill="#FFFFFF" transform="translate(137.000000, 107.500000) scale(-1, 1) rotate(-180.000000) translate(-137.000000, -107.500000) " points="135 29 139 27 139 188 135 188"></polygon>
                    <line x1="0" y1="190.5" x2="148" y2="190.5" id="Line-11"></line>
                </g>
            </g>
            <rect id="Rectangle-Copy-3" stroke="#CBD8F2" fill="#FFFFFF" transform="translate(148.000000, 170.500000) rotate(-180.000000) translate(-148.000000, -170.500000) " x="139" y="90" width="18" height="161"></rect>
        </g>
        <g id="Group-3-Copy-3" transform="translate(300.000000, 39.000000)">
            <g id="Group-2" transform="translate(0.000000, 63.000000)" stroke="#CBD8F2">
                <g id="Group">
                    <rect id="Rectangle" fill="#FFFFFF" x="0" y="0" width="148" height="27"></rect>
                    <rect id="Rectangle-Copy" fill="#FFFFFF" x="9" y="23" width="130" height="4"></rect>
                    <line x1="9" y1="23" x2="13" y2="27" id="Line"></line>
                    <line x1="135" y1="23" x2="139" y2="27" id="Line-Copy" transform="translate(137.000000, 25.000000) rotate(-270.000000) translate(-137.000000, -25.000000) "></line>
                </g>
                <g id="Group-Copy" transform="translate(74.000000, 194.500000) rotate(-180.000000) translate(-74.000000, -194.500000) translate(0.000000, 186.000000)">
                    <rect id="Rectangle" fill="#FFFFFF" x="0" y="0" width="148" height="17"></rect>
                    <line x1="9" y1="15" x2="13" y2="17" id="Line"></line>
                    <line x1="136" y1="14" x2="138" y2="18" id="Line-Copy" transform="translate(137.000000, 16.000000) rotate(-270.000000) translate(-137.000000, -16.000000) "></line>
                </g>
                <polygon id="Rectangle-Copy-2" fill="#FFFFFF" transform="translate(11.000000, 107.500000) scale(-1, 1) translate(-11.000000, -107.500000) " points="9 27 13 27 13 188 9 186"></polygon>
                <polygon id="Rectangle-Copy-4" fill="#FFFFFF" transform="translate(137.000000, 107.500000) scale(-1, 1) rotate(-180.000000) translate(-137.000000, -107.500000) " points="135 29 139 27 139 188 135 188"></polygon>
                <line x1="0" y1="190.5" x2="148" y2="190.5" id="Line-11"></line>
            </g>
            <polyline id="Rectangle-Copy-6" stroke="#CBD8F2" transform="translate(74.000000, 288.500000) rotate(-180.000000) translate(-74.000000, -288.500000) " points="0.246666667 296 0 281 148 281 148 296"></polyline>
            <polyline id="Rectangle-Copy-7" stroke="#CBD8F2" points="13.2033333 48 13 33 135 33 135 48"></polyline>
            <path d="M25.2625,328 L25.2625,316.916 L27.9995,316.916 L29.7845,321.846 L29.95025,322.345375 L29.95025,322.345375 L30.1075,322.8575 C30.2095005,323.203168 30.3171661,323.545998 30.4305,323.886 L30.4985,323.886 L30.662125,323.373875 L30.662125,323.373875 L30.813,322.8575 C30.9093338,322.511832 31.0141661,322.174668 31.1275,321.846 L32.8785,316.916 L35.5985,316.916 L35.5985,328 L33.3205,328 L33.3205,323.937 C33.3205,323.664999 33.3318332,323.364668 33.3545,323.036 C33.3771668,322.707332 33.4054998,322.375835 33.4395,322.0415 L33.5415,321.0555 C33.5755002,320.732498 33.6094998,320.435001 33.6435,320.163 L33.5755,320.163 L32.6745,322.798 L31.0935,327.031 L29.7165,327.031 L28.1355,322.798 L27.2515,320.163 L27.1835,320.163 L27.2515,320.741 L27.2515,320.741 L27.3875,322.0415 L27.3875,322.0415 C27.4215002,322.375835 27.4498332,322.707332 27.4725,323.036 C27.4951668,323.364668 27.5065,323.664999 27.5065,323.937 L27.5065,328 L25.2625,328 Z M40.1375,328.204 C39.7521647,328.204 39.4036682,328.138834 39.092,328.0085 C38.7803318,327.878166 38.5168344,327.696834 38.3015,327.4645 C38.0861656,327.232166 37.9190006,326.963002 37.8,326.657 C37.6809994,326.350998 37.6215,326.016668 37.6215,325.654 C37.6215,324.769996 37.9954963,324.078669 38.7435,323.58 C39.4915037,323.081331 40.6984917,322.747001 42.3645,322.577 C42.3418332,322.202998 42.2313343,321.905501 42.033,321.6845 C41.8346657,321.463499 41.503169,321.353 41.0385,321.353 C40.6758315,321.353 40.3160018,321.420999 39.959,321.557 C39.6019982,321.693001 39.219502,321.879999 38.8115,322.118 L37.9105,320.469 C38.4545027,320.140332 39.023997,319.874001 39.619,319.67 C40.214003,319.465999 40.84583,319.364 41.5145,319.364 C42.6025054,319.364 43.4326638,319.67283 44.005,320.2905 C44.5773362,320.90817 44.8635,321.86866 44.8635,323.172 L44.8635,328 L42.8235,328 L42.6535,327.133 L42.5855,327.133 C42.2228315,327.450335 41.8431686,327.708166 41.4465,327.9065 C41.0498313,328.104834 40.6135024,328.204 40.1375,328.204 Z M40.9875,326.266 C41.2708347,326.266 41.514499,326.203667 41.7185,326.079 C41.922501,325.954333 42.1378322,325.778668 42.3645,325.552 L42.3645,324.073 C41.4804956,324.197667 40.8685017,324.378999 40.5285,324.617 C40.1884983,324.855001 40.0185,325.138332 40.0185,325.467 C40.0185,325.739001 40.1063325,325.940166 40.282,326.0705 C40.4576675,326.200834 40.6928319,326.266 40.9875,326.266 Z M46.1045,328 L48.6885,323.614 L46.2575,319.568 L48.9435,319.568 L49.6915,320.928 L50.04,321.6505 L50.04,321.6505 C50.1590006,321.894168 50.2808327,322.134999 50.4055,322.373 L50.4735,322.373 L50.61375,322.013875 L50.61375,322.013875 L50.7625,321.6505 C50.8645005,321.406832 50.9608329,321.166001 51.0515,320.928 L51.6295,319.568 L54.2135,319.568 L51.7655,323.903 L54.3665,328 L51.6805,328 L50.8645,326.606 L50.662625,326.24475 L50.662625,326.24475 L50.465,325.875 C50.334666,325.625665 50.2015007,325.382001 50.0655,325.144 L49.9975,325.144 L49.84025,325.503125 L49.84025,325.503125 L49.6745,325.8665 C49.5611661,326.110168 49.4535005,326.356665 49.3515,326.606 L48.6885,328 L46.1045,328 Z M59.1945,328 L59.1945,325.977 L61.5405,325.977 L61.5405,319.738 L59.5175,319.738 L59.5175,318.191 C60.1068363,318.077666 60.605498,317.941667 61.0135,317.783 C61.421502,317.624333 61.8181647,317.431668 62.2035,317.205 L64.0395,317.205 L64.0395,325.977 L66.0625,325.977 L66.0625,328 L59.1945,328 Z M71.9785,328 L71.9785,325.416 L67.3035,325.416 L67.3035,323.699 L71.2475,317.205 L74.3075,317.205 L74.3075,323.512 L75.5485,323.512 L75.5485,325.416 L74.3075,325.416 L74.3075,328 L71.9785,328 Z M69.7005,323.512 L71.9785,323.512 L71.9785,321.761 C71.9785,321.409665 71.9898332,321.004502 72.0125,320.5455 L72.0669,319.55814 C72.0714333,319.48538 72.0759666,319.415 72.0805,319.347 L72.0125,319.347 C71.8764993,319.641668 71.7348341,319.941998 71.5875,320.248 C71.4401659,320.554002 71.2871675,320.859998 71.1285,321.166 L69.7005,323.512 Z M80.4445,328.204 C79.8664971,328.204 79.3395024,328.082168 78.8635,327.8385 C78.3874976,327.594832 77.982335,327.235002 77.648,326.759 C77.313665,326.282998 77.0530009,325.69367 76.866,324.991 C76.6789991,324.28833 76.5855,323.478005 76.5855,322.56 C76.5855,321.641995 76.6789991,320.837337 76.866,320.146 C77.0530009,319.454663 77.313665,318.873836 77.648,318.4035 C77.982335,317.933164 78.3874976,317.581834 78.8635,317.3495 C79.3395024,317.117166 79.8664971,317.001 80.4445,317.001 C81.0225029,317.001 81.5494976,317.117166 82.0255,317.3495 C82.5015024,317.581834 82.906665,317.933164 83.241,318.4035 C83.575335,318.873836 83.8359991,319.454663 84.023,320.146 C84.2100009,320.837337 84.3035,321.641995 84.3035,322.56 C84.3035,323.478005 84.2100009,324.28833 84.023,324.991 C83.8359991,325.69367 83.575335,326.282998 83.241,326.759 C82.906665,327.235002 82.5015024,327.594832 82.0255,327.8385 C81.5494976,328.082168 81.0225029,328.204 80.4445,328.204 Z M80.4445,326.266 C80.6598344,326.266 80.8581658,326.212167 81.0395,326.1045 C81.2208342,325.996833 81.3794993,325.801335 81.5155,325.518 C81.6515007,325.234665 81.756333,324.855002 81.83,324.379 C81.903667,323.902998 81.9405,323.29667 81.9405,322.56 C81.9405,321.82333 81.903667,321.219836 81.83,320.7495 C81.756333,320.279164 81.6515007,319.910835 81.5155,319.6445 C81.3794993,319.378165 81.2208342,319.194001 81.0395,319.092 C80.8581658,318.989999 80.6598344,318.939 80.4445,318.939 C80.240499,318.939 80.0478342,318.989999 79.8665,319.092 C79.6851658,319.194001 79.5265007,319.378165 79.3905,319.6445 C79.2544993,319.910835 79.1468337,320.279164 79.0675,320.7495 C78.9881663,321.219836 78.9485,321.82333 78.9485,322.56 C78.9485,323.29667 78.9881663,323.902998 79.0675,324.379 C79.1468337,324.855002 79.2544993,325.234665 79.3905,325.518 C79.5265007,325.801335 79.6851658,325.996833 79.8665,326.1045 C80.0478342,326.212167 80.240499,326.266 80.4445,326.266 Z M89.4205,328.204 C88.8424971,328.204 88.3155024,328.082168 87.8395,327.8385 C87.3634976,327.594832 86.958335,327.235002 86.624,326.759 C86.289665,326.282998 86.0290009,325.69367 85.842,324.991 C85.6549991,324.28833 85.5615,323.478005 85.5615,322.56 C85.5615,321.641995 85.6549991,320.837337 85.842,320.146 C86.0290009,319.454663 86.289665,318.873836 86.624,318.4035 C86.958335,317.933164 87.3634976,317.581834 87.8395,317.3495 C88.3155024,317.117166 88.8424971,317.001 89.4205,317.001 C89.9985029,317.001 90.5254976,317.117166 91.0015,317.3495 C91.4775024,317.581834 91.882665,317.933164 92.217,318.4035 C92.551335,318.873836 92.8119991,319.454663 92.999,320.146 C93.1860009,320.837337 93.2795,321.641995 93.2795,322.56 C93.2795,323.478005 93.1860009,324.28833 92.999,324.991 C92.8119991,325.69367 92.551335,326.282998 92.217,326.759 C91.882665,327.235002 91.4775024,327.594832 91.0015,327.8385 C90.5254976,328.082168 89.9985029,328.204 89.4205,328.204 Z M89.4205,326.266 C89.6358344,326.266 89.8341658,326.212167 90.0155,326.1045 C90.1968342,325.996833 90.3554993,325.801335 90.4915,325.518 C90.6275007,325.234665 90.732333,324.855002 90.806,324.379 C90.879667,323.902998 90.9165,323.29667 90.9165,322.56 C90.9165,321.82333 90.879667,321.219836 90.806,320.7495 C90.732333,320.279164 90.6275007,319.910835 90.4915,319.6445 C90.3554993,319.378165 90.1968342,319.194001 90.0155,319.092 C89.8341658,318.989999 89.6358344,318.939 89.4205,318.939 C89.216499,318.939 89.0238342,318.989999 88.8425,319.092 C88.6611658,319.194001 88.5025007,319.378165 88.3665,319.6445 C88.2304993,319.910835 88.1228337,320.279164 88.0435,320.7495 C87.9641663,321.219836 87.9245,321.82333 87.9245,322.56 C87.9245,323.29667 87.9641663,323.902998 88.0435,324.379 C88.1228337,324.855002 88.2304993,325.234665 88.3665,325.518 C88.5025007,325.801335 88.6611658,325.996833 88.8425,326.1045 C89.0238342,326.212167 89.216499,326.266 89.4205,326.266 Z M95.0135,328 L95.0135,319.568 L97.0535,319.568 L97.2235,320.656 L97.2915,320.656 C97.6428351,320.304665 98.0168313,320.001501 98.4135,319.7465 C98.8101686,319.491499 99.2861639,319.364 99.8415,319.364 C100.44217,319.364 100.926665,319.485832 101.295,319.7295 C101.663335,319.973168 101.955166,320.321664 102.1705,320.775 C102.544502,320.389665 102.938331,320.058168 103.352,319.7805 C103.765669,319.502832 104.25583,319.364 104.8225,319.364 C105.729171,319.364 106.394998,319.667164 106.82,320.2735 C107.245002,320.879836 107.4575,321.709995 107.4575,322.764 L107.4575,328 L104.9585,328 L104.9585,323.087 C104.9585,322.474997 104.876334,322.055668 104.712,321.829 C104.547666,321.602332 104.284168,321.489 103.9215,321.489 C103.502165,321.489 103.020503,321.760997 102.4765,322.305 L102.4765,328 L99.9775,328 L99.9775,323.087 C99.9775,322.474997 99.8953342,322.055668 99.731,321.829 C99.5666658,321.602332 99.3031685,321.489 98.9405,321.489 C98.5098312,321.489 98.0338359,321.760997 97.5125,322.305 L97.5125,328 L95.0135,328 Z M109.5825,328 L109.5825,319.568 L111.6225,319.568 L111.7925,320.656 L111.8605,320.656 C112.211835,320.304665 112.585831,320.001501 112.9825,319.7465 C113.379169,319.491499 113.855164,319.364 114.4105,319.364 C115.01117,319.364 115.495665,319.485832 115.864,319.7295 C116.232335,319.973168 116.524166,320.321664 116.7395,320.775 C117.113502,320.389665 117.507331,320.058168 117.921,319.7805 C118.334669,319.502832 118.82483,319.364 119.3915,319.364 C120.298171,319.364 120.963998,319.667164 121.389,320.2735 C121.814002,320.879836 122.0265,321.709995 122.0265,322.764 L122.0265,328 L119.5275,328 L119.5275,323.087 C119.5275,322.474997 119.445334,322.055668 119.281,321.829 C119.116666,321.602332 118.853168,321.489 118.4905,321.489 C118.071165,321.489 117.589503,321.760997 117.0455,322.305 L117.0455,328 L114.5465,328 L114.5465,323.087 C114.5465,322.474997 114.464334,322.055668 114.3,321.829 C114.135666,321.602332 113.872168,321.489 113.5095,321.489 C113.078831,321.489 112.602836,321.760997 112.0815,322.305 L112.0815,328 L109.5825,328 Z M40.2565,353.128 L40.2565,341.568 L42.2965,341.568 L42.4665,342.401 L42.5345,342.401 C42.8631683,342.106332 43.2343313,341.859834 43.648,341.6615 C44.0616687,341.463166 44.4894978,341.364 44.9315,341.364 C45.4415025,341.364 45.900498,341.465999 46.3085,341.67 C46.716502,341.874001 47.0621652,342.162998 47.3455,342.537 C47.6288347,342.911002 47.8469992,343.361497 48,343.8885 C48.1530008,344.415503 48.2295,345.001997 48.2295,345.648 C48.2295,346.373337 48.1303343,347.016497 47.932,347.5775 C47.7336657,348.138503 47.467335,348.614498 47.133,349.0055 C46.798665,349.396502 46.4190021,349.693999 45.994,349.898 C45.5689979,350.102001 45.1298356,350.204 44.6765,350.204 C44.3138315,350.204 43.9625017,350.127501 43.6225,349.9745 C43.2824983,349.821499 42.9651681,349.603335 42.6705,349.32 L42.7555,350.663 L42.7555,353.128 L40.2565,353.128 Z M44.0985,348.164 C44.5291688,348.164 44.8974985,347.968502 45.2035,347.5775 C45.5095015,347.186498 45.6625,346.554671 45.6625,345.682 C45.6625,344.163326 45.1751715,343.404 44.2005,343.404 C43.7131642,343.404 43.2315024,343.658997 42.7555,344.169 L42.7555,347.62 C42.9821678,347.824001 43.2088322,347.965666 43.4355,348.045 C43.6621678,348.124334 43.8831656,348.164 44.0985,348.164 Z M53.7715,350.204 C53.1708303,350.204 52.6098359,350.104834 52.0885,349.9065 C51.5671641,349.708166 51.1138353,349.419169 50.7285,349.0395 C50.3431647,348.659831 50.0428344,348.198003 49.8275,347.654 C49.6121656,347.109997 49.5045,346.48667 49.5045,345.784 C49.5045,345.103997 49.6178322,344.489169 49.8445,343.9395 C50.0711678,343.389831 50.3686648,342.925169 50.737,342.5455 C51.1053352,342.165831 51.5274976,341.874001 52.0035,341.67 C52.4795024,341.465999 52.9724974,341.364 53.4825,341.364 C54.0831697,341.364 54.6073311,341.465999 55.055,341.67 C55.5026689,341.874001 55.8766652,342.157332 56.177,342.52 C56.4773348,342.882668 56.7011659,343.310498 56.8485,343.8035 C56.9958341,344.296502 57.0695,344.831997 57.0695,345.41 C57.0695,345.636668 57.0581668,345.851999 57.0355,346.056 L57.0015,346.32375 C56.9901667,346.40025 56.9788334,346.464 56.9675,346.515 L51.9185,346.515 C52.0318339,347.127003 52.283998,347.577499 52.675,347.8665 C53.066002,348.155501 53.5448305,348.3 54.1115,348.3 C54.7121697,348.3 55.3184969,348.113002 55.9305,347.739 L56.7635,349.252 C56.3328312,349.546668 55.8540026,349.778999 55.327,349.949 C54.7999974,350.119001 54.2815025,350.204 53.7715,350.204 Z M51.9015,344.866 L54.9445,344.866 C54.9445,344.389998 54.8368344,344.004668 54.6215,343.71 C54.4061656,343.415332 54.0435025,343.268 53.5335,343.268 C53.1368313,343.268 52.7883348,343.398332 52.488,343.659 C52.1876652,343.919668 51.9921671,344.321997 51.9015,344.866 Z M58.8035,350 L58.8035,341.568 L60.8435,341.568 L61.0135,343.047 L61.0815,343.047 C61.3875015,342.468997 61.7558312,342.044001 62.1865,341.772 C62.6171688,341.499999 63.0478312,341.364 63.4785,341.364 C63.7165012,341.364 63.9119992,341.378167 64.065,341.4065 C64.2180008,341.434833 64.3568327,341.477333 64.4815,341.534 L64.0735,343.693 C63.9148325,343.647666 63.7675007,343.613667 63.6315,343.591 C63.4954993,343.568333 63.3368342,343.557 63.1555,343.557 C62.8381651,343.557 62.5066684,343.670332 62.161,343.897 C61.8153316,344.123668 61.5291678,344.525997 61.3025,345.104 L61.3025,350 L58.8035,350 Z M68.9695,353.128 L68.9695,341.568 L71.0095,341.568 L71.1795,342.401 L71.2475,342.401 C71.5761683,342.106332 71.9473313,341.859834 72.361,341.6615 C72.7746687,341.463166 73.2024978,341.364 73.6445,341.364 C74.1545025,341.364 74.613498,341.465999 75.0215,341.67 C75.429502,341.874001 75.7751652,342.162998 76.0585,342.537 C76.3418347,342.911002 76.5599992,343.361497 76.713,343.8885 C76.8660008,344.415503 76.9425,345.001997 76.9425,345.648 C76.9425,346.373337 76.8433343,347.016497 76.645,347.5775 C76.4466657,348.138503 76.180335,348.614498 75.846,349.0055 C75.511665,349.396502 75.1320021,349.693999 74.707,349.898 C74.2819979,350.102001 73.8428356,350.204 73.3895,350.204 C73.0268315,350.204 72.6755017,350.127501 72.3355,349.9745 C71.9954983,349.821499 71.6781681,349.603335 71.3835,349.32 L71.4685,350.663 L71.4685,353.128 L68.9695,353.128 Z M72.8115,348.164 C73.2421688,348.164 73.6104985,347.968502 73.9165,347.5775 C74.2225015,347.186498 74.3755,346.554671 74.3755,345.682 C74.3755,344.163326 73.8881715,343.404 72.9135,343.404 C72.4261642,343.404 71.9445024,343.658997 71.4685,344.169 L71.4685,347.62 C71.6951678,347.824001 71.9218322,347.965666 72.1485,348.045 C72.3751678,348.124334 72.5961656,348.164 72.8115,348.164 Z M78.7105,350 L78.7105,341.568 L81.2095,341.568 L81.2095,350 L78.7105,350 Z M79.9515,340.327 C79.5321646,340.327 79.1865014,340.205168 78.9145,339.9615 C78.6424986,339.717832 78.5065,339.403335 78.5065,339.018 C78.5065,338.632665 78.6424986,338.321001 78.9145,338.083 C79.1865014,337.844999 79.5321646,337.726 79.9515,337.726 C80.3821688,337.726 80.7306653,337.844999 80.997,338.083 C81.2633347,338.321001 81.3965,338.632665 81.3965,339.018 C81.3965,339.403335 81.2633347,339.717832 80.997,339.9615 C80.7306653,340.205168 80.3821688,340.327 79.9515,340.327 Z M87.1765,350.204 C86.5758303,350.204 86.0148359,350.104834 85.4935,349.9065 C84.9721641,349.708166 84.5188353,349.419169 84.1335,349.0395 C83.7481647,348.659831 83.4478344,348.198003 83.2325,347.654 C83.0171656,347.109997 82.9095,346.48667 82.9095,345.784 C82.9095,345.103997 83.0228322,344.489169 83.2495,343.9395 C83.4761678,343.389831 83.7736648,342.925169 84.142,342.5455 C84.5103352,342.165831 84.9324976,341.874001 85.4085,341.67 C85.8845024,341.465999 86.3774974,341.364 86.8875,341.364 C87.4881697,341.364 88.0123311,341.465999 88.46,341.67 C88.9076689,341.874001 89.2816652,342.157332 89.582,342.52 C89.8823348,342.882668 90.1061659,343.310498 90.2535,343.8035 C90.4008341,344.296502 90.4745,344.831997 90.4745,345.41 C90.4745,345.636668 90.4631668,345.851999 90.4405,346.056 L90.4065,346.32375 C90.3951667,346.40025 90.3838334,346.464 90.3725,346.515 L85.3235,346.515 C85.4368339,347.127003 85.688998,347.577499 86.08,347.8665 C86.471002,348.155501 86.9498305,348.3 87.5165,348.3 C88.1171697,348.3 88.7234969,348.113002 89.3355,347.739 L90.1685,349.252 C89.7378312,349.546668 89.2590026,349.778999 88.732,349.949 C88.2049974,350.119001 87.6865025,350.204 87.1765,350.204 Z M85.3065,344.866 L88.3495,344.866 C88.3495,344.389998 88.2418344,344.004668 88.0265,343.71 C87.8111656,343.415332 87.4485025,343.268 86.9385,343.268 C86.5418313,343.268 86.1933348,343.398332 85.893,343.659 C85.5926652,343.919668 85.3971671,344.321997 85.3065,344.866 Z M95.8805,350.204 C95.2911637,350.204 94.7443359,350.104834 94.24,349.9065 C93.7356641,349.708166 93.2965019,349.422002 92.9225,349.048 C92.5484981,348.673998 92.2538344,348.212169 92.0385,347.6625 C91.8231656,347.112831 91.7155,346.48667 91.7155,345.784 C91.7155,345.08133 91.8344988,344.455169 92.0725,343.9055 C92.3105012,343.355831 92.6306647,342.894002 93.033,342.52 C93.4353353,342.145998 93.9028307,341.859834 94.4355,341.6615 C94.9681693,341.463166 95.5234971,341.364 96.1015,341.364 C96.6228359,341.364 97.0846647,341.448999 97.487,341.619 C97.8893353,341.789001 98.2491651,342.004332 98.5665,342.265 L97.3935,343.88 C96.9968313,343.551332 96.6171685,343.387 96.2545,343.387 C95.6424969,343.387 95.1608351,343.602331 94.8095,344.033 C94.4581649,344.463669 94.2825,345.04733 94.2825,345.784 C94.2825,346.52067 94.4609982,347.104331 94.818,347.535 C95.1750018,347.965669 95.6254973,348.181 96.1695,348.181 C96.4415014,348.181 96.7049987,348.121501 96.96,348.0025 C97.2150013,347.883499 97.4558322,347.739001 97.6825,347.569 L98.6685,349.201 C98.2491646,349.563668 97.7958358,349.821499 97.3085,349.9745 C96.8211642,350.127501 96.345169,350.204 95.8805,350.204 Z M103.6325,341.364 C104.23317,341.364 104.757331,341.465999 105.205,341.67 C105.652669,341.874001 106.026665,342.157332 106.327,342.52 C106.627335,342.882668 106.851166,343.310498 106.9985,343.8035 C107.145834,344.296502 107.2195,344.831997 107.2195,345.41 C107.2195,345.636668 107.208167,345.851999 107.1855,346.056 L107.1515,346.32375 C107.140167,346.40025 107.128833,346.464 107.1175,346.515 L102.0685,346.515 C102.181834,347.127003 102.433998,347.577499 102.825,347.8665 C103.216002,348.155501 103.69483,348.3 104.2615,348.3 C104.86217,348.3 105.468497,348.113002 106.0805,347.739 L106.9135,349.252 C106.482831,349.546668 106.004003,349.778999 105.477,349.949 C104.949997,350.119001 104.431503,350.204 103.9215,350.204 C103.32083,350.204 102.759836,350.104834 102.2385,349.9065 C101.717164,349.708166 101.263835,349.419169 100.8785,349.0395 C100.493165,348.659831 100.192834,348.198003 99.9775,347.654 C99.7621656,347.109997 99.6545,346.48667 99.6545,345.784 C99.6545,345.103997 99.7678322,344.489169 99.9945,343.9395 C100.221168,343.389831 100.518665,342.925169 100.887,342.5455 C101.255335,342.165831 101.677498,341.874001 102.1535,341.67 C102.629502,341.465999 103.122497,341.364 103.6325,341.364 Z M103.6835,343.268 C103.286831,343.268 102.938335,343.398332 102.638,343.659 C102.337665,343.919668 102.142167,344.321997 102.0515,344.866 L102.0515,344.866 L105.0945,344.866 C105.0945,344.389998 104.986834,344.004668 104.7715,343.71 C104.556166,343.415332 104.193503,343.268 103.6835,343.268 Z" id="Max1400mmperpiece" fill="#093169" fill-rule="nonzero" transform="translate(73.644500, 335.022000) rotate(-360.000000) translate(-73.644500, -335.022000) "></path>
            <path d="M32.493,13.204 C31.7449963,13.204 31.0621698,13.0708347 30.4445,12.8045 C29.8268302,12.5381653 29.2970022,12.1556692 28.855,11.657 C28.4129978,11.1583308 28.0701679,10.5520036 27.8265,9.838 C27.5828321,9.12399643 27.461,8.3136712 27.461,7.407 C27.461,6.5003288 27.5828321,5.69283688 27.8265,4.9845 C28.0701679,4.27616313 28.4129978,3.68116908 28.855,3.1995 C29.2970022,2.71783093 29.8268302,2.34950128 30.4445,2.0945 C31.0621698,1.83949873 31.7449963,1.712 32.493,1.712 C33.2410037,1.712 33.9238302,1.83949873 34.5415,2.0945 C35.1591698,2.34950128 35.6889978,2.72066423 36.131,3.208 C36.5730022,3.69533577 36.9158321,4.29316313 37.1595,5.0015 C37.4031679,5.70983688 37.525,6.51166219 37.525,7.407 C37.525,8.3136712 37.4031679,9.12399643 37.1595,9.838 C36.9158321,10.5520036 36.5730022,11.1583308 36.131,11.657 C35.6889978,12.1556692 35.1591698,12.5381653 34.5415,12.8045 C33.9238302,13.0708347 33.2410037,13.204 32.493,13.204 Z M32.493,11.045 C33.2523371,11.045 33.8529978,10.7191699 34.295,10.0675 C34.7370022,9.41583008 34.958,8.52900561 34.958,7.407 C34.958,6.29632778 34.7370022,5.42933645 34.295,4.806 C33.8529978,4.18266355 33.2523371,3.871 32.493,3.871 C31.7336629,3.871 31.1330022,4.18266355 30.691,4.806 C30.2489978,5.42933645 30.028,6.29632778 30.028,7.407 C30.028,8.52900561 30.2489978,9.41583008 30.691,10.0675 C31.1330022,10.7191699 31.7336629,11.045 32.493,11.045 Z M39.412,16.128 L39.412,4.568 L41.452,4.568 L41.622,5.401 L41.69,5.401 C42.0186683,5.10633186 42.3898313,4.85983433 42.8035,4.6615 C43.2171687,4.46316568 43.6449978,4.364 44.087,4.364 C44.5970026,4.364 45.055998,4.46599898 45.464,4.67 C45.872002,4.87400102 46.2176653,5.16299813 46.501,5.537 C46.7843348,5.91100187 47.0024992,6.36149737 47.1555,6.8885 C47.3085008,7.41550264 47.385,8.00199677 47.385,8.648 C47.385,9.37333696 47.2858343,10.0164972 47.0875,10.5775 C46.8891657,11.1385028 46.622835,11.614498 46.2885,12.0055 C45.954165,12.396502 45.5745021,12.693999 45.1495,12.898 C44.7244979,13.102001 44.2853356,13.204 43.832,13.204 C43.4693315,13.204 43.1180017,13.1275008 42.778,12.9745 C42.4379983,12.8214992 42.1206681,12.6033348 41.826,12.32 L41.911,13.663 L41.911,16.128 L39.412,16.128 Z M43.254,11.164 C43.6846688,11.164 44.0529985,10.968502 44.359,10.5775 C44.6650015,10.186498 44.818,9.55467103 44.818,8.682 C44.818,7.16332574 44.3306715,6.404 43.356,6.404 C42.8686642,6.404 42.3870024,6.65899745 41.911,7.169 L41.911,10.62 C42.1376678,10.824001 42.3643322,10.9656663 42.591,11.045 C42.8176678,11.1243337 43.0386656,11.164 43.254,11.164 Z M52.927,13.204 C52.3263303,13.204 51.7653359,13.1048343 51.244,12.9065 C50.7226641,12.7081657 50.2693353,12.4191686 49.884,12.0395 C49.4986647,11.6598314 49.1983344,11.1980027 48.983,10.654 C48.7676656,10.1099973 48.66,9.48667018 48.66,8.784 C48.66,8.1039966 48.7733322,7.48916942 49,6.9395 C49.2266678,6.38983059 49.5241648,5.92516857 49.8925,5.5455 C50.2608352,5.16583144 50.6829976,4.87400102 51.159,4.67 C51.6350024,4.46599898 52.1279975,4.364 52.638,4.364 C53.2386697,4.364 53.7628311,4.46599898 54.2105,4.67 C54.6581689,4.87400102 55.0321652,5.15733152 55.3325,5.52 C55.6328348,5.88266848 55.8566659,6.31049754 56.004,6.8035 C56.1513341,7.29650247 56.225,7.83199711 56.225,8.41 C56.225,8.6366678 56.2136668,8.85199898 56.191,9.056 L56.157,9.32375019 C56.1456667,9.40025 56.1343334,9.46399975 56.123,9.515 L51.074,9.515 C51.1873339,10.1270031 51.439498,10.5774986 51.8305,10.8665 C52.221502,11.1555014 52.7003305,11.3 53.267,11.3 C53.8676697,11.3 54.4739969,11.1130019 55.086,10.739 L55.919,12.252 C55.4883312,12.5466681 55.0095026,12.7789992 54.4825,12.949 C53.9554974,13.1190009 53.4370026,13.204 52.927,13.204 Z M51.057,7.866 L54.1,7.866 C54.1,7.38999762 53.9923344,7.00466814 53.777,6.71 C53.5616656,6.41533186 53.1990026,6.268 52.689,6.268 C52.2923314,6.268 51.9438348,6.39833203 51.6435,6.659 C51.3431652,6.91966797 51.1476671,7.32199728 51.057,7.866 Z M57.959,13 L57.959,4.568 L59.999,4.568 L60.169,5.639 L60.237,5.639 C60.5996685,5.2989983 60.9963312,5.00150128 61.427,4.7465 C61.8576688,4.49149873 62.3619971,4.364 62.94,4.364 C63.8580046,4.364 64.5238313,4.66433033 64.9375,5.265 C65.3511687,5.86566967 65.558,6.69866134 65.558,7.764 L65.558,13 L63.059,13 L63.059,8.087 C63.059,7.47499694 62.9768342,7.0556678 62.8125,6.829 C62.6481658,6.6023322 62.3846685,6.489 62.022,6.489 C61.7046651,6.489 61.4326678,6.55983263 61.206,6.7015 C60.9793322,6.84316738 60.7300014,7.04433203 60.458,7.305 L60.458,13 L57.959,13 Z M67.683,13 L67.683,4.568 L70.182,4.568 L70.182,13 L67.683,13 Z M68.924,3.327 C68.5046646,3.327 68.1590014,3.20516789 67.887,2.9615 C67.6149986,2.71783212 67.479,2.40333526 67.479,2.018 C67.479,1.63266474 67.6149986,1.32100119 67.887,1.083 C68.1590014,0.84499881 68.5046646,0.726 68.924,0.726 C69.3546688,0.726 69.7031653,0.84499881 69.9695,1.083 C70.2358347,1.32100119 70.369,1.63266474 70.369,2.018 C70.369,2.40333526 70.2358347,2.71783212 69.9695,2.9615 C69.7031653,3.20516789 69.3546688,3.327 68.924,3.327 Z M72.375,13 L72.375,4.568 L74.415,4.568 L74.585,5.639 L74.653,5.639 C75.0156685,5.2989983 75.4123312,5.00150128 75.843,4.7465 C76.2736688,4.49149873 76.7779971,4.364 77.356,4.364 C78.2740046,4.364 78.9398313,4.66433033 79.3535,5.265 C79.7671687,5.86566967 79.974,6.69866134 79.974,7.764 L79.974,13 L77.475,13 L77.475,8.087 C77.475,7.47499694 77.3928342,7.0556678 77.2285,6.829 C77.0641658,6.6023322 76.8006685,6.489 76.438,6.489 C76.1206651,6.489 75.8486678,6.55983263 75.622,6.7015 C75.3953322,6.84316738 75.1460014,7.04433203 74.874,7.305 L74.874,13 L72.375,13 Z M85.108,16.587 C84.6093308,16.587 84.1475021,16.5445004 83.7225,16.4595 C83.2974979,16.3744996 82.9235016,16.2470009 82.6005,16.077 C82.2774984,15.9069992 82.0253342,15.6860014 81.844,15.414 C81.6626658,15.1419986 81.572,14.8190019 81.572,14.445 C81.572,13.7649966 81.9743293,13.1983356 82.779,12.745 L82.779,12.677 C82.5523322,12.5296659 82.3653341,12.3426678 82.218,12.116 C82.0706659,11.8893322 81.997,11.6003351 81.997,11.249 C81.997,10.9429985 82.0876658,10.6511681 82.269,10.3735 C82.4503342,10.0958319 82.6769986,9.86066763 82.949,9.668 L82.949,9.6 C82.6543319,9.39599898 82.3908345,9.10416857 82.1585,8.7245 C81.9261655,8.34483144 81.81,7.90566916 81.81,7.407 C81.81,6.89699745 81.9063324,6.45216857 82.099,6.0725 C82.2916676,5.69283144 82.5494984,5.37550128 82.8725,5.1205 C83.1955016,4.86549873 83.5666646,4.67566729 83.986,4.551 C84.4053354,4.42633271 84.8416644,4.364 85.295,4.364 C85.7936692,4.364 86.2299981,4.43199932 86.604,4.568 L89.681,4.568 L89.681,6.387 L88.338,6.387 C88.4173337,6.51166729 88.4824997,6.67033237 88.5335,6.863 C88.5845003,7.05566763 88.61,7.2653322 88.61,7.492 C88.61,7.97933577 88.5250009,8.40149822 88.355,8.7585 C88.1849992,9.11550179 87.9498348,9.41016551 87.6495,9.6425 C87.3491652,9.8748345 86.9978353,10.0476661 86.5955,10.161 C86.1931647,10.2743339 85.759669,10.331 85.295,10.331 C84.9663317,10.331 84.6263351,10.2743339 84.275,10.161 C84.1616661,10.2516671 84.0823336,10.3423329 84.037,10.433 C83.9916664,10.5236671 83.969,10.6426659 83.969,10.79 C83.969,11.0053344 84.0624991,11.1639995 84.2495,11.266 C84.4365009,11.3680005 84.7679976,11.419 85.244,11.419 L86.604,11.419 C87.6466719,11.419 88.4428306,11.586165 88.9925,11.9205 C89.5421694,12.254835 89.817,12.8016629 89.817,13.561 C89.817,14.0030022 89.7065011,14.4081648 89.4855,14.7765 C89.2644989,15.1448352 88.950002,15.4621653 88.542,15.7285 C88.133998,15.9948347 87.6410029,16.2044992 87.063,16.3575 C86.4849971,16.5105008 85.833337,16.587 85.108,16.587 Z M85.295,8.818 C85.6236683,8.818 85.8984989,8.7018345 86.1195,8.4695 C86.3405011,8.23716551 86.451,7.88300238 86.451,7.407 C86.451,6.96499779 86.3405011,6.6278345 86.1195,6.3955 C85.8984989,6.16316551 85.6236683,6.047 85.295,6.047 C84.9663317,6.047 84.6915011,6.1603322 84.4705,6.387 C84.2494989,6.6136678 84.139,6.9536644 84.139,7.407 C84.139,7.88300238 84.2494989,8.23716551 84.4705,8.4695 C84.6915011,8.7018345 84.9663317,8.818 85.295,8.818 Z M85.499,15.023 C86.0656695,15.023 86.5303315,14.9238343 86.893,14.7255 C87.2556685,14.5271657 87.437,14.2806681 87.437,13.986 C87.437,13.725332 87.3265011,13.5496671 87.1055,13.459 C86.8844989,13.3683329 86.5643354,13.323 86.145,13.323 L85.278,13.323 L84.9515996,13.31892 C84.8019999,13.31484 84.6728005,13.3077001 84.564,13.2975 C84.3826658,13.2804999 84.2240007,13.2550002 84.088,13.221 C83.7819985,13.4930014 83.629,13.7706653 83.629,14.054 C83.629,14.3713349 83.7989983,14.6121658 84.139,14.7765 C84.4790017,14.9408342 84.9323305,15.023 85.499,15.023 Z M97.059,13.204 C96.5036639,13.204 95.9341696,13.0963344 95.3505,12.881 C94.7668304,12.6656656 94.2596688,12.3823351 93.829,12.031 L94.951,10.467 C95.3363353,10.7616681 95.7046649,10.9826659 96.056,11.13 C96.4073351,11.2773341 96.7643315,11.351 97.127,11.351 C97.5010019,11.351 97.7729992,11.2886673 97.943,11.164 C98.1130009,11.0393327 98.198,10.8636678 98.198,10.637 C98.198,10.5009993 98.1498338,10.3791672 98.0535,10.2715 C97.9571662,10.1638328 97.8268342,10.0646671 97.6625,9.974 C97.4981658,9.88333288 97.314001,9.80116704 97.11,9.7275 L96.79975,9.61062503 L96.79975,9.61062503 L96.481,9.481 C96.220332,9.37899949 95.959668,9.26000068 95.699,9.124 C95.438332,8.98799932 95.2003344,8.82083433 94.985,8.6225 C94.7696656,8.42416568 94.5940007,8.19183467 94.458,7.9255 C94.3219993,7.65916534 94.254,7.35033509 94.254,6.999 C94.254,6.61366474 94.3304992,6.25666831 94.4835,5.928 C94.6365008,5.59933169 94.8546653,5.3216678 95.138,5.095 C95.4213348,4.8683322 95.7613314,4.68983399 96.158,4.5595 C96.5546687,4.42916602 96.9966642,4.364 97.484,4.364 C98.1300032,4.364 98.6966642,4.4744989 99.184,4.6955 C99.6713358,4.91650111 100.096332,5.16299864 100.459,5.435 L99.337,6.931 C99.0309985,6.7043322 98.7306681,6.52866729 98.436,6.404 C98.1413319,6.27933271 97.8466681,6.217 97.552,6.217 C96.9173302,6.217 96.6,6.43799779 96.6,6.88 C96.6,7.01600068 96.6453329,7.13216619 96.736,7.2285 C96.8266671,7.32483382 96.9484992,7.41266627 97.1015,7.492 C97.2545008,7.57133373 97.4301657,7.64783297 97.6285,7.7215 L98.249,7.951 L98.249,7.951 C98.5210014,8.05300051 98.7901653,8.16916602 99.0565,8.2995 C99.3228347,8.42983399 99.5664989,8.59133237 99.7875,8.784 C100.008501,8.97666763 100.186999,9.21183195 100.323,9.4895 C100.459001,9.76716806 100.527,10.0986647 100.527,10.484 C100.527,10.8693353 100.453334,11.2263317 100.306,11.555 C100.158666,11.8836683 99.9376681,12.1698321 99.643,12.4135 C99.3483319,12.6571679 98.9856688,12.8498326 98.555,12.9915 C98.1243312,13.1331674 97.6256695,13.204 97.059,13.204 Z M102.108,13 L102.108,4.568 L104.607,4.568 L104.607,13 L102.108,13 Z M103.349,3.327 C102.929665,3.327 102.584001,3.20516789 102.312,2.9615 C102.039999,2.71783212 101.904,2.40333526 101.904,2.018 C101.904,1.63266474 102.039999,1.32100119 102.312,1.083 C102.584001,0.84499881 102.929665,0.726 103.349,0.726 C103.779669,0.726 104.128165,0.84499881 104.3945,1.083 C104.660835,1.32100119 104.794,1.63266474 104.794,2.018 C104.794,2.40333526 104.660835,2.71783212 104.3945,2.9615 C104.128165,3.20516789 103.779669,3.327 103.349,3.327 Z M106.341,13 L106.341,11.657 L109.877,6.523 L106.732,6.523 L106.732,4.568 L112.988,4.568 L112.988,5.894 L109.452,11.045 L113.107,11.045 L113.107,13 L106.341,13 Z M118.105,4.364 C118.70567,4.364 119.229831,4.46599898 119.6775,4.67 C120.125169,4.87400102 120.499165,5.15733152 120.7995,5.52 C121.099835,5.88266848 121.323666,6.31049754 121.471,6.8035 C121.618334,7.29650247 121.692,7.83199711 121.692,8.41 C121.692,8.6366678 121.680667,8.85199898 121.658,9.056 L121.624,9.32375019 C121.612667,9.40025 121.601333,9.46399975 121.59,9.515 L116.541,9.515 C116.654334,10.1270031 116.906498,10.5774986 117.2975,10.8665 C117.688502,11.1555014 118.167331,11.3 118.734,11.3 C119.33467,11.3 119.940997,11.1130019 120.553,10.739 L121.386,12.252 C120.955331,12.5466681 120.476503,12.7789992 119.9495,12.949 C119.422497,13.1190009 118.904003,13.204 118.394,13.204 C117.79333,13.204 117.232336,13.1048343 116.711,12.9065 C116.189664,12.7081657 115.736335,12.4191686 115.351,12.0395 C114.965665,11.6598314 114.665334,11.1980027 114.45,10.654 C114.234666,10.1099973 114.127,9.48667018 114.127,8.784 C114.127,8.1039966 114.240332,7.48916942 114.467,6.9395 C114.693668,6.38983059 114.991165,5.92516857 115.3595,5.5455 C115.727835,5.16583144 116.149998,4.87400102 116.626,4.67 C117.102002,4.46599898 117.594997,4.364 118.105,4.364 Z M118.156,6.268 C117.759331,6.268 117.410835,6.39833203 117.1105,6.659 C116.810165,6.91966797 116.614667,7.32199728 116.524,7.866 L116.524,7.866 L119.567,7.866 C119.567,7.38999762 119.459334,7.00466814 119.244,6.71 C119.028666,6.41533186 118.666003,6.268 118.156,6.268 Z" id="Openingsize" fill="#093169" fill-rule="nonzero"></path>
        </g>
        <polyline id="Rectangle-Copy-8" stroke="#CBD8F2" transform="translate(129.500000, 208.500000) rotate(-90.000000) translate(-129.500000, -208.500000) " points="50.265 216 50 201 209 201 209 216"></polyline>
        <path d="M53.993,219.204 C53.2449963,219.204 52.5621698,219.070835 51.9445,218.8045 C51.3268302,218.538165 50.7970022,218.155669 50.355,217.657 C49.9129978,217.158331 49.5701679,216.552004 49.3265,215.838 C49.0828321,215.123996 48.961,214.313671 48.961,213.407 C48.961,212.500329 49.0828321,211.692837 49.3265,210.9845 C49.5701679,210.276163 49.9129978,209.681169 50.355,209.1995 C50.7970022,208.717831 51.3268302,208.349501 51.9445,208.0945 C52.5621698,207.839499 53.2449963,207.712 53.993,207.712 C54.7410037,207.712 55.4238302,207.839499 56.0415,208.0945 C56.6591698,208.349501 57.1889978,208.720664 57.631,209.208 C58.0730022,209.695336 58.4158321,210.293163 58.6595,211.0015 C58.9031679,211.709837 59.025,212.511662 59.025,213.407 C59.025,214.313671 58.9031679,215.123996 58.6595,215.838 C58.4158321,216.552004 58.0730022,217.158331 57.631,217.657 C57.1889978,218.155669 56.6591698,218.538165 56.0415,218.8045 C55.4238302,219.070835 54.7410037,219.204 53.993,219.204 Z M53.993,217.045 C54.7523371,217.045 55.3529978,216.71917 55.795,216.0675 C56.2370022,215.41583 56.458,214.529006 56.458,213.407 C56.458,212.296328 56.2370022,211.429336 55.795,210.806 C55.3529978,210.182664 54.7523371,209.871 53.993,209.871 C53.2336629,209.871 52.6330022,210.182664 52.191,210.806 C51.7489978,211.429336 51.528,212.296328 51.528,213.407 C51.528,214.529006 51.7489978,215.41583 52.191,216.0675 C52.6330022,216.71917 53.2336629,217.045 53.993,217.045 Z M60.912,222.128 L60.912,210.568 L62.952,210.568 L63.122,211.401 L63.19,211.401 C63.5186683,211.106332 63.8898313,210.859834 64.3035,210.6615 C64.7171687,210.463166 65.1449978,210.364 65.587,210.364 C66.0970025,210.364 66.555998,210.465999 66.964,210.67 C67.372002,210.874001 67.7176653,211.162998 68.001,211.537 C68.2843347,211.911002 68.5024992,212.361497 68.6555,212.8885 C68.8085008,213.415503 68.885,214.001997 68.885,214.648 C68.885,215.373337 68.7858343,216.016497 68.5875,216.5775 C68.3891657,217.138503 68.122835,217.614498 67.7885,218.0055 C67.454165,218.396502 67.0745021,218.693999 66.6495,218.898 C66.2244979,219.102001 65.7853356,219.204 65.332,219.204 C64.9693315,219.204 64.6180017,219.127501 64.278,218.9745 C63.9379983,218.821499 63.6206681,218.603335 63.326,218.32 L63.411,219.663 L63.411,222.128 L60.912,222.128 Z M64.754,217.164 C65.1846688,217.164 65.5529985,216.968502 65.859,216.5775 C66.1650015,216.186498 66.318,215.554671 66.318,214.682 C66.318,213.163326 65.8306715,212.404 64.856,212.404 C64.3686642,212.404 63.8870024,212.658997 63.411,213.169 L63.411,216.62 C63.6376678,216.824001 63.8643322,216.965666 64.091,217.045 C64.3176678,217.124334 64.5386656,217.164 64.754,217.164 Z M74.427,219.204 C73.8263303,219.204 73.2653359,219.104834 72.744,218.9065 C72.2226641,218.708166 71.7693353,218.419169 71.384,218.0395 C70.9986647,217.659831 70.6983344,217.198003 70.483,216.654 C70.2676656,216.109997 70.16,215.48667 70.16,214.784 C70.16,214.103997 70.2733322,213.489169 70.5,212.9395 C70.7266678,212.389831 71.0241648,211.925169 71.3925,211.5455 C71.7608352,211.165831 72.1829976,210.874001 72.659,210.67 C73.1350024,210.465999 73.6279974,210.364 74.138,210.364 C74.7386697,210.364 75.2628311,210.465999 75.7105,210.67 C76.1581689,210.874001 76.5321652,211.157332 76.8325,211.52 C77.1328348,211.882668 77.3566659,212.310498 77.504,212.8035 C77.6513341,213.296502 77.725,213.831997 77.725,214.41 C77.725,214.636668 77.7136668,214.851999 77.691,215.056 L77.657,215.32375 C77.6456667,215.40025 77.6343334,215.464 77.623,215.515 L72.574,215.515 C72.6873339,216.127003 72.939498,216.577499 73.3305,216.8665 C73.721502,217.155501 74.2003305,217.3 74.767,217.3 C75.3676697,217.3 75.9739969,217.113002 76.586,216.739 L77.419,218.252 C76.9883312,218.546668 76.5095026,218.778999 75.9825,218.949 C75.4554974,219.119001 74.9370026,219.204 74.427,219.204 Z M72.557,213.866 L75.6,213.866 C75.6,213.389998 75.4923344,213.004668 75.277,212.71 C75.0616656,212.415332 74.6990026,212.268 74.189,212.268 C73.7923313,212.268 73.4438348,212.398332 73.1435,212.659 C72.8431652,212.919668 72.6476671,213.321997 72.557,213.866 Z M79.459,219 L79.459,210.568 L81.499,210.568 L81.669,211.639 L81.737,211.639 C82.0996685,211.298998 82.4963312,211.001501 82.927,210.7465 C83.3576688,210.491499 83.8619971,210.364 84.44,210.364 C85.3580046,210.364 86.0238313,210.66433 86.4375,211.265 C86.8511687,211.86567 87.058,212.698661 87.058,213.764 L87.058,219 L84.559,219 L84.559,214.087 C84.559,213.474997 84.4768342,213.055668 84.3125,212.829 C84.1481658,212.602332 83.8846685,212.489 83.522,212.489 C83.2046651,212.489 82.9326678,212.559833 82.706,212.7015 C82.4793322,212.843167 82.2300014,213.044332 81.958,213.305 L81.958,219 L79.459,219 Z M89.183,219 L89.183,210.568 L91.682,210.568 L91.682,219 L89.183,219 Z M90.424,209.327 C90.0046646,209.327 89.6590014,209.205168 89.387,208.9615 C89.1149986,208.717832 88.979,208.403335 88.979,208.018 C88.979,207.632665 89.1149986,207.321001 89.387,207.083 C89.6590014,206.844999 90.0046646,206.726 90.424,206.726 C90.8546688,206.726 91.2031653,206.844999 91.4695,207.083 C91.7358347,207.321001 91.869,207.632665 91.869,208.018 C91.869,208.403335 91.7358347,208.717832 91.4695,208.9615 C91.2031653,209.205168 90.8546688,209.327 90.424,209.327 Z M93.875,219 L93.875,210.568 L95.915,210.568 L96.085,211.639 L96.153,211.639 C96.5156685,211.298998 96.9123312,211.001501 97.343,210.7465 C97.7736688,210.491499 98.2779971,210.364 98.856,210.364 C99.7740046,210.364 100.439831,210.66433 100.8535,211.265 C101.267169,211.86567 101.474,212.698661 101.474,213.764 L101.474,219 L98.975,219 L98.975,214.087 C98.975,213.474997 98.8928342,213.055668 98.7285,212.829 C98.5641658,212.602332 98.3006685,212.489 97.938,212.489 C97.6206651,212.489 97.3486678,212.559833 97.122,212.7015 C96.8953322,212.843167 96.6460014,213.044332 96.374,213.305 L96.374,219 L93.875,219 Z M106.608,222.587 C106.109331,222.587 105.647502,222.5445 105.2225,222.4595 C104.797498,222.3745 104.423502,222.247001 104.1005,222.077 C103.777498,221.906999 103.525334,221.686001 103.344,221.414 C103.162666,221.141999 103.072,220.819002 103.072,220.445 C103.072,219.764997 103.474329,219.198336 104.279,218.745 L104.279,218.677 C104.052332,218.529666 103.865334,218.342668 103.718,218.116 C103.570666,217.889332 103.497,217.600335 103.497,217.249 C103.497,216.942998 103.587666,216.651168 103.769,216.3735 C103.950334,216.095832 104.176999,215.860668 104.449,215.668 L104.449,215.6 C104.154332,215.395999 103.890834,215.104169 103.6585,214.7245 C103.426166,214.344831 103.31,213.905669 103.31,213.407 C103.31,212.896997 103.406332,212.452169 103.599,212.0725 C103.791668,211.692831 104.049498,211.375501 104.3725,211.1205 C104.695502,210.865499 105.066665,210.675667 105.486,210.551 C105.905335,210.426333 106.341664,210.364 106.795,210.364 C107.293669,210.364 107.729998,210.431999 108.104,210.568 L111.181,210.568 L111.181,212.387 L109.838,212.387 C109.917334,212.511667 109.9825,212.670332 110.0335,212.863 C110.0845,213.055668 110.11,213.265332 110.11,213.492 C110.11,213.979336 110.025001,214.401498 109.855,214.7585 C109.684999,215.115502 109.449835,215.410166 109.1495,215.6425 C108.849165,215.874834 108.497835,216.047666 108.0955,216.161 C107.693165,216.274334 107.259669,216.331 106.795,216.331 C106.466332,216.331 106.126335,216.274334 105.775,216.161 C105.661666,216.251667 105.582334,216.342333 105.537,216.433 C105.491666,216.523667 105.469,216.642666 105.469,216.79 C105.469,217.005334 105.562499,217.163999 105.7495,217.266 C105.936501,217.368001 106.267998,217.419 106.744,217.419 L108.104,217.419 C109.146672,217.419 109.942831,217.586165 110.4925,217.9205 C111.042169,218.254835 111.317,218.801663 111.317,219.561 C111.317,220.003002 111.206501,220.408165 110.9855,220.7765 C110.764499,221.144835 110.450002,221.462165 110.042,221.7285 C109.633998,221.994835 109.141003,222.204499 108.563,222.3575 C107.984997,222.510501 107.333337,222.587 106.608,222.587 Z M106.795,214.818 C107.123668,214.818 107.398499,214.701834 107.6195,214.4695 C107.840501,214.237166 107.951,213.883002 107.951,213.407 C107.951,212.964998 107.840501,212.627834 107.6195,212.3955 C107.398499,212.163166 107.123668,212.047 106.795,212.047 C106.466332,212.047 106.191501,212.160332 105.9705,212.387 C105.749499,212.613668 105.639,212.953664 105.639,213.407 C105.639,213.883002 105.749499,214.237166 105.9705,214.4695 C106.191501,214.701834 106.466332,214.818 106.795,214.818 Z M106.999,221.023 C107.565669,221.023 108.030332,220.923834 108.393,220.7255 C108.755668,220.527166 108.937,220.280668 108.937,219.986 C108.937,219.725332 108.826501,219.549667 108.6055,219.459 C108.384499,219.368333 108.064335,219.323 107.645,219.323 L106.778,219.323 C106.483332,219.323 106.245334,219.3145 106.064,219.2975 C105.882666,219.2805 105.724001,219.255 105.588,219.221 C105.281998,219.493001 105.129,219.770665 105.129,220.054 C105.129,220.371335 105.298998,220.612166 105.639,220.7765 C105.979002,220.940834 106.432331,221.023 106.999,221.023 Z M118.559,219.204 C118.003664,219.204 117.43417,219.096334 116.8505,218.881 C116.26683,218.665666 115.759669,218.382335 115.329,218.031 L116.451,216.467 C116.836335,216.761668 117.204665,216.982666 117.556,217.13 C117.907335,217.277334 118.264332,217.351 118.627,217.351 C119.001002,217.351 119.272999,217.288667 119.443,217.164 C119.613001,217.039333 119.698,216.863668 119.698,216.637 C119.698,216.500999 119.649834,216.379167 119.5535,216.2715 C119.457166,216.163833 119.326834,216.064667 119.1625,215.974 C118.998166,215.883333 118.814001,215.801167 118.61,215.7275 L118.29975,215.610625 L118.29975,215.610625 L117.981,215.481 C117.720332,215.378999 117.459668,215.260001 117.199,215.124 C116.938332,214.987999 116.700334,214.820834 116.485,214.6225 C116.269666,214.424166 116.094001,214.191835 115.958,213.9255 C115.821999,213.659165 115.754,213.350335 115.754,212.999 C115.754,212.613665 115.830499,212.256668 115.9835,211.928 C116.136501,211.599332 116.354665,211.321668 116.638,211.095 C116.921335,210.868332 117.261331,210.689834 117.658,210.5595 C118.054669,210.429166 118.496664,210.364 118.984,210.364 C119.630003,210.364 120.196664,210.474499 120.684,210.6955 C121.171336,210.916501 121.596332,211.162999 121.959,211.435 L120.837,212.931 C120.530998,212.704332 120.230668,212.528667 119.936,212.404 C119.641332,212.279333 119.346668,212.217 119.052,212.217 C118.41733,212.217 118.1,212.437998 118.1,212.88 C118.1,213.016001 118.145333,213.132166 118.236,213.2285 C118.326667,213.324834 118.448499,213.412666 118.6015,213.492 C118.754501,213.571334 118.930166,213.647833 119.1285,213.7215 L119.749,213.951 L119.749,213.951 C120.021001,214.053001 120.290165,214.169166 120.5565,214.2995 C120.822835,214.429834 121.066499,214.591332 121.2875,214.784 C121.508501,214.976668 121.686999,215.211832 121.823,215.4895 C121.959001,215.767168 122.027,216.098665 122.027,216.484 C122.027,216.869335 121.953334,217.226332 121.806,217.555 C121.658666,217.883668 121.437668,218.169832 121.143,218.4135 C120.848332,218.657168 120.485669,218.849833 120.055,218.9915 C119.624331,219.133167 119.12567,219.204 118.559,219.204 Z M123.608,219 L123.608,210.568 L126.107,210.568 L126.107,219 L123.608,219 Z M124.849,209.327 C124.429665,209.327 124.084001,209.205168 123.812,208.9615 C123.539999,208.717832 123.404,208.403335 123.404,208.018 C123.404,207.632665 123.539999,207.321001 123.812,207.083 C124.084001,206.844999 124.429665,206.726 124.849,206.726 C125.279669,206.726 125.628165,206.844999 125.8945,207.083 C126.160835,207.321001 126.294,207.632665 126.294,208.018 C126.294,208.403335 126.160835,208.717832 125.8945,208.9615 C125.628165,209.205168 125.279669,209.327 124.849,209.327 Z M127.841,219 L127.841,217.657 L131.377,212.523 L128.232,212.523 L128.232,210.568 L134.488,210.568 L134.488,211.894 L130.952,217.045 L134.607,217.045 L134.607,219 L127.841,219 Z M139.605,210.364 C140.20567,210.364 140.729831,210.465999 141.1775,210.67 C141.625169,210.874001 141.999165,211.157332 142.2995,211.52 C142.599835,211.882668 142.823666,212.310498 142.971,212.8035 C143.118334,213.296502 143.192,213.831997 143.192,214.41 C143.192,214.636668 143.180667,214.851999 143.158,215.056 L143.124,215.32375 C143.112667,215.40025 143.101333,215.464 143.09,215.515 L138.041,215.515 C138.154334,216.127003 138.406498,216.577499 138.7975,216.8665 C139.188502,217.155501 139.66733,217.3 140.234,217.3 C140.83467,217.3 141.440997,217.113002 142.053,216.739 L142.886,218.252 C142.455331,218.546668 141.976503,218.778999 141.4495,218.949 C140.922497,219.119001 140.404003,219.204 139.894,219.204 C139.29333,219.204 138.732336,219.104834 138.211,218.9065 C137.689664,218.708166 137.236335,218.419169 136.851,218.0395 C136.465665,217.659831 136.165334,217.198003 135.95,216.654 C135.734666,216.109997 135.627,215.48667 135.627,214.784 C135.627,214.103997 135.740332,213.489169 135.967,212.9395 C136.193668,212.389831 136.491165,211.925169 136.8595,211.5455 C137.227835,211.165831 137.649998,210.874001 138.126,210.67 C138.602002,210.465999 139.094997,210.364 139.605,210.364 Z M139.656,212.268 C139.259331,212.268 138.910835,212.398332 138.6105,212.659 C138.310165,212.919668 138.114667,213.321997 138.024,213.866 L138.024,213.866 L141.067,213.866 C141.067,213.389998 140.959334,213.004668 140.744,212.71 C140.528666,212.415332 140.166003,212.268 139.656,212.268 Z" id="Openingsize" fill="#093169" fill-rule="nonzero" transform="translate(96.076500, 214.656500) rotate(-90.000000) translate(-96.076500, -214.656500) "></path>
    </g>
</svg>