<?xml version="1.0" encoding="UTF-8"?>
<svg width="600px" height="258px" viewBox="0 0 600 258" version="1.1" xmlns="http://www.w3.org/2000/svg" xmlns:xlink="http://www.w3.org/1999/xlink">
    <!-- Generator: Sketch 58 (84663) - https://sketch.com -->
    <title>keystones/KS1</title>
    <desc>Created with Sketch.</desc>
    <g id="keystones/KS1" stroke="none" stroke-width="1" fill="none" fill-rule="evenodd">
        <rect fill="#F5F9FF" x="0" y="0" width="600" height="258"></rect>
        <g id="Group" transform="translate(352.000000, 35.000000)">
            <polygon id="Path" stroke="#CBD8F2" fill="#FFFFFF" points="5.2 188 51.2 188 51.2 67 5.2 67"></polygon>
            <polyline id="Rectangle-Copy-2" stroke="#CBD8F2" points="5.07666667 52 5 37 51 37 51 52"></polyline>
            <path d="M1.657,17 L1.657,14.977 L4.003,14.977 L4.003,8.738 L1.98,8.738 L1.98,7.191 C2.56933628,7.0776661 3.06799796,6.94166746 3.476,6.783 C3.88400204,6.62433254 4.28066474,6.4316678 4.666,6.205 L6.502,6.205 L6.502,14.977 L8.525,14.977 L8.525,17 L1.657,17 Z M13.931,17.204 C13.3529971,17.204 12.8260024,17.0821679 12.35,16.8385 C11.8739976,16.5948321 11.468835,16.2350024 11.1345,15.759 C10.800165,15.2829976 10.5395009,14.6936702 10.3525,13.991 C10.1654991,13.2883298 10.072,12.4780046 10.072,11.56 C10.072,10.6419954 10.1654991,9.83733679 10.3525,9.146 C10.5395009,8.45466321 10.800165,7.87383568 11.1345,7.4035 C11.468835,6.93316431 11.8739976,6.58183449 12.35,6.3495 C12.8260024,6.1171655 13.3529971,6.001 13.931,6.001 C14.5090029,6.001 15.0359976,6.1171655 15.512,6.3495 C15.9880024,6.58183449 16.393165,6.93316431 16.7275,7.4035 C17.061835,7.87383568 17.3224991,8.45466321 17.5095,9.146 C17.6965009,9.83733679 17.79,10.6419954 17.79,11.56 C17.79,12.4780046 17.6965009,13.2883298 17.5095,13.991 C17.3224991,14.6936702 17.061835,15.2829976 16.7275,15.759 C16.393165,16.2350024 15.9880024,16.5948321 15.512,16.8385 C15.0359976,17.0821679 14.5090029,17.204 13.931,17.204 Z M13.931,15.266 C14.1463344,15.266 14.3446658,15.2121672 14.526,15.1045 C14.7073342,14.9968328 14.8659993,14.8013347 15.002,14.518 C15.1380007,14.2346652 15.242833,13.8550024 15.3165,13.379 C15.390167,12.9029976 15.427,12.2966703 15.427,11.56 C15.427,10.8233296 15.390167,10.2198357 15.3165,9.7495 C15.242833,9.27916431 15.1380007,8.91083466 15.002,8.6445 C14.8659993,8.37816533 14.7073342,8.19400051 14.526,8.092 C14.3446658,7.98999949 14.1463344,7.939 13.931,7.939 C13.726999,7.939 13.5343342,7.98999949 13.353,8.092 C13.1716658,8.19400051 13.0130007,8.37816533 12.877,8.6445 C12.7409993,8.91083466 12.6333337,9.27916431 12.554,9.7495 C12.4746663,10.2198357 12.435,10.8233296 12.435,11.56 C12.435,12.2966703 12.4746663,12.9029976 12.554,13.379 C12.6333337,13.8550024 12.7409993,14.2346652 12.877,14.518 C13.0130007,14.8013347 13.1716658,14.9968328 13.353,15.1045 C13.5343342,15.2121672 13.726999,15.266 13.931,15.266 Z M22.907,17.204 C22.3289971,17.204 21.8020024,17.0821679 21.326,16.8385 C20.8499976,16.5948321 20.444835,16.2350024 20.1105,15.759 C19.776165,15.2829976 19.5155009,14.6936702 19.3285,13.991 C19.1414991,13.2883298 19.048,12.4780046 19.048,11.56 C19.048,10.6419954 19.1414991,9.83733679 19.3285,9.146 C19.5155009,8.45466321 19.776165,7.87383568 20.1105,7.4035 C20.444835,6.93316431 20.8499976,6.58183449 21.326,6.3495 C21.8020024,6.1171655 22.3289971,6.001 22.907,6.001 C23.4850029,6.001 24.0119976,6.1171655 24.488,6.3495 C24.9640024,6.58183449 25.369165,6.93316431 25.7035,7.4035 C26.037835,7.87383568 26.2984991,8.45466321 26.4855,9.146 C26.6725009,9.83733679 26.766,10.6419954 26.766,11.56 C26.766,12.4780046 26.6725009,13.2883298 26.4855,13.991 C26.2984991,14.6936702 26.037835,15.2829976 25.7035,15.759 C25.369165,16.2350024 24.9640024,16.5948321 24.488,16.8385 C24.0119976,17.0821679 23.4850029,17.204 22.907,17.204 Z M22.907,15.266 C23.1223344,15.266 23.3206658,15.2121672 23.502,15.1045 C23.6833342,14.9968328 23.8419993,14.8013347 23.978,14.518 C24.1140007,14.2346652 24.218833,13.8550024 24.2925,13.379 C24.366167,12.9029976 24.403,12.2966703 24.403,11.56 C24.403,10.8233296 24.366167,10.2198357 24.2925,9.7495 C24.218833,9.27916431 24.1140007,8.91083466 23.978,8.6445 C23.8419993,8.37816533 23.6833342,8.19400051 23.502,8.092 C23.3206658,7.98999949 23.1223344,7.939 22.907,7.939 C22.702999,7.939 22.5103342,7.98999949 22.329,8.092 C22.1476658,8.19400051 21.9890007,8.37816533 21.853,8.6445 C21.7169993,8.91083466 21.6093337,9.27916431 21.53,9.7495 C21.4506663,10.2198357 21.411,10.8233296 21.411,11.56 C21.411,12.2966703 21.4506663,12.9029976 21.53,13.379 C21.6093337,13.8550024 21.7169993,14.2346652 21.853,14.518 C21.9890007,14.8013347 22.1476658,14.9968328 22.329,15.1045 C22.5103342,15.2121672 22.702999,15.266 22.907,15.266 Z M28.5,17 L28.5,8.568 L30.54,8.568 L30.71,9.656 L30.778,9.656 C31.1293351,9.30466491 31.5033314,9.00150127 31.9,8.7465 C32.2966687,8.49149872 32.7726639,8.364 33.328,8.364 C33.9286697,8.364 34.4131648,8.48583211 34.7815,8.7295 C35.1498352,8.97316788 35.4416656,9.3216644 35.657,9.775 C36.0310019,9.38966474 36.4248313,9.05816805 36.8385,8.7805 C37.2521687,8.50283194 37.7423305,8.364 38.309,8.364 C39.2156712,8.364 39.8814979,8.66716363 40.3065,9.2735 C40.7315021,9.87983636 40.944,10.7099947 40.944,11.764 L40.944,17 L38.445,17 L38.445,12.087 C38.445,11.4749969 38.3628342,11.0556678 38.1985,10.829 C38.0341658,10.6023322 37.7706685,10.489 37.408,10.489 C36.9886646,10.489 36.5070027,10.7609973 35.963,11.305 L35.963,17 L33.464,17 L33.464,12.087 C33.464,11.4749969 33.3818342,11.0556678 33.2175,10.829 C33.0531658,10.6023322 32.7896685,10.489 32.427,10.489 C31.9963312,10.489 31.5203359,10.7609973 30.999,11.305 L30.999,17 L28.5,17 Z M43.069,17 L43.069,8.568 L45.109,8.568 L45.279,9.656 L45.347,9.656 C45.6983351,9.30466491 46.0723314,9.00150127 46.469,8.7465 C46.8656687,8.49149872 47.3416639,8.364 47.897,8.364 C48.4976697,8.364 48.9821648,8.48583211 49.3505,8.7295 C49.7188352,8.97316788 50.0106656,9.3216644 50.226,9.775 C50.6000019,9.38966474 50.9938313,9.05816805 51.4075,8.7805 C51.8211687,8.50283194 52.3113305,8.364 52.878,8.364 C53.7846712,8.364 54.4504979,8.66716363 54.8755,9.2735 C55.3005021,9.87983636 55.513,10.7099947 55.513,11.764 L55.513,17 L53.014,17 L53.014,12.087 C53.014,11.4749969 52.9318342,11.0556678 52.7675,10.829 C52.6031658,10.6023322 52.3396685,10.489 51.977,10.489 C51.5576646,10.489 51.0760027,10.7609973 50.532,11.305 L50.532,17 L48.033,17 L48.033,12.087 C48.033,11.4749969 47.9508342,11.0556678 47.7865,10.829 C47.6221658,10.6023322 47.3586685,10.489 46.996,10.489 C46.5653312,10.489 46.0893359,10.7609973 45.568,11.305 L45.568,17 L43.069,17 Z" id="100mm" fill="#093169" fill-rule="nonzero"></path>
            <path d="M79.096,134 L79.096,132.572 L79.8970407,131.817199 C80.2832799,131.45 80.6480983,131.098102 80.9915,130.7615 C81.5638362,130.200497 82.0568313,129.673502 82.4705,129.1805 C82.8841687,128.687498 83.2071655,128.228502 83.4395,127.8035 C83.6718345,127.378498 83.788,126.973335 83.788,126.588 C83.788,126.055331 83.6520014,125.650168 83.38,125.3725 C83.1079986,125.094832 82.7340024,124.956 82.258,124.956 C81.8613314,124.956 81.5100015,125.066499 81.204,125.2875 C80.8979985,125.508501 80.6090014,125.766332 80.337,126.061 L78.977,124.718 C79.5096693,124.151331 80.0536639,123.723501 80.609,123.4345 C81.1643361,123.145499 81.8273295,123.001 82.598,123.001 C83.1306693,123.001 83.6151645,123.083166 84.0515,123.2475 C84.4878355,123.411834 84.8646651,123.644165 85.182,123.9445 C85.4993349,124.244835 85.7429992,124.604665 85.913,125.024 C86.0830009,125.443335 86.168,125.913664 86.168,126.435 C86.168,126.888336 86.0716676,127.350164 85.879,127.8205 C85.6863324,128.290836 85.4285016,128.761164 85.1055,129.2315 C84.7824984,129.701836 84.4141687,130.172164 84.0005,130.6425 C83.5868313,131.112836 83.1590022,131.574664 82.717,132.028 L83.1483749,131.979125 C83.2999578,131.963542 83.4593325,131.948667 83.6265,131.9345 C83.960835,131.906167 84.258332,131.892 84.519,131.892 L86.695,131.892 L86.695,134 L79.096,134 Z M91.727,128.186 C92.0103347,128.186 92.2964986,128.103834 92.5855,127.9395 C92.8745014,127.775166 93.1266656,127.500335 93.342,127.115 C93.2286661,126.264996 93.0161682,125.678502 92.7045,125.3555 C92.3928318,125.032498 92.0443353,124.871 91.659,124.871 C91.2963315,124.871 90.9790014,125.009832 90.707,125.2875 C90.4349986,125.565168 90.299,126.009997 90.299,126.622 C90.299,127.200003 90.4349986,127.605166 90.707,127.8375 C90.9790014,128.069834 91.318998,128.186 91.727,128.186 Z M91.336,134.204 C90.6219964,134.204 90.0015026,134.073668 89.4745,133.813 C88.9474974,133.552332 88.5140017,133.252002 88.174,132.912 L89.5,131.416 C89.6813342,131.620001 89.9249985,131.798499 90.231,131.9515 C90.5370015,132.104501 90.8486651,132.181 91.166,132.181 C91.4720015,132.181 91.755332,132.124334 92.016,132.011 C92.276668,131.897666 92.5061657,131.707835 92.7045,131.4415 C92.9028343,131.175165 93.0614994,130.829502 93.1805,130.4045 C93.2995006,129.979498 93.3703332,129.44967 93.393,128.815 C93.2569993,128.996334 93.0983342,129.157833 92.917,129.2995 C92.7356658,129.441167 92.5486676,129.560166 92.356,129.6565 C92.1633324,129.752834 91.9706676,129.8265 91.778,129.8775 C91.5853324,129.9285 91.4040009,129.954 91.234,129.954 C90.769331,129.954 90.341502,129.886001 89.9505,129.75 C89.559498,129.613999 89.2223348,129.410001 88.939,129.138 C88.6556652,128.865999 88.4318342,128.520335 88.2675,128.101 C88.1031658,127.681665 88.021,127.18867 88.021,126.622 C88.021,126.066664 88.1173324,125.565169 88.31,125.1175 C88.5026676,124.669831 88.7604984,124.287335 89.0835,123.97 C89.4065016,123.652665 89.7861645,123.411834 90.2225,123.2475 C90.6588355,123.083166 91.1206642,123.001 91.608,123.001 C92.1293359,123.001 92.6364975,123.102999 93.1295,123.307 C93.6225025,123.511001 94.0588314,123.828331 94.4385,124.259 C94.8181686,124.689669 95.1241655,125.242163 95.3565,125.9165 C95.5888345,126.590837 95.705,127.403995 95.705,128.356 C95.705,129.364672 95.5831679,130.23733 95.3395,130.974 C95.0958321,131.71067 94.7728353,132.316998 94.3705,132.793 C93.9681647,133.269002 93.5035026,133.623166 92.9765,133.8555 C92.4494974,134.087834 91.9026695,134.204 91.336,134.204 Z M100.907,134.204 C100.328997,134.204 99.8020024,134.082168 99.326,133.8385 C98.8499976,133.594832 98.444835,133.235002 98.1105,132.759 C97.776165,132.282998 97.5155009,131.69367 97.3285,130.991 C97.1414991,130.28833 97.048,129.478005 97.048,128.56 C97.048,127.641995 97.1414991,126.837337 97.3285,126.146 C97.5155009,125.454663 97.776165,124.873836 98.1105,124.4035 C98.444835,123.933164 98.8499976,123.581834 99.326,123.3495 C99.8020024,123.117166 100.328997,123.001 100.907,123.001 C101.485003,123.001 102.011998,123.117166 102.488,123.3495 C102.964002,123.581834 103.369165,123.933164 103.7035,124.4035 C104.037835,124.873836 104.298499,125.454663 104.4855,126.146 C104.672501,126.837337 104.766,127.641995 104.766,128.56 C104.766,129.478005 104.672501,130.28833 104.4855,130.991 C104.298499,131.69367 104.037835,132.282998 103.7035,132.759 C103.369165,133.235002 102.964002,133.594832 102.488,133.8385 C102.011998,134.082168 101.485003,134.204 100.907,134.204 Z M100.907,132.266 C101.122334,132.266 101.320666,132.212167 101.502,132.1045 C101.683334,131.996833 101.841999,131.801335 101.978,131.518 C102.114001,131.234665 102.218833,130.855002 102.2925,130.379 C102.366167,129.902998 102.403,129.29667 102.403,128.56 C102.403,127.82333 102.366167,127.219836 102.2925,126.7495 C102.218833,126.279164 102.114001,125.910835 101.978,125.6445 C101.841999,125.378165 101.683334,125.194001 101.502,125.092 C101.320666,124.989999 101.122334,124.939 100.907,124.939 C100.702999,124.939 100.510334,124.989999 100.329,125.092 C100.147666,125.194001 99.9890007,125.378165 99.853,125.6445 C99.7169993,125.910835 99.6093337,126.279164 99.53,126.7495 C99.4506663,127.219836 99.411,127.82333 99.411,128.56 C99.411,129.29667 99.4506663,129.902998 99.53,130.379 C99.6093337,130.855002 99.7169993,131.234665 99.853,131.518 C99.9890007,131.801335 100.147666,131.996833 100.329,132.1045 C100.510334,132.212167 100.702999,132.266 100.907,132.266 Z M106.5,134 L106.5,125.568 L108.54,125.568 L108.71,126.656 L108.778,126.656 C109.129335,126.304665 109.503331,126.001501 109.9,125.7465 C110.296669,125.491499 110.772664,125.364 111.328,125.364 C111.92867,125.364 112.413165,125.485832 112.7815,125.7295 C113.149835,125.973168 113.441666,126.321664 113.657,126.775 C114.031002,126.389665 114.424831,126.058168 114.8385,125.7805 C115.252169,125.502832 115.742331,125.364 116.309,125.364 C117.215671,125.364 117.881498,125.667164 118.3065,126.2735 C118.731502,126.879836 118.944,127.709995 118.944,128.764 L118.944,134 L116.445,134 L116.445,129.087 C116.445,128.474997 116.362834,128.055668 116.1985,127.829 C116.034166,127.602332 115.770668,127.489 115.408,127.489 C114.988665,127.489 114.507003,127.760997 113.963,128.305 L113.963,134 L111.464,134 L111.464,129.087 C111.464,128.474997 111.381834,128.055668 111.2175,127.829 C111.053166,127.602332 110.789668,127.489 110.427,127.489 C109.996331,127.489 109.520336,127.760997 108.999,128.305 L108.999,134 L106.5,134 Z M121.069,134 L121.069,125.568 L123.109,125.568 L123.279,126.656 L123.347,126.656 C123.698335,126.304665 124.072331,126.001501 124.469,125.7465 C124.865669,125.491499 125.341664,125.364 125.897,125.364 C126.49767,125.364 126.982165,125.485832 127.3505,125.7295 C127.718835,125.973168 128.010666,126.321664 128.226,126.775 C128.600002,126.389665 128.993831,126.058168 129.4075,125.7805 C129.821169,125.502832 130.31133,125.364 130.878,125.364 C131.784671,125.364 132.450498,125.667164 132.8755,126.2735 C133.300502,126.879836 133.513,127.709995 133.513,128.764 L133.513,134 L131.014,134 L131.014,129.087 C131.014,128.474997 130.931834,128.055668 130.7675,127.829 C130.603166,127.602332 130.339668,127.489 129.977,127.489 C129.557665,127.489 129.076003,127.760997 128.532,128.305 L128.532,134 L126.033,134 L126.033,129.087 C126.033,128.474997 125.950834,128.055668 125.7865,127.829 C125.622166,127.602332 125.358668,127.489 124.996,127.489 C124.565331,127.489 124.089336,127.760997 123.568,128.305 L123.568,134 L121.069,134 Z" id="290mm" fill="#093169" fill-rule="nonzero" transform="translate(106.245000, 128.602500) rotate(-270.000000) translate(-106.245000, -128.602500) "></path>
            <polyline id="Rectangle-Copy-4" stroke="#CBD8F2" transform="translate(73.500000, 127.500000) rotate(-270.000000) translate(-73.500000, -127.500000) " points="13.2016667 135 13 120 134 120 134 135"></polyline>
        </g>
        <polygon id="Path" stroke="#CBD8F2" fill="#FFFFFF" points="130 102 161.235069 223 223.764931 223 255 102"></polygon>
        <polyline id="Rectangle-Copy" stroke="#CBD8F2" points="130.208333 87 130 72 255 72 255 87"></polyline>
        <path d="M168.598,52.204 C167.713996,52.204 166.966003,52.0651681 166.354,51.7875 C165.741997,51.5098319 165.237669,51.138669 164.841,50.674 L165.997,49.093 C166.325668,49.4103349 166.685498,49.670999 167.0765,49.875 C167.467502,50.079001 167.895331,50.181 168.36,50.181 C168.892669,50.181 169.317665,50.0705011 169.635,49.8495 C169.952335,49.6284989 170.111,49.314002 170.111,48.906 C170.111,48.6679988 170.0685,48.4526676 169.9835,48.26 C169.8985,48.0673324 169.748334,47.905834 169.533,47.7755 C169.317666,47.645166 169.023002,47.543167 168.649,47.4695 C168.274998,47.395833 167.793336,47.359 167.204,47.359 L167.204,45.591 C167.691336,45.591 168.096498,45.5570003 168.4195,45.489 C168.742502,45.4209997 169.003166,45.321834 169.2015,45.1915 C169.399834,45.061166 169.5415,44.9081675 169.6265,44.7325 C169.7115,44.5568325 169.754,44.3613344 169.754,44.146 C169.754,43.7719981 169.640668,43.4801677 169.414,43.2705 C169.187332,43.0608323 168.858669,42.956 168.428,42.956 C168.042665,42.956 167.694168,43.0409991 167.3825,43.211 C167.070832,43.3810008 166.745002,43.6133319 166.405,43.908 L165.147,42.378 C165.645669,41.9473312 166.169831,41.6101679 166.7195,41.3665 C167.269169,41.1228321 167.87833,41.001 168.547,41.001 C169.102336,41.001 169.609498,41.066166 170.0685,41.1965 C170.527502,41.326834 170.918498,41.5194987 171.2415,41.7745 C171.564502,42.0295013 171.816666,42.3383315 171.998,42.701 C172.179334,43.0636685 172.27,43.4829976 172.27,43.959 C172.27,44.5256695 172.114168,45.004498 171.8025,45.3955 C171.490832,45.786502 171.046003,46.1066654 170.468,46.356 L170.468,46.424 C171.091336,46.6053342 171.604165,46.9141645 172.0065,47.3505 C172.408835,47.7868355 172.61,48.3563298 172.61,49.059 C172.61,49.5576692 172.502334,50.002498 172.287,50.3935 C172.071666,50.784502 171.782668,51.1131653 171.42,51.3795 C171.057332,51.6458347 170.632336,51.8498326 170.145,51.9915 C169.657664,52.1331674 169.142003,52.204 168.598,52.204 Z M177.931,52.204 C177.352997,52.204 176.826002,52.0821679 176.35,51.8385 C175.873998,51.5948321 175.468835,51.2350024 175.1345,50.759 C174.800165,50.2829976 174.539501,49.6936702 174.3525,48.991 C174.165499,48.2883298 174.072,47.4780046 174.072,46.56 C174.072,45.6419954 174.165499,44.8373368 174.3525,44.146 C174.539501,43.4546632 174.800165,42.8738357 175.1345,42.4035 C175.468835,41.9331643 175.873998,41.5818345 176.35,41.3495 C176.826002,41.1171655 177.352997,41.001 177.931,41.001 C178.509003,41.001 179.035998,41.1171655 179.512,41.3495 C179.988002,41.5818345 180.393165,41.9331643 180.7275,42.4035 C181.061835,42.8738357 181.322499,43.4546632 181.5095,44.146 C181.696501,44.8373368 181.79,45.6419954 181.79,46.56 C181.79,47.4780046 181.696501,48.2883298 181.5095,48.991 C181.322499,49.6936702 181.061835,50.2829976 180.7275,50.759 C180.393165,51.2350024 179.988002,51.5948321 179.512,51.8385 C179.035998,52.0821679 178.509003,52.204 177.931,52.204 Z M177.931,50.266 C178.146334,50.266 178.344666,50.2121672 178.526,50.1045 C178.707334,49.9968328 178.865999,49.8013347 179.002,49.518 C179.138001,49.2346652 179.242833,48.8550024 179.3165,48.379 C179.390167,47.9029976 179.427,47.2966703 179.427,46.56 C179.427,45.8233296 179.390167,45.2198357 179.3165,44.7495 C179.242833,44.2791643 179.138001,43.9108347 179.002,43.6445 C178.865999,43.3781653 178.707334,43.1940005 178.526,43.092 C178.344666,42.9899995 178.146334,42.939 177.931,42.939 C177.726999,42.939 177.534334,42.9899995 177.353,43.092 C177.171666,43.1940005 177.013001,43.3781653 176.877,43.6445 C176.740999,43.9108347 176.633334,44.2791643 176.554,44.7495 C176.474666,45.2198357 176.435,45.8233296 176.435,46.56 C176.435,47.2966703 176.474666,47.9029976 176.554,48.379 C176.633334,48.8550024 176.740999,49.2346652 176.877,49.518 C177.013001,49.8013347 177.171666,49.9968328 177.353,50.1045 C177.534334,50.2121672 177.726999,50.266 177.931,50.266 Z M186.907,52.204 C186.328997,52.204 185.802002,52.0821679 185.326,51.8385 C184.849998,51.5948321 184.444835,51.2350024 184.1105,50.759 C183.776165,50.2829976 183.515501,49.6936702 183.3285,48.991 C183.141499,48.2883298 183.048,47.4780046 183.048,46.56 C183.048,45.6419954 183.141499,44.8373368 183.3285,44.146 C183.515501,43.4546632 183.776165,42.8738357 184.1105,42.4035 C184.444835,41.9331643 184.849998,41.5818345 185.326,41.3495 C185.802002,41.1171655 186.328997,41.001 186.907,41.001 C187.485003,41.001 188.011998,41.1171655 188.488,41.3495 C188.964002,41.5818345 189.369165,41.9331643 189.7035,42.4035 C190.037835,42.8738357 190.298499,43.4546632 190.4855,44.146 C190.672501,44.8373368 190.766,45.6419954 190.766,46.56 C190.766,47.4780046 190.672501,48.2883298 190.4855,48.991 C190.298499,49.6936702 190.037835,50.2829976 189.7035,50.759 C189.369165,51.2350024 188.964002,51.5948321 188.488,51.8385 C188.011998,52.0821679 187.485003,52.204 186.907,52.204 Z M186.907,50.266 C187.122334,50.266 187.320666,50.2121672 187.502,50.1045 C187.683334,49.9968328 187.841999,49.8013347 187.978,49.518 C188.114001,49.2346652 188.218833,48.8550024 188.2925,48.379 C188.366167,47.9029976 188.403,47.2966703 188.403,46.56 C188.403,45.8233296 188.366167,45.2198357 188.2925,44.7495 C188.218833,44.2791643 188.114001,43.9108347 187.978,43.6445 C187.841999,43.3781653 187.683334,43.1940005 187.502,43.092 C187.320666,42.9899995 187.122334,42.939 186.907,42.939 C186.702999,42.939 186.510334,42.9899995 186.329,43.092 C186.147666,43.1940005 185.989001,43.3781653 185.853,43.6445 C185.716999,43.9108347 185.609334,44.2791643 185.53,44.7495 C185.450666,45.2198357 185.411,45.8233296 185.411,46.56 C185.411,47.2966703 185.450666,47.9029976 185.53,48.379 C185.609334,48.8550024 185.716999,49.2346652 185.853,49.518 C185.989001,49.8013347 186.147666,49.9968328 186.329,50.1045 C186.510334,50.2121672 186.702999,50.266 186.907,50.266 Z M192.5,52 L192.5,43.568 L194.54,43.568 L194.71,44.656 L194.778,44.656 C195.129335,44.3046649 195.503331,44.0015013 195.9,43.7465 C196.296669,43.4914987 196.772664,43.364 197.328,43.364 C197.92867,43.364 198.413165,43.4858321 198.7815,43.7295 C199.149835,43.9731679 199.441666,44.3216644 199.657,44.775 C200.031002,44.3896647 200.424831,44.0581681 200.8385,43.7805 C201.252169,43.5028319 201.742331,43.364 202.309,43.364 C203.215671,43.364 203.881498,43.6671636 204.3065,44.2735 C204.731502,44.8798364 204.944,45.7099947 204.944,46.764 L204.944,52 L202.445,52 L202.445,47.087 C202.445,46.4749969 202.362834,46.0556678 202.1985,45.829 C202.034166,45.6023322 201.770668,45.489 201.408,45.489 C200.988665,45.489 200.507003,45.7609973 199.963,46.305 L199.963,52 L197.464,52 L197.464,47.087 C197.464,46.4749969 197.381834,46.0556678 197.2175,45.829 C197.053166,45.6023322 196.789668,45.489 196.427,45.489 C195.996331,45.489 195.520336,45.7609973 194.999,46.305 L194.999,52 L192.5,52 Z M207.069,52 L207.069,43.568 L209.109,43.568 L209.279,44.656 L209.347,44.656 C209.698335,44.3046649 210.072331,44.0015013 210.469,43.7465 C210.865669,43.4914987 211.341664,43.364 211.897,43.364 C212.49767,43.364 212.982165,43.4858321 213.3505,43.7295 C213.718835,43.9731679 214.010666,44.3216644 214.226,44.775 C214.600002,44.3896647 214.993831,44.0581681 215.4075,43.7805 C215.821169,43.5028319 216.31133,43.364 216.878,43.364 C217.784671,43.364 218.450498,43.6671636 218.8755,44.2735 C219.300502,44.8798364 219.513,45.7099947 219.513,46.764 L219.513,52 L217.014,52 L217.014,47.087 C217.014,46.4749969 216.931834,46.0556678 216.7675,45.829 C216.603166,45.6023322 216.339668,45.489 215.977,45.489 C215.557665,45.489 215.076003,45.7609973 214.532,46.305 L214.532,52 L212.033,52 L212.033,47.087 C212.033,46.4749969 211.950834,46.0556678 211.7865,45.829 C211.622166,45.6023322 211.358668,45.489 210.996,45.489 C210.565331,45.489 210.089336,45.7609973 209.568,46.305 L209.568,52 L207.069,52 Z" id="300mm" fill="#093169" fill-rule="nonzero"></path>
        <path d="M283.096,169 L283.096,167.572 L283.897041,166.817199 C284.28328,166.45 284.648098,166.098102 284.9915,165.7615 C285.563836,165.200497 286.056831,164.673502 286.4705,164.1805 C286.884169,163.687498 287.207166,163.228502 287.4395,162.8035 C287.671834,162.378498 287.788,161.973335 287.788,161.588 C287.788,161.055331 287.652001,160.650168 287.38,160.3725 C287.107999,160.094832 286.734002,159.956 286.258,159.956 C285.861331,159.956 285.510002,160.066499 285.204,160.2875 C284.897998,160.508501 284.609001,160.766332 284.337,161.061 L282.977,159.718 C283.509669,159.151331 284.053664,158.723501 284.609,158.4345 C285.164336,158.145499 285.827329,158.001 286.598,158.001 C287.130669,158.001 287.615164,158.083166 288.0515,158.2475 C288.487836,158.411834 288.864665,158.644165 289.182,158.9445 C289.499335,159.244835 289.742999,159.604665 289.913,160.024 C290.083001,160.443335 290.168,160.913664 290.168,161.435 C290.168,161.888336 290.071668,162.350164 289.879,162.8205 C289.686332,163.290836 289.428502,163.761164 289.1055,164.2315 C288.782498,164.701836 288.414169,165.172164 288.0005,165.6425 C287.586831,166.112836 287.159002,166.574664 286.717,167.028 L287.148375,166.979125 C287.299958,166.963542 287.459332,166.948667 287.6265,166.9345 C287.960835,166.906167 288.258332,166.892 288.519,166.892 L290.695,166.892 L290.695,169 L283.096,169 Z M295.727,163.186 C296.010335,163.186 296.296499,163.103834 296.5855,162.9395 C296.874501,162.775166 297.126666,162.500335 297.342,162.115 C297.228666,161.264996 297.016168,160.678502 296.7045,160.3555 C296.392832,160.032498 296.044335,159.871 295.659,159.871 C295.296332,159.871 294.979001,160.009832 294.707,160.2875 C294.434999,160.565168 294.299,161.009997 294.299,161.622 C294.299,162.200003 294.434999,162.605166 294.707,162.8375 C294.979001,163.069834 295.318998,163.186 295.727,163.186 Z M295.336,169.204 C294.621996,169.204 294.001503,169.073668 293.4745,168.813 C292.947497,168.552332 292.514002,168.252002 292.174,167.912 L293.5,166.416 C293.681334,166.620001 293.924998,166.798499 294.231,166.9515 C294.537002,167.104501 294.848665,167.181 295.166,167.181 C295.472002,167.181 295.755332,167.124334 296.016,167.011 C296.276668,166.897666 296.506166,166.707835 296.7045,166.4415 C296.902834,166.175165 297.061499,165.829502 297.1805,165.4045 C297.299501,164.979498 297.370333,164.44967 297.393,163.815 C297.256999,163.996334 297.098334,164.157833 296.917,164.2995 C296.735666,164.441167 296.548668,164.560166 296.356,164.6565 C296.163332,164.752834 295.970668,164.8265 295.778,164.8775 C295.585332,164.9285 295.404001,164.954 295.234,164.954 C294.769331,164.954 294.341502,164.886001 293.9505,164.75 C293.559498,164.613999 293.222335,164.410001 292.939,164.138 C292.655665,163.865999 292.431834,163.520335 292.2675,163.101 C292.103166,162.681665 292.021,162.18867 292.021,161.622 C292.021,161.066664 292.117332,160.565169 292.31,160.1175 C292.502668,159.669831 292.760498,159.287335 293.0835,158.97 C293.406502,158.652665 293.786164,158.411834 294.2225,158.2475 C294.658836,158.083166 295.120664,158.001 295.608,158.001 C296.129336,158.001 296.636498,158.102999 297.1295,158.307 C297.622502,158.511001 298.058831,158.828331 298.4385,159.259 C298.818169,159.689669 299.124166,160.242163 299.3565,160.9165 C299.588834,161.590837 299.705,162.403995 299.705,163.356 C299.705,164.364672 299.583168,165.23733 299.3395,165.974 C299.095832,166.71067 298.772835,167.316998 298.3705,167.793 C297.968165,168.269002 297.503503,168.623166 296.9765,168.8555 C296.449497,169.087834 295.90267,169.204 295.336,169.204 Z M304.907,169.204 C304.328997,169.204 303.802002,169.082168 303.326,168.8385 C302.849998,168.594832 302.444835,168.235002 302.1105,167.759 C301.776165,167.282998 301.515501,166.69367 301.3285,165.991 C301.141499,165.28833 301.048,164.478005 301.048,163.56 C301.048,162.641995 301.141499,161.837337 301.3285,161.146 C301.515501,160.454663 301.776165,159.873836 302.1105,159.4035 C302.444835,158.933164 302.849998,158.581834 303.326,158.3495 C303.802002,158.117166 304.328997,158.001 304.907,158.001 C305.485003,158.001 306.011998,158.117166 306.488,158.3495 C306.964002,158.581834 307.369165,158.933164 307.7035,159.4035 C308.037835,159.873836 308.298499,160.454663 308.4855,161.146 C308.672501,161.837337 308.766,162.641995 308.766,163.56 C308.766,164.478005 308.672501,165.28833 308.4855,165.991 C308.298499,166.69367 308.037835,167.282998 307.7035,167.759 C307.369165,168.235002 306.964002,168.594832 306.488,168.8385 C306.011998,169.082168 305.485003,169.204 304.907,169.204 Z M304.907,167.266 C305.122334,167.266 305.320666,167.212167 305.502,167.1045 C305.683334,166.996833 305.841999,166.801335 305.978,166.518 C306.114001,166.234665 306.218833,165.855002 306.2925,165.379 C306.366167,164.902998 306.403,164.29667 306.403,163.56 C306.403,162.82333 306.366167,162.219836 306.2925,161.7495 C306.218833,161.279164 306.114001,160.910835 305.978,160.6445 C305.841999,160.378165 305.683334,160.194001 305.502,160.092 C305.320666,159.989999 305.122334,159.939 304.907,159.939 C304.702999,159.939 304.510334,159.989999 304.329,160.092 C304.147666,160.194001 303.989001,160.378165 303.853,160.6445 C303.716999,160.910835 303.609334,161.279164 303.53,161.7495 C303.450666,162.219836 303.411,162.82333 303.411,163.56 C303.411,164.29667 303.450666,164.902998 303.53,165.379 C303.609334,165.855002 303.716999,166.234665 303.853,166.518 C303.989001,166.801335 304.147666,166.996833 304.329,167.1045 C304.510334,167.212167 304.702999,167.266 304.907,167.266 Z M310.5,169 L310.5,160.568 L312.54,160.568 L312.71,161.656 L312.778,161.656 C313.129335,161.304665 313.503331,161.001501 313.9,160.7465 C314.296669,160.491499 314.772664,160.364 315.328,160.364 C315.92867,160.364 316.413165,160.485832 316.7815,160.7295 C317.149835,160.973168 317.441666,161.321664 317.657,161.775 C318.031002,161.389665 318.424831,161.058168 318.8385,160.7805 C319.252169,160.502832 319.74233,160.364 320.309,160.364 C321.215671,160.364 321.881498,160.667164 322.3065,161.2735 C322.731502,161.879836 322.944,162.709995 322.944,163.764 L322.944,169 L320.445,169 L320.445,164.087 C320.445,163.474997 320.362834,163.055668 320.1985,162.829 C320.034166,162.602332 319.770668,162.489 319.408,162.489 C318.988665,162.489 318.507003,162.760997 317.963,163.305 L317.963,169 L315.464,169 L315.464,164.087 C315.464,163.474997 315.381834,163.055668 315.2175,162.829 C315.053166,162.602332 314.789668,162.489 314.427,162.489 C313.996331,162.489 313.520336,162.760997 312.999,163.305 L312.999,169 L310.5,169 Z M325.069,169 L325.069,160.568 L327.109,160.568 L327.279,161.656 L327.347,161.656 C327.698335,161.304665 328.072331,161.001501 328.469,160.7465 C328.865669,160.491499 329.341664,160.364 329.897,160.364 C330.49767,160.364 330.982165,160.485832 331.3505,160.7295 C331.718835,160.973168 332.010666,161.321664 332.226,161.775 C332.600002,161.389665 332.993831,161.058168 333.4075,160.7805 C333.821169,160.502832 334.31133,160.364 334.878,160.364 C335.784671,160.364 336.450498,160.667164 336.8755,161.2735 C337.300502,161.879836 337.513,162.709995 337.513,163.764 L337.513,169 L335.014,169 L335.014,164.087 C335.014,163.474997 334.931834,163.055668 334.7675,162.829 C334.603166,162.602332 334.339668,162.489 333.977,162.489 C333.557665,162.489 333.076003,162.760997 332.532,163.305 L332.532,169 L330.033,169 L330.033,164.087 C330.033,163.474997 329.950834,163.055668 329.7865,162.829 C329.622166,162.602332 329.358668,162.489 328.996,162.489 C328.565331,162.489 328.089336,162.760997 327.568,163.305 L327.568,169 L325.069,169 Z" id="290mm" fill="#093169" fill-rule="nonzero" transform="translate(310.245000, 163.602500) rotate(-270.000000) translate(-310.245000, -163.602500) "></path>
        <polyline id="Rectangle-Copy-3" stroke="#CBD8F2" transform="translate(277.500000, 162.500000) rotate(-270.000000) translate(-277.500000, -162.500000) " points="217.201667 170 217 155 338 155 338 170"></polyline>
    </g>
</svg>