<?xml version="1.0" encoding="UTF-8"?>
<svg width="600px" height="260px" viewBox="0 0 600 260" version="1.1" xmlns="http://www.w3.org/2000/svg" xmlns:xlink="http://www.w3.org/1999/xlink">
    <!-- Generator: Sketch 58 (84663) - https://sketch.com -->
    <title>keystones/KS2-C</title>
    <desc>Created with Sketch.</desc>
    <g id="keystones/KS2-C" stroke="none" stroke-width="1" fill="none" fill-rule="evenodd">
        <rect fill="#F5F9FF" x="0" y="0" width="600" height="260"></rect>
        <g id="Group-2" transform="translate(123.180000, 101.930000)" stroke="#CBD8F2">
            <polyline id="Path" fill="#FFFFFF" points="0 0.25 31.44 121.69 94.2 121.69 125.58 0.25"></polyline>
            <path d="M0,0.25 L125.58,0.25" id="Path"></path>
            <polyline id="Path" points="9.54 7.81 116.1 7.81 88.2 114.13 37.38 114.13 9.54 7.81"></polyline>
            <path d="M37.38,114.13 L31.44,121.69" id="Path"></path>
            <path d="M88.2,114.13 L94.2,121.69" id="Path"></path>
            <path d="M0,0.25 L9.54,7.81" id="Path"></path>
            <path d="M125.58,0.25 L116.1,7.81" id="Path"></path>
        </g>
        <polyline id="Rectangle-Copy" stroke="#CBD8F2" points="123.208333 87 123 72 248 72 248 87"></polyline>
        <path d="M161.598,52.204 C160.713996,52.204 159.966003,52.0651681 159.354,51.7875 C158.741997,51.5098319 158.237669,51.138669 157.841,50.674 L158.997,49.093 C159.325668,49.4103349 159.685498,49.670999 160.0765,49.875 C160.467502,50.079001 160.895331,50.181 161.36,50.181 C161.892669,50.181 162.317665,50.0705011 162.635,49.8495 C162.952335,49.6284989 163.111,49.314002 163.111,48.906 C163.111,48.6679988 163.0685,48.4526676 162.9835,48.26 C162.8985,48.0673324 162.748334,47.905834 162.533,47.7755 C162.317666,47.645166 162.023002,47.543167 161.649,47.4695 C161.274998,47.395833 160.793336,47.359 160.204,47.359 L160.204,45.591 C160.691336,45.591 161.096498,45.5570003 161.4195,45.489 C161.742502,45.4209997 162.003166,45.321834 162.2015,45.1915 C162.399834,45.061166 162.5415,44.9081675 162.6265,44.7325 C162.7115,44.5568325 162.754,44.3613344 162.754,44.146 C162.754,43.7719981 162.640668,43.4801677 162.414,43.2705 C162.187332,43.0608323 161.858669,42.956 161.428,42.956 C161.042665,42.956 160.694168,43.0409991 160.3825,43.211 C160.070832,43.3810008 159.745002,43.6133319 159.405,43.908 L158.147,42.378 C158.645669,41.9473312 159.169831,41.6101679 159.7195,41.3665 C160.269169,41.1228321 160.87833,41.001 161.547,41.001 C162.102336,41.001 162.609498,41.066166 163.0685,41.1965 C163.527502,41.326834 163.918498,41.5194987 164.2415,41.7745 C164.564502,42.0295013 164.816666,42.3383315 164.998,42.701 C165.179334,43.0636685 165.27,43.4829976 165.27,43.959 C165.27,44.5256695 165.114168,45.004498 164.8025,45.3955 C164.490832,45.786502 164.046003,46.1066654 163.468,46.356 L163.468,46.424 C164.091336,46.6053342 164.604165,46.9141645 165.0065,47.3505 C165.408835,47.7868355 165.61,48.3563298 165.61,49.059 C165.61,49.5576692 165.502334,50.002498 165.287,50.3935 C165.071666,50.784502 164.782668,51.1131653 164.42,51.3795 C164.057332,51.6458347 163.632336,51.8498326 163.145,51.9915 C162.657664,52.1331674 162.142003,52.204 161.598,52.204 Z M170.931,52.204 C170.352997,52.204 169.826002,52.0821679 169.35,51.8385 C168.873998,51.5948321 168.468835,51.2350024 168.1345,50.759 C167.800165,50.2829976 167.539501,49.6936702 167.3525,48.991 C167.165499,48.2883298 167.072,47.4780046 167.072,46.56 C167.072,45.6419954 167.165499,44.8373368 167.3525,44.146 C167.539501,43.4546632 167.800165,42.8738357 168.1345,42.4035 C168.468835,41.9331643 168.873998,41.5818345 169.35,41.3495 C169.826002,41.1171655 170.352997,41.001 170.931,41.001 C171.509003,41.001 172.035998,41.1171655 172.512,41.3495 C172.988002,41.5818345 173.393165,41.9331643 173.7275,42.4035 C174.061835,42.8738357 174.322499,43.4546632 174.5095,44.146 C174.696501,44.8373368 174.79,45.6419954 174.79,46.56 C174.79,47.4780046 174.696501,48.2883298 174.5095,48.991 C174.322499,49.6936702 174.061835,50.2829976 173.7275,50.759 C173.393165,51.2350024 172.988002,51.5948321 172.512,51.8385 C172.035998,52.0821679 171.509003,52.204 170.931,52.204 Z M170.931,50.266 C171.146334,50.266 171.344666,50.2121672 171.526,50.1045 C171.707334,49.9968328 171.865999,49.8013347 172.002,49.518 C172.138001,49.2346652 172.242833,48.8550024 172.3165,48.379 C172.390167,47.9029976 172.427,47.2966703 172.427,46.56 C172.427,45.8233296 172.390167,45.2198357 172.3165,44.7495 C172.242833,44.2791643 172.138001,43.9108347 172.002,43.6445 C171.865999,43.3781653 171.707334,43.1940005 171.526,43.092 C171.344666,42.9899995 171.146334,42.939 170.931,42.939 C170.726999,42.939 170.534334,42.9899995 170.353,43.092 C170.171666,43.1940005 170.013001,43.3781653 169.877,43.6445 C169.740999,43.9108347 169.633334,44.2791643 169.554,44.7495 C169.474666,45.2198357 169.435,45.8233296 169.435,46.56 C169.435,47.2966703 169.474666,47.9029976 169.554,48.379 C169.633334,48.8550024 169.740999,49.2346652 169.877,49.518 C170.013001,49.8013347 170.171666,49.9968328 170.353,50.1045 C170.534334,50.2121672 170.726999,50.266 170.931,50.266 Z M179.907,52.204 C179.328997,52.204 178.802002,52.0821679 178.326,51.8385 C177.849998,51.5948321 177.444835,51.2350024 177.1105,50.759 C176.776165,50.2829976 176.515501,49.6936702 176.3285,48.991 C176.141499,48.2883298 176.048,47.4780046 176.048,46.56 C176.048,45.6419954 176.141499,44.8373368 176.3285,44.146 C176.515501,43.4546632 176.776165,42.8738357 177.1105,42.4035 C177.444835,41.9331643 177.849998,41.5818345 178.326,41.3495 C178.802002,41.1171655 179.328997,41.001 179.907,41.001 C180.485003,41.001 181.011998,41.1171655 181.488,41.3495 C181.964002,41.5818345 182.369165,41.9331643 182.7035,42.4035 C183.037835,42.8738357 183.298499,43.4546632 183.4855,44.146 C183.672501,44.8373368 183.766,45.6419954 183.766,46.56 C183.766,47.4780046 183.672501,48.2883298 183.4855,48.991 C183.298499,49.6936702 183.037835,50.2829976 182.7035,50.759 C182.369165,51.2350024 181.964002,51.5948321 181.488,51.8385 C181.011998,52.0821679 180.485003,52.204 179.907,52.204 Z M179.907,50.266 C180.122334,50.266 180.320666,50.2121672 180.502,50.1045 C180.683334,49.9968328 180.841999,49.8013347 180.978,49.518 C181.114001,49.2346652 181.218833,48.8550024 181.2925,48.379 C181.366167,47.9029976 181.403,47.2966703 181.403,46.56 C181.403,45.8233296 181.366167,45.2198357 181.2925,44.7495 C181.218833,44.2791643 181.114001,43.9108347 180.978,43.6445 C180.841999,43.3781653 180.683334,43.1940005 180.502,43.092 C180.320666,42.9899995 180.122334,42.939 179.907,42.939 C179.702999,42.939 179.510334,42.9899995 179.329,43.092 C179.147666,43.1940005 178.989001,43.3781653 178.853,43.6445 C178.716999,43.9108347 178.609334,44.2791643 178.53,44.7495 C178.450666,45.2198357 178.411,45.8233296 178.411,46.56 C178.411,47.2966703 178.450666,47.9029976 178.53,48.379 C178.609334,48.8550024 178.716999,49.2346652 178.853,49.518 C178.989001,49.8013347 179.147666,49.9968328 179.329,50.1045 C179.510334,50.2121672 179.702999,50.266 179.907,50.266 Z M185.5,52 L185.5,43.568 L187.54,43.568 L187.71,44.656 L187.778,44.656 C188.129335,44.3046649 188.503331,44.0015013 188.9,43.7465 C189.296669,43.4914987 189.772664,43.364 190.328,43.364 C190.92867,43.364 191.413165,43.4858321 191.7815,43.7295 C192.149835,43.9731679 192.441666,44.3216644 192.657,44.775 C193.031002,44.3896647 193.424831,44.0581681 193.8385,43.7805 C194.252169,43.5028319 194.742331,43.364 195.309,43.364 C196.215671,43.364 196.881498,43.6671636 197.3065,44.2735 C197.731502,44.8798364 197.944,45.7099947 197.944,46.764 L197.944,52 L195.445,52 L195.445,47.087 C195.445,46.4749969 195.362834,46.0556678 195.1985,45.829 C195.034166,45.6023322 194.770668,45.489 194.408,45.489 C193.988665,45.489 193.507003,45.7609973 192.963,46.305 L192.963,52 L190.464,52 L190.464,47.087 C190.464,46.4749969 190.381834,46.0556678 190.2175,45.829 C190.053166,45.6023322 189.789668,45.489 189.427,45.489 C188.996331,45.489 188.520336,45.7609973 187.999,46.305 L187.999,52 L185.5,52 Z M200.069,52 L200.069,43.568 L202.109,43.568 L202.279,44.656 L202.347,44.656 C202.698335,44.3046649 203.072331,44.0015013 203.469,43.7465 C203.865669,43.4914987 204.341664,43.364 204.897,43.364 C205.49767,43.364 205.982165,43.4858321 206.3505,43.7295 C206.718835,43.9731679 207.010666,44.3216644 207.226,44.775 C207.600002,44.3896647 207.993831,44.0581681 208.4075,43.7805 C208.821169,43.5028319 209.31133,43.364 209.878,43.364 C210.784671,43.364 211.450498,43.6671636 211.8755,44.2735 C212.300502,44.8798364 212.513,45.7099947 212.513,46.764 L212.513,52 L210.014,52 L210.014,47.087 C210.014,46.4749969 209.931834,46.0556678 209.7675,45.829 C209.603166,45.6023322 209.339668,45.489 208.977,45.489 C208.557665,45.489 208.076003,45.7609973 207.532,46.305 L207.532,52 L205.033,52 L205.033,47.087 C205.033,46.4749969 204.950834,46.0556678 204.7865,45.829 C204.622166,45.6023322 204.358668,45.489 203.996,45.489 C203.565331,45.489 203.089336,45.7609973 202.568,46.305 L202.568,52 L200.069,52 Z" id="300mm" fill="#093169" fill-rule="nonzero"></path>
        <path d="M277.096,169 L277.096,167.572 L277.897041,166.817199 C278.28328,166.45 278.648098,166.098102 278.9915,165.7615 C279.563836,165.200497 280.056831,164.673502 280.4705,164.1805 C280.884169,163.687498 281.207166,163.228502 281.4395,162.8035 C281.671834,162.378498 281.788,161.973335 281.788,161.588 C281.788,161.055331 281.652001,160.650168 281.38,160.3725 C281.107999,160.094832 280.734002,159.956 280.258,159.956 C279.861331,159.956 279.510002,160.066499 279.204,160.2875 C278.897998,160.508501 278.609001,160.766332 278.337,161.061 L276.977,159.718 C277.509669,159.151331 278.053664,158.723501 278.609,158.4345 C279.164336,158.145499 279.827329,158.001 280.598,158.001 C281.130669,158.001 281.615164,158.083166 282.0515,158.2475 C282.487836,158.411834 282.864665,158.644165 283.182,158.9445 C283.499335,159.244835 283.742999,159.604665 283.913,160.024 C284.083001,160.443335 284.168,160.913664 284.168,161.435 C284.168,161.888336 284.071668,162.350164 283.879,162.8205 C283.686332,163.290836 283.428502,163.761164 283.1055,164.2315 C282.782498,164.701836 282.414169,165.172164 282.0005,165.6425 C281.586831,166.112836 281.159002,166.574664 280.717,167.028 L281.148375,166.979125 C281.299958,166.963542 281.459332,166.948667 281.6265,166.9345 C281.960835,166.906167 282.258332,166.892 282.519,166.892 L284.695,166.892 L284.695,169 L277.096,169 Z M289.727,163.186 C290.010335,163.186 290.296499,163.103834 290.5855,162.9395 C290.874501,162.775166 291.126666,162.500335 291.342,162.115 C291.228666,161.264996 291.016168,160.678502 290.7045,160.3555 C290.392832,160.032498 290.044335,159.871 289.659,159.871 C289.296332,159.871 288.979001,160.009832 288.707,160.2875 C288.434999,160.565168 288.299,161.009997 288.299,161.622 C288.299,162.200003 288.434999,162.605166 288.707,162.8375 C288.979001,163.069834 289.318998,163.186 289.727,163.186 Z M289.336,169.204 C288.621996,169.204 288.001503,169.073668 287.4745,168.813 C286.947497,168.552332 286.514002,168.252002 286.174,167.912 L287.5,166.416 C287.681334,166.620001 287.924998,166.798499 288.231,166.9515 C288.537002,167.104501 288.848665,167.181 289.166,167.181 C289.472002,167.181 289.755332,167.124334 290.016,167.011 C290.276668,166.897666 290.506166,166.707835 290.7045,166.4415 C290.902834,166.175165 291.061499,165.829502 291.1805,165.4045 C291.299501,164.979498 291.370333,164.44967 291.393,163.815 C291.256999,163.996334 291.098334,164.157833 290.917,164.2995 C290.735666,164.441167 290.548668,164.560166 290.356,164.6565 C290.163332,164.752834 289.970668,164.8265 289.778,164.8775 C289.585332,164.9285 289.404001,164.954 289.234,164.954 C288.769331,164.954 288.341502,164.886001 287.9505,164.75 C287.559498,164.613999 287.222335,164.410001 286.939,164.138 C286.655665,163.865999 286.431834,163.520335 286.2675,163.101 C286.103166,162.681665 286.021,162.18867 286.021,161.622 C286.021,161.066664 286.117332,160.565169 286.31,160.1175 C286.502668,159.669831 286.760498,159.287335 287.0835,158.97 C287.406502,158.652665 287.786164,158.411834 288.2225,158.2475 C288.658836,158.083166 289.120664,158.001 289.608,158.001 C290.129336,158.001 290.636498,158.102999 291.1295,158.307 C291.622502,158.511001 292.058831,158.828331 292.4385,159.259 C292.818169,159.689669 293.124166,160.242163 293.3565,160.9165 C293.588834,161.590837 293.705,162.403995 293.705,163.356 C293.705,164.364672 293.583168,165.23733 293.3395,165.974 C293.095832,166.71067 292.772835,167.316998 292.3705,167.793 C291.968165,168.269002 291.503503,168.623166 290.9765,168.8555 C290.449497,169.087834 289.90267,169.204 289.336,169.204 Z M298.907,169.204 C298.328997,169.204 297.802002,169.082168 297.326,168.8385 C296.849998,168.594832 296.444835,168.235002 296.1105,167.759 C295.776165,167.282998 295.515501,166.69367 295.3285,165.991 C295.141499,165.28833 295.048,164.478005 295.048,163.56 C295.048,162.641995 295.141499,161.837337 295.3285,161.146 C295.515501,160.454663 295.776165,159.873836 296.1105,159.4035 C296.444835,158.933164 296.849998,158.581834 297.326,158.3495 C297.802002,158.117166 298.328997,158.001 298.907,158.001 C299.485003,158.001 300.011998,158.117166 300.488,158.3495 C300.964002,158.581834 301.369165,158.933164 301.7035,159.4035 C302.037835,159.873836 302.298499,160.454663 302.4855,161.146 C302.672501,161.837337 302.766,162.641995 302.766,163.56 C302.766,164.478005 302.672501,165.28833 302.4855,165.991 C302.298499,166.69367 302.037835,167.282998 301.7035,167.759 C301.369165,168.235002 300.964002,168.594832 300.488,168.8385 C300.011998,169.082168 299.485003,169.204 298.907,169.204 Z M298.907,167.266 C299.122334,167.266 299.320666,167.212167 299.502,167.1045 C299.683334,166.996833 299.841999,166.801335 299.978,166.518 C300.114001,166.234665 300.218833,165.855002 300.2925,165.379 C300.366167,164.902998 300.403,164.29667 300.403,163.56 C300.403,162.82333 300.366167,162.219836 300.2925,161.7495 C300.218833,161.279164 300.114001,160.910835 299.978,160.6445 C299.841999,160.378165 299.683334,160.194001 299.502,160.092 C299.320666,159.989999 299.122334,159.939 298.907,159.939 C298.702999,159.939 298.510334,159.989999 298.329,160.092 C298.147666,160.194001 297.989001,160.378165 297.853,160.6445 C297.716999,160.910835 297.609334,161.279164 297.53,161.7495 C297.450666,162.219836 297.411,162.82333 297.411,163.56 C297.411,164.29667 297.450666,164.902998 297.53,165.379 C297.609334,165.855002 297.716999,166.234665 297.853,166.518 C297.989001,166.801335 298.147666,166.996833 298.329,167.1045 C298.510334,167.212167 298.702999,167.266 298.907,167.266 Z M304.5,169 L304.5,160.568 L306.54,160.568 L306.71,161.656 L306.778,161.656 C307.129335,161.304665 307.503331,161.001501 307.9,160.7465 C308.296669,160.491499 308.772664,160.364 309.328,160.364 C309.92867,160.364 310.413165,160.485832 310.7815,160.7295 C311.149835,160.973168 311.441666,161.321664 311.657,161.775 C312.031002,161.389665 312.424831,161.058168 312.8385,160.7805 C313.252169,160.502832 313.74233,160.364 314.309,160.364 C315.215671,160.364 315.881498,160.667164 316.3065,161.2735 C316.731502,161.879836 316.944,162.709995 316.944,163.764 L316.944,169 L314.445,169 L314.445,164.087 C314.445,163.474997 314.362834,163.055668 314.1985,162.829 C314.034166,162.602332 313.770668,162.489 313.408,162.489 C312.988665,162.489 312.507003,162.760997 311.963,163.305 L311.963,169 L309.464,169 L309.464,164.087 C309.464,163.474997 309.381834,163.055668 309.2175,162.829 C309.053166,162.602332 308.789668,162.489 308.427,162.489 C307.996331,162.489 307.520336,162.760997 306.999,163.305 L306.999,169 L304.5,169 Z M319.069,169 L319.069,160.568 L321.109,160.568 L321.279,161.656 L321.347,161.656 C321.698335,161.304665 322.072331,161.001501 322.469,160.7465 C322.865669,160.491499 323.341664,160.364 323.897,160.364 C324.49767,160.364 324.982165,160.485832 325.3505,160.7295 C325.718835,160.973168 326.010666,161.321664 326.226,161.775 C326.600002,161.389665 326.993831,161.058168 327.4075,160.7805 C327.821169,160.502832 328.31133,160.364 328.878,160.364 C329.784671,160.364 330.450498,160.667164 330.8755,161.2735 C331.300502,161.879836 331.513,162.709995 331.513,163.764 L331.513,169 L329.014,169 L329.014,164.087 C329.014,163.474997 328.931834,163.055668 328.7675,162.829 C328.603166,162.602332 328.339668,162.489 327.977,162.489 C327.557665,162.489 327.076003,162.760997 326.532,163.305 L326.532,169 L324.033,169 L324.033,164.087 C324.033,163.474997 323.950834,163.055668 323.7865,162.829 C323.622166,162.602332 323.358668,162.489 322.996,162.489 C322.565331,162.489 322.089336,162.760997 321.568,163.305 L321.568,169 L319.069,169 Z" id="290mm" fill="#093169" fill-rule="nonzero" transform="translate(304.245000, 163.602500) rotate(-270.000000) translate(-304.245000, -163.602500) "></path>
        <polyline id="Rectangle-Copy-3" stroke="#CBD8F2" transform="translate(271.500000, 162.500000) rotate(-270.000000) translate(-271.500000, -162.500000) " points="211.201667 170 211 155 332 155 332 170"></polyline>
        <g id="Group-3" transform="translate(356.000000, 35.000000)">
            <path d="M92.096,134 L92.096,132.572 L92.8970407,131.817199 C93.2832799,131.45 93.6480983,131.098102 93.9915,130.7615 C94.5638362,130.200497 95.0568313,129.673502 95.4705,129.1805 C95.8841687,128.687498 96.2071655,128.228502 96.4395,127.8035 C96.6718345,127.378498 96.788,126.973335 96.788,126.588 C96.788,126.055331 96.6520014,125.650168 96.38,125.3725 C96.1079986,125.094832 95.7340024,124.956 95.258,124.956 C94.8613314,124.956 94.5100015,125.066499 94.204,125.2875 C93.8979985,125.508501 93.6090014,125.766332 93.337,126.061 L91.977,124.718 C92.5096693,124.151331 93.0536639,123.723501 93.609,123.4345 C94.1643361,123.145499 94.8273295,123.001 95.598,123.001 C96.1306693,123.001 96.6151645,123.083166 97.0515,123.2475 C97.4878355,123.411834 97.8646651,123.644165 98.182,123.9445 C98.4993349,124.244835 98.7429992,124.604665 98.913,125.024 C99.0830009,125.443335 99.168,125.913664 99.168,126.435 C99.168,126.888336 99.0716676,127.350164 98.879,127.8205 C98.6863324,128.290836 98.4285016,128.761164 98.1055,129.2315 C97.7824984,129.701836 97.4141687,130.172164 97.0005,130.6425 C96.5868313,131.112836 96.1590022,131.574664 95.717,132.028 L96.1483749,131.979125 C96.2999578,131.963542 96.4593325,131.948667 96.6265,131.9345 C96.960835,131.906167 97.258332,131.892 97.519,131.892 L99.695,131.892 L99.695,134 L92.096,134 Z M104.727,128.186 C105.010335,128.186 105.296499,128.103834 105.5855,127.9395 C105.874501,127.775166 106.126666,127.500335 106.342,127.115 C106.228666,126.264996 106.016168,125.678502 105.7045,125.3555 C105.392832,125.032498 105.044335,124.871 104.659,124.871 C104.296332,124.871 103.979001,125.009832 103.707,125.2875 C103.434999,125.565168 103.299,126.009997 103.299,126.622 C103.299,127.200003 103.434999,127.605166 103.707,127.8375 C103.979001,128.069834 104.318998,128.186 104.727,128.186 Z M104.336,134.204 C103.621996,134.204 103.001503,134.073668 102.4745,133.813 C101.947497,133.552332 101.514002,133.252002 101.174,132.912 L102.5,131.416 C102.681334,131.620001 102.924998,131.798499 103.231,131.9515 C103.537002,132.104501 103.848665,132.181 104.166,132.181 C104.472002,132.181 104.755332,132.124334 105.016,132.011 C105.276668,131.897666 105.506166,131.707835 105.7045,131.4415 C105.902834,131.175165 106.061499,130.829502 106.1805,130.4045 C106.299501,129.979498 106.370333,129.44967 106.393,128.815 C106.256999,128.996334 106.098334,129.157833 105.917,129.2995 C105.735666,129.441167 105.548668,129.560166 105.356,129.6565 C105.163332,129.752834 104.970668,129.8265 104.778,129.8775 C104.585332,129.9285 104.404001,129.954 104.234,129.954 C103.769331,129.954 103.341502,129.886001 102.9505,129.75 C102.559498,129.613999 102.222335,129.410001 101.939,129.138 C101.655665,128.865999 101.431834,128.520335 101.2675,128.101 C101.103166,127.681665 101.021,127.18867 101.021,126.622 C101.021,126.066664 101.117332,125.565169 101.31,125.1175 C101.502668,124.669831 101.760498,124.287335 102.0835,123.97 C102.406502,123.652665 102.786164,123.411834 103.2225,123.2475 C103.658836,123.083166 104.120664,123.001 104.608,123.001 C105.129336,123.001 105.636498,123.102999 106.1295,123.307 C106.622502,123.511001 107.058831,123.828331 107.4385,124.259 C107.818169,124.689669 108.124166,125.242163 108.3565,125.9165 C108.588834,126.590837 108.705,127.403995 108.705,128.356 C108.705,129.364672 108.583168,130.23733 108.3395,130.974 C108.095832,131.71067 107.772835,132.316998 107.3705,132.793 C106.968165,133.269002 106.503503,133.623166 105.9765,133.8555 C105.449497,134.087834 104.90267,134.204 104.336,134.204 Z M113.907,134.204 C113.328997,134.204 112.802002,134.082168 112.326,133.8385 C111.849998,133.594832 111.444835,133.235002 111.1105,132.759 C110.776165,132.282998 110.515501,131.69367 110.3285,130.991 C110.141499,130.28833 110.048,129.478005 110.048,128.56 C110.048,127.641995 110.141499,126.837337 110.3285,126.146 C110.515501,125.454663 110.776165,124.873836 111.1105,124.4035 C111.444835,123.933164 111.849998,123.581834 112.326,123.3495 C112.802002,123.117166 113.328997,123.001 113.907,123.001 C114.485003,123.001 115.011998,123.117166 115.488,123.3495 C115.964002,123.581834 116.369165,123.933164 116.7035,124.4035 C117.037835,124.873836 117.298499,125.454663 117.4855,126.146 C117.672501,126.837337 117.766,127.641995 117.766,128.56 C117.766,129.478005 117.672501,130.28833 117.4855,130.991 C117.298499,131.69367 117.037835,132.282998 116.7035,132.759 C116.369165,133.235002 115.964002,133.594832 115.488,133.8385 C115.011998,134.082168 114.485003,134.204 113.907,134.204 Z M113.907,132.266 C114.122334,132.266 114.320666,132.212167 114.502,132.1045 C114.683334,131.996833 114.841999,131.801335 114.978,131.518 C115.114001,131.234665 115.218833,130.855002 115.2925,130.379 C115.366167,129.902998 115.403,129.29667 115.403,128.56 C115.403,127.82333 115.366167,127.219836 115.2925,126.7495 C115.218833,126.279164 115.114001,125.910835 114.978,125.6445 C114.841999,125.378165 114.683334,125.194001 114.502,125.092 C114.320666,124.989999 114.122334,124.939 113.907,124.939 C113.702999,124.939 113.510334,124.989999 113.329,125.092 C113.147666,125.194001 112.989001,125.378165 112.853,125.6445 C112.716999,125.910835 112.609334,126.279164 112.53,126.7495 C112.450666,127.219836 112.411,127.82333 112.411,128.56 C112.411,129.29667 112.450666,129.902998 112.53,130.379 C112.609334,130.855002 112.716999,131.234665 112.853,131.518 C112.989001,131.801335 113.147666,131.996833 113.329,132.1045 C113.510334,132.212167 113.702999,132.266 113.907,132.266 Z M119.5,134 L119.5,125.568 L121.54,125.568 L121.71,126.656 L121.778,126.656 C122.129335,126.304665 122.503331,126.001501 122.9,125.7465 C123.296669,125.491499 123.772664,125.364 124.328,125.364 C124.92867,125.364 125.413165,125.485832 125.7815,125.7295 C126.149835,125.973168 126.441666,126.321664 126.657,126.775 C127.031002,126.389665 127.424831,126.058168 127.8385,125.7805 C128.252169,125.502832 128.742331,125.364 129.309,125.364 C130.215671,125.364 130.881498,125.667164 131.3065,126.2735 C131.731502,126.879836 131.944,127.709995 131.944,128.764 L131.944,134 L129.445,134 L129.445,129.087 C129.445,128.474997 129.362834,128.055668 129.1985,127.829 C129.034166,127.602332 128.770668,127.489 128.408,127.489 C127.988665,127.489 127.507003,127.760997 126.963,128.305 L126.963,134 L124.464,134 L124.464,129.087 C124.464,128.474997 124.381834,128.055668 124.2175,127.829 C124.053166,127.602332 123.789668,127.489 123.427,127.489 C122.996331,127.489 122.520336,127.760997 121.999,128.305 L121.999,134 L119.5,134 Z M134.069,134 L134.069,125.568 L136.109,125.568 L136.279,126.656 L136.347,126.656 C136.698335,126.304665 137.072331,126.001501 137.469,125.7465 C137.865669,125.491499 138.341664,125.364 138.897,125.364 C139.49767,125.364 139.982165,125.485832 140.3505,125.7295 C140.718835,125.973168 141.010666,126.321664 141.226,126.775 C141.600002,126.389665 141.993831,126.058168 142.4075,125.7805 C142.821169,125.502832 143.31133,125.364 143.878,125.364 C144.784671,125.364 145.450498,125.667164 145.8755,126.2735 C146.300502,126.879836 146.513,127.709995 146.513,128.764 L146.513,134 L144.014,134 L144.014,129.087 C144.014,128.474997 143.931834,128.055668 143.7675,127.829 C143.603166,127.602332 143.339668,127.489 142.977,127.489 C142.557665,127.489 142.076003,127.760997 141.532,128.305 L141.532,134 L139.033,134 L139.033,129.087 C139.033,128.474997 138.950834,128.055668 138.7865,127.829 C138.622166,127.602332 138.358668,127.489 137.996,127.489 C137.565331,127.489 137.089336,127.760997 136.568,128.305 L136.568,134 L134.069,134 Z" id="290mm" fill="#093169" fill-rule="nonzero" transform="translate(119.245000, 128.602500) rotate(-270.000000) translate(-119.245000, -128.602500) "></path>
            <polyline id="Rectangle-Copy-4" stroke="#CBD8F2" transform="translate(86.500000, 127.500000) rotate(-270.000000) translate(-86.500000, -127.500000) " points="26.2016667 135 26 120 147 120 147 135"></polyline>
            <g id="Group" transform="translate(1.000000, 67.180000)" stroke="#CBD8F2">
                <polyline id="Path" fill="#FFFFFF" points="54.67 121.44 62.17 113.88 62.17 7.56 54.67 -2.84217094e-14"></polyline>
                <polyline id="Path" fill="#FFFFFF" points="0.25 25.14 44.17 25.14 44.17 121.44 54.67 121.44 54.67 8.52651283e-14 0.25 8.52651283e-14"></polyline>
                <path d="M0.25,4.97379915e-14 L0.25,25.14" id="Path"></path>
            </g>
            <polyline id="Rectangle-Copy-2" stroke="#CBD8F2" points="1.09166667 52 1 37 56 37 56 52"></polyline>
            <path d="M1.657,17 L1.657,14.977 L4.003,14.977 L4.003,8.738 L1.98,8.738 L1.98,7.191 C2.56933628,7.0776661 3.06799796,6.94166746 3.476,6.783 C3.88400204,6.62433254 4.28066474,6.4316678 4.666,6.205 L6.502,6.205 L6.502,14.977 L8.525,14.977 L8.525,17 L1.657,17 Z M13.574,17.204 C12.6899956,17.204 11.9420031,17.0651681 11.33,16.7875 C10.7179969,16.5098319 10.2136686,16.138669 9.817,15.674 L10.973,14.093 C11.3016683,14.4103349 11.661498,14.670999 12.0525,14.875 C12.443502,15.079001 12.871331,15.181 13.336,15.181 C13.8686693,15.181 14.2936651,15.0705011 14.611,14.8495 C14.9283349,14.6284989 15.087,14.314002 15.087,13.906 C15.087,13.6679988 15.0445004,13.4526676 14.9595,13.26 C14.8744996,13.0673324 14.7243344,12.905834 14.509,12.7755 C14.2936656,12.645166 13.9990019,12.543167 13.625,12.4695 C13.2509981,12.395833 12.7693363,12.359 12.18,12.359 L12.18,10.591 C12.6673358,10.591 13.0724984,10.5570003 13.3955,10.489 C13.7185016,10.4209997 13.9791657,10.321834 14.1775,10.1915 C14.3758343,10.061166 14.5174996,9.90816754 14.6025,9.7325 C14.6875004,9.55683245 14.73,9.36133441 14.73,9.146 C14.73,8.77199813 14.6166678,8.48016772 14.39,8.2705 C14.1633322,8.06083229 13.8346688,7.956 13.404,7.956 C13.0186647,7.956 12.6701682,8.04099915 12.3585,8.211 C12.0468318,8.38100085 11.7210017,8.61333186 11.381,8.908 L10.123,7.378 C10.6216692,6.94733118 11.1458306,6.61016788 11.6955,6.3665 C12.2451694,6.12283211 12.85433,6.001 13.523,6.001 C14.0783361,6.001 14.5854977,6.06616601 15.0445,6.1965 C15.5035023,6.32683398 15.8944984,6.51949872 16.2175,6.7745 C16.5405016,7.02950128 16.7926658,7.33833152 16.974,7.701 C17.1553342,8.06366848 17.246,8.48299762 17.246,8.959 C17.246,9.5256695 17.0901682,10.004498 16.7785,10.3955 C16.4668318,10.786502 16.0220029,11.1066654 15.444,11.356 L15.444,11.424 C16.0673364,11.6053342 16.5801647,11.9141645 16.9825,12.3505 C17.3848353,12.7868355 17.586,13.3563298 17.586,14.059 C17.586,14.5576692 17.4783344,15.002498 17.263,15.3935 C17.0476656,15.784502 16.7586685,16.1131653 16.396,16.3795 C16.0333315,16.6458347 15.6083358,16.8498326 15.121,16.9915 C14.6336642,17.1331674 14.1180027,17.204 13.574,17.204 Z M22.907,17.204 C22.3289971,17.204 21.8020024,17.0821679 21.326,16.8385 C20.8499976,16.5948321 20.444835,16.2350024 20.1105,15.759 C19.776165,15.2829976 19.5155009,14.6936702 19.3285,13.991 C19.1414991,13.2883298 19.048,12.4780046 19.048,11.56 C19.048,10.6419954 19.1414991,9.83733679 19.3285,9.146 C19.5155009,8.45466321 19.776165,7.87383568 20.1105,7.4035 C20.444835,6.93316431 20.8499976,6.58183449 21.326,6.3495 C21.8020024,6.1171655 22.3289971,6.001 22.907,6.001 C23.4850029,6.001 24.0119976,6.1171655 24.488,6.3495 C24.9640024,6.58183449 25.369165,6.93316431 25.7035,7.4035 C26.037835,7.87383568 26.2984991,8.45466321 26.4855,9.146 C26.6725009,9.83733679 26.766,10.6419954 26.766,11.56 C26.766,12.4780046 26.6725009,13.2883298 26.4855,13.991 C26.2984991,14.6936702 26.037835,15.2829976 25.7035,15.759 C25.369165,16.2350024 24.9640024,16.5948321 24.488,16.8385 C24.0119976,17.0821679 23.4850029,17.204 22.907,17.204 Z M22.907,15.266 C23.1223344,15.266 23.3206658,15.2121672 23.502,15.1045 C23.6833342,14.9968328 23.8419993,14.8013347 23.978,14.518 C24.1140007,14.2346652 24.218833,13.8550024 24.2925,13.379 C24.366167,12.9029976 24.403,12.2966703 24.403,11.56 C24.403,10.8233296 24.366167,10.2198357 24.2925,9.7495 C24.218833,9.27916431 24.1140007,8.91083466 23.978,8.6445 C23.8419993,8.37816533 23.6833342,8.19400051 23.502,8.092 C23.3206658,7.98999949 23.1223344,7.939 22.907,7.939 C22.702999,7.939 22.5103342,7.98999949 22.329,8.092 C22.1476658,8.19400051 21.9890007,8.37816533 21.853,8.6445 C21.7169993,8.91083466 21.6093337,9.27916431 21.53,9.7495 C21.4506663,10.2198357 21.411,10.8233296 21.411,11.56 C21.411,12.2966703 21.4506663,12.9029976 21.53,13.379 C21.6093337,13.8550024 21.7169993,14.2346652 21.853,14.518 C21.9890007,14.8013347 22.1476658,14.9968328 22.329,15.1045 C22.5103342,15.2121672 22.702999,15.266 22.907,15.266 Z M28.5,17 L28.5,8.568 L30.54,8.568 L30.71,9.656 L30.778,9.656 C31.1293351,9.30466491 31.5033314,9.00150127 31.9,8.7465 C32.2966687,8.49149872 32.7726639,8.364 33.328,8.364 C33.9286697,8.364 34.4131648,8.48583211 34.7815,8.7295 C35.1498352,8.97316788 35.4416656,9.3216644 35.657,9.775 C36.0310019,9.38966474 36.4248313,9.05816805 36.8385,8.7805 C37.2521687,8.50283194 37.7423305,8.364 38.309,8.364 C39.2156712,8.364 39.8814979,8.66716363 40.3065,9.2735 C40.7315021,9.87983636 40.944,10.7099947 40.944,11.764 L40.944,17 L38.445,17 L38.445,12.087 C38.445,11.4749969 38.3628342,11.0556678 38.1985,10.829 C38.0341658,10.6023322 37.7706685,10.489 37.408,10.489 C36.9886646,10.489 36.5070027,10.7609973 35.963,11.305 L35.963,17 L33.464,17 L33.464,12.087 C33.464,11.4749969 33.3818342,11.0556678 33.2175,10.829 C33.0531658,10.6023322 32.7896685,10.489 32.427,10.489 C31.9963312,10.489 31.5203359,10.7609973 30.999,11.305 L30.999,17 L28.5,17 Z M43.069,17 L43.069,8.568 L45.109,8.568 L45.279,9.656 L45.347,9.656 C45.6983351,9.30466491 46.0723314,9.00150127 46.469,8.7465 C46.8656687,8.49149872 47.3416639,8.364 47.897,8.364 C48.4976697,8.364 48.9821648,8.48583211 49.3505,8.7295 C49.7188352,8.97316788 50.0106656,9.3216644 50.226,9.775 C50.6000019,9.38966474 50.9938313,9.05816805 51.4075,8.7805 C51.8211687,8.50283194 52.3113305,8.364 52.878,8.364 C53.7846712,8.364 54.4504979,8.66716363 54.8755,9.2735 C55.3005021,9.87983636 55.513,10.7099947 55.513,11.764 L55.513,17 L53.014,17 L53.014,12.087 C53.014,11.4749969 52.9318342,11.0556678 52.7675,10.829 C52.6031658,10.6023322 52.3396685,10.489 51.977,10.489 C51.5576646,10.489 51.0760027,10.7609973 50.532,11.305 L50.532,17 L48.033,17 L48.033,12.087 C48.033,11.4749969 47.9508342,11.0556678 47.7865,10.829 C47.6221658,10.6023322 47.3586685,10.489 46.996,10.489 C46.5653312,10.489 46.0893359,10.7609973 45.568,11.305 L45.568,17 L43.069,17 Z" id="130mm" fill="#093169" fill-rule="nonzero"></path>
        </g>
    </g>
</svg>