<?xml version="1.0" encoding="UTF-8"?>
<svg width="600px" height="260px" viewBox="0 0 600 260" version="1.1" xmlns="http://www.w3.org/2000/svg" xmlns:xlink="http://www.w3.org/1999/xlink">
    <!-- Generator: Sketch 58 (84663) - https://sketch.com -->
    <title>keystones/KS2</title>
    <desc>Created with Sketch.</desc>
    <g id="keystones/KS2" stroke="none" stroke-width="1" fill="none" fill-rule="evenodd">
        <rect fill="#F5F9FF" x="0" y="0" width="600" height="260"></rect>
        <g id="Group-4" transform="translate(123.000000, 35.000000)">
            <g id="Group-2" transform="translate(0.180000, 66.930000)" stroke="#CBD8F2">
                <polyline id="Path" fill="#FFFFFF" points="0 0.25 31.44 121.69 94.2 121.69 125.58 0.25"></polyline>
                <path d="M0,0.25 L125.58,0.25" id="Path"></path>
            </g>
            <polyline id="Rectangle-Copy" stroke="#CBD8F2" points="0.208333333 52 0 37 125 37 125 52"></polyline>
            <path d="M38.598,17.204 C37.7139956,17.204 36.9660031,17.0651681 36.354,16.7875 C35.7419969,16.5098319 35.2376686,16.138669 34.841,15.674 L35.997,14.093 C36.3256683,14.4103349 36.685498,14.670999 37.0765,14.875 C37.467502,15.079001 37.895331,15.181 38.36,15.181 C38.8926693,15.181 39.3176651,15.0705011 39.635,14.8495 C39.9523349,14.6284989 40.111,14.314002 40.111,13.906 C40.111,13.6679988 40.0685004,13.4526676 39.9835,13.26 C39.8984996,13.0673324 39.7483344,12.905834 39.533,12.7755 C39.3176656,12.645166 39.0230019,12.543167 38.649,12.4695 C38.2749981,12.395833 37.7933363,12.359 37.204,12.359 L37.204,10.591 C37.6913358,10.591 38.0964984,10.5570003 38.4195,10.489 C38.7425016,10.4209997 39.0031657,10.321834 39.2015,10.1915 C39.3998343,10.061166 39.5414996,9.90816754 39.6265,9.7325 C39.7115004,9.55683245 39.754,9.36133441 39.754,9.146 C39.754,8.77199813 39.6406678,8.48016772 39.414,8.2705 C39.1873322,8.06083229 38.8586688,7.956 38.428,7.956 C38.0426647,7.956 37.6941682,8.04099915 37.3825,8.211 C37.0708318,8.38100085 36.7450017,8.61333186 36.405,8.908 L35.147,7.378 C35.6456692,6.94733118 36.1698306,6.61016788 36.7195,6.3665 C37.2691694,6.12283211 37.87833,6.001 38.547,6.001 C39.1023361,6.001 39.6094977,6.06616601 40.0685,6.1965 C40.5275023,6.32683398 40.9184984,6.51949872 41.2415,6.7745 C41.5645016,7.02950128 41.8166658,7.33833152 41.998,7.701 C42.1793342,8.06366848 42.27,8.48299762 42.27,8.959 C42.27,9.5256695 42.1141682,10.004498 41.8025,10.3955 C41.4908318,10.786502 41.0460029,11.1066654 40.468,11.356 L40.468,11.424 C41.0913365,11.6053342 41.6041647,11.9141645 42.0065,12.3505 C42.4088353,12.7868355 42.61,13.3563298 42.61,14.059 C42.61,14.5576692 42.5023344,15.002498 42.287,15.3935 C42.0716656,15.784502 41.7826685,16.1131653 41.42,16.3795 C41.0573315,16.6458347 40.6323358,16.8498326 40.145,16.9915 C39.6576642,17.1331674 39.1420027,17.204 38.598,17.204 Z M47.931,17.204 C47.3529971,17.204 46.8260024,17.0821679 46.35,16.8385 C45.8739976,16.5948321 45.468835,16.2350024 45.1345,15.759 C44.800165,15.2829976 44.5395009,14.6936702 44.3525,13.991 C44.1654991,13.2883298 44.072,12.4780046 44.072,11.56 C44.072,10.6419954 44.1654991,9.83733679 44.3525,9.146 C44.5395009,8.45466321 44.800165,7.87383568 45.1345,7.4035 C45.468835,6.93316431 45.8739976,6.58183449 46.35,6.3495 C46.8260024,6.1171655 47.3529971,6.001 47.931,6.001 C48.5090029,6.001 49.0359976,6.1171655 49.512,6.3495 C49.9880024,6.58183449 50.393165,6.93316431 50.7275,7.4035 C51.061835,7.87383568 51.3224991,8.45466321 51.5095,9.146 C51.6965009,9.83733679 51.79,10.6419954 51.79,11.56 C51.79,12.4780046 51.6965009,13.2883298 51.5095,13.991 C51.3224991,14.6936702 51.061835,15.2829976 50.7275,15.759 C50.393165,16.2350024 49.9880024,16.5948321 49.512,16.8385 C49.0359976,17.0821679 48.5090029,17.204 47.931,17.204 Z M47.931,15.266 C48.1463344,15.266 48.3446658,15.2121672 48.526,15.1045 C48.7073342,14.9968328 48.8659993,14.8013347 49.002,14.518 C49.1380007,14.2346652 49.242833,13.8550024 49.3165,13.379 C49.390167,12.9029976 49.427,12.2966703 49.427,11.56 C49.427,10.8233296 49.390167,10.2198357 49.3165,9.7495 C49.242833,9.27916431 49.1380007,8.91083466 49.002,8.6445 C48.8659993,8.37816533 48.7073342,8.19400051 48.526,8.092 C48.3446658,7.98999949 48.1463344,7.939 47.931,7.939 C47.726999,7.939 47.5343342,7.98999949 47.353,8.092 C47.1716658,8.19400051 47.0130007,8.37816533 46.877,8.6445 C46.7409993,8.91083466 46.6333337,9.27916431 46.554,9.7495 C46.4746663,10.2198357 46.435,10.8233296 46.435,11.56 C46.435,12.2966703 46.4746663,12.9029976 46.554,13.379 C46.6333337,13.8550024 46.7409993,14.2346652 46.877,14.518 C47.0130007,14.8013347 47.1716658,14.9968328 47.353,15.1045 C47.5343342,15.2121672 47.726999,15.266 47.931,15.266 Z M56.907,17.204 C56.3289971,17.204 55.8020024,17.0821679 55.326,16.8385 C54.8499976,16.5948321 54.444835,16.2350024 54.1105,15.759 C53.776165,15.2829976 53.5155009,14.6936702 53.3285,13.991 C53.1414991,13.2883298 53.048,12.4780046 53.048,11.56 C53.048,10.6419954 53.1414991,9.83733679 53.3285,9.146 C53.5155009,8.45466321 53.776165,7.87383568 54.1105,7.4035 C54.444835,6.93316431 54.8499976,6.58183449 55.326,6.3495 C55.8020024,6.1171655 56.3289971,6.001 56.907,6.001 C57.4850029,6.001 58.0119976,6.1171655 58.488,6.3495 C58.9640024,6.58183449 59.369165,6.93316431 59.7035,7.4035 C60.037835,7.87383568 60.2984991,8.45466321 60.4855,9.146 C60.6725009,9.83733679 60.766,10.6419954 60.766,11.56 C60.766,12.4780046 60.6725009,13.2883298 60.4855,13.991 C60.2984991,14.6936702 60.037835,15.2829976 59.7035,15.759 C59.369165,16.2350024 58.9640024,16.5948321 58.488,16.8385 C58.0119976,17.0821679 57.4850029,17.204 56.907,17.204 Z M56.907,15.266 C57.1223344,15.266 57.3206658,15.2121672 57.502,15.1045 C57.6833342,14.9968328 57.8419993,14.8013347 57.978,14.518 C58.1140007,14.2346652 58.218833,13.8550024 58.2925,13.379 C58.366167,12.9029976 58.403,12.2966703 58.403,11.56 C58.403,10.8233296 58.366167,10.2198357 58.2925,9.7495 C58.218833,9.27916431 58.1140007,8.91083466 57.978,8.6445 C57.8419993,8.37816533 57.6833342,8.19400051 57.502,8.092 C57.3206658,7.98999949 57.1223344,7.939 56.907,7.939 C56.702999,7.939 56.5103342,7.98999949 56.329,8.092 C56.1476658,8.19400051 55.9890007,8.37816533 55.853,8.6445 C55.7169993,8.91083466 55.6093337,9.27916431 55.53,9.7495 C55.4506663,10.2198357 55.411,10.8233296 55.411,11.56 C55.411,12.2966703 55.4506663,12.9029976 55.53,13.379 C55.6093337,13.8550024 55.7169993,14.2346652 55.853,14.518 C55.9890007,14.8013347 56.1476658,14.9968328 56.329,15.1045 C56.5103342,15.2121672 56.702999,15.266 56.907,15.266 Z M62.5,17 L62.5,8.568 L64.54,8.568 L64.71,9.656 L64.778,9.656 C65.1293351,9.30466491 65.5033313,9.00150127 65.9,8.7465 C66.2966687,8.49149872 66.7726639,8.364 67.328,8.364 C67.9286697,8.364 68.4131648,8.48583211 68.7815,8.7295 C69.1498352,8.97316788 69.4416656,9.3216644 69.657,9.775 C70.0310019,9.38966474 70.4248313,9.05816805 70.8385,8.7805 C71.2521687,8.50283194 71.7423305,8.364 72.309,8.364 C73.2156712,8.364 73.8814979,8.66716363 74.3065,9.2735 C74.7315021,9.87983636 74.944,10.7099947 74.944,11.764 L74.944,17 L72.445,17 L72.445,12.087 C72.445,11.4749969 72.3628342,11.0556678 72.1985,10.829 C72.0341658,10.6023322 71.7706685,10.489 71.408,10.489 C70.9886646,10.489 70.5070027,10.7609973 69.963,11.305 L69.963,17 L67.464,17 L67.464,12.087 C67.464,11.4749969 67.3818342,11.0556678 67.2175,10.829 C67.0531658,10.6023322 66.7896685,10.489 66.427,10.489 C65.9963312,10.489 65.5203359,10.7609973 64.999,11.305 L64.999,17 L62.5,17 Z M77.069,17 L77.069,8.568 L79.109,8.568 L79.279,9.656 L79.347,9.656 C79.6983351,9.30466491 80.0723314,9.00150127 80.469,8.7465 C80.8656687,8.49149872 81.3416639,8.364 81.897,8.364 C82.4976697,8.364 82.9821648,8.48583211 83.3505,8.7295 C83.7188352,8.97316788 84.0106656,9.3216644 84.226,9.775 C84.6000019,9.38966474 84.9938313,9.05816805 85.4075,8.7805 C85.8211687,8.50283194 86.3113305,8.364 86.878,8.364 C87.7846712,8.364 88.4504979,8.66716363 88.8755,9.2735 C89.3005021,9.87983636 89.513,10.7099947 89.513,11.764 L89.513,17 L87.014,17 L87.014,12.087 C87.014,11.4749969 86.9318342,11.0556678 86.7675,10.829 C86.6031658,10.6023322 86.3396685,10.489 85.977,10.489 C85.5576646,10.489 85.0760027,10.7609973 84.532,11.305 L84.532,17 L82.033,17 L82.033,12.087 C82.033,11.4749969 81.9508342,11.0556678 81.7865,10.829 C81.6221658,10.6023322 81.3586685,10.489 80.996,10.489 C80.5653312,10.489 80.0893359,10.7609973 79.568,11.305 L79.568,17 L77.069,17 Z" id="300mm" fill="#093169" fill-rule="nonzero"></path>
            <path d="M154.096,134 L154.096,132.572 L154.897041,131.817199 C155.28328,131.45 155.648098,131.098102 155.9915,130.7615 C156.563836,130.200497 157.056831,129.673502 157.4705,129.1805 C157.884169,128.687498 158.207166,128.228502 158.4395,127.8035 C158.671834,127.378498 158.788,126.973335 158.788,126.588 C158.788,126.055331 158.652001,125.650168 158.38,125.3725 C158.107999,125.094832 157.734002,124.956 157.258,124.956 C156.861331,124.956 156.510002,125.066499 156.204,125.2875 C155.897998,125.508501 155.609001,125.766332 155.337,126.061 L153.977,124.718 C154.509669,124.151331 155.053664,123.723501 155.609,123.4345 C156.164336,123.145499 156.827329,123.001 157.598,123.001 C158.130669,123.001 158.615164,123.083166 159.0515,123.2475 C159.487836,123.411834 159.864665,123.644165 160.182,123.9445 C160.499335,124.244835 160.742999,124.604665 160.913,125.024 C161.083001,125.443335 161.168,125.913664 161.168,126.435 C161.168,126.888336 161.071668,127.350164 160.879,127.8205 C160.686332,128.290836 160.428502,128.761164 160.1055,129.2315 C159.782498,129.701836 159.414169,130.172164 159.0005,130.6425 C158.586831,131.112836 158.159002,131.574664 157.717,132.028 L158.148375,131.979125 C158.299958,131.963542 158.459332,131.948667 158.6265,131.9345 C158.960835,131.906167 159.258332,131.892 159.519,131.892 L161.695,131.892 L161.695,134 L154.096,134 Z M166.727,128.186 C167.010335,128.186 167.296499,128.103834 167.5855,127.9395 C167.874501,127.775166 168.126666,127.500335 168.342,127.115 C168.228666,126.264996 168.016168,125.678502 167.7045,125.3555 C167.392832,125.032498 167.044335,124.871 166.659,124.871 C166.296332,124.871 165.979001,125.009832 165.707,125.2875 C165.434999,125.565168 165.299,126.009997 165.299,126.622 C165.299,127.200003 165.434999,127.605166 165.707,127.8375 C165.979001,128.069834 166.318998,128.186 166.727,128.186 Z M166.336,134.204 C165.621996,134.204 165.001503,134.073668 164.4745,133.813 C163.947497,133.552332 163.514002,133.252002 163.174,132.912 L164.5,131.416 C164.681334,131.620001 164.924998,131.798499 165.231,131.9515 C165.537002,132.104501 165.848665,132.181 166.166,132.181 C166.472002,132.181 166.755332,132.124334 167.016,132.011 C167.276668,131.897666 167.506166,131.707835 167.7045,131.4415 C167.902834,131.175165 168.061499,130.829502 168.1805,130.4045 C168.299501,129.979498 168.370333,129.44967 168.393,128.815 C168.256999,128.996334 168.098334,129.157833 167.917,129.2995 C167.735666,129.441167 167.548668,129.560166 167.356,129.6565 C167.163332,129.752834 166.970668,129.8265 166.778,129.8775 C166.585332,129.9285 166.404001,129.954 166.234,129.954 C165.769331,129.954 165.341502,129.886001 164.9505,129.75 C164.559498,129.613999 164.222335,129.410001 163.939,129.138 C163.655665,128.865999 163.431834,128.520335 163.2675,128.101 C163.103166,127.681665 163.021,127.18867 163.021,126.622 C163.021,126.066664 163.117332,125.565169 163.31,125.1175 C163.502668,124.669831 163.760498,124.287335 164.0835,123.97 C164.406502,123.652665 164.786164,123.411834 165.2225,123.2475 C165.658836,123.083166 166.120664,123.001 166.608,123.001 C167.129336,123.001 167.636498,123.102999 168.1295,123.307 C168.622502,123.511001 169.058831,123.828331 169.4385,124.259 C169.818169,124.689669 170.124166,125.242163 170.3565,125.9165 C170.588834,126.590837 170.705,127.403995 170.705,128.356 C170.705,129.364672 170.583168,130.23733 170.3395,130.974 C170.095832,131.71067 169.772835,132.316998 169.3705,132.793 C168.968165,133.269002 168.503503,133.623166 167.9765,133.8555 C167.449497,134.087834 166.90267,134.204 166.336,134.204 Z M175.907,134.204 C175.328997,134.204 174.802002,134.082168 174.326,133.8385 C173.849998,133.594832 173.444835,133.235002 173.1105,132.759 C172.776165,132.282998 172.515501,131.69367 172.3285,130.991 C172.141499,130.28833 172.048,129.478005 172.048,128.56 C172.048,127.641995 172.141499,126.837337 172.3285,126.146 C172.515501,125.454663 172.776165,124.873836 173.1105,124.4035 C173.444835,123.933164 173.849998,123.581834 174.326,123.3495 C174.802002,123.117166 175.328997,123.001 175.907,123.001 C176.485003,123.001 177.011998,123.117166 177.488,123.3495 C177.964002,123.581834 178.369165,123.933164 178.7035,124.4035 C179.037835,124.873836 179.298499,125.454663 179.4855,126.146 C179.672501,126.837337 179.766,127.641995 179.766,128.56 C179.766,129.478005 179.672501,130.28833 179.4855,130.991 C179.298499,131.69367 179.037835,132.282998 178.7035,132.759 C178.369165,133.235002 177.964002,133.594832 177.488,133.8385 C177.011998,134.082168 176.485003,134.204 175.907,134.204 Z M175.907,132.266 C176.122334,132.266 176.320666,132.212167 176.502,132.1045 C176.683334,131.996833 176.841999,131.801335 176.978,131.518 C177.114001,131.234665 177.218833,130.855002 177.2925,130.379 C177.366167,129.902998 177.403,129.29667 177.403,128.56 C177.403,127.82333 177.366167,127.219836 177.2925,126.7495 C177.218833,126.279164 177.114001,125.910835 176.978,125.6445 C176.841999,125.378165 176.683334,125.194001 176.502,125.092 C176.320666,124.989999 176.122334,124.939 175.907,124.939 C175.702999,124.939 175.510334,124.989999 175.329,125.092 C175.147666,125.194001 174.989001,125.378165 174.853,125.6445 C174.716999,125.910835 174.609334,126.279164 174.53,126.7495 C174.450666,127.219836 174.411,127.82333 174.411,128.56 C174.411,129.29667 174.450666,129.902998 174.53,130.379 C174.609334,130.855002 174.716999,131.234665 174.853,131.518 C174.989001,131.801335 175.147666,131.996833 175.329,132.1045 C175.510334,132.212167 175.702999,132.266 175.907,132.266 Z M181.5,134 L181.5,125.568 L183.54,125.568 L183.71,126.656 L183.778,126.656 C184.129335,126.304665 184.503331,126.001501 184.9,125.7465 C185.296669,125.491499 185.772664,125.364 186.328,125.364 C186.92867,125.364 187.413165,125.485832 187.7815,125.7295 C188.149835,125.973168 188.441666,126.321664 188.657,126.775 C189.031002,126.389665 189.424831,126.058168 189.8385,125.7805 C190.252169,125.502832 190.742331,125.364 191.309,125.364 C192.215671,125.364 192.881498,125.667164 193.3065,126.2735 C193.731502,126.879836 193.944,127.709995 193.944,128.764 L193.944,134 L191.445,134 L191.445,129.087 C191.445,128.474997 191.362834,128.055668 191.1985,127.829 C191.034166,127.602332 190.770668,127.489 190.408,127.489 C189.988665,127.489 189.507003,127.760997 188.963,128.305 L188.963,134 L186.464,134 L186.464,129.087 C186.464,128.474997 186.381834,128.055668 186.2175,127.829 C186.053166,127.602332 185.789668,127.489 185.427,127.489 C184.996331,127.489 184.520336,127.760997 183.999,128.305 L183.999,134 L181.5,134 Z M196.069,134 L196.069,125.568 L198.109,125.568 L198.279,126.656 L198.347,126.656 C198.698335,126.304665 199.072331,126.001501 199.469,125.7465 C199.865669,125.491499 200.341664,125.364 200.897,125.364 C201.49767,125.364 201.982165,125.485832 202.3505,125.7295 C202.718835,125.973168 203.010666,126.321664 203.226,126.775 C203.600002,126.389665 203.993831,126.058168 204.4075,125.7805 C204.821169,125.502832 205.31133,125.364 205.878,125.364 C206.784671,125.364 207.450498,125.667164 207.8755,126.2735 C208.300502,126.879836 208.513,127.709995 208.513,128.764 L208.513,134 L206.014,134 L206.014,129.087 C206.014,128.474997 205.931834,128.055668 205.7675,127.829 C205.603166,127.602332 205.339668,127.489 204.977,127.489 C204.557665,127.489 204.076003,127.760997 203.532,128.305 L203.532,134 L201.033,134 L201.033,129.087 C201.033,128.474997 200.950834,128.055668 200.7865,127.829 C200.622166,127.602332 200.358668,127.489 199.996,127.489 C199.565331,127.489 199.089336,127.760997 198.568,128.305 L198.568,134 L196.069,134 Z" id="290mm" fill="#093169" fill-rule="nonzero" transform="translate(181.245000, 128.602500) rotate(-270.000000) translate(-181.245000, -128.602500) "></path>
            <polyline id="Rectangle-Copy-3" stroke="#CBD8F2" transform="translate(148.500000, 127.500000) rotate(-270.000000) translate(-148.500000, -127.500000) " points="88.2016667 135 88 120 209 120 209 135"></polyline>
        </g>
        <path d="M440.096,169 L440.096,167.572 L440.897041,166.817199 C441.28328,166.45 441.648098,166.098102 441.9915,165.7615 C442.563836,165.200497 443.056831,164.673502 443.4705,164.1805 C443.884169,163.687498 444.207166,163.228502 444.4395,162.8035 C444.671834,162.378498 444.788,161.973335 444.788,161.588 C444.788,161.055331 444.652001,160.650168 444.38,160.3725 C444.107999,160.094832 443.734002,159.956 443.258,159.956 C442.861331,159.956 442.510002,160.066499 442.204,160.2875 C441.897998,160.508501 441.609001,160.766332 441.337,161.061 L439.977,159.718 C440.509669,159.151331 441.053664,158.723501 441.609,158.4345 C442.164336,158.145499 442.827329,158.001 443.598,158.001 C444.130669,158.001 444.615164,158.083166 445.0515,158.2475 C445.487836,158.411834 445.864665,158.644165 446.182,158.9445 C446.499335,159.244835 446.742999,159.604665 446.913,160.024 C447.083001,160.443335 447.168,160.913664 447.168,161.435 C447.168,161.888336 447.071668,162.350164 446.879,162.8205 C446.686332,163.290836 446.428502,163.761164 446.1055,164.2315 C445.782498,164.701836 445.414169,165.172164 445.0005,165.6425 C444.586831,166.112836 444.159002,166.574664 443.717,167.028 L444.148375,166.979125 C444.299958,166.963542 444.459332,166.948667 444.6265,166.9345 C444.960835,166.906167 445.258332,166.892 445.519,166.892 L447.695,166.892 L447.695,169 L440.096,169 Z M452.727,163.186 C453.010335,163.186 453.296499,163.103834 453.5855,162.9395 C453.874501,162.775166 454.126666,162.500335 454.342,162.115 C454.228666,161.264996 454.016168,160.678502 453.7045,160.3555 C453.392832,160.032498 453.044335,159.871 452.659,159.871 C452.296332,159.871 451.979001,160.009832 451.707,160.2875 C451.434999,160.565168 451.299,161.009997 451.299,161.622 C451.299,162.200003 451.434999,162.605166 451.707,162.8375 C451.979001,163.069834 452.318998,163.186 452.727,163.186 Z M452.336,169.204 C451.621996,169.204 451.001503,169.073668 450.4745,168.813 C449.947497,168.552332 449.514002,168.252002 449.174,167.912 L450.5,166.416 C450.681334,166.620001 450.924998,166.798499 451.231,166.9515 C451.537002,167.104501 451.848665,167.181 452.166,167.181 C452.472002,167.181 452.755332,167.124334 453.016,167.011 C453.276668,166.897666 453.506166,166.707835 453.7045,166.4415 C453.902834,166.175165 454.061499,165.829502 454.1805,165.4045 C454.299501,164.979498 454.370333,164.44967 454.393,163.815 C454.256999,163.996334 454.098334,164.157833 453.917,164.2995 C453.735666,164.441167 453.548668,164.560166 453.356,164.6565 C453.163332,164.752834 452.970668,164.8265 452.778,164.8775 C452.585332,164.9285 452.404001,164.954 452.234,164.954 C451.769331,164.954 451.341502,164.886001 450.9505,164.75 C450.559498,164.613999 450.222335,164.410001 449.939,164.138 C449.655665,163.865999 449.431834,163.520335 449.2675,163.101 C449.103166,162.681665 449.021,162.18867 449.021,161.622 C449.021,161.066664 449.117332,160.565169 449.31,160.1175 C449.502668,159.669831 449.760498,159.287335 450.0835,158.97 C450.406502,158.652665 450.786164,158.411834 451.2225,158.2475 C451.658836,158.083166 452.120664,158.001 452.608,158.001 C453.129336,158.001 453.636498,158.102999 454.1295,158.307 C454.622502,158.511001 455.058831,158.828331 455.4385,159.259 C455.818169,159.689669 456.124166,160.242163 456.3565,160.9165 C456.588834,161.590837 456.705,162.403995 456.705,163.356 C456.705,164.364672 456.583168,165.23733 456.3395,165.974 C456.095832,166.71067 455.772835,167.316998 455.3705,167.793 C454.968165,168.269002 454.503503,168.623166 453.9765,168.8555 C453.449497,169.087834 452.90267,169.204 452.336,169.204 Z M461.907,169.204 C461.328997,169.204 460.802002,169.082168 460.326,168.8385 C459.849998,168.594832 459.444835,168.235002 459.1105,167.759 C458.776165,167.282998 458.515501,166.69367 458.3285,165.991 C458.141499,165.28833 458.048,164.478005 458.048,163.56 C458.048,162.641995 458.141499,161.837337 458.3285,161.146 C458.515501,160.454663 458.776165,159.873836 459.1105,159.4035 C459.444835,158.933164 459.849998,158.581834 460.326,158.3495 C460.802002,158.117166 461.328997,158.001 461.907,158.001 C462.485003,158.001 463.011998,158.117166 463.488,158.3495 C463.964002,158.581834 464.369165,158.933164 464.7035,159.4035 C465.037835,159.873836 465.298499,160.454663 465.4855,161.146 C465.672501,161.837337 465.766,162.641995 465.766,163.56 C465.766,164.478005 465.672501,165.28833 465.4855,165.991 C465.298499,166.69367 465.037835,167.282998 464.7035,167.759 C464.369165,168.235002 463.964002,168.594832 463.488,168.8385 C463.011998,169.082168 462.485003,169.204 461.907,169.204 Z M461.907,167.266 C462.122334,167.266 462.320666,167.212167 462.502,167.1045 C462.683334,166.996833 462.841999,166.801335 462.978,166.518 C463.114001,166.234665 463.218833,165.855002 463.2925,165.379 C463.366167,164.902998 463.403,164.29667 463.403,163.56 C463.403,162.82333 463.366167,162.219836 463.2925,161.7495 C463.218833,161.279164 463.114001,160.910835 462.978,160.6445 C462.841999,160.378165 462.683334,160.194001 462.502,160.092 C462.320666,159.989999 462.122334,159.939 461.907,159.939 C461.702999,159.939 461.510334,159.989999 461.329,160.092 C461.147666,160.194001 460.989001,160.378165 460.853,160.6445 C460.716999,160.910835 460.609334,161.279164 460.53,161.7495 C460.450666,162.219836 460.411,162.82333 460.411,163.56 C460.411,164.29667 460.450666,164.902998 460.53,165.379 C460.609334,165.855002 460.716999,166.234665 460.853,166.518 C460.989001,166.801335 461.147666,166.996833 461.329,167.1045 C461.510334,167.212167 461.702999,167.266 461.907,167.266 Z M467.5,169 L467.5,160.568 L469.54,160.568 L469.71,161.656 L469.778,161.656 C470.129335,161.304665 470.503331,161.001501 470.9,160.7465 C471.296669,160.491499 471.772664,160.364 472.328,160.364 C472.92867,160.364 473.413165,160.485832 473.7815,160.7295 C474.149835,160.973168 474.441666,161.321664 474.657,161.775 C475.031002,161.389665 475.424831,161.058168 475.8385,160.7805 C476.252169,160.502832 476.74233,160.364 477.309,160.364 C478.215671,160.364 478.881498,160.667164 479.3065,161.2735 C479.731502,161.879836 479.944,162.709995 479.944,163.764 L479.944,169 L477.445,169 L477.445,164.087 C477.445,163.474997 477.362834,163.055668 477.1985,162.829 C477.034166,162.602332 476.770668,162.489 476.408,162.489 C475.988665,162.489 475.507003,162.760997 474.963,163.305 L474.963,169 L472.464,169 L472.464,164.087 C472.464,163.474997 472.381834,163.055668 472.2175,162.829 C472.053166,162.602332 471.789668,162.489 471.427,162.489 C470.996331,162.489 470.520336,162.760997 469.999,163.305 L469.999,169 L467.5,169 Z M482.069,169 L482.069,160.568 L484.109,160.568 L484.279,161.656 L484.347,161.656 C484.698335,161.304665 485.072331,161.001501 485.469,160.7465 C485.865669,160.491499 486.341664,160.364 486.897,160.364 C487.49767,160.364 487.982165,160.485832 488.3505,160.7295 C488.718835,160.973168 489.010666,161.321664 489.226,161.775 C489.600002,161.389665 489.993831,161.058168 490.4075,160.7805 C490.821169,160.502832 491.31133,160.364 491.878,160.364 C492.784671,160.364 493.450498,160.667164 493.8755,161.2735 C494.300502,161.879836 494.513,162.709995 494.513,163.764 L494.513,169 L492.014,169 L492.014,164.087 C492.014,163.474997 491.931834,163.055668 491.7675,162.829 C491.603166,162.602332 491.339668,162.489 490.977,162.489 C490.557665,162.489 490.076003,162.760997 489.532,163.305 L489.532,169 L487.033,169 L487.033,164.087 C487.033,163.474997 486.950834,163.055668 486.7865,162.829 C486.622166,162.602332 486.358668,162.489 485.996,162.489 C485.565331,162.489 485.089336,162.760997 484.568,163.305 L484.568,169 L482.069,169 Z" id="290mm" fill="#093169" fill-rule="nonzero" transform="translate(467.245000, 163.602500) rotate(-270.000000) translate(-467.245000, -163.602500) "></path>
        <polyline id="Rectangle-Copy-4" stroke="#CBD8F2" transform="translate(434.500000, 162.500000) rotate(-270.000000) translate(-434.500000, -162.500000) " points="374.201667 170 374 155 495 155 495 170"></polyline>
        <g id="Group" transform="translate(357.000000, 102.180000)" stroke="#CBD8F2">
            <polyline id="Path" fill="#FFFFFF" points="0.25 25.14 44.17 25.14 44.17 121.44 54.67 121.44 54.67 8.52651283e-14 0.25 8.52651283e-14"></polyline>
            <path d="M0.25,4.97379915e-14 L0.25,25.14" id="Path"></path>
        </g>
        <polyline id="Rectangle-Copy-2" stroke="#CBD8F2" points="357.091667 87 357 72 412 72 412 87"></polyline>
        <path d="M357.657,52 L357.657,49.977 L360.003,49.977 L360.003,43.738 L357.98,43.738 L357.98,42.191 C358.569336,42.0776661 359.067998,41.9416675 359.476,41.783 C359.884002,41.6243325 360.280665,41.4316678 360.666,41.205 L362.502,41.205 L362.502,49.977 L364.525,49.977 L364.525,52 L357.657,52 Z M369.574,52.204 C368.689996,52.204 367.942003,52.0651681 367.33,51.7875 C366.717997,51.5098319 366.213669,51.138669 365.817,50.674 L366.973,49.093 C367.301668,49.4103349 367.661498,49.670999 368.0525,49.875 C368.443502,50.079001 368.871331,50.181 369.336,50.181 C369.868669,50.181 370.293665,50.0705011 370.611,49.8495 C370.928335,49.6284989 371.087,49.314002 371.087,48.906 C371.087,48.6679988 371.0445,48.4526676 370.9595,48.26 C370.8745,48.0673324 370.724334,47.905834 370.509,47.7755 C370.293666,47.645166 369.999002,47.543167 369.625,47.4695 C369.250998,47.395833 368.769336,47.359 368.18,47.359 L368.18,45.591 C368.667336,45.591 369.072498,45.5570003 369.3955,45.489 C369.718502,45.4209997 369.979166,45.321834 370.1775,45.1915 C370.375834,45.061166 370.5175,44.9081675 370.6025,44.7325 C370.6875,44.5568325 370.73,44.3613344 370.73,44.146 C370.73,43.7719981 370.616668,43.4801677 370.39,43.2705 C370.163332,43.0608323 369.834669,42.956 369.404,42.956 C369.018665,42.956 368.670168,43.0409991 368.3585,43.211 C368.046832,43.3810008 367.721002,43.6133319 367.381,43.908 L366.123,42.378 C366.621669,41.9473312 367.145831,41.6101679 367.6955,41.3665 C368.245169,41.1228321 368.85433,41.001 369.523,41.001 C370.078336,41.001 370.585498,41.066166 371.0445,41.1965 C371.503502,41.326834 371.894498,41.5194987 372.2175,41.7745 C372.540502,42.0295013 372.792666,42.3383315 372.974,42.701 C373.155334,43.0636685 373.246,43.4829976 373.246,43.959 C373.246,44.5256695 373.090168,45.004498 372.7785,45.3955 C372.466832,45.786502 372.022003,46.1066654 371.444,46.356 L371.444,46.424 C372.067336,46.6053342 372.580165,46.9141645 372.9825,47.3505 C373.384835,47.7868355 373.586,48.3563298 373.586,49.059 C373.586,49.5576692 373.478334,50.002498 373.263,50.3935 C373.047666,50.784502 372.758668,51.1131653 372.396,51.3795 C372.033332,51.6458347 371.608336,51.8498326 371.121,51.9915 C370.633664,52.1331674 370.118003,52.204 369.574,52.204 Z M378.907,52.204 C378.328997,52.204 377.802002,52.0821679 377.326,51.8385 C376.849998,51.5948321 376.444835,51.2350024 376.1105,50.759 C375.776165,50.2829976 375.515501,49.6936702 375.3285,48.991 C375.141499,48.2883298 375.048,47.4780046 375.048,46.56 C375.048,45.6419954 375.141499,44.8373368 375.3285,44.146 C375.515501,43.4546632 375.776165,42.8738357 376.1105,42.4035 C376.444835,41.9331643 376.849998,41.5818345 377.326,41.3495 C377.802002,41.1171655 378.328997,41.001 378.907,41.001 C379.485003,41.001 380.011998,41.1171655 380.488,41.3495 C380.964002,41.5818345 381.369165,41.9331643 381.7035,42.4035 C382.037835,42.8738357 382.298499,43.4546632 382.4855,44.146 C382.672501,44.8373368 382.766,45.6419954 382.766,46.56 C382.766,47.4780046 382.672501,48.2883298 382.4855,48.991 C382.298499,49.6936702 382.037835,50.2829976 381.7035,50.759 C381.369165,51.2350024 380.964002,51.5948321 380.488,51.8385 C380.011998,52.0821679 379.485003,52.204 378.907,52.204 Z M378.907,50.266 C379.122334,50.266 379.320666,50.2121672 379.502,50.1045 C379.683334,49.9968328 379.841999,49.8013347 379.978,49.518 C380.114001,49.2346652 380.218833,48.8550024 380.2925,48.379 C380.366167,47.9029976 380.403,47.2966703 380.403,46.56 C380.403,45.8233296 380.366167,45.2198357 380.2925,44.7495 C380.218833,44.2791643 380.114001,43.9108347 379.978,43.6445 C379.841999,43.3781653 379.683334,43.1940005 379.502,43.092 C379.320666,42.9899995 379.122334,42.939 378.907,42.939 C378.702999,42.939 378.510334,42.9899995 378.329,43.092 C378.147666,43.1940005 377.989001,43.3781653 377.853,43.6445 C377.716999,43.9108347 377.609334,44.2791643 377.53,44.7495 C377.450666,45.2198357 377.411,45.8233296 377.411,46.56 C377.411,47.2966703 377.450666,47.9029976 377.53,48.379 C377.609334,48.8550024 377.716999,49.2346652 377.853,49.518 C377.989001,49.8013347 378.147666,49.9968328 378.329,50.1045 C378.510334,50.2121672 378.702999,50.266 378.907,50.266 Z M384.5,52 L384.5,43.568 L386.54,43.568 L386.71,44.656 L386.778,44.656 C387.129335,44.3046649 387.503331,44.0015013 387.9,43.7465 C388.296669,43.4914987 388.772664,43.364 389.328,43.364 C389.92867,43.364 390.413165,43.4858321 390.7815,43.7295 C391.149835,43.9731679 391.441666,44.3216644 391.657,44.775 C392.031002,44.3896647 392.424831,44.0581681 392.8385,43.7805 C393.252169,43.5028319 393.74233,43.364 394.309,43.364 C395.215671,43.364 395.881498,43.6671636 396.3065,44.2735 C396.731502,44.8798364 396.944,45.7099947 396.944,46.764 L396.944,52 L394.445,52 L394.445,47.087 C394.445,46.4749969 394.362834,46.0556678 394.1985,45.829 C394.034166,45.6023322 393.770668,45.489 393.408,45.489 C392.988665,45.489 392.507003,45.7609973 391.963,46.305 L391.963,52 L389.464,52 L389.464,47.087 C389.464,46.4749969 389.381834,46.0556678 389.2175,45.829 C389.053166,45.6023322 388.789668,45.489 388.427,45.489 C387.996331,45.489 387.520336,45.7609973 386.999,46.305 L386.999,52 L384.5,52 Z M399.069,52 L399.069,43.568 L401.109,43.568 L401.279,44.656 L401.347,44.656 C401.698335,44.3046649 402.072331,44.0015013 402.469,43.7465 C402.865669,43.4914987 403.341664,43.364 403.897,43.364 C404.49767,43.364 404.982165,43.4858321 405.3505,43.7295 C405.718835,43.9731679 406.010666,44.3216644 406.226,44.775 C406.600002,44.3896647 406.993831,44.0581681 407.4075,43.7805 C407.821169,43.5028319 408.31133,43.364 408.878,43.364 C409.784671,43.364 410.450498,43.6671636 410.8755,44.2735 C411.300502,44.8798364 411.513,45.7099947 411.513,46.764 L411.513,52 L409.014,52 L409.014,47.087 C409.014,46.4749969 408.931834,46.0556678 408.7675,45.829 C408.603166,45.6023322 408.339668,45.489 407.977,45.489 C407.557665,45.489 407.076003,45.7609973 406.532,46.305 L406.532,52 L404.033,52 L404.033,47.087 C404.033,46.4749969 403.950834,46.0556678 403.7865,45.829 C403.622166,45.6023322 403.358668,45.489 402.996,45.489 C402.565331,45.489 402.089336,45.7609973 401.568,46.305 L401.568,52 L399.069,52 Z" id="130mm" fill="#093169" fill-rule="nonzero"></path>
    </g>
</svg>