<?xml version="1.0" encoding="UTF-8"?>
<svg width="600px" height="227px" viewBox="0 0 600 227" version="1.1" xmlns="http://www.w3.org/2000/svg" xmlns:xlink="http://www.w3.org/1999/xlink">
    <!-- Generator: Sketch 58 (84663) - https://sketch.com -->
    <title>keystones/KS3-C</title>
    <desc>Created with Sketch.</desc>
    <g id="keystones/KS3-C" stroke="none" stroke-width="1" fill="none" fill-rule="evenodd">
        <rect fill="#F5F9FF" x="0" y="0" width="600" height="227"></rect>
        <g id="Group" transform="translate(141.000000, 102.000000)" stroke="#CBD8F2">
            <polygon id="Rectangle" fill="#FFFFFF" points="0 0 90 0 69 90 21 90"></polygon>
            <path d="M26.88,82.5 L20.94,90" id="Path"></path>
            <path d="M63.06,82.5 L69.06,90" id="Path"></path>
            <path d="M90,-2.84217094e-14 L80.52,7.56" id="Path"></path>
            <path d="M1.33226763e-14,-2.84217094e-14 L9.48,7.56" id="Path"></path>
            <path d="M80.52,7.56 L63.06,82.5" id="Path"></path>
            <path d="M9.48,7.56 L26.88,82.5" id="Path"></path>
            <path d="M9.48,7.56 L80.52,7.56" id="Path"></path>
            <path d="M26.88,82.5 L63.06,82.5" id="Path"></path>
        </g>
        <polyline id="Rectangle-Copy" stroke="#CBD8F2" points="141.15 87 141 72 231 72 231 87"></polyline>
        <path d="M158.096,52 L158.096,50.572 L158.897041,49.8171994 C159.28328,49.4500002 159.648098,49.0981017 159.9915,48.7615 C160.563836,48.2004972 161.056831,47.6735025 161.4705,47.1805 C161.884169,46.6874975 162.207166,46.2285021 162.4395,45.8035 C162.671834,45.3784979 162.788,44.9733353 162.788,44.588 C162.788,44.0553307 162.652001,43.6501681 162.38,43.3725 C162.107999,43.0948319 161.734002,42.956 161.258,42.956 C160.861331,42.956 160.510002,43.0664989 160.204,43.2875 C159.897998,43.5085011 159.609001,43.7663319 159.337,44.061 L157.977,42.718 C158.509669,42.1513305 159.053664,41.7235014 159.609,41.4345 C160.164336,41.1454986 160.827329,41.001 161.598,41.001 C162.130669,41.001 162.615164,41.0831658 163.0515,41.2475 C163.487836,41.4118342 163.864665,41.6441652 164.182,41.9445 C164.499335,42.2448348 164.742999,42.6046646 164.913,43.024 C165.083001,43.4433354 165.168,43.9136641 165.168,44.435 C165.168,44.8883356 165.071668,45.3501643 164.879,45.8205 C164.686332,46.2908357 164.428502,46.7611643 164.1055,47.2315 C163.782498,47.7018357 163.414169,48.1721643 163.0005,48.6425 C162.586831,49.1128357 162.159002,49.5746644 161.717,50.028 L162.148375,49.979125 C162.299958,49.9635417 162.459332,49.9486667 162.6265,49.9345 C162.960835,49.9061665 163.258332,49.892 163.519,49.892 L165.695,49.892 L165.695,52 L158.096,52 Z M167.633,52 L167.633,49.977 L169.979,49.977 L169.979,43.738 L167.956,43.738 L167.956,42.191 C168.545336,42.0776661 169.043998,41.9416675 169.452,41.783 C169.860002,41.6243325 170.256665,41.4316678 170.642,41.205 L172.478,41.205 L172.478,49.977 L174.501,49.977 L174.501,52 L167.633,52 Z M179.618,52.204 C178.733996,52.204 177.986003,52.0595014 177.374,51.7705 C176.761997,51.4814986 176.240669,51.1216688 175.81,50.691 L176.932,49.11 C177.260668,49.4046681 177.614831,49.6568323 177.9945,49.8665 C178.374169,50.0761677 178.796331,50.181 179.261,50.181 C179.816336,50.181 180.258332,50.0393348 180.587,49.756 C180.915668,49.4726652 181.08,49.0533361 181.08,48.498 C181.08,47.9539973 180.924168,47.5403347 180.6125,47.257 C180.300832,46.9736652 179.890003,46.832 179.38,46.832 C179.221333,46.832 179.079667,46.8404999 178.955,46.8575 C178.830333,46.8745001 178.708501,46.9056664 178.5895,46.951 C178.470499,46.9963336 178.345834,47.0529997 178.2155,47.121 C178.085166,47.1890003 177.940667,47.2739995 177.782,47.376 L176.66,46.662 L176.966,41.205 L183.086,41.205 L183.086,43.313 L179.125,43.313 L178.938,45.336 C179.142001,45.2453329 179.337499,45.1801669 179.5245,45.1405 C179.711501,45.1008331 179.918332,45.081 180.145,45.081 C180.609669,45.081 181.048831,45.1489993 181.4625,45.285 C181.876169,45.4210007 182.241665,45.6249986 182.559,45.897 C182.876335,46.1690014 183.125666,46.5146646 183.307,46.934 C183.488334,47.3533354 183.579,47.8519971 183.579,48.43 C183.579,49.0306697 183.471334,49.563331 183.256,50.028 C183.040666,50.492669 182.751668,50.8864984 182.389,51.2095 C182.026332,51.5325016 181.604169,51.7789992 181.1225,51.949 C180.640831,52.1190008 180.139336,52.204 179.618,52.204 Z M185.5,52 L185.5,43.568 L187.54,43.568 L187.71,44.656 L187.778,44.656 C188.129335,44.3046649 188.503331,44.0015013 188.9,43.7465 C189.296669,43.4914987 189.772664,43.364 190.328,43.364 C190.92867,43.364 191.413165,43.4858321 191.7815,43.7295 C192.149835,43.9731679 192.441666,44.3216644 192.657,44.775 C193.031002,44.3896647 193.424831,44.0581681 193.8385,43.7805 C194.252169,43.5028319 194.742331,43.364 195.309,43.364 C196.215671,43.364 196.881498,43.6671636 197.3065,44.2735 C197.731502,44.8798364 197.944,45.7099947 197.944,46.764 L197.944,52 L195.445,52 L195.445,47.087 C195.445,46.4749969 195.362834,46.0556678 195.1985,45.829 C195.034166,45.6023322 194.770668,45.489 194.408,45.489 C193.988665,45.489 193.507003,45.7609973 192.963,46.305 L192.963,52 L190.464,52 L190.464,47.087 C190.464,46.4749969 190.381834,46.0556678 190.2175,45.829 C190.053166,45.6023322 189.789668,45.489 189.427,45.489 C188.996331,45.489 188.520336,45.7609973 187.999,46.305 L187.999,52 L185.5,52 Z M200.069,52 L200.069,43.568 L202.109,43.568 L202.279,44.656 L202.347,44.656 C202.698335,44.3046649 203.072331,44.0015013 203.469,43.7465 C203.865669,43.4914987 204.341664,43.364 204.897,43.364 C205.49767,43.364 205.982165,43.4858321 206.3505,43.7295 C206.718835,43.9731679 207.010666,44.3216644 207.226,44.775 C207.600002,44.3896647 207.993831,44.0581681 208.4075,43.7805 C208.821169,43.5028319 209.31133,43.364 209.878,43.364 C210.784671,43.364 211.450498,43.6671636 211.8755,44.2735 C212.300502,44.8798364 212.513,45.7099947 212.513,46.764 L212.513,52 L210.014,52 L210.014,47.087 C210.014,46.4749969 209.931834,46.0556678 209.7675,45.829 C209.603166,45.6023322 209.339668,45.489 208.977,45.489 C208.557665,45.489 208.076003,45.7609973 207.532,46.305 L207.532,52 L205.033,52 L205.033,47.087 C205.033,46.4749969 204.950834,46.0556678 204.7865,45.829 C204.622166,45.6023322 204.358668,45.489 203.996,45.489 C203.565331,45.489 203.089336,45.7609973 202.568,46.305 L202.568,52 L200.069,52 Z" id="215mm" fill="#093169" fill-rule="nonzero"></path>
        <path d="M258.596,152.5 L258.596,151.072 L259.397041,150.317199 C259.78328,149.95 260.148098,149.598102 260.4915,149.2615 C261.063836,148.700497 261.556831,148.173502 261.9705,147.6805 C262.384169,147.187498 262.707166,146.728502 262.9395,146.3035 C263.171834,145.878498 263.288,145.473335 263.288,145.088 C263.288,144.555331 263.152001,144.150168 262.88,143.8725 C262.607999,143.594832 262.234002,143.456 261.758,143.456 C261.361331,143.456 261.010002,143.566499 260.704,143.7875 C260.397998,144.008501 260.109001,144.266332 259.837,144.561 L258.477,143.218 C259.009669,142.651331 259.553664,142.223501 260.109,141.9345 C260.664336,141.645499 261.327329,141.501 262.098,141.501 C262.630669,141.501 263.115164,141.583166 263.5515,141.7475 C263.987836,141.911834 264.364665,142.144165 264.682,142.4445 C264.999335,142.744835 265.242999,143.104665 265.413,143.524 C265.583001,143.943335 265.668,144.413664 265.668,144.935 C265.668,145.388336 265.571668,145.850164 265.379,146.3205 C265.186332,146.790836 264.928502,147.261164 264.6055,147.7315 C264.282498,148.201836 263.914169,148.672164 263.5005,149.1425 C263.086831,149.612836 262.659002,150.074664 262.217,150.528 L262.648375,150.479125 C262.799958,150.463542 262.959332,150.448667 263.1265,150.4345 C263.460835,150.406167 263.758332,150.392 264.019,150.392 L266.195,150.392 L266.195,152.5 L258.596,152.5 Z M268.133,152.5 L268.133,150.477 L270.479,150.477 L270.479,144.238 L268.456,144.238 L268.456,142.691 C269.045336,142.577666 269.543998,142.441667 269.952,142.283 C270.360002,142.124333 270.756665,141.931668 271.142,141.705 L272.978,141.705 L272.978,150.477 L275.001,150.477 L275.001,152.5 L268.133,152.5 Z M280.118,152.704 C279.233996,152.704 278.486003,152.559501 277.874,152.2705 C277.261997,151.981499 276.740669,151.621669 276.31,151.191 L277.432,149.61 C277.760668,149.904668 278.114831,150.156832 278.4945,150.3665 C278.874169,150.576168 279.296331,150.681 279.761,150.681 C280.316336,150.681 280.758332,150.539335 281.087,150.256 C281.415668,149.972665 281.58,149.553336 281.58,148.998 C281.58,148.453997 281.424168,148.040335 281.1125,147.757 C280.800832,147.473665 280.390003,147.332 279.88,147.332 C279.721333,147.332 279.579667,147.3405 279.455,147.3575 C279.330333,147.3745 279.208501,147.405666 279.0895,147.451 C278.970499,147.496334 278.845834,147.553 278.7155,147.621 C278.585166,147.689 278.440667,147.773999 278.282,147.876 L277.16,147.162 L277.466,141.705 L283.586,141.705 L283.586,143.813 L279.625,143.813 L279.438,145.836 C279.642001,145.745333 279.837499,145.680167 280.0245,145.6405 C280.211501,145.600833 280.418332,145.581 280.645,145.581 C281.109669,145.581 281.548831,145.648999 281.9625,145.785 C282.376169,145.921001 282.741665,146.124999 283.059,146.397 C283.376335,146.669001 283.625666,147.014665 283.807,147.434 C283.988334,147.853335 284.079,148.351997 284.079,148.93 C284.079,149.53067 283.971334,150.063331 283.756,150.528 C283.540666,150.992669 283.251668,151.386498 282.889,151.7095 C282.526332,152.032502 282.104169,152.278999 281.6225,152.449 C281.140831,152.619001 280.639336,152.704 280.118,152.704 Z M286,152.5 L286,144.068 L288.04,144.068 L288.21,145.156 L288.278,145.156 C288.629335,144.804665 289.003331,144.501501 289.4,144.2465 C289.796669,143.991499 290.272664,143.864 290.828,143.864 C291.42867,143.864 291.913165,143.985832 292.2815,144.2295 C292.649835,144.473168 292.941666,144.821664 293.157,145.275 C293.531002,144.889665 293.924831,144.558168 294.3385,144.2805 C294.752169,144.002832 295.24233,143.864 295.809,143.864 C296.715671,143.864 297.381498,144.167164 297.8065,144.7735 C298.231502,145.379836 298.444,146.209995 298.444,147.264 L298.444,152.5 L295.945,152.5 L295.945,147.587 C295.945,146.974997 295.862834,146.555668 295.6985,146.329 C295.534166,146.102332 295.270668,145.989 294.908,145.989 C294.488665,145.989 294.007003,146.260997 293.463,146.805 L293.463,152.5 L290.964,152.5 L290.964,147.587 C290.964,146.974997 290.881834,146.555668 290.7175,146.329 C290.553166,146.102332 290.289668,145.989 289.927,145.989 C289.496331,145.989 289.020336,146.260997 288.499,146.805 L288.499,152.5 L286,152.5 Z M300.569,152.5 L300.569,144.068 L302.609,144.068 L302.779,145.156 L302.847,145.156 C303.198335,144.804665 303.572331,144.501501 303.969,144.2465 C304.365669,143.991499 304.841664,143.864 305.397,143.864 C305.99767,143.864 306.482165,143.985832 306.8505,144.2295 C307.218835,144.473168 307.510666,144.821664 307.726,145.275 C308.100002,144.889665 308.493831,144.558168 308.9075,144.2805 C309.321169,144.002832 309.81133,143.864 310.378,143.864 C311.284671,143.864 311.950498,144.167164 312.3755,144.7735 C312.800502,145.379836 313.013,146.209995 313.013,147.264 L313.013,152.5 L310.514,152.5 L310.514,147.587 C310.514,146.974997 310.431834,146.555668 310.2675,146.329 C310.103166,146.102332 309.839668,145.989 309.477,145.989 C309.057665,145.989 308.576003,146.260997 308.032,146.805 L308.032,152.5 L305.533,152.5 L305.533,147.587 C305.533,146.974997 305.450834,146.555668 305.2865,146.329 C305.122166,146.102332 304.858668,145.989 304.496,145.989 C304.065331,145.989 303.589336,146.260997 303.068,146.805 L303.068,152.5 L300.569,152.5 Z" id="215mm" fill="#093169" fill-rule="nonzero" transform="translate(285.745000, 147.102500) rotate(-270.000000) translate(-285.745000, -147.102500) "></path>
        <polyline id="Rectangle-Copy-3" stroke="#CBD8F2" transform="translate(253.500000, 147.000000) rotate(-270.000000) translate(-253.500000, -147.000000) " points="208.65 154.5 208.5 139.5 298.5 139.5 298.5 154.5"></polyline>
        <polyline id="Rectangle-Copy-2" stroke="#CBD8F2" points="357.076667 87 357 72 403 72 403 87"></polyline>
        <path d="M353.657,52 L353.657,49.977 L356.003,49.977 L356.003,43.738 L353.98,43.738 L353.98,42.191 C354.569336,42.0776661 355.067998,41.9416675 355.476,41.783 C355.884002,41.6243325 356.280665,41.4316678 356.666,41.205 L358.502,41.205 L358.502,49.977 L360.525,49.977 L360.525,52 L353.657,52 Z M362.633,52 L362.633,49.977 L364.979,49.977 L364.979,43.738 L362.956,43.738 L362.956,42.191 C363.545336,42.0776661 364.043998,41.9416675 364.452,41.783 C364.860002,41.6243325 365.256665,41.4316678 365.642,41.205 L367.478,41.205 L367.478,49.977 L369.501,49.977 L369.501,52 L362.633,52 Z M374.907,52.204 C374.328997,52.204 373.802002,52.0821679 373.326,51.8385 C372.849998,51.5948321 372.444835,51.2350024 372.1105,50.759 C371.776165,50.2829976 371.515501,49.6936702 371.3285,48.991 C371.141499,48.2883298 371.048,47.4780046 371.048,46.56 C371.048,45.6419954 371.141499,44.8373368 371.3285,44.146 C371.515501,43.4546632 371.776165,42.8738357 372.1105,42.4035 C372.444835,41.9331643 372.849998,41.5818345 373.326,41.3495 C373.802002,41.1171655 374.328997,41.001 374.907,41.001 C375.485003,41.001 376.011998,41.1171655 376.488,41.3495 C376.964002,41.5818345 377.369165,41.9331643 377.7035,42.4035 C378.037835,42.8738357 378.298499,43.4546632 378.4855,44.146 C378.672501,44.8373368 378.766,45.6419954 378.766,46.56 C378.766,47.4780046 378.672501,48.2883298 378.4855,48.991 C378.298499,49.6936702 378.037835,50.2829976 377.7035,50.759 C377.369165,51.2350024 376.964002,51.5948321 376.488,51.8385 C376.011998,52.0821679 375.485003,52.204 374.907,52.204 Z M374.907,50.266 C375.122334,50.266 375.320666,50.2121672 375.502,50.1045 C375.683334,49.9968328 375.841999,49.8013347 375.978,49.518 C376.114001,49.2346652 376.218833,48.8550024 376.2925,48.379 C376.366167,47.9029976 376.403,47.2966703 376.403,46.56 C376.403,45.8233296 376.366167,45.2198357 376.2925,44.7495 C376.218833,44.2791643 376.114001,43.9108347 375.978,43.6445 C375.841999,43.3781653 375.683334,43.1940005 375.502,43.092 C375.320666,42.9899995 375.122334,42.939 374.907,42.939 C374.702999,42.939 374.510334,42.9899995 374.329,43.092 C374.147666,43.1940005 373.989001,43.3781653 373.853,43.6445 C373.716999,43.9108347 373.609334,44.2791643 373.53,44.7495 C373.450666,45.2198357 373.411,45.8233296 373.411,46.56 C373.411,47.2966703 373.450666,47.9029976 373.53,48.379 C373.609334,48.8550024 373.716999,49.2346652 373.853,49.518 C373.989001,49.8013347 374.147666,49.9968328 374.329,50.1045 C374.510334,50.2121672 374.702999,50.266 374.907,50.266 Z M380.5,52 L380.5,43.568 L382.54,43.568 L382.71,44.656 L382.778,44.656 C383.129335,44.3046649 383.503331,44.0015013 383.9,43.7465 C384.296669,43.4914987 384.772664,43.364 385.328,43.364 C385.92867,43.364 386.413165,43.4858321 386.7815,43.7295 C387.149835,43.9731679 387.441666,44.3216644 387.657,44.775 C388.031002,44.3896647 388.424831,44.0581681 388.8385,43.7805 C389.252169,43.5028319 389.74233,43.364 390.309,43.364 C391.215671,43.364 391.881498,43.6671636 392.3065,44.2735 C392.731502,44.8798364 392.944,45.7099947 392.944,46.764 L392.944,52 L390.445,52 L390.445,47.087 C390.445,46.4749969 390.362834,46.0556678 390.1985,45.829 C390.034166,45.6023322 389.770668,45.489 389.408,45.489 C388.988665,45.489 388.507003,45.7609973 387.963,46.305 L387.963,52 L385.464,52 L385.464,47.087 C385.464,46.4749969 385.381834,46.0556678 385.2175,45.829 C385.053166,45.6023322 384.789668,45.489 384.427,45.489 C383.996331,45.489 383.520336,45.7609973 382.999,46.305 L382.999,52 L380.5,52 Z M395.069,52 L395.069,43.568 L397.109,43.568 L397.279,44.656 L397.347,44.656 C397.698335,44.3046649 398.072331,44.0015013 398.469,43.7465 C398.865669,43.4914987 399.341664,43.364 399.897,43.364 C400.49767,43.364 400.982165,43.4858321 401.3505,43.7295 C401.718835,43.9731679 402.010666,44.3216644 402.226,44.775 C402.600002,44.3896647 402.993831,44.0581681 403.4075,43.7805 C403.821169,43.5028319 404.31133,43.364 404.878,43.364 C405.784671,43.364 406.450498,43.6671636 406.8755,44.2735 C407.300502,44.8798364 407.513,45.7099947 407.513,46.764 L407.513,52 L405.014,52 L405.014,47.087 C405.014,46.4749969 404.931834,46.0556678 404.7675,45.829 C404.603166,45.6023322 404.339668,45.489 403.977,45.489 C403.557665,45.489 403.076003,45.7609973 402.532,46.305 L402.532,52 L400.033,52 L400.033,47.087 C400.033,46.4749969 399.950834,46.0556678 399.7865,45.829 C399.622166,45.6023322 399.358668,45.489 398.996,45.489 C398.565331,45.489 398.089336,45.7609973 397.568,46.305 L397.568,52 L395.069,52 Z" id="110mm" fill="#093169" fill-rule="nonzero"></path>
        <path d="M438.596,152.5 L438.596,151.072 L439.397041,150.317199 C439.78328,149.95 440.148098,149.598102 440.4915,149.2615 C441.063836,148.700497 441.556831,148.173502 441.9705,147.6805 C442.384169,147.187498 442.707166,146.728502 442.9395,146.3035 C443.171834,145.878498 443.288,145.473335 443.288,145.088 C443.288,144.555331 443.152001,144.150168 442.88,143.8725 C442.607999,143.594832 442.234002,143.456 441.758,143.456 C441.361331,143.456 441.010002,143.566499 440.704,143.7875 C440.397998,144.008501 440.109001,144.266332 439.837,144.561 L438.477,143.218 C439.009669,142.651331 439.553664,142.223501 440.109,141.9345 C440.664336,141.645499 441.327329,141.501 442.098,141.501 C442.630669,141.501 443.115164,141.583166 443.5515,141.7475 C443.987836,141.911834 444.364665,142.144165 444.682,142.4445 C444.999335,142.744835 445.242999,143.104665 445.413,143.524 C445.583001,143.943335 445.668,144.413664 445.668,144.935 C445.668,145.388336 445.571668,145.850164 445.379,146.3205 C445.186332,146.790836 444.928502,147.261164 444.6055,147.7315 C444.282498,148.201836 443.914169,148.672164 443.5005,149.1425 C443.086831,149.612836 442.659002,150.074664 442.217,150.528 L442.648375,150.479125 C442.799958,150.463542 442.959332,150.448667 443.1265,150.4345 C443.460835,150.406167 443.758332,150.392 444.019,150.392 L446.195,150.392 L446.195,152.5 L438.596,152.5 Z M448.133,152.5 L448.133,150.477 L450.479,150.477 L450.479,144.238 L448.456,144.238 L448.456,142.691 C449.045336,142.577666 449.543998,142.441667 449.952,142.283 C450.360002,142.124333 450.756665,141.931668 451.142,141.705 L452.978,141.705 L452.978,150.477 L455.001,150.477 L455.001,152.5 L448.133,152.5 Z M460.118,152.704 C459.233996,152.704 458.486003,152.559501 457.874,152.2705 C457.261997,151.981499 456.740669,151.621669 456.31,151.191 L457.432,149.61 C457.760668,149.904668 458.114831,150.156832 458.4945,150.3665 C458.874169,150.576168 459.296331,150.681 459.761,150.681 C460.316336,150.681 460.758332,150.539335 461.087,150.256 C461.415668,149.972665 461.58,149.553336 461.58,148.998 C461.58,148.453997 461.424168,148.040335 461.1125,147.757 C460.800832,147.473665 460.390003,147.332 459.88,147.332 C459.721333,147.332 459.579667,147.3405 459.455,147.3575 C459.330333,147.3745 459.208501,147.405666 459.0895,147.451 C458.970499,147.496334 458.845834,147.553 458.7155,147.621 C458.585166,147.689 458.440667,147.773999 458.282,147.876 L457.16,147.162 L457.466,141.705 L463.586,141.705 L463.586,143.813 L459.625,143.813 L459.438,145.836 C459.642001,145.745333 459.837499,145.680167 460.0245,145.6405 C460.211501,145.600833 460.418332,145.581 460.645,145.581 C461.109669,145.581 461.548831,145.648999 461.9625,145.785 C462.376169,145.921001 462.741665,146.124999 463.059,146.397 C463.376335,146.669001 463.625666,147.014665 463.807,147.434 C463.988334,147.853335 464.079,148.351997 464.079,148.93 C464.079,149.53067 463.971334,150.063331 463.756,150.528 C463.540666,150.992669 463.251668,151.386498 462.889,151.7095 C462.526332,152.032502 462.104169,152.278999 461.6225,152.449 C461.140831,152.619001 460.639336,152.704 460.118,152.704 Z M466,152.5 L466,144.068 L468.04,144.068 L468.21,145.156 L468.278,145.156 C468.629335,144.804665 469.003331,144.501501 469.4,144.2465 C469.796669,143.991499 470.272664,143.864 470.828,143.864 C471.42867,143.864 471.913165,143.985832 472.2815,144.2295 C472.649835,144.473168 472.941666,144.821664 473.157,145.275 C473.531002,144.889665 473.924831,144.558168 474.3385,144.2805 C474.752169,144.002832 475.24233,143.864 475.809,143.864 C476.715671,143.864 477.381498,144.167164 477.8065,144.7735 C478.231502,145.379836 478.444,146.209995 478.444,147.264 L478.444,152.5 L475.945,152.5 L475.945,147.587 C475.945,146.974997 475.862834,146.555668 475.6985,146.329 C475.534166,146.102332 475.270668,145.989 474.908,145.989 C474.488665,145.989 474.007003,146.260997 473.463,146.805 L473.463,152.5 L470.964,152.5 L470.964,147.587 C470.964,146.974997 470.881834,146.555668 470.7175,146.329 C470.553166,146.102332 470.289668,145.989 469.927,145.989 C469.496331,145.989 469.020336,146.260997 468.499,146.805 L468.499,152.5 L466,152.5 Z M480.569,152.5 L480.569,144.068 L482.609,144.068 L482.779,145.156 L482.847,145.156 C483.198335,144.804665 483.572331,144.501501 483.969,144.2465 C484.365669,143.991499 484.841664,143.864 485.397,143.864 C485.99767,143.864 486.482165,143.985832 486.8505,144.2295 C487.218835,144.473168 487.510666,144.821664 487.726,145.275 C488.100002,144.889665 488.493831,144.558168 488.9075,144.2805 C489.321169,144.002832 489.81133,143.864 490.378,143.864 C491.284671,143.864 491.950498,144.167164 492.3755,144.7735 C492.800502,145.379836 493.013,146.209995 493.013,147.264 L493.013,152.5 L490.514,152.5 L490.514,147.587 C490.514,146.974997 490.431834,146.555668 490.2675,146.329 C490.103166,146.102332 489.839668,145.989 489.477,145.989 C489.057665,145.989 488.576003,146.260997 488.032,146.805 L488.032,152.5 L485.533,152.5 L485.533,147.587 C485.533,146.974997 485.450834,146.555668 485.2865,146.329 C485.122166,146.102332 484.858668,145.989 484.496,145.989 C484.065331,145.989 483.589336,146.260997 483.068,146.805 L483.068,152.5 L480.569,152.5 Z" id="215mm" fill="#093169" fill-rule="nonzero" transform="translate(465.745000, 147.102500) rotate(-270.000000) translate(-465.745000, -147.102500) "></path>
        <polyline id="Rectangle-Copy-4" stroke="#CBD8F2" transform="translate(433.500000, 147.000000) rotate(-270.000000) translate(-433.500000, -147.000000) " points="388.65 154.5 388.5 139.5 478.5 139.5 478.5 154.5"></polyline>
        <g id="Group-2" transform="translate(357.000000, 102.000000)" fill="#FFFFFF" stroke="#CBD8F2">
            <polygon id="Path" points="-1.42108547e-14 0 -1.42108547e-14 90 46.02 90 46.02 0"></polygon>
            <polygon id="Path" stroke-linejoin="bevel" points="46.02 90 53.58 82.5 53.58 7.56 46.02 0"></polygon>
        </g>
    </g>
</svg>