<?xml version="1.0" encoding="UTF-8"?>
<svg width="600px" height="227px" viewBox="0 0 600 227" version="1.1" xmlns="http://www.w3.org/2000/svg" xmlns:xlink="http://www.w3.org/1999/xlink">
    <!-- Generator: Sketch 58 (84663) - https://sketch.com -->
    <title>keystones/KS3</title>
    <desc>Created with Sketch.</desc>
    <g id="keystones/KS3" stroke="none" stroke-width="1" fill="none" fill-rule="evenodd">
        <rect fill="#F5F9FF" x="0" y="0" width="600" height="227"></rect>
        <g id="Group" transform="translate(141.000000, 102.000000)" fill="#FFFFFF" stroke="#CBD8F2">
            <polygon id="Rectangle" points="0 0 90 0 69 90 21 90"></polygon>
        </g>
        <polyline id="Rectangle-Copy" stroke="#CBD8F2" points="141.15 87 141 72 231 72 231 87"></polyline>
        <path d="M158.096,52 L158.096,50.572 L158.897041,49.8171994 C159.28328,49.4500002 159.648098,49.0981017 159.9915,48.7615 C160.563836,48.2004972 161.056831,47.6735025 161.4705,47.1805 C161.884169,46.6874975 162.207166,46.2285021 162.4395,45.8035 C162.671834,45.3784979 162.788,44.9733353 162.788,44.588 C162.788,44.0553307 162.652001,43.6501681 162.38,43.3725 C162.107999,43.0948319 161.734002,42.956 161.258,42.956 C160.861331,42.956 160.510002,43.0664989 160.204,43.2875 C159.897998,43.5085011 159.609001,43.7663319 159.337,44.061 L157.977,42.718 C158.509669,42.1513305 159.053664,41.7235014 159.609,41.4345 C160.164336,41.1454986 160.827329,41.001 161.598,41.001 C162.130669,41.001 162.615164,41.0831658 163.0515,41.2475 C163.487836,41.4118342 163.864665,41.6441652 164.182,41.9445 C164.499335,42.2448348 164.742999,42.6046646 164.913,43.024 C165.083001,43.4433354 165.168,43.9136641 165.168,44.435 C165.168,44.8883356 165.071668,45.3501643 164.879,45.8205 C164.686332,46.2908357 164.428502,46.7611643 164.1055,47.2315 C163.782498,47.7018357 163.414169,48.1721643 163.0005,48.6425 C162.586831,49.1128357 162.159002,49.5746644 161.717,50.028 L162.148375,49.979125 C162.299958,49.9635417 162.459332,49.9486667 162.6265,49.9345 C162.960835,49.9061665 163.258332,49.892 163.519,49.892 L165.695,49.892 L165.695,52 L158.096,52 Z M167.633,52 L167.633,49.977 L169.979,49.977 L169.979,43.738 L167.956,43.738 L167.956,42.191 C168.545336,42.0776661 169.043998,41.9416675 169.452,41.783 C169.860002,41.6243325 170.256665,41.4316678 170.642,41.205 L172.478,41.205 L172.478,49.977 L174.501,49.977 L174.501,52 L167.633,52 Z M179.618,52.204 C178.733996,52.204 177.986003,52.0595014 177.374,51.7705 C176.761997,51.4814986 176.240669,51.1216688 175.81,50.691 L176.932,49.11 C177.260668,49.4046681 177.614831,49.6568323 177.9945,49.8665 C178.374169,50.0761677 178.796331,50.181 179.261,50.181 C179.816336,50.181 180.258332,50.0393348 180.587,49.756 C180.915668,49.4726652 181.08,49.0533361 181.08,48.498 C181.08,47.9539973 180.924168,47.5403347 180.6125,47.257 C180.300832,46.9736652 179.890003,46.832 179.38,46.832 C179.221333,46.832 179.079667,46.8404999 178.955,46.8575 C178.830333,46.8745001 178.708501,46.9056664 178.5895,46.951 C178.470499,46.9963336 178.345834,47.0529997 178.2155,47.121 C178.085166,47.1890003 177.940667,47.2739995 177.782,47.376 L176.66,46.662 L176.966,41.205 L183.086,41.205 L183.086,43.313 L179.125,43.313 L178.938,45.336 C179.142001,45.2453329 179.337499,45.1801669 179.5245,45.1405 C179.711501,45.1008331 179.918332,45.081 180.145,45.081 C180.609669,45.081 181.048831,45.1489993 181.4625,45.285 C181.876169,45.4210007 182.241665,45.6249986 182.559,45.897 C182.876335,46.1690014 183.125666,46.5146646 183.307,46.934 C183.488334,47.3533354 183.579,47.8519971 183.579,48.43 C183.579,49.0306697 183.471334,49.563331 183.256,50.028 C183.040666,50.492669 182.751668,50.8864984 182.389,51.2095 C182.026332,51.5325016 181.604169,51.7789992 181.1225,51.949 C180.640831,52.1190008 180.139336,52.204 179.618,52.204 Z M185.5,52 L185.5,43.568 L187.54,43.568 L187.71,44.656 L187.778,44.656 C188.129335,44.3046649 188.503331,44.0015013 188.9,43.7465 C189.296669,43.4914987 189.772664,43.364 190.328,43.364 C190.92867,43.364 191.413165,43.4858321 191.7815,43.7295 C192.149835,43.9731679 192.441666,44.3216644 192.657,44.775 C193.031002,44.3896647 193.424831,44.0581681 193.8385,43.7805 C194.252169,43.5028319 194.742331,43.364 195.309,43.364 C196.215671,43.364 196.881498,43.6671636 197.3065,44.2735 C197.731502,44.8798364 197.944,45.7099947 197.944,46.764 L197.944,52 L195.445,52 L195.445,47.087 C195.445,46.4749969 195.362834,46.0556678 195.1985,45.829 C195.034166,45.6023322 194.770668,45.489 194.408,45.489 C193.988665,45.489 193.507003,45.7609973 192.963,46.305 L192.963,52 L190.464,52 L190.464,47.087 C190.464,46.4749969 190.381834,46.0556678 190.2175,45.829 C190.053166,45.6023322 189.789668,45.489 189.427,45.489 C188.996331,45.489 188.520336,45.7609973 187.999,46.305 L187.999,52 L185.5,52 Z M200.069,52 L200.069,43.568 L202.109,43.568 L202.279,44.656 L202.347,44.656 C202.698335,44.3046649 203.072331,44.0015013 203.469,43.7465 C203.865669,43.4914987 204.341664,43.364 204.897,43.364 C205.49767,43.364 205.982165,43.4858321 206.3505,43.7295 C206.718835,43.9731679 207.010666,44.3216644 207.226,44.775 C207.600002,44.3896647 207.993831,44.0581681 208.4075,43.7805 C208.821169,43.5028319 209.31133,43.364 209.878,43.364 C210.784671,43.364 211.450498,43.6671636 211.8755,44.2735 C212.300502,44.8798364 212.513,45.7099947 212.513,46.764 L212.513,52 L210.014,52 L210.014,47.087 C210.014,46.4749969 209.931834,46.0556678 209.7675,45.829 C209.603166,45.6023322 209.339668,45.489 208.977,45.489 C208.557665,45.489 208.076003,45.7609973 207.532,46.305 L207.532,52 L205.033,52 L205.033,47.087 C205.033,46.4749969 204.950834,46.0556678 204.7865,45.829 C204.622166,45.6023322 204.358668,45.489 203.996,45.489 C203.565331,45.489 203.089336,45.7609973 202.568,46.305 L202.568,52 L200.069,52 Z" id="215mm" fill="#093169" fill-rule="nonzero"></path>
        <path d="M258.596,152.5 L258.596,151.072 L259.397041,150.317199 C259.78328,149.95 260.148098,149.598102 260.4915,149.2615 C261.063836,148.700497 261.556831,148.173502 261.9705,147.6805 C262.384169,147.187498 262.707166,146.728502 262.9395,146.3035 C263.171834,145.878498 263.288,145.473335 263.288,145.088 C263.288,144.555331 263.152001,144.150168 262.88,143.8725 C262.607999,143.594832 262.234002,143.456 261.758,143.456 C261.361331,143.456 261.010002,143.566499 260.704,143.7875 C260.397998,144.008501 260.109001,144.266332 259.837,144.561 L258.477,143.218 C259.009669,142.651331 259.553664,142.223501 260.109,141.9345 C260.664336,141.645499 261.327329,141.501 262.098,141.501 C262.630669,141.501 263.115164,141.583166 263.5515,141.7475 C263.987836,141.911834 264.364665,142.144165 264.682,142.4445 C264.999335,142.744835 265.242999,143.104665 265.413,143.524 C265.583001,143.943335 265.668,144.413664 265.668,144.935 C265.668,145.388336 265.571668,145.850164 265.379,146.3205 C265.186332,146.790836 264.928502,147.261164 264.6055,147.7315 C264.282498,148.201836 263.914169,148.672164 263.5005,149.1425 C263.086831,149.612836 262.659002,150.074664 262.217,150.528 L262.648375,150.479125 C262.799958,150.463542 262.959332,150.448667 263.1265,150.4345 C263.460835,150.406167 263.758332,150.392 264.019,150.392 L266.195,150.392 L266.195,152.5 L258.596,152.5 Z M268.133,152.5 L268.133,150.477 L270.479,150.477 L270.479,144.238 L268.456,144.238 L268.456,142.691 C269.045336,142.577666 269.543998,142.441667 269.952,142.283 C270.360002,142.124333 270.756665,141.931668 271.142,141.705 L272.978,141.705 L272.978,150.477 L275.001,150.477 L275.001,152.5 L268.133,152.5 Z M280.118,152.704 C279.233996,152.704 278.486003,152.559501 277.874,152.2705 C277.261997,151.981499 276.740669,151.621669 276.31,151.191 L277.432,149.61 C277.760668,149.904668 278.114831,150.156832 278.4945,150.3665 C278.874169,150.576168 279.296331,150.681 279.761,150.681 C280.316336,150.681 280.758332,150.539335 281.087,150.256 C281.415668,149.972665 281.58,149.553336 281.58,148.998 C281.58,148.453997 281.424168,148.040335 281.1125,147.757 C280.800832,147.473665 280.390003,147.332 279.88,147.332 C279.721333,147.332 279.579667,147.3405 279.455,147.3575 C279.330333,147.3745 279.208501,147.405666 279.0895,147.451 C278.970499,147.496334 278.845834,147.553 278.7155,147.621 C278.585166,147.689 278.440667,147.773999 278.282,147.876 L277.16,147.162 L277.466,141.705 L283.586,141.705 L283.586,143.813 L279.625,143.813 L279.438,145.836 C279.642001,145.745333 279.837499,145.680167 280.0245,145.6405 C280.211501,145.600833 280.418332,145.581 280.645,145.581 C281.109669,145.581 281.548831,145.648999 281.9625,145.785 C282.376169,145.921001 282.741665,146.124999 283.059,146.397 C283.376335,146.669001 283.625666,147.014665 283.807,147.434 C283.988334,147.853335 284.079,148.351997 284.079,148.93 C284.079,149.53067 283.971334,150.063331 283.756,150.528 C283.540666,150.992669 283.251668,151.386498 282.889,151.7095 C282.526332,152.032502 282.104169,152.278999 281.6225,152.449 C281.140831,152.619001 280.639336,152.704 280.118,152.704 Z M286,152.5 L286,144.068 L288.04,144.068 L288.21,145.156 L288.278,145.156 C288.629335,144.804665 289.003331,144.501501 289.4,144.2465 C289.796669,143.991499 290.272664,143.864 290.828,143.864 C291.42867,143.864 291.913165,143.985832 292.2815,144.2295 C292.649835,144.473168 292.941666,144.821664 293.157,145.275 C293.531002,144.889665 293.924831,144.558168 294.3385,144.2805 C294.752169,144.002832 295.24233,143.864 295.809,143.864 C296.715671,143.864 297.381498,144.167164 297.8065,144.7735 C298.231502,145.379836 298.444,146.209995 298.444,147.264 L298.444,152.5 L295.945,152.5 L295.945,147.587 C295.945,146.974997 295.862834,146.555668 295.6985,146.329 C295.534166,146.102332 295.270668,145.989 294.908,145.989 C294.488665,145.989 294.007003,146.260997 293.463,146.805 L293.463,152.5 L290.964,152.5 L290.964,147.587 C290.964,146.974997 290.881834,146.555668 290.7175,146.329 C290.553166,146.102332 290.289668,145.989 289.927,145.989 C289.496331,145.989 289.020336,146.260997 288.499,146.805 L288.499,152.5 L286,152.5 Z M300.569,152.5 L300.569,144.068 L302.609,144.068 L302.779,145.156 L302.847,145.156 C303.198335,144.804665 303.572331,144.501501 303.969,144.2465 C304.365669,143.991499 304.841664,143.864 305.397,143.864 C305.99767,143.864 306.482165,143.985832 306.8505,144.2295 C307.218835,144.473168 307.510666,144.821664 307.726,145.275 C308.100002,144.889665 308.493831,144.558168 308.9075,144.2805 C309.321169,144.002832 309.81133,143.864 310.378,143.864 C311.284671,143.864 311.950498,144.167164 312.3755,144.7735 C312.800502,145.379836 313.013,146.209995 313.013,147.264 L313.013,152.5 L310.514,152.5 L310.514,147.587 C310.514,146.974997 310.431834,146.555668 310.2675,146.329 C310.103166,146.102332 309.839668,145.989 309.477,145.989 C309.057665,145.989 308.576003,146.260997 308.032,146.805 L308.032,152.5 L305.533,152.5 L305.533,147.587 C305.533,146.974997 305.450834,146.555668 305.2865,146.329 C305.122166,146.102332 304.858668,145.989 304.496,145.989 C304.065331,145.989 303.589336,146.260997 303.068,146.805 L303.068,152.5 L300.569,152.5 Z" id="215mm" fill="#093169" fill-rule="nonzero" transform="translate(285.745000, 147.102500) rotate(-270.000000) translate(-285.745000, -147.102500) "></path>
        <polyline id="Rectangle-Copy-3" stroke="#CBD8F2" transform="translate(253.500000, 147.000000) rotate(-270.000000) translate(-253.500000, -147.000000) " points="208.65 154.5 208.5 139.5 298.5 139.5 298.5 154.5"></polyline>
        <g id="Group-3" transform="translate(352.000000, 35.000000)">
            <polyline id="Rectangle-Copy-2" stroke="#CBD8F2" points="5.07666667 52 5 37 51 37 51 52"></polyline>
            <path d="M1.657,17 L1.657,14.977 L4.003,14.977 L4.003,8.738 L1.98,8.738 L1.98,7.191 C2.56933628,7.0776661 3.06799796,6.94166746 3.476,6.783 C3.88400204,6.62433254 4.28066474,6.4316678 4.666,6.205 L6.502,6.205 L6.502,14.977 L8.525,14.977 L8.525,17 L1.657,17 Z M10.633,17 L10.633,14.977 L12.979,14.977 L12.979,8.738 L10.956,8.738 L10.956,7.191 C11.5453363,7.0776661 12.043998,6.94166746 12.452,6.783 C12.860002,6.62433254 13.2566647,6.4316678 13.642,6.205 L15.478,6.205 L15.478,14.977 L17.501,14.977 L17.501,17 L10.633,17 Z M22.907,17.204 C22.3289971,17.204 21.8020024,17.0821679 21.326,16.8385 C20.8499976,16.5948321 20.444835,16.2350024 20.1105,15.759 C19.776165,15.2829976 19.5155009,14.6936702 19.3285,13.991 C19.1414991,13.2883298 19.048,12.4780046 19.048,11.56 C19.048,10.6419954 19.1414991,9.83733679 19.3285,9.146 C19.5155009,8.45466321 19.776165,7.87383568 20.1105,7.4035 C20.444835,6.93316431 20.8499976,6.58183449 21.326,6.3495 C21.8020024,6.1171655 22.3289971,6.001 22.907,6.001 C23.4850029,6.001 24.0119976,6.1171655 24.488,6.3495 C24.9640024,6.58183449 25.369165,6.93316431 25.7035,7.4035 C26.037835,7.87383568 26.2984991,8.45466321 26.4855,9.146 C26.6725009,9.83733679 26.766,10.6419954 26.766,11.56 C26.766,12.4780046 26.6725009,13.2883298 26.4855,13.991 C26.2984991,14.6936702 26.037835,15.2829976 25.7035,15.759 C25.369165,16.2350024 24.9640024,16.5948321 24.488,16.8385 C24.0119976,17.0821679 23.4850029,17.204 22.907,17.204 Z M22.907,15.266 C23.1223344,15.266 23.3206658,15.2121672 23.502,15.1045 C23.6833342,14.9968328 23.8419993,14.8013347 23.978,14.518 C24.1140007,14.2346652 24.218833,13.8550024 24.2925,13.379 C24.366167,12.9029976 24.403,12.2966703 24.403,11.56 C24.403,10.8233296 24.366167,10.2198357 24.2925,9.7495 C24.218833,9.27916431 24.1140007,8.91083466 23.978,8.6445 C23.8419993,8.37816533 23.6833342,8.19400051 23.502,8.092 C23.3206658,7.98999949 23.1223344,7.939 22.907,7.939 C22.702999,7.939 22.5103342,7.98999949 22.329,8.092 C22.1476658,8.19400051 21.9890007,8.37816533 21.853,8.6445 C21.7169993,8.91083466 21.6093337,9.27916431 21.53,9.7495 C21.4506663,10.2198357 21.411,10.8233296 21.411,11.56 C21.411,12.2966703 21.4506663,12.9029976 21.53,13.379 C21.6093337,13.8550024 21.7169993,14.2346652 21.853,14.518 C21.9890007,14.8013347 22.1476658,14.9968328 22.329,15.1045 C22.5103342,15.2121672 22.702999,15.266 22.907,15.266 Z M28.5,17 L28.5,8.568 L30.54,8.568 L30.71,9.656 L30.778,9.656 C31.1293351,9.30466491 31.5033314,9.00150127 31.9,8.7465 C32.2966687,8.49149872 32.7726639,8.364 33.328,8.364 C33.9286697,8.364 34.4131648,8.48583211 34.7815,8.7295 C35.1498352,8.97316788 35.4416656,9.3216644 35.657,9.775 C36.0310019,9.38966474 36.4248313,9.05816805 36.8385,8.7805 C37.2521687,8.50283194 37.7423305,8.364 38.309,8.364 C39.2156712,8.364 39.8814979,8.66716363 40.3065,9.2735 C40.7315021,9.87983636 40.944,10.7099947 40.944,11.764 L40.944,17 L38.445,17 L38.445,12.087 C38.445,11.4749969 38.3628342,11.0556678 38.1985,10.829 C38.0341658,10.6023322 37.7706685,10.489 37.408,10.489 C36.9886646,10.489 36.5070027,10.7609973 35.963,11.305 L35.963,17 L33.464,17 L33.464,12.087 C33.464,11.4749969 33.3818342,11.0556678 33.2175,10.829 C33.0531658,10.6023322 32.7896685,10.489 32.427,10.489 C31.9963312,10.489 31.5203359,10.7609973 30.999,11.305 L30.999,17 L28.5,17 Z M43.069,17 L43.069,8.568 L45.109,8.568 L45.279,9.656 L45.347,9.656 C45.6983351,9.30466491 46.0723314,9.00150127 46.469,8.7465 C46.8656687,8.49149872 47.3416639,8.364 47.897,8.364 C48.4976697,8.364 48.9821648,8.48583211 49.3505,8.7295 C49.7188352,8.97316788 50.0106656,9.3216644 50.226,9.775 C50.6000019,9.38966474 50.9938313,9.05816805 51.4075,8.7805 C51.8211687,8.50283194 52.3113305,8.364 52.878,8.364 C53.7846712,8.364 54.4504979,8.66716363 54.8755,9.2735 C55.3005021,9.87983636 55.513,10.7099947 55.513,11.764 L55.513,17 L53.014,17 L53.014,12.087 C53.014,11.4749969 52.9318342,11.0556678 52.7675,10.829 C52.6031658,10.6023322 52.3396685,10.489 51.977,10.489 C51.5576646,10.489 51.0760027,10.7609973 50.532,11.305 L50.532,17 L48.033,17 L48.033,12.087 C48.033,11.4749969 47.9508342,11.0556678 47.7865,10.829 C47.6221658,10.6023322 47.3586685,10.489 46.996,10.489 C46.5653312,10.489 46.0893359,10.7609973 45.568,11.305 L45.568,17 L43.069,17 Z" id="110mm" fill="#093169" fill-rule="nonzero"></path>
            <path d="M79.596,117.5 L79.596,116.072 L80.3970407,115.317199 C80.7832799,114.95 81.1480983,114.598102 81.4915,114.2615 C82.0638362,113.700497 82.5568313,113.173502 82.9705,112.6805 C83.3841687,112.187498 83.7071655,111.728502 83.9395,111.3035 C84.1718345,110.878498 84.288,110.473335 84.288,110.088 C84.288,109.555331 84.1520014,109.150168 83.88,108.8725 C83.6079986,108.594832 83.2340024,108.456 82.758,108.456 C82.3613314,108.456 82.0100015,108.566499 81.704,108.7875 C81.3979985,109.008501 81.1090014,109.266332 80.837,109.561 L79.477,108.218 C80.0096693,107.651331 80.5536639,107.223501 81.109,106.9345 C81.6643361,106.645499 82.3273295,106.501 83.098,106.501 C83.6306693,106.501 84.1151645,106.583166 84.5515,106.7475 C84.9878355,106.911834 85.3646651,107.144165 85.682,107.4445 C85.9993349,107.744835 86.2429992,108.104665 86.413,108.524 C86.5830009,108.943335 86.668,109.413664 86.668,109.935 C86.668,110.388336 86.5716676,110.850164 86.379,111.3205 C86.1863324,111.790836 85.9285016,112.261164 85.6055,112.7315 C85.2824984,113.201836 84.9141687,113.672164 84.5005,114.1425 C84.0868313,114.612836 83.6590022,115.074664 83.217,115.528 L83.6483749,115.479125 C83.7999578,115.463542 83.9593325,115.448667 84.1265,115.4345 C84.460835,115.406167 84.758332,115.392 85.019,115.392 L87.195,115.392 L87.195,117.5 L79.596,117.5 Z M89.133,117.5 L89.133,115.477 L91.479,115.477 L91.479,109.238 L89.456,109.238 L89.456,107.691 C90.0453363,107.577666 90.543998,107.441667 90.952,107.283 C91.360002,107.124333 91.7566647,106.931668 92.142,106.705 L93.978,106.705 L93.978,115.477 L96.001,115.477 L96.001,117.5 L89.133,117.5 Z M101.118,117.704 C100.233996,117.704 99.4860031,117.559501 98.874,117.2705 C98.2619969,116.981499 97.7406688,116.621669 97.31,116.191 L98.432,114.61 C98.7606683,114.904668 99.1148314,115.156832 99.4945,115.3665 C99.8741686,115.576168 100.296331,115.681 100.761,115.681 C101.316336,115.681 101.758332,115.539335 102.087,115.256 C102.415668,114.972665 102.58,114.553336 102.58,113.998 C102.58,113.453997 102.424168,113.040335 102.1125,112.757 C101.800832,112.473665 101.390003,112.332 100.88,112.332 C100.721333,112.332 100.579667,112.3405 100.455,112.3575 C100.330333,112.3745 100.208501,112.405666 100.0895,112.451 C99.9704994,112.496334 99.845834,112.553 99.7155,112.621 C99.585166,112.689 99.4406675,112.773999 99.282,112.876 L98.16,112.162 L98.466,106.705 L104.586,106.705 L104.586,108.813 L100.625,108.813 L100.438,110.836 C100.642001,110.745333 100.837499,110.680167 101.0245,110.6405 C101.211501,110.600833 101.418332,110.581 101.645,110.581 C102.109669,110.581 102.548831,110.648999 102.9625,110.785 C103.376169,110.921001 103.741665,111.124999 104.059,111.397 C104.376335,111.669001 104.625666,112.014665 104.807,112.434 C104.988334,112.853335 105.079,113.351997 105.079,113.93 C105.079,114.53067 104.971334,115.063331 104.756,115.528 C104.540666,115.992669 104.251668,116.386498 103.889,116.7095 C103.526332,117.032502 103.104169,117.278999 102.6225,117.449 C102.140831,117.619001 101.639336,117.704 101.118,117.704 Z M107,117.5 L107,109.068 L109.04,109.068 L109.21,110.156 L109.278,110.156 C109.629335,109.804665 110.003331,109.501501 110.4,109.2465 C110.796669,108.991499 111.272664,108.864 111.828,108.864 C112.42867,108.864 112.913165,108.985832 113.2815,109.2295 C113.649835,109.473168 113.941666,109.821664 114.157,110.275 C114.531002,109.889665 114.924831,109.558168 115.3385,109.2805 C115.752169,109.002832 116.242331,108.864 116.809,108.864 C117.715671,108.864 118.381498,109.167164 118.8065,109.7735 C119.231502,110.379836 119.444,111.209995 119.444,112.264 L119.444,117.5 L116.945,117.5 L116.945,112.587 C116.945,111.974997 116.862834,111.555668 116.6985,111.329 C116.534166,111.102332 116.270668,110.989 115.908,110.989 C115.488665,110.989 115.007003,111.260997 114.463,111.805 L114.463,117.5 L111.964,117.5 L111.964,112.587 C111.964,111.974997 111.881834,111.555668 111.7175,111.329 C111.553166,111.102332 111.289668,110.989 110.927,110.989 C110.496331,110.989 110.020336,111.260997 109.499,111.805 L109.499,117.5 L107,117.5 Z M121.569,117.5 L121.569,109.068 L123.609,109.068 L123.779,110.156 L123.847,110.156 C124.198335,109.804665 124.572331,109.501501 124.969,109.2465 C125.365669,108.991499 125.841664,108.864 126.397,108.864 C126.99767,108.864 127.482165,108.985832 127.8505,109.2295 C128.218835,109.473168 128.510666,109.821664 128.726,110.275 C129.100002,109.889665 129.493831,109.558168 129.9075,109.2805 C130.321169,109.002832 130.81133,108.864 131.378,108.864 C132.284671,108.864 132.950498,109.167164 133.3755,109.7735 C133.800502,110.379836 134.013,111.209995 134.013,112.264 L134.013,117.5 L131.514,117.5 L131.514,112.587 C131.514,111.974997 131.431834,111.555668 131.2675,111.329 C131.103166,111.102332 130.839668,110.989 130.477,110.989 C130.057665,110.989 129.576003,111.260997 129.032,111.805 L129.032,117.5 L126.533,117.5 L126.533,112.587 C126.533,111.974997 126.450834,111.555668 126.2865,111.329 C126.122166,111.102332 125.858668,110.989 125.496,110.989 C125.065331,110.989 124.589336,111.260997 124.068,111.805 L124.068,117.5 L121.569,117.5 Z" id="215mm" fill="#093169" fill-rule="nonzero" transform="translate(106.745000, 112.102500) rotate(-270.000000) translate(-106.745000, -112.102500) "></path>
            <polyline id="Rectangle-Copy-4" stroke="#CBD8F2" transform="translate(74.500000, 112.000000) rotate(-270.000000) translate(-74.500000, -112.000000) " points="29.65 119.5 29.5 104.5 119.5 104.5 119.5 119.5"></polyline>
            <g id="Group-2" transform="translate(5.000000, 67.000000)" fill="#FFFFFF" stroke="#CBD8F2">
                <polygon id="Path" points="-1.42108547e-14 0 -1.42108547e-14 90 46.02 90 46.02 0"></polygon>
            </g>
        </g>
    </g>
</svg>