<?xml version="1.0" encoding="UTF-8"?>
<svg width="600px" height="227px" viewBox="0 0 600 227" version="1.1" xmlns="http://www.w3.org/2000/svg" xmlns:xlink="http://www.w3.org/1999/xlink">
    <!-- Generator: Sketch 58 (84663) - https://sketch.com -->
    <title>keystones/KS4-C</title>
    <desc>Created with Sketch.</desc>
    <g id="keystones/KS4-C" stroke="none" stroke-width="1" fill="none" fill-rule="evenodd">
        <rect fill="#F5F9FF" x="0" y="0" width="600" height="227"></rect>
        <g id="Group" transform="translate(141.000000, 102.000000)" stroke="#CBD8F2">
            <polygon id="Rectangle" fill="#FFFFFF" points="0 0 90 0 69 90 21 90"></polygon>
            <path d="M26.88,82.5 L20.94,90" id="Path"></path>
            <path d="M63.06,82.5 L69.06,90" id="Path"></path>
            <path d="M90,-2.84217094e-14 L80.52,7.56" id="Path"></path>
            <path d="M1.33226763e-14,-2.84217094e-14 L9.48,7.56" id="Path"></path>
            <path d="M80.52,7.56 L63.06,82.5" id="Path"></path>
            <path d="M9.48,7.56 L26.88,82.5" id="Path"></path>
            <path d="M9.48,7.56 L80.52,7.56" id="Path"></path>
            <path d="M26.88,82.5 L63.06,82.5" id="Path"></path>
        </g>
        <polyline id="Rectangle-Copy" stroke="#CBD8F2" points="141.15 87 141 72 231 72 231 87"></polyline>
        <path d="M158.096,52 L158.096,50.572 L158.897041,49.8171994 C159.28328,49.4500002 159.648098,49.0981017 159.9915,48.7615 C160.563836,48.2004972 161.056831,47.6735025 161.4705,47.1805 C161.884169,46.6874975 162.207166,46.2285021 162.4395,45.8035 C162.671834,45.3784979 162.788,44.9733353 162.788,44.588 C162.788,44.0553307 162.652001,43.6501681 162.38,43.3725 C162.107999,43.0948319 161.734002,42.956 161.258,42.956 C160.861331,42.956 160.510002,43.0664989 160.204,43.2875 C159.897998,43.5085011 159.609001,43.7663319 159.337,44.061 L157.977,42.718 C158.509669,42.1513305 159.053664,41.7235014 159.609,41.4345 C160.164336,41.1454986 160.827329,41.001 161.598,41.001 C162.130669,41.001 162.615164,41.0831658 163.0515,41.2475 C163.487836,41.4118342 163.864665,41.6441652 164.182,41.9445 C164.499335,42.2448348 164.742999,42.6046646 164.913,43.024 C165.083001,43.4433354 165.168,43.9136641 165.168,44.435 C165.168,44.8883356 165.071668,45.3501643 164.879,45.8205 C164.686332,46.2908357 164.428502,46.7611643 164.1055,47.2315 C163.782498,47.7018357 163.414169,48.1721643 163.0005,48.6425 C162.586831,49.1128357 162.159002,49.5746644 161.717,50.028 L162.148375,49.979125 C162.299958,49.9635417 162.459332,49.9486667 162.6265,49.9345 C162.960835,49.9061665 163.258332,49.892 163.519,49.892 L165.695,49.892 L165.695,52 L158.096,52 Z M167.633,52 L167.633,49.977 L169.979,49.977 L169.979,43.738 L167.956,43.738 L167.956,42.191 C168.545336,42.0776661 169.043998,41.9416675 169.452,41.783 C169.860002,41.6243325 170.256665,41.4316678 170.642,41.205 L172.478,41.205 L172.478,49.977 L174.501,49.977 L174.501,52 L167.633,52 Z M179.618,52.204 C178.733996,52.204 177.986003,52.0595014 177.374,51.7705 C176.761997,51.4814986 176.240669,51.1216688 175.81,50.691 L176.932,49.11 C177.260668,49.4046681 177.614831,49.6568323 177.9945,49.8665 C178.374169,50.0761677 178.796331,50.181 179.261,50.181 C179.816336,50.181 180.258332,50.0393348 180.587,49.756 C180.915668,49.4726652 181.08,49.0533361 181.08,48.498 C181.08,47.9539973 180.924168,47.5403347 180.6125,47.257 C180.300832,46.9736652 179.890003,46.832 179.38,46.832 C179.221333,46.832 179.079667,46.8404999 178.955,46.8575 C178.830333,46.8745001 178.708501,46.9056664 178.5895,46.951 C178.470499,46.9963336 178.345834,47.0529997 178.2155,47.121 C178.085166,47.1890003 177.940667,47.2739995 177.782,47.376 L176.66,46.662 L176.966,41.205 L183.086,41.205 L183.086,43.313 L179.125,43.313 L178.938,45.336 C179.142001,45.2453329 179.337499,45.1801669 179.5245,45.1405 C179.711501,45.1008331 179.918332,45.081 180.145,45.081 C180.609669,45.081 181.048831,45.1489993 181.4625,45.285 C181.876169,45.4210007 182.241665,45.6249986 182.559,45.897 C182.876335,46.1690014 183.125666,46.5146646 183.307,46.934 C183.488334,47.3533354 183.579,47.8519971 183.579,48.43 C183.579,49.0306697 183.471334,49.563331 183.256,50.028 C183.040666,50.492669 182.751668,50.8864984 182.389,51.2095 C182.026332,51.5325016 181.604169,51.7789992 181.1225,51.949 C180.640831,52.1190008 180.139336,52.204 179.618,52.204 Z M185.5,52 L185.5,43.568 L187.54,43.568 L187.71,44.656 L187.778,44.656 C188.129335,44.3046649 188.503331,44.0015013 188.9,43.7465 C189.296669,43.4914987 189.772664,43.364 190.328,43.364 C190.92867,43.364 191.413165,43.4858321 191.7815,43.7295 C192.149835,43.9731679 192.441666,44.3216644 192.657,44.775 C193.031002,44.3896647 193.424831,44.0581681 193.8385,43.7805 C194.252169,43.5028319 194.742331,43.364 195.309,43.364 C196.215671,43.364 196.881498,43.6671636 197.3065,44.2735 C197.731502,44.8798364 197.944,45.7099947 197.944,46.764 L197.944,52 L195.445,52 L195.445,47.087 C195.445,46.4749969 195.362834,46.0556678 195.1985,45.829 C195.034166,45.6023322 194.770668,45.489 194.408,45.489 C193.988665,45.489 193.507003,45.7609973 192.963,46.305 L192.963,52 L190.464,52 L190.464,47.087 C190.464,46.4749969 190.381834,46.0556678 190.2175,45.829 C190.053166,45.6023322 189.789668,45.489 189.427,45.489 C188.996331,45.489 188.520336,45.7609973 187.999,46.305 L187.999,52 L185.5,52 Z M200.069,52 L200.069,43.568 L202.109,43.568 L202.279,44.656 L202.347,44.656 C202.698335,44.3046649 203.072331,44.0015013 203.469,43.7465 C203.865669,43.4914987 204.341664,43.364 204.897,43.364 C205.49767,43.364 205.982165,43.4858321 206.3505,43.7295 C206.718835,43.9731679 207.010666,44.3216644 207.226,44.775 C207.600002,44.3896647 207.993831,44.0581681 208.4075,43.7805 C208.821169,43.5028319 209.31133,43.364 209.878,43.364 C210.784671,43.364 211.450498,43.6671636 211.8755,44.2735 C212.300502,44.8798364 212.513,45.7099947 212.513,46.764 L212.513,52 L210.014,52 L210.014,47.087 C210.014,46.4749969 209.931834,46.0556678 209.7675,45.829 C209.603166,45.6023322 209.339668,45.489 208.977,45.489 C208.557665,45.489 208.076003,45.7609973 207.532,46.305 L207.532,52 L205.033,52 L205.033,47.087 C205.033,46.4749969 204.950834,46.0556678 204.7865,45.829 C204.622166,45.6023322 204.358668,45.489 203.996,45.489 C203.565331,45.489 203.089336,45.7609973 202.568,46.305 L202.568,52 L200.069,52 Z" id="215mm" fill="#093169" fill-rule="nonzero"></path>
        <g id="Group-4" transform="translate(245.500000, 101.500000)">
            <path d="M13.096,51 L13.096,49.572 L13.8970407,48.8171994 C14.2832799,48.4500002 14.6480983,48.0981017 14.9915,47.7615 C15.5638362,47.2004972 16.0568313,46.6735025 16.4705,46.1805 C16.8841687,45.6874975 17.2071655,45.2285021 17.4395,44.8035 C17.6718345,44.3784979 17.788,43.9733353 17.788,43.588 C17.788,43.0553307 17.6520014,42.6501681 17.38,42.3725 C17.1079986,42.0948319 16.7340024,41.956 16.258,41.956 C15.8613313,41.956 15.5100015,42.0664989 15.204,42.2875 C14.8979985,42.5085011 14.6090014,42.7663319 14.337,43.061 L12.977,41.718 C13.5096693,41.1513305 14.0536639,40.7235014 14.609,40.4345 C15.1643361,40.1454986 15.8273295,40.001 16.598,40.001 C17.1306693,40.001 17.6151645,40.0831658 18.0515,40.2475 C18.4878355,40.4118342 18.8646651,40.6441652 19.182,40.9445 C19.4993349,41.2448348 19.7429991,41.6046646 19.913,42.024 C20.0830008,42.4433354 20.168,42.9136641 20.168,43.435 C20.168,43.8883356 20.0716676,44.3501643 19.879,44.8205 C19.6863324,45.2908357 19.4285016,45.7611643 19.1055,46.2315 C18.7824984,46.7018357 18.4141687,47.1721643 18.0005,47.6425 C17.5868313,48.1128357 17.1590022,48.5746644 16.717,49.028 L17.1483749,48.979125 C17.2999578,48.9635417 17.4593325,48.9486667 17.6265,48.9345 C17.960835,48.9061665 18.258332,48.892 18.519,48.892 L20.695,48.892 L20.695,51 L13.096,51 Z M22.633,51 L22.633,48.977 L24.979,48.977 L24.979,42.738 L22.956,42.738 L22.956,41.191 C23.5453363,41.0776661 24.043998,40.9416675 24.452,40.783 C24.860002,40.6243325 25.2566647,40.4316678 25.642,40.205 L27.478,40.205 L27.478,48.977 L29.501,48.977 L29.501,51 L22.633,51 Z M34.618,51.204 C33.7339956,51.204 32.9860031,51.0595014 32.374,50.7705 C31.7619969,50.4814986 31.2406688,50.1216688 30.81,49.691 L31.932,48.11 C32.2606683,48.4046681 32.6148314,48.6568323 32.9945,48.8665 C33.3741686,49.0761677 33.796331,49.181 34.261,49.181 C34.8163361,49.181 35.2583317,49.0393348 35.587,48.756 C35.9156683,48.4726652 36.08,48.0533361 36.08,47.498 C36.08,46.9539973 35.9241682,46.5403347 35.6125,46.257 C35.3008318,45.9736652 34.8900025,45.832 34.38,45.832 C34.2213325,45.832 34.0796673,45.8404999 33.955,45.8575 C33.8303327,45.8745001 33.7085006,45.9056664 33.5895,45.951 C33.4704994,45.9963336 33.345834,46.0529997 33.2155,46.121 C33.085166,46.1890003 32.9406675,46.2739995 32.782,46.376 L31.66,45.662 L31.966,40.205 L38.086,40.205 L38.086,42.313 L34.125,42.313 L33.938,44.336 C34.142001,44.2453329 34.3374991,44.1801669 34.5245,44.1405 C34.7115009,44.1008331 34.9183322,44.081 35.145,44.081 C35.609669,44.081 36.0488313,44.1489993 36.4625,44.285 C36.8761687,44.4210007 37.2416651,44.6249986 37.559,44.897 C37.8763349,45.1690014 38.1256658,45.5146646 38.307,45.934 C38.4883342,46.3533354 38.579,46.8519971 38.579,47.43 C38.579,48.0306697 38.4713344,48.563331 38.256,49.028 C38.0406656,49.492669 37.7516685,49.8864984 37.389,50.2095 C37.0263315,50.5325016 36.6041691,50.7789992 36.1225,50.949 C35.6408309,51.1190008 35.1393359,51.204 34.618,51.204 Z M40.5,51 L40.5,42.568 L42.54,42.568 L42.71,43.656 L42.778,43.656 C43.1293351,43.3046649 43.5033314,43.0015013 43.9,42.7465 C44.2966687,42.4914987 44.7726639,42.364 45.328,42.364 C45.9286697,42.364 46.4131648,42.4858321 46.7815,42.7295 C47.1498352,42.9731679 47.4416656,43.3216644 47.657,43.775 C48.0310019,43.3896647 48.4248313,43.0581681 48.8385,42.7805 C49.2521687,42.5028319 49.7423305,42.364 50.309,42.364 C51.2156712,42.364 51.8814979,42.6671636 52.3065,43.2735 C52.7315021,43.8798364 52.944,44.7099947 52.944,45.764 L52.944,51 L50.445,51 L50.445,46.087 C50.445,45.4749969 50.3628342,45.0556678 50.1985,44.829 C50.0341658,44.6023322 49.7706685,44.489 49.408,44.489 C48.9886646,44.489 48.5070027,44.7609973 47.963,45.305 L47.963,51 L45.464,51 L45.464,46.087 C45.464,45.4749969 45.3818342,45.0556678 45.2175,44.829 C45.0531658,44.6023322 44.7896685,44.489 44.427,44.489 C43.9963312,44.489 43.5203359,44.7609973 42.999,45.305 L42.999,51 L40.5,51 Z M55.069,51 L55.069,42.568 L57.109,42.568 L57.279,43.656 L57.347,43.656 C57.6983351,43.3046649 58.0723314,43.0015013 58.469,42.7465 C58.8656687,42.4914987 59.3416639,42.364 59.897,42.364 C60.4976697,42.364 60.9821648,42.4858321 61.3505,42.7295 C61.7188352,42.9731679 62.0106656,43.3216644 62.226,43.775 C62.6000019,43.3896647 62.9938313,43.0581681 63.4075,42.7805 C63.8211687,42.5028319 64.3113305,42.364 64.878,42.364 C65.7846712,42.364 66.4504979,42.6671636 66.8755,43.2735 C67.3005021,43.8798364 67.513,44.7099947 67.513,45.764 L67.513,51 L65.014,51 L65.014,46.087 C65.014,45.4749969 64.9318342,45.0556678 64.7675,44.829 C64.6031658,44.6023322 64.3396685,44.489 63.977,44.489 C63.5576646,44.489 63.0760027,44.7609973 62.532,45.305 L62.532,51 L60.033,51 L60.033,46.087 C60.033,45.4749969 59.9508342,45.0556678 59.7865,44.829 C59.6221658,44.6023322 59.3586685,44.489 58.996,44.489 C58.5653312,44.489 58.0893359,44.7609973 57.568,45.305 L57.568,51 L55.069,51 Z" id="215mm" fill="#093169" fill-rule="nonzero" transform="translate(40.245000, 45.602500) rotate(-270.000000) translate(-40.245000, -45.602500) "></path>
            <polyline id="Rectangle-Copy-3" stroke="#CBD8F2" transform="translate(8.000000, 45.500000) rotate(-270.000000) translate(-8.000000, -45.500000) " points="-36.85 53 -37 38 53 38 53 53"></polyline>
        </g>
        <g id="Group-3" transform="translate(355.000000, 35.000000)">
            <polyline id="Rectangle-Copy-2" stroke="#CBD8F2" points="1.09166667 52 1 37 56 37 56 52"></polyline>
            <path d="M1.657,17 L1.657,14.977 L4.003,14.977 L4.003,8.738 L1.98,8.738 L1.98,7.191 C2.56933628,7.0776661 3.06799796,6.94166746 3.476,6.783 C3.88400204,6.62433254 4.28066474,6.4316678 4.666,6.205 L6.502,6.205 L6.502,14.977 L8.525,14.977 L8.525,17 L1.657,17 Z M13.574,17.204 C12.6899956,17.204 11.9420031,17.0651681 11.33,16.7875 C10.7179969,16.5098319 10.2136686,16.138669 9.817,15.674 L10.973,14.093 C11.3016683,14.4103349 11.661498,14.670999 12.0525,14.875 C12.443502,15.079001 12.871331,15.181 13.336,15.181 C13.8686693,15.181 14.2936651,15.0705011 14.611,14.8495 C14.9283349,14.6284989 15.087,14.314002 15.087,13.906 C15.087,13.6679988 15.0445004,13.4526676 14.9595,13.26 C14.8744996,13.0673324 14.7243344,12.905834 14.509,12.7755 C14.2936656,12.645166 13.9990019,12.543167 13.625,12.4695 C13.2509981,12.395833 12.7693363,12.359 12.18,12.359 L12.18,10.591 C12.6673358,10.591 13.0724984,10.5570003 13.3955,10.489 C13.7185016,10.4209997 13.9791657,10.321834 14.1775,10.1915 C14.3758343,10.061166 14.5174996,9.90816754 14.6025,9.7325 C14.6875004,9.55683245 14.73,9.36133441 14.73,9.146 C14.73,8.77199813 14.6166678,8.48016772 14.39,8.2705 C14.1633322,8.06083229 13.8346688,7.956 13.404,7.956 C13.0186647,7.956 12.6701682,8.04099915 12.3585,8.211 C12.0468318,8.38100085 11.7210017,8.61333186 11.381,8.908 L10.123,7.378 C10.6216692,6.94733118 11.1458306,6.61016788 11.6955,6.3665 C12.2451694,6.12283211 12.85433,6.001 13.523,6.001 C14.0783361,6.001 14.5854977,6.06616601 15.0445,6.1965 C15.5035023,6.32683398 15.8944984,6.51949872 16.2175,6.7745 C16.5405016,7.02950128 16.7926658,7.33833152 16.974,7.701 C17.1553342,8.06366848 17.246,8.48299762 17.246,8.959 C17.246,9.5256695 17.0901682,10.004498 16.7785,10.3955 C16.4668318,10.786502 16.0220029,11.1066654 15.444,11.356 L15.444,11.424 C16.0673364,11.6053342 16.5801647,11.9141645 16.9825,12.3505 C17.3848353,12.7868355 17.586,13.3563298 17.586,14.059 C17.586,14.5576692 17.4783344,15.002498 17.263,15.3935 C17.0476656,15.784502 16.7586685,16.1131653 16.396,16.3795 C16.0333315,16.6458347 15.6083358,16.8498326 15.121,16.9915 C14.6336642,17.1331674 14.1180027,17.204 13.574,17.204 Z M22.907,17.204 C22.3289971,17.204 21.8020024,17.0821679 21.326,16.8385 C20.8499976,16.5948321 20.444835,16.2350024 20.1105,15.759 C19.776165,15.2829976 19.5155009,14.6936702 19.3285,13.991 C19.1414991,13.2883298 19.048,12.4780046 19.048,11.56 C19.048,10.6419954 19.1414991,9.83733679 19.3285,9.146 C19.5155009,8.45466321 19.776165,7.87383568 20.1105,7.4035 C20.444835,6.93316431 20.8499976,6.58183449 21.326,6.3495 C21.8020024,6.1171655 22.3289971,6.001 22.907,6.001 C23.4850029,6.001 24.0119976,6.1171655 24.488,6.3495 C24.9640024,6.58183449 25.369165,6.93316431 25.7035,7.4035 C26.037835,7.87383568 26.2984991,8.45466321 26.4855,9.146 C26.6725009,9.83733679 26.766,10.6419954 26.766,11.56 C26.766,12.4780046 26.6725009,13.2883298 26.4855,13.991 C26.2984991,14.6936702 26.037835,15.2829976 25.7035,15.759 C25.369165,16.2350024 24.9640024,16.5948321 24.488,16.8385 C24.0119976,17.0821679 23.4850029,17.204 22.907,17.204 Z M22.907,15.266 C23.1223344,15.266 23.3206658,15.2121672 23.502,15.1045 C23.6833342,14.9968328 23.8419993,14.8013347 23.978,14.518 C24.1140007,14.2346652 24.218833,13.8550024 24.2925,13.379 C24.366167,12.9029976 24.403,12.2966703 24.403,11.56 C24.403,10.8233296 24.366167,10.2198357 24.2925,9.7495 C24.218833,9.27916431 24.1140007,8.91083466 23.978,8.6445 C23.8419993,8.37816533 23.6833342,8.19400051 23.502,8.092 C23.3206658,7.98999949 23.1223344,7.939 22.907,7.939 C22.702999,7.939 22.5103342,7.98999949 22.329,8.092 C22.1476658,8.19400051 21.9890007,8.37816533 21.853,8.6445 C21.7169993,8.91083466 21.6093337,9.27916431 21.53,9.7495 C21.4506663,10.2198357 21.411,10.8233296 21.411,11.56 C21.411,12.2966703 21.4506663,12.9029976 21.53,13.379 C21.6093337,13.8550024 21.7169993,14.2346652 21.853,14.518 C21.9890007,14.8013347 22.1476658,14.9968328 22.329,15.1045 C22.5103342,15.2121672 22.702999,15.266 22.907,15.266 Z M28.5,17 L28.5,8.568 L30.54,8.568 L30.71,9.656 L30.778,9.656 C31.1293351,9.30466491 31.5033314,9.00150127 31.9,8.7465 C32.2966687,8.49149872 32.7726639,8.364 33.328,8.364 C33.9286697,8.364 34.4131648,8.48583211 34.7815,8.7295 C35.1498352,8.97316788 35.4416656,9.3216644 35.657,9.775 C36.0310019,9.38966474 36.4248313,9.05816805 36.8385,8.7805 C37.2521687,8.50283194 37.7423305,8.364 38.309,8.364 C39.2156712,8.364 39.8814979,8.66716363 40.3065,9.2735 C40.7315021,9.87983636 40.944,10.7099947 40.944,11.764 L40.944,17 L38.445,17 L38.445,12.087 C38.445,11.4749969 38.3628342,11.0556678 38.1985,10.829 C38.0341658,10.6023322 37.7706685,10.489 37.408,10.489 C36.9886646,10.489 36.5070027,10.7609973 35.963,11.305 L35.963,17 L33.464,17 L33.464,12.087 C33.464,11.4749969 33.3818342,11.0556678 33.2175,10.829 C33.0531658,10.6023322 32.7896685,10.489 32.427,10.489 C31.9963312,10.489 31.5203359,10.7609973 30.999,11.305 L30.999,17 L28.5,17 Z M43.069,17 L43.069,8.568 L45.109,8.568 L45.279,9.656 L45.347,9.656 C45.6983351,9.30466491 46.0723314,9.00150127 46.469,8.7465 C46.8656687,8.49149872 47.3416639,8.364 47.897,8.364 C48.4976697,8.364 48.9821648,8.48583211 49.3505,8.7295 C49.7188352,8.97316788 50.0106656,9.3216644 50.226,9.775 C50.6000019,9.38966474 50.9938313,9.05816805 51.4075,8.7805 C51.8211687,8.50283194 52.3113305,8.364 52.878,8.364 C53.7846712,8.364 54.4504979,8.66716363 54.8755,9.2735 C55.3005021,9.87983636 55.513,10.7099947 55.513,11.764 L55.513,17 L53.014,17 L53.014,12.087 C53.014,11.4749969 52.9318342,11.0556678 52.7675,10.829 C52.6031658,10.6023322 52.3396685,10.489 51.977,10.489 C51.5576646,10.489 51.0760027,10.7609973 50.532,11.305 L50.532,17 L48.033,17 L48.033,12.087 C48.033,11.4749969 47.9508342,11.0556678 47.7865,10.829 C47.6221658,10.6023322 47.3586685,10.489 46.996,10.489 C46.5653312,10.489 46.0893359,10.7609973 45.568,11.305 L45.568,17 L43.069,17 Z" id="130mm" fill="#093169" fill-rule="nonzero"></path>
            <path d="M91.596,117.5 L91.596,116.072 L92.3970407,115.317199 C92.7832799,114.95 93.1480983,114.598102 93.4915,114.2615 C94.0638362,113.700497 94.5568313,113.173502 94.9705,112.6805 C95.3841687,112.187498 95.7071655,111.728502 95.9395,111.3035 C96.1718345,110.878498 96.288,110.473335 96.288,110.088 C96.288,109.555331 96.1520014,109.150168 95.88,108.8725 C95.6079986,108.594832 95.2340024,108.456 94.758,108.456 C94.3613314,108.456 94.0100015,108.566499 93.704,108.7875 C93.3979985,109.008501 93.1090014,109.266332 92.837,109.561 L91.477,108.218 C92.0096693,107.651331 92.5536639,107.223501 93.109,106.9345 C93.6643361,106.645499 94.3273295,106.501 95.098,106.501 C95.6306693,106.501 96.1151645,106.583166 96.5515,106.7475 C96.9878355,106.911834 97.3646651,107.144165 97.682,107.4445 C97.9993349,107.744835 98.2429992,108.104665 98.413,108.524 C98.5830009,108.943335 98.668,109.413664 98.668,109.935 C98.668,110.388336 98.5716676,110.850164 98.379,111.3205 C98.1863324,111.790836 97.9285016,112.261164 97.6055,112.7315 C97.2824984,113.201836 96.9141687,113.672164 96.5005,114.1425 C96.0868313,114.612836 95.6590022,115.074664 95.217,115.528 L95.6483749,115.479125 C95.7999578,115.463542 95.9593325,115.448667 96.1265,115.4345 C96.460835,115.406167 96.758332,115.392 97.019,115.392 L99.195,115.392 L99.195,117.5 L91.596,117.5 Z M101.133,117.5 L101.133,115.477 L103.479,115.477 L103.479,109.238 L101.456,109.238 L101.456,107.691 C102.045336,107.577666 102.543998,107.441667 102.952,107.283 C103.360002,107.124333 103.756665,106.931668 104.142,106.705 L105.978,106.705 L105.978,115.477 L108.001,115.477 L108.001,117.5 L101.133,117.5 Z M113.118,117.704 C112.233996,117.704 111.486003,117.559501 110.874,117.2705 C110.261997,116.981499 109.740669,116.621669 109.31,116.191 L110.432,114.61 C110.760668,114.904668 111.114831,115.156832 111.4945,115.3665 C111.874169,115.576168 112.296331,115.681 112.761,115.681 C113.316336,115.681 113.758332,115.539335 114.087,115.256 C114.415668,114.972665 114.58,114.553336 114.58,113.998 C114.58,113.453997 114.424168,113.040335 114.1125,112.757 C113.800832,112.473665 113.390003,112.332 112.88,112.332 C112.721333,112.332 112.579667,112.3405 112.455,112.3575 C112.330333,112.3745 112.208501,112.405666 112.0895,112.451 C111.970499,112.496334 111.845834,112.553 111.7155,112.621 C111.585166,112.689 111.440667,112.773999 111.282,112.876 L110.16,112.162 L110.466,106.705 L116.586,106.705 L116.586,108.813 L112.625,108.813 L112.438,110.836 C112.642001,110.745333 112.837499,110.680167 113.0245,110.6405 C113.211501,110.600833 113.418332,110.581 113.645,110.581 C114.109669,110.581 114.548831,110.648999 114.9625,110.785 C115.376169,110.921001 115.741665,111.124999 116.059,111.397 C116.376335,111.669001 116.625666,112.014665 116.807,112.434 C116.988334,112.853335 117.079,113.351997 117.079,113.93 C117.079,114.53067 116.971334,115.063331 116.756,115.528 C116.540666,115.992669 116.251668,116.386498 115.889,116.7095 C115.526332,117.032502 115.104169,117.278999 114.6225,117.449 C114.140831,117.619001 113.639336,117.704 113.118,117.704 Z M119,117.5 L119,109.068 L121.04,109.068 L121.21,110.156 L121.278,110.156 C121.629335,109.804665 122.003331,109.501501 122.4,109.2465 C122.796669,108.991499 123.272664,108.864 123.828,108.864 C124.42867,108.864 124.913165,108.985832 125.2815,109.2295 C125.649835,109.473168 125.941666,109.821664 126.157,110.275 C126.531002,109.889665 126.924831,109.558168 127.3385,109.2805 C127.752169,109.002832 128.242331,108.864 128.809,108.864 C129.715671,108.864 130.381498,109.167164 130.8065,109.7735 C131.231502,110.379836 131.444,111.209995 131.444,112.264 L131.444,117.5 L128.945,117.5 L128.945,112.587 C128.945,111.974997 128.862834,111.555668 128.6985,111.329 C128.534166,111.102332 128.270668,110.989 127.908,110.989 C127.488665,110.989 127.007003,111.260997 126.463,111.805 L126.463,117.5 L123.964,117.5 L123.964,112.587 C123.964,111.974997 123.881834,111.555668 123.7175,111.329 C123.553166,111.102332 123.289668,110.989 122.927,110.989 C122.496331,110.989 122.020336,111.260997 121.499,111.805 L121.499,117.5 L119,117.5 Z M133.569,117.5 L133.569,109.068 L135.609,109.068 L135.779,110.156 L135.847,110.156 C136.198335,109.804665 136.572331,109.501501 136.969,109.2465 C137.365669,108.991499 137.841664,108.864 138.397,108.864 C138.99767,108.864 139.482165,108.985832 139.8505,109.2295 C140.218835,109.473168 140.510666,109.821664 140.726,110.275 C141.100002,109.889665 141.493831,109.558168 141.9075,109.2805 C142.321169,109.002832 142.81133,108.864 143.378,108.864 C144.284671,108.864 144.950498,109.167164 145.3755,109.7735 C145.800502,110.379836 146.013,111.209995 146.013,112.264 L146.013,117.5 L143.514,117.5 L143.514,112.587 C143.514,111.974997 143.431834,111.555668 143.2675,111.329 C143.103166,111.102332 142.839668,110.989 142.477,110.989 C142.057665,110.989 141.576003,111.260997 141.032,111.805 L141.032,117.5 L138.533,117.5 L138.533,112.587 C138.533,111.974997 138.450834,111.555668 138.2865,111.329 C138.122166,111.102332 137.858668,110.989 137.496,110.989 C137.065331,110.989 136.589336,111.260997 136.068,111.805 L136.068,117.5 L133.569,117.5 Z" id="215mm" fill="#093169" fill-rule="nonzero" transform="translate(118.745000, 112.102500) rotate(-270.000000) translate(-118.745000, -112.102500) "></path>
            <polyline id="Rectangle-Copy-4" stroke="#CBD8F2" transform="translate(86.500000, 112.000000) rotate(-270.000000) translate(-86.500000, -112.000000) " points="41.65 119.5 41.5 104.5 131.5 104.5 131.5 119.5"></polyline>
            <g id="Group-2" transform="translate(1.000000, 67.000000)" fill="#FFFFFF" stroke="#CBD8F2">
                <polygon id="Path" points="0.9 0 0.9 25.14 44.88 25.14 44.88 90 55.02 90 55.02 0"></polygon>
                <polygon id="Path" stroke-linejoin="bevel" points="55.02 90 62.58 82.5 62.58 7.56 55.02 0"></polygon>
            </g>
        </g>
    </g>
</svg>