<?xml version="1.0" encoding="UTF-8"?>
<svg width="600px" height="227px" viewBox="0 0 600 227" version="1.1" xmlns="http://www.w3.org/2000/svg" xmlns:xlink="http://www.w3.org/1999/xlink">
    <!-- Generator: Sketch 58 (84663) - https://sketch.com -->
    <title>keystones/KS4</title>
    <desc>Created with Sketch.</desc>
    <g id="keystones/KS4" stroke="none" stroke-width="1" fill="none" fill-rule="evenodd">
        <rect fill="#F5F9FF" x="0" y="0" width="600" height="227"></rect>
        <g id="Group" transform="translate(141.000000, 102.000000)" fill="#FFFFFF" stroke="#CBD8F2">
            <polygon id="Rectangle" points="0 0 90 0 69 90 21 90"></polygon>
        </g>
        <polyline id="Rectangle-Copy" stroke="#CBD8F2" points="141.15 87 141 72 231 72 231 87"></polyline>
        <path d="M158.096,52 L158.096,50.572 L158.897041,49.8171994 C159.28328,49.4500002 159.648098,49.0981017 159.9915,48.7615 C160.563836,48.2004972 161.056831,47.6735025 161.4705,47.1805 C161.884169,46.6874975 162.207166,46.2285021 162.4395,45.8035 C162.671834,45.3784979 162.788,44.9733353 162.788,44.588 C162.788,44.0553307 162.652001,43.6501681 162.38,43.3725 C162.107999,43.0948319 161.734002,42.956 161.258,42.956 C160.861331,42.956 160.510002,43.0664989 160.204,43.2875 C159.897998,43.5085011 159.609001,43.7663319 159.337,44.061 L157.977,42.718 C158.509669,42.1513305 159.053664,41.7235014 159.609,41.4345 C160.164336,41.1454986 160.827329,41.001 161.598,41.001 C162.130669,41.001 162.615164,41.0831658 163.0515,41.2475 C163.487836,41.4118342 163.864665,41.6441652 164.182,41.9445 C164.499335,42.2448348 164.742999,42.6046646 164.913,43.024 C165.083001,43.4433354 165.168,43.9136641 165.168,44.435 C165.168,44.8883356 165.071668,45.3501643 164.879,45.8205 C164.686332,46.2908357 164.428502,46.7611643 164.1055,47.2315 C163.782498,47.7018357 163.414169,48.1721643 163.0005,48.6425 C162.586831,49.1128357 162.159002,49.5746644 161.717,50.028 L162.148375,49.979125 C162.299958,49.9635417 162.459332,49.9486667 162.6265,49.9345 C162.960835,49.9061665 163.258332,49.892 163.519,49.892 L165.695,49.892 L165.695,52 L158.096,52 Z M167.633,52 L167.633,49.977 L169.979,49.977 L169.979,43.738 L167.956,43.738 L167.956,42.191 C168.545336,42.0776661 169.043998,41.9416675 169.452,41.783 C169.860002,41.6243325 170.256665,41.4316678 170.642,41.205 L172.478,41.205 L172.478,49.977 L174.501,49.977 L174.501,52 L167.633,52 Z M179.618,52.204 C178.733996,52.204 177.986003,52.0595014 177.374,51.7705 C176.761997,51.4814986 176.240669,51.1216688 175.81,50.691 L176.932,49.11 C177.260668,49.4046681 177.614831,49.6568323 177.9945,49.8665 C178.374169,50.0761677 178.796331,50.181 179.261,50.181 C179.816336,50.181 180.258332,50.0393348 180.587,49.756 C180.915668,49.4726652 181.08,49.0533361 181.08,48.498 C181.08,47.9539973 180.924168,47.5403347 180.6125,47.257 C180.300832,46.9736652 179.890003,46.832 179.38,46.832 C179.221333,46.832 179.079667,46.8404999 178.955,46.8575 C178.830333,46.8745001 178.708501,46.9056664 178.5895,46.951 C178.470499,46.9963336 178.345834,47.0529997 178.2155,47.121 C178.085166,47.1890003 177.940667,47.2739995 177.782,47.376 L176.66,46.662 L176.966,41.205 L183.086,41.205 L183.086,43.313 L179.125,43.313 L178.938,45.336 C179.142001,45.2453329 179.337499,45.1801669 179.5245,45.1405 C179.711501,45.1008331 179.918332,45.081 180.145,45.081 C180.609669,45.081 181.048831,45.1489993 181.4625,45.285 C181.876169,45.4210007 182.241665,45.6249986 182.559,45.897 C182.876335,46.1690014 183.125666,46.5146646 183.307,46.934 C183.488334,47.3533354 183.579,47.8519971 183.579,48.43 C183.579,49.0306697 183.471334,49.563331 183.256,50.028 C183.040666,50.492669 182.751668,50.8864984 182.389,51.2095 C182.026332,51.5325016 181.604169,51.7789992 181.1225,51.949 C180.640831,52.1190008 180.139336,52.204 179.618,52.204 Z M185.5,52 L185.5,43.568 L187.54,43.568 L187.71,44.656 L187.778,44.656 C188.129335,44.3046649 188.503331,44.0015013 188.9,43.7465 C189.296669,43.4914987 189.772664,43.364 190.328,43.364 C190.92867,43.364 191.413165,43.4858321 191.7815,43.7295 C192.149835,43.9731679 192.441666,44.3216644 192.657,44.775 C193.031002,44.3896647 193.424831,44.0581681 193.8385,43.7805 C194.252169,43.5028319 194.742331,43.364 195.309,43.364 C196.215671,43.364 196.881498,43.6671636 197.3065,44.2735 C197.731502,44.8798364 197.944,45.7099947 197.944,46.764 L197.944,52 L195.445,52 L195.445,47.087 C195.445,46.4749969 195.362834,46.0556678 195.1985,45.829 C195.034166,45.6023322 194.770668,45.489 194.408,45.489 C193.988665,45.489 193.507003,45.7609973 192.963,46.305 L192.963,52 L190.464,52 L190.464,47.087 C190.464,46.4749969 190.381834,46.0556678 190.2175,45.829 C190.053166,45.6023322 189.789668,45.489 189.427,45.489 C188.996331,45.489 188.520336,45.7609973 187.999,46.305 L187.999,52 L185.5,52 Z M200.069,52 L200.069,43.568 L202.109,43.568 L202.279,44.656 L202.347,44.656 C202.698335,44.3046649 203.072331,44.0015013 203.469,43.7465 C203.865669,43.4914987 204.341664,43.364 204.897,43.364 C205.49767,43.364 205.982165,43.4858321 206.3505,43.7295 C206.718835,43.9731679 207.010666,44.3216644 207.226,44.775 C207.600002,44.3896647 207.993831,44.0581681 208.4075,43.7805 C208.821169,43.5028319 209.31133,43.364 209.878,43.364 C210.784671,43.364 211.450498,43.6671636 211.8755,44.2735 C212.300502,44.8798364 212.513,45.7099947 212.513,46.764 L212.513,52 L210.014,52 L210.014,47.087 C210.014,46.4749969 209.931834,46.0556678 209.7675,45.829 C209.603166,45.6023322 209.339668,45.489 208.977,45.489 C208.557665,45.489 208.076003,45.7609973 207.532,46.305 L207.532,52 L205.033,52 L205.033,47.087 C205.033,46.4749969 204.950834,46.0556678 204.7865,45.829 C204.622166,45.6023322 204.358668,45.489 203.996,45.489 C203.565331,45.489 203.089336,45.7609973 202.568,46.305 L202.568,52 L200.069,52 Z" id="215mm" fill="#093169" fill-rule="nonzero"></path>
        <g id="Group-4" transform="translate(245.500000, 101.500000)">
            <path d="M13.096,51 L13.096,49.572 L13.8970407,48.8171994 C14.2832799,48.4500002 14.6480983,48.0981017 14.9915,47.7615 C15.5638362,47.2004972 16.0568313,46.6735025 16.4705,46.1805 C16.8841687,45.6874975 17.2071655,45.2285021 17.4395,44.8035 C17.6718345,44.3784979 17.788,43.9733353 17.788,43.588 C17.788,43.0553307 17.6520014,42.6501681 17.38,42.3725 C17.1079986,42.0948319 16.7340024,41.956 16.258,41.956 C15.8613313,41.956 15.5100015,42.0664989 15.204,42.2875 C14.8979985,42.5085011 14.6090014,42.7663319 14.337,43.061 L12.977,41.718 C13.5096693,41.1513305 14.0536639,40.7235014 14.609,40.4345 C15.1643361,40.1454986 15.8273295,40.001 16.598,40.001 C17.1306693,40.001 17.6151645,40.0831658 18.0515,40.2475 C18.4878355,40.4118342 18.8646651,40.6441652 19.182,40.9445 C19.4993349,41.2448348 19.7429991,41.6046646 19.913,42.024 C20.0830008,42.4433354 20.168,42.9136641 20.168,43.435 C20.168,43.8883356 20.0716676,44.3501643 19.879,44.8205 C19.6863324,45.2908357 19.4285016,45.7611643 19.1055,46.2315 C18.7824984,46.7018357 18.4141687,47.1721643 18.0005,47.6425 C17.5868313,48.1128357 17.1590022,48.5746644 16.717,49.028 L17.1483749,48.979125 C17.2999578,48.9635417 17.4593325,48.9486667 17.6265,48.9345 C17.960835,48.9061665 18.258332,48.892 18.519,48.892 L20.695,48.892 L20.695,51 L13.096,51 Z M22.633,51 L22.633,48.977 L24.979,48.977 L24.979,42.738 L22.956,42.738 L22.956,41.191 C23.5453363,41.0776661 24.043998,40.9416675 24.452,40.783 C24.860002,40.6243325 25.2566647,40.4316678 25.642,40.205 L27.478,40.205 L27.478,48.977 L29.501,48.977 L29.501,51 L22.633,51 Z M34.618,51.204 C33.7339956,51.204 32.9860031,51.0595014 32.374,50.7705 C31.7619969,50.4814986 31.2406688,50.1216688 30.81,49.691 L31.932,48.11 C32.2606683,48.4046681 32.6148314,48.6568323 32.9945,48.8665 C33.3741686,49.0761677 33.796331,49.181 34.261,49.181 C34.8163361,49.181 35.2583317,49.0393348 35.587,48.756 C35.9156683,48.4726652 36.08,48.0533361 36.08,47.498 C36.08,46.9539973 35.9241682,46.5403347 35.6125,46.257 C35.3008318,45.9736652 34.8900025,45.832 34.38,45.832 C34.2213325,45.832 34.0796673,45.8404999 33.955,45.8575 C33.8303327,45.8745001 33.7085006,45.9056664 33.5895,45.951 C33.4704994,45.9963336 33.345834,46.0529997 33.2155,46.121 C33.085166,46.1890003 32.9406675,46.2739995 32.782,46.376 L31.66,45.662 L31.966,40.205 L38.086,40.205 L38.086,42.313 L34.125,42.313 L33.938,44.336 C34.142001,44.2453329 34.3374991,44.1801669 34.5245,44.1405 C34.7115009,44.1008331 34.9183322,44.081 35.145,44.081 C35.609669,44.081 36.0488313,44.1489993 36.4625,44.285 C36.8761687,44.4210007 37.2416651,44.6249986 37.559,44.897 C37.8763349,45.1690014 38.1256658,45.5146646 38.307,45.934 C38.4883342,46.3533354 38.579,46.8519971 38.579,47.43 C38.579,48.0306697 38.4713344,48.563331 38.256,49.028 C38.0406656,49.492669 37.7516685,49.8864984 37.389,50.2095 C37.0263315,50.5325016 36.6041691,50.7789992 36.1225,50.949 C35.6408309,51.1190008 35.1393359,51.204 34.618,51.204 Z M40.5,51 L40.5,42.568 L42.54,42.568 L42.71,43.656 L42.778,43.656 C43.1293351,43.3046649 43.5033314,43.0015013 43.9,42.7465 C44.2966687,42.4914987 44.7726639,42.364 45.328,42.364 C45.9286697,42.364 46.4131648,42.4858321 46.7815,42.7295 C47.1498352,42.9731679 47.4416656,43.3216644 47.657,43.775 C48.0310019,43.3896647 48.4248313,43.0581681 48.8385,42.7805 C49.2521687,42.5028319 49.7423305,42.364 50.309,42.364 C51.2156712,42.364 51.8814979,42.6671636 52.3065,43.2735 C52.7315021,43.8798364 52.944,44.7099947 52.944,45.764 L52.944,51 L50.445,51 L50.445,46.087 C50.445,45.4749969 50.3628342,45.0556678 50.1985,44.829 C50.0341658,44.6023322 49.7706685,44.489 49.408,44.489 C48.9886646,44.489 48.5070027,44.7609973 47.963,45.305 L47.963,51 L45.464,51 L45.464,46.087 C45.464,45.4749969 45.3818342,45.0556678 45.2175,44.829 C45.0531658,44.6023322 44.7896685,44.489 44.427,44.489 C43.9963312,44.489 43.5203359,44.7609973 42.999,45.305 L42.999,51 L40.5,51 Z M55.069,51 L55.069,42.568 L57.109,42.568 L57.279,43.656 L57.347,43.656 C57.6983351,43.3046649 58.0723314,43.0015013 58.469,42.7465 C58.8656687,42.4914987 59.3416639,42.364 59.897,42.364 C60.4976697,42.364 60.9821648,42.4858321 61.3505,42.7295 C61.7188352,42.9731679 62.0106656,43.3216644 62.226,43.775 C62.6000019,43.3896647 62.9938313,43.0581681 63.4075,42.7805 C63.8211687,42.5028319 64.3113305,42.364 64.878,42.364 C65.7846712,42.364 66.4504979,42.6671636 66.8755,43.2735 C67.3005021,43.8798364 67.513,44.7099947 67.513,45.764 L67.513,51 L65.014,51 L65.014,46.087 C65.014,45.4749969 64.9318342,45.0556678 64.7675,44.829 C64.6031658,44.6023322 64.3396685,44.489 63.977,44.489 C63.5576646,44.489 63.0760027,44.7609973 62.532,45.305 L62.532,51 L60.033,51 L60.033,46.087 C60.033,45.4749969 59.9508342,45.0556678 59.7865,44.829 C59.6221658,44.6023322 59.3586685,44.489 58.996,44.489 C58.5653312,44.489 58.0893359,44.7609973 57.568,45.305 L57.568,51 L55.069,51 Z" id="215mm" fill="#093169" fill-rule="nonzero" transform="translate(40.245000, 45.602500) rotate(-270.000000) translate(-40.245000, -45.602500) "></path>
            <polyline id="Rectangle-Copy-3" stroke="#CBD8F2" transform="translate(8.000000, 45.500000) rotate(-270.000000) translate(-8.000000, -45.500000) " points="-36.85 53 -37 38 53 38 53 53"></polyline>
        </g>
        <polyline id="Rectangle-Copy-2" stroke="#CBD8F2" points="356.091667 87 356 72 411 72 411 87"></polyline>
        <path d="M356.657,52 L356.657,49.977 L359.003,49.977 L359.003,43.738 L356.98,43.738 L356.98,42.191 C357.569336,42.0776661 358.067998,41.9416675 358.476,41.783 C358.884002,41.6243325 359.280665,41.4316678 359.666,41.205 L361.502,41.205 L361.502,49.977 L363.525,49.977 L363.525,52 L356.657,52 Z M368.574,52.204 C367.689996,52.204 366.942003,52.0651681 366.33,51.7875 C365.717997,51.5098319 365.213669,51.138669 364.817,50.674 L365.973,49.093 C366.301668,49.4103349 366.661498,49.670999 367.0525,49.875 C367.443502,50.079001 367.871331,50.181 368.336,50.181 C368.868669,50.181 369.293665,50.0705011 369.611,49.8495 C369.928335,49.6284989 370.087,49.314002 370.087,48.906 C370.087,48.6679988 370.0445,48.4526676 369.9595,48.26 C369.8745,48.0673324 369.724334,47.905834 369.509,47.7755 C369.293666,47.645166 368.999002,47.543167 368.625,47.4695 C368.250998,47.395833 367.769336,47.359 367.18,47.359 L367.18,45.591 C367.667336,45.591 368.072498,45.5570003 368.3955,45.489 C368.718502,45.4209997 368.979166,45.321834 369.1775,45.1915 C369.375834,45.061166 369.5175,44.9081675 369.6025,44.7325 C369.6875,44.5568325 369.73,44.3613344 369.73,44.146 C369.73,43.7719981 369.616668,43.4801677 369.39,43.2705 C369.163332,43.0608323 368.834669,42.956 368.404,42.956 C368.018665,42.956 367.670168,43.0409991 367.3585,43.211 C367.046832,43.3810008 366.721002,43.6133319 366.381,43.908 L365.123,42.378 C365.621669,41.9473312 366.145831,41.6101679 366.6955,41.3665 C367.245169,41.1228321 367.85433,41.001 368.523,41.001 C369.078336,41.001 369.585498,41.066166 370.0445,41.1965 C370.503502,41.326834 370.894498,41.5194987 371.2175,41.7745 C371.540502,42.0295013 371.792666,42.3383315 371.974,42.701 C372.155334,43.0636685 372.246,43.4829976 372.246,43.959 C372.246,44.5256695 372.090168,45.004498 371.7785,45.3955 C371.466832,45.786502 371.022003,46.1066654 370.444,46.356 L370.444,46.424 C371.067336,46.6053342 371.580165,46.9141645 371.9825,47.3505 C372.384835,47.7868355 372.586,48.3563298 372.586,49.059 C372.586,49.5576692 372.478334,50.002498 372.263,50.3935 C372.047666,50.784502 371.758668,51.1131653 371.396,51.3795 C371.033332,51.6458347 370.608336,51.8498326 370.121,51.9915 C369.633664,52.1331674 369.118003,52.204 368.574,52.204 Z M377.907,52.204 C377.328997,52.204 376.802002,52.0821679 376.326,51.8385 C375.849998,51.5948321 375.444835,51.2350024 375.1105,50.759 C374.776165,50.2829976 374.515501,49.6936702 374.3285,48.991 C374.141499,48.2883298 374.048,47.4780046 374.048,46.56 C374.048,45.6419954 374.141499,44.8373368 374.3285,44.146 C374.515501,43.4546632 374.776165,42.8738357 375.1105,42.4035 C375.444835,41.9331643 375.849998,41.5818345 376.326,41.3495 C376.802002,41.1171655 377.328997,41.001 377.907,41.001 C378.485003,41.001 379.011998,41.1171655 379.488,41.3495 C379.964002,41.5818345 380.369165,41.9331643 380.7035,42.4035 C381.037835,42.8738357 381.298499,43.4546632 381.4855,44.146 C381.672501,44.8373368 381.766,45.6419954 381.766,46.56 C381.766,47.4780046 381.672501,48.2883298 381.4855,48.991 C381.298499,49.6936702 381.037835,50.2829976 380.7035,50.759 C380.369165,51.2350024 379.964002,51.5948321 379.488,51.8385 C379.011998,52.0821679 378.485003,52.204 377.907,52.204 Z M377.907,50.266 C378.122334,50.266 378.320666,50.2121672 378.502,50.1045 C378.683334,49.9968328 378.841999,49.8013347 378.978,49.518 C379.114001,49.2346652 379.218833,48.8550024 379.2925,48.379 C379.366167,47.9029976 379.403,47.2966703 379.403,46.56 C379.403,45.8233296 379.366167,45.2198357 379.2925,44.7495 C379.218833,44.2791643 379.114001,43.9108347 378.978,43.6445 C378.841999,43.3781653 378.683334,43.1940005 378.502,43.092 C378.320666,42.9899995 378.122334,42.939 377.907,42.939 C377.702999,42.939 377.510334,42.9899995 377.329,43.092 C377.147666,43.1940005 376.989001,43.3781653 376.853,43.6445 C376.716999,43.9108347 376.609334,44.2791643 376.53,44.7495 C376.450666,45.2198357 376.411,45.8233296 376.411,46.56 C376.411,47.2966703 376.450666,47.9029976 376.53,48.379 C376.609334,48.8550024 376.716999,49.2346652 376.853,49.518 C376.989001,49.8013347 377.147666,49.9968328 377.329,50.1045 C377.510334,50.2121672 377.702999,50.266 377.907,50.266 Z M383.5,52 L383.5,43.568 L385.54,43.568 L385.71,44.656 L385.778,44.656 C386.129335,44.3046649 386.503331,44.0015013 386.9,43.7465 C387.296669,43.4914987 387.772664,43.364 388.328,43.364 C388.92867,43.364 389.413165,43.4858321 389.7815,43.7295 C390.149835,43.9731679 390.441666,44.3216644 390.657,44.775 C391.031002,44.3896647 391.424831,44.0581681 391.8385,43.7805 C392.252169,43.5028319 392.74233,43.364 393.309,43.364 C394.215671,43.364 394.881498,43.6671636 395.3065,44.2735 C395.731502,44.8798364 395.944,45.7099947 395.944,46.764 L395.944,52 L393.445,52 L393.445,47.087 C393.445,46.4749969 393.362834,46.0556678 393.1985,45.829 C393.034166,45.6023322 392.770668,45.489 392.408,45.489 C391.988665,45.489 391.507003,45.7609973 390.963,46.305 L390.963,52 L388.464,52 L388.464,47.087 C388.464,46.4749969 388.381834,46.0556678 388.2175,45.829 C388.053166,45.6023322 387.789668,45.489 387.427,45.489 C386.996331,45.489 386.520336,45.7609973 385.999,46.305 L385.999,52 L383.5,52 Z M398.069,52 L398.069,43.568 L400.109,43.568 L400.279,44.656 L400.347,44.656 C400.698335,44.3046649 401.072331,44.0015013 401.469,43.7465 C401.865669,43.4914987 402.341664,43.364 402.897,43.364 C403.49767,43.364 403.982165,43.4858321 404.3505,43.7295 C404.718835,43.9731679 405.010666,44.3216644 405.226,44.775 C405.600002,44.3896647 405.993831,44.0581681 406.4075,43.7805 C406.821169,43.5028319 407.31133,43.364 407.878,43.364 C408.784671,43.364 409.450498,43.6671636 409.8755,44.2735 C410.300502,44.8798364 410.513,45.7099947 410.513,46.764 L410.513,52 L408.014,52 L408.014,47.087 C408.014,46.4749969 407.931834,46.0556678 407.7675,45.829 C407.603166,45.6023322 407.339668,45.489 406.977,45.489 C406.557665,45.489 406.076003,45.7609973 405.532,46.305 L405.532,52 L403.033,52 L403.033,47.087 C403.033,46.4749969 402.950834,46.0556678 402.7865,45.829 C402.622166,45.6023322 402.358668,45.489 401.996,45.489 C401.565331,45.489 401.089336,45.7609973 400.568,46.305 L400.568,52 L398.069,52 Z" id="130mm" fill="#093169" fill-rule="nonzero"></path>
        <path d="M439.596,152.5 L439.596,151.072 L440.397041,150.317199 C440.78328,149.95 441.148098,149.598102 441.4915,149.2615 C442.063836,148.700497 442.556831,148.173502 442.9705,147.6805 C443.384169,147.187498 443.707166,146.728502 443.9395,146.3035 C444.171834,145.878498 444.288,145.473335 444.288,145.088 C444.288,144.555331 444.152001,144.150168 443.88,143.8725 C443.607999,143.594832 443.234002,143.456 442.758,143.456 C442.361331,143.456 442.010002,143.566499 441.704,143.7875 C441.397998,144.008501 441.109001,144.266332 440.837,144.561 L439.477,143.218 C440.009669,142.651331 440.553664,142.223501 441.109,141.9345 C441.664336,141.645499 442.327329,141.501 443.098,141.501 C443.630669,141.501 444.115164,141.583166 444.5515,141.7475 C444.987836,141.911834 445.364665,142.144165 445.682,142.4445 C445.999335,142.744835 446.242999,143.104665 446.413,143.524 C446.583001,143.943335 446.668,144.413664 446.668,144.935 C446.668,145.388336 446.571668,145.850164 446.379,146.3205 C446.186332,146.790836 445.928502,147.261164 445.6055,147.7315 C445.282498,148.201836 444.914169,148.672164 444.5005,149.1425 C444.086831,149.612836 443.659002,150.074664 443.217,150.528 L443.648375,150.479125 C443.799958,150.463542 443.959332,150.448667 444.1265,150.4345 C444.460835,150.406167 444.758332,150.392 445.019,150.392 L447.195,150.392 L447.195,152.5 L439.596,152.5 Z M449.133,152.5 L449.133,150.477 L451.479,150.477 L451.479,144.238 L449.456,144.238 L449.456,142.691 C450.045336,142.577666 450.543998,142.441667 450.952,142.283 C451.360002,142.124333 451.756665,141.931668 452.142,141.705 L453.978,141.705 L453.978,150.477 L456.001,150.477 L456.001,152.5 L449.133,152.5 Z M461.118,152.704 C460.233996,152.704 459.486003,152.559501 458.874,152.2705 C458.261997,151.981499 457.740669,151.621669 457.31,151.191 L458.432,149.61 C458.760668,149.904668 459.114831,150.156832 459.4945,150.3665 C459.874169,150.576168 460.296331,150.681 460.761,150.681 C461.316336,150.681 461.758332,150.539335 462.087,150.256 C462.415668,149.972665 462.58,149.553336 462.58,148.998 C462.58,148.453997 462.424168,148.040335 462.1125,147.757 C461.800832,147.473665 461.390003,147.332 460.88,147.332 C460.721333,147.332 460.579667,147.3405 460.455,147.3575 C460.330333,147.3745 460.208501,147.405666 460.0895,147.451 C459.970499,147.496334 459.845834,147.553 459.7155,147.621 C459.585166,147.689 459.440667,147.773999 459.282,147.876 L458.16,147.162 L458.466,141.705 L464.586,141.705 L464.586,143.813 L460.625,143.813 L460.438,145.836 C460.642001,145.745333 460.837499,145.680167 461.0245,145.6405 C461.211501,145.600833 461.418332,145.581 461.645,145.581 C462.109669,145.581 462.548831,145.648999 462.9625,145.785 C463.376169,145.921001 463.741665,146.124999 464.059,146.397 C464.376335,146.669001 464.625666,147.014665 464.807,147.434 C464.988334,147.853335 465.079,148.351997 465.079,148.93 C465.079,149.53067 464.971334,150.063331 464.756,150.528 C464.540666,150.992669 464.251668,151.386498 463.889,151.7095 C463.526332,152.032502 463.104169,152.278999 462.6225,152.449 C462.140831,152.619001 461.639336,152.704 461.118,152.704 Z M467,152.5 L467,144.068 L469.04,144.068 L469.21,145.156 L469.278,145.156 C469.629335,144.804665 470.003331,144.501501 470.4,144.2465 C470.796669,143.991499 471.272664,143.864 471.828,143.864 C472.42867,143.864 472.913165,143.985832 473.2815,144.2295 C473.649835,144.473168 473.941666,144.821664 474.157,145.275 C474.531002,144.889665 474.924831,144.558168 475.3385,144.2805 C475.752169,144.002832 476.24233,143.864 476.809,143.864 C477.715671,143.864 478.381498,144.167164 478.8065,144.7735 C479.231502,145.379836 479.444,146.209995 479.444,147.264 L479.444,152.5 L476.945,152.5 L476.945,147.587 C476.945,146.974997 476.862834,146.555668 476.6985,146.329 C476.534166,146.102332 476.270668,145.989 475.908,145.989 C475.488665,145.989 475.007003,146.260997 474.463,146.805 L474.463,152.5 L471.964,152.5 L471.964,147.587 C471.964,146.974997 471.881834,146.555668 471.7175,146.329 C471.553166,146.102332 471.289668,145.989 470.927,145.989 C470.496331,145.989 470.020336,146.260997 469.499,146.805 L469.499,152.5 L467,152.5 Z M481.569,152.5 L481.569,144.068 L483.609,144.068 L483.779,145.156 L483.847,145.156 C484.198335,144.804665 484.572331,144.501501 484.969,144.2465 C485.365669,143.991499 485.841664,143.864 486.397,143.864 C486.99767,143.864 487.482165,143.985832 487.8505,144.2295 C488.218835,144.473168 488.510666,144.821664 488.726,145.275 C489.100002,144.889665 489.493831,144.558168 489.9075,144.2805 C490.321169,144.002832 490.81133,143.864 491.378,143.864 C492.284671,143.864 492.950498,144.167164 493.3755,144.7735 C493.800502,145.379836 494.013,146.209995 494.013,147.264 L494.013,152.5 L491.514,152.5 L491.514,147.587 C491.514,146.974997 491.431834,146.555668 491.2675,146.329 C491.103166,146.102332 490.839668,145.989 490.477,145.989 C490.057665,145.989 489.576003,146.260997 489.032,146.805 L489.032,152.5 L486.533,152.5 L486.533,147.587 C486.533,146.974997 486.450834,146.555668 486.2865,146.329 C486.122166,146.102332 485.858668,145.989 485.496,145.989 C485.065331,145.989 484.589336,146.260997 484.068,146.805 L484.068,152.5 L481.569,152.5 Z" id="215mm" fill="#093169" fill-rule="nonzero" transform="translate(466.745000, 147.102500) rotate(-270.000000) translate(-466.745000, -147.102500) "></path>
        <polyline id="Rectangle-Copy-4" stroke="#CBD8F2" transform="translate(434.500000, 147.000000) rotate(-270.000000) translate(-434.500000, -147.000000) " points="389.65 154.5 389.5 139.5 479.5 139.5 479.5 154.5"></polyline>
        <g id="Group-2" transform="translate(356.000000, 102.000000)" fill="#FFFFFF" stroke="#CBD8F2">
            <polygon id="Path" points="0.9 0 0.9 25.14 44.88 25.14 44.88 90 55.02 90 55.02 0"></polygon>
        </g>
    </g>
</svg>