<?xml version="1.0" encoding="UTF-8"?>
<svg width="600px" height="259px" viewBox="0 0 600 259" version="1.1" xmlns="http://www.w3.org/2000/svg" xmlns:xlink="http://www.w3.org/1999/xlink">
    <!-- Generator: Sketch 58 (84663) - https://sketch.com -->
    <title>keystones/KS5-C</title>
    <desc>Created with Sketch.</desc>
    <g id="keystones/KS5-C" stroke="none" stroke-width="1" fill="none" fill-rule="evenodd">
        <rect fill="#F5F9FF" x="0" y="0" width="600" height="259"></rect>
        <g id="Group-2" transform="translate(356.000000, 102.000000)" fill="#FFFFFF" stroke="#CBD8F2">
            <polygon id="Path" points="4.26325641e-14 121.44 54.42 121.44 54.42 -1.98951966e-13 4.26325641e-14 -1.98951966e-13"></polygon>
            <polygon id="Stroke-9" stroke-linejoin="bevel" points="54.42 121.44 61.92 113.88 61.92 7.56 54.42 2.55795385e-13"></polygon>
        </g>
        <polyline id="Rectangle-Copy-2" stroke="#CBD8F2" points="356.091667 87 356 72 411 72 411 87"></polyline>
        <path d="M356.657,52 L356.657,49.977 L359.003,49.977 L359.003,43.738 L356.98,43.738 L356.98,42.191 C357.569336,42.0776661 358.067998,41.9416675 358.476,41.783 C358.884002,41.6243325 359.280665,41.4316678 359.666,41.205 L361.502,41.205 L361.502,49.977 L363.525,49.977 L363.525,52 L356.657,52 Z M368.574,52.204 C367.689996,52.204 366.942003,52.0651681 366.33,51.7875 C365.717997,51.5098319 365.213669,51.138669 364.817,50.674 L365.973,49.093 C366.301668,49.4103349 366.661498,49.670999 367.0525,49.875 C367.443502,50.079001 367.871331,50.181 368.336,50.181 C368.868669,50.181 369.293665,50.0705011 369.611,49.8495 C369.928335,49.6284989 370.087,49.314002 370.087,48.906 C370.087,48.6679988 370.0445,48.4526676 369.9595,48.26 C369.8745,48.0673324 369.724334,47.905834 369.509,47.7755 C369.293666,47.645166 368.999002,47.543167 368.625,47.4695 C368.250998,47.395833 367.769336,47.359 367.18,47.359 L367.18,45.591 C367.667336,45.591 368.072498,45.5570003 368.3955,45.489 C368.718502,45.4209997 368.979166,45.321834 369.1775,45.1915 C369.375834,45.061166 369.5175,44.9081675 369.6025,44.7325 C369.6875,44.5568325 369.73,44.3613344 369.73,44.146 C369.73,43.7719981 369.616668,43.4801677 369.39,43.2705 C369.163332,43.0608323 368.834669,42.956 368.404,42.956 C368.018665,42.956 367.670168,43.0409991 367.3585,43.211 C367.046832,43.3810008 366.721002,43.6133319 366.381,43.908 L365.123,42.378 C365.621669,41.9473312 366.145831,41.6101679 366.6955,41.3665 C367.245169,41.1228321 367.85433,41.001 368.523,41.001 C369.078336,41.001 369.585498,41.066166 370.0445,41.1965 C370.503502,41.326834 370.894498,41.5194987 371.2175,41.7745 C371.540502,42.0295013 371.792666,42.3383315 371.974,42.701 C372.155334,43.0636685 372.246,43.4829976 372.246,43.959 C372.246,44.5256695 372.090168,45.004498 371.7785,45.3955 C371.466832,45.786502 371.022003,46.1066654 370.444,46.356 L370.444,46.424 C371.067336,46.6053342 371.580165,46.9141645 371.9825,47.3505 C372.384835,47.7868355 372.586,48.3563298 372.586,49.059 C372.586,49.5576692 372.478334,50.002498 372.263,50.3935 C372.047666,50.784502 371.758668,51.1131653 371.396,51.3795 C371.033332,51.6458347 370.608336,51.8498326 370.121,51.9915 C369.633664,52.1331674 369.118003,52.204 368.574,52.204 Z M377.907,52.204 C377.328997,52.204 376.802002,52.0821679 376.326,51.8385 C375.849998,51.5948321 375.444835,51.2350024 375.1105,50.759 C374.776165,50.2829976 374.515501,49.6936702 374.3285,48.991 C374.141499,48.2883298 374.048,47.4780046 374.048,46.56 C374.048,45.6419954 374.141499,44.8373368 374.3285,44.146 C374.515501,43.4546632 374.776165,42.8738357 375.1105,42.4035 C375.444835,41.9331643 375.849998,41.5818345 376.326,41.3495 C376.802002,41.1171655 377.328997,41.001 377.907,41.001 C378.485003,41.001 379.011998,41.1171655 379.488,41.3495 C379.964002,41.5818345 380.369165,41.9331643 380.7035,42.4035 C381.037835,42.8738357 381.298499,43.4546632 381.4855,44.146 C381.672501,44.8373368 381.766,45.6419954 381.766,46.56 C381.766,47.4780046 381.672501,48.2883298 381.4855,48.991 C381.298499,49.6936702 381.037835,50.2829976 380.7035,50.759 C380.369165,51.2350024 379.964002,51.5948321 379.488,51.8385 C379.011998,52.0821679 378.485003,52.204 377.907,52.204 Z M377.907,50.266 C378.122334,50.266 378.320666,50.2121672 378.502,50.1045 C378.683334,49.9968328 378.841999,49.8013347 378.978,49.518 C379.114001,49.2346652 379.218833,48.8550024 379.2925,48.379 C379.366167,47.9029976 379.403,47.2966703 379.403,46.56 C379.403,45.8233296 379.366167,45.2198357 379.2925,44.7495 C379.218833,44.2791643 379.114001,43.9108347 378.978,43.6445 C378.841999,43.3781653 378.683334,43.1940005 378.502,43.092 C378.320666,42.9899995 378.122334,42.939 377.907,42.939 C377.702999,42.939 377.510334,42.9899995 377.329,43.092 C377.147666,43.1940005 376.989001,43.3781653 376.853,43.6445 C376.716999,43.9108347 376.609334,44.2791643 376.53,44.7495 C376.450666,45.2198357 376.411,45.8233296 376.411,46.56 C376.411,47.2966703 376.450666,47.9029976 376.53,48.379 C376.609334,48.8550024 376.716999,49.2346652 376.853,49.518 C376.989001,49.8013347 377.147666,49.9968328 377.329,50.1045 C377.510334,50.2121672 377.702999,50.266 377.907,50.266 Z M383.5,52 L383.5,43.568 L385.54,43.568 L385.71,44.656 L385.778,44.656 C386.129335,44.3046649 386.503331,44.0015013 386.9,43.7465 C387.296669,43.4914987 387.772664,43.364 388.328,43.364 C388.92867,43.364 389.413165,43.4858321 389.7815,43.7295 C390.149835,43.9731679 390.441666,44.3216644 390.657,44.775 C391.031002,44.3896647 391.424831,44.0581681 391.8385,43.7805 C392.252169,43.5028319 392.74233,43.364 393.309,43.364 C394.215671,43.364 394.881498,43.6671636 395.3065,44.2735 C395.731502,44.8798364 395.944,45.7099947 395.944,46.764 L395.944,52 L393.445,52 L393.445,47.087 C393.445,46.4749969 393.362834,46.0556678 393.1985,45.829 C393.034166,45.6023322 392.770668,45.489 392.408,45.489 C391.988665,45.489 391.507003,45.7609973 390.963,46.305 L390.963,52 L388.464,52 L388.464,47.087 C388.464,46.4749969 388.381834,46.0556678 388.2175,45.829 C388.053166,45.6023322 387.789668,45.489 387.427,45.489 C386.996331,45.489 386.520336,45.7609973 385.999,46.305 L385.999,52 L383.5,52 Z M398.069,52 L398.069,43.568 L400.109,43.568 L400.279,44.656 L400.347,44.656 C400.698335,44.3046649 401.072331,44.0015013 401.469,43.7465 C401.865669,43.4914987 402.341664,43.364 402.897,43.364 C403.49767,43.364 403.982165,43.4858321 404.3505,43.7295 C404.718835,43.9731679 405.010666,44.3216644 405.226,44.775 C405.600002,44.3896647 405.993831,44.0581681 406.4075,43.7805 C406.821169,43.5028319 407.31133,43.364 407.878,43.364 C408.784671,43.364 409.450498,43.6671636 409.8755,44.2735 C410.300502,44.8798364 410.513,45.7099947 410.513,46.764 L410.513,52 L408.014,52 L408.014,47.087 C408.014,46.4749969 407.931834,46.0556678 407.7675,45.829 C407.603166,45.6023322 407.339668,45.489 406.977,45.489 C406.557665,45.489 406.076003,45.7609973 405.532,46.305 L405.532,52 L403.033,52 L403.033,47.087 C403.033,46.4749969 402.950834,46.0556678 402.7865,45.829 C402.622166,45.6023322 402.358668,45.489 401.996,45.489 C401.565331,45.489 401.089336,45.7609973 400.568,46.305 L400.568,52 L398.069,52 Z" id="130mm" fill="#093169" fill-rule="nonzero"></path>
        <g id="Group" transform="translate(123.000000, 102.000000)" stroke="#CBD8F2">
            <polygon id="Path" fill="#FFFFFF" points="-3.55271368e-14 -1.98951966e-13 31.38 121.44 94.14 121.44 125.58 -1.98951966e-13"></polygon>
            <path d="M125.58005,1.98951966e-13 L116.04005,7.56" id="Stroke-3"></path>
            <path d="M8.8817842e-15,1.98951966e-13 L9.48,7.56" id="Stroke-4"></path>
            <path d="M88.2,113.88 L94.14,121.44" id="Stroke-5"></path>
            <path d="M37.38,113.88 L31.38,121.44" id="Stroke-6"></path>
            <polyline id="Stroke-8" points="9.48 7.56 116.04 7.56 88.2 113.88 37.38 113.88 9.48 7.56"></polyline>
        </g>
        <polyline id="Rectangle-Copy" stroke="#CBD8F2" points="123.208333 87 123 72 248 72 248 87"></polyline>
        <path d="M161.598,52.204 C160.713996,52.204 159.966003,52.0651681 159.354,51.7875 C158.741997,51.5098319 158.237669,51.138669 157.841,50.674 L158.997,49.093 C159.325668,49.4103349 159.685498,49.670999 160.0765,49.875 C160.467502,50.079001 160.895331,50.181 161.36,50.181 C161.892669,50.181 162.317665,50.0705011 162.635,49.8495 C162.952335,49.6284989 163.111,49.314002 163.111,48.906 C163.111,48.6679988 163.0685,48.4526676 162.9835,48.26 C162.8985,48.0673324 162.748334,47.905834 162.533,47.7755 C162.317666,47.645166 162.023002,47.543167 161.649,47.4695 C161.274998,47.395833 160.793336,47.359 160.204,47.359 L160.204,45.591 C160.691336,45.591 161.096498,45.5570003 161.4195,45.489 C161.742502,45.4209997 162.003166,45.321834 162.2015,45.1915 C162.399834,45.061166 162.5415,44.9081675 162.6265,44.7325 C162.7115,44.5568325 162.754,44.3613344 162.754,44.146 C162.754,43.7719981 162.640668,43.4801677 162.414,43.2705 C162.187332,43.0608323 161.858669,42.956 161.428,42.956 C161.042665,42.956 160.694168,43.0409991 160.3825,43.211 C160.070832,43.3810008 159.745002,43.6133319 159.405,43.908 L158.147,42.378 C158.645669,41.9473312 159.169831,41.6101679 159.7195,41.3665 C160.269169,41.1228321 160.87833,41.001 161.547,41.001 C162.102336,41.001 162.609498,41.066166 163.0685,41.1965 C163.527502,41.326834 163.918498,41.5194987 164.2415,41.7745 C164.564502,42.0295013 164.816666,42.3383315 164.998,42.701 C165.179334,43.0636685 165.27,43.4829976 165.27,43.959 C165.27,44.5256695 165.114168,45.004498 164.8025,45.3955 C164.490832,45.786502 164.046003,46.1066654 163.468,46.356 L163.468,46.424 C164.091336,46.6053342 164.604165,46.9141645 165.0065,47.3505 C165.408835,47.7868355 165.61,48.3563298 165.61,49.059 C165.61,49.5576692 165.502334,50.002498 165.287,50.3935 C165.071666,50.784502 164.782668,51.1131653 164.42,51.3795 C164.057332,51.6458347 163.632336,51.8498326 163.145,51.9915 C162.657664,52.1331674 162.142003,52.204 161.598,52.204 Z M170.931,52.204 C170.352997,52.204 169.826002,52.0821679 169.35,51.8385 C168.873998,51.5948321 168.468835,51.2350024 168.1345,50.759 C167.800165,50.2829976 167.539501,49.6936702 167.3525,48.991 C167.165499,48.2883298 167.072,47.4780046 167.072,46.56 C167.072,45.6419954 167.165499,44.8373368 167.3525,44.146 C167.539501,43.4546632 167.800165,42.8738357 168.1345,42.4035 C168.468835,41.9331643 168.873998,41.5818345 169.35,41.3495 C169.826002,41.1171655 170.352997,41.001 170.931,41.001 C171.509003,41.001 172.035998,41.1171655 172.512,41.3495 C172.988002,41.5818345 173.393165,41.9331643 173.7275,42.4035 C174.061835,42.8738357 174.322499,43.4546632 174.5095,44.146 C174.696501,44.8373368 174.79,45.6419954 174.79,46.56 C174.79,47.4780046 174.696501,48.2883298 174.5095,48.991 C174.322499,49.6936702 174.061835,50.2829976 173.7275,50.759 C173.393165,51.2350024 172.988002,51.5948321 172.512,51.8385 C172.035998,52.0821679 171.509003,52.204 170.931,52.204 Z M170.931,50.266 C171.146334,50.266 171.344666,50.2121672 171.526,50.1045 C171.707334,49.9968328 171.865999,49.8013347 172.002,49.518 C172.138001,49.2346652 172.242833,48.8550024 172.3165,48.379 C172.390167,47.9029976 172.427,47.2966703 172.427,46.56 C172.427,45.8233296 172.390167,45.2198357 172.3165,44.7495 C172.242833,44.2791643 172.138001,43.9108347 172.002,43.6445 C171.865999,43.3781653 171.707334,43.1940005 171.526,43.092 C171.344666,42.9899995 171.146334,42.939 170.931,42.939 C170.726999,42.939 170.534334,42.9899995 170.353,43.092 C170.171666,43.1940005 170.013001,43.3781653 169.877,43.6445 C169.740999,43.9108347 169.633334,44.2791643 169.554,44.7495 C169.474666,45.2198357 169.435,45.8233296 169.435,46.56 C169.435,47.2966703 169.474666,47.9029976 169.554,48.379 C169.633334,48.8550024 169.740999,49.2346652 169.877,49.518 C170.013001,49.8013347 170.171666,49.9968328 170.353,50.1045 C170.534334,50.2121672 170.726999,50.266 170.931,50.266 Z M179.907,52.204 C179.328997,52.204 178.802002,52.0821679 178.326,51.8385 C177.849998,51.5948321 177.444835,51.2350024 177.1105,50.759 C176.776165,50.2829976 176.515501,49.6936702 176.3285,48.991 C176.141499,48.2883298 176.048,47.4780046 176.048,46.56 C176.048,45.6419954 176.141499,44.8373368 176.3285,44.146 C176.515501,43.4546632 176.776165,42.8738357 177.1105,42.4035 C177.444835,41.9331643 177.849998,41.5818345 178.326,41.3495 C178.802002,41.1171655 179.328997,41.001 179.907,41.001 C180.485003,41.001 181.011998,41.1171655 181.488,41.3495 C181.964002,41.5818345 182.369165,41.9331643 182.7035,42.4035 C183.037835,42.8738357 183.298499,43.4546632 183.4855,44.146 C183.672501,44.8373368 183.766,45.6419954 183.766,46.56 C183.766,47.4780046 183.672501,48.2883298 183.4855,48.991 C183.298499,49.6936702 183.037835,50.2829976 182.7035,50.759 C182.369165,51.2350024 181.964002,51.5948321 181.488,51.8385 C181.011998,52.0821679 180.485003,52.204 179.907,52.204 Z M179.907,50.266 C180.122334,50.266 180.320666,50.2121672 180.502,50.1045 C180.683334,49.9968328 180.841999,49.8013347 180.978,49.518 C181.114001,49.2346652 181.218833,48.8550024 181.2925,48.379 C181.366167,47.9029976 181.403,47.2966703 181.403,46.56 C181.403,45.8233296 181.366167,45.2198357 181.2925,44.7495 C181.218833,44.2791643 181.114001,43.9108347 180.978,43.6445 C180.841999,43.3781653 180.683334,43.1940005 180.502,43.092 C180.320666,42.9899995 180.122334,42.939 179.907,42.939 C179.702999,42.939 179.510334,42.9899995 179.329,43.092 C179.147666,43.1940005 178.989001,43.3781653 178.853,43.6445 C178.716999,43.9108347 178.609334,44.2791643 178.53,44.7495 C178.450666,45.2198357 178.411,45.8233296 178.411,46.56 C178.411,47.2966703 178.450666,47.9029976 178.53,48.379 C178.609334,48.8550024 178.716999,49.2346652 178.853,49.518 C178.989001,49.8013347 179.147666,49.9968328 179.329,50.1045 C179.510334,50.2121672 179.702999,50.266 179.907,50.266 Z M185.5,52 L185.5,43.568 L187.54,43.568 L187.71,44.656 L187.778,44.656 C188.129335,44.3046649 188.503331,44.0015013 188.9,43.7465 C189.296669,43.4914987 189.772664,43.364 190.328,43.364 C190.92867,43.364 191.413165,43.4858321 191.7815,43.7295 C192.149835,43.9731679 192.441666,44.3216644 192.657,44.775 C193.031002,44.3896647 193.424831,44.0581681 193.8385,43.7805 C194.252169,43.5028319 194.742331,43.364 195.309,43.364 C196.215671,43.364 196.881498,43.6671636 197.3065,44.2735 C197.731502,44.8798364 197.944,45.7099947 197.944,46.764 L197.944,52 L195.445,52 L195.445,47.087 C195.445,46.4749969 195.362834,46.0556678 195.1985,45.829 C195.034166,45.6023322 194.770668,45.489 194.408,45.489 C193.988665,45.489 193.507003,45.7609973 192.963,46.305 L192.963,52 L190.464,52 L190.464,47.087 C190.464,46.4749969 190.381834,46.0556678 190.2175,45.829 C190.053166,45.6023322 189.789668,45.489 189.427,45.489 C188.996331,45.489 188.520336,45.7609973 187.999,46.305 L187.999,52 L185.5,52 Z M200.069,52 L200.069,43.568 L202.109,43.568 L202.279,44.656 L202.347,44.656 C202.698335,44.3046649 203.072331,44.0015013 203.469,43.7465 C203.865669,43.4914987 204.341664,43.364 204.897,43.364 C205.49767,43.364 205.982165,43.4858321 206.3505,43.7295 C206.718835,43.9731679 207.010666,44.3216644 207.226,44.775 C207.600002,44.3896647 207.993831,44.0581681 208.4075,43.7805 C208.821169,43.5028319 209.31133,43.364 209.878,43.364 C210.784671,43.364 211.450498,43.6671636 211.8755,44.2735 C212.300502,44.8798364 212.513,45.7099947 212.513,46.764 L212.513,52 L210.014,52 L210.014,47.087 C210.014,46.4749969 209.931834,46.0556678 209.7675,45.829 C209.603166,45.6023322 209.339668,45.489 208.977,45.489 C208.557665,45.489 208.076003,45.7609973 207.532,46.305 L207.532,52 L205.033,52 L205.033,47.087 C205.033,46.4749969 204.950834,46.0556678 204.7865,45.829 C204.622166,45.6023322 204.358668,45.489 203.996,45.489 C203.565331,45.489 203.089336,45.7609973 202.568,46.305 L202.568,52 L200.069,52 Z" id="300mm" fill="#093169" fill-rule="nonzero"></path>
        <g id="Group-3" transform="translate(264.000000, 102.000000)">
            <path d="M13.096,67 L13.096,65.572 L13.8970407,64.8171994 C14.2832799,64.4500002 14.6480983,64.0981017 14.9915,63.7615 C15.5638362,63.2004972 16.0568313,62.6735025 16.4705,62.1805 C16.8841687,61.6874975 17.2071655,61.2285021 17.4395,60.8035 C17.6718345,60.3784979 17.788,59.9733353 17.788,59.588 C17.788,59.0553307 17.6520014,58.6501681 17.38,58.3725 C17.1079986,58.0948319 16.7340024,57.956 16.258,57.956 C15.8613313,57.956 15.5100015,58.0664989 15.204,58.2875 C14.8979985,58.5085011 14.6090014,58.7663319 14.337,59.061 L12.977,57.718 C13.5096693,57.1513305 14.0536639,56.7235014 14.609,56.4345 C15.1643361,56.1454986 15.8273295,56.001 16.598,56.001 C17.1306693,56.001 17.6151645,56.0831658 18.0515,56.2475 C18.4878355,56.4118342 18.8646651,56.6441652 19.182,56.9445 C19.4993349,57.2448348 19.7429991,57.6046646 19.913,58.024 C20.0830008,58.4433354 20.168,58.9136641 20.168,59.435 C20.168,59.8883356 20.0716676,60.3501643 19.879,60.8205 C19.6863324,61.2908357 19.4285016,61.7611643 19.1055,62.2315 C18.7824984,62.7018357 18.4141687,63.1721643 18.0005,63.6425 C17.5868313,64.1128357 17.1590022,64.5746644 16.717,65.028 L17.1483749,64.979125 C17.2999578,64.9635417 17.4593325,64.9486667 17.6265,64.9345 C17.960835,64.9061665 18.258332,64.892 18.519,64.892 L20.695,64.892 L20.695,67 L13.096,67 Z M25.727,61.186 C26.0103348,61.186 26.2964986,61.1038342 26.5855,60.9395 C26.8745014,60.7751658 27.1266656,60.5003353 27.342,60.115 C27.2286661,59.2649957 27.0161682,58.6785016 26.7045,58.3555 C26.3928318,58.0324984 26.0443353,57.871 25.659,57.871 C25.2963315,57.871 24.9790014,58.0098319 24.707,58.2875 C24.4349986,58.5651681 24.299,59.0099969 24.299,59.622 C24.299,60.2000029 24.4349986,60.6051655 24.707,60.8375 C24.9790014,61.0698345 25.318998,61.186 25.727,61.186 Z M25.336,67.204 C24.6219964,67.204 24.0015026,67.073668 23.4745,66.813 C22.9474974,66.552332 22.5140017,66.2520017 22.174,65.912 L23.5,64.416 C23.6813342,64.620001 23.9249985,64.7984992 24.231,64.9515 C24.5370015,65.1045008 24.8486651,65.181 25.166,65.181 C25.4720015,65.181 25.755332,65.1243339 26.016,65.011 C26.276668,64.8976661 26.5061657,64.7078347 26.7045,64.4415 C26.9028343,64.1751653 27.0614994,63.8295021 27.1805,63.4045 C27.2995006,62.9794979 27.3703332,62.4496698 27.393,61.815 C27.2569993,61.9963342 27.0983342,62.1578326 26.917,62.2995 C26.7356658,62.4411674 26.5486676,62.5601662 26.356,62.6565 C26.1633324,62.7528338 25.9706676,62.8264997 25.778,62.8775 C25.5853324,62.9285003 25.4040009,62.954 25.234,62.954 C24.769331,62.954 24.341502,62.8860007 23.9505,62.75 C23.559498,62.6139993 23.2223348,62.4100014 22.939,62.138 C22.6556652,61.8659986 22.4318342,61.5203354 22.2675,61.101 C22.1031658,60.6816646 22.021,60.1886695 22.021,59.622 C22.021,59.0666639 22.1173324,58.5651689 22.31,58.1175 C22.5026676,57.6698311 22.7604984,57.2873349 23.0835,56.97 C23.4065016,56.6526651 23.7861645,56.4118342 24.2225,56.2475 C24.6588355,56.0831658 25.1206642,56.001 25.608,56.001 C26.1293359,56.001 26.6364975,56.102999 27.1295,56.307 C27.6225025,56.511001 28.0588314,56.8283312 28.4385,57.259 C28.8181686,57.6896688 29.1241655,58.2421633 29.3565,58.9165 C29.5888345,59.5908367 29.705,60.4039952 29.705,61.356 C29.705,62.3646717 29.5831679,63.2373296 29.3395,63.974 C29.0958321,64.7106704 28.7728353,65.3169976 28.3705,65.793 C27.9681647,66.2690024 27.5035026,66.6231655 26.9765,66.8555 C26.4494974,67.0878345 25.9026695,67.204 25.336,67.204 Z M34.907,67.204 C34.3289971,67.204 33.8020024,67.0821679 33.326,66.8385 C32.8499976,66.5948321 32.444835,66.2350024 32.1105,65.759 C31.776165,65.2829976 31.5155009,64.6936702 31.3285,63.991 C31.1414991,63.2883298 31.048,62.4780046 31.048,61.56 C31.048,60.6419954 31.1414991,59.8373368 31.3285,59.146 C31.5155009,58.4546632 31.776165,57.8738357 32.1105,57.4035 C32.444835,56.9331643 32.8499976,56.5818345 33.326,56.3495 C33.8020024,56.1171655 34.3289971,56.001 34.907,56.001 C35.4850029,56.001 36.0119976,56.1171655 36.488,56.3495 C36.9640024,56.5818345 37.369165,56.9331643 37.7035,57.4035 C38.037835,57.8738357 38.2984991,58.4546632 38.4855,59.146 C38.6725009,59.8373368 38.766,60.6419954 38.766,61.56 C38.766,62.4780046 38.6725009,63.2883298 38.4855,63.991 C38.2984991,64.6936702 38.037835,65.2829976 37.7035,65.759 C37.369165,66.2350024 36.9640024,66.5948321 36.488,66.8385 C36.0119976,67.0821679 35.4850029,67.204 34.907,67.204 Z M34.907,65.266 C35.1223344,65.266 35.3206658,65.2121672 35.502,65.1045 C35.6833342,64.9968328 35.8419993,64.8013347 35.978,64.518 C36.1140007,64.2346653 36.218833,63.8550024 36.2925,63.379 C36.366167,62.9029976 36.403,62.2966703 36.403,61.56 C36.403,60.8233296 36.366167,60.2198357 36.2925,59.7495 C36.218833,59.2791643 36.1140007,58.9108347 35.978,58.6445 C35.8419993,58.3781653 35.6833342,58.1940005 35.502,58.092 C35.3206658,57.9899995 35.1223344,57.939 34.907,57.939 C34.702999,57.939 34.5103342,57.9899995 34.329,58.092 C34.1476658,58.1940005 33.9890007,58.3781653 33.853,58.6445 C33.7169993,58.9108347 33.6093337,59.2791643 33.53,59.7495 C33.4506663,60.2198357 33.411,60.8233296 33.411,61.56 C33.411,62.2966703 33.4506663,62.9029976 33.53,63.379 C33.6093337,63.8550024 33.7169993,64.2346653 33.853,64.518 C33.9890007,64.8013347 34.1476658,64.9968328 34.329,65.1045 C34.5103342,65.2121672 34.702999,65.266 34.907,65.266 Z M40.5,67 L40.5,58.568 L42.54,58.568 L42.71,59.656 L42.778,59.656 C43.1293351,59.3046649 43.5033314,59.0015013 43.9,58.7465 C44.2966687,58.4914987 44.7726639,58.364 45.328,58.364 C45.9286697,58.364 46.4131648,58.4858321 46.7815,58.7295 C47.1498352,58.9731679 47.4416656,59.3216644 47.657,59.775 C48.0310019,59.3896647 48.4248313,59.0581681 48.8385,58.7805 C49.2521687,58.5028319 49.7423305,58.364 50.309,58.364 C51.2156712,58.364 51.8814979,58.6671636 52.3065,59.2735 C52.7315021,59.8798364 52.944,60.7099947 52.944,61.764 L52.944,67 L50.445,67 L50.445,62.087 C50.445,61.4749969 50.3628342,61.0556678 50.1985,60.829 C50.0341658,60.6023322 49.7706685,60.489 49.408,60.489 C48.9886646,60.489 48.5070027,60.7609973 47.963,61.305 L47.963,67 L45.464,67 L45.464,62.087 C45.464,61.4749969 45.3818342,61.0556678 45.2175,60.829 C45.0531658,60.6023322 44.7896685,60.489 44.427,60.489 C43.9963312,60.489 43.5203359,60.7609973 42.999,61.305 L42.999,67 L40.5,67 Z M55.069,67 L55.069,58.568 L57.109,58.568 L57.279,59.656 L57.347,59.656 C57.6983351,59.3046649 58.0723314,59.0015013 58.469,58.7465 C58.8656687,58.4914987 59.3416639,58.364 59.897,58.364 C60.4976697,58.364 60.9821648,58.4858321 61.3505,58.7295 C61.7188352,58.9731679 62.0106656,59.3216644 62.226,59.775 C62.6000019,59.3896647 62.9938313,59.0581681 63.4075,58.7805 C63.8211687,58.5028319 64.3113305,58.364 64.878,58.364 C65.7846712,58.364 66.4504979,58.6671636 66.8755,59.2735 C67.3005021,59.8798364 67.513,60.7099947 67.513,61.764 L67.513,67 L65.014,67 L65.014,62.087 C65.014,61.4749969 64.9318342,61.0556678 64.7675,60.829 C64.6031658,60.6023322 64.3396685,60.489 63.977,60.489 C63.5576646,60.489 63.0760027,60.7609973 62.532,61.305 L62.532,67 L60.033,67 L60.033,62.087 C60.033,61.4749969 59.9508342,61.0556678 59.7865,60.829 C59.6221658,60.6023322 59.3586685,60.489 58.996,60.489 C58.5653312,60.489 58.0893359,60.7609973 57.568,61.305 L57.568,67 L55.069,67 Z" id="290mm" fill="#093169" fill-rule="nonzero" transform="translate(40.245000, 61.602500) rotate(-270.000000) translate(-40.245000, -61.602500) "></path>
            <polyline id="Rectangle-Copy-3" stroke="#CBD8F2" transform="translate(7.500000, 60.500000) rotate(-270.000000) translate(-7.500000, -60.500000) " points="-52.7983333 68 -53 53 68 53 68 68"></polyline>
        </g>
        <g id="Group-3-Copy" transform="translate(433.000000, 102.000000)">
            <path d="M13.096,67 L13.096,65.572 L13.8970407,64.8171994 C14.2832799,64.4500002 14.6480983,64.0981017 14.9915,63.7615 C15.5638362,63.2004972 16.0568313,62.6735025 16.4705,62.1805 C16.8841687,61.6874975 17.2071655,61.2285021 17.4395,60.8035 C17.6718345,60.3784979 17.788,59.9733353 17.788,59.588 C17.788,59.0553307 17.6520014,58.6501681 17.38,58.3725 C17.1079986,58.0948319 16.7340024,57.956 16.258,57.956 C15.8613313,57.956 15.5100015,58.0664989 15.204,58.2875 C14.8979985,58.5085011 14.6090014,58.7663319 14.337,59.061 L12.977,57.718 C13.5096693,57.1513305 14.0536639,56.7235014 14.609,56.4345 C15.1643361,56.1454986 15.8273295,56.001 16.598,56.001 C17.1306693,56.001 17.6151645,56.0831658 18.0515,56.2475 C18.4878355,56.4118342 18.8646651,56.6441652 19.182,56.9445 C19.4993349,57.2448348 19.7429991,57.6046646 19.913,58.024 C20.0830008,58.4433354 20.168,58.9136641 20.168,59.435 C20.168,59.8883356 20.0716676,60.3501643 19.879,60.8205 C19.6863324,61.2908357 19.4285016,61.7611643 19.1055,62.2315 C18.7824984,62.7018357 18.4141687,63.1721643 18.0005,63.6425 C17.5868313,64.1128357 17.1590022,64.5746644 16.717,65.028 L17.1483749,64.979125 C17.2999578,64.9635417 17.4593325,64.9486667 17.6265,64.9345 C17.960835,64.9061665 18.258332,64.892 18.519,64.892 L20.695,64.892 L20.695,67 L13.096,67 Z M25.727,61.186 C26.0103348,61.186 26.2964986,61.1038342 26.5855,60.9395 C26.8745014,60.7751658 27.1266656,60.5003353 27.342,60.115 C27.2286661,59.2649957 27.0161682,58.6785016 26.7045,58.3555 C26.3928318,58.0324984 26.0443353,57.871 25.659,57.871 C25.2963315,57.871 24.9790014,58.0098319 24.707,58.2875 C24.4349986,58.5651681 24.299,59.0099969 24.299,59.622 C24.299,60.2000029 24.4349986,60.6051655 24.707,60.8375 C24.9790014,61.0698345 25.318998,61.186 25.727,61.186 Z M25.336,67.204 C24.6219964,67.204 24.0015026,67.073668 23.4745,66.813 C22.9474974,66.552332 22.5140017,66.2520017 22.174,65.912 L23.5,64.416 C23.6813342,64.620001 23.9249985,64.7984992 24.231,64.9515 C24.5370015,65.1045008 24.8486651,65.181 25.166,65.181 C25.4720015,65.181 25.755332,65.1243339 26.016,65.011 C26.276668,64.8976661 26.5061657,64.7078347 26.7045,64.4415 C26.9028343,64.1751653 27.0614994,63.8295021 27.1805,63.4045 C27.2995006,62.9794979 27.3703332,62.4496698 27.393,61.815 C27.2569993,61.9963342 27.0983342,62.1578326 26.917,62.2995 C26.7356658,62.4411674 26.5486676,62.5601662 26.356,62.6565 C26.1633324,62.7528338 25.9706676,62.8264997 25.778,62.8775 C25.5853324,62.9285003 25.4040009,62.954 25.234,62.954 C24.769331,62.954 24.341502,62.8860007 23.9505,62.75 C23.559498,62.6139993 23.2223348,62.4100014 22.939,62.138 C22.6556652,61.8659986 22.4318342,61.5203354 22.2675,61.101 C22.1031658,60.6816646 22.021,60.1886695 22.021,59.622 C22.021,59.0666639 22.1173324,58.5651689 22.31,58.1175 C22.5026676,57.6698311 22.7604984,57.2873349 23.0835,56.97 C23.4065016,56.6526651 23.7861645,56.4118342 24.2225,56.2475 C24.6588355,56.0831658 25.1206642,56.001 25.608,56.001 C26.1293359,56.001 26.6364975,56.102999 27.1295,56.307 C27.6225025,56.511001 28.0588314,56.8283312 28.4385,57.259 C28.8181686,57.6896688 29.1241655,58.2421633 29.3565,58.9165 C29.5888345,59.5908367 29.705,60.4039952 29.705,61.356 C29.705,62.3646717 29.5831679,63.2373296 29.3395,63.974 C29.0958321,64.7106704 28.7728353,65.3169976 28.3705,65.793 C27.9681647,66.2690024 27.5035026,66.6231655 26.9765,66.8555 C26.4494974,67.0878345 25.9026695,67.204 25.336,67.204 Z M34.907,67.204 C34.3289971,67.204 33.8020024,67.0821679 33.326,66.8385 C32.8499976,66.5948321 32.444835,66.2350024 32.1105,65.759 C31.776165,65.2829976 31.5155009,64.6936702 31.3285,63.991 C31.1414991,63.2883298 31.048,62.4780046 31.048,61.56 C31.048,60.6419954 31.1414991,59.8373368 31.3285,59.146 C31.5155009,58.4546632 31.776165,57.8738357 32.1105,57.4035 C32.444835,56.9331643 32.8499976,56.5818345 33.326,56.3495 C33.8020024,56.1171655 34.3289971,56.001 34.907,56.001 C35.4850029,56.001 36.0119976,56.1171655 36.488,56.3495 C36.9640024,56.5818345 37.369165,56.9331643 37.7035,57.4035 C38.037835,57.8738357 38.2984991,58.4546632 38.4855,59.146 C38.6725009,59.8373368 38.766,60.6419954 38.766,61.56 C38.766,62.4780046 38.6725009,63.2883298 38.4855,63.991 C38.2984991,64.6936702 38.037835,65.2829976 37.7035,65.759 C37.369165,66.2350024 36.9640024,66.5948321 36.488,66.8385 C36.0119976,67.0821679 35.4850029,67.204 34.907,67.204 Z M34.907,65.266 C35.1223344,65.266 35.3206658,65.2121672 35.502,65.1045 C35.6833342,64.9968328 35.8419993,64.8013347 35.978,64.518 C36.1140007,64.2346653 36.218833,63.8550024 36.2925,63.379 C36.366167,62.9029976 36.403,62.2966703 36.403,61.56 C36.403,60.8233296 36.366167,60.2198357 36.2925,59.7495 C36.218833,59.2791643 36.1140007,58.9108347 35.978,58.6445 C35.8419993,58.3781653 35.6833342,58.1940005 35.502,58.092 C35.3206658,57.9899995 35.1223344,57.939 34.907,57.939 C34.702999,57.939 34.5103342,57.9899995 34.329,58.092 C34.1476658,58.1940005 33.9890007,58.3781653 33.853,58.6445 C33.7169993,58.9108347 33.6093337,59.2791643 33.53,59.7495 C33.4506663,60.2198357 33.411,60.8233296 33.411,61.56 C33.411,62.2966703 33.4506663,62.9029976 33.53,63.379 C33.6093337,63.8550024 33.7169993,64.2346653 33.853,64.518 C33.9890007,64.8013347 34.1476658,64.9968328 34.329,65.1045 C34.5103342,65.2121672 34.702999,65.266 34.907,65.266 Z M40.5,67 L40.5,58.568 L42.54,58.568 L42.71,59.656 L42.778,59.656 C43.1293351,59.3046649 43.5033314,59.0015013 43.9,58.7465 C44.2966687,58.4914987 44.7726639,58.364 45.328,58.364 C45.9286697,58.364 46.4131648,58.4858321 46.7815,58.7295 C47.1498352,58.9731679 47.4416656,59.3216644 47.657,59.775 C48.0310019,59.3896647 48.4248313,59.0581681 48.8385,58.7805 C49.2521687,58.5028319 49.7423305,58.364 50.309,58.364 C51.2156712,58.364 51.8814979,58.6671636 52.3065,59.2735 C52.7315021,59.8798364 52.944,60.7099947 52.944,61.764 L52.944,67 L50.445,67 L50.445,62.087 C50.445,61.4749969 50.3628342,61.0556678 50.1985,60.829 C50.0341658,60.6023322 49.7706685,60.489 49.408,60.489 C48.9886646,60.489 48.5070027,60.7609973 47.963,61.305 L47.963,67 L45.464,67 L45.464,62.087 C45.464,61.4749969 45.3818342,61.0556678 45.2175,60.829 C45.0531658,60.6023322 44.7896685,60.489 44.427,60.489 C43.9963312,60.489 43.5203359,60.7609973 42.999,61.305 L42.999,67 L40.5,67 Z M55.069,67 L55.069,58.568 L57.109,58.568 L57.279,59.656 L57.347,59.656 C57.6983351,59.3046649 58.0723314,59.0015013 58.469,58.7465 C58.8656687,58.4914987 59.3416639,58.364 59.897,58.364 C60.4976697,58.364 60.9821648,58.4858321 61.3505,58.7295 C61.7188352,58.9731679 62.0106656,59.3216644 62.226,59.775 C62.6000019,59.3896647 62.9938313,59.0581681 63.4075,58.7805 C63.8211687,58.5028319 64.3113305,58.364 64.878,58.364 C65.7846712,58.364 66.4504979,58.6671636 66.8755,59.2735 C67.3005021,59.8798364 67.513,60.7099947 67.513,61.764 L67.513,67 L65.014,67 L65.014,62.087 C65.014,61.4749969 64.9318342,61.0556678 64.7675,60.829 C64.6031658,60.6023322 64.3396685,60.489 63.977,60.489 C63.5576646,60.489 63.0760027,60.7609973 62.532,61.305 L62.532,67 L60.033,67 L60.033,62.087 C60.033,61.4749969 59.9508342,61.0556678 59.7865,60.829 C59.6221658,60.6023322 59.3586685,60.489 58.996,60.489 C58.5653312,60.489 58.0893359,60.7609973 57.568,61.305 L57.568,67 L55.069,67 Z" id="290mm" fill="#093169" fill-rule="nonzero" transform="translate(40.245000, 61.602500) rotate(-270.000000) translate(-40.245000, -61.602500) "></path>
            <polyline id="Rectangle-Copy-3" stroke="#CBD8F2" transform="translate(7.500000, 60.500000) rotate(-270.000000) translate(-7.500000, -60.500000) " points="-52.7983333 68 -53 53 68 53 68 68"></polyline>
        </g>
    </g>
</svg>