<?xml version="1.0" encoding="UTF-8"?>
<svg width="600px" height="321px" viewBox="0 0 600 321" version="1.1" xmlns="http://www.w3.org/2000/svg" xmlns:xlink="http://www.w3.org/1999/xlink">
    <!-- Generator: Sketch 58 (84663) - https://sketch.com -->
    <title>stringsPlinths/A600</title>
    <desc>Created with Sketch.</desc>
    <g id="stringsPlinths/A600" stroke="none" stroke-width="1" fill="none" fill-rule="evenodd">
        <rect fill="#F5F9FF" x="0" y="0" width="600" height="321"></rect>
        <path d="M249.145031,193.971341 L249.145031,219 L333,219 L333,102 L249.145031,102 L199,127.028659 L199,143.794268 C202.752695,143.794268 205.49321,143.775972 207.221546,143.739381 C210.102686,160.435133 223.859579,173.116121 240.760534,174.655962 L240.760534,193.971341 L249.145031,193.971341 Z" id="Path" stroke="#CBD8F2" fill="#FFFFFF"></path>
        <polyline id="Rectangle-Copy" stroke="#CBD8F2" points="199.223333 87 199 72 333 72 333 87"></polyline>
        <polyline id="Rectangle-Copy-3" stroke="#CBD8F2" transform="translate(291.000000, 241.500000) rotate(-180.000000) translate(-291.000000, -241.500000) " points="249.14 249 249 234 333 234 333 249"></polyline>
        <polyline id="Rectangle-Copy-2" stroke="#CBD8F2" transform="translate(355.500000, 160.500000) rotate(-270.000000) translate(-355.500000, -160.500000) " points="297.195 168 297 153 414 153 414 168"></polyline>
        <path d="M239.657,52 L239.657,49.977 L242.003,49.977 L242.003,43.738 L239.98,43.738 L239.98,42.191 C240.569336,42.0776661 241.067998,41.9416675 241.476,41.783 C241.884002,41.6243325 242.280665,41.4316678 242.666,41.205 L244.502,41.205 L244.502,49.977 L246.525,49.977 L246.525,52 L239.657,52 Z M252.22,52.204 C251.698664,52.204 251.191502,52.102001 250.6985,51.898 C250.205498,51.693999 249.769169,51.3766688 249.3895,50.946 C249.009831,50.5153312 248.706668,49.9628367 248.48,49.2885 C248.253332,48.6141633 248.14,47.8010048 248.14,46.849 C248.14,45.8403283 248.261832,44.9676703 248.5055,44.231 C248.749168,43.4943296 249.072165,42.8880024 249.4745,42.412 C249.876835,41.9359976 250.341497,41.5818345 250.8685,41.3495 C251.395503,41.1171655 251.94233,41.001 252.509,41.001 C253.223004,41.001 253.840664,41.1284987 254.362,41.3835 C254.883336,41.6385013 255.313998,41.9416649 255.654,42.293 L254.345,43.789 C254.152332,43.584999 253.903002,43.4065008 253.597,43.2535 C253.290998,43.1004992 252.979335,43.024 252.662,43.024 C252.367332,43.024 252.089668,43.0806661 251.829,43.194 C251.568332,43.3073339 251.338834,43.4971653 251.1405,43.7635 C250.942166,44.0298347 250.780667,44.3783312 250.656,44.809 C250.531333,45.2396688 250.457667,45.7666636 250.435,46.39 C250.571001,46.2086658 250.729666,46.0471674 250.911,45.9055 C251.092334,45.7638326 251.279332,45.6448338 251.472,45.5485 C251.664668,45.4521662 251.857332,45.3785003 252.05,45.3275 C252.242668,45.2764997 252.423999,45.251 252.594,45.251 C253.058669,45.251 253.486498,45.3189993 253.8775,45.455 C254.268502,45.5910007 254.608499,45.7949986 254.8975,46.067 C255.186501,46.3390014 255.410333,46.6846646 255.569,47.104 C255.727667,47.5233354 255.807,48.0163305 255.807,48.583 C255.807,49.1496695 255.710668,49.6539978 255.518,50.096 C255.325332,50.5380022 255.067502,50.9176651 254.7445,51.235 C254.421498,51.5523349 254.041836,51.7931658 253.6055,51.9575 C253.169164,52.1218342 252.707336,52.204 252.22,52.204 Z M252.169,50.334 C252.543002,50.334 252.863165,50.1951681 253.1295,49.9175 C253.395835,49.6398319 253.529,49.1950031 253.529,48.583 C253.529,48.0049971 253.395835,47.5998345 253.1295,47.3675 C252.863165,47.1351655 252.526002,47.019 252.118,47.019 C251.834665,47.019 251.548501,47.1011658 251.2595,47.2655 C250.970499,47.4298342 250.712668,47.7046647 250.486,48.09 C250.542667,48.5206688 250.627666,48.8776652 250.741,49.161 C250.854334,49.4443347 250.984666,49.6738325 251.132,49.8495 C251.279334,50.0251675 251.440832,50.149833 251.6165,50.2235 C251.792168,50.297167 251.976332,50.334 252.169,50.334 Z M257.048,52 L257.048,50.572 L257.849041,49.8171994 C258.23528,49.4500002 258.600098,49.0981017 258.9435,48.7615 C259.515836,48.2004972 260.008831,47.6735025 260.4225,47.1805 C260.836169,46.6874975 261.159166,46.2285021 261.3915,45.8035 C261.623834,45.3784979 261.74,44.9733353 261.74,44.588 C261.74,44.0553307 261.604001,43.6501681 261.332,43.3725 C261.059999,43.0948319 260.686002,42.956 260.21,42.956 C259.813331,42.956 259.462002,43.0664989 259.156,43.2875 C258.849998,43.5085011 258.561001,43.7663319 258.289,44.061 L256.929,42.718 C257.461669,42.1513305 258.005664,41.7235014 258.561,41.4345 C259.116336,41.1454986 259.779329,41.001 260.55,41.001 C261.082669,41.001 261.567164,41.0831658 262.0035,41.2475 C262.439836,41.4118342 262.816665,41.6441652 263.134,41.9445 C263.451335,42.2448348 263.694999,42.6046646 263.865,43.024 C264.035001,43.4433354 264.12,43.9136641 264.12,44.435 C264.12,44.8883356 264.023668,45.3501643 263.831,45.8205 C263.638332,46.2908357 263.380502,46.7611643 263.0575,47.2315 C262.734498,47.7018357 262.366169,48.1721643 261.9525,48.6425 C261.538831,49.1128357 261.111002,49.5746644 260.669,50.028 L261.100375,49.979125 C261.251958,49.9635417 261.411332,49.9486667 261.5785,49.9345 C261.912835,49.9061665 262.210332,49.892 262.471,49.892 L264.647,49.892 L264.647,52 L257.048,52 Z M266.5,52 L266.5,43.568 L268.54,43.568 L268.71,44.656 L268.778,44.656 C269.129335,44.3046649 269.503331,44.0015013 269.9,43.7465 C270.296669,43.4914987 270.772664,43.364 271.328,43.364 C271.92867,43.364 272.413165,43.4858321 272.7815,43.7295 C273.149835,43.9731679 273.441666,44.3216644 273.657,44.775 C274.031002,44.3896647 274.424831,44.0581681 274.8385,43.7805 C275.252169,43.5028319 275.74233,43.364 276.309,43.364 C277.215671,43.364 277.881498,43.6671636 278.3065,44.2735 C278.731502,44.8798364 278.944,45.7099947 278.944,46.764 L278.944,52 L276.445,52 L276.445,47.087 C276.445,46.4749969 276.362834,46.0556678 276.1985,45.829 C276.034166,45.6023322 275.770668,45.489 275.408,45.489 C274.988665,45.489 274.507003,45.7609973 273.963,46.305 L273.963,52 L271.464,52 L271.464,47.087 C271.464,46.4749969 271.381834,46.0556678 271.2175,45.829 C271.053166,45.6023322 270.789668,45.489 270.427,45.489 C269.996331,45.489 269.520336,45.7609973 268.999,46.305 L268.999,52 L266.5,52 Z M281.069,52 L281.069,43.568 L283.109,43.568 L283.279,44.656 L283.347,44.656 C283.698335,44.3046649 284.072331,44.0015013 284.469,43.7465 C284.865669,43.4914987 285.341664,43.364 285.897,43.364 C286.49767,43.364 286.982165,43.4858321 287.3505,43.7295 C287.718835,43.9731679 288.010666,44.3216644 288.226,44.775 C288.600002,44.3896647 288.993831,44.0581681 289.4075,43.7805 C289.821169,43.5028319 290.31133,43.364 290.878,43.364 C291.784671,43.364 292.450498,43.6671636 292.8755,44.2735 C293.300502,44.8798364 293.513,45.7099947 293.513,46.764 L293.513,52 L291.014,52 L291.014,47.087 C291.014,46.4749969 290.931834,46.0556678 290.7675,45.829 C290.603166,45.6023322 290.339668,45.489 289.977,45.489 C289.557665,45.489 289.076003,45.7609973 288.532,46.305 L288.532,52 L286.033,52 L286.033,47.087 C286.033,46.4749969 285.950834,46.0556678 285.7865,45.829 C285.622166,45.6023322 285.358668,45.489 284.996,45.489 C284.565331,45.489 284.089336,45.7609973 283.568,46.305 L283.568,52 L281.069,52 Z" id="162mm" fill="#093169" fill-rule="nonzero"></path>
        <path d="M264.657,281 L264.657,278.977 L267.003,278.977 L267.003,272.738 L264.98,272.738 L264.98,271.191 C265.569336,271.077666 266.067998,270.941667 266.476,270.783 C266.884002,270.624333 267.280665,270.431668 267.666,270.205 L269.502,270.205 L269.502,278.977 L271.525,278.977 L271.525,281 L264.657,281 Z M276.931,281.204 C276.352997,281.204 275.826002,281.082168 275.35,280.8385 C274.873998,280.594832 274.468835,280.235002 274.1345,279.759 C273.800165,279.282998 273.539501,278.69367 273.3525,277.991 C273.165499,277.28833 273.072,276.478005 273.072,275.56 C273.072,274.641995 273.165499,273.837337 273.3525,273.146 C273.539501,272.454663 273.800165,271.873836 274.1345,271.4035 C274.468835,270.933164 274.873998,270.581834 275.35,270.3495 C275.826002,270.117166 276.352997,270.001 276.931,270.001 C277.509003,270.001 278.035998,270.117166 278.512,270.3495 C278.988002,270.581834 279.393165,270.933164 279.7275,271.4035 C280.061835,271.873836 280.322499,272.454663 280.5095,273.146 C280.696501,273.837337 280.79,274.641995 280.79,275.56 C280.79,276.478005 280.696501,277.28833 280.5095,277.991 C280.322499,278.69367 280.061835,279.282998 279.7275,279.759 C279.393165,280.235002 278.988002,280.594832 278.512,280.8385 C278.035998,281.082168 277.509003,281.204 276.931,281.204 Z M276.931,279.266 C277.146334,279.266 277.344666,279.212167 277.526,279.1045 C277.707334,278.996833 277.865999,278.801335 278.002,278.518 C278.138001,278.234665 278.242833,277.855002 278.3165,277.379 C278.390167,276.902998 278.427,276.29667 278.427,275.56 C278.427,274.82333 278.390167,274.219836 278.3165,273.7495 C278.242833,273.279164 278.138001,272.910835 278.002,272.6445 C277.865999,272.378165 277.707334,272.194001 277.526,272.092 C277.344666,271.989999 277.146334,271.939 276.931,271.939 C276.726999,271.939 276.534334,271.989999 276.353,272.092 C276.171666,272.194001 276.013001,272.378165 275.877,272.6445 C275.740999,272.910835 275.633334,273.279164 275.554,273.7495 C275.474666,274.219836 275.435,274.82333 275.435,275.56 C275.435,276.29667 275.474666,276.902998 275.554,277.379 C275.633334,277.855002 275.740999,278.234665 275.877,278.518 C276.013001,278.801335 276.171666,278.996833 276.353,279.1045 C276.534334,279.212167 276.726999,279.266 276.931,279.266 Z M282.048,281 L282.048,279.572 L282.849041,278.817199 C283.23528,278.45 283.600098,278.098102 283.9435,277.7615 C284.515836,277.200497 285.008831,276.673502 285.4225,276.1805 C285.836169,275.687498 286.159166,275.228502 286.3915,274.8035 C286.623834,274.378498 286.74,273.973335 286.74,273.588 C286.74,273.055331 286.604001,272.650168 286.332,272.3725 C286.059999,272.094832 285.686002,271.956 285.21,271.956 C284.813331,271.956 284.462002,272.066499 284.156,272.2875 C283.849998,272.508501 283.561001,272.766332 283.289,273.061 L281.929,271.718 C282.461669,271.15133 283.005664,270.723501 283.561,270.4345 C284.116336,270.145499 284.779329,270.001 285.55,270.001 C286.082669,270.001 286.567164,270.083166 287.0035,270.2475 C287.439836,270.411834 287.816665,270.644165 288.134,270.9445 C288.451335,271.244835 288.694999,271.604665 288.865,272.024 C289.035001,272.443335 289.12,272.913664 289.12,273.435 C289.12,273.888336 289.023668,274.350164 288.831,274.8205 C288.638332,275.290836 288.380502,275.761164 288.0575,276.2315 C287.734498,276.701836 287.366169,277.172164 286.9525,277.6425 C286.538831,278.112836 286.111002,278.574664 285.669,279.028 L286.100375,278.979125 C286.251958,278.963542 286.411332,278.948667 286.5785,278.9345 C286.912835,278.906167 287.210332,278.892 287.471,278.892 L289.647,278.892 L289.647,281 L282.048,281 Z M291.5,281 L291.5,272.568 L293.54,272.568 L293.71,273.656 L293.778,273.656 C294.129335,273.304665 294.503331,273.001501 294.9,272.7465 C295.296669,272.491499 295.772664,272.364 296.328,272.364 C296.92867,272.364 297.413165,272.485832 297.7815,272.7295 C298.149835,272.973168 298.441666,273.321664 298.657,273.775 C299.031002,273.389665 299.424831,273.058168 299.8385,272.7805 C300.252169,272.502832 300.74233,272.364 301.309,272.364 C302.215671,272.364 302.881498,272.667164 303.3065,273.2735 C303.731502,273.879836 303.944,274.709995 303.944,275.764 L303.944,281 L301.445,281 L301.445,276.087 C301.445,275.474997 301.362834,275.055668 301.1985,274.829 C301.034166,274.602332 300.770668,274.489 300.408,274.489 C299.988665,274.489 299.507003,274.760997 298.963,275.305 L298.963,281 L296.464,281 L296.464,276.087 C296.464,275.474997 296.381834,275.055668 296.2175,274.829 C296.053166,274.602332 295.789668,274.489 295.427,274.489 C294.996331,274.489 294.520336,274.760997 293.999,275.305 L293.999,281 L291.5,281 Z M306.069,281 L306.069,272.568 L308.109,272.568 L308.279,273.656 L308.347,273.656 C308.698335,273.304665 309.072331,273.001501 309.469,272.7465 C309.865669,272.491499 310.341664,272.364 310.897,272.364 C311.49767,272.364 311.982165,272.485832 312.3505,272.7295 C312.718835,272.973168 313.010666,273.321664 313.226,273.775 C313.600002,273.389665 313.993831,273.058168 314.4075,272.7805 C314.821169,272.502832 315.31133,272.364 315.878,272.364 C316.784671,272.364 317.450498,272.667164 317.8755,273.2735 C318.300502,273.879836 318.513,274.709995 318.513,275.764 L318.513,281 L316.014,281 L316.014,276.087 C316.014,275.474997 315.931834,275.055668 315.7675,274.829 C315.603166,274.602332 315.339668,274.489 314.977,274.489 C314.557665,274.489 314.076003,274.760997 313.532,275.305 L313.532,281 L311.033,281 L311.033,276.087 C311.033,275.474997 310.950834,275.055668 310.7865,274.829 C310.622166,274.602332 310.358668,274.489 309.996,274.489 C309.565331,274.489 309.089336,274.760997 308.568,275.305 L308.568,281 L306.069,281 Z" id="102mm" fill="#093169" fill-rule="nonzero" transform="translate(291.585000, 275.602500) rotate(-360.000000) translate(-291.585000, -275.602500) "></path>
        <path d="M362.657,167 L362.657,164.977 L365.003,164.977 L365.003,158.738 L362.98,158.738 L362.98,157.191 C363.569336,157.077666 364.067998,156.941667 364.476,156.783 C364.884002,156.624333 365.280665,156.431668 365.666,156.205 L367.502,156.205 L367.502,164.977 L369.525,164.977 L369.525,167 L362.657,167 Z M375.441,167 L375.441,164.416 L370.766,164.416 L370.766,162.699 L374.71,156.205 L377.77,156.205 L377.77,162.512 L379.011,162.512 L379.011,164.416 L377.77,164.416 L377.77,167 L375.441,167 Z M373.163,162.512 L375.441,162.512 L375.441,160.761 C375.441,160.479932 375.448253,160.164414 375.46276,159.814441 L375.5158,158.78356 C375.524867,158.62852 375.533933,158.483001 375.543,158.347 L375.475,158.347 L375.05,159.248 L375.05,159.248 C374.902666,159.554002 374.749667,159.859998 374.591,160.166 L373.163,162.512 Z M383.907,167.204 C383.328997,167.204 382.802002,167.082168 382.326,166.8385 C381.849998,166.594832 381.444835,166.235002 381.1105,165.759 C380.776165,165.282998 380.515501,164.69367 380.3285,163.991 C380.141499,163.28833 380.048,162.478005 380.048,161.56 C380.048,160.641995 380.141499,159.837337 380.3285,159.146 C380.515501,158.454663 380.776165,157.873836 381.1105,157.4035 C381.444835,156.933164 381.849998,156.581834 382.326,156.3495 C382.802002,156.117166 383.328997,156.001 383.907,156.001 C384.485003,156.001 385.011998,156.117166 385.488,156.3495 C385.964002,156.581834 386.369165,156.933164 386.7035,157.4035 C387.037835,157.873836 387.298499,158.454663 387.4855,159.146 C387.672501,159.837337 387.766,160.641995 387.766,161.56 C387.766,162.478005 387.672501,163.28833 387.4855,163.991 C387.298499,164.69367 387.037835,165.282998 386.7035,165.759 C386.369165,166.235002 385.964002,166.594832 385.488,166.8385 C385.011998,167.082168 384.485003,167.204 383.907,167.204 Z M383.907,165.266 C384.122334,165.266 384.320666,165.212167 384.502,165.1045 C384.683334,164.996833 384.841999,164.801335 384.978,164.518 C385.114001,164.234665 385.218833,163.855002 385.2925,163.379 C385.366167,162.902998 385.403,162.29667 385.403,161.56 C385.403,160.82333 385.366167,160.219836 385.2925,159.7495 C385.218833,159.279164 385.114001,158.910835 384.978,158.6445 C384.841999,158.378165 384.683334,158.194001 384.502,158.092 C384.320666,157.989999 384.122334,157.939 383.907,157.939 C383.702999,157.939 383.510334,157.989999 383.329,158.092 C383.147666,158.194001 382.989001,158.378165 382.853,158.6445 C382.716999,158.910835 382.609334,159.279164 382.53,159.7495 C382.450666,160.219836 382.411,160.82333 382.411,161.56 C382.411,162.29667 382.450666,162.902998 382.53,163.379 C382.609334,163.855002 382.716999,164.234665 382.853,164.518 C382.989001,164.801335 383.147666,164.996833 383.329,165.1045 C383.510334,165.212167 383.702999,165.266 383.907,165.266 Z M389.5,167 L389.5,158.568 L391.54,158.568 L391.71,159.656 L391.778,159.656 C392.129335,159.304665 392.503331,159.001501 392.9,158.7465 C393.296669,158.491499 393.772664,158.364 394.328,158.364 C394.92867,158.364 395.413165,158.485832 395.7815,158.7295 C396.149835,158.973168 396.441666,159.321664 396.657,159.775 C397.031002,159.389665 397.424831,159.058168 397.8385,158.7805 C398.252169,158.502832 398.74233,158.364 399.309,158.364 C400.215671,158.364 400.881498,158.667164 401.3065,159.2735 C401.731502,159.879836 401.944,160.709995 401.944,161.764 L401.944,167 L399.445,167 L399.445,162.087 C399.445,161.474997 399.362834,161.055668 399.1985,160.829 C399.034166,160.602332 398.770668,160.489 398.408,160.489 C397.988665,160.489 397.507003,160.760997 396.963,161.305 L396.963,167 L394.464,167 L394.464,162.087 C394.464,161.474997 394.381834,161.055668 394.2175,160.829 C394.053166,160.602332 393.789668,160.489 393.427,160.489 C392.996331,160.489 392.520336,160.760997 391.999,161.305 L391.999,167 L389.5,167 Z M404.069,167 L404.069,158.568 L406.109,158.568 L406.279,159.656 L406.347,159.656 C406.698335,159.304665 407.072331,159.001501 407.469,158.7465 C407.865669,158.491499 408.341664,158.364 408.897,158.364 C409.49767,158.364 409.982165,158.485832 410.3505,158.7295 C410.718835,158.973168 411.010666,159.321664 411.226,159.775 C411.600002,159.389665 411.993831,159.058168 412.4075,158.7805 C412.821169,158.502832 413.31133,158.364 413.878,158.364 C414.784671,158.364 415.450498,158.667164 415.8755,159.2735 C416.300502,159.879836 416.513,160.709995 416.513,161.764 L416.513,167 L414.014,167 L414.014,162.087 C414.014,161.474997 413.931834,161.055668 413.7675,160.829 C413.603166,160.602332 413.339668,160.489 412.977,160.489 C412.557665,160.489 412.076003,160.760997 411.532,161.305 L411.532,167 L409.033,167 L409.033,162.087 C409.033,161.474997 408.950834,161.055668 408.7865,160.829 C408.622166,160.602332 408.358668,160.489 407.996,160.489 C407.565331,160.489 407.089336,160.760997 406.568,161.305 L406.568,167 L404.069,167 Z" id="140mm" fill="#093169" fill-rule="nonzero" transform="translate(389.585000, 161.602500) rotate(-270.000000) translate(-389.585000, -161.602500) "></path>
    </g>
</svg>