<?xml version="1.0" encoding="UTF-8"?>
<svg width="600px" height="258px" viewBox="0 0 600 258" version="1.1" xmlns="http://www.w3.org/2000/svg" xmlns:xlink="http://www.w3.org/1999/xlink">
    <!-- Generator: Sketch 58 (84663) - https://sketch.com -->
    <title>stringsPlinths/A610</title>
    <desc>Created with Sketch.</desc>
    <g id="stringsPlinths/A610" stroke="none" stroke-width="1" fill="none" fill-rule="evenodd">
        <rect fill="#F5F9FF" x="0" y="0" width="600" height="258"></rect>
        <g id="Group-4" transform="translate(199.000000, 35.000000)">
            <path d="M33.470009,67 L0,79.4855491 C0,83.7547481 0,87.9165979 0,91.9710983 C16.9179499,91.9710983 31.1646971,104.379356 33.4110266,121 C41.458075,120.990091 74.9877328,120.990091 134,121 L134,67 L33.470009,67 Z" id="Path" stroke="#CBD8F2" fill="#FFFFFF"></path>
            <g id="Group">
                <polyline id="Rectangle-Copy" stroke="#CBD8F2" points="0.223333333 52 0 37 134 37 134 52"></polyline>
                <path d="M40.657,17 L40.657,14.977 L43.003,14.977 L43.003,8.738 L40.98,8.738 L40.98,7.191 C41.5693363,7.0776661 42.067998,6.94166746 42.476,6.783 C42.884002,6.62433254 43.2806647,6.4316678 43.666,6.205 L45.502,6.205 L45.502,14.977 L47.525,14.977 L47.525,17 L40.657,17 Z M53.22,17.204 C52.6986641,17.204 52.1915025,17.102001 51.6985,16.898 C51.2054975,16.693999 50.7691686,16.3766688 50.3895,15.946 C50.0098314,15.5153312 49.7066678,14.9628367 49.48,14.2885 C49.2533322,13.6141633 49.14,12.8010048 49.14,11.849 C49.14,10.8403283 49.2618321,9.96767035 49.5055,9.231 C49.7491679,8.49432965 50.0721647,7.88800238 50.4745,7.412 C50.8768353,6.93599762 51.3414974,6.58183449 51.8685,6.3495 C52.3955026,6.1171655 52.9423305,6.001 53.509,6.001 C54.2230036,6.001 54.8406641,6.12849873 55.362,6.3835 C55.8833359,6.63850127 56.3139983,6.94166491 56.654,7.293 L55.345,8.789 C55.1523324,8.58499898 54.9030015,8.40650076 54.597,8.2535 C54.2909985,8.10049923 53.9793349,8.024 53.662,8.024 C53.3673319,8.024 53.089668,8.0806661 52.829,8.194 C52.568332,8.3073339 52.3388343,8.49716533 52.1405,8.7635 C51.9421657,9.02983466 51.7806673,9.37833118 51.656,9.809 C51.5313327,10.2396688 51.4576668,10.7666636 51.435,11.39 C51.5710007,11.2086658 51.7296658,11.0471674 51.911,10.9055 C52.0923342,10.7638326 52.2793324,10.6448338 52.472,10.5485 C52.6646676,10.4521662 52.8573324,10.3785003 53.05,10.3275 C53.2426676,10.2764997 53.4239992,10.251 53.594,10.251 C54.058669,10.251 54.486498,10.3189993 54.8775,10.455 C55.268502,10.5910007 55.6084986,10.7949986 55.8975,11.067 C56.1865014,11.3390014 56.4103325,11.6846646 56.569,12.104 C56.7276675,12.5233354 56.807,13.0163305 56.807,13.583 C56.807,14.1496695 56.7106676,14.6539978 56.518,15.096 C56.3253324,15.5380022 56.0675016,15.9176651 55.7445,16.235 C55.4214984,16.5523349 55.0418355,16.7931658 54.6055,16.9575 C54.1691645,17.1218342 53.7073358,17.204 53.22,17.204 Z M53.169,15.334 C53.5430019,15.334 53.8631653,15.1951681 54.1295,14.9175 C54.3958347,14.6398319 54.529,14.1950031 54.529,13.583 C54.529,13.0049971 54.3958347,12.5998345 54.1295,12.3675 C53.8631653,12.1351655 53.526002,12.019 53.118,12.019 C52.8346653,12.019 52.5485014,12.1011658 52.2595,12.2655 C51.9704986,12.4298342 51.7126678,12.7046647 51.486,13.09 C51.5426669,13.5206688 51.6276661,13.8776652 51.741,14.161 C51.8543339,14.4443347 51.9846659,14.6738325 52.132,14.8495 C52.2793341,15.0251675 52.4408325,15.149833 52.6165,15.2235 C52.7921675,15.297167 52.9763324,15.334 53.169,15.334 Z M61.907,17.204 C61.3289971,17.204 60.8020024,17.0821679 60.326,16.8385 C59.8499976,16.5948321 59.444835,16.2350024 59.1105,15.759 C58.776165,15.2829976 58.5155009,14.6936702 58.3285,13.991 C58.1414991,13.2883298 58.048,12.4780046 58.048,11.56 C58.048,10.6419954 58.1414991,9.83733679 58.3285,9.146 C58.5155009,8.45466321 58.776165,7.87383568 59.1105,7.4035 C59.444835,6.93316431 59.8499976,6.58183449 60.326,6.3495 C60.8020024,6.1171655 61.3289971,6.001 61.907,6.001 C62.4850029,6.001 63.0119976,6.1171655 63.488,6.3495 C63.9640024,6.58183449 64.369165,6.93316431 64.7035,7.4035 C65.037835,7.87383568 65.2984991,8.45466321 65.4855,9.146 C65.6725009,9.83733679 65.766,10.6419954 65.766,11.56 C65.766,12.4780046 65.6725009,13.2883298 65.4855,13.991 C65.2984991,14.6936702 65.037835,15.2829976 64.7035,15.759 C64.369165,16.2350024 63.9640024,16.5948321 63.488,16.8385 C63.0119976,17.0821679 62.4850029,17.204 61.907,17.204 Z M61.907,15.266 C62.1223344,15.266 62.3206658,15.2121672 62.502,15.1045 C62.6833342,14.9968328 62.8419993,14.8013347 62.978,14.518 C63.1140007,14.2346652 63.218833,13.8550024 63.2925,13.379 C63.366167,12.9029976 63.403,12.2966703 63.403,11.56 C63.403,10.8233296 63.366167,10.2198357 63.2925,9.7495 C63.218833,9.27916431 63.1140007,8.91083466 62.978,8.6445 C62.8419993,8.37816533 62.6833342,8.19400051 62.502,8.092 C62.3206658,7.98999949 62.1223344,7.939 61.907,7.939 C61.702999,7.939 61.5103342,7.98999949 61.329,8.092 C61.1476658,8.19400051 60.9890007,8.37816533 60.853,8.6445 C60.7169993,8.91083466 60.6093337,9.27916431 60.53,9.7495 C60.4506663,10.2198357 60.411,10.8233296 60.411,11.56 C60.411,12.2966703 60.4506663,12.9029976 60.53,13.379 C60.6093337,13.8550024 60.7169993,14.2346652 60.853,14.518 C60.9890007,14.8013347 61.1476658,14.9968328 61.329,15.1045 C61.5103342,15.2121672 61.702999,15.266 61.907,15.266 Z M67.5,17 L67.5,8.568 L69.54,8.568 L69.71,9.656 L69.778,9.656 C70.1293351,9.30466491 70.5033313,9.00150127 70.9,8.7465 C71.2966687,8.49149872 71.7726639,8.364 72.328,8.364 C72.9286697,8.364 73.4131648,8.48583211 73.7815,8.7295 C74.1498352,8.97316788 74.4416656,9.3216644 74.657,9.775 C75.0310019,9.38966474 75.4248313,9.05816805 75.8385,8.7805 C76.2521687,8.50283194 76.7423305,8.364 77.309,8.364 C78.2156712,8.364 78.8814979,8.66716363 79.3065,9.2735 C79.7315021,9.87983636 79.944,10.7099947 79.944,11.764 L79.944,17 L77.445,17 L77.445,12.087 C77.445,11.4749969 77.3628342,11.0556678 77.1985,10.829 C77.0341658,10.6023322 76.7706685,10.489 76.408,10.489 C75.9886646,10.489 75.5070027,10.7609973 74.963,11.305 L74.963,17 L72.464,17 L72.464,12.087 C72.464,11.4749969 72.3818342,11.0556678 72.2175,10.829 C72.0531658,10.6023322 71.7896685,10.489 71.427,10.489 C70.9963312,10.489 70.5203359,10.7609973 69.999,11.305 L69.999,17 L67.5,17 Z M82.069,17 L82.069,8.568 L84.109,8.568 L84.279,9.656 L84.347,9.656 C84.6983351,9.30466491 85.0723314,9.00150127 85.469,8.7465 C85.8656687,8.49149872 86.3416639,8.364 86.897,8.364 C87.4976697,8.364 87.9821648,8.48583211 88.3505,8.7295 C88.7188352,8.97316788 89.0106656,9.3216644 89.226,9.775 C89.6000019,9.38966474 89.9938313,9.05816805 90.4075,8.7805 C90.8211687,8.50283194 91.3113305,8.364 91.878,8.364 C92.7846712,8.364 93.4504979,8.66716363 93.8755,9.2735 C94.3005021,9.87983636 94.513,10.7099947 94.513,11.764 L94.513,17 L92.014,17 L92.014,12.087 C92.014,11.4749969 91.9318342,11.0556678 91.7675,10.829 C91.6031658,10.6023322 91.3396685,10.489 90.977,10.489 C90.5576646,10.489 90.0760027,10.7609973 89.532,11.305 L89.532,17 L87.033,17 L87.033,12.087 C87.033,11.4749969 86.9508342,11.0556678 86.7865,10.829 C86.6221658,10.6023322 86.3586685,10.489 85.996,10.489 C85.5653312,10.489 85.0893359,10.7609973 84.568,11.305 L84.568,17 L82.069,17 Z" id="160mm" fill="#093169" fill-rule="nonzero"></path>
            </g>
            <g id="Group-3" transform="translate(33.000000, 136.000000)">
                <polyline id="Rectangle-Copy-3" stroke="#CBD8F2" transform="translate(50.500000, 7.500000) rotate(-180.000000) translate(-50.500000, -7.500000) " points="0.168333333 15 0 0 101 0 101 15"></polyline>
                <path d="M23.657,47 L23.657,44.977 L26.003,44.977 L26.003,38.738 L23.98,38.738 L23.98,37.191 C24.5693363,37.0776661 25.067998,36.9416675 25.476,36.783 C25.884002,36.6243325 26.2806647,36.4316678 26.666,36.205 L28.502,36.205 L28.502,44.977 L30.525,44.977 L30.525,47 L23.657,47 Z M32.072,47 L32.072,45.572 L32.8730407,44.8171994 C33.2592799,44.4500002 33.6240983,44.0981017 33.9675,43.7615 C34.5398362,43.2004972 35.0328313,42.6735025 35.4465,42.1805 C35.8601687,41.6874975 36.1831655,41.2285021 36.4155,40.8035 C36.6478345,40.3784979 36.764,39.9733353 36.764,39.588 C36.764,39.0553307 36.6280014,38.6501681 36.356,38.3725 C36.0839986,38.0948319 35.7100024,37.956 35.234,37.956 C34.8373313,37.956 34.4860015,38.0664989 34.18,38.2875 C33.8739985,38.5085011 33.5850014,38.7663319 33.313,39.061 L31.953,37.718 C32.4856693,37.1513305 33.0296639,36.7235014 33.585,36.4345 C34.1403361,36.1454986 34.8033295,36.001 35.574,36.001 C36.1066693,36.001 36.5911645,36.0831658 37.0275,36.2475 C37.4638355,36.4118342 37.8406651,36.6441652 38.158,36.9445 C38.4753349,37.2448348 38.7189992,37.6046646 38.889,38.024 C39.0590008,38.4433354 39.144,38.9136641 39.144,39.435 C39.144,39.8883356 39.0476676,40.3501643 38.855,40.8205 C38.6623324,41.2908357 38.4045016,41.7611643 38.0815,42.2315 C37.7584984,42.7018357 37.3901687,43.1721643 36.9765,43.6425 C36.5628313,44.1128357 36.1350022,44.5746644 35.693,45.028 L36.1243749,44.979125 C36.2759578,44.9635417 36.4353325,44.9486667 36.6025,44.9345 C36.936835,44.9061665 37.234332,44.892 37.495,44.892 L39.671,44.892 L39.671,47 L32.072,47 Z M44.907,47.204 C44.3289971,47.204 43.8020024,47.0821679 43.326,46.8385 C42.8499976,46.5948321 42.444835,46.2350024 42.1105,45.759 C41.776165,45.2829976 41.5155009,44.6936702 41.3285,43.991 C41.1414991,43.2883298 41.048,42.4780046 41.048,41.56 C41.048,40.6419954 41.1414991,39.8373368 41.3285,39.146 C41.5155009,38.4546632 41.776165,37.8738357 42.1105,37.4035 C42.444835,36.9331643 42.8499976,36.5818345 43.326,36.3495 C43.8020024,36.1171655 44.3289971,36.001 44.907,36.001 C45.4850029,36.001 46.0119976,36.1171655 46.488,36.3495 C46.9640024,36.5818345 47.369165,36.9331643 47.7035,37.4035 C48.037835,37.8738357 48.2984991,38.4546632 48.4855,39.146 C48.6725009,39.8373368 48.766,40.6419954 48.766,41.56 C48.766,42.4780046 48.6725009,43.2883298 48.4855,43.991 C48.2984991,44.6936702 48.037835,45.2829976 47.7035,45.759 C47.369165,46.2350024 46.9640024,46.5948321 46.488,46.8385 C46.0119976,47.0821679 45.4850029,47.204 44.907,47.204 Z M44.907,45.266 C45.1223344,45.266 45.3206658,45.2121672 45.502,45.1045 C45.6833342,44.9968328 45.8419993,44.8013347 45.978,44.518 C46.1140007,44.2346652 46.218833,43.8550024 46.2925,43.379 C46.366167,42.9029976 46.403,42.2966703 46.403,41.56 C46.403,40.8233296 46.366167,40.2198357 46.2925,39.7495 C46.218833,39.2791643 46.1140007,38.9108347 45.978,38.6445 C45.8419993,38.3781653 45.6833342,38.1940005 45.502,38.092 C45.3206658,37.9899995 45.1223344,37.939 44.907,37.939 C44.702999,37.939 44.5103342,37.9899995 44.329,38.092 C44.1476658,38.1940005 43.9890007,38.3781653 43.853,38.6445 C43.7169993,38.9108347 43.6093337,39.2791643 43.53,39.7495 C43.4506663,40.2198357 43.411,40.8233296 43.411,41.56 C43.411,42.2966703 43.4506663,42.9029976 43.53,43.379 C43.6093337,43.8550024 43.7169993,44.2346652 43.853,44.518 C43.9890007,44.8013347 44.1476658,44.9968328 44.329,45.1045 C44.5103342,45.2121672 44.702999,45.266 44.907,45.266 Z M50.5,47 L50.5,38.568 L52.54,38.568 L52.71,39.656 L52.778,39.656 C53.1293351,39.3046649 53.5033314,39.0015013 53.9,38.7465 C54.2966687,38.4914987 54.7726639,38.364 55.328,38.364 C55.9286697,38.364 56.4131648,38.4858321 56.7815,38.7295 C57.1498352,38.9731679 57.4416656,39.3216644 57.657,39.775 C58.0310019,39.3896647 58.4248313,39.0581681 58.8385,38.7805 C59.2521687,38.5028319 59.7423305,38.364 60.309,38.364 C61.2156712,38.364 61.8814979,38.6671636 62.3065,39.2735 C62.7315021,39.8798364 62.944,40.7099947 62.944,41.764 L62.944,47 L60.445,47 L60.445,42.087 C60.445,41.4749969 60.3628342,41.0556678 60.1985,40.829 C60.0341658,40.6023322 59.7706685,40.489 59.408,40.489 C58.9886646,40.489 58.5070027,40.7609973 57.963,41.305 L57.963,47 L55.464,47 L55.464,42.087 C55.464,41.4749969 55.3818342,41.0556678 55.2175,40.829 C55.0531658,40.6023322 54.7896685,40.489 54.427,40.489 C53.9963312,40.489 53.5203359,40.7609973 52.999,41.305 L52.999,47 L50.5,47 Z M65.069,47 L65.069,38.568 L67.109,38.568 L67.279,39.656 L67.347,39.656 C67.6983351,39.3046649 68.0723314,39.0015013 68.469,38.7465 C68.8656687,38.4914987 69.3416639,38.364 69.897,38.364 C70.4976697,38.364 70.9821648,38.4858321 71.3505,38.7295 C71.7188352,38.9731679 72.0106656,39.3216644 72.226,39.775 C72.6000019,39.3896647 72.9938313,39.0581681 73.4075,38.7805 C73.8211687,38.5028319 74.3113305,38.364 74.878,38.364 C75.7846712,38.364 76.4504979,38.6671636 76.8755,39.2735 C77.3005021,39.8798364 77.513,40.7099947 77.513,41.764 L77.513,47 L75.014,47 L75.014,42.087 C75.014,41.4749969 74.9318342,41.0556678 74.7675,40.829 C74.6031658,40.6023322 74.3396685,40.489 73.977,40.489 C73.5576646,40.489 73.0760027,40.7609973 72.532,41.305 L72.532,47 L70.033,47 L70.033,42.087 C70.033,41.4749969 69.9508342,41.0556678 69.7865,40.829 C69.6221658,40.6023322 69.3586685,40.489 68.996,40.489 C68.5653312,40.489 68.0893359,40.7609973 67.568,41.305 L67.568,47 L65.069,47 Z" id="120mm" fill="#093169" fill-rule="nonzero" transform="translate(50.585000, 41.602500) rotate(-360.000000) translate(-50.585000, -41.602500) "></path>
            </g>
            <g id="Group-2" transform="translate(149.000000, 67.000000)">
                <polyline id="Rectangle-Copy-2" stroke="#CBD8F2" transform="translate(8.000000, 27.500000) rotate(-270.000000) translate(-8.000000, -27.500000) " points="-18.91 35 -19 20 35 20 35 35"></polyline>
                <path d="M23.232,33.204 C22.7106641,33.204 22.2035025,33.102001 21.7105,32.898 C21.2174975,32.693999 20.7811686,32.3766688 20.4015,31.946 C20.0218314,31.5153312 19.7186678,30.9628367 19.492,30.2885 C19.2653322,29.6141633 19.152,28.8010048 19.152,27.849 C19.152,26.8403283 19.2738321,25.9676703 19.5175,25.231 C19.7611679,24.4943297 20.0841647,23.8880024 20.4865,23.412 C20.8888353,22.9359976 21.3534974,22.5818345 21.8805,22.3495 C22.4075026,22.1171655 22.9543305,22.001 23.521,22.001 C24.2350036,22.001 24.8526641,22.1284987 25.374,22.3835 C25.8953359,22.6385013 26.3259983,22.9416649 26.666,23.293 L25.357,24.789 C25.1643324,24.584999 24.9150015,24.4065008 24.609,24.2535 C24.3029985,24.1004992 23.9913349,24.024 23.674,24.024 C23.3793319,24.024 23.101668,24.0806661 22.841,24.194 C22.580332,24.3073339 22.3508343,24.4971653 22.1525,24.7635 C21.9541657,25.0298347 21.7926673,25.3783312 21.668,25.809 C21.5433327,26.2396688 21.4696668,26.7666636 21.447,27.39 C21.5830007,27.2086658 21.7416658,27.0471674 21.923,26.9055 C22.1043342,26.7638326 22.2913324,26.6448338 22.484,26.5485 C22.6766676,26.4521662 22.8693324,26.3785003 23.062,26.3275 C23.2546676,26.2764997 23.4359992,26.251 23.606,26.251 C24.070669,26.251 24.498498,26.3189993 24.8895,26.455 C25.280502,26.5910007 25.6204986,26.7949986 25.9095,27.067 C26.1985014,27.3390014 26.4223325,27.6846646 26.581,28.104 C26.7396675,28.5233354 26.819,29.0163305 26.819,29.583 C26.819,30.1496695 26.7226676,30.6539978 26.53,31.096 C26.3373324,31.5380022 26.0795016,31.9176651 25.7565,32.235 C25.4334984,32.5523349 25.0538355,32.7931658 24.6175,32.9575 C24.1811645,33.1218342 23.7193358,33.204 23.232,33.204 Z M23.181,31.334 C23.5550019,31.334 23.8751653,31.1951681 24.1415,30.9175 C24.4078347,30.6398319 24.541,30.1950031 24.541,29.583 C24.541,29.0049971 24.4078347,28.5998345 24.1415,28.3675 C23.8751653,28.1351655 23.538002,28.019 23.13,28.019 C22.8466652,28.019 22.5605014,28.1011658 22.2715,28.2655 C21.9824986,28.4298342 21.7246678,28.7046647 21.498,29.09 C21.5546669,29.5206688 21.6396661,29.8776652 21.753,30.161 C21.8663339,30.4443347 21.9966659,30.6738325 22.144,30.8495 C22.2913341,31.0251675 22.4528325,31.149833 22.6285,31.2235 C22.8041675,31.297167 22.9883324,31.334 23.181,31.334 Z M31.63,33.204 C30.7459956,33.204 29.9980031,33.0595014 29.386,32.7705 C28.7739969,32.4814986 28.2526688,32.1216688 27.822,31.691 L28.944,30.11 C29.2726683,30.4046681 29.6268314,30.6568323 30.0065,30.8665 C30.3861686,31.0761677 30.808331,31.181 31.273,31.181 C31.8283361,31.181 32.2703317,31.0393348 32.599,30.756 C32.9276683,30.4726652 33.092,30.0533361 33.092,29.498 C33.092,28.9539973 32.9361682,28.5403347 32.6245,28.257 C32.3128318,27.9736652 31.9020025,27.832 31.392,27.832 C31.2333325,27.832 31.0916673,27.8404999 30.967,27.8575 C30.8423327,27.8745001 30.7205006,27.9056664 30.6015,27.951 C30.4824994,27.9963336 30.357834,28.0529997 30.2275,28.121 C30.097166,28.1890003 29.9526675,28.2739995 29.794,28.376 L28.672,27.662 L28.978,22.205 L35.098,22.205 L35.098,24.313 L31.137,24.313 L30.95,26.336 C31.154001,26.2453329 31.3494991,26.1801669 31.5365,26.1405 C31.7235009,26.1008331 31.9303322,26.081 32.157,26.081 C32.621669,26.081 33.0608313,26.1489993 33.4745,26.285 C33.8881687,26.4210007 34.2536651,26.6249986 34.571,26.897 C34.8883349,27.1690014 35.1376658,27.5146646 35.319,27.934 C35.5003342,28.3533354 35.591,28.8519971 35.591,29.43 C35.591,30.0306697 35.4833344,30.563331 35.268,31.028 C35.0526656,31.492669 34.7636685,31.8864984 34.401,32.2095 C34.0383315,32.5325016 33.6161691,32.7789992 33.1345,32.949 C32.6528309,33.1190008 32.1513359,33.204 31.63,33.204 Z M37.512,33 L37.512,24.568 L39.552,24.568 L39.722,25.656 L39.79,25.656 C40.1413351,25.3046649 40.5153313,25.0015013 40.912,24.7465 C41.3086687,24.4914987 41.7846639,24.364 42.34,24.364 C42.9406697,24.364 43.4251648,24.4858321 43.7935,24.7295 C44.1618352,24.9731679 44.4536656,25.3216644 44.669,25.775 C45.0430019,25.3896647 45.4368313,25.0581681 45.8505,24.7805 C46.2641687,24.5028319 46.7543305,24.364 47.321,24.364 C48.2276712,24.364 48.8934979,24.6671636 49.3185,25.2735 C49.7435021,25.8798364 49.956,26.7099947 49.956,27.764 L49.956,33 L47.457,33 L47.457,28.087 C47.457,27.4749969 47.3748342,27.0556678 47.2105,26.829 C47.0461658,26.6023322 46.7826685,26.489 46.42,26.489 C46.0006646,26.489 45.5190027,26.7609973 44.975,27.305 L44.975,33 L42.476,33 L42.476,28.087 C42.476,27.4749969 42.3938342,27.0556678 42.2295,26.829 C42.0651658,26.6023322 41.8016685,26.489 41.439,26.489 C41.0083312,26.489 40.5323359,26.7609973 40.011,27.305 L40.011,33 L37.512,33 Z M52.081,33 L52.081,24.568 L54.121,24.568 L54.291,25.656 L54.359,25.656 C54.7103351,25.3046649 55.0843313,25.0015013 55.481,24.7465 C55.8776687,24.4914987 56.3536639,24.364 56.909,24.364 C57.5096697,24.364 57.9941648,24.4858321 58.3625,24.7295 C58.7308352,24.9731679 59.0226656,25.3216644 59.238,25.775 C59.6120019,25.3896647 60.0058313,25.0581681 60.4195,24.7805 C60.8331687,24.5028319 61.3233305,24.364 61.89,24.364 C62.7966712,24.364 63.4624979,24.6671636 63.8875,25.2735 C64.3125021,25.8798364 64.525,26.7099947 64.525,27.764 L64.525,33 L62.026,33 L62.026,28.087 C62.026,27.4749969 61.9438342,27.0556678 61.7795,26.829 C61.6151658,26.6023322 61.3516685,26.489 60.989,26.489 C60.5696646,26.489 60.0880027,26.7609973 59.544,27.305 L59.544,33 L57.045,33 L57.045,28.087 C57.045,27.4749969 56.9628342,27.0556678 56.7985,26.829 C56.6341658,26.6023322 56.3706685,26.489 56.008,26.489 C55.5773312,26.489 55.1013359,26.7609973 54.58,27.305 L54.58,33 L52.081,33 Z" id="65mm" fill="#093169" fill-rule="nonzero" transform="translate(41.838500, 27.602500) rotate(-270.000000) translate(-41.838500, -27.602500) "></path>
            </g>
        </g>
    </g>
</svg>