<?xml version="1.0" encoding="UTF-8"?>
<svg width="600px" height="259px" viewBox="0 0 600 259" version="1.1" xmlns="http://www.w3.org/2000/svg" xmlns:xlink="http://www.w3.org/1999/xlink">
    <!-- Generator: Sketch 58 (84663) - https://sketch.com -->
    <title>stringsPlinths/A620</title>
    <desc>Created with Sketch.</desc>
    <g id="stringsPlinths/A620" stroke="none" stroke-width="1" fill="none" fill-rule="evenodd">
        <rect fill="#F5F9FF" x="0" y="0" width="600" height="259"></rect>
        <g id="Group" transform="translate(212.000000, 35.000000)">
            <polygon id="Path" stroke="#CBD8F2" fill="#FFFFFF" transform="translate(54.500000, 94.250000) rotate(-180.000000) translate(-54.500000, -94.250000) " points="0 67 83.8831312 67 109 75.4216336 109 113.198675 83.8831312 121.5 0 121.5"></polygon>
            <polyline id="Rectangle-Copy" stroke="#CBD8F2" points="0.181666667 52 0 37 109 37 109 52"></polyline>
            <path d="M27.657,17 L27.657,14.977 L30.003,14.977 L30.003,8.738 L27.98,8.738 L27.98,7.191 C28.5693363,7.0776661 29.067998,6.94166746 29.476,6.783 C29.884002,6.62433254 30.2806647,6.4316678 30.666,6.205 L32.502,6.205 L32.502,14.977 L34.525,14.977 L34.525,17 L27.657,17 Z M39.574,17.204 C38.6899956,17.204 37.9420031,17.0651681 37.33,16.7875 C36.7179969,16.5098319 36.2136687,16.138669 35.817,15.674 L36.973,14.093 C37.3016683,14.4103349 37.661498,14.670999 38.0525,14.875 C38.443502,15.079001 38.871331,15.181 39.336,15.181 C39.8686693,15.181 40.2936651,15.0705011 40.611,14.8495 C40.9283349,14.6284989 41.087,14.314002 41.087,13.906 C41.087,13.6679988 41.0445004,13.4526676 40.9595,13.26 C40.8744996,13.0673324 40.7243344,12.905834 40.509,12.7755 C40.2936656,12.645166 39.9990019,12.543167 39.625,12.4695 C39.2509981,12.395833 38.7693363,12.359 38.18,12.359 L38.18,10.591 C38.6673358,10.591 39.0724984,10.5570003 39.3955,10.489 C39.7185016,10.4209997 39.9791657,10.321834 40.1775,10.1915 C40.3758343,10.061166 40.5174996,9.90816754 40.6025,9.7325 C40.6875004,9.55683245 40.73,9.36133441 40.73,9.146 C40.73,8.77199813 40.6166678,8.48016772 40.39,8.2705 C40.1633322,8.06083229 39.8346688,7.956 39.404,7.956 C39.0186647,7.956 38.6701682,8.04099915 38.3585,8.211 C38.0468318,8.38100085 37.7210017,8.61333186 37.381,8.908 L36.123,7.378 C36.6216692,6.94733118 37.1458306,6.61016788 37.6955,6.3665 C38.2451694,6.12283211 38.85433,6.001 39.523,6.001 C40.0783361,6.001 40.5854977,6.06616601 41.0445,6.1965 C41.5035023,6.32683398 41.8944984,6.51949872 42.2175,6.7745 C42.5405016,7.02950128 42.7926658,7.33833152 42.974,7.701 C43.1553342,8.06366848 43.246,8.48299762 43.246,8.959 C43.246,9.5256695 43.0901682,10.004498 42.7785,10.3955 C42.4668318,10.786502 42.0220029,11.1066654 41.444,11.356 L41.444,11.424 C42.0673364,11.6053342 42.5801647,11.9141645 42.9825,12.3505 C43.3848353,12.7868355 43.586,13.3563298 43.586,14.059 C43.586,14.5576692 43.4783344,15.002498 43.263,15.3935 C43.0476656,15.784502 42.7586685,16.1131653 42.396,16.3795 C42.0333315,16.6458347 41.6083358,16.8498326 41.121,16.9915 C40.6336642,17.1331674 40.1180027,17.204 39.574,17.204 Z M48.907,17.204 C48.3289971,17.204 47.8020024,17.0821679 47.326,16.8385 C46.8499976,16.5948321 46.444835,16.2350024 46.1105,15.759 C45.776165,15.2829976 45.5155009,14.6936702 45.3285,13.991 C45.1414991,13.2883298 45.048,12.4780046 45.048,11.56 C45.048,10.6419954 45.1414991,9.83733679 45.3285,9.146 C45.5155009,8.45466321 45.776165,7.87383568 46.1105,7.4035 C46.444835,6.93316431 46.8499976,6.58183449 47.326,6.3495 C47.8020024,6.1171655 48.3289971,6.001 48.907,6.001 C49.4850029,6.001 50.0119976,6.1171655 50.488,6.3495 C50.9640024,6.58183449 51.369165,6.93316431 51.7035,7.4035 C52.037835,7.87383568 52.2984991,8.45466321 52.4855,9.146 C52.6725009,9.83733679 52.766,10.6419954 52.766,11.56 C52.766,12.4780046 52.6725009,13.2883298 52.4855,13.991 C52.2984991,14.6936702 52.037835,15.2829976 51.7035,15.759 C51.369165,16.2350024 50.9640024,16.5948321 50.488,16.8385 C50.0119976,17.0821679 49.4850029,17.204 48.907,17.204 Z M48.907,15.266 C49.1223344,15.266 49.3206658,15.2121672 49.502,15.1045 C49.6833342,14.9968328 49.8419993,14.8013347 49.978,14.518 C50.1140007,14.2346652 50.218833,13.8550024 50.2925,13.379 C50.366167,12.9029976 50.403,12.2966703 50.403,11.56 C50.403,10.8233296 50.366167,10.2198357 50.2925,9.7495 C50.218833,9.27916431 50.1140007,8.91083466 49.978,8.6445 C49.8419993,8.37816533 49.6833342,8.19400051 49.502,8.092 C49.3206658,7.98999949 49.1223344,7.939 48.907,7.939 C48.702999,7.939 48.5103342,7.98999949 48.329,8.092 C48.1476658,8.19400051 47.9890007,8.37816533 47.853,8.6445 C47.7169993,8.91083466 47.6093337,9.27916431 47.53,9.7495 C47.4506663,10.2198357 47.411,10.8233296 47.411,11.56 C47.411,12.2966703 47.4506663,12.9029976 47.53,13.379 C47.6093337,13.8550024 47.7169993,14.2346652 47.853,14.518 C47.9890007,14.8013347 48.1476658,14.9968328 48.329,15.1045 C48.5103342,15.2121672 48.702999,15.266 48.907,15.266 Z M54.5,17 L54.5,8.568 L56.54,8.568 L56.71,9.656 L56.778,9.656 C57.1293351,9.30466491 57.5033314,9.00150127 57.9,8.7465 C58.2966687,8.49149872 58.7726639,8.364 59.328,8.364 C59.9286697,8.364 60.4131648,8.48583211 60.7815,8.7295 C61.1498352,8.97316788 61.4416656,9.3216644 61.657,9.775 C62.0310019,9.38966474 62.4248313,9.05816805 62.8385,8.7805 C63.2521687,8.50283194 63.7423305,8.364 64.309,8.364 C65.2156712,8.364 65.8814979,8.66716363 66.3065,9.2735 C66.7315021,9.87983636 66.944,10.7099947 66.944,11.764 L66.944,17 L64.445,17 L64.445,12.087 C64.445,11.4749969 64.3628342,11.0556678 64.1985,10.829 C64.0341658,10.6023322 63.7706685,10.489 63.408,10.489 C62.9886646,10.489 62.5070027,10.7609973 61.963,11.305 L61.963,17 L59.464,17 L59.464,12.087 C59.464,11.4749969 59.3818342,11.0556678 59.2175,10.829 C59.0531658,10.6023322 58.7896685,10.489 58.427,10.489 C57.9963312,10.489 57.5203359,10.7609973 56.999,11.305 L56.999,17 L54.5,17 Z M69.069,17 L69.069,8.568 L71.109,8.568 L71.279,9.656 L71.347,9.656 C71.6983351,9.30466491 72.0723314,9.00150127 72.469,8.7465 C72.8656687,8.49149872 73.3416639,8.364 73.897,8.364 C74.4976697,8.364 74.9821648,8.48583211 75.3505,8.7295 C75.7188352,8.97316788 76.0106656,9.3216644 76.226,9.775 C76.6000019,9.38966474 76.9938313,9.05816805 77.4075,8.7805 C77.8211687,8.50283194 78.3113305,8.364 78.878,8.364 C79.7846712,8.364 80.4504979,8.66716363 80.8755,9.2735 C81.3005021,9.87983636 81.513,10.7099947 81.513,11.764 L81.513,17 L79.014,17 L79.014,12.087 C79.014,11.4749969 78.9318342,11.0556678 78.7675,10.829 C78.6031658,10.6023322 78.3396685,10.489 77.977,10.489 C77.5576646,10.489 77.0760027,10.7609973 76.532,11.305 L76.532,17 L74.033,17 L74.033,12.087 C74.033,11.4749969 73.9508342,11.0556678 73.7865,10.829 C73.6221658,10.6023322 73.3586685,10.489 72.996,10.489 C72.5653312,10.489 72.0893359,10.7609973 71.568,11.305 L71.568,17 L69.069,17 Z" id="130mm" fill="#093169" fill-rule="nonzero"></path>
            <g id="Group-3" transform="translate(25.000000, 137.000000)">
                <polyline id="Rectangle-Copy-3" stroke="#CBD8F2" transform="translate(42.000000, 7.500000) rotate(-180.000000) translate(-42.000000, -7.500000) " points="0.14 15 0 0 84 0 84 15"></polyline>
                <path d="M15.657,47 L15.657,44.977 L18.003,44.977 L18.003,38.738 L15.98,38.738 L15.98,37.191 C16.5693363,37.0776661 17.067998,36.9416675 17.476,36.783 C17.884002,36.6243325 18.2806647,36.4316678 18.666,36.205 L20.502,36.205 L20.502,44.977 L22.525,44.977 L22.525,47 L15.657,47 Z M27.931,47.204 C27.3529971,47.204 26.8260024,47.0821679 26.35,46.8385 C25.8739976,46.5948321 25.468835,46.2350024 25.1345,45.759 C24.800165,45.2829976 24.5395009,44.6936702 24.3525,43.991 C24.1654991,43.2883298 24.072,42.4780046 24.072,41.56 C24.072,40.6419954 24.1654991,39.8373368 24.3525,39.146 C24.5395009,38.4546632 24.800165,37.8738357 25.1345,37.4035 C25.468835,36.9331643 25.8739976,36.5818345 26.35,36.3495 C26.8260024,36.1171655 27.3529971,36.001 27.931,36.001 C28.5090029,36.001 29.0359976,36.1171655 29.512,36.3495 C29.9880024,36.5818345 30.393165,36.9331643 30.7275,37.4035 C31.061835,37.8738357 31.3224991,38.4546632 31.5095,39.146 C31.6965009,39.8373368 31.79,40.6419954 31.79,41.56 C31.79,42.4780046 31.6965009,43.2883298 31.5095,43.991 C31.3224991,44.6936702 31.061835,45.2829976 30.7275,45.759 C30.393165,46.2350024 29.9880024,46.5948321 29.512,46.8385 C29.0359976,47.0821679 28.5090029,47.204 27.931,47.204 Z M27.931,45.266 C28.1463344,45.266 28.3446658,45.2121672 28.526,45.1045 C28.7073342,44.9968328 28.8659993,44.8013347 29.002,44.518 C29.1380007,44.2346652 29.242833,43.8550024 29.3165,43.379 C29.390167,42.9029976 29.427,42.2966703 29.427,41.56 C29.427,40.8233296 29.390167,40.2198357 29.3165,39.7495 C29.242833,39.2791643 29.1380007,38.9108347 29.002,38.6445 C28.8659993,38.3781653 28.7073342,38.1940005 28.526,38.092 C28.3446658,37.9899995 28.1463344,37.939 27.931,37.939 C27.726999,37.939 27.5343342,37.9899995 27.353,38.092 C27.1716658,38.1940005 27.0130007,38.3781653 26.877,38.6445 C26.7409993,38.9108347 26.6333337,39.2791643 26.554,39.7495 C26.4746663,40.2198357 26.435,40.8233296 26.435,41.56 C26.435,42.2966703 26.4746663,42.9029976 26.554,43.379 C26.6333337,43.8550024 26.7409993,44.2346652 26.877,44.518 C27.0130007,44.8013347 27.1716658,44.9968328 27.353,45.1045 C27.5343342,45.2121672 27.726999,45.266 27.931,45.266 Z M36.907,47.204 C36.3289971,47.204 35.8020024,47.0821679 35.326,46.8385 C34.8499976,46.5948321 34.444835,46.2350024 34.1105,45.759 C33.776165,45.2829976 33.5155009,44.6936702 33.3285,43.991 C33.1414991,43.2883298 33.048,42.4780046 33.048,41.56 C33.048,40.6419954 33.1414991,39.8373368 33.3285,39.146 C33.5155009,38.4546632 33.776165,37.8738357 34.1105,37.4035 C34.444835,36.9331643 34.8499976,36.5818345 35.326,36.3495 C35.8020024,36.1171655 36.3289971,36.001 36.907,36.001 C37.4850029,36.001 38.0119976,36.1171655 38.488,36.3495 C38.9640024,36.5818345 39.369165,36.9331643 39.7035,37.4035 C40.037835,37.8738357 40.2984991,38.4546632 40.4855,39.146 C40.6725009,39.8373368 40.766,40.6419954 40.766,41.56 C40.766,42.4780046 40.6725009,43.2883298 40.4855,43.991 C40.2984991,44.6936702 40.037835,45.2829976 39.7035,45.759 C39.369165,46.2350024 38.9640024,46.5948321 38.488,46.8385 C38.0119976,47.0821679 37.4850029,47.204 36.907,47.204 Z M36.907,45.266 C37.1223344,45.266 37.3206658,45.2121672 37.502,45.1045 C37.6833342,44.9968328 37.8419993,44.8013347 37.978,44.518 C38.1140007,44.2346652 38.218833,43.8550024 38.2925,43.379 C38.366167,42.9029976 38.403,42.2966703 38.403,41.56 C38.403,40.8233296 38.366167,40.2198357 38.2925,39.7495 C38.218833,39.2791643 38.1140007,38.9108347 37.978,38.6445 C37.8419993,38.3781653 37.6833342,38.1940005 37.502,38.092 C37.3206658,37.9899995 37.1223344,37.939 36.907,37.939 C36.702999,37.939 36.5103342,37.9899995 36.329,38.092 C36.1476658,38.1940005 35.9890007,38.3781653 35.853,38.6445 C35.7169993,38.9108347 35.6093337,39.2791643 35.53,39.7495 C35.4506663,40.2198357 35.411,40.8233296 35.411,41.56 C35.411,42.2966703 35.4506663,42.9029976 35.53,43.379 C35.6093337,43.8550024 35.7169993,44.2346652 35.853,44.518 C35.9890007,44.8013347 36.1476658,44.9968328 36.329,45.1045 C36.5103342,45.2121672 36.702999,45.266 36.907,45.266 Z M42.5,47 L42.5,38.568 L44.54,38.568 L44.71,39.656 L44.778,39.656 C45.1293351,39.3046649 45.5033314,39.0015013 45.9,38.7465 C46.2966687,38.4914987 46.7726639,38.364 47.328,38.364 C47.9286697,38.364 48.4131648,38.4858321 48.7815,38.7295 C49.1498352,38.9731679 49.4416656,39.3216644 49.657,39.775 C50.0310019,39.3896647 50.4248313,39.0581681 50.8385,38.7805 C51.2521687,38.5028319 51.7423305,38.364 52.309,38.364 C53.2156712,38.364 53.8814979,38.6671636 54.3065,39.2735 C54.7315021,39.8798364 54.944,40.7099947 54.944,41.764 L54.944,47 L52.445,47 L52.445,42.087 C52.445,41.4749969 52.3628342,41.0556678 52.1985,40.829 C52.0341658,40.6023322 51.7706685,40.489 51.408,40.489 C50.9886646,40.489 50.5070027,40.7609973 49.963,41.305 L49.963,47 L47.464,47 L47.464,42.087 C47.464,41.4749969 47.3818342,41.0556678 47.2175,40.829 C47.0531658,40.6023322 46.7896685,40.489 46.427,40.489 C45.9963312,40.489 45.5203359,40.7609973 44.999,41.305 L44.999,47 L42.5,47 Z M57.069,47 L57.069,38.568 L59.109,38.568 L59.279,39.656 L59.347,39.656 C59.6983351,39.3046649 60.0723314,39.0015013 60.469,38.7465 C60.8656687,38.4914987 61.3416639,38.364 61.897,38.364 C62.4976697,38.364 62.9821648,38.4858321 63.3505,38.7295 C63.7188352,38.9731679 64.0106656,39.3216644 64.226,39.775 C64.6000019,39.3896647 64.9938313,39.0581681 65.4075,38.7805 C65.8211687,38.5028319 66.3113305,38.364 66.878,38.364 C67.7846712,38.364 68.4504979,38.6671636 68.8755,39.2735 C69.3005021,39.8798364 69.513,40.7099947 69.513,41.764 L69.513,47 L67.014,47 L67.014,42.087 C67.014,41.4749969 66.9318342,41.0556678 66.7675,40.829 C66.6031658,40.6023322 66.3396685,40.489 65.977,40.489 C65.5576646,40.489 65.0760027,40.7609973 64.532,41.305 L64.532,47 L62.033,47 L62.033,42.087 C62.033,41.4749969 61.9508342,41.0556678 61.7865,40.829 C61.6221658,40.6023322 61.3586685,40.489 60.996,40.489 C60.5653312,40.489 60.0893359,40.7609973 59.568,41.305 L59.568,47 L57.069,47 Z" id="100mm" fill="#093169" fill-rule="nonzero" transform="translate(42.585000, 41.602500) rotate(-360.000000) translate(-42.585000, -41.602500) "></path>
            </g>
            <g id="Group-2" transform="translate(124.000000, 67.000000)">
                <polyline id="Rectangle-Copy-2" stroke="#CBD8F2" transform="translate(8.000000, 27.500000) rotate(-270.000000) translate(-8.000000, -27.500000) " points="-18.91 35 -19 20 35 20 35 35"></polyline>
                <path d="M23.232,33.204 C22.7106641,33.204 22.2035025,33.102001 21.7105,32.898 C21.2174975,32.693999 20.7811686,32.3766688 20.4015,31.946 C20.0218314,31.5153312 19.7186678,30.9628367 19.492,30.2885 C19.2653322,29.6141633 19.152,28.8010048 19.152,27.849 C19.152,26.8403283 19.2738321,25.9676703 19.5175,25.231 C19.7611679,24.4943297 20.0841647,23.8880024 20.4865,23.412 C20.8888353,22.9359976 21.3534974,22.5818345 21.8805,22.3495 C22.4075026,22.1171655 22.9543305,22.001 23.521,22.001 C24.2350036,22.001 24.8526641,22.1284987 25.374,22.3835 C25.8953359,22.6385013 26.3259983,22.9416649 26.666,23.293 L25.357,24.789 C25.1643324,24.584999 24.9150015,24.4065008 24.609,24.2535 C24.3029985,24.1004992 23.9913349,24.024 23.674,24.024 C23.3793319,24.024 23.101668,24.0806661 22.841,24.194 C22.580332,24.3073339 22.3508343,24.4971653 22.1525,24.7635 C21.9541657,25.0298347 21.7926673,25.3783312 21.668,25.809 C21.5433327,26.2396688 21.4696668,26.7666636 21.447,27.39 C21.5830007,27.2086658 21.7416658,27.0471674 21.923,26.9055 C22.1043342,26.7638326 22.2913324,26.6448338 22.484,26.5485 C22.6766676,26.4521662 22.8693324,26.3785003 23.062,26.3275 C23.2546676,26.2764997 23.4359992,26.251 23.606,26.251 C24.070669,26.251 24.498498,26.3189993 24.8895,26.455 C25.280502,26.5910007 25.6204986,26.7949986 25.9095,27.067 C26.1985014,27.3390014 26.4223325,27.6846646 26.581,28.104 C26.7396675,28.5233354 26.819,29.0163305 26.819,29.583 C26.819,30.1496695 26.7226676,30.6539978 26.53,31.096 C26.3373324,31.5380022 26.0795016,31.9176651 25.7565,32.235 C25.4334984,32.5523349 25.0538355,32.7931658 24.6175,32.9575 C24.1811645,33.1218342 23.7193358,33.204 23.232,33.204 Z M23.181,31.334 C23.5550019,31.334 23.8751653,31.1951681 24.1415,30.9175 C24.4078347,30.6398319 24.541,30.1950031 24.541,29.583 C24.541,29.0049971 24.4078347,28.5998345 24.1415,28.3675 C23.8751653,28.1351655 23.538002,28.019 23.13,28.019 C22.8466652,28.019 22.5605014,28.1011658 22.2715,28.2655 C21.9824986,28.4298342 21.7246678,28.7046647 21.498,29.09 C21.5546669,29.5206688 21.6396661,29.8776652 21.753,30.161 C21.8663339,30.4443347 21.9966659,30.6738325 22.144,30.8495 C22.2913341,31.0251675 22.4528325,31.149833 22.6285,31.2235 C22.8041675,31.297167 22.9883324,31.334 23.181,31.334 Z M31.63,33.204 C30.7459956,33.204 29.9980031,33.0595014 29.386,32.7705 C28.7739969,32.4814986 28.2526688,32.1216688 27.822,31.691 L28.944,30.11 C29.2726683,30.4046681 29.6268314,30.6568323 30.0065,30.8665 C30.3861686,31.0761677 30.808331,31.181 31.273,31.181 C31.8283361,31.181 32.2703317,31.0393348 32.599,30.756 C32.9276683,30.4726652 33.092,30.0533361 33.092,29.498 C33.092,28.9539973 32.9361682,28.5403347 32.6245,28.257 C32.3128318,27.9736652 31.9020025,27.832 31.392,27.832 C31.2333325,27.832 31.0916673,27.8404999 30.967,27.8575 C30.8423327,27.8745001 30.7205006,27.9056664 30.6015,27.951 C30.4824994,27.9963336 30.357834,28.0529997 30.2275,28.121 C30.097166,28.1890003 29.9526675,28.2739995 29.794,28.376 L28.672,27.662 L28.978,22.205 L35.098,22.205 L35.098,24.313 L31.137,24.313 L30.95,26.336 C31.154001,26.2453329 31.3494991,26.1801669 31.5365,26.1405 C31.7235009,26.1008331 31.9303322,26.081 32.157,26.081 C32.621669,26.081 33.0608313,26.1489993 33.4745,26.285 C33.8881687,26.4210007 34.2536651,26.6249986 34.571,26.897 C34.8883349,27.1690014 35.1376658,27.5146646 35.319,27.934 C35.5003342,28.3533354 35.591,28.8519971 35.591,29.43 C35.591,30.0306697 35.4833344,30.563331 35.268,31.028 C35.0526656,31.492669 34.7636685,31.8864984 34.401,32.2095 C34.0383315,32.5325016 33.6161691,32.7789992 33.1345,32.949 C32.6528309,33.1190008 32.1513359,33.204 31.63,33.204 Z M37.512,33 L37.512,24.568 L39.552,24.568 L39.722,25.656 L39.79,25.656 C40.1413351,25.3046649 40.5153313,25.0015013 40.912,24.7465 C41.3086687,24.4914987 41.7846639,24.364 42.34,24.364 C42.9406697,24.364 43.4251648,24.4858321 43.7935,24.7295 C44.1618352,24.9731679 44.4536656,25.3216644 44.669,25.775 C45.0430019,25.3896647 45.4368313,25.0581681 45.8505,24.7805 C46.2641687,24.5028319 46.7543305,24.364 47.321,24.364 C48.2276712,24.364 48.8934979,24.6671636 49.3185,25.2735 C49.7435021,25.8798364 49.956,26.7099947 49.956,27.764 L49.956,33 L47.457,33 L47.457,28.087 C47.457,27.4749969 47.3748342,27.0556678 47.2105,26.829 C47.0461658,26.6023322 46.7826685,26.489 46.42,26.489 C46.0006646,26.489 45.5190027,26.7609973 44.975,27.305 L44.975,33 L42.476,33 L42.476,28.087 C42.476,27.4749969 42.3938342,27.0556678 42.2295,26.829 C42.0651658,26.6023322 41.8016685,26.489 41.439,26.489 C41.0083312,26.489 40.5323359,26.7609973 40.011,27.305 L40.011,33 L37.512,33 Z M52.081,33 L52.081,24.568 L54.121,24.568 L54.291,25.656 L54.359,25.656 C54.7103351,25.3046649 55.0843313,25.0015013 55.481,24.7465 C55.8776687,24.4914987 56.3536639,24.364 56.909,24.364 C57.5096697,24.364 57.9941648,24.4858321 58.3625,24.7295 C58.7308352,24.9731679 59.0226656,25.3216644 59.238,25.775 C59.6120019,25.3896647 60.0058313,25.0581681 60.4195,24.7805 C60.8331687,24.5028319 61.3233305,24.364 61.89,24.364 C62.7966712,24.364 63.4624979,24.6671636 63.8875,25.2735 C64.3125021,25.8798364 64.525,26.7099947 64.525,27.764 L64.525,33 L62.026,33 L62.026,28.087 C62.026,27.4749969 61.9438342,27.0556678 61.7795,26.829 C61.6151658,26.6023322 61.3516685,26.489 60.989,26.489 C60.5696646,26.489 60.0880027,26.7609973 59.544,27.305 L59.544,33 L57.045,33 L57.045,28.087 C57.045,27.4749969 56.9628342,27.0556678 56.7985,26.829 C56.6341658,26.6023322 56.3706685,26.489 56.008,26.489 C55.5773312,26.489 55.1013359,26.7609973 54.58,27.305 L54.58,33 L52.081,33 Z" id="65mm" fill="#093169" fill-rule="nonzero" transform="translate(41.838500, 27.602500) rotate(-270.000000) translate(-41.838500, -27.602500) "></path>
            </g>
        </g>
    </g>
</svg>