<?xml version="1.0" encoding="UTF-8"?>
<svg width="600px" height="322px" viewBox="0 0 600 322" version="1.1" xmlns="http://www.w3.org/2000/svg" xmlns:xlink="http://www.w3.org/1999/xlink">
    <!-- Generator: Sketch 58 (84663) - https://sketch.com -->
    <title>stringsPlinths/A650</title>
    <desc>Created with Sketch.</desc>
    <g id="stringsPlinths/A650" stroke="none" stroke-width="1" fill="none" fill-rule="evenodd">
        <rect fill="#F5F9FF" x="0" y="0" width="600" height="322"></rect>
        <g id="Group" transform="translate(215.000000, 35.000000)">
            <polyline id="Path" stroke="#CBD8F2" fill="#FFFFFF" points="9.09494702e-13 83.8200409 16.7605634 67 102 67 102 184.5 16.7605634 184.5 9.09494702e-13 167.679959 9.09494702e-13 83.8200409"></polyline>
            <polyline id="Rectangle-Copy" stroke="#CBD8F2" points="0.17 52 0 37 102 37 102 52"></polyline>
            <path d="M24.657,17 L24.657,14.977 L27.003,14.977 L27.003,8.738 L24.98,8.738 L24.98,7.191 C25.5693363,7.0776661 26.067998,6.94166746 26.476,6.783 C26.884002,6.62433254 27.2806647,6.4316678 27.666,6.205 L29.502,6.205 L29.502,14.977 L31.525,14.977 L31.525,17 L24.657,17 Z M33.072,17 L33.072,15.572 L33.8730407,14.8171994 C34.2592799,14.4500002 34.6240983,14.0981017 34.9675,13.7615 C35.5398362,13.2004972 36.0328313,12.6735025 36.4465,12.1805 C36.8601687,11.6874975 37.1831655,11.2285021 37.4155,10.8035 C37.6478345,10.3784979 37.764,9.97333526 37.764,9.588 C37.764,9.05533067 37.6280014,8.65016805 37.356,8.3725 C37.0839986,8.09483194 36.7100024,7.956 36.234,7.956 C35.8373313,7.956 35.4860015,8.06649889 35.18,8.2875 C34.8739985,8.50850111 34.5850014,8.76633186 34.313,9.061 L32.953,7.718 C33.4856693,7.1513305 34.0296639,6.72350145 34.585,6.4345 C35.1403361,6.14549855 35.8033295,6.001 36.574,6.001 C37.1066693,6.001 37.5911645,6.08316584 38.0275,6.2475 C38.4638355,6.41183416 38.8406651,6.64416517 39.158,6.9445 C39.4753349,7.24483483 39.7189992,7.60466457 39.889,8.024 C40.0590008,8.44333543 40.144,8.91366406 40.144,9.435 C40.144,9.8883356 40.0476676,10.3501643 39.855,10.8205 C39.6623324,11.2908357 39.4045016,11.7611643 39.0815,12.2315 C38.7584984,12.7018357 38.3901687,13.1721643 37.9765,13.6425 C37.5628313,14.1128357 37.1350022,14.5746644 36.693,15.028 L37.1243749,14.979125 C37.2759578,14.9635417 37.4353325,14.9486667 37.6025,14.9345 C37.936835,14.9061665 38.234332,14.892 38.495,14.892 L40.671,14.892 L40.671,17 L33.072,17 Z M42.048,17 L42.048,15.572 L42.8490407,14.8171994 C43.2352799,14.4500002 43.6000983,14.0981017 43.9435,13.7615 C44.5158362,13.2004972 45.0088313,12.6735025 45.4225,12.1805 C45.8361687,11.6874975 46.1591655,11.2285021 46.3915,10.8035 C46.6238345,10.3784979 46.74,9.97333526 46.74,9.588 C46.74,9.05533067 46.6040014,8.65016805 46.332,8.3725 C46.0599986,8.09483194 45.6860024,7.956 45.21,7.956 C44.8133313,7.956 44.4620015,8.06649889 44.156,8.2875 C43.8499985,8.50850111 43.5610014,8.76633186 43.289,9.061 L41.929,7.718 C42.4616693,7.1513305 43.0056639,6.72350145 43.561,6.4345 C44.1163361,6.14549855 44.7793295,6.001 45.55,6.001 C46.0826693,6.001 46.5671645,6.08316584 47.0035,6.2475 C47.4398355,6.41183416 47.8166651,6.64416517 48.134,6.9445 C48.4513349,7.24483483 48.6949992,7.60466457 48.865,8.024 C49.0350009,8.44333543 49.12,8.91366406 49.12,9.435 C49.12,9.8883356 49.0236676,10.3501643 48.831,10.8205 C48.6383324,11.2908357 48.3805016,11.7611643 48.0575,12.2315 C47.7344984,12.7018357 47.3661687,13.1721643 46.9525,13.6425 C46.5388313,14.1128357 46.1110022,14.5746644 45.669,15.028 L46.1003749,14.979125 C46.2519578,14.9635417 46.4113325,14.9486667 46.5785,14.9345 C46.912835,14.9061665 47.210332,14.892 47.471,14.892 L49.647,14.892 L49.647,17 L42.048,17 Z M51.5,17 L51.5,8.568 L53.54,8.568 L53.71,9.656 L53.778,9.656 C54.1293351,9.30466491 54.5033314,9.00150127 54.9,8.7465 C55.2966687,8.49149872 55.7726639,8.364 56.328,8.364 C56.9286697,8.364 57.4131648,8.48583211 57.7815,8.7295 C58.1498352,8.97316788 58.4416656,9.3216644 58.657,9.775 C59.0310019,9.38966474 59.4248313,9.05816805 59.8385,8.7805 C60.2521687,8.50283194 60.7423305,8.364 61.309,8.364 C62.2156712,8.364 62.8814979,8.66716363 63.3065,9.2735 C63.7315021,9.87983636 63.944,10.7099947 63.944,11.764 L63.944,17 L61.445,17 L61.445,12.087 C61.445,11.4749969 61.3628342,11.0556678 61.1985,10.829 C61.0341658,10.6023322 60.7706685,10.489 60.408,10.489 C59.9886646,10.489 59.5070027,10.7609973 58.963,11.305 L58.963,17 L56.464,17 L56.464,12.087 C56.464,11.4749969 56.3818342,11.0556678 56.2175,10.829 C56.0531658,10.6023322 55.7896685,10.489 55.427,10.489 C54.9963312,10.489 54.5203359,10.7609973 53.999,11.305 L53.999,17 L51.5,17 Z M66.069,17 L66.069,8.568 L68.109,8.568 L68.279,9.656 L68.347,9.656 C68.6983351,9.30466491 69.0723314,9.00150127 69.469,8.7465 C69.8656687,8.49149872 70.3416639,8.364 70.897,8.364 C71.4976697,8.364 71.9821648,8.48583211 72.3505,8.7295 C72.7188352,8.97316788 73.0106656,9.3216644 73.226,9.775 C73.6000019,9.38966474 73.9938313,9.05816805 74.4075,8.7805 C74.8211687,8.50283194 75.3113305,8.364 75.878,8.364 C76.7846712,8.364 77.4504979,8.66716363 77.8755,9.2735 C78.3005021,9.87983636 78.513,10.7099947 78.513,11.764 L78.513,17 L76.014,17 L76.014,12.087 C76.014,11.4749969 75.9318342,11.0556678 75.7675,10.829 C75.6031658,10.6023322 75.3396685,10.489 74.977,10.489 C74.5576646,10.489 74.0760027,10.7609973 73.532,11.305 L73.532,17 L71.033,17 L71.033,12.087 C71.033,11.4749969 70.9508342,11.0556678 70.7865,10.829 C70.6221658,10.6023322 70.3586685,10.489 69.996,10.489 C69.5653312,10.489 69.0893359,10.7609973 68.568,11.305 L68.568,17 L66.069,17 Z" id="122mm" fill="#093169" fill-rule="nonzero"></path>
            <g id="Group-3" transform="translate(17.000000, 199.500000)">
                <polyline id="Rectangle-Copy-3" stroke="#CBD8F2" transform="translate(42.500000, 7.500000) rotate(-180.000000) translate(-42.500000, -7.500000) " points="0.141666667 15 0 0 85 0 85 15"></polyline>
                <path d="M15.657,47 L15.657,44.977 L18.003,44.977 L18.003,38.738 L15.98,38.738 L15.98,37.191 C16.5693363,37.0776661 17.067998,36.9416675 17.476,36.783 C17.884002,36.6243325 18.2806647,36.4316678 18.666,36.205 L20.502,36.205 L20.502,44.977 L22.525,44.977 L22.525,47 L15.657,47 Z M27.931,47.204 C27.3529971,47.204 26.8260024,47.0821679 26.35,46.8385 C25.8739976,46.5948321 25.468835,46.2350024 25.1345,45.759 C24.800165,45.2829976 24.5395009,44.6936702 24.3525,43.991 C24.1654991,43.2883298 24.072,42.4780046 24.072,41.56 C24.072,40.6419954 24.1654991,39.8373368 24.3525,39.146 C24.5395009,38.4546632 24.800165,37.8738357 25.1345,37.4035 C25.468835,36.9331643 25.8739976,36.5818345 26.35,36.3495 C26.8260024,36.1171655 27.3529971,36.001 27.931,36.001 C28.5090029,36.001 29.0359976,36.1171655 29.512,36.3495 C29.9880024,36.5818345 30.393165,36.9331643 30.7275,37.4035 C31.061835,37.8738357 31.3224991,38.4546632 31.5095,39.146 C31.6965009,39.8373368 31.79,40.6419954 31.79,41.56 C31.79,42.4780046 31.6965009,43.2883298 31.5095,43.991 C31.3224991,44.6936702 31.061835,45.2829976 30.7275,45.759 C30.393165,46.2350024 29.9880024,46.5948321 29.512,46.8385 C29.0359976,47.0821679 28.5090029,47.204 27.931,47.204 Z M27.931,45.266 C28.1463344,45.266 28.3446658,45.2121672 28.526,45.1045 C28.7073342,44.9968328 28.8659993,44.8013347 29.002,44.518 C29.1380007,44.2346652 29.242833,43.8550024 29.3165,43.379 C29.390167,42.9029976 29.427,42.2966703 29.427,41.56 C29.427,40.8233296 29.390167,40.2198357 29.3165,39.7495 C29.242833,39.2791643 29.1380007,38.9108347 29.002,38.6445 C28.8659993,38.3781653 28.7073342,38.1940005 28.526,38.092 C28.3446658,37.9899995 28.1463344,37.939 27.931,37.939 C27.726999,37.939 27.5343342,37.9899995 27.353,38.092 C27.1716658,38.1940005 27.0130007,38.3781653 26.877,38.6445 C26.7409993,38.9108347 26.6333337,39.2791643 26.554,39.7495 C26.4746663,40.2198357 26.435,40.8233296 26.435,41.56 C26.435,42.2966703 26.4746663,42.9029976 26.554,43.379 C26.6333337,43.8550024 26.7409993,44.2346652 26.877,44.518 C27.0130007,44.8013347 27.1716658,44.9968328 27.353,45.1045 C27.5343342,45.2121672 27.726999,45.266 27.931,45.266 Z M33.048,47 L33.048,45.572 L33.8490407,44.8171994 C34.2352799,44.4500002 34.6000983,44.0981017 34.9435,43.7615 C35.5158362,43.2004972 36.0088313,42.6735025 36.4225,42.1805 C36.8361687,41.6874975 37.1591655,41.2285021 37.3915,40.8035 C37.6238345,40.3784979 37.74,39.9733353 37.74,39.588 C37.74,39.0553307 37.6040014,38.6501681 37.332,38.3725 C37.0599986,38.0948319 36.6860024,37.956 36.21,37.956 C35.8133313,37.956 35.4620015,38.0664989 35.156,38.2875 C34.8499985,38.5085011 34.5610014,38.7663319 34.289,39.061 L32.929,37.718 C33.4616693,37.1513305 34.0056639,36.7235014 34.561,36.4345 C35.1163361,36.1454986 35.7793295,36.001 36.55,36.001 C37.0826693,36.001 37.5671645,36.0831658 38.0035,36.2475 C38.4398355,36.4118342 38.8166651,36.6441652 39.134,36.9445 C39.4513349,37.2448348 39.6949992,37.6046646 39.865,38.024 C40.0350009,38.4433354 40.12,38.9136641 40.12,39.435 C40.12,39.8883356 40.0236676,40.3501643 39.831,40.8205 C39.6383324,41.2908357 39.3805016,41.7611643 39.0575,42.2315 C38.7344984,42.7018357 38.3661687,43.1721643 37.9525,43.6425 C37.5388313,44.1128357 37.1110022,44.5746644 36.669,45.028 L37.1003749,44.979125 C37.2519578,44.9635417 37.4113325,44.9486667 37.5785,44.9345 C37.912835,44.9061665 38.210332,44.892 38.471,44.892 L40.647,44.892 L40.647,47 L33.048,47 Z M42.5,47 L42.5,38.568 L44.54,38.568 L44.71,39.656 L44.778,39.656 C45.1293351,39.3046649 45.5033314,39.0015013 45.9,38.7465 C46.2966687,38.4914987 46.7726639,38.364 47.328,38.364 C47.9286697,38.364 48.4131648,38.4858321 48.7815,38.7295 C49.1498352,38.9731679 49.4416656,39.3216644 49.657,39.775 C50.0310019,39.3896647 50.4248313,39.0581681 50.8385,38.7805 C51.2521687,38.5028319 51.7423305,38.364 52.309,38.364 C53.2156712,38.364 53.8814979,38.6671636 54.3065,39.2735 C54.7315021,39.8798364 54.944,40.7099947 54.944,41.764 L54.944,47 L52.445,47 L52.445,42.087 C52.445,41.4749969 52.3628342,41.0556678 52.1985,40.829 C52.0341658,40.6023322 51.7706685,40.489 51.408,40.489 C50.9886646,40.489 50.5070027,40.7609973 49.963,41.305 L49.963,47 L47.464,47 L47.464,42.087 C47.464,41.4749969 47.3818342,41.0556678 47.2175,40.829 C47.0531658,40.6023322 46.7896685,40.489 46.427,40.489 C45.9963312,40.489 45.5203359,40.7609973 44.999,41.305 L44.999,47 L42.5,47 Z M57.069,47 L57.069,38.568 L59.109,38.568 L59.279,39.656 L59.347,39.656 C59.6983351,39.3046649 60.0723314,39.0015013 60.469,38.7465 C60.8656687,38.4914987 61.3416639,38.364 61.897,38.364 C62.4976697,38.364 62.9821648,38.4858321 63.3505,38.7295 C63.7188352,38.9731679 64.0106656,39.3216644 64.226,39.775 C64.6000019,39.3896647 64.9938313,39.0581681 65.4075,38.7805 C65.8211687,38.5028319 66.3113305,38.364 66.878,38.364 C67.7846712,38.364 68.4504979,38.6671636 68.8755,39.2735 C69.3005021,39.8798364 69.513,40.7099947 69.513,41.764 L69.513,47 L67.014,47 L67.014,42.087 C67.014,41.4749969 66.9318342,41.0556678 66.7675,40.829 C66.6031658,40.6023322 66.3396685,40.489 65.977,40.489 C65.5576646,40.489 65.0760027,40.7609973 64.532,41.305 L64.532,47 L62.033,47 L62.033,42.087 C62.033,41.4749969 61.9508342,41.0556678 61.7865,40.829 C61.6221658,40.6023322 61.3586685,40.489 60.996,40.489 C60.5653312,40.489 60.0893359,40.7609973 59.568,41.305 L59.568,47 L57.069,47 Z" id="102mm" fill="#093169" fill-rule="nonzero" transform="translate(42.585000, 41.602500) rotate(-360.000000) translate(-42.585000, -41.602500) "></path>
            </g>
            <polyline id="Rectangle-Copy-2" stroke="#CBD8F2" transform="translate(124.500000, 126.500000) rotate(-270.000000) translate(-124.500000, -126.500000) " points="66.195 134 66 119 183 119 183 134"></polyline>
            <path d="M131.657,133 L131.657,130.977 L134.003,130.977 L134.003,124.738 L131.98,124.738 L131.98,123.191 C132.569336,123.077666 133.067998,122.941667 133.476,122.783 C133.884002,122.624333 134.280665,122.431668 134.666,122.205 L136.502,122.205 L136.502,130.977 L138.525,130.977 L138.525,133 L131.657,133 Z M144.441,133 L144.441,130.416 L139.766,130.416 L139.766,128.699 L143.71,122.205 L146.77,122.205 L146.77,128.512 L148.011,128.512 L148.011,130.416 L146.77,130.416 L146.77,133 L144.441,133 Z M142.163,128.512 L144.441,128.512 L144.441,126.761 C144.441,126.479932 144.448253,126.164414 144.46276,125.814441 L144.5158,124.78356 C144.524867,124.62852 144.533933,124.483001 144.543,124.347 L144.475,124.347 L144.05,125.248 L144.05,125.248 C143.902666,125.554002 143.749667,125.859998 143.591,126.166 L142.163,128.512 Z M152.907,133.204 C152.328997,133.204 151.802002,133.082168 151.326,132.8385 C150.849998,132.594832 150.444835,132.235002 150.1105,131.759 C149.776165,131.282998 149.515501,130.69367 149.3285,129.991 C149.141499,129.28833 149.048,128.478005 149.048,127.56 C149.048,126.641995 149.141499,125.837337 149.3285,125.146 C149.515501,124.454663 149.776165,123.873836 150.1105,123.4035 C150.444835,122.933164 150.849998,122.581834 151.326,122.3495 C151.802002,122.117166 152.328997,122.001 152.907,122.001 C153.485003,122.001 154.011998,122.117166 154.488,122.3495 C154.964002,122.581834 155.369165,122.933164 155.7035,123.4035 C156.037835,123.873836 156.298499,124.454663 156.4855,125.146 C156.672501,125.837337 156.766,126.641995 156.766,127.56 C156.766,128.478005 156.672501,129.28833 156.4855,129.991 C156.298499,130.69367 156.037835,131.282998 155.7035,131.759 C155.369165,132.235002 154.964002,132.594832 154.488,132.8385 C154.011998,133.082168 153.485003,133.204 152.907,133.204 Z M152.907,131.266 C153.122334,131.266 153.320666,131.212167 153.502,131.1045 C153.683334,130.996833 153.841999,130.801335 153.978,130.518 C154.114001,130.234665 154.218833,129.855002 154.2925,129.379 C154.366167,128.902998 154.403,128.29667 154.403,127.56 C154.403,126.82333 154.366167,126.219836 154.2925,125.7495 C154.218833,125.279164 154.114001,124.910835 153.978,124.6445 C153.841999,124.378165 153.683334,124.194001 153.502,124.092 C153.320666,123.989999 153.122334,123.939 152.907,123.939 C152.702999,123.939 152.510334,123.989999 152.329,124.092 C152.147666,124.194001 151.989001,124.378165 151.853,124.6445 C151.716999,124.910835 151.609334,125.279164 151.53,125.7495 C151.450666,126.219836 151.411,126.82333 151.411,127.56 C151.411,128.29667 151.450666,128.902998 151.53,129.379 C151.609334,129.855002 151.716999,130.234665 151.853,130.518 C151.989001,130.801335 152.147666,130.996833 152.329,131.1045 C152.510334,131.212167 152.702999,131.266 152.907,131.266 Z M158.5,133 L158.5,124.568 L160.54,124.568 L160.71,125.656 L160.778,125.656 C161.129335,125.304665 161.503331,125.001501 161.9,124.7465 C162.296669,124.491499 162.772664,124.364 163.328,124.364 C163.92867,124.364 164.413165,124.485832 164.7815,124.7295 C165.149835,124.973168 165.441666,125.321664 165.657,125.775 C166.031002,125.389665 166.424831,125.058168 166.8385,124.7805 C167.252169,124.502832 167.742331,124.364 168.309,124.364 C169.215671,124.364 169.881498,124.667164 170.3065,125.2735 C170.731502,125.879836 170.944,126.709995 170.944,127.764 L170.944,133 L168.445,133 L168.445,128.087 C168.445,127.474997 168.362834,127.055668 168.1985,126.829 C168.034166,126.602332 167.770668,126.489 167.408,126.489 C166.988665,126.489 166.507003,126.760997 165.963,127.305 L165.963,133 L163.464,133 L163.464,128.087 C163.464,127.474997 163.381834,127.055668 163.2175,126.829 C163.053166,126.602332 162.789668,126.489 162.427,126.489 C161.996331,126.489 161.520336,126.760997 160.999,127.305 L160.999,133 L158.5,133 Z M173.069,133 L173.069,124.568 L175.109,124.568 L175.279,125.656 L175.347,125.656 C175.698335,125.304665 176.072331,125.001501 176.469,124.7465 C176.865669,124.491499 177.341664,124.364 177.897,124.364 C178.49767,124.364 178.982165,124.485832 179.3505,124.7295 C179.718835,124.973168 180.010666,125.321664 180.226,125.775 C180.600002,125.389665 180.993831,125.058168 181.4075,124.7805 C181.821169,124.502832 182.31133,124.364 182.878,124.364 C183.784671,124.364 184.450498,124.667164 184.8755,125.2735 C185.300502,125.879836 185.513,126.709995 185.513,127.764 L185.513,133 L183.014,133 L183.014,128.087 C183.014,127.474997 182.931834,127.055668 182.7675,126.829 C182.603166,126.602332 182.339668,126.489 181.977,126.489 C181.557665,126.489 181.076003,126.760997 180.532,127.305 L180.532,133 L178.033,133 L178.033,128.087 C178.033,127.474997 177.950834,127.055668 177.7865,126.829 C177.622166,126.602332 177.358668,126.489 176.996,126.489 C176.565331,126.489 176.089336,126.760997 175.568,127.305 L175.568,133 L173.069,133 Z" id="140mm" fill="#093169" fill-rule="nonzero" transform="translate(158.585000, 127.602500) rotate(-270.000000) translate(-158.585000, -127.602500) "></path>
        </g>
    </g>
</svg>