<?xml version="1.0" encoding="UTF-8"?>
<svg width="600px" height="415px" viewBox="0 0 600 415" version="1.1" xmlns="http://www.w3.org/2000/svg" xmlns:xlink="http://www.w3.org/1999/xlink">
    <!-- Generator: Sketch 58 (84663) - https://sketch.com -->
    <title>stringsPlinths/A660</title>
    <desc>Created with Sketch.</desc>
    <g id="stringsPlinths/A660" stroke="none" stroke-width="1" fill="none" fill-rule="evenodd">
        <rect fill="#F5F9FF" x="0" y="0" width="600" height="415"></rect>
        <polyline id="Path" stroke="#CBD8F2" fill="#FFFFFF" points="215 118.668887 231.6604 102 317 102 317 282 231.6604 282 215 265.211193 215 118.668887"></polyline>
        <polyline id="Rectangle-Copy" stroke="#CBD8F2" points="216.17 87 216 72 318 72 318 87"></polyline>
        <path d="M240.657,52 L240.657,49.977 L243.003,49.977 L243.003,43.738 L240.98,43.738 L240.98,42.191 C241.569336,42.0776661 242.067998,41.9416675 242.476,41.783 C242.884002,41.6243325 243.280665,41.4316678 243.666,41.205 L245.502,41.205 L245.502,49.977 L247.525,49.977 L247.525,52 L240.657,52 Z M249.072,52 L249.072,50.572 L249.873041,49.8171994 C250.25928,49.4500002 250.624098,49.0981017 250.9675,48.7615 C251.539836,48.2004972 252.032831,47.6735025 252.4465,47.1805 C252.860169,46.6874975 253.183166,46.2285021 253.4155,45.8035 C253.647834,45.3784979 253.764,44.9733353 253.764,44.588 C253.764,44.0553307 253.628001,43.6501681 253.356,43.3725 C253.083999,43.0948319 252.710002,42.956 252.234,42.956 C251.837331,42.956 251.486002,43.0664989 251.18,43.2875 C250.873998,43.5085011 250.585001,43.7663319 250.313,44.061 L248.953,42.718 C249.485669,42.1513305 250.029664,41.7235014 250.585,41.4345 C251.140336,41.1454986 251.803329,41.001 252.574,41.001 C253.106669,41.001 253.591164,41.0831658 254.0275,41.2475 C254.463836,41.4118342 254.840665,41.6441652 255.158,41.9445 C255.475335,42.2448348 255.718999,42.6046646 255.889,43.024 C256.059001,43.4433354 256.144,43.9136641 256.144,44.435 C256.144,44.8883356 256.047668,45.3501643 255.855,45.8205 C255.662332,46.2908357 255.404502,46.7611643 255.0815,47.2315 C254.758498,47.7018357 254.390169,48.1721643 253.9765,48.6425 C253.562831,49.1128357 253.135002,49.5746644 252.693,50.028 L253.124375,49.979125 C253.275958,49.9635417 253.435332,49.9486667 253.6025,49.9345 C253.936835,49.9061665 254.234332,49.892 254.495,49.892 L256.671,49.892 L256.671,52 L249.072,52 Z M258.048,52 L258.048,50.572 L258.849041,49.8171994 C259.23528,49.4500002 259.600098,49.0981017 259.9435,48.7615 C260.515836,48.2004972 261.008831,47.6735025 261.4225,47.1805 C261.836169,46.6874975 262.159166,46.2285021 262.3915,45.8035 C262.623834,45.3784979 262.74,44.9733353 262.74,44.588 C262.74,44.0553307 262.604001,43.6501681 262.332,43.3725 C262.059999,43.0948319 261.686002,42.956 261.21,42.956 C260.813331,42.956 260.462002,43.0664989 260.156,43.2875 C259.849998,43.5085011 259.561001,43.7663319 259.289,44.061 L257.929,42.718 C258.461669,42.1513305 259.005664,41.7235014 259.561,41.4345 C260.116336,41.1454986 260.779329,41.001 261.55,41.001 C262.082669,41.001 262.567164,41.0831658 263.0035,41.2475 C263.439836,41.4118342 263.816665,41.6441652 264.134,41.9445 C264.451335,42.2448348 264.694999,42.6046646 264.865,43.024 C265.035001,43.4433354 265.12,43.9136641 265.12,44.435 C265.12,44.8883356 265.023668,45.3501643 264.831,45.8205 C264.638332,46.2908357 264.380502,46.7611643 264.0575,47.2315 C263.734498,47.7018357 263.366169,48.1721643 262.9525,48.6425 C262.538831,49.1128357 262.111002,49.5746644 261.669,50.028 L262.100375,49.979125 C262.251958,49.9635417 262.411332,49.9486667 262.5785,49.9345 C262.912835,49.9061665 263.210332,49.892 263.471,49.892 L265.647,49.892 L265.647,52 L258.048,52 Z M267.5,52 L267.5,43.568 L269.54,43.568 L269.71,44.656 L269.778,44.656 C270.129335,44.3046649 270.503331,44.0015013 270.9,43.7465 C271.296669,43.4914987 271.772664,43.364 272.328,43.364 C272.92867,43.364 273.413165,43.4858321 273.7815,43.7295 C274.149835,43.9731679 274.441666,44.3216644 274.657,44.775 C275.031002,44.3896647 275.424831,44.0581681 275.8385,43.7805 C276.252169,43.5028319 276.74233,43.364 277.309,43.364 C278.215671,43.364 278.881498,43.6671636 279.3065,44.2735 C279.731502,44.8798364 279.944,45.7099947 279.944,46.764 L279.944,52 L277.445,52 L277.445,47.087 C277.445,46.4749969 277.362834,46.0556678 277.1985,45.829 C277.034166,45.6023322 276.770668,45.489 276.408,45.489 C275.988665,45.489 275.507003,45.7609973 274.963,46.305 L274.963,52 L272.464,52 L272.464,47.087 C272.464,46.4749969 272.381834,46.0556678 272.2175,45.829 C272.053166,45.6023322 271.789668,45.489 271.427,45.489 C270.996331,45.489 270.520336,45.7609973 269.999,46.305 L269.999,52 L267.5,52 Z M282.069,52 L282.069,43.568 L284.109,43.568 L284.279,44.656 L284.347,44.656 C284.698335,44.3046649 285.072331,44.0015013 285.469,43.7465 C285.865669,43.4914987 286.341664,43.364 286.897,43.364 C287.49767,43.364 287.982165,43.4858321 288.3505,43.7295 C288.718835,43.9731679 289.010666,44.3216644 289.226,44.775 C289.600002,44.3896647 289.993831,44.0581681 290.4075,43.7805 C290.821169,43.5028319 291.31133,43.364 291.878,43.364 C292.784671,43.364 293.450498,43.6671636 293.8755,44.2735 C294.300502,44.8798364 294.513,45.7099947 294.513,46.764 L294.513,52 L292.014,52 L292.014,47.087 C292.014,46.4749969 291.931834,46.0556678 291.7675,45.829 C291.603166,45.6023322 291.339668,45.489 290.977,45.489 C290.557665,45.489 290.076003,45.7609973 289.532,46.305 L289.532,52 L287.033,52 L287.033,47.087 C287.033,46.4749969 286.950834,46.0556678 286.7865,45.829 C286.622166,45.6023322 286.358668,45.489 285.996,45.489 C285.565331,45.489 285.089336,45.7609973 284.568,46.305 L284.568,52 L282.069,52 Z" id="122mm" fill="#093169" fill-rule="nonzero"></path>
        <g id="Group-3" transform="translate(233.000000, 297.000000)">
            <polyline id="Rectangle-Copy-3" stroke="#CBD8F2" transform="translate(42.500000, 7.500000) rotate(-180.000000) translate(-42.500000, -7.500000) " points="0.141666667 15 0 0 85 0 85 15"></polyline>
            <path d="M15.657,47 L15.657,44.977 L18.003,44.977 L18.003,38.738 L15.98,38.738 L15.98,37.191 C16.5693363,37.0776661 17.067998,36.9416675 17.476,36.783 C17.884002,36.6243325 18.2806647,36.4316678 18.666,36.205 L20.502,36.205 L20.502,44.977 L22.525,44.977 L22.525,47 L15.657,47 Z M27.931,47.204 C27.3529971,47.204 26.8260024,47.0821679 26.35,46.8385 C25.8739976,46.5948321 25.468835,46.2350024 25.1345,45.759 C24.800165,45.2829976 24.5395009,44.6936702 24.3525,43.991 C24.1654991,43.2883298 24.072,42.4780046 24.072,41.56 C24.072,40.6419954 24.1654991,39.8373368 24.3525,39.146 C24.5395009,38.4546632 24.800165,37.8738357 25.1345,37.4035 C25.468835,36.9331643 25.8739976,36.5818345 26.35,36.3495 C26.8260024,36.1171655 27.3529971,36.001 27.931,36.001 C28.5090029,36.001 29.0359976,36.1171655 29.512,36.3495 C29.9880024,36.5818345 30.393165,36.9331643 30.7275,37.4035 C31.061835,37.8738357 31.3224991,38.4546632 31.5095,39.146 C31.6965009,39.8373368 31.79,40.6419954 31.79,41.56 C31.79,42.4780046 31.6965009,43.2883298 31.5095,43.991 C31.3224991,44.6936702 31.061835,45.2829976 30.7275,45.759 C30.393165,46.2350024 29.9880024,46.5948321 29.512,46.8385 C29.0359976,47.0821679 28.5090029,47.204 27.931,47.204 Z M27.931,45.266 C28.1463344,45.266 28.3446658,45.2121672 28.526,45.1045 C28.7073342,44.9968328 28.8659993,44.8013347 29.002,44.518 C29.1380007,44.2346652 29.242833,43.8550024 29.3165,43.379 C29.390167,42.9029976 29.427,42.2966703 29.427,41.56 C29.427,40.8233296 29.390167,40.2198357 29.3165,39.7495 C29.242833,39.2791643 29.1380007,38.9108347 29.002,38.6445 C28.8659993,38.3781653 28.7073342,38.1940005 28.526,38.092 C28.3446658,37.9899995 28.1463344,37.939 27.931,37.939 C27.726999,37.939 27.5343342,37.9899995 27.353,38.092 C27.1716658,38.1940005 27.0130007,38.3781653 26.877,38.6445 C26.7409993,38.9108347 26.6333337,39.2791643 26.554,39.7495 C26.4746663,40.2198357 26.435,40.8233296 26.435,41.56 C26.435,42.2966703 26.4746663,42.9029976 26.554,43.379 C26.6333337,43.8550024 26.7409993,44.2346652 26.877,44.518 C27.0130007,44.8013347 27.1716658,44.9968328 27.353,45.1045 C27.5343342,45.2121672 27.726999,45.266 27.931,45.266 Z M33.048,47 L33.048,45.572 L33.8490407,44.8171994 C34.2352799,44.4500002 34.6000983,44.0981017 34.9435,43.7615 C35.5158362,43.2004972 36.0088313,42.6735025 36.4225,42.1805 C36.8361687,41.6874975 37.1591655,41.2285021 37.3915,40.8035 C37.6238345,40.3784979 37.74,39.9733353 37.74,39.588 C37.74,39.0553307 37.6040014,38.6501681 37.332,38.3725 C37.0599986,38.0948319 36.6860024,37.956 36.21,37.956 C35.8133313,37.956 35.4620015,38.0664989 35.156,38.2875 C34.8499985,38.5085011 34.5610014,38.7663319 34.289,39.061 L32.929,37.718 C33.4616693,37.1513305 34.0056639,36.7235014 34.561,36.4345 C35.1163361,36.1454986 35.7793295,36.001 36.55,36.001 C37.0826693,36.001 37.5671645,36.0831658 38.0035,36.2475 C38.4398355,36.4118342 38.8166651,36.6441652 39.134,36.9445 C39.4513349,37.2448348 39.6949992,37.6046646 39.865,38.024 C40.0350009,38.4433354 40.12,38.9136641 40.12,39.435 C40.12,39.8883356 40.0236676,40.3501643 39.831,40.8205 C39.6383324,41.2908357 39.3805016,41.7611643 39.0575,42.2315 C38.7344984,42.7018357 38.3661687,43.1721643 37.9525,43.6425 C37.5388313,44.1128357 37.1110022,44.5746644 36.669,45.028 L37.1003749,44.979125 C37.2519578,44.9635417 37.4113325,44.9486667 37.5785,44.9345 C37.912835,44.9061665 38.210332,44.892 38.471,44.892 L40.647,44.892 L40.647,47 L33.048,47 Z M42.5,47 L42.5,38.568 L44.54,38.568 L44.71,39.656 L44.778,39.656 C45.1293351,39.3046649 45.5033314,39.0015013 45.9,38.7465 C46.2966687,38.4914987 46.7726639,38.364 47.328,38.364 C47.9286697,38.364 48.4131648,38.4858321 48.7815,38.7295 C49.1498352,38.9731679 49.4416656,39.3216644 49.657,39.775 C50.0310019,39.3896647 50.4248313,39.0581681 50.8385,38.7805 C51.2521687,38.5028319 51.7423305,38.364 52.309,38.364 C53.2156712,38.364 53.8814979,38.6671636 54.3065,39.2735 C54.7315021,39.8798364 54.944,40.7099947 54.944,41.764 L54.944,47 L52.445,47 L52.445,42.087 C52.445,41.4749969 52.3628342,41.0556678 52.1985,40.829 C52.0341658,40.6023322 51.7706685,40.489 51.408,40.489 C50.9886646,40.489 50.5070027,40.7609973 49.963,41.305 L49.963,47 L47.464,47 L47.464,42.087 C47.464,41.4749969 47.3818342,41.0556678 47.2175,40.829 C47.0531658,40.6023322 46.7896685,40.489 46.427,40.489 C45.9963312,40.489 45.5203359,40.7609973 44.999,41.305 L44.999,47 L42.5,47 Z M57.069,47 L57.069,38.568 L59.109,38.568 L59.279,39.656 L59.347,39.656 C59.6983351,39.3046649 60.0723314,39.0015013 60.469,38.7465 C60.8656687,38.4914987 61.3416639,38.364 61.897,38.364 C62.4976697,38.364 62.9821648,38.4858321 63.3505,38.7295 C63.7188352,38.9731679 64.0106656,39.3216644 64.226,39.775 C64.6000019,39.3896647 64.9938313,39.0581681 65.4075,38.7805 C65.8211687,38.5028319 66.3113305,38.364 66.878,38.364 C67.7846712,38.364 68.4504979,38.6671636 68.8755,39.2735 C69.3005021,39.8798364 69.513,40.7099947 69.513,41.764 L69.513,47 L67.014,47 L67.014,42.087 C67.014,41.4749969 66.9318342,41.0556678 66.7675,40.829 C66.6031658,40.6023322 66.3396685,40.489 65.977,40.489 C65.5576646,40.489 65.0760027,40.7609973 64.532,41.305 L64.532,47 L62.033,47 L62.033,42.087 C62.033,41.4749969 61.9508342,41.0556678 61.7865,40.829 C61.6221658,40.6023322 61.3586685,40.489 60.996,40.489 C60.5653312,40.489 60.0893359,40.7609973 59.568,41.305 L59.568,47 L57.069,47 Z" id="102mm" fill="#093169" fill-rule="nonzero" transform="translate(42.585000, 41.602500) rotate(-360.000000) translate(-42.585000, -41.602500) "></path>
        </g>
        <polyline id="Rectangle-Copy-2" stroke="#CBD8F2" transform="translate(339.500000, 192.500000) rotate(-270.000000) translate(-339.500000, -192.500000) " points="249.8 200 249.5 185 429.5 185 429.5 200"></polyline>
        <path d="M345.596,199 L345.596,197.572 L346.397041,196.817199 C346.78328,196.45 347.148098,196.098102 347.4915,195.7615 C348.063836,195.200497 348.556831,194.673502 348.9705,194.1805 C349.384169,193.687498 349.707166,193.228502 349.9395,192.8035 C350.171834,192.378498 350.288,191.973335 350.288,191.588 C350.288,191.055331 350.152001,190.650168 349.88,190.3725 C349.607999,190.094832 349.234002,189.956 348.758,189.956 C348.361331,189.956 348.010002,190.066499 347.704,190.2875 C347.397998,190.508501 347.109001,190.766332 346.837,191.061 L345.477,189.718 C346.009669,189.151331 346.553664,188.723501 347.109,188.4345 C347.664336,188.145499 348.327329,188.001 349.098,188.001 C349.630669,188.001 350.115164,188.083166 350.5515,188.2475 C350.987836,188.411834 351.364665,188.644165 351.682,188.9445 C351.999335,189.244835 352.242999,189.604665 352.413,190.024 C352.583001,190.443335 352.668,190.913664 352.668,191.435 C352.668,191.888336 352.571668,192.350164 352.379,192.8205 C352.186332,193.290836 351.928502,193.761164 351.6055,194.2315 C351.282498,194.701836 350.914169,195.172164 350.5005,195.6425 C350.086831,196.112836 349.659002,196.574664 349.217,197.028 L349.648375,196.979125 C349.799958,196.963542 349.959332,196.948667 350.1265,196.9345 C350.460835,196.906167 350.758332,196.892 351.019,196.892 L353.195,196.892 L353.195,199 L345.596,199 Z M355.133,199 L355.133,196.977 L357.479,196.977 L357.479,190.738 L355.456,190.738 L355.456,189.191 C356.045336,189.077666 356.543998,188.941667 356.952,188.783 C357.360002,188.624333 357.756665,188.431668 358.142,188.205 L359.978,188.205 L359.978,196.977 L362.001,196.977 L362.001,199 L355.133,199 Z M367.118,199.204 C366.233996,199.204 365.486003,199.059501 364.874,198.7705 C364.261997,198.481499 363.740669,198.121669 363.31,197.691 L364.432,196.11 C364.760668,196.404668 365.114831,196.656832 365.4945,196.8665 C365.874169,197.076168 366.296331,197.181 366.761,197.181 C367.316336,197.181 367.758332,197.039335 368.087,196.756 C368.415668,196.472665 368.58,196.053336 368.58,195.498 C368.58,194.953997 368.424168,194.540335 368.1125,194.257 C367.800832,193.973665 367.390003,193.832 366.88,193.832 C366.721333,193.832 366.579667,193.8405 366.455,193.8575 C366.330333,193.8745 366.208501,193.905666 366.0895,193.951 C365.970499,193.996334 365.845834,194.053 365.7155,194.121 C365.585166,194.189 365.440667,194.273999 365.282,194.376 L364.16,193.662 L364.466,188.205 L370.586,188.205 L370.586,190.313 L366.625,190.313 L366.438,192.336 C366.642001,192.245333 366.837499,192.180167 367.0245,192.1405 C367.211501,192.100833 367.418332,192.081 367.645,192.081 C368.109669,192.081 368.548831,192.148999 368.9625,192.285 C369.376169,192.421001 369.741665,192.624999 370.059,192.897 C370.376335,193.169001 370.625666,193.514665 370.807,193.934 C370.988334,194.353335 371.079,194.851997 371.079,195.43 C371.079,196.03067 370.971334,196.563331 370.756,197.028 C370.540666,197.492669 370.251668,197.886498 369.889,198.2095 C369.526332,198.532502 369.104169,198.778999 368.6225,198.949 C368.140831,199.119001 367.639336,199.204 367.118,199.204 Z M373,199 L373,190.568 L375.04,190.568 L375.21,191.656 L375.278,191.656 C375.629335,191.304665 376.003331,191.001501 376.4,190.7465 C376.796669,190.491499 377.272664,190.364 377.828,190.364 C378.42867,190.364 378.913165,190.485832 379.2815,190.7295 C379.649835,190.973168 379.941666,191.321664 380.157,191.775 C380.531002,191.389665 380.924831,191.058168 381.3385,190.7805 C381.752169,190.502832 382.24233,190.364 382.809,190.364 C383.715671,190.364 384.381498,190.667164 384.8065,191.2735 C385.231502,191.879836 385.444,192.709995 385.444,193.764 L385.444,199 L382.945,199 L382.945,194.087 C382.945,193.474997 382.862834,193.055668 382.6985,192.829 C382.534166,192.602332 382.270668,192.489 381.908,192.489 C381.488665,192.489 381.007003,192.760997 380.463,193.305 L380.463,199 L377.964,199 L377.964,194.087 C377.964,193.474997 377.881834,193.055668 377.7175,192.829 C377.553166,192.602332 377.289668,192.489 376.927,192.489 C376.496331,192.489 376.020336,192.760997 375.499,193.305 L375.499,199 L373,199 Z M387.569,199 L387.569,190.568 L389.609,190.568 L389.779,191.656 L389.847,191.656 C390.198335,191.304665 390.572331,191.001501 390.969,190.7465 C391.365669,190.491499 391.841664,190.364 392.397,190.364 C392.99767,190.364 393.482165,190.485832 393.8505,190.7295 C394.218835,190.973168 394.510666,191.321664 394.726,191.775 C395.100002,191.389665 395.493831,191.058168 395.9075,190.7805 C396.321169,190.502832 396.81133,190.364 397.378,190.364 C398.284671,190.364 398.950498,190.667164 399.3755,191.2735 C399.800502,191.879836 400.013,192.709995 400.013,193.764 L400.013,199 L397.514,199 L397.514,194.087 C397.514,193.474997 397.431834,193.055668 397.2675,192.829 C397.103166,192.602332 396.839668,192.489 396.477,192.489 C396.057665,192.489 395.576003,192.760997 395.032,193.305 L395.032,199 L392.533,199 L392.533,194.087 C392.533,193.474997 392.450834,193.055668 392.2865,192.829 C392.122166,192.602332 391.858668,192.489 391.496,192.489 C391.065331,192.489 390.589336,192.760997 390.068,193.305 L390.068,199 L387.569,199 Z" id="215mm" fill="#093169" fill-rule="nonzero" transform="translate(372.745000, 193.602500) rotate(-270.000000) translate(-372.745000, -193.602500) "></path>
    </g>
</svg>