<?xml version="1.0" encoding="UTF-8"?>
<svg width="600px" height="374px" viewBox="0 0 600 374" version="1.1" xmlns="http://www.w3.org/2000/svg" xmlns:xlink="http://www.w3.org/1999/xlink">
    <!-- Generator: Sketch 58 (84663) - https://sketch.com -->
    <title>stringsPlinths/A800</title>
    <desc>Created with Sketch.</desc>
    <g id="stringsPlinths/A800" stroke="none" stroke-width="1" fill="none" fill-rule="evenodd">
        <rect fill="#F5F9FF" x="0" y="0" width="600" height="374"></rect>
        <g id="Group" transform="translate(204.000000, 25.000000)">
            <polygon id="Path" stroke="#CBD8F2" fill="#FFFFFF" points="41.76 67 125.76 67 125.76 247 1.0658141e-13 247 1.0658141e-13 108.907939"></polygon>
            <polyline id="Rectangle-Copy" stroke="#CBD8F2" points="42.14 52 42 37 126 37 126 52"></polyline>
            <path d="M57.657,17 L57.657,14.977 L60.003,14.977 L60.003,8.738 L57.98,8.738 L57.98,7.191 C58.5693363,7.0776661 59.067998,6.94166746 59.476,6.783 C59.884002,6.62433254 60.2806647,6.4316678 60.666,6.205 L62.502,6.205 L62.502,14.977 L64.525,14.977 L64.525,17 L57.657,17 Z M69.931,17.204 C69.3529971,17.204 68.8260024,17.0821679 68.35,16.8385 C67.8739976,16.5948321 67.468835,16.2350024 67.1345,15.759 C66.800165,15.2829976 66.5395009,14.6936702 66.3525,13.991 C66.1654991,13.2883298 66.072,12.4780046 66.072,11.56 C66.072,10.6419954 66.1654991,9.83733679 66.3525,9.146 C66.5395009,8.45466321 66.800165,7.87383568 67.1345,7.4035 C67.468835,6.93316431 67.8739976,6.58183449 68.35,6.3495 C68.8260024,6.1171655 69.3529971,6.001 69.931,6.001 C70.5090029,6.001 71.0359976,6.1171655 71.512,6.3495 C71.9880024,6.58183449 72.393165,6.93316431 72.7275,7.4035 C73.061835,7.87383568 73.3224991,8.45466321 73.5095,9.146 C73.6965009,9.83733679 73.79,10.6419954 73.79,11.56 C73.79,12.4780046 73.6965009,13.2883298 73.5095,13.991 C73.3224991,14.6936702 73.061835,15.2829976 72.7275,15.759 C72.393165,16.2350024 71.9880024,16.5948321 71.512,16.8385 C71.0359976,17.0821679 70.5090029,17.204 69.931,17.204 Z M69.931,15.266 C70.1463344,15.266 70.3446658,15.2121672 70.526,15.1045 C70.7073342,14.9968328 70.8659993,14.8013347 71.002,14.518 C71.1380007,14.2346652 71.242833,13.8550024 71.3165,13.379 C71.390167,12.9029976 71.427,12.2966703 71.427,11.56 C71.427,10.8233296 71.390167,10.2198357 71.3165,9.7495 C71.242833,9.27916431 71.1380007,8.91083466 71.002,8.6445 C70.8659993,8.37816533 70.7073342,8.19400051 70.526,8.092 C70.3446658,7.98999949 70.1463344,7.939 69.931,7.939 C69.726999,7.939 69.5343342,7.98999949 69.353,8.092 C69.1716658,8.19400051 69.0130007,8.37816533 68.877,8.6445 C68.7409993,8.91083466 68.6333337,9.27916431 68.554,9.7495 C68.4746663,10.2198357 68.435,10.8233296 68.435,11.56 C68.435,12.2966703 68.4746663,12.9029976 68.554,13.379 C68.6333337,13.8550024 68.7409993,14.2346652 68.877,14.518 C69.0130007,14.8013347 69.1716658,14.9968328 69.353,15.1045 C69.5343342,15.2121672 69.726999,15.266 69.931,15.266 Z M78.907,17.204 C78.3289971,17.204 77.8020024,17.0821679 77.326,16.8385 C76.8499976,16.5948321 76.444835,16.2350024 76.1105,15.759 C75.776165,15.2829976 75.5155009,14.6936702 75.3285,13.991 C75.1414991,13.2883298 75.048,12.4780046 75.048,11.56 C75.048,10.6419954 75.1414991,9.83733679 75.3285,9.146 C75.5155009,8.45466321 75.776165,7.87383568 76.1105,7.4035 C76.444835,6.93316431 76.8499976,6.58183449 77.326,6.3495 C77.8020024,6.1171655 78.3289971,6.001 78.907,6.001 C79.4850029,6.001 80.0119976,6.1171655 80.488,6.3495 C80.9640024,6.58183449 81.369165,6.93316431 81.7035,7.4035 C82.037835,7.87383568 82.2984991,8.45466321 82.4855,9.146 C82.6725009,9.83733679 82.766,10.6419954 82.766,11.56 C82.766,12.4780046 82.6725009,13.2883298 82.4855,13.991 C82.2984991,14.6936702 82.037835,15.2829976 81.7035,15.759 C81.369165,16.2350024 80.9640024,16.5948321 80.488,16.8385 C80.0119976,17.0821679 79.4850029,17.204 78.907,17.204 Z M78.907,15.266 C79.1223344,15.266 79.3206658,15.2121672 79.502,15.1045 C79.6833342,14.9968328 79.8419993,14.8013347 79.978,14.518 C80.1140007,14.2346652 80.218833,13.8550024 80.2925,13.379 C80.366167,12.9029976 80.403,12.2966703 80.403,11.56 C80.403,10.8233296 80.366167,10.2198357 80.2925,9.7495 C80.218833,9.27916431 80.1140007,8.91083466 79.978,8.6445 C79.8419993,8.37816533 79.6833342,8.19400051 79.502,8.092 C79.3206658,7.98999949 79.1223344,7.939 78.907,7.939 C78.702999,7.939 78.5103342,7.98999949 78.329,8.092 C78.1476658,8.19400051 77.9890007,8.37816533 77.853,8.6445 C77.7169993,8.91083466 77.6093337,9.27916431 77.53,9.7495 C77.4506663,10.2198357 77.411,10.8233296 77.411,11.56 C77.411,12.2966703 77.4506663,12.9029976 77.53,13.379 C77.6093337,13.8550024 77.7169993,14.2346652 77.853,14.518 C77.9890007,14.8013347 78.1476658,14.9968328 78.329,15.1045 C78.5103342,15.2121672 78.702999,15.266 78.907,15.266 Z M84.5,17 L84.5,8.568 L86.54,8.568 L86.71,9.656 L86.778,9.656 C87.1293351,9.30466491 87.5033313,9.00150127 87.9,8.7465 C88.2966687,8.49149872 88.7726639,8.364 89.328,8.364 C89.9286697,8.364 90.4131648,8.48583211 90.7815,8.7295 C91.1498352,8.97316788 91.4416656,9.3216644 91.657,9.775 C92.0310019,9.38966474 92.4248313,9.05816805 92.8385,8.7805 C93.2521687,8.50283194 93.7423305,8.364 94.309,8.364 C95.2156712,8.364 95.8814979,8.66716363 96.3065,9.2735 C96.7315021,9.87983636 96.944,10.7099947 96.944,11.764 L96.944,17 L94.445,17 L94.445,12.087 C94.445,11.4749969 94.3628342,11.0556678 94.1985,10.829 C94.0341658,10.6023322 93.7706685,10.489 93.408,10.489 C92.9886646,10.489 92.5070027,10.7609973 91.963,11.305 L91.963,17 L89.464,17 L89.464,12.087 C89.464,11.4749969 89.3818342,11.0556678 89.2175,10.829 C89.0531658,10.6023322 88.7896685,10.489 88.427,10.489 C87.9963312,10.489 87.5203359,10.7609973 86.999,11.305 L86.999,17 L84.5,17 Z M99.069,17 L99.069,8.568 L101.109,8.568 L101.279,9.656 L101.347,9.656 C101.698335,9.30466491 102.072331,9.00150127 102.469,8.7465 C102.865669,8.49149872 103.341664,8.364 103.897,8.364 C104.49767,8.364 104.982165,8.48583211 105.3505,8.7295 C105.718835,8.97316788 106.010666,9.3216644 106.226,9.775 C106.600002,9.38966474 106.993831,9.05816805 107.4075,8.7805 C107.821169,8.50283194 108.311331,8.364 108.878,8.364 C109.784671,8.364 110.450498,8.66716363 110.8755,9.2735 C111.300502,9.87983636 111.513,10.7099947 111.513,11.764 L111.513,17 L109.014,17 L109.014,12.087 C109.014,11.4749969 108.931834,11.0556678 108.7675,10.829 C108.603166,10.6023322 108.339668,10.489 107.977,10.489 C107.557665,10.489 107.076003,10.7609973 106.532,11.305 L106.532,17 L104.033,17 L104.033,12.087 C104.033,11.4749969 103.950834,11.0556678 103.7865,10.829 C103.622166,10.6023322 103.358668,10.489 102.996,10.489 C102.565331,10.489 102.089336,10.7609973 101.568,11.305 L101.568,17 L99.069,17 Z" id="100mm" fill="#093169" fill-rule="nonzero"></path>
            <polyline id="Rectangle-Copy-3" stroke="#CBD8F2" transform="translate(63.000000, 269.500000) rotate(-180.000000) translate(-63.000000, -269.500000) " points="0.21 277 0 262 126 262 126 277"></polyline>
            <path d="M36.657,309 L36.657,306.977 L39.003,306.977 L39.003,300.738 L36.98,300.738 L36.98,299.191 C37.5693363,299.077666 38.067998,298.941667 38.476,298.783 C38.884002,298.624333 39.2806647,298.431668 39.666,298.205 L41.502,298.205 L41.502,306.977 L43.525,306.977 L43.525,309 L36.657,309 Z M48.642,309.204 C47.7579956,309.204 47.0100031,309.059501 46.398,308.7705 C45.7859969,308.481499 45.2646688,308.121669 44.834,307.691 L45.956,306.11 C46.2846683,306.404668 46.6388314,306.656832 47.0185,306.8665 C47.3981686,307.076168 47.820331,307.181 48.285,307.181 C48.8403361,307.181 49.2823317,307.039335 49.611,306.756 C49.9396683,306.472665 50.104,306.053336 50.104,305.498 C50.104,304.953997 49.9481682,304.540335 49.6365,304.257 C49.3248318,303.973665 48.9140025,303.832 48.404,303.832 C48.2453325,303.832 48.1036673,303.8405 47.979,303.8575 C47.8543327,303.8745 47.7325006,303.905666 47.6135,303.951 C47.4944994,303.996334 47.369834,304.053 47.2395,304.121 C47.109166,304.189 46.9646675,304.273999 46.806,304.376 L45.684,303.662 L45.99,298.205 L52.11,298.205 L52.11,300.313 L48.149,300.313 L47.962,302.336 C48.166001,302.245333 48.3614991,302.180167 48.5485,302.1405 C48.7355009,302.100833 48.9423322,302.081 49.169,302.081 C49.633669,302.081 50.0728313,302.148999 50.4865,302.285 C50.9001687,302.421001 51.2656651,302.624999 51.583,302.897 C51.9003349,303.169001 52.1496658,303.514665 52.331,303.934 C52.5123342,304.353335 52.603,304.851997 52.603,305.43 C52.603,306.03067 52.4953344,306.563331 52.28,307.028 C52.0646656,307.492669 51.7756685,307.886498 51.413,308.2095 C51.0503315,308.532502 50.6281691,308.778999 50.1465,308.949 C49.6648309,309.119001 49.1633359,309.204 48.642,309.204 Z M57.907,309.204 C57.3289971,309.204 56.8020024,309.082168 56.326,308.8385 C55.8499976,308.594832 55.444835,308.235002 55.1105,307.759 C54.776165,307.282998 54.5155009,306.69367 54.3285,305.991 C54.1414991,305.28833 54.048,304.478005 54.048,303.56 C54.048,302.641995 54.1414991,301.837337 54.3285,301.146 C54.5155009,300.454663 54.776165,299.873836 55.1105,299.4035 C55.444835,298.933164 55.8499976,298.581834 56.326,298.3495 C56.8020024,298.117166 57.3289971,298.001 57.907,298.001 C58.4850029,298.001 59.0119976,298.117166 59.488,298.3495 C59.9640024,298.581834 60.369165,298.933164 60.7035,299.4035 C61.037835,299.873836 61.2984991,300.454663 61.4855,301.146 C61.6725009,301.837337 61.766,302.641995 61.766,303.56 C61.766,304.478005 61.6725009,305.28833 61.4855,305.991 C61.2984991,306.69367 61.037835,307.282998 60.7035,307.759 C60.369165,308.235002 59.9640024,308.594832 59.488,308.8385 C59.0119976,309.082168 58.4850029,309.204 57.907,309.204 Z M57.907,307.266 C58.1223344,307.266 58.3206658,307.212167 58.502,307.1045 C58.6833342,306.996833 58.8419993,306.801335 58.978,306.518 C59.1140007,306.234665 59.218833,305.855002 59.2925,305.379 C59.366167,304.902998 59.403,304.29667 59.403,303.56 C59.403,302.82333 59.366167,302.219836 59.2925,301.7495 C59.218833,301.279164 59.1140007,300.910835 58.978,300.6445 C58.8419993,300.378165 58.6833342,300.194001 58.502,300.092 C58.3206658,299.989999 58.1223344,299.939 57.907,299.939 C57.702999,299.939 57.5103342,299.989999 57.329,300.092 C57.1476658,300.194001 56.9890007,300.378165 56.853,300.6445 C56.7169993,300.910835 56.6093337,301.279164 56.53,301.7495 C56.4506663,302.219836 56.411,302.82333 56.411,303.56 C56.411,304.29667 56.4506663,304.902998 56.53,305.379 C56.6093337,305.855002 56.7169993,306.234665 56.853,306.518 C56.9890007,306.801335 57.1476658,306.996833 57.329,307.1045 C57.5103342,307.212167 57.702999,307.266 57.907,307.266 Z M63.5,309 L63.5,300.568 L65.54,300.568 L65.71,301.656 L65.778,301.656 C66.1293351,301.304665 66.5033313,301.001501 66.9,300.7465 C67.2966687,300.491499 67.7726639,300.364 68.328,300.364 C68.9286697,300.364 69.4131648,300.485832 69.7815,300.7295 C70.1498352,300.973168 70.4416656,301.321664 70.657,301.775 C71.0310019,301.389665 71.4248313,301.058168 71.8385,300.7805 C72.2521687,300.502832 72.7423305,300.364 73.309,300.364 C74.2156712,300.364 74.8814979,300.667164 75.3065,301.2735 C75.7315021,301.879836 75.944,302.709995 75.944,303.764 L75.944,309 L73.445,309 L73.445,304.087 C73.445,303.474997 73.3628342,303.055668 73.1985,302.829 C73.0341658,302.602332 72.7706685,302.489 72.408,302.489 C71.9886646,302.489 71.5070027,302.760997 70.963,303.305 L70.963,309 L68.464,309 L68.464,304.087 C68.464,303.474997 68.3818342,303.055668 68.2175,302.829 C68.0531658,302.602332 67.7896685,302.489 67.427,302.489 C66.9963312,302.489 66.5203359,302.760997 65.999,303.305 L65.999,309 L63.5,309 Z M78.069,309 L78.069,300.568 L80.109,300.568 L80.279,301.656 L80.347,301.656 C80.6983351,301.304665 81.0723314,301.001501 81.469,300.7465 C81.8656687,300.491499 82.3416639,300.364 82.897,300.364 C83.4976697,300.364 83.9821648,300.485832 84.3505,300.7295 C84.7188352,300.973168 85.0106656,301.321664 85.226,301.775 C85.6000019,301.389665 85.9938313,301.058168 86.4075,300.7805 C86.8211687,300.502832 87.3113305,300.364 87.878,300.364 C88.7846712,300.364 89.4504979,300.667164 89.8755,301.2735 C90.3005021,301.879836 90.513,302.709995 90.513,303.764 L90.513,309 L88.014,309 L88.014,304.087 C88.014,303.474997 87.9318342,303.055668 87.7675,302.829 C87.6031658,302.602332 87.3396685,302.489 86.977,302.489 C86.5576646,302.489 86.0760027,302.760997 85.532,303.305 L85.532,309 L83.033,309 L83.033,304.087 C83.033,303.474997 82.9508342,303.055668 82.7865,302.829 C82.6221658,302.602332 82.3586685,302.489 81.996,302.489 C81.5653312,302.489 81.0893359,302.760997 80.568,303.305 L80.568,309 L78.069,309 Z" id="150mm" fill="#093169" fill-rule="nonzero" transform="translate(63.585000, 303.602500) rotate(-360.000000) translate(-63.585000, -303.602500) "></path>
            <polyline id="Rectangle-Copy-2" stroke="#CBD8F2" transform="translate(148.260000, 157.000000) rotate(-270.000000) translate(-148.260000, -157.000000) " points="58.56 164.5 58.26 149.5 238.26 149.5 238.26 164.5"></polyline>
            <path d="M154.356,163.5 L154.356,162.072 L155.157041,161.317199 C155.54328,160.95 155.908098,160.598102 156.2515,160.2615 C156.823836,159.700497 157.316831,159.173502 157.7305,158.6805 C158.144169,158.187498 158.467166,157.728502 158.6995,157.3035 C158.931834,156.878498 159.048,156.473335 159.048,156.088 C159.048,155.555331 158.912001,155.150168 158.64,154.8725 C158.367999,154.594832 157.994002,154.456 157.518,154.456 C157.121331,154.456 156.770002,154.566499 156.464,154.7875 C156.157998,155.008501 155.869001,155.266332 155.597,155.561 L154.237,154.218 C154.769669,153.651331 155.313664,153.223501 155.869,152.9345 C156.424336,152.645499 157.087329,152.501 157.858,152.501 C158.390669,152.501 158.875164,152.583166 159.3115,152.7475 C159.747836,152.911834 160.124665,153.144165 160.442,153.4445 C160.759335,153.744835 161.002999,154.104665 161.173,154.524 C161.343001,154.943335 161.428,155.413664 161.428,155.935 C161.428,156.388336 161.331668,156.850164 161.139,157.3205 C160.946332,157.790836 160.688502,158.261164 160.3655,158.7315 C160.042498,159.201836 159.674169,159.672164 159.2605,160.1425 C158.846831,160.612836 158.419002,161.074664 157.977,161.528 L158.408375,161.479125 C158.559958,161.463542 158.719332,161.448667 158.8865,161.4345 C159.220835,161.406167 159.518332,161.392 159.779,161.392 L161.955,161.392 L161.955,163.5 L154.356,163.5 Z M163.893,163.5 L163.893,161.477 L166.239,161.477 L166.239,155.238 L164.216,155.238 L164.216,153.691 C164.805336,153.577666 165.303998,153.441667 165.712,153.283 C166.120002,153.124333 166.516665,152.931668 166.902,152.705 L168.738,152.705 L168.738,161.477 L170.761,161.477 L170.761,163.5 L163.893,163.5 Z M175.878,163.704 C174.993996,163.704 174.246003,163.559501 173.634,163.2705 C173.021997,162.981499 172.500669,162.621669 172.07,162.191 L173.192,160.61 C173.520668,160.904668 173.874831,161.156832 174.2545,161.3665 C174.634169,161.576168 175.056331,161.681 175.521,161.681 C176.076336,161.681 176.518332,161.539335 176.847,161.256 C177.175668,160.972665 177.34,160.553336 177.34,159.998 C177.34,159.453997 177.184168,159.040335 176.8725,158.757 C176.560832,158.473665 176.150003,158.332 175.64,158.332 C175.481333,158.332 175.339667,158.3405 175.215,158.3575 C175.090333,158.3745 174.968501,158.405666 174.8495,158.451 C174.730499,158.496334 174.605834,158.553 174.4755,158.621 C174.345166,158.689 174.200667,158.773999 174.042,158.876 L172.92,158.162 L173.226,152.705 L179.346,152.705 L179.346,154.813 L175.385,154.813 L175.198,156.836 C175.402001,156.745333 175.597499,156.680167 175.7845,156.6405 C175.971501,156.600833 176.178332,156.581 176.405,156.581 C176.869669,156.581 177.308831,156.648999 177.7225,156.785 C178.136169,156.921001 178.501665,157.124999 178.819,157.397 C179.136335,157.669001 179.385666,158.014665 179.567,158.434 C179.748334,158.853335 179.839,159.351997 179.839,159.93 C179.839,160.53067 179.731334,161.063331 179.516,161.528 C179.300666,161.992669 179.011668,162.386498 178.649,162.7095 C178.286332,163.032502 177.864169,163.278999 177.3825,163.449 C176.900831,163.619001 176.399336,163.704 175.878,163.704 Z M181.76,163.5 L181.76,155.068 L183.8,155.068 L183.97,156.156 L184.038,156.156 C184.389335,155.804665 184.763331,155.501501 185.16,155.2465 C185.556669,154.991499 186.032664,154.864 186.588,154.864 C187.18867,154.864 187.673165,154.985832 188.0415,155.2295 C188.409835,155.473168 188.701666,155.821664 188.917,156.275 C189.291002,155.889665 189.684831,155.558168 190.0985,155.2805 C190.512169,155.002832 191.002331,154.864 191.569,154.864 C192.475671,154.864 193.141498,155.167164 193.5665,155.7735 C193.991502,156.379836 194.204,157.209995 194.204,158.264 L194.204,163.5 L191.705,163.5 L191.705,158.587 C191.705,157.974997 191.622834,157.555668 191.4585,157.329 C191.294166,157.102332 191.030668,156.989 190.668,156.989 C190.248665,156.989 189.767003,157.260997 189.223,157.805 L189.223,163.5 L186.724,163.5 L186.724,158.587 C186.724,157.974997 186.641834,157.555668 186.4775,157.329 C186.313166,157.102332 186.049668,156.989 185.687,156.989 C185.256331,156.989 184.780336,157.260997 184.259,157.805 L184.259,163.5 L181.76,163.5 Z M196.329,163.5 L196.329,155.068 L198.369,155.068 L198.539,156.156 L198.607,156.156 C198.958335,155.804665 199.332331,155.501501 199.729,155.2465 C200.125669,154.991499 200.601664,154.864 201.157,154.864 C201.75767,154.864 202.242165,154.985832 202.6105,155.2295 C202.978835,155.473168 203.270666,155.821664 203.486,156.275 C203.860002,155.889665 204.253831,155.558168 204.6675,155.2805 C205.081169,155.002832 205.571331,154.864 206.138,154.864 C207.044671,154.864 207.710498,155.167164 208.1355,155.7735 C208.560502,156.379836 208.773,157.209995 208.773,158.264 L208.773,163.5 L206.274,163.5 L206.274,158.587 C206.274,157.974997 206.191834,157.555668 206.0275,157.329 C205.863166,157.102332 205.599668,156.989 205.237,156.989 C204.817665,156.989 204.336003,157.260997 203.792,157.805 L203.792,163.5 L201.293,163.5 L201.293,158.587 C201.293,157.974997 201.210834,157.555668 201.0465,157.329 C200.882166,157.102332 200.618668,156.989 200.256,156.989 C199.825331,156.989 199.349336,157.260997 198.828,157.805 L198.828,163.5 L196.329,163.5 Z" id="215mm" fill="#093169" fill-rule="nonzero" transform="translate(181.505000, 158.102500) rotate(-270.000000) translate(-181.505000, -158.102500) "></path>
        </g>
    </g>
</svg>