<?xml version="1.0" encoding="UTF-8"?>
<svg width="600px" height="437px" viewBox="0 0 600 437" version="1.1" xmlns="http://www.w3.org/2000/svg" xmlns:xlink="http://www.w3.org/1999/xlink">
    <!-- Generator: Sketch 58 (84663) - https://sketch.com -->
    <title>stringsPlinths/A810</title>
    <desc>Created with Sketch.</desc>
    <g id="stringsPlinths/A810" stroke="none" stroke-width="1" fill="none" fill-rule="evenodd">
        <rect fill="#F5F9FF" x="0" y="0" width="600" height="437"></rect>
        <polygon id="Path" stroke="#CBD8F2" fill="#FFFFFF" points="245.839695 92 330 92 330 335 204 335 204 133.907939"></polygon>
        <polyline id="Rectangle-Copy" stroke="#CBD8F2" points="246.14 77 246 62 330 62 330 77"></polyline>
        <path d="M261.657,42 L261.657,39.977 L264.003,39.977 L264.003,33.738 L261.98,33.738 L261.98,32.191 C262.569336,32.0776661 263.067998,31.9416675 263.476,31.783 C263.884002,31.6243325 264.280665,31.4316678 264.666,31.205 L266.502,31.205 L266.502,39.977 L268.525,39.977 L268.525,42 L261.657,42 Z M273.931,42.204 C273.352997,42.204 272.826002,42.0821679 272.35,41.8385 C271.873998,41.5948321 271.468835,41.2350024 271.1345,40.759 C270.800165,40.2829976 270.539501,39.6936702 270.3525,38.991 C270.165499,38.2883298 270.072,37.4780046 270.072,36.56 C270.072,35.6419954 270.165499,34.8373368 270.3525,34.146 C270.539501,33.4546632 270.800165,32.8738357 271.1345,32.4035 C271.468835,31.9331643 271.873998,31.5818345 272.35,31.3495 C272.826002,31.1171655 273.352997,31.001 273.931,31.001 C274.509003,31.001 275.035998,31.1171655 275.512,31.3495 C275.988002,31.5818345 276.393165,31.9331643 276.7275,32.4035 C277.061835,32.8738357 277.322499,33.4546632 277.5095,34.146 C277.696501,34.8373368 277.79,35.6419954 277.79,36.56 C277.79,37.4780046 277.696501,38.2883298 277.5095,38.991 C277.322499,39.6936702 277.061835,40.2829976 276.7275,40.759 C276.393165,41.2350024 275.988002,41.5948321 275.512,41.8385 C275.035998,42.0821679 274.509003,42.204 273.931,42.204 Z M273.931,40.266 C274.146334,40.266 274.344666,40.2121672 274.526,40.1045 C274.707334,39.9968328 274.865999,39.8013347 275.002,39.518 C275.138001,39.2346652 275.242833,38.8550024 275.3165,38.379 C275.390167,37.9029976 275.427,37.2966703 275.427,36.56 C275.427,35.8233296 275.390167,35.2198357 275.3165,34.7495 C275.242833,34.2791643 275.138001,33.9108347 275.002,33.6445 C274.865999,33.3781653 274.707334,33.1940005 274.526,33.092 C274.344666,32.9899995 274.146334,32.939 273.931,32.939 C273.726999,32.939 273.534334,32.9899995 273.353,33.092 C273.171666,33.1940005 273.013001,33.3781653 272.877,33.6445 C272.740999,33.9108347 272.633334,34.2791643 272.554,34.7495 C272.474666,35.2198357 272.435,35.8233296 272.435,36.56 C272.435,37.2966703 272.474666,37.9029976 272.554,38.379 C272.633334,38.8550024 272.740999,39.2346652 272.877,39.518 C273.013001,39.8013347 273.171666,39.9968328 273.353,40.1045 C273.534334,40.2121672 273.726999,40.266 273.931,40.266 Z M282.907,42.204 C282.328997,42.204 281.802002,42.0821679 281.326,41.8385 C280.849998,41.5948321 280.444835,41.2350024 280.1105,40.759 C279.776165,40.2829976 279.515501,39.6936702 279.3285,38.991 C279.141499,38.2883298 279.048,37.4780046 279.048,36.56 C279.048,35.6419954 279.141499,34.8373368 279.3285,34.146 C279.515501,33.4546632 279.776165,32.8738357 280.1105,32.4035 C280.444835,31.9331643 280.849998,31.5818345 281.326,31.3495 C281.802002,31.1171655 282.328997,31.001 282.907,31.001 C283.485003,31.001 284.011998,31.1171655 284.488,31.3495 C284.964002,31.5818345 285.369165,31.9331643 285.7035,32.4035 C286.037835,32.8738357 286.298499,33.4546632 286.4855,34.146 C286.672501,34.8373368 286.766,35.6419954 286.766,36.56 C286.766,37.4780046 286.672501,38.2883298 286.4855,38.991 C286.298499,39.6936702 286.037835,40.2829976 285.7035,40.759 C285.369165,41.2350024 284.964002,41.5948321 284.488,41.8385 C284.011998,42.0821679 283.485003,42.204 282.907,42.204 Z M282.907,40.266 C283.122334,40.266 283.320666,40.2121672 283.502,40.1045 C283.683334,39.9968328 283.841999,39.8013347 283.978,39.518 C284.114001,39.2346652 284.218833,38.8550024 284.2925,38.379 C284.366167,37.9029976 284.403,37.2966703 284.403,36.56 C284.403,35.8233296 284.366167,35.2198357 284.2925,34.7495 C284.218833,34.2791643 284.114001,33.9108347 283.978,33.6445 C283.841999,33.3781653 283.683334,33.1940005 283.502,33.092 C283.320666,32.9899995 283.122334,32.939 282.907,32.939 C282.702999,32.939 282.510334,32.9899995 282.329,33.092 C282.147666,33.1940005 281.989001,33.3781653 281.853,33.6445 C281.716999,33.9108347 281.609334,34.2791643 281.53,34.7495 C281.450666,35.2198357 281.411,35.8233296 281.411,36.56 C281.411,37.2966703 281.450666,37.9029976 281.53,38.379 C281.609334,38.8550024 281.716999,39.2346652 281.853,39.518 C281.989001,39.8013347 282.147666,39.9968328 282.329,40.1045 C282.510334,40.2121672 282.702999,40.266 282.907,40.266 Z M288.5,42 L288.5,33.568 L290.54,33.568 L290.71,34.656 L290.778,34.656 C291.129335,34.3046649 291.503331,34.0015013 291.9,33.7465 C292.296669,33.4914987 292.772664,33.364 293.328,33.364 C293.92867,33.364 294.413165,33.4858321 294.7815,33.7295 C295.149835,33.9731679 295.441666,34.3216644 295.657,34.775 C296.031002,34.3896647 296.424831,34.0581681 296.8385,33.7805 C297.252169,33.5028319 297.74233,33.364 298.309,33.364 C299.215671,33.364 299.881498,33.6671636 300.3065,34.2735 C300.731502,34.8798364 300.944,35.7099947 300.944,36.764 L300.944,42 L298.445,42 L298.445,37.087 C298.445,36.4749969 298.362834,36.0556678 298.1985,35.829 C298.034166,35.6023322 297.770668,35.489 297.408,35.489 C296.988665,35.489 296.507003,35.7609973 295.963,36.305 L295.963,42 L293.464,42 L293.464,37.087 C293.464,36.4749969 293.381834,36.0556678 293.2175,35.829 C293.053166,35.6023322 292.789668,35.489 292.427,35.489 C291.996331,35.489 291.520336,35.7609973 290.999,36.305 L290.999,42 L288.5,42 Z M303.069,42 L303.069,33.568 L305.109,33.568 L305.279,34.656 L305.347,34.656 C305.698335,34.3046649 306.072331,34.0015013 306.469,33.7465 C306.865669,33.4914987 307.341664,33.364 307.897,33.364 C308.49767,33.364 308.982165,33.4858321 309.3505,33.7295 C309.718835,33.9731679 310.010666,34.3216644 310.226,34.775 C310.600002,34.3896647 310.993831,34.0581681 311.4075,33.7805 C311.821169,33.5028319 312.31133,33.364 312.878,33.364 C313.784671,33.364 314.450498,33.6671636 314.8755,34.2735 C315.300502,34.8798364 315.513,35.7099947 315.513,36.764 L315.513,42 L313.014,42 L313.014,37.087 C313.014,36.4749969 312.931834,36.0556678 312.7675,35.829 C312.603166,35.6023322 312.339668,35.489 311.977,35.489 C311.557665,35.489 311.076003,35.7609973 310.532,36.305 L310.532,42 L308.033,42 L308.033,37.087 C308.033,36.4749969 307.950834,36.0556678 307.7865,35.829 C307.622166,35.6023322 307.358668,35.489 306.996,35.489 C306.565331,35.489 306.089336,35.7609973 305.568,36.305 L305.568,42 L303.069,42 Z" id="100mm" fill="#093169" fill-rule="nonzero"></path>
        <polyline id="Rectangle-Copy-3" stroke="#CBD8F2" transform="translate(267.000000, 357.500000) rotate(-180.000000) translate(-267.000000, -357.500000) " points="204.21 365 204 350 330 350 330 365"></polyline>
        <path d="M240.657,397 L240.657,394.977 L243.003,394.977 L243.003,388.738 L240.98,388.738 L240.98,387.191 C241.569336,387.077666 242.067998,386.941667 242.476,386.783 C242.884002,386.624333 243.280665,386.431668 243.666,386.205 L245.502,386.205 L245.502,394.977 L247.525,394.977 L247.525,397 L240.657,397 Z M252.642,397.204 C251.757996,397.204 251.010003,397.059501 250.398,396.7705 C249.785997,396.481499 249.264669,396.121669 248.834,395.691 L249.956,394.11 C250.284668,394.404668 250.638831,394.656832 251.0185,394.8665 C251.398169,395.076168 251.820331,395.181 252.285,395.181 C252.840336,395.181 253.282332,395.039335 253.611,394.756 C253.939668,394.472665 254.104,394.053336 254.104,393.498 C254.104,392.953997 253.948168,392.540335 253.6365,392.257 C253.324832,391.973665 252.914003,391.832 252.404,391.832 C252.245333,391.832 252.103667,391.8405 251.979,391.8575 C251.854333,391.8745 251.732501,391.905666 251.6135,391.951 C251.494499,391.996334 251.369834,392.053 251.2395,392.121 C251.109166,392.189 250.964667,392.273999 250.806,392.376 L249.684,391.662 L249.99,386.205 L256.11,386.205 L256.11,388.313 L252.149,388.313 L251.962,390.336 C252.166001,390.245333 252.361499,390.180167 252.5485,390.1405 C252.735501,390.100833 252.942332,390.081 253.169,390.081 C253.633669,390.081 254.072831,390.148999 254.4865,390.285 C254.900169,390.421001 255.265665,390.624999 255.583,390.897 C255.900335,391.169001 256.149666,391.514665 256.331,391.934 C256.512334,392.353335 256.603,392.851997 256.603,393.43 C256.603,394.03067 256.495334,394.563331 256.28,395.028 C256.064666,395.492669 255.775668,395.886498 255.413,396.2095 C255.050332,396.532502 254.628169,396.778999 254.1465,396.949 C253.664831,397.119001 253.163336,397.204 252.642,397.204 Z M261.907,397.204 C261.328997,397.204 260.802002,397.082168 260.326,396.8385 C259.849998,396.594832 259.444835,396.235002 259.1105,395.759 C258.776165,395.282998 258.515501,394.69367 258.3285,393.991 C258.141499,393.28833 258.048,392.478005 258.048,391.56 C258.048,390.641995 258.141499,389.837337 258.3285,389.146 C258.515501,388.454663 258.776165,387.873836 259.1105,387.4035 C259.444835,386.933164 259.849998,386.581834 260.326,386.3495 C260.802002,386.117166 261.328997,386.001 261.907,386.001 C262.485003,386.001 263.011998,386.117166 263.488,386.3495 C263.964002,386.581834 264.369165,386.933164 264.7035,387.4035 C265.037835,387.873836 265.298499,388.454663 265.4855,389.146 C265.672501,389.837337 265.766,390.641995 265.766,391.56 C265.766,392.478005 265.672501,393.28833 265.4855,393.991 C265.298499,394.69367 265.037835,395.282998 264.7035,395.759 C264.369165,396.235002 263.964002,396.594832 263.488,396.8385 C263.011998,397.082168 262.485003,397.204 261.907,397.204 Z M261.907,395.266 C262.122334,395.266 262.320666,395.212167 262.502,395.1045 C262.683334,394.996833 262.841999,394.801335 262.978,394.518 C263.114001,394.234665 263.218833,393.855002 263.2925,393.379 C263.366167,392.902998 263.403,392.29667 263.403,391.56 C263.403,390.82333 263.366167,390.219836 263.2925,389.7495 C263.218833,389.279164 263.114001,388.910835 262.978,388.6445 C262.841999,388.378165 262.683334,388.194001 262.502,388.092 C262.320666,387.989999 262.122334,387.939 261.907,387.939 C261.702999,387.939 261.510334,387.989999 261.329,388.092 C261.147666,388.194001 260.989001,388.378165 260.853,388.6445 C260.716999,388.910835 260.609334,389.279164 260.53,389.7495 C260.450666,390.219836 260.411,390.82333 260.411,391.56 C260.411,392.29667 260.450666,392.902998 260.53,393.379 C260.609334,393.855002 260.716999,394.234665 260.853,394.518 C260.989001,394.801335 261.147666,394.996833 261.329,395.1045 C261.510334,395.212167 261.702999,395.266 261.907,395.266 Z M267.5,397 L267.5,388.568 L269.54,388.568 L269.71,389.656 L269.778,389.656 C270.129335,389.304665 270.503331,389.001501 270.9,388.7465 C271.296669,388.491499 271.772664,388.364 272.328,388.364 C272.92867,388.364 273.413165,388.485832 273.7815,388.7295 C274.149835,388.973168 274.441666,389.321664 274.657,389.775 C275.031002,389.389665 275.424831,389.058168 275.8385,388.7805 C276.252169,388.502832 276.74233,388.364 277.309,388.364 C278.215671,388.364 278.881498,388.667164 279.3065,389.2735 C279.731502,389.879836 279.944,390.709995 279.944,391.764 L279.944,397 L277.445,397 L277.445,392.087 C277.445,391.474997 277.362834,391.055668 277.1985,390.829 C277.034166,390.602332 276.770668,390.489 276.408,390.489 C275.988665,390.489 275.507003,390.760997 274.963,391.305 L274.963,397 L272.464,397 L272.464,392.087 C272.464,391.474997 272.381834,391.055668 272.2175,390.829 C272.053166,390.602332 271.789668,390.489 271.427,390.489 C270.996331,390.489 270.520336,390.760997 269.999,391.305 L269.999,397 L267.5,397 Z M282.069,397 L282.069,388.568 L284.109,388.568 L284.279,389.656 L284.347,389.656 C284.698335,389.304665 285.072331,389.001501 285.469,388.7465 C285.865669,388.491499 286.341664,388.364 286.897,388.364 C287.49767,388.364 287.982165,388.485832 288.3505,388.7295 C288.718835,388.973168 289.010666,389.321664 289.226,389.775 C289.600002,389.389665 289.993831,389.058168 290.4075,388.7805 C290.821169,388.502832 291.31133,388.364 291.878,388.364 C292.784671,388.364 293.450498,388.667164 293.8755,389.2735 C294.300502,389.879836 294.513,390.709995 294.513,391.764 L294.513,397 L292.014,397 L292.014,392.087 C292.014,391.474997 291.931834,391.055668 291.7675,390.829 C291.603166,390.602332 291.339668,390.489 290.977,390.489 C290.557665,390.489 290.076003,390.760997 289.532,391.305 L289.532,397 L287.033,397 L287.033,392.087 C287.033,391.474997 286.950834,391.055668 286.7865,390.829 C286.622166,390.602332 286.358668,390.489 285.996,390.489 C285.565331,390.489 285.089336,390.760997 284.568,391.305 L284.568,397 L282.069,397 Z" id="150mm" fill="#093169" fill-rule="nonzero" transform="translate(267.585000, 391.602500) rotate(-360.000000) translate(-267.585000, -391.602500) "></path>
        <polyline id="Rectangle-Copy-2" stroke="#CBD8F2" transform="translate(352.500000, 213.500000) rotate(-270.000000) translate(-352.500000, -213.500000) " points="231.405 221 231 206 474 206 474 221"></polyline>
        <path d="M358.096,220 L358.096,218.572 L358.897041,217.817199 C359.28328,217.45 359.648098,217.098102 359.9915,216.7615 C360.563836,216.200497 361.056831,215.673502 361.4705,215.1805 C361.884169,214.687498 362.207166,214.228502 362.4395,213.8035 C362.671834,213.378498 362.788,212.973335 362.788,212.588 C362.788,212.055331 362.652001,211.650168 362.38,211.3725 C362.107999,211.094832 361.734002,210.956 361.258,210.956 C360.861331,210.956 360.510002,211.066499 360.204,211.2875 C359.897998,211.508501 359.609001,211.766332 359.337,212.061 L357.977,210.718 C358.509669,210.151331 359.053664,209.723501 359.609,209.4345 C360.164336,209.145499 360.827329,209.001 361.598,209.001 C362.130669,209.001 362.615164,209.083166 363.0515,209.2475 C363.487836,209.411834 363.864665,209.644165 364.182,209.9445 C364.499335,210.244835 364.742999,210.604665 364.913,211.024 C365.083001,211.443335 365.168,211.913664 365.168,212.435 C365.168,212.888336 365.071668,213.350164 364.879,213.8205 C364.686332,214.290836 364.428502,214.761164 364.1055,215.2315 C363.782498,215.701836 363.414169,216.172164 363.0005,216.6425 C362.586831,217.112836 362.159002,217.574664 361.717,218.028 L362.148375,217.979125 C362.299958,217.963542 362.459332,217.948667 362.6265,217.9345 C362.960835,217.906167 363.258332,217.892 363.519,217.892 L365.695,217.892 L365.695,220 L358.096,220 Z M370.727,214.186 C371.010335,214.186 371.296499,214.103834 371.5855,213.9395 C371.874501,213.775166 372.126666,213.500335 372.342,213.115 C372.228666,212.264996 372.016168,211.678502 371.7045,211.3555 C371.392832,211.032498 371.044335,210.871 370.659,210.871 C370.296332,210.871 369.979001,211.009832 369.707,211.2875 C369.434999,211.565168 369.299,212.009997 369.299,212.622 C369.299,213.200003 369.434999,213.605166 369.707,213.8375 C369.979001,214.069834 370.318998,214.186 370.727,214.186 Z M370.336,220.204 C369.621996,220.204 369.001503,220.073668 368.4745,219.813 C367.947497,219.552332 367.514002,219.252002 367.174,218.912 L368.5,217.416 C368.681334,217.620001 368.924998,217.798499 369.231,217.9515 C369.537002,218.104501 369.848665,218.181 370.166,218.181 C370.472002,218.181 370.755332,218.124334 371.016,218.011 C371.276668,217.897666 371.506166,217.707835 371.7045,217.4415 C371.902834,217.175165 372.061499,216.829502 372.1805,216.4045 C372.299501,215.979498 372.370333,215.44967 372.393,214.815 C372.256999,214.996334 372.098334,215.157833 371.917,215.2995 C371.735666,215.441167 371.548668,215.560166 371.356,215.6565 C371.163332,215.752834 370.970668,215.8265 370.778,215.8775 C370.585332,215.9285 370.404001,215.954 370.234,215.954 C369.769331,215.954 369.341502,215.886001 368.9505,215.75 C368.559498,215.613999 368.222335,215.410001 367.939,215.138 C367.655665,214.865999 367.431834,214.520335 367.2675,214.101 C367.103166,213.681665 367.021,213.18867 367.021,212.622 C367.021,212.066664 367.117332,211.565169 367.31,211.1175 C367.502668,210.669831 367.760498,210.287335 368.0835,209.97 C368.406502,209.652665 368.786164,209.411834 369.2225,209.2475 C369.658836,209.083166 370.120664,209.001 370.608,209.001 C371.129336,209.001 371.636498,209.102999 372.1295,209.307 C372.622502,209.511001 373.058831,209.828331 373.4385,210.259 C373.818169,210.689669 374.124166,211.242163 374.3565,211.9165 C374.588834,212.590837 374.705,213.403995 374.705,214.356 C374.705,215.364672 374.583168,216.23733 374.3395,216.974 C374.095832,217.71067 373.772835,218.316998 373.3705,218.793 C372.968165,219.269002 372.503503,219.623166 371.9765,219.8555 C371.449497,220.087834 370.90267,220.204 370.336,220.204 Z M379.907,220.204 C379.328997,220.204 378.802002,220.082168 378.326,219.8385 C377.849998,219.594832 377.444835,219.235002 377.1105,218.759 C376.776165,218.282998 376.515501,217.69367 376.3285,216.991 C376.141499,216.28833 376.048,215.478005 376.048,214.56 C376.048,213.641995 376.141499,212.837337 376.3285,212.146 C376.515501,211.454663 376.776165,210.873836 377.1105,210.4035 C377.444835,209.933164 377.849998,209.581834 378.326,209.3495 C378.802002,209.117166 379.328997,209.001 379.907,209.001 C380.485003,209.001 381.011998,209.117166 381.488,209.3495 C381.964002,209.581834 382.369165,209.933164 382.7035,210.4035 C383.037835,210.873836 383.298499,211.454663 383.4855,212.146 C383.672501,212.837337 383.766,213.641995 383.766,214.56 C383.766,215.478005 383.672501,216.28833 383.4855,216.991 C383.298499,217.69367 383.037835,218.282998 382.7035,218.759 C382.369165,219.235002 381.964002,219.594832 381.488,219.8385 C381.011998,220.082168 380.485003,220.204 379.907,220.204 Z M379.907,218.266 C380.122334,218.266 380.320666,218.212167 380.502,218.1045 C380.683334,217.996833 380.841999,217.801335 380.978,217.518 C381.114001,217.234665 381.218833,216.855002 381.2925,216.379 C381.366167,215.902998 381.403,215.29667 381.403,214.56 C381.403,213.82333 381.366167,213.219836 381.2925,212.7495 C381.218833,212.279164 381.114001,211.910835 380.978,211.6445 C380.841999,211.378165 380.683334,211.194001 380.502,211.092 C380.320666,210.989999 380.122334,210.939 379.907,210.939 C379.702999,210.939 379.510334,210.989999 379.329,211.092 C379.147666,211.194001 378.989001,211.378165 378.853,211.6445 C378.716999,211.910835 378.609334,212.279164 378.53,212.7495 C378.450666,213.219836 378.411,213.82333 378.411,214.56 C378.411,215.29667 378.450666,215.902998 378.53,216.379 C378.609334,216.855002 378.716999,217.234665 378.853,217.518 C378.989001,217.801335 379.147666,217.996833 379.329,218.1045 C379.510334,218.212167 379.702999,218.266 379.907,218.266 Z M385.5,220 L385.5,211.568 L387.54,211.568 L387.71,212.656 L387.778,212.656 C388.129335,212.304665 388.503331,212.001501 388.9,211.7465 C389.296669,211.491499 389.772664,211.364 390.328,211.364 C390.92867,211.364 391.413165,211.485832 391.7815,211.7295 C392.149835,211.973168 392.441666,212.321664 392.657,212.775 C393.031002,212.389665 393.424831,212.058168 393.8385,211.7805 C394.252169,211.502832 394.74233,211.364 395.309,211.364 C396.215671,211.364 396.881498,211.667164 397.3065,212.2735 C397.731502,212.879836 397.944,213.709995 397.944,214.764 L397.944,220 L395.445,220 L395.445,215.087 C395.445,214.474997 395.362834,214.055668 395.1985,213.829 C395.034166,213.602332 394.770668,213.489 394.408,213.489 C393.988665,213.489 393.507003,213.760997 392.963,214.305 L392.963,220 L390.464,220 L390.464,215.087 C390.464,214.474997 390.381834,214.055668 390.2175,213.829 C390.053166,213.602332 389.789668,213.489 389.427,213.489 C388.996331,213.489 388.520336,213.760997 387.999,214.305 L387.999,220 L385.5,220 Z M400.069,220 L400.069,211.568 L402.109,211.568 L402.279,212.656 L402.347,212.656 C402.698335,212.304665 403.072331,212.001501 403.469,211.7465 C403.865669,211.491499 404.341664,211.364 404.897,211.364 C405.49767,211.364 405.982165,211.485832 406.3505,211.7295 C406.718835,211.973168 407.010666,212.321664 407.226,212.775 C407.600002,212.389665 407.993831,212.058168 408.4075,211.7805 C408.821169,211.502832 409.31133,211.364 409.878,211.364 C410.784671,211.364 411.450498,211.667164 411.8755,212.2735 C412.300502,212.879836 412.513,213.709995 412.513,214.764 L412.513,220 L410.014,220 L410.014,215.087 C410.014,214.474997 409.931834,214.055668 409.7675,213.829 C409.603166,213.602332 409.339668,213.489 408.977,213.489 C408.557665,213.489 408.076003,213.760997 407.532,214.305 L407.532,220 L405.033,220 L405.033,215.087 C405.033,214.474997 404.950834,214.055668 404.7865,213.829 C404.622166,213.602332 404.358668,213.489 403.996,213.489 C403.565331,213.489 403.089336,213.760997 402.568,214.305 L402.568,220 L400.069,220 Z" id="290mm" fill="#093169" fill-rule="nonzero" transform="translate(385.245000, 214.602500) rotate(-270.000000) translate(-385.245000, -214.602500) "></path>
    </g>
</svg>