<?xml version="1.0" encoding="UTF-8"?>
<svg width="600px" height="330px" viewBox="0 0 600 330" version="1.1" xmlns="http://www.w3.org/2000/svg" xmlns:xlink="http://www.w3.org/1999/xlink">
    <!-- Generator: Sketch 58 (84663) - https://sketch.com -->
    <title>ballsBases/B225-CG225</title>
    <desc>Created with Sketch.</desc>
    <g id="ballsBases/B225-CG225" stroke="none" stroke-width="1" fill="none" fill-rule="evenodd">
        <rect fill="#F5F9FF" x="0" y="0" width="600" height="330"></rect>
        <g id="Group-6" transform="translate(246.000000, 36.000000)">
            <g id="Group-5">
                <g id="Group-2" transform="translate(0.000000, 0.000000)" fill="#FFFFFF" stroke="#CBD8F2">
                    <g id="Group" transform="translate(0.025000, 0.000000)">
                        <path d="M69.335,115.8 C69.335,143.459635 82.015,161.821635 107.375,170.886 L7.10542736e-15,170.886 C24.019,163.655 39.807,140.728 37.995,115.71 L34.975,113.16 L72.975,113.16 C70.5483333,114.92 69.335,115.8 69.335,115.8 Z" id="Path" stroke-linejoin="bevel"></path>
                        <path d="M66.7777386,90.788 C67.0758276,90.7040611 67.3724739,90.6173467 67.6676551,90.5278911 C89.3935463,83.9437925 103.182367,62.5102249 100.063739,39.931 C96.9027386,17.045 77.3417386,-7.10542736e-15 54.2387386,-7.10542736e-15 C31.1357386,-7.10542736e-15 11.5747386,17.045 8.41373858,39.931 C5.25273858,62.817 19.4617386,84.526 41.6997386,90.788 C42.1469026,90.788 42.4665693,90.788 42.6587386,90.788 C48.0394582,90.788 56.0791249,90.788 66.7777386,90.788 Z" id="Path"></path>
                        <rect id="Rectangle" x="34.975" y="101" width="38" height="12"></rect>
                        <rect id="Rectangle-Copy" x="36.975" y="93" width="34" height="12"></rect>
                    </g>
                    <rect id="Rectangle" x="0" y="171" width="107" height="21"></rect>
                </g>
                <g id="Group-4" transform="translate(8.000000, 16.000000)">
                    <path d="M0,29.5 L46.25,29.5" id="Rectangle-Copy-2" stroke="#CBD8F2"></path>
                    <path d="M14.5655,17 L14.5655,5.916 L18.5605,5.916 C19.1498363,5.916 19.7023308,5.9726661 20.218,6.086 C20.7336692,6.1993339 21.1841647,6.38916533 21.5695,6.6555 C21.9548353,6.92183466 22.2608322,7.27599779 22.4875,7.718 C22.7141678,8.16000221 22.8275,8.70966338 22.8275,9.367 C22.8275,10.1830041 22.6490018,10.8544974 22.292,11.3815 C21.9349982,11.9085026 21.4561697,12.302332 20.8555,12.563 L23.3715,17 L20.5665,17 L18.4415,13.005 L17.0645,13.005 L17.0645,17 L14.5655,17 Z M17.0645,11.016 L18.3565,11.016 C19.0138366,11.016 19.5153316,10.8771681 19.861,10.5995 C20.2066684,10.3218319 20.3795,9.91100272 20.3795,9.367 C20.3795,8.82299728 20.2066684,8.44333441 19.861,8.228 C19.5153316,8.01266559 19.0138366,7.905 18.3565,7.905 L17.0645,7.905 L17.0645,11.016 Z M24.8675,17 L24.8675,14.977 L27.2135,14.977 L27.2135,8.738 L25.1905,8.738 L25.1905,7.191 C25.7798363,7.0776661 26.278498,6.94166746 26.6865,6.783 C27.094502,6.62433254 27.4911647,6.4316678 27.8765,6.205 L29.7125,6.205 L29.7125,14.977 L31.7355,14.977 L31.7355,17 L24.8675,17 Z M33.8435,17 L33.8435,14.977 L36.1895,14.977 L36.1895,8.738 L34.1665,8.738 L34.1665,7.191 C34.7558363,7.0776661 35.254498,6.94166746 35.6625,6.783 C36.070502,6.62433254 36.4671647,6.4316678 36.8525,6.205 L38.6885,6.205 L38.6885,14.977 L40.7115,14.977 L40.7115,17 L33.8435,17 Z M45.7605,17.204 C44.8764956,17.204 44.1285031,17.0651681 43.5165,16.7875 C42.9044969,16.5098319 42.4001686,16.138669 42.0035,15.674 L43.1595,14.093 C43.4881683,14.4103349 43.847998,14.670999 44.239,14.875 C44.630002,15.079001 45.057831,15.181 45.5225,15.181 C46.0551693,15.181 46.4801651,15.0705011 46.7975,14.8495 C47.1148349,14.6284989 47.2735,14.314002 47.2735,13.906 C47.2735,13.6679988 47.2310004,13.4526676 47.146,13.26 C47.0609996,13.0673324 46.9108344,12.905834 46.6955,12.7755 C46.4801656,12.645166 46.1855019,12.543167 45.8115,12.4695 C45.4374981,12.395833 44.9558363,12.359 44.3665,12.359 L44.3665,10.591 C44.8538358,10.591 45.2589984,10.5570003 45.582,10.489 C45.9050016,10.4209997 46.1656657,10.321834 46.364,10.1915 C46.5623343,10.061166 46.7039996,9.90816754 46.789,9.7325 C46.8740004,9.55683245 46.9165,9.36133441 46.9165,9.146 C46.9165,8.77199813 46.8031678,8.48016772 46.5765,8.2705 C46.3498322,8.06083229 46.0211688,7.956 45.5905,7.956 C45.2051647,7.956 44.8566682,8.04099915 44.545,8.211 C44.2333318,8.38100085 43.9075017,8.61333186 43.5675,8.908 L42.3095,7.378 C42.8081692,6.94733118 43.3323306,6.61016788 43.882,6.3665 C44.4316694,6.12283211 45.04083,6.001 45.7095,6.001 C46.2648361,6.001 46.7719977,6.06616601 47.231,6.1965 C47.6900023,6.32683398 48.0809984,6.51949872 48.404,6.7745 C48.7270016,7.02950128 48.9791658,7.33833152 49.1605,7.701 C49.3418342,8.06366848 49.4325,8.48299762 49.4325,8.959 C49.4325,9.5256695 49.2766682,10.004498 48.965,10.3955 C48.6533318,10.786502 48.2085029,11.1066654 47.6305,11.356 L47.6305,11.424 C48.2538365,11.6053342 48.7666647,11.9141645 49.169,12.3505 C49.5713353,12.7868355 49.7725,13.3563298 49.7725,14.059 C49.7725,14.5576692 49.6648344,15.002498 49.4495,15.3935 C49.2341656,15.784502 48.9451685,16.1131653 48.5825,16.3795 C48.2198315,16.6458347 47.7948358,16.8498326 47.3075,16.9915 C46.8201642,17.1331674 46.3045027,17.204 45.7605,17.204 Z M51.7105,17 L51.7105,8.568 L53.7505,8.568 L53.9205,9.656 L53.9885,9.656 C54.3398351,9.30466491 54.7138314,9.00150127 55.1105,8.7465 C55.5071687,8.49149872 55.9831639,8.364 56.5385,8.364 C57.1391697,8.364 57.6236648,8.48583211 57.992,8.7295 C58.3603352,8.97316788 58.6521656,9.3216644 58.8675,9.775 C59.2415019,9.38966474 59.6353313,9.05816805 60.049,8.7805 C60.4626687,8.50283194 60.9528305,8.364 61.5195,8.364 C62.4261712,8.364 63.0919979,8.66716363 63.517,9.2735 C63.9420021,9.87983636 64.1545,10.7099947 64.1545,11.764 L64.1545,17 L61.6555,17 L61.6555,12.087 C61.6555,11.4749969 61.5733342,11.0556678 61.409,10.829 C61.2446658,10.6023322 60.9811685,10.489 60.6185,10.489 C60.1991646,10.489 59.7175027,10.7609973 59.1735,11.305 L59.1735,17 L56.6745,17 L56.6745,12.087 C56.6745,11.4749969 56.5923342,11.0556678 56.428,10.829 C56.2636658,10.6023322 56.0001685,10.489 55.6375,10.489 C55.2068312,10.489 54.7308359,10.7609973 54.2095,11.305 L54.2095,17 L51.7105,17 Z M66.2795,17 L66.2795,8.568 L68.3195,8.568 L68.4895,9.656 L68.5575,9.656 C68.9088351,9.30466491 69.2828314,9.00150127 69.6795,8.7465 C70.0761686,8.49149872 70.5521639,8.364 71.1075,8.364 C71.7081697,8.364 72.1926648,8.48583211 72.561,8.7295 C72.9293352,8.97316788 73.2211656,9.3216644 73.4365,9.775 C73.8105019,9.38966474 74.2043313,9.05816805 74.618,8.7805 C75.0316687,8.50283194 75.5218305,8.364 76.0885,8.364 C76.9951712,8.364 77.6609979,8.66716363 78.086,9.2735 C78.5110021,9.87983636 78.7235,10.7099947 78.7235,11.764 L78.7235,17 L76.2245,17 L76.2245,12.087 C76.2245,11.4749969 76.1423342,11.0556678 75.978,10.829 C75.8136658,10.6023322 75.5501685,10.489 75.1875,10.489 C74.7681646,10.489 74.2865027,10.7609973 73.7425,11.305 L73.7425,17 L71.2435,17 L71.2435,12.087 C71.2435,11.4749969 71.1613342,11.0556678 70.997,10.829 C70.8326658,10.6023322 70.5691685,10.489 70.2065,10.489 C69.7758312,10.489 69.2998359,10.7609973 68.7785,11.305 L68.7785,17 L66.2795,17 Z" id="R113mm" fill="#093169" fill-rule="nonzero"></path>
                </g>
            </g>
            <g id="Group-3" transform="translate(124.000000, 0.000000)">
                <path d="M14.965,102 L14.965,99.416 L10.29,99.416 L10.29,97.699 L14.234,91.205 L17.294,91.205 L17.294,97.512 L18.535,97.512 L18.535,99.416 L17.294,99.416 L17.294,102 L14.965,102 Z M12.687,97.512 L14.965,97.512 L14.965,95.761 C14.965,95.4096649 14.9763332,95.0045023 14.999,94.5455 L15.0398,93.7835601 C15.0488666,93.6285204 15.0579333,93.4830007 15.067,93.347 L14.999,93.347 C14.8629993,93.6416681 14.7213341,93.9419985 14.574,94.248 C14.4266659,94.5540015 14.2736675,94.8599985 14.115,95.166 L12.687,97.512 Z M23.72,102.204 C23.1986641,102.204 22.6915025,102.102001 22.1985,101.898 C21.7054975,101.693999 21.2691686,101.376669 20.8895,100.946 C20.5098314,100.515331 20.2066678,99.9628367 19.98,99.2885 C19.7533322,98.6141633 19.64,97.8010048 19.64,96.849 C19.64,95.8403283 19.7618321,94.9676703 20.0055,94.231 C20.2491679,93.4943296 20.5721647,92.8880024 20.9745,92.412 C21.3768353,91.9359976 21.8414974,91.5818345 22.3685,91.3495 C22.8955026,91.1171655 23.4423305,91.001 24.009,91.001 C24.7230036,91.001 25.3406641,91.1284987 25.862,91.3835 C26.3833359,91.6385013 26.8139983,91.9416649 27.154,92.293 L25.845,93.789 C25.6523324,93.584999 25.4030015,93.4065008 25.097,93.2535 C24.7909985,93.1004992 24.4793349,93.024 24.162,93.024 C23.8673319,93.024 23.589668,93.0806661 23.329,93.194 C23.068332,93.3073339 22.8388343,93.4971653 22.6405,93.7635 C22.4421657,94.0298347 22.2806673,94.3783312 22.156,94.809 C22.0313327,95.2396688 21.9576668,95.7666636 21.935,96.39 C22.0710007,96.2086658 22.2296658,96.0471674 22.411,95.9055 C22.5923342,95.7638326 22.7793324,95.6448338 22.972,95.5485 C23.1646676,95.4521662 23.3573324,95.3785003 23.55,95.3275 C23.7426676,95.2764997 23.9239992,95.251 24.094,95.251 C24.558669,95.251 24.986498,95.3189993 25.3775,95.455 C25.768502,95.5910007 26.1084986,95.7949986 26.3975,96.067 C26.6865014,96.3390014 26.9103325,96.6846646 27.069,97.104 C27.2276675,97.5233354 27.307,98.0163305 27.307,98.583 C27.307,99.1496695 27.2106676,99.6539978 27.018,100.096 C26.8253324,100.538002 26.5675016,100.917665 26.2445,101.235 C25.9214984,101.552335 25.5418355,101.793166 25.1055,101.9575 C24.6691645,102.121834 24.2073358,102.204 23.72,102.204 Z M23.669,100.334 C24.0430019,100.334 24.3631653,100.195168 24.6295,99.9175 C24.8958347,99.6398319 25.029,99.1950031 25.029,98.583 C25.029,98.0049971 24.8958347,97.5998345 24.6295,97.3675 C24.3631653,97.1351655 24.026002,97.019 23.618,97.019 C23.3346653,97.019 23.0485014,97.1011658 22.7595,97.2655 C22.4704986,97.4298342 22.2126678,97.7046647 21.986,98.09 C22.042667,98.5206688 22.1276661,98.8776653 22.241,99.161 C22.3543339,99.4443347 22.4846659,99.6738325 22.632,99.8495 C22.7793341,100.025168 22.9408325,100.149833 23.1165,100.2235 C23.2921675,100.297167 23.4763324,100.334 23.669,100.334 Z M32.39,102.204 C31.8459973,102.204 31.3445023,102.133167 30.8855,101.9915 C30.4264977,101.849833 30.029835,101.648668 29.6955,101.388 C29.361165,101.127332 29.1005009,100.815668 28.9135,100.453 C28.7264991,100.090332 28.633,99.6880022 28.633,99.246 C28.633,98.5886634 28.8114982,98.0503354 29.1685,97.631 C29.5255018,97.2116646 29.9589974,96.8660014 30.469,96.594 L30.469,96.526 C30.0496646,96.2086651 29.7040014,95.8488353 29.432,95.4465 C29.1599986,95.0441647 29.024,94.5540029 29.024,93.976 C29.024,93.5226644 29.1089991,93.1118352 29.279,92.7435 C29.4490008,92.3751648 29.6869985,92.060668 29.993,91.8 C30.2990015,91.539332 30.6644979,91.3410007 31.0895,91.205 C31.5145021,91.0689993 31.9763308,91.001 32.475,91.001 C32.9623358,91.001 33.409998,91.0718326 33.818,91.2135 C34.226002,91.3551674 34.5716652,91.5534987 34.855,91.8085 C35.1383347,92.0635013 35.3593325,92.3751648 35.518,92.7435 C35.6766675,93.1118352 35.756,93.5169978 35.756,93.959 C35.756,94.4803359 35.6143347,94.9421647 35.331,95.3445 C35.0476652,95.7468353 34.7190019,96.0726654 34.345,96.322 L34.345,96.39 C34.8663359,96.6733347 35.3083315,97.0359978 35.671,97.478 C36.0336685,97.9200022 36.215,98.4979964 36.215,99.212 C36.215,99.6426688 36.1243342,100.039332 35.943,100.402 C35.7616658,100.764668 35.503835,101.079165 35.1695,101.3455 C34.835165,101.611835 34.4328357,101.821499 33.9625,101.9745 C33.4921643,102.127501 32.9680029,102.204 32.39,102.204 Z M33.07,95.71 C33.5120022,95.1999974 33.733,94.6730027 33.733,94.129 C33.733,93.7096646 33.6168345,93.3725013 33.3845,93.1175 C33.1521655,92.8624987 32.832002,92.735 32.424,92.735 C32.0953317,92.735 31.8120012,92.836999 31.574,93.041 C31.3359988,93.245001 31.217,93.5566646 31.217,93.976 C31.217,94.4180022 31.3869983,94.7636654 31.727,95.013 C32.0670017,95.2623346 32.5146639,95.4946656 33.07,95.71 Z M32.441,100.47 C32.8603354,100.47 33.2059986,100.359501 33.478,100.1385 C33.7500014,99.9174989 33.886,99.5803356 33.886,99.127 C33.886,98.8889988 33.8321672,98.6850008 33.7245,98.515 C33.6168328,98.3449992 33.461001,98.1891674 33.257,98.0475 C33.052999,97.9058326 32.8121681,97.7726673 32.5345,97.648 L31.8571568,97.3483752 C31.7760526,97.3129586 31.6930004,97.2768335 31.608,97.24 C31.3699988,97.4666678 31.1716675,97.7273319 31.013,98.022 C30.8543325,98.3166681 30.775,98.6283317 30.775,98.957 C30.775,99.4330024 30.9393317,99.8041653 31.268,100.0705 C31.5966683,100.336835 31.9876644,100.47 32.441,100.47 Z M38,102 L38,93.568 L40.04,93.568 L40.21,94.656 L40.278,94.656 C40.6293351,94.3046649 41.0033314,94.0015013 41.4,93.7465 C41.7966687,93.4914987 42.2726639,93.364 42.828,93.364 C43.4286697,93.364 43.9131648,93.4858321 44.2815,93.7295 C44.6498352,93.9731679 44.9416656,94.3216644 45.157,94.775 C45.5310019,94.3896647 45.9248313,94.0581681 46.3385,93.7805 C46.7521687,93.5028319 47.2423305,93.364 47.809,93.364 C48.7156712,93.364 49.3814979,93.6671636 49.8065,94.2735 C50.2315021,94.8798364 50.444,95.7099947 50.444,96.764 L50.444,102 L47.945,102 L47.945,97.087 C47.945,96.4749969 47.8628342,96.0556678 47.6985,95.829 C47.5341658,95.6023322 47.2706685,95.489 46.908,95.489 C46.4886646,95.489 46.0070027,95.7609973 45.463,96.305 L45.463,102 L42.964,102 L42.964,97.087 C42.964,96.4749969 42.8818342,96.0556678 42.7175,95.829 C42.5531658,95.6023322 42.2896685,95.489 41.927,95.489 C41.4963312,95.489 41.0203359,95.7609973 40.499,96.305 L40.499,102 L38,102 Z M52.569,102 L52.569,93.568 L54.609,93.568 L54.779,94.656 L54.847,94.656 C55.1983351,94.3046649 55.5723314,94.0015013 55.969,93.7465 C56.3656687,93.4914987 56.8416639,93.364 57.397,93.364 C57.9976697,93.364 58.4821648,93.4858321 58.8505,93.7295 C59.2188352,93.9731679 59.5106656,94.3216644 59.726,94.775 C60.1000019,94.3896647 60.4938313,94.0581681 60.9075,93.7805 C61.3211687,93.5028319 61.8113305,93.364 62.378,93.364 C63.2846712,93.364 63.9504979,93.6671636 64.3755,94.2735 C64.8005021,94.8798364 65.013,95.7099947 65.013,96.764 L65.013,102 L62.514,102 L62.514,97.087 C62.514,96.4749969 62.4318342,96.0556678 62.2675,95.829 C62.1031658,95.6023322 61.8396685,95.489 61.477,95.489 C61.0576646,95.489 60.5760027,95.7609973 60.032,96.305 L60.032,102 L57.533,102 L57.533,97.087 C57.533,96.4749969 57.4508342,96.0556678 57.2865,95.829 C57.1221658,95.6023322 56.8586685,95.489 56.496,95.489 C56.0653312,95.489 55.5893359,95.7609973 55.068,96.305 L55.068,102 L52.569,102 Z" id="468mm" fill="#093169" fill-rule="nonzero" transform="translate(37.651500, 96.602500) rotate(-270.000000) translate(-37.651500, -96.602500) "></path>
                <polyline id="Rectangle-Copy-3" stroke="#CBD8F2" transform="translate(8.000000, 96.000000) rotate(-270.000000) translate(-8.000000, -96.000000) " points="-87.68 103.5 -88 88.5 104 88.5 104 103.5"></polyline>
            </g>
            <g id="Group-4-Copy" transform="translate(54.500000, 233.000000) rotate(-180.000000) translate(-54.500000, -233.000000) translate(0.000000, 207.000000)">
                <polyline id="Rectangle-Copy-2" stroke="#CBD8F2" points="0.181666667 52 0 37 109 37 109 52"></polyline>
                <path d="M27.096,17 L27.096,15.572 L27.8970407,14.8171994 C28.2832799,14.4500002 28.6480983,14.0981017 28.9915,13.7615 C29.5638362,13.2004972 30.0568313,12.6735025 30.4705,12.1805 C30.8841687,11.6874975 31.2071655,11.2285021 31.4395,10.8035 C31.6718345,10.3784979 31.788,9.97333526 31.788,9.588 C31.788,9.05533067 31.6520014,8.65016805 31.38,8.3725 C31.1079986,8.09483194 30.7340024,7.956 30.258,7.956 C29.8613314,7.956 29.5100015,8.06649889 29.204,8.2875 C28.8979985,8.50850111 28.6090014,8.76633186 28.337,9.061 L26.977,7.718 C27.5096693,7.1513305 28.0536639,6.72350145 28.609,6.4345 C29.1643361,6.14549855 29.8273295,6.001 30.598,6.001 C31.1306693,6.001 31.6151645,6.08316584 32.0515,6.2475 C32.4878355,6.41183416 32.8646651,6.64416517 33.182,6.9445 C33.4993349,7.24483483 33.7429992,7.60466457 33.913,8.024 C34.0830008,8.44333543 34.168,8.91366406 34.168,9.435 C34.168,9.8883356 34.0716676,10.3501643 33.879,10.8205 C33.6863324,11.2908357 33.4285016,11.7611643 33.1055,12.2315 C32.7824984,12.7018357 32.4141687,13.1721643 32.0005,13.6425 C31.5868313,14.1128357 31.1590022,14.5746644 30.717,15.028 L31.1483749,14.979125 C31.2999578,14.9635417 31.4593325,14.9486667 31.6265,14.9345 C31.960835,14.9061665 32.258332,14.892 32.519,14.892 L34.695,14.892 L34.695,17 L27.096,17 Z M40.22,17.204 C39.6986641,17.204 39.1915025,17.102001 38.6985,16.898 C38.2054975,16.693999 37.7691686,16.3766688 37.3895,15.946 C37.0098314,15.5153312 36.7066678,14.9628367 36.48,14.2885 C36.2533322,13.6141633 36.14,12.8010048 36.14,11.849 C36.14,10.8403283 36.2618321,9.96767035 36.5055,9.231 C36.7491679,8.49432965 37.0721647,7.88800238 37.4745,7.412 C37.8768353,6.93599762 38.3414974,6.58183449 38.8685,6.3495 C39.3955026,6.1171655 39.9423305,6.001 40.509,6.001 C41.2230036,6.001 41.8406641,6.12849873 42.362,6.3835 C42.8833359,6.63850127 43.3139983,6.94166491 43.654,7.293 L42.345,8.789 C42.1523324,8.58499898 41.9030015,8.40650076 41.597,8.2535 C41.2909985,8.10049923 40.9793349,8.024 40.662,8.024 C40.3673319,8.024 40.089668,8.0806661 39.829,8.194 C39.568332,8.3073339 39.3388343,8.49716533 39.1405,8.7635 C38.9421657,9.02983466 38.7806673,9.37833118 38.656,9.809 C38.5313327,10.2396688 38.4576668,10.7666636 38.435,11.39 C38.5710007,11.2086658 38.7296658,11.0471674 38.911,10.9055 C39.0923342,10.7638326 39.2793324,10.6448338 39.472,10.5485 C39.6646676,10.4521662 39.8573324,10.3785003 40.05,10.3275 C40.2426676,10.2764997 40.4239992,10.251 40.594,10.251 C41.058669,10.251 41.486498,10.3189993 41.8775,10.455 C42.268502,10.5910007 42.6084986,10.7949986 42.8975,11.067 C43.1865014,11.3390014 43.4103325,11.6846646 43.569,12.104 C43.7276675,12.5233354 43.807,13.0163305 43.807,13.583 C43.807,14.1496695 43.7106676,14.6539978 43.518,15.096 C43.3253324,15.5380022 43.0675016,15.9176651 42.7445,16.235 C42.4214984,16.5523349 42.0418355,16.7931658 41.6055,16.9575 C41.1691645,17.1218342 40.7073358,17.204 40.22,17.204 Z M40.169,15.334 C40.5430019,15.334 40.8631653,15.1951681 41.1295,14.9175 C41.3958347,14.6398319 41.529,14.1950031 41.529,13.583 C41.529,13.0049971 41.3958347,12.5998345 41.1295,12.3675 C40.8631653,12.1351655 40.526002,12.019 40.118,12.019 C39.8346653,12.019 39.5485014,12.1011658 39.2595,12.2655 C38.9704986,12.4298342 38.7126678,12.7046647 38.486,13.09 C38.5426669,13.5206688 38.6276661,13.8776652 38.741,14.161 C38.8543339,14.4443347 38.9846659,14.6738325 39.132,14.8495 C39.2793341,15.0251675 39.4408325,15.149833 39.6165,15.2235 C39.7921675,15.297167 39.9763324,15.334 40.169,15.334 Z M45.609,17 L45.609,14.977 L47.955,14.977 L47.955,8.738 L45.932,8.738 L45.932,7.191 C46.5213363,7.0776661 47.019998,6.94166746 47.428,6.783 C47.836002,6.62433254 48.2326647,6.4316678 48.618,6.205 L50.454,6.205 L50.454,14.977 L52.477,14.977 L52.477,17 L45.609,17 Z M54.5,17 L54.5,8.568 L56.54,8.568 L56.71,9.656 L56.778,9.656 C57.1293351,9.30466491 57.5033313,9.00150127 57.9,8.7465 C58.2966687,8.49149872 58.7726639,8.364 59.328,8.364 C59.9286697,8.364 60.4131648,8.48583211 60.7815,8.7295 C61.1498352,8.97316788 61.4416656,9.3216644 61.657,9.775 C62.0310019,9.38966474 62.4248313,9.05816805 62.8385,8.7805 C63.2521687,8.50283194 63.7423305,8.364 64.309,8.364 C65.2156712,8.364 65.8814979,8.66716363 66.3065,9.2735 C66.7315021,9.87983636 66.944,10.7099947 66.944,11.764 L66.944,17 L64.445,17 L64.445,12.087 C64.445,11.4749969 64.3628342,11.0556678 64.1985,10.829 C64.0341658,10.6023322 63.7706685,10.489 63.408,10.489 C62.9886646,10.489 62.5070027,10.7609973 61.963,11.305 L61.963,17 L59.464,17 L59.464,12.087 C59.464,11.4749969 59.3818342,11.0556678 59.2175,10.829 C59.0531658,10.6023322 58.7896685,10.489 58.427,10.489 C57.9963312,10.489 57.5203359,10.7609973 56.999,11.305 L56.999,17 L54.5,17 Z M69.069,17 L69.069,8.568 L71.109,8.568 L71.279,9.656 L71.347,9.656 C71.6983351,9.30466491 72.0723314,9.00150127 72.469,8.7465 C72.8656687,8.49149872 73.3416639,8.364 73.897,8.364 C74.4976697,8.364 74.9821648,8.48583211 75.3505,8.7295 C75.7188352,8.97316788 76.0106656,9.3216644 76.226,9.775 C76.6000019,9.38966474 76.9938313,9.05816805 77.4075,8.7805 C77.8211687,8.50283194 78.3113305,8.364 78.878,8.364 C79.7846712,8.364 80.4504979,8.66716363 80.8755,9.2735 C81.3005021,9.87983636 81.513,10.7099947 81.513,11.764 L81.513,17 L79.014,17 L79.014,12.087 C79.014,11.4749969 78.9318342,11.0556678 78.7675,10.829 C78.6031658,10.6023322 78.3396685,10.489 77.977,10.489 C77.5576646,10.489 77.0760027,10.7609973 76.532,11.305 L76.532,17 L74.033,17 L74.033,12.087 C74.033,11.4749969 73.9508342,11.0556678 73.7865,10.829 C73.6221658,10.6023322 73.3586685,10.489 72.996,10.489 C72.5653312,10.489 72.0893359,10.7609973 71.568,11.305 L71.568,17 L69.069,17 Z" id="261mm" fill="#093169" fill-rule="nonzero" transform="translate(54.245000, 11.602500) rotate(-180.000000) translate(-54.245000, -11.602500) "></path>
            </g>
        </g>
        <path d="M283,130.5 L317,130.5 C320.865993,130.5 324,133.634007 324,137.5 C324,141.365993 320.865993,144.5 317,144.5 L283,144.5 C279.134007,144.5 276,141.365993 276,137.5 C276,133.634007 279.134007,130.5 283,130.5 Z" id="Rectangle" stroke="#CBD8F2" fill="#FFFFFF"></path>
    </g>
</svg>