<?xml version="1.0" encoding="UTF-8"?>
<svg width="600px" height="306px" viewBox="0 0 600 306" version="1.1" xmlns="http://www.w3.org/2000/svg" xmlns:xlink="http://www.w3.org/1999/xlink">
    <!-- Generator: Sketch 58 (84663) - https://sketch.com -->
    <title>ballsBases/B225-PB225</title>
    <desc>Created with Sketch.</desc>
    <g id="ballsBases/B225-PB225" stroke="none" stroke-width="1" fill="none" fill-rule="evenodd">
        <rect fill="#F5F9FF" x="0" y="0" width="600" height="306"></rect>
        <g id="Group-3" transform="translate(246.000000, 35.000000)">
            <g id="Group">
                <path d="M69.26,93.27 C67.448,118.288 83.236,141.215 107.255,148.446 M107,148.446 L0.025,148.446 C24.044,141.215 39.832,118.288 38.02,93.27 L69.3927127,93.27" id="Stroke-1" stroke="#CBD8F2" fill="#FFFFFF" stroke-linejoin="bevel"></path>
                <path d="M66.8027386,90.788 C89.0407386,84.526 103.249739,62.817 100.088739,39.931 C96.9277386,17.045 77.3667386,7.10542736e-15 54.2637386,7.10542736e-15 C31.1607386,7.10542736e-15 11.5997386,17.045 8.43873858,39.931 C5.27773858,62.817 19.4867386,84.526 41.7247386,90.788 L66.8027386,90.788 Z" id="Path" stroke="#CBD8F2" fill="#FFFFFF"></path>
                <path d="M8,45.5 L54.25,45.5" id="Rectangle-Copy-2" stroke="#CBD8F2"></path>
                <path d="M22.5655,33 L22.5655,21.916 L26.5605,21.916 C27.1498363,21.916 27.7023308,21.9726661 28.218,22.086 C28.7336692,22.1993339 29.1841647,22.3891653 29.5695,22.6555 C29.9548353,22.9218347 30.2608322,23.2759978 30.4875,23.718 C30.7141678,24.1600022 30.8275,24.7096634 30.8275,25.367 C30.8275,26.1830041 30.6490018,26.8544974 30.292,27.3815 C29.9349982,27.9085026 29.4561697,28.302332 28.8555,28.563 L31.3715,33 L28.5665,33 L26.4415,29.005 L25.0645,29.005 L25.0645,33 L22.5655,33 Z M25.0645,27.016 L26.3565,27.016 C27.0138366,27.016 27.5153316,26.8771681 27.861,26.5995 C28.2066684,26.3218319 28.3795,25.9110027 28.3795,25.367 C28.3795,24.8229973 28.2066684,24.4433344 27.861,24.228 C27.5153316,24.0126656 27.0138366,23.905 26.3565,23.905 L25.0645,23.905 L25.0645,27.016 Z M32.8675,33 L32.8675,30.977 L35.2135,30.977 L35.2135,24.738 L33.1905,24.738 L33.1905,23.191 C33.7798363,23.0776661 34.278498,22.9416675 34.6865,22.783 C35.094502,22.6243325 35.4911647,22.4316678 35.8765,22.205 L37.7125,22.205 L37.7125,30.977 L39.7355,30.977 L39.7355,33 L32.8675,33 Z M41.8435,33 L41.8435,30.977 L44.1895,30.977 L44.1895,24.738 L42.1665,24.738 L42.1665,23.191 C42.7558363,23.0776661 43.254498,22.9416675 43.6625,22.783 C44.070502,22.6243325 44.4671647,22.4316678 44.8525,22.205 L46.6885,22.205 L46.6885,30.977 L48.7115,30.977 L48.7115,33 L41.8435,33 Z M53.7605,33.204 C52.8764956,33.204 52.1285031,33.0651681 51.5165,32.7875 C50.9044969,32.5098319 50.4001686,32.138669 50.0035,31.674 L51.1595,30.093 C51.4881683,30.4103349 51.847998,30.670999 52.239,30.875 C52.630002,31.079001 53.057831,31.181 53.5225,31.181 C54.0551693,31.181 54.4801651,31.0705011 54.7975,30.8495 C55.1148349,30.6284989 55.2735,30.314002 55.2735,29.906 C55.2735,29.6679988 55.2310004,29.4526676 55.146,29.26 C55.0609996,29.0673324 54.9108344,28.905834 54.6955,28.7755 C54.4801656,28.645166 54.1855019,28.543167 53.8115,28.4695 C53.4374981,28.395833 52.9558363,28.359 52.3665,28.359 L52.3665,26.591 C52.8538358,26.591 53.2589984,26.5570003 53.582,26.489 C53.9050016,26.4209997 54.1656657,26.321834 54.364,26.1915 C54.5623343,26.061166 54.7039996,25.9081675 54.789,25.7325 C54.8740004,25.5568325 54.9165,25.3613344 54.9165,25.146 C54.9165,24.7719981 54.8031678,24.4801677 54.5765,24.2705 C54.3498322,24.0608323 54.0211688,23.956 53.5905,23.956 C53.2051647,23.956 52.8566682,24.0409991 52.545,24.211 C52.2333318,24.3810008 51.9075017,24.6133319 51.5675,24.908 L50.3095,23.378 C50.8081692,22.9473312 51.3323306,22.6101679 51.882,22.3665 C52.4316694,22.1228321 53.04083,22.001 53.7095,22.001 C54.2648361,22.001 54.7719977,22.066166 55.231,22.1965 C55.6900023,22.326834 56.0809984,22.5194987 56.404,22.7745 C56.7270016,23.0295013 56.9791658,23.3383315 57.1605,23.701 C57.3418342,24.0636685 57.4325,24.4829976 57.4325,24.959 C57.4325,25.5256695 57.2766682,26.004498 56.965,26.3955 C56.6533318,26.786502 56.2085029,27.1066654 55.6305,27.356 L55.6305,27.424 C56.2538365,27.6053342 56.7666647,27.9141645 57.169,28.3505 C57.5713353,28.7868355 57.7725,29.3563298 57.7725,30.059 C57.7725,30.5576692 57.6648344,31.002498 57.4495,31.3935 C57.2341656,31.784502 56.9451685,32.1131653 56.5825,32.3795 C56.2198315,32.6458347 55.7948358,32.8498326 55.3075,32.9915 C54.8201642,33.1331674 54.3045027,33.204 53.7605,33.204 Z M59.7105,33 L59.7105,24.568 L61.7505,24.568 L61.9205,25.656 L61.9885,25.656 C62.3398351,25.3046649 62.7138314,25.0015013 63.1105,24.7465 C63.5071687,24.4914987 63.9831639,24.364 64.5385,24.364 C65.1391697,24.364 65.6236648,24.4858321 65.992,24.7295 C66.3603352,24.9731679 66.6521656,25.3216644 66.8675,25.775 C67.2415019,25.3896647 67.6353313,25.0581681 68.049,24.7805 C68.4626687,24.5028319 68.9528305,24.364 69.5195,24.364 C70.4261712,24.364 71.0919979,24.6671636 71.517,25.2735 C71.9420021,25.8798364 72.1545,26.7099947 72.1545,27.764 L72.1545,33 L69.6555,33 L69.6555,28.087 C69.6555,27.4749969 69.5733342,27.0556678 69.409,26.829 C69.2446658,26.6023322 68.9811685,26.489 68.6185,26.489 C68.1991646,26.489 67.7175027,26.7609973 67.1735,27.305 L67.1735,33 L64.6745,33 L64.6745,28.087 C64.6745,27.4749969 64.5923342,27.0556678 64.428,26.829 C64.2636658,26.6023322 64.0001685,26.489 63.6375,26.489 C63.2068312,26.489 62.7308359,26.7609973 62.2095,27.305 L62.2095,33 L59.7105,33 Z M74.2795,33 L74.2795,24.568 L76.3195,24.568 L76.4895,25.656 L76.5575,25.656 C76.9088351,25.3046649 77.2828314,25.0015013 77.6795,24.7465 C78.0761686,24.4914987 78.5521639,24.364 79.1075,24.364 C79.7081697,24.364 80.1926648,24.4858321 80.561,24.7295 C80.9293352,24.9731679 81.2211656,25.3216644 81.4365,25.775 C81.8105019,25.3896647 82.2043313,25.0581681 82.618,24.7805 C83.0316687,24.5028319 83.5218305,24.364 84.0885,24.364 C84.9951712,24.364 85.6609979,24.6671636 86.086,25.2735 C86.5110021,25.8798364 86.7235,26.7099947 86.7235,27.764 L86.7235,33 L84.2245,33 L84.2245,28.087 C84.2245,27.4749969 84.1423342,27.0556678 83.978,26.829 C83.8136658,26.6023322 83.5501685,26.489 83.1875,26.489 C82.7681646,26.489 82.2865027,26.7609973 81.7425,27.305 L81.7425,33 L79.2435,33 L79.2435,28.087 C79.2435,27.4749969 79.1613342,27.0556678 78.997,26.829 C78.8326658,26.6023322 78.5691685,26.489 78.2065,26.489 C77.7758312,26.489 77.2998359,26.7609973 76.7785,27.305 L76.7785,33 L74.2795,33 Z" id="R113mm" fill="#093169" fill-rule="nonzero"></path>
                <rect id="Rectangle" stroke="#CBD8F2" fill="#FFFFFF" x="0" y="148" width="107" height="21"></rect>
            </g>
            <polyline id="Rectangle-Copy-2" stroke="#CBD8F2" transform="translate(54.000000, 191.500000) rotate(-180.000000) translate(-54.000000, -191.500000) " points="0.18 199 0 184 108 184 108 199"></polyline>
            <path d="M26.096,231 L26.096,229.572 L26.8970407,228.817199 C27.2832799,228.45 27.6480983,228.098102 27.9915,227.7615 C28.5638362,227.200497 29.0568313,226.673502 29.4705,226.1805 C29.8841687,225.687498 30.2071655,225.228502 30.4395,224.8035 C30.6718345,224.378498 30.788,223.973335 30.788,223.588 C30.788,223.055331 30.6520014,222.650168 30.38,222.3725 C30.1079986,222.094832 29.7340024,221.956 29.258,221.956 C28.8613314,221.956 28.5100015,222.066499 28.204,222.2875 C27.8979985,222.508501 27.6090014,222.766332 27.337,223.061 L25.977,221.718 C26.5096693,221.151331 27.0536639,220.723501 27.609,220.4345 C28.1643361,220.145499 28.8273295,220.001 29.598,220.001 C30.1306693,220.001 30.6151645,220.083166 31.0515,220.2475 C31.4878355,220.411834 31.8646651,220.644165 32.182,220.9445 C32.4993349,221.244835 32.7429992,221.604665 32.913,222.024 C33.0830008,222.443335 33.168,222.913664 33.168,223.435 C33.168,223.888336 33.0716676,224.350164 32.879,224.8205 C32.6863324,225.290836 32.4285016,225.761164 32.1055,226.2315 C31.7824984,226.701836 31.4141687,227.172164 31.0005,227.6425 C30.5868313,228.112836 30.1590022,228.574664 29.717,229.028 L30.1483749,228.979125 C30.2999578,228.963542 30.4593325,228.948667 30.6265,228.9345 C30.960835,228.906167 31.258332,228.892 31.519,228.892 L33.695,228.892 L33.695,231 L26.096,231 Z M39.22,231.204 C38.6986641,231.204 38.1915025,231.102001 37.6985,230.898 C37.2054975,230.693999 36.7691686,230.376669 36.3895,229.946 C36.0098314,229.515331 35.7066678,228.962837 35.48,228.2885 C35.2533322,227.614163 35.14,226.801005 35.14,225.849 C35.14,224.840328 35.2618321,223.96767 35.5055,223.231 C35.7491679,222.49433 36.0721647,221.888002 36.4745,221.412 C36.8768353,220.935998 37.3414974,220.581834 37.8685,220.3495 C38.3955026,220.117166 38.9423305,220.001 39.509,220.001 C40.2230036,220.001 40.8406641,220.128499 41.362,220.3835 C41.8833359,220.638501 42.3139983,220.941665 42.654,221.293 L41.345,222.789 C41.1523324,222.584999 40.9030015,222.406501 40.597,222.2535 C40.2909985,222.100499 39.9793349,222.024 39.662,222.024 C39.3673319,222.024 39.089668,222.080666 38.829,222.194 C38.568332,222.307334 38.3388343,222.497165 38.1405,222.7635 C37.9421657,223.029835 37.7806673,223.378331 37.656,223.809 C37.5313327,224.239669 37.4576668,224.766664 37.435,225.39 C37.5710007,225.208666 37.7296658,225.047167 37.911,224.9055 C38.0923342,224.763833 38.2793324,224.644834 38.472,224.5485 C38.6646676,224.452166 38.8573324,224.3785 39.05,224.3275 C39.2426676,224.2765 39.4239992,224.251 39.594,224.251 C40.058669,224.251 40.486498,224.318999 40.8775,224.455 C41.268502,224.591001 41.6084986,224.794999 41.8975,225.067 C42.1865014,225.339001 42.4103325,225.684665 42.569,226.104 C42.7276675,226.523335 42.807,227.016331 42.807,227.583 C42.807,228.149669 42.7106676,228.653998 42.518,229.096 C42.3253324,229.538002 42.0675016,229.917665 41.7445,230.235 C41.4214984,230.552335 41.0418355,230.793166 40.6055,230.9575 C40.1691645,231.121834 39.7073358,231.204 39.22,231.204 Z M39.169,229.334 C39.5430019,229.334 39.8631653,229.195168 40.1295,228.9175 C40.3958347,228.639832 40.529,228.195003 40.529,227.583 C40.529,227.004997 40.3958347,226.599834 40.1295,226.3675 C39.8631653,226.135166 39.526002,226.019 39.118,226.019 C38.8346653,226.019 38.5485014,226.101166 38.2595,226.2655 C37.9704986,226.429834 37.7126678,226.704665 37.486,227.09 C37.5426669,227.520669 37.6276661,227.877665 37.741,228.161 C37.8543339,228.444335 37.9846659,228.673832 38.132,228.8495 C38.2793341,229.025168 38.4408325,229.149833 38.6165,229.2235 C38.7921675,229.297167 38.9763324,229.334 39.169,229.334 Z M44.609,231 L44.609,228.977 L46.955,228.977 L46.955,222.738 L44.932,222.738 L44.932,221.191 C45.5213363,221.077666 46.019998,220.941667 46.428,220.783 C46.836002,220.624333 47.2326647,220.431668 47.618,220.205 L49.454,220.205 L49.454,228.977 L51.477,228.977 L51.477,231 L44.609,231 Z M53.5,231 L53.5,222.568 L55.54,222.568 L55.71,223.656 L55.778,223.656 C56.1293351,223.304665 56.5033313,223.001501 56.9,222.7465 C57.2966687,222.491499 57.7726639,222.364 58.328,222.364 C58.9286697,222.364 59.4131648,222.485832 59.7815,222.7295 C60.1498352,222.973168 60.4416656,223.321664 60.657,223.775 C61.0310019,223.389665 61.4248313,223.058168 61.8385,222.7805 C62.2521687,222.502832 62.7423305,222.364 63.309,222.364 C64.2156712,222.364 64.8814979,222.667164 65.3065,223.2735 C65.7315021,223.879836 65.944,224.709995 65.944,225.764 L65.944,231 L63.445,231 L63.445,226.087 C63.445,225.474997 63.3628342,225.055668 63.1985,224.829 C63.0341658,224.602332 62.7706685,224.489 62.408,224.489 C61.9886646,224.489 61.5070027,224.760997 60.963,225.305 L60.963,231 L58.464,231 L58.464,226.087 C58.464,225.474997 58.3818342,225.055668 58.2175,224.829 C58.0531658,224.602332 57.7896685,224.489 57.427,224.489 C56.9963312,224.489 56.5203359,224.760997 55.999,225.305 L55.999,231 L53.5,231 Z M68.069,231 L68.069,222.568 L70.109,222.568 L70.279,223.656 L70.347,223.656 C70.6983351,223.304665 71.0723314,223.001501 71.469,222.7465 C71.8656687,222.491499 72.3416639,222.364 72.897,222.364 C73.4976697,222.364 73.9821648,222.485832 74.3505,222.7295 C74.7188352,222.973168 75.0106656,223.321664 75.226,223.775 C75.6000019,223.389665 75.9938313,223.058168 76.4075,222.7805 C76.8211687,222.502832 77.3113305,222.364 77.878,222.364 C78.7846712,222.364 79.4504979,222.667164 79.8755,223.2735 C80.3005021,223.879836 80.513,224.709995 80.513,225.764 L80.513,231 L78.014,231 L78.014,226.087 C78.014,225.474997 77.9318342,225.055668 77.7675,224.829 C77.6031658,224.602332 77.3396685,224.489 76.977,224.489 C76.5576646,224.489 76.0760027,224.760997 75.532,225.305 L75.532,231 L73.033,231 L73.033,226.087 C73.033,225.474997 72.9508342,225.055668 72.7865,224.829 C72.6221658,224.602332 72.3586685,224.489 71.996,224.489 C71.5653312,224.489 71.0893359,224.760997 70.568,225.305 L70.568,231 L68.069,231 Z" id="261mm" fill="#093169" fill-rule="nonzero" transform="translate(53.245000, 225.602500) rotate(-360.000000) translate(-53.245000, -225.602500) "></path>
            <g id="Group-2" transform="translate(123.000000, 0.000000)">
                <path d="M18.465,91 L18.465,88.416 L13.79,88.416 L13.79,86.699 L17.734,80.205 L20.794,80.205 L20.794,86.512 L22.035,86.512 L22.035,88.416 L20.794,88.416 L20.794,91 L18.465,91 Z M16.187,86.512 L18.465,86.512 L18.465,84.761 C18.465,84.4799319 18.4722533,84.1644142 18.48676,83.8144407 L18.5398,82.7835601 C18.5488666,82.6285204 18.5579333,82.4830007 18.567,82.347 L18.499,82.347 C18.3629993,82.6416681 18.2213341,82.9419985 18.074,83.248 C17.9266659,83.5540015 17.7736675,83.8599985 17.615,84.166 L16.187,86.512 Z M23.633,91 L23.633,88.977 L25.979,88.977 L25.979,82.738 L23.956,82.738 L23.956,81.191 C24.5453363,81.0776661 25.043998,80.9416675 25.452,80.783 C25.860002,80.6243325 26.2566647,80.4316678 26.642,80.205 L28.478,80.205 L28.478,88.977 L30.501,88.977 L30.501,91 L23.633,91 Z M35.55,91.204 C34.6659956,91.204 33.9180031,91.0651681 33.306,90.7875 C32.6939969,90.5098319 32.1896687,90.138669 31.793,89.674 L32.949,88.093 C33.2776683,88.4103349 33.637498,88.670999 34.0285,88.875 C34.419502,89.079001 34.847331,89.181 35.312,89.181 C35.8446693,89.181 36.2696651,89.0705011 36.587,88.8495 C36.9043349,88.6284989 37.063,88.314002 37.063,87.906 C37.063,87.6679988 37.0205004,87.4526676 36.9355,87.26 C36.8504996,87.0673324 36.7003344,86.905834 36.485,86.7755 C36.2696656,86.645166 35.9750019,86.543167 35.601,86.4695 C35.2269981,86.395833 34.7453363,86.359 34.156,86.359 L34.156,84.591 C34.6433358,84.591 35.0484984,84.5570003 35.3715,84.489 C35.6945016,84.4209997 35.9551657,84.321834 36.1535,84.1915 C36.3518343,84.061166 36.4934996,83.9081675 36.5785,83.7325 C36.6635004,83.5568325 36.706,83.3613344 36.706,83.146 C36.706,82.7719981 36.5926678,82.4801677 36.366,82.2705 C36.1393322,82.0608323 35.8106688,81.956 35.38,81.956 C34.9946647,81.956 34.6461682,82.0409992 34.3345,82.211 C34.0228318,82.3810008 33.6970017,82.6133319 33.357,82.908 L32.099,81.378 C32.5976692,80.9473312 33.1218306,80.6101679 33.6715,80.3665 C34.2211694,80.1228321 34.83033,80.001 35.499,80.001 C36.0543361,80.001 36.5614977,80.066166 37.0205,80.1965 C37.4795023,80.326834 37.8704984,80.5194987 38.1935,80.7745 C38.5165016,81.0295013 38.7686658,81.3383315 38.95,81.701 C39.1313342,82.0636685 39.222,82.4829976 39.222,82.959 C39.222,83.5256695 39.0661682,84.004498 38.7545,84.3955 C38.4428318,84.786502 37.9980029,85.1066654 37.42,85.356 L37.42,85.424 C38.0433364,85.6053342 38.5561647,85.9141645 38.9585,86.3505 C39.3608353,86.7868355 39.562,87.3563298 39.562,88.059 C39.562,88.5576692 39.4543344,89.002498 39.239,89.3935 C39.0236656,89.784502 38.7346685,90.1131653 38.372,90.3795 C38.0093315,90.6458347 37.5843358,90.8498326 37.097,90.9915 C36.6096642,91.1331674 36.0940027,91.204 35.55,91.204 Z M41.5,91 L41.5,82.568 L43.54,82.568 L43.71,83.656 L43.778,83.656 C44.1293351,83.3046649 44.5033314,83.0015013 44.9,82.7465 C45.2966687,82.4914987 45.7726639,82.364 46.328,82.364 C46.9286697,82.364 47.4131648,82.4858321 47.7815,82.7295 C48.1498352,82.9731679 48.4416656,83.3216644 48.657,83.775 C49.0310019,83.3896647 49.4248313,83.0581681 49.8385,82.7805 C50.2521687,82.5028319 50.7423305,82.364 51.309,82.364 C52.2156712,82.364 52.8814979,82.6671636 53.3065,83.2735 C53.7315021,83.8798364 53.944,84.7099947 53.944,85.764 L53.944,91 L51.445,91 L51.445,86.087 C51.445,85.4749969 51.3628342,85.0556678 51.1985,84.829 C51.0341658,84.6023322 50.7706685,84.489 50.408,84.489 C49.9886646,84.489 49.5070027,84.7609973 48.963,85.305 L48.963,91 L46.464,91 L46.464,86.087 C46.464,85.4749969 46.3818342,85.0556678 46.2175,84.829 C46.0531658,84.6023322 45.7896685,84.489 45.427,84.489 C44.9963312,84.489 44.5203359,84.7609973 43.999,85.305 L43.999,91 L41.5,91 Z M56.069,91 L56.069,82.568 L58.109,82.568 L58.279,83.656 L58.347,83.656 C58.6983351,83.3046649 59.0723314,83.0015013 59.469,82.7465 C59.8656687,82.4914987 60.3416639,82.364 60.897,82.364 C61.4976697,82.364 61.9821648,82.4858321 62.3505,82.7295 C62.7188352,82.9731679 63.0106656,83.3216644 63.226,83.775 C63.6000019,83.3896647 63.9938313,83.0581681 64.4075,82.7805 C64.8211687,82.5028319 65.3113305,82.364 65.878,82.364 C66.7846712,82.364 67.4504979,82.6671636 67.8755,83.2735 C68.3005021,83.8798364 68.513,84.7099947 68.513,85.764 L68.513,91 L66.014,91 L66.014,86.087 C66.014,85.4749969 65.9318342,85.0556678 65.7675,84.829 C65.6031658,84.6023322 65.3396685,84.489 64.977,84.489 C64.5576646,84.489 64.0760027,84.7609973 63.532,85.305 L63.532,91 L61.033,91 L61.033,86.087 C61.033,85.4749969 60.9508342,85.0556678 60.7865,84.829 C60.6221658,84.6023322 60.3586685,84.489 59.996,84.489 C59.5653312,84.489 59.0893359,84.7609973 58.568,85.305 L58.568,91 L56.069,91 Z" id="413mm" fill="#093169" fill-rule="nonzero" transform="translate(41.151500, 85.602500) rotate(-270.000000) translate(-41.151500, -85.602500) "></path>
                <polyline id="Rectangle-Copy-3" stroke="#CBD8F2" transform="translate(7.500000, 84.500000) rotate(-270.000000) translate(-7.500000, -84.500000) " points="-76.7183333 92 -77 77 92 77 92 92"></polyline>
            </g>
        </g>
    </g>
</svg>