<?xml version="1.0" encoding="UTF-8"?>
<svg width="600px" height="362px" viewBox="0 0 600 362" version="1.1" xmlns="http://www.w3.org/2000/svg" xmlns:xlink="http://www.w3.org/1999/xlink">
    <!-- Generator: Sketch 58 (84663) - https://sketch.com -->
    <title>ballsBases/B300-PB300</title>
    <desc>Created with Sketch.</desc>
    <g id="ballsBases/B300-PB300" stroke="none" stroke-width="1" fill="none" fill-rule="evenodd">
        <rect fill="#F5F9FF" x="0" y="0" width="600" height="362"></rect>
        <g id="Group-2" transform="translate(229.000000, 35.000000)">
            <path d="M92.3267087,122 C89.9097425,155.553813 110.965448,186.302006 143,196 M142.979,195.832065 L0,196 C32.034552,186.302006 53.0902575,155.553813 50.6732913,122 L92.2453349,122" id="Stroke-1" stroke="#CBD8F2" fill="#FFFFFF"></path>
            <path d="M92.3148935,120 C120.797184,110.282144 138.082178,81.3322572 133.168793,51.5776249 C128.255409,21.8219941 102.586885,0 72.5,0 C42.4131151,0 16.744591,21.8219941 11.8312065,51.5776249 C6.91782213,81.3322572 24.2028157,110.282144 52.6851065,120 L92.3148935,120 Z" id="Path" stroke="#CBD8F2" fill="#FFFFFF"></path>
            <path d="M11,60.5 L72.745,60.5" id="Rectangle-Copy-2" stroke="#CBD8F2"></path>
            <path d="M40.5655,48 L40.5655,36.916 L44.5605,36.916 C45.1498363,36.916 45.7023308,36.9726661 46.218,37.086 C46.7336692,37.1993339 47.1841647,37.3891653 47.5695,37.6555 C47.9548353,37.9218347 48.2608322,38.2759978 48.4875,38.718 C48.7141678,39.1600022 48.8275,39.7096634 48.8275,40.367 C48.8275,41.1830041 48.6490018,41.8544974 48.292,42.3815 C47.9349982,42.9085026 47.4561697,43.302332 46.8555,43.563 L49.3715,48 L46.5665,48 L44.4415,44.005 L43.0645,44.005 L43.0645,48 L40.5655,48 Z M43.0645,42.016 L44.3565,42.016 C45.0138366,42.016 45.5153316,41.8771681 45.861,41.5995 C46.2066684,41.3218319 46.3795,40.9110027 46.3795,40.367 C46.3795,39.8229973 46.2066684,39.4433344 45.861,39.228 C45.5153316,39.0126656 45.0138366,38.905 44.3565,38.905 L43.0645,38.905 L43.0645,42.016 Z M50.8675,48 L50.8675,45.977 L53.2135,45.977 L53.2135,39.738 L51.1905,39.738 L51.1905,38.191 C51.7798363,38.0776661 52.278498,37.9416675 52.6865,37.783 C53.094502,37.6243325 53.4911647,37.4316678 53.8765,37.205 L55.7125,37.205 L55.7125,45.977 L57.7355,45.977 L57.7355,48 L50.8675,48 Z M62.8525,48.204 C61.9684956,48.204 61.2205031,48.0595014 60.6085,47.7705 C59.9964969,47.4814986 59.4751688,47.1216688 59.0445,46.691 L60.1665,45.11 C60.4951683,45.4046681 60.8493314,45.6568323 61.229,45.8665 C61.6086686,46.0761677 62.030831,46.181 62.4955,46.181 C63.0508361,46.181 63.4928317,46.0393348 63.8215,45.756 C64.1501683,45.4726652 64.3145,45.0533361 64.3145,44.498 C64.3145,43.9539973 64.1586682,43.5403347 63.847,43.257 C63.5353318,42.9736652 63.1245026,42.832 62.6145,42.832 C62.4558325,42.832 62.3141673,42.8404999 62.1895,42.8575 C62.0648327,42.8745001 61.9430006,42.9056664 61.824,42.951 C61.7049994,42.9963336 61.580334,43.0529997 61.45,43.121 C61.319666,43.1890003 61.1751675,43.2739995 61.0165,43.376 L59.8945,42.662 L60.2005,37.205 L66.3205,37.205 L66.3205,39.313 L62.3595,39.313 L62.1725,41.336 C62.376501,41.2453329 62.5719991,41.1801669 62.759,41.1405 C62.9460009,41.1008331 63.1528322,41.081 63.3795,41.081 C63.844169,41.081 64.2833313,41.1489993 64.697,41.285 C65.1106687,41.4210007 65.4761651,41.6249986 65.7935,41.897 C66.1108349,42.1690014 66.3601658,42.5146646 66.5415,42.934 C66.7228342,43.3533354 66.8135,43.8519971 66.8135,44.43 C66.8135,45.0306697 66.7058344,45.563331 66.4905,46.028 C66.2751656,46.492669 65.9861685,46.8864984 65.6235,47.2095 C65.2608315,47.5325016 64.8386691,47.7789992 64.357,47.949 C63.8753309,48.1190008 63.3738359,48.204 62.8525,48.204 Z M72.1175,48.204 C71.5394971,48.204 71.0125024,48.0821679 70.5365,47.8385 C70.0604976,47.5948321 69.655335,47.2350024 69.321,46.759 C68.986665,46.2829976 68.7260009,45.6936702 68.539,44.991 C68.3519991,44.2883298 68.2585,43.4780046 68.2585,42.56 C68.2585,41.6419954 68.3519991,40.8373368 68.539,40.146 C68.7260009,39.4546632 68.986665,38.8738357 69.321,38.4035 C69.655335,37.9331643 70.0604976,37.5818345 70.5365,37.3495 C71.0125024,37.1171655 71.5394971,37.001 72.1175,37.001 C72.6955029,37.001 73.2224976,37.1171655 73.6985,37.3495 C74.1745024,37.5818345 74.579665,37.9331643 74.914,38.4035 C75.248335,38.8738357 75.5089991,39.4546632 75.696,40.146 C75.8830009,40.8373368 75.9765,41.6419954 75.9765,42.56 C75.9765,43.4780046 75.8830009,44.2883298 75.696,44.991 C75.5089991,45.6936702 75.248335,46.2829976 74.914,46.759 C74.579665,47.2350024 74.1745024,47.5948321 73.6985,47.8385 C73.2224976,48.0821679 72.6955029,48.204 72.1175,48.204 Z M72.1175,46.266 C72.3328344,46.266 72.5311658,46.2121672 72.7125,46.1045 C72.8938342,45.9968328 73.0524993,45.8013347 73.1885,45.518 C73.3245007,45.2346652 73.429333,44.8550024 73.503,44.379 C73.576667,43.9029976 73.6135,43.2966703 73.6135,42.56 C73.6135,41.8233296 73.576667,41.2198357 73.503,40.7495 C73.429333,40.2791643 73.3245007,39.9108347 73.1885,39.6445 C73.0524993,39.3781653 72.8938342,39.1940005 72.7125,39.092 C72.5311658,38.9899995 72.3328344,38.939 72.1175,38.939 C71.913499,38.939 71.7208342,38.9899995 71.5395,39.092 C71.3581658,39.1940005 71.1995007,39.3781653 71.0635,39.6445 C70.9274993,39.9108347 70.8198337,40.2791643 70.7405,40.7495 C70.6611663,41.2198357 70.6215,41.8233296 70.6215,42.56 C70.6215,43.2966703 70.6611663,43.9029976 70.7405,44.379 C70.8198337,44.8550024 70.9274993,45.2346652 71.0635,45.518 C71.1995007,45.8013347 71.3581658,45.9968328 71.5395,46.1045 C71.7208342,46.2121672 71.913499,46.266 72.1175,46.266 Z M77.7105,48 L77.7105,39.568 L79.7505,39.568 L79.9205,40.656 L79.9885,40.656 C80.3398351,40.3046649 80.7138314,40.0015013 81.1105,39.7465 C81.5071687,39.4914987 81.9831639,39.364 82.5385,39.364 C83.1391697,39.364 83.6236648,39.4858321 83.992,39.7295 C84.3603352,39.9731679 84.6521656,40.3216644 84.8675,40.775 C85.2415019,40.3896647 85.6353313,40.0581681 86.049,39.7805 C86.4626687,39.5028319 86.9528305,39.364 87.5195,39.364 C88.4261712,39.364 89.0919979,39.6671636 89.517,40.2735 C89.9420021,40.8798364 90.1545,41.7099947 90.1545,42.764 L90.1545,48 L87.6555,48 L87.6555,43.087 C87.6555,42.4749969 87.5733342,42.0556678 87.409,41.829 C87.2446658,41.6023322 86.9811685,41.489 86.6185,41.489 C86.1991646,41.489 85.7175027,41.7609973 85.1735,42.305 L85.1735,48 L82.6745,48 L82.6745,43.087 C82.6745,42.4749969 82.5923342,42.0556678 82.428,41.829 C82.2636658,41.6023322 82.0001685,41.489 81.6375,41.489 C81.2068312,41.489 80.7308359,41.7609973 80.2095,42.305 L80.2095,48 L77.7105,48 Z M92.2795,48 L92.2795,39.568 L94.3195,39.568 L94.4895,40.656 L94.5575,40.656 C94.9088351,40.3046649 95.2828314,40.0015013 95.6795,39.7465 C96.0761686,39.4914987 96.5521639,39.364 97.1075,39.364 C97.7081697,39.364 98.1926648,39.4858321 98.561,39.7295 C98.9293352,39.9731679 99.2211656,40.3216644 99.4365,40.775 C99.8105019,40.3896647 100.204331,40.0581681 100.618,39.7805 C101.031669,39.5028319 101.52183,39.364 102.0885,39.364 C102.995171,39.364 103.660998,39.6671636 104.086,40.2735 C104.511002,40.8798364 104.7235,41.7099947 104.7235,42.764 L104.7235,48 L102.2245,48 L102.2245,43.087 C102.2245,42.4749969 102.142334,42.0556678 101.978,41.829 C101.813666,41.6023322 101.550168,41.489 101.1875,41.489 C100.768165,41.489 100.286503,41.7609973 99.7425,42.305 L99.7425,48 L97.2435,48 L97.2435,43.087 C97.2435,42.4749969 97.1613342,42.0556678 96.997,41.829 C96.8326658,41.6023322 96.5691685,41.489 96.2065,41.489 C95.7758312,41.489 95.2998359,41.7609973 94.7785,42.305 L94.7785,48 L92.2795,48 Z" id="R150mm" fill="#093169" fill-rule="nonzero"></path>
            <rect id="Rectangle" stroke="#CBD8F2" fill="#FFFFFF" x="0" y="196" width="143" height="29"></rect>
        </g>
        <g id="Group" transform="translate(229.000000, 275.000000)">
            <polyline id="Rectangle-Copy-2" stroke="#CBD8F2" transform="translate(71.500000, 7.500000) rotate(-180.000000) translate(-71.500000, -7.500000) " points="0.238333333 15 0 0 143 0 143 15"></polyline>
            <path d="M47.598,47.204 C46.7139956,47.204 45.9660031,47.0651681 45.354,46.7875 C44.7419969,46.5098319 44.2376686,46.138669 43.841,45.674 L44.997,44.093 C45.3256683,44.4103349 45.685498,44.670999 46.0765,44.875 C46.467502,45.079001 46.895331,45.181 47.36,45.181 C47.8926693,45.181 48.3176651,45.0705011 48.635,44.8495 C48.9523349,44.6284989 49.111,44.314002 49.111,43.906 C49.111,43.6679988 49.0685004,43.4526676 48.9835,43.26 C48.8984996,43.0673324 48.7483344,42.905834 48.533,42.7755 C48.3176656,42.645166 48.0230019,42.543167 47.649,42.4695 C47.2749981,42.395833 46.7933363,42.359 46.204,42.359 L46.204,40.591 C46.6913358,40.591 47.0964984,40.5570003 47.4195,40.489 C47.7425016,40.4209997 48.0031657,40.321834 48.2015,40.1915 C48.3998343,40.061166 48.5414996,39.9081675 48.6265,39.7325 C48.7115004,39.5568325 48.754,39.3613344 48.754,39.146 C48.754,38.7719981 48.6406678,38.4801677 48.414,38.2705 C48.1873322,38.0608323 47.8586688,37.956 47.428,37.956 C47.0426647,37.956 46.6941682,38.0409991 46.3825,38.211 C46.0708318,38.3810008 45.7450017,38.6133319 45.405,38.908 L44.147,37.378 C44.6456692,36.9473312 45.1698306,36.6101679 45.7195,36.3665 C46.2691694,36.1228321 46.87833,36.001 47.547,36.001 C48.1023361,36.001 48.6094977,36.066166 49.0685,36.1965 C49.5275023,36.326834 49.9184984,36.5194987 50.2415,36.7745 C50.5645016,37.0295013 50.8166658,37.3383315 50.998,37.701 C51.1793342,38.0636685 51.27,38.4829976 51.27,38.959 C51.27,39.5256695 51.1141682,40.004498 50.8025,40.3955 C50.4908318,40.786502 50.0460029,41.1066654 49.468,41.356 L49.468,41.424 C50.0913365,41.6053342 50.6041647,41.9141645 51.0065,42.3505 C51.4088353,42.7868355 51.61,43.3563298 51.61,44.059 C51.61,44.5576692 51.5023344,45.002498 51.287,45.3935 C51.0716656,45.784502 50.7826685,46.1131653 50.42,46.3795 C50.0573315,46.6458347 49.6323358,46.8498326 49.145,46.9915 C48.6576642,47.1331674 48.1420027,47.204 47.598,47.204 Z M57.441,47 L57.441,44.416 L52.766,44.416 L52.766,42.699 L56.71,36.205 L59.77,36.205 L59.77,42.512 L61.011,42.512 L61.011,44.416 L59.77,44.416 L59.77,47 L57.441,47 Z M55.163,42.512 L57.441,42.512 L57.441,40.761 C57.441,40.4799319 57.4482533,40.1644142 57.46276,39.8144407 L57.5158,38.7835601 C57.5248666,38.6285204 57.5339333,38.4830007 57.543,38.347 L57.475,38.347 L57.05,39.248 L57.05,39.248 C56.9026659,39.5540015 56.7496675,39.8599985 56.591,40.166 L55.163,42.512 Z M65.89,47.204 C65.3459973,47.204 64.8445023,47.1331674 64.3855,46.9915 C63.9264977,46.8498326 63.529835,46.648668 63.1955,46.388 C62.861165,46.127332 62.6005009,45.8156685 62.4135,45.453 C62.2264991,45.0903315 62.133,44.6880022 62.133,44.246 C62.133,43.5886634 62.3114982,43.0503354 62.6685,42.631 C63.0255018,42.2116646 63.4589974,41.8660014 63.969,41.594 L63.969,41.526 C63.5496646,41.2086651 63.2040014,40.8488353 62.932,40.4465 C62.6599986,40.0441647 62.524,39.5540029 62.524,38.976 C62.524,38.5226644 62.6089992,38.1118352 62.779,37.7435 C62.9490008,37.3751648 63.1869985,37.060668 63.493,36.8 C63.7990015,36.539332 64.1644979,36.3410007 64.5895,36.205 C65.0145021,36.0689993 65.4763308,36.001 65.975,36.001 C66.4623358,36.001 66.909998,36.0718326 67.318,36.2135 C67.726002,36.3551674 68.0716652,36.5534987 68.355,36.8085 C68.6383347,37.0635013 68.8593325,37.3751648 69.018,37.7435 C69.1766675,38.1118352 69.256,38.5169978 69.256,38.959 C69.256,39.4803359 69.1143347,39.9421647 68.831,40.3445 C68.5476652,40.7468353 68.2190019,41.0726654 67.845,41.322 L67.845,41.39 C68.3663359,41.6733348 68.8083315,42.0359978 69.171,42.478 C69.5336685,42.9200022 69.715,43.4979964 69.715,44.212 C69.715,44.6426688 69.6243342,45.0393315 69.443,45.402 C69.2616658,45.7646685 69.003835,46.0791653 68.6695,46.3455 C68.335165,46.6118347 67.9328357,46.8214992 67.4625,46.9745 C66.9921643,47.1275008 66.4680029,47.204 65.89,47.204 Z M66.57,40.71 C67.0120022,40.1999974 67.233,39.6730027 67.233,39.129 C67.233,38.7096646 67.1168345,38.3725013 66.8845,38.1175 C66.6521655,37.8624987 66.332002,37.735 65.924,37.735 C65.5953317,37.735 65.3120012,37.836999 65.074,38.041 C64.8359988,38.245001 64.717,38.5566646 64.717,38.976 C64.717,39.4180022 64.8869983,39.7636654 65.227,40.013 C65.5670017,40.2623346 66.0146639,40.4946656 66.57,40.71 Z M65.941,45.47 C66.3603354,45.47 66.7059986,45.3595011 66.978,45.1385 C67.2500014,44.9174989 67.386,44.5803356 67.386,44.127 C67.386,43.8889988 67.3321672,43.6850009 67.2245,43.515 C67.1168328,43.3449991 66.961001,43.1891674 66.757,43.0475 C66.552999,42.9058326 66.3121681,42.7726673 66.0345,42.648 L65.108,42.24 L65.108,42.24 C64.8699988,42.4666678 64.6716675,42.7273319 64.513,43.022 C64.3543325,43.3166681 64.275,43.6283317 64.275,43.957 C64.275,44.4330024 64.4393317,44.8041653 64.768,45.0705 C65.0966683,45.3368347 65.4876644,45.47 65.941,45.47 Z M71.5,47 L71.5,38.568 L73.54,38.568 L73.71,39.656 L73.778,39.656 C74.1293351,39.3046649 74.5033313,39.0015013 74.9,38.7465 C75.2966687,38.4914987 75.7726639,38.364 76.328,38.364 C76.9286697,38.364 77.4131648,38.4858321 77.7815,38.7295 C78.1498352,38.9731679 78.4416656,39.3216644 78.657,39.775 C79.0310019,39.3896647 79.4248313,39.0581681 79.8385,38.7805 C80.2521687,38.5028319 80.7423305,38.364 81.309,38.364 C82.2156712,38.364 82.8814979,38.6671636 83.3065,39.2735 C83.7315021,39.8798364 83.944,40.7099947 83.944,41.764 L83.944,47 L81.445,47 L81.445,42.087 C81.445,41.4749969 81.3628342,41.0556678 81.1985,40.829 C81.0341658,40.6023322 80.7706685,40.489 80.408,40.489 C79.9886646,40.489 79.5070027,40.7609973 78.963,41.305 L78.963,47 L76.464,47 L76.464,42.087 C76.464,41.4749969 76.3818342,41.0556678 76.2175,40.829 C76.0531658,40.6023322 75.7896685,40.489 75.427,40.489 C74.9963312,40.489 74.5203359,40.7609973 73.999,41.305 L73.999,47 L71.5,47 Z M86.069,47 L86.069,38.568 L88.109,38.568 L88.279,39.656 L88.347,39.656 C88.6983351,39.3046649 89.0723314,39.0015013 89.469,38.7465 C89.8656687,38.4914987 90.3416639,38.364 90.897,38.364 C91.4976697,38.364 91.9821648,38.4858321 92.3505,38.7295 C92.7188352,38.9731679 93.0106656,39.3216644 93.226,39.775 C93.6000019,39.3896647 93.9938313,39.0581681 94.4075,38.7805 C94.8211687,38.5028319 95.3113305,38.364 95.878,38.364 C96.7846712,38.364 97.4504979,38.6671636 97.8755,39.2735 C98.3005021,39.8798364 98.513,40.7099947 98.513,41.764 L98.513,47 L96.014,47 L96.014,42.087 C96.014,41.4749969 95.9318342,41.0556678 95.7675,40.829 C95.6031658,40.6023322 95.3396685,40.489 94.977,40.489 C94.5576646,40.489 94.0760027,40.7609973 93.532,41.305 L93.532,47 L91.033,47 L91.033,42.087 C91.033,41.4749969 90.9508342,41.0556678 90.7865,40.829 C90.6221658,40.6023322 90.3586685,40.489 89.996,40.489 C89.5653312,40.489 89.0893359,40.7609973 88.568,41.305 L88.568,47 L86.069,47 Z" id="348mm" fill="#093169" fill-rule="nonzero" transform="translate(71.177000, 41.602500) rotate(-360.000000) translate(-71.177000, -41.602500) "></path>
        </g>
        <g id="Group-3" transform="translate(387.000000, 35.000000)">
            <path d="M17.666,119.204 C16.7819956,119.204 16.0340031,119.059501 15.422,118.7705 C14.8099969,118.481499 14.2886688,118.121669 13.858,117.691 L14.98,116.11 C15.3086683,116.404668 15.6628314,116.656832 16.0425,116.8665 C16.4221686,117.076168 16.844331,117.181 17.309,117.181 C17.8643361,117.181 18.3063317,117.039335 18.635,116.756 C18.9636683,116.472665 19.128,116.053336 19.128,115.498 C19.128,114.953997 18.9721682,114.540335 18.6605,114.257 C18.3488318,113.973665 17.9380026,113.832 17.428,113.832 C17.2693325,113.832 17.1276673,113.8405 17.003,113.8575 C16.8783327,113.8745 16.7565006,113.905666 16.6375,113.951 C16.5184994,113.996334 16.393834,114.053 16.2635,114.121 C16.133166,114.189 15.9886675,114.273999 15.83,114.376 L14.708,113.662 L15.014,108.205 L21.134,108.205 L21.134,110.313 L17.173,110.313 L16.986,112.336 C17.190001,112.245333 17.3854991,112.180167 17.5725,112.1405 C17.7595009,112.100833 17.9663322,112.081 18.193,112.081 C18.657669,112.081 19.0968313,112.148999 19.5105,112.285 C19.9241687,112.421001 20.2896651,112.624999 20.607,112.897 C20.9243349,113.169001 21.1736658,113.514665 21.355,113.934 C21.5363342,114.353335 21.627,114.851997 21.627,115.43 C21.627,116.03067 21.5193344,116.563331 21.304,117.028 C21.0886656,117.492669 20.7996685,117.886498 20.437,118.2095 C20.0743315,118.532502 19.6521691,118.778999 19.1705,118.949 C18.6888309,119.119001 18.1873359,119.204 17.666,119.204 Z M27.441,119 L27.441,116.416 L22.766,116.416 L22.766,114.699 L26.71,108.205 L29.77,108.205 L29.77,114.512 L31.011,114.512 L31.011,116.416 L29.77,116.416 L29.77,119 L27.441,119 Z M25.163,114.512 L27.441,114.512 L27.441,112.761 C27.441,112.479932 27.4482533,112.164414 27.46276,111.814441 L27.5158,110.78356 C27.5248666,110.62852 27.5339333,110.483001 27.543,110.347 L27.475,110.347 L27.05,111.248 L27.05,111.248 C26.9026659,111.554002 26.7496675,111.859998 26.591,112.166 L25.163,114.512 Z M36.196,119.204 C35.6746641,119.204 35.1675025,119.102001 34.6745,118.898 C34.1814975,118.693999 33.7451686,118.376669 33.3655,117.946 C32.9858314,117.515331 32.6826678,116.962837 32.456,116.2885 C32.2293322,115.614163 32.116,114.801005 32.116,113.849 C32.116,112.840328 32.2378321,111.96767 32.4815,111.231 C32.7251679,110.49433 33.0481647,109.888002 33.4505,109.412 C33.8528353,108.935998 34.3174974,108.581834 34.8445,108.3495 C35.3715026,108.117166 35.9183305,108.001 36.485,108.001 C37.1990036,108.001 37.8166641,108.128499 38.338,108.3835 C38.8593359,108.638501 39.2899983,108.941665 39.63,109.293 L38.321,110.789 C38.1283324,110.584999 37.8790015,110.406501 37.573,110.2535 C37.2669985,110.100499 36.9553349,110.024 36.638,110.024 C36.3433319,110.024 36.065668,110.080666 35.805,110.194 C35.544332,110.307334 35.3148343,110.497165 35.1165,110.7635 C34.9181657,111.029835 34.7566673,111.378331 34.632,111.809 C34.5073327,112.239669 34.4336668,112.766664 34.411,113.39 C34.5470007,113.208666 34.7056658,113.047167 34.887,112.9055 C35.0683342,112.763833 35.2553324,112.644834 35.448,112.5485 C35.6406676,112.452166 35.8333324,112.3785 36.026,112.3275 C36.2186676,112.2765 36.3999991,112.251 36.57,112.251 C37.034669,112.251 37.462498,112.318999 37.8535,112.455 C38.244502,112.591001 38.5844986,112.794999 38.8735,113.067 C39.1625014,113.339001 39.3863325,113.684665 39.545,114.104 C39.7036675,114.523335 39.783,115.01633 39.783,115.583 C39.783,116.14967 39.6866676,116.653998 39.494,117.096 C39.3013324,117.538002 39.0435016,117.917665 38.7205,118.235 C38.3974984,118.552335 38.0178355,118.793166 37.5815,118.9575 C37.1451645,119.121834 36.6833358,119.204 36.196,119.204 Z M36.145,117.334 C36.5190019,117.334 36.8391653,117.195168 37.1055,116.9175 C37.3718347,116.639832 37.505,116.195003 37.505,115.583 C37.505,115.004997 37.3718347,114.599834 37.1055,114.3675 C36.8391653,114.135166 36.502002,114.019 36.094,114.019 C35.8106652,114.019 35.5245014,114.101166 35.2355,114.2655 C34.9464986,114.429834 34.6886678,114.704665 34.462,115.09 C34.5186669,115.520669 34.6036661,115.877665 34.717,116.161 C34.8303339,116.444335 34.9606659,116.673832 35.108,116.8495 C35.2553341,117.025168 35.4168325,117.149833 35.5925,117.2235 C35.7681675,117.297167 35.9523324,117.334 36.145,117.334 Z M41.5,119 L41.5,110.568 L43.54,110.568 L43.71,111.656 L43.778,111.656 C44.1293351,111.304665 44.5033314,111.001501 44.9,110.7465 C45.2966687,110.491499 45.7726639,110.364 46.328,110.364 C46.9286697,110.364 47.4131648,110.485832 47.7815,110.7295 C48.1498352,110.973168 48.4416656,111.321664 48.657,111.775 C49.0310019,111.389665 49.4248313,111.058168 49.8385,110.7805 C50.2521687,110.502832 50.7423305,110.364 51.309,110.364 C52.2156712,110.364 52.8814979,110.667164 53.3065,111.2735 C53.7315021,111.879836 53.944,112.709995 53.944,113.764 L53.944,119 L51.445,119 L51.445,114.087 C51.445,113.474997 51.3628342,113.055668 51.1985,112.829 C51.0341658,112.602332 50.7706685,112.489 50.408,112.489 C49.9886646,112.489 49.5070027,112.760997 48.963,113.305 L48.963,119 L46.464,119 L46.464,114.087 C46.464,113.474997 46.3818342,113.055668 46.2175,112.829 C46.0531658,112.602332 45.7896685,112.489 45.427,112.489 C44.9963312,112.489 44.5203359,112.760997 43.999,113.305 L43.999,119 L41.5,119 Z M56.069,119 L56.069,110.568 L58.109,110.568 L58.279,111.656 L58.347,111.656 C58.6983351,111.304665 59.0723314,111.001501 59.469,110.7465 C59.8656687,110.491499 60.3416639,110.364 60.897,110.364 C61.4976697,110.364 61.9821648,110.485832 62.3505,110.7295 C62.7188352,110.973168 63.0106656,111.321664 63.226,111.775 C63.6000019,111.389665 63.9938313,111.058168 64.4075,110.7805 C64.8211687,110.502832 65.3113305,110.364 65.878,110.364 C66.7846712,110.364 67.4504979,110.667164 67.8755,111.2735 C68.3005021,111.879836 68.513,112.709995 68.513,113.764 L68.513,119 L66.014,119 L66.014,114.087 C66.014,113.474997 65.9318342,113.055668 65.7675,112.829 C65.6031658,112.602332 65.3396685,112.489 64.977,112.489 C64.5576646,112.489 64.0760027,112.760997 63.532,113.305 L63.532,119 L61.033,119 L61.033,114.087 C61.033,113.474997 60.9508342,113.055668 60.7865,112.829 C60.6221658,112.602332 60.3586685,112.489 59.996,112.489 C59.5653312,112.489 59.0893359,112.760997 58.568,113.305 L58.568,119 L56.069,119 Z" id="546mm" fill="#093169" fill-rule="nonzero" transform="translate(41.185500, 113.602500) rotate(-270.000000) translate(-41.185500, -113.602500) "></path>
            <polyline id="Rectangle-Copy-3" stroke="#CBD8F2" transform="translate(7.500000, 112.500000) rotate(-270.000000) translate(-7.500000, -112.500000) " points="-104.625 120 -105 105 120 105 120 120"></polyline>
        </g>
    </g>
</svg>