<?xml version="1.0" encoding="UTF-8"?>
<svg width="600px" height="392px" viewBox="0 0 600 392" version="1.1" xmlns="http://www.w3.org/2000/svg" xmlns:xlink="http://www.w3.org/1999/xlink">
    <!-- Generator: Sketch 58 (84663) - https://sketch.com -->
    <title>ballsBases/B300-CB300</title>
    <desc>Created with Sketch.</desc>
    <g id="ballsBases/B300-CB300" stroke="none" stroke-width="1" fill="none" fill-rule="evenodd">
        <rect fill="#F5F9FF" x="0" y="0" width="600" height="392"></rect>
        <g id="Group-3" transform="translate(229.000000, 35.000000)">
            <g id="Group-2">
                <g id="Group" transform="translate(10.000000, 0.000000)">
                    <rect id="Rectangle" stroke="#CBD8F2" fill="#FFFFFF" x="36" y="131" width="51" height="18"></rect>
                    <rect id="Rectangle-Copy-2" stroke="#CBD8F2" fill="#FFFFFF" x="39" y="123" width="45" height="18"></rect>
                    <path d="M40,125 L84,125 C88.9705627,125 93,129.029437 93,134 C93,138.970563 88.9705627,143 84,143 L40,143 C35.0294373,143 31,138.970563 31,134 C31,129.029437 35.0294373,125 40,125 Z" id="Rectangle" stroke="#CBD8F2" fill="#FFFFFF"></path>
                    <path d="M81.639525,120.187 C110.235525,110.454 127.589525,81.459 122.656525,51.658 C117.723525,21.856 91.952525,-4.97379915e-14 61.745525,-4.97379915e-14 C31.538525,-4.97379915e-14 5.76752495,21.856 0.834524952,51.658 C-4.09847505,81.459 13.255525,110.454 41.851525,120.187 L81.639525,120.187 Z" id="Path" stroke="#CBD8F2" fill="#FFFFFF"></path>
                    <path d="M0,60.5 L61.745,60.5" id="Rectangle-Copy-2" stroke="#CBD8F2"></path>
                    <path d="M29.5655,48 L29.5655,36.916 L33.5605,36.916 C34.1498363,36.916 34.7023308,36.9726661 35.218,37.086 C35.7336692,37.1993339 36.1841647,37.3891653 36.5695,37.6555 C36.9548353,37.9218347 37.2608322,38.2759978 37.4875,38.718 C37.7141678,39.1600022 37.8275,39.7096634 37.8275,40.367 C37.8275,41.1830041 37.6490018,41.8544974 37.292,42.3815 C36.9349982,42.9085026 36.4561697,43.302332 35.8555,43.563 L38.3715,48 L35.5665,48 L33.4415,44.005 L32.0645,44.005 L32.0645,48 L29.5655,48 Z M32.0645,42.016 L33.3565,42.016 C34.0138366,42.016 34.5153316,41.8771681 34.861,41.5995 C35.2066684,41.3218319 35.3795,40.9110027 35.3795,40.367 C35.3795,39.8229973 35.2066684,39.4433344 34.861,39.228 C34.5153316,39.0126656 34.0138366,38.905 33.3565,38.905 L32.0645,38.905 L32.0645,42.016 Z M39.8675,48 L39.8675,45.977 L42.2135,45.977 L42.2135,39.738 L40.1905,39.738 L40.1905,38.191 C40.7798363,38.0776661 41.278498,37.9416675 41.6865,37.783 C42.094502,37.6243325 42.4911647,37.4316678 42.8765,37.205 L44.7125,37.205 L44.7125,45.977 L46.7355,45.977 L46.7355,48 L39.8675,48 Z M51.8525,48.204 C50.9684956,48.204 50.2205031,48.0595014 49.6085,47.7705 C48.9964969,47.4814986 48.4751688,47.1216688 48.0445,46.691 L49.1665,45.11 C49.4951683,45.4046681 49.8493314,45.6568323 50.229,45.8665 C50.6086686,46.0761677 51.030831,46.181 51.4955,46.181 C52.0508361,46.181 52.4928317,46.0393348 52.8215,45.756 C53.1501683,45.4726652 53.3145,45.0533361 53.3145,44.498 C53.3145,43.9539973 53.1586682,43.5403347 52.847,43.257 C52.5353318,42.9736652 52.1245026,42.832 51.6145,42.832 C51.4558325,42.832 51.3141673,42.8404999 51.1895,42.8575 C51.0648327,42.8745001 50.9430006,42.9056664 50.824,42.951 C50.7049994,42.9963336 50.580334,43.0529997 50.45,43.121 C50.319666,43.1890003 50.1751675,43.2739995 50.0165,43.376 L48.8945,42.662 L49.2005,37.205 L55.3205,37.205 L55.3205,39.313 L51.3595,39.313 L51.1725,41.336 C51.376501,41.2453329 51.5719991,41.1801669 51.759,41.1405 C51.9460009,41.1008331 52.1528322,41.081 52.3795,41.081 C52.844169,41.081 53.2833313,41.1489993 53.697,41.285 C54.1106687,41.4210007 54.4761651,41.6249986 54.7935,41.897 C55.1108349,42.1690014 55.3601658,42.5146646 55.5415,42.934 C55.7228342,43.3533354 55.8135,43.8519971 55.8135,44.43 C55.8135,45.0306697 55.7058344,45.563331 55.4905,46.028 C55.2751656,46.492669 54.9861685,46.8864984 54.6235,47.2095 C54.2608315,47.5325016 53.8386691,47.7789992 53.357,47.949 C52.8753309,48.1190008 52.3738359,48.204 51.8525,48.204 Z M61.1175,48.204 C60.5394971,48.204 60.0125024,48.0821679 59.5365,47.8385 C59.0604976,47.5948321 58.655335,47.2350024 58.321,46.759 C57.986665,46.2829976 57.7260009,45.6936702 57.539,44.991 C57.3519991,44.2883298 57.2585,43.4780046 57.2585,42.56 C57.2585,41.6419954 57.3519991,40.8373368 57.539,40.146 C57.7260009,39.4546632 57.986665,38.8738357 58.321,38.4035 C58.655335,37.9331643 59.0604976,37.5818345 59.5365,37.3495 C60.0125024,37.1171655 60.5394971,37.001 61.1175,37.001 C61.6955029,37.001 62.2224976,37.1171655 62.6985,37.3495 C63.1745024,37.5818345 63.579665,37.9331643 63.914,38.4035 C64.248335,38.8738357 64.5089991,39.4546632 64.696,40.146 C64.8830009,40.8373368 64.9765,41.6419954 64.9765,42.56 C64.9765,43.4780046 64.8830009,44.2883298 64.696,44.991 C64.5089991,45.6936702 64.248335,46.2829976 63.914,46.759 C63.579665,47.2350024 63.1745024,47.5948321 62.6985,47.8385 C62.2224976,48.0821679 61.6955029,48.204 61.1175,48.204 Z M61.1175,46.266 C61.3328344,46.266 61.5311658,46.2121672 61.7125,46.1045 C61.8938342,45.9968328 62.0524993,45.8013347 62.1885,45.518 C62.3245007,45.2346652 62.429333,44.8550024 62.503,44.379 C62.576667,43.9029976 62.6135,43.2966703 62.6135,42.56 C62.6135,41.8233296 62.576667,41.2198357 62.503,40.7495 C62.429333,40.2791643 62.3245007,39.9108347 62.1885,39.6445 C62.0524993,39.3781653 61.8938342,39.1940005 61.7125,39.092 C61.5311658,38.9899995 61.3328344,38.939 61.1175,38.939 C60.913499,38.939 60.7208342,38.9899995 60.5395,39.092 C60.3581658,39.1940005 60.1995007,39.3781653 60.0635,39.6445 C59.9274993,39.9108347 59.8198337,40.2791643 59.7405,40.7495 C59.6611663,41.2198357 59.6215,41.8233296 59.6215,42.56 C59.6215,43.2966703 59.6611663,43.9029976 59.7405,44.379 C59.8198337,44.8550024 59.9274993,45.2346652 60.0635,45.518 C60.1995007,45.8013347 60.3581658,45.9968328 60.5395,46.1045 C60.7208342,46.2121672 60.913499,46.266 61.1175,46.266 Z M66.7105,48 L66.7105,39.568 L68.7505,39.568 L68.9205,40.656 L68.9885,40.656 C69.3398351,40.3046649 69.7138314,40.0015013 70.1105,39.7465 C70.5071687,39.4914987 70.9831639,39.364 71.5385,39.364 C72.1391697,39.364 72.6236648,39.4858321 72.992,39.7295 C73.3603352,39.9731679 73.6521656,40.3216644 73.8675,40.775 C74.2415019,40.3896647 74.6353313,40.0581681 75.049,39.7805 C75.4626687,39.5028319 75.9528305,39.364 76.5195,39.364 C77.4261712,39.364 78.0919979,39.6671636 78.517,40.2735 C78.9420021,40.8798364 79.1545,41.7099947 79.1545,42.764 L79.1545,48 L76.6555,48 L76.6555,43.087 C76.6555,42.4749969 76.5733342,42.0556678 76.409,41.829 C76.2446658,41.6023322 75.9811685,41.489 75.6185,41.489 C75.1991646,41.489 74.7175027,41.7609973 74.1735,42.305 L74.1735,48 L71.6745,48 L71.6745,43.087 C71.6745,42.4749969 71.5923342,42.0556678 71.428,41.829 C71.2636658,41.6023322 71.0001685,41.489 70.6375,41.489 C70.2068312,41.489 69.7308359,41.7609973 69.2095,42.305 L69.2095,48 L66.7105,48 Z M81.2795,48 L81.2795,39.568 L83.3195,39.568 L83.4895,40.656 L83.5575,40.656 C83.9088351,40.3046649 84.2828314,40.0015013 84.6795,39.7465 C85.0761686,39.4914987 85.5521639,39.364 86.1075,39.364 C86.7081697,39.364 87.1926648,39.4858321 87.561,39.7295 C87.9293352,39.9731679 88.2211656,40.3216644 88.4365,40.775 C88.8105019,40.3896647 89.2043313,40.0581681 89.618,39.7805 C90.0316687,39.5028319 90.5218305,39.364 91.0885,39.364 C91.9951712,39.364 92.6609979,39.6671636 93.086,40.2735 C93.5110021,40.8798364 93.7235,41.7099947 93.7235,42.764 L93.7235,48 L91.2245,48 L91.2245,43.087 C91.2245,42.4749969 91.1423342,42.0556678 90.978,41.829 C90.8136658,41.6023322 90.5501685,41.489 90.1875,41.489 C89.7681646,41.489 89.2865027,41.7609973 88.7425,42.305 L88.7425,48 L86.2435,48 L86.2435,43.087 C86.2435,42.4749969 86.1613342,42.0556678 85.997,41.829 C85.8326658,41.6023322 85.5691685,41.489 85.2065,41.489 C84.7758312,41.489 84.2998359,41.7609973 83.7785,42.305 L83.7785,48 L81.2795,48 Z" id="R150mm" fill="#093169" fill-rule="nonzero"></path>
                </g>
                <path d="M143,226 C128.516276,226 80.8559427,226.055667 0.019,226.167 C32.054,216.523 53.11,185.946 50.693,152.579 L46,149 L97,149 L92.52,152.64 C91.1010677,189.29862 107.927734,213.751953 143,226 Z" id="Path" stroke="#CBD8F2" fill="#FFFFFF" stroke-linejoin="bevel"></path>
                <rect id="Rectangle" stroke="#CBD8F2" fill="#FFFFFF" x="0" y="226" width="143" height="29"></rect>
            </g>
            <polyline id="Rectangle-Copy-2" stroke="#CBD8F2" transform="translate(71.500000, 277.500000) rotate(-180.000000) translate(-71.500000, -277.500000) " points="0.238333333 285 0 270 143 270 143 285"></polyline>
            <path d="M47.598,317.204 C46.7139956,317.204 45.9660031,317.065168 45.354,316.7875 C44.7419969,316.509832 44.2376686,316.138669 43.841,315.674 L44.997,314.093 C45.3256683,314.410335 45.685498,314.670999 46.0765,314.875 C46.467502,315.079001 46.895331,315.181 47.36,315.181 C47.8926693,315.181 48.3176651,315.070501 48.635,314.8495 C48.9523349,314.628499 49.111,314.314002 49.111,313.906 C49.111,313.667999 49.0685004,313.452668 48.9835,313.26 C48.8984996,313.067332 48.7483344,312.905834 48.533,312.7755 C48.3176656,312.645166 48.0230019,312.543167 47.649,312.4695 C47.2749981,312.395833 46.7933363,312.359 46.204,312.359 L46.204,310.591 C46.6913358,310.591 47.0964984,310.557 47.4195,310.489 C47.7425016,310.421 48.0031657,310.321834 48.2015,310.1915 C48.3998343,310.061166 48.5414996,309.908168 48.6265,309.7325 C48.7115004,309.556832 48.754,309.361334 48.754,309.146 C48.754,308.771998 48.6406678,308.480168 48.414,308.2705 C48.1873322,308.060832 47.8586688,307.956 47.428,307.956 C47.0426647,307.956 46.6941682,308.040999 46.3825,308.211 C46.0708318,308.381001 45.7450017,308.613332 45.405,308.908 L44.147,307.378 C44.6456692,306.947331 45.1698306,306.610168 45.7195,306.3665 C46.2691694,306.122832 46.87833,306.001 47.547,306.001 C48.1023361,306.001 48.6094977,306.066166 49.0685,306.1965 C49.5275023,306.326834 49.9184984,306.519499 50.2415,306.7745 C50.5645016,307.029501 50.8166658,307.338332 50.998,307.701 C51.1793342,308.063668 51.27,308.482998 51.27,308.959 C51.27,309.525669 51.1141682,310.004498 50.8025,310.3955 C50.4908318,310.786502 50.0460029,311.106665 49.468,311.356 L49.468,311.424 C50.0913365,311.605334 50.6041647,311.914164 51.0065,312.3505 C51.4088353,312.786836 51.61,313.35633 51.61,314.059 C51.61,314.557669 51.5023344,315.002498 51.287,315.3935 C51.0716656,315.784502 50.7826685,316.113165 50.42,316.3795 C50.0573315,316.645835 49.6323358,316.849833 49.145,316.9915 C48.6576642,317.133167 48.1420027,317.204 47.598,317.204 Z M57.441,317 L57.441,314.416 L52.766,314.416 L52.766,312.699 L56.71,306.205 L59.77,306.205 L59.77,312.512 L61.011,312.512 L61.011,314.416 L59.77,314.416 L59.77,317 L57.441,317 Z M55.163,312.512 L57.441,312.512 L57.441,310.761 C57.441,310.479932 57.4482533,310.164414 57.46276,309.814441 L57.5158,308.78356 C57.5248666,308.62852 57.5339333,308.483001 57.543,308.347 L57.475,308.347 L57.05,309.248 L57.05,309.248 C56.9026659,309.554002 56.7496675,309.859998 56.591,310.166 L55.163,312.512 Z M65.89,317.204 C65.3459973,317.204 64.8445023,317.133167 64.3855,316.9915 C63.9264977,316.849833 63.529835,316.648668 63.1955,316.388 C62.861165,316.127332 62.6005009,315.815668 62.4135,315.453 C62.2264991,315.090332 62.133,314.688002 62.133,314.246 C62.133,313.588663 62.3114982,313.050335 62.6685,312.631 C63.0255018,312.211665 63.4589974,311.866001 63.969,311.594 L63.969,311.526 C63.5496646,311.208665 63.2040014,310.848835 62.932,310.4465 C62.6599986,310.044165 62.524,309.554003 62.524,308.976 C62.524,308.522664 62.6089992,308.111835 62.779,307.7435 C62.9490008,307.375165 63.1869985,307.060668 63.493,306.8 C63.7990015,306.539332 64.1644979,306.341001 64.5895,306.205 C65.0145021,306.068999 65.4763308,306.001 65.975,306.001 C66.4623358,306.001 66.909998,306.071833 67.318,306.2135 C67.726002,306.355167 68.0716652,306.553499 68.355,306.8085 C68.6383347,307.063501 68.8593325,307.375165 69.018,307.7435 C69.1766675,308.111835 69.256,308.516998 69.256,308.959 C69.256,309.480336 69.1143347,309.942165 68.831,310.3445 C68.5476652,310.746835 68.2190019,311.072665 67.845,311.322 L67.845,311.39 C68.3663359,311.673335 68.8083315,312.035998 69.171,312.478 C69.5336685,312.920002 69.715,313.497996 69.715,314.212 C69.715,314.642669 69.6243342,315.039332 69.443,315.402 C69.2616658,315.764668 69.003835,316.079165 68.6695,316.3455 C68.335165,316.611835 67.9328357,316.821499 67.4625,316.9745 C66.9921643,317.127501 66.4680029,317.204 65.89,317.204 Z M66.57,310.71 C67.0120022,310.199997 67.233,309.673003 67.233,309.129 C67.233,308.709665 67.1168345,308.372501 66.8845,308.1175 C66.6521655,307.862499 66.332002,307.735 65.924,307.735 C65.5953317,307.735 65.3120012,307.836999 65.074,308.041 C64.8359988,308.245001 64.717,308.556665 64.717,308.976 C64.717,309.418002 64.8869983,309.763665 65.227,310.013 C65.5670017,310.262335 66.0146639,310.494666 66.57,310.71 Z M65.941,315.47 C66.3603354,315.47 66.7059986,315.359501 66.978,315.1385 C67.2500014,314.917499 67.386,314.580336 67.386,314.127 C67.386,313.888999 67.3321672,313.685001 67.2245,313.515 C67.1168328,313.344999 66.961001,313.189167 66.757,313.0475 C66.552999,312.905833 66.3121681,312.772667 66.0345,312.648 L65.3571568,312.348375 C65.2760526,312.312959 65.1930004,312.276834 65.108,312.24 C64.8699988,312.466668 64.6716675,312.727332 64.513,313.022 C64.3543325,313.316668 64.275,313.628332 64.275,313.957 C64.275,314.433002 64.4393317,314.804165 64.768,315.0705 C65.0966683,315.336835 65.4876644,315.47 65.941,315.47 Z M71.5,317 L71.5,308.568 L73.54,308.568 L73.71,309.656 L73.778,309.656 C74.1293351,309.304665 74.5033313,309.001501 74.9,308.7465 C75.2966687,308.491499 75.7726639,308.364 76.328,308.364 C76.9286697,308.364 77.4131648,308.485832 77.7815,308.7295 C78.1498352,308.973168 78.4416656,309.321664 78.657,309.775 C79.0310019,309.389665 79.4248313,309.058168 79.8385,308.7805 C80.2521687,308.502832 80.7423305,308.364 81.309,308.364 C82.2156712,308.364 82.8814979,308.667164 83.3065,309.2735 C83.7315021,309.879836 83.944,310.709995 83.944,311.764 L83.944,317 L81.445,317 L81.445,312.087 C81.445,311.474997 81.3628342,311.055668 81.1985,310.829 C81.0341658,310.602332 80.7706685,310.489 80.408,310.489 C79.9886646,310.489 79.5070027,310.760997 78.963,311.305 L78.963,317 L76.464,317 L76.464,312.087 C76.464,311.474997 76.3818342,311.055668 76.2175,310.829 C76.0531658,310.602332 75.7896685,310.489 75.427,310.489 C74.9963312,310.489 74.5203359,310.760997 73.999,311.305 L73.999,317 L71.5,317 Z M86.069,317 L86.069,308.568 L88.109,308.568 L88.279,309.656 L88.347,309.656 C88.6983351,309.304665 89.0723314,309.001501 89.469,308.7465 C89.8656687,308.491499 90.3416639,308.364 90.897,308.364 C91.4976697,308.364 91.9821648,308.485832 92.3505,308.7295 C92.7188352,308.973168 93.0106656,309.321664 93.226,309.775 C93.6000019,309.389665 93.9938313,309.058168 94.4075,308.7805 C94.8211687,308.502832 95.3113305,308.364 95.878,308.364 C96.7846712,308.364 97.4504979,308.667164 97.8755,309.2735 C98.3005021,309.879836 98.513,310.709995 98.513,311.764 L98.513,317 L96.014,317 L96.014,312.087 C96.014,311.474997 95.9318342,311.055668 95.7675,310.829 C95.6031658,310.602332 95.3396685,310.489 94.977,310.489 C94.5576646,310.489 94.0760027,310.760997 93.532,311.305 L93.532,317 L91.033,317 L91.033,312.087 C91.033,311.474997 90.9508342,311.055668 90.7865,310.829 C90.6221658,310.602332 90.3586685,310.489 89.996,310.489 C89.5653312,310.489 89.0893359,310.760997 88.568,311.305 L88.568,317 L86.069,317 Z" id="348mm" fill="#093169" fill-rule="nonzero" transform="translate(71.177000, 311.602500) rotate(-360.000000) translate(-71.177000, -311.602500) "></path>
            <path d="M176.244,134.204 C175.722664,134.204 175.215502,134.102001 174.7225,133.898 C174.229498,133.693999 173.793169,133.376669 173.4135,132.946 C173.033831,132.515331 172.730668,131.962837 172.504,131.2885 C172.277332,130.614163 172.164,129.801005 172.164,128.849 C172.164,127.840328 172.285832,126.96767 172.5295,126.231 C172.773168,125.49433 173.096165,124.888002 173.4985,124.412 C173.900835,123.935998 174.365497,123.581834 174.8925,123.3495 C175.419503,123.117166 175.96633,123.001 176.533,123.001 C177.247004,123.001 177.864664,123.128499 178.386,123.3835 C178.907336,123.638501 179.337998,123.941665 179.678,124.293 L178.369,125.789 C178.176332,125.584999 177.927002,125.406501 177.621,125.2535 C177.314998,125.100499 177.003335,125.024 176.686,125.024 C176.391332,125.024 176.113668,125.080666 175.853,125.194 C175.592332,125.307334 175.362834,125.497165 175.1645,125.7635 C174.966166,126.029835 174.804667,126.378331 174.68,126.809 C174.555333,127.239669 174.481667,127.766664 174.459,128.39 C174.595001,128.208666 174.753666,128.047167 174.935,127.9055 C175.116334,127.763833 175.303332,127.644834 175.496,127.5485 C175.688668,127.452166 175.881332,127.3785 176.074,127.3275 C176.266668,127.2765 176.447999,127.251 176.618,127.251 C177.082669,127.251 177.510498,127.318999 177.9015,127.455 C178.292502,127.591001 178.632499,127.794999 178.9215,128.067 C179.210501,128.339001 179.434333,128.684665 179.593,129.104 C179.751667,129.523335 179.831,130.016331 179.831,130.583 C179.831,131.149669 179.734668,131.653998 179.542,132.096 C179.349332,132.538002 179.091502,132.917665 178.7685,133.235 C178.445498,133.552335 178.065836,133.793166 177.6295,133.9575 C177.193164,134.121834 176.731336,134.204 176.244,134.204 Z M176.193,132.334 C176.567002,132.334 176.887165,132.195168 177.1535,131.9175 C177.419835,131.639832 177.553,131.195003 177.553,130.583 C177.553,130.004997 177.419835,129.599834 177.1535,129.3675 C176.887165,129.135166 176.550002,129.019 176.142,129.019 C175.858665,129.019 175.572501,129.101166 175.2835,129.2655 C174.994499,129.429834 174.736668,129.704665 174.51,130.09 C174.566667,130.520669 174.651666,130.877665 174.765,131.161 C174.878334,131.444335 175.008666,131.673832 175.156,131.8495 C175.303334,132.025168 175.464832,132.149833 175.6405,132.2235 C175.816168,132.297167 176.000332,132.334 176.193,132.334 Z M181.633,134 L181.633,131.977 L183.979,131.977 L183.979,125.738 L181.956,125.738 L181.956,124.191 C182.545336,124.077666 183.043998,123.941667 183.452,123.783 C183.860002,123.624333 184.256665,123.431668 184.642,123.205 L186.478,123.205 L186.478,131.977 L188.501,131.977 L188.501,134 L181.633,134 Z M193.703,128.186 C193.986335,128.186 194.272499,128.103834 194.5615,127.9395 C194.850501,127.775166 195.102666,127.500335 195.318,127.115 C195.204666,126.264996 194.992168,125.678502 194.6805,125.3555 C194.368832,125.032498 194.020335,124.871 193.635,124.871 C193.272332,124.871 192.955001,125.009832 192.683,125.2875 C192.410999,125.565168 192.275,126.009997 192.275,126.622 C192.275,127.200003 192.410999,127.605166 192.683,127.8375 C192.955001,128.069834 193.294998,128.186 193.703,128.186 Z M193.312,134.204 C192.597996,134.204 191.977503,134.073668 191.4505,133.813 C190.923497,133.552332 190.490002,133.252002 190.15,132.912 L191.476,131.416 C191.657334,131.620001 191.900998,131.798499 192.207,131.9515 C192.513002,132.104501 192.824665,132.181 193.142,132.181 C193.448002,132.181 193.731332,132.124334 193.992,132.011 C194.252668,131.897666 194.482166,131.707835 194.6805,131.4415 C194.878834,131.175165 195.037499,130.829502 195.1565,130.4045 C195.275501,129.979498 195.346333,129.44967 195.369,128.815 C195.232999,128.996334 195.074334,129.157833 194.893,129.2995 C194.711666,129.441167 194.524668,129.560166 194.332,129.6565 C194.139332,129.752834 193.946668,129.8265 193.754,129.8775 C193.561332,129.9285 193.380001,129.954 193.21,129.954 C192.745331,129.954 192.317502,129.886001 191.9265,129.75 C191.535498,129.613999 191.198335,129.410001 190.915,129.138 C190.631665,128.865999 190.407834,128.520335 190.2435,128.101 C190.079166,127.681665 189.997,127.18867 189.997,126.622 C189.997,126.066664 190.093332,125.565169 190.286,125.1175 C190.478668,124.669831 190.736498,124.287335 191.0595,123.97 C191.382502,123.652665 191.762164,123.411834 192.1985,123.2475 C192.634836,123.083166 193.096664,123.001 193.584,123.001 C194.105336,123.001 194.612498,123.102999 195.1055,123.307 C195.598502,123.511001 196.034831,123.828331 196.4145,124.259 C196.794169,124.689669 197.100166,125.242163 197.3325,125.9165 C197.564834,126.590837 197.681,127.403995 197.681,128.356 C197.681,129.364672 197.559168,130.23733 197.3155,130.974 C197.071832,131.71067 196.748835,132.316998 196.3465,132.793 C195.944165,133.269002 195.479503,133.623166 194.9525,133.8555 C194.425497,134.087834 193.87867,134.204 193.312,134.204 Z M199.5,134 L199.5,125.568 L201.54,125.568 L201.71,126.656 L201.778,126.656 C202.129335,126.304665 202.503331,126.001501 202.9,125.7465 C203.296669,125.491499 203.772664,125.364 204.328,125.364 C204.92867,125.364 205.413165,125.485832 205.7815,125.7295 C206.149835,125.973168 206.441666,126.321664 206.657,126.775 C207.031002,126.389665 207.424831,126.058168 207.8385,125.7805 C208.252169,125.502832 208.742331,125.364 209.309,125.364 C210.215671,125.364 210.881498,125.667164 211.3065,126.2735 C211.731502,126.879836 211.944,127.709995 211.944,128.764 L211.944,134 L209.445,134 L209.445,129.087 C209.445,128.474997 209.362834,128.055668 209.1985,127.829 C209.034166,127.602332 208.770668,127.489 208.408,127.489 C207.988665,127.489 207.507003,127.760997 206.963,128.305 L206.963,134 L204.464,134 L204.464,129.087 C204.464,128.474997 204.381834,128.055668 204.2175,127.829 C204.053166,127.602332 203.789668,127.489 203.427,127.489 C202.996331,127.489 202.520336,127.760997 201.999,128.305 L201.999,134 L199.5,134 Z M214.069,134 L214.069,125.568 L216.109,125.568 L216.279,126.656 L216.347,126.656 C216.698335,126.304665 217.072331,126.001501 217.469,125.7465 C217.865669,125.491499 218.341664,125.364 218.897,125.364 C219.49767,125.364 219.982165,125.485832 220.3505,125.7295 C220.718835,125.973168 221.010666,126.321664 221.226,126.775 C221.600002,126.389665 221.993831,126.058168 222.4075,125.7805 C222.821169,125.502832 223.31133,125.364 223.878,125.364 C224.784671,125.364 225.450498,125.667164 225.8755,126.2735 C226.300502,126.879836 226.513,127.709995 226.513,128.764 L226.513,134 L224.014,134 L224.014,129.087 C224.014,128.474997 223.931834,128.055668 223.7675,127.829 C223.603166,127.602332 223.339668,127.489 222.977,127.489 C222.557665,127.489 222.076003,127.760997 221.532,128.305 L221.532,134 L219.033,134 L219.033,129.087 C219.033,128.474997 218.950834,128.055668 218.7865,127.829 C218.622166,127.602332 218.358668,127.489 217.996,127.489 C217.565331,127.489 217.089336,127.760997 216.568,128.305 L216.568,134 L214.069,134 Z" id="619mm" fill="#093169" fill-rule="nonzero" transform="translate(199.338500, 128.602500) rotate(-270.000000) translate(-199.338500, -128.602500) "></path>
            <polyline id="Rectangle-Copy-3" stroke="#CBD8F2" transform="translate(165.500000, 127.500000) rotate(-270.000000) translate(-165.500000, -127.500000) " points="38.425 135 38 120 293 120 293 135"></polyline>
        </g>
    </g>
</svg>