<?xml version="1.0" encoding="UTF-8"?>
<svg width="600px" height="436px" viewBox="0 0 600 436" version="1.1" xmlns="http://www.w3.org/2000/svg" xmlns:xlink="http://www.w3.org/1999/xlink">
    <!-- Generator: Sketch 58 (84663) - https://sketch.com -->
    <title>ballsBases/B430-CB430</title>
    <desc>Created with Sketch.</desc>
    <g id="ballsBases/B430-CB430" stroke="none" stroke-width="1" fill="none" fill-rule="evenodd">
        <rect fill="#F5F9FF" x="0" y="0" width="600" height="436"></rect>
        <g id="Group-2" transform="translate(218.000000, 35.000000)">
            <path d="M162,266.362 C140.684113,266.625333 87.3507796,266.625333 2,266.362 C37.7650122,255.568 61.2725226,221.345 58.5752337,184 L105.141471,184.077 C105.038534,225.111063 123.991377,252.539396 162,266.362 Z" id="Path" stroke="#CBD8F2" fill="#FFFFFF" stroke-linejoin="bevel"></path>
            <rect id="Rectangle" stroke="#CBD8F2" fill="#FFFFFF" x="59" y="161" width="46" height="10"></rect>
            <rect id="Rectangle-Copy" stroke="#CBD8F2" fill="#FFFFFF" x="56" y="174" width="52" height="10"></rect>
            <rect id="Rectangle" stroke="#CBD8F2" fill="#FFFFFF" x="2" y="266" width="160" height="32"></rect>
            <polygon id="Rectangle" stroke="#CBD8F2" fill="#FFFFFF" points="52 167 112 167 119 173 112 179 52 179 45 173"></polygon>
            <path d="M105.813858,161.078 C144.939858,149.389 169.567858,110.767 163.661858,70.362 C157.754858,29.956 123.101858,-1.42108547e-14 82.2668584,-1.42108547e-14 C41.4318584,-1.42108547e-14 6.77885839,29.956 0.871858391,70.362 C-5.03414161,110.767 19.5938584,149.389 58.7198584,161.078 L105.813858,161.078 Z" id="Stroke-3" stroke="#CBD8F2" fill="#FFFFFF"></path>
            <path d="M0,81 L82.25,81" id="Rectangle-Copy-2" stroke="#CBD8F2"></path>
            <path d="M50.5655,68 L50.5655,56.916 L54.5605,56.916 C55.1498363,56.916 55.7023308,56.9726661 56.218,57.086 C56.7336692,57.1993339 57.1841647,57.3891653 57.5695,57.6555 C57.9548353,57.9218347 58.2608322,58.2759978 58.4875,58.718 C58.7141678,59.1600022 58.8275,59.7096634 58.8275,60.367 C58.8275,61.1830041 58.6490018,61.8544974 58.292,62.3815 C57.9349982,62.9085026 57.4561697,63.302332 56.8555,63.563 L59.3715,68 L56.5665,68 L54.4415,64.005 L53.0645,64.005 L53.0645,68 L50.5655,68 Z M53.0645,62.016 L54.3565,62.016 C55.0138366,62.016 55.5153316,61.8771681 55.861,61.5995 C56.2066684,61.3218319 56.3795,60.9110027 56.3795,60.367 C56.3795,59.8229973 56.2066684,59.4433344 55.861,59.228 C55.5153316,59.0126656 55.0138366,58.905 54.3565,58.905 L53.0645,58.905 L53.0645,62.016 Z M60.3065,68 L60.3065,66.572 L61.1075407,65.8171994 C61.4937799,65.4500002 61.8585983,65.0981017 62.202,64.7615 C62.7743362,64.2004972 63.2673313,63.6735025 63.681,63.1805 C64.0946687,62.6874975 64.4176655,62.2285021 64.65,61.8035 C64.8823345,61.3784979 64.9985,60.9733353 64.9985,60.588 C64.9985,60.0553307 64.8625014,59.6501681 64.5905,59.3725 C64.3184986,59.0948319 63.9445024,58.956 63.4685,58.956 C63.0718313,58.956 62.7205015,59.0664989 62.4145,59.2875 C62.1084985,59.5085011 61.8195014,59.7663319 61.5475,60.061 L60.1875,58.718 C60.7201693,58.1513305 61.2641639,57.7235014 61.8195,57.4345 C62.3748361,57.1454986 63.0378295,57.001 63.8085,57.001 C64.3411693,57.001 64.8256645,57.0831658 65.262,57.2475 C65.6983355,57.4118342 66.0751651,57.6441652 66.3925,57.9445 C66.7098349,58.2448348 66.9534991,58.6046646 67.1235,59.024 C67.2935008,59.4433354 67.3785,59.9136641 67.3785,60.435 C67.3785,60.8883356 67.2821676,61.3501643 67.0895,61.8205 C66.8968324,62.2908357 66.6390016,62.7611643 66.316,63.2315 C65.9929984,63.7018357 65.6246687,64.1721643 65.211,64.6425 C64.7973313,65.1128357 64.3695022,65.5746644 63.9275,66.028 L64.3588749,65.979125 C64.5104578,65.9635417 64.6698325,65.9486667 64.837,65.9345 C65.171335,65.9061665 65.468832,65.892 65.7295,65.892 L67.9055,65.892 L67.9055,68 L60.3065,68 Z M73.1415,68.204 C72.5634971,68.204 72.0365024,68.0821679 71.5605,67.8385 C71.0844976,67.5948321 70.679335,67.2350024 70.345,66.759 C70.010665,66.2829976 69.7500009,65.6936702 69.563,64.991 C69.3759991,64.2883298 69.2825,63.4780046 69.2825,62.56 C69.2825,61.6419954 69.3759991,60.8373368 69.563,60.146 C69.7500009,59.4546632 70.010665,58.8738357 70.345,58.4035 C70.679335,57.9331643 71.0844976,57.5818345 71.5605,57.3495 C72.0365024,57.1171655 72.5634971,57.001 73.1415,57.001 C73.7195029,57.001 74.2464976,57.1171655 74.7225,57.3495 C75.1985024,57.5818345 75.603665,57.9331643 75.938,58.4035 C76.272335,58.8738357 76.5329991,59.4546632 76.72,60.146 C76.9070009,60.8373368 77.0005,61.6419954 77.0005,62.56 C77.0005,63.4780046 76.9070009,64.2883298 76.72,64.991 C76.5329991,65.6936702 76.272335,66.2829976 75.938,66.759 C75.603665,67.2350024 75.1985024,67.5948321 74.7225,67.8385 C74.2464976,68.0821679 73.7195029,68.204 73.1415,68.204 Z M73.1415,66.266 C73.3568344,66.266 73.5551658,66.2121672 73.7365,66.1045 C73.9178342,65.9968328 74.0764993,65.8013347 74.2125,65.518 C74.3485007,65.2346653 74.453333,64.8550024 74.527,64.379 C74.600667,63.9029976 74.6375,63.2966703 74.6375,62.56 C74.6375,61.8233296 74.600667,61.2198357 74.527,60.7495 C74.453333,60.2791643 74.3485007,59.9108347 74.2125,59.6445 C74.0764993,59.3781653 73.9178342,59.1940005 73.7365,59.092 C73.5551658,58.9899995 73.3568344,58.939 73.1415,58.939 C72.937499,58.939 72.7448342,58.9899995 72.5635,59.092 C72.3821658,59.1940005 72.2235007,59.3781653 72.0875,59.6445 C71.9514993,59.9108347 71.8438337,60.2791643 71.7645,60.7495 C71.6851663,61.2198357 71.6455,61.8233296 71.6455,62.56 C71.6455,63.2966703 71.6851663,63.9029976 71.7645,64.379 C71.8438337,64.8550024 71.9514993,65.2346653 72.0875,65.518 C72.2235007,65.8013347 72.3821658,65.9968328 72.5635,66.1045 C72.7448342,66.2121672 72.937499,66.266 73.1415,66.266 Z M82.1175,68.204 C81.5394971,68.204 81.0125024,68.0821679 80.5365,67.8385 C80.0604976,67.5948321 79.655335,67.2350024 79.321,66.759 C78.986665,66.2829976 78.7260009,65.6936702 78.539,64.991 C78.3519991,64.2883298 78.2585,63.4780046 78.2585,62.56 C78.2585,61.6419954 78.3519991,60.8373368 78.539,60.146 C78.7260009,59.4546632 78.986665,58.8738357 79.321,58.4035 C79.655335,57.9331643 80.0604976,57.5818345 80.5365,57.3495 C81.0125024,57.1171655 81.5394971,57.001 82.1175,57.001 C82.6955029,57.001 83.2224976,57.1171655 83.6985,57.3495 C84.1745024,57.5818345 84.579665,57.9331643 84.914,58.4035 C85.248335,58.8738357 85.5089991,59.4546632 85.696,60.146 C85.8830009,60.8373368 85.9765,61.6419954 85.9765,62.56 C85.9765,63.4780046 85.8830009,64.2883298 85.696,64.991 C85.5089991,65.6936702 85.248335,66.2829976 84.914,66.759 C84.579665,67.2350024 84.1745024,67.5948321 83.6985,67.8385 C83.2224976,68.0821679 82.6955029,68.204 82.1175,68.204 Z M82.1175,66.266 C82.3328344,66.266 82.5311658,66.2121672 82.7125,66.1045 C82.8938342,65.9968328 83.0524993,65.8013347 83.1885,65.518 C83.3245007,65.2346653 83.429333,64.8550024 83.503,64.379 C83.576667,63.9029976 83.6135,63.2966703 83.6135,62.56 C83.6135,61.8233296 83.576667,61.2198357 83.503,60.7495 C83.429333,60.2791643 83.3245007,59.9108347 83.1885,59.6445 C83.0524993,59.3781653 82.8938342,59.1940005 82.7125,59.092 C82.5311658,58.9899995 82.3328344,58.939 82.1175,58.939 C81.913499,58.939 81.7208342,58.9899995 81.5395,59.092 C81.3581658,59.1940005 81.1995007,59.3781653 81.0635,59.6445 C80.9274993,59.9108347 80.8198337,60.2791643 80.7405,60.7495 C80.6611663,61.2198357 80.6215,61.8233296 80.6215,62.56 C80.6215,63.2966703 80.6611663,63.9029976 80.7405,64.379 C80.8198337,64.8550024 80.9274993,65.2346653 81.0635,65.518 C81.1995007,65.8013347 81.3581658,65.9968328 81.5395,66.1045 C81.7208342,66.2121672 81.913499,66.266 82.1175,66.266 Z M87.7105,68 L87.7105,59.568 L89.7505,59.568 L89.9205,60.656 L89.9885,60.656 C90.3398351,60.3046649 90.7138314,60.0015013 91.1105,59.7465 C91.5071687,59.4914987 91.9831639,59.364 92.5385,59.364 C93.1391697,59.364 93.6236648,59.4858321 93.992,59.7295 C94.3603352,59.9731679 94.6521656,60.3216644 94.8675,60.775 C95.2415019,60.3896647 95.6353313,60.0581681 96.049,59.7805 C96.4626687,59.5028319 96.9528305,59.364 97.5195,59.364 C98.4261712,59.364 99.0919979,59.6671636 99.517,60.2735 C99.9420021,60.8798364 100.1545,61.7099947 100.1545,62.764 L100.1545,68 L97.6555,68 L97.6555,63.087 C97.6555,62.4749969 97.5733342,62.0556678 97.409,61.829 C97.2446658,61.6023322 96.9811685,61.489 96.6185,61.489 C96.1991646,61.489 95.7175027,61.7609973 95.1735,62.305 L95.1735,68 L92.6745,68 L92.6745,63.087 C92.6745,62.4749969 92.5923342,62.0556678 92.428,61.829 C92.2636658,61.6023322 92.0001685,61.489 91.6375,61.489 C91.2068312,61.489 90.7308359,61.7609973 90.2095,62.305 L90.2095,68 L87.7105,68 Z M102.2795,68 L102.2795,59.568 L104.3195,59.568 L104.4895,60.656 L104.5575,60.656 C104.908835,60.3046649 105.282831,60.0015013 105.6795,59.7465 C106.076169,59.4914987 106.552164,59.364 107.1075,59.364 C107.70817,59.364 108.192665,59.4858321 108.561,59.7295 C108.929335,59.9731679 109.221166,60.3216644 109.4365,60.775 C109.810502,60.3896647 110.204331,60.0581681 110.618,59.7805 C111.031669,59.5028319 111.52183,59.364 112.0885,59.364 C112.995171,59.364 113.660998,59.6671636 114.086,60.2735 C114.511002,60.8798364 114.7235,61.7099947 114.7235,62.764 L114.7235,68 L112.2245,68 L112.2245,63.087 C112.2245,62.4749969 112.142334,62.0556678 111.978,61.829 C111.813666,61.6023322 111.550168,61.489 111.1875,61.489 C110.768165,61.489 110.286503,61.7609973 109.7425,62.305 L109.7425,68 L107.2435,68 L107.2435,63.087 C107.2435,62.4749969 107.161334,62.0556678 106.997,61.829 C106.832666,61.6023322 106.569168,61.489 106.2065,61.489 C105.775831,61.489 105.299836,61.7609973 104.7785,62.305 L104.7785,68 L102.2795,68 Z" id="R200mm" fill="#093169" fill-rule="nonzero"></path>
        </g>
        <g id="Group" transform="translate(398.000000, 35.000000)">
            <path d="M16.17,156 C16.2153336,155.104662 16.2974994,154.28017 16.4165,153.5265 C16.5355006,152.77283 16.7054989,152.05317 16.9265,151.3675 C17.1475011,150.68183 17.4308316,150.010337 17.7765,149.353 C18.1221684,148.695663 18.5499974,148.01567 19.06,147.313 L14.215,147.313 L14.215,145.205 L21.729,145.205 L21.729,146.735 C21.1056635,147.494337 20.6041686,148.205497 20.2245,148.8685 C19.8448314,149.531503 19.5501677,150.217163 19.3405,150.9255 C19.1308323,151.633837 18.9806671,152.393163 18.89,153.2035 C18.7993329,154.013837 18.7313336,154.945995 18.686,156 L16.17,156 Z M26.574,156.204 C25.6899956,156.204 24.9420031,156.065168 24.33,155.7875 C23.7179969,155.509832 23.2136687,155.138669 22.817,154.674 L23.973,153.093 C24.3016683,153.410335 24.661498,153.670999 25.0525,153.875 C25.443502,154.079001 25.871331,154.181 26.336,154.181 C26.8686693,154.181 27.2936651,154.070501 27.611,153.8495 C27.9283349,153.628499 28.087,153.314002 28.087,152.906 C28.087,152.667999 28.0445004,152.452668 27.9595,152.26 C27.8744996,152.067332 27.7243344,151.905834 27.509,151.7755 C27.2936656,151.645166 26.9990019,151.543167 26.625,151.4695 C26.2509981,151.395833 25.7693363,151.359 25.18,151.359 L25.18,149.591 C25.6673358,149.591 26.0724984,149.557 26.3955,149.489 C26.7185016,149.421 26.9791657,149.321834 27.1775,149.1915 C27.3758343,149.061166 27.5174996,148.908168 27.6025,148.7325 C27.6875004,148.556832 27.73,148.361334 27.73,148.146 C27.73,147.771998 27.6166678,147.480168 27.39,147.2705 C27.1633322,147.060832 26.8346688,146.956 26.404,146.956 C26.0186647,146.956 25.6701682,147.040999 25.3585,147.211 C25.0468318,147.381001 24.7210017,147.613332 24.381,147.908 L23.123,146.378 C23.6216692,145.947331 24.1458306,145.610168 24.6955,145.3665 C25.2451694,145.122832 25.85433,145.001 26.523,145.001 C27.0783361,145.001 27.5854977,145.066166 28.0445,145.1965 C28.5035023,145.326834 28.8944984,145.519499 29.2175,145.7745 C29.5405016,146.029501 29.7926658,146.338332 29.974,146.701 C30.1553342,147.063668 30.246,147.482998 30.246,147.959 C30.246,148.525669 30.0901682,149.004498 29.7785,149.3955 C29.4668318,149.786502 29.0220029,150.106665 28.444,150.356 L28.444,150.424 C29.0673364,150.605334 29.5801647,150.914164 29.9825,151.3505 C30.3848353,151.786836 30.586,152.35633 30.586,153.059 C30.586,153.557669 30.4783344,154.002498 30.263,154.3935 C30.0476656,154.784502 29.7586685,155.113165 29.396,155.3795 C29.0333315,155.645835 28.6083358,155.849833 28.121,155.9915 C27.6336642,156.133167 27.1180027,156.204 26.574,156.204 Z M32.048,156 L32.048,154.572 L32.8490407,153.817199 C33.2352799,153.45 33.6000983,153.098102 33.9435,152.7615 C34.5158362,152.200497 35.0088313,151.673502 35.4225,151.1805 C35.8361687,150.687498 36.1591655,150.228502 36.3915,149.8035 C36.6238345,149.378498 36.74,148.973335 36.74,148.588 C36.74,148.055331 36.6040014,147.650168 36.332,147.3725 C36.0599986,147.094832 35.6860024,146.956 35.21,146.956 C34.8133313,146.956 34.4620015,147.066499 34.156,147.2875 C33.8499985,147.508501 33.5610014,147.766332 33.289,148.061 L31.929,146.718 C32.4616693,146.151331 33.0056639,145.723501 33.561,145.4345 C34.1163361,145.145499 34.7793295,145.001 35.55,145.001 C36.0826693,145.001 36.5671645,145.083166 37.0035,145.2475 C37.4398355,145.411834 37.8166651,145.644165 38.134,145.9445 C38.4513349,146.244835 38.6949992,146.604665 38.865,147.024 C39.0350009,147.443335 39.12,147.913664 39.12,148.435 C39.12,148.888336 39.0236676,149.350164 38.831,149.8205 C38.6383324,150.290836 38.3805016,150.761164 38.0575,151.2315 C37.7344984,151.701836 37.3661687,152.172164 36.9525,152.6425 C36.5388313,153.112836 36.1110022,153.574664 35.669,154.028 L36.1003749,153.979125 C36.2519578,153.963542 36.4113325,153.948667 36.5785,153.9345 C36.912835,153.906167 37.210332,153.892 37.471,153.892 L39.647,153.892 L39.647,156 L32.048,156 Z M41.5,156 L41.5,147.568 L43.54,147.568 L43.71,148.656 L43.778,148.656 C44.1293351,148.304665 44.5033314,148.001501 44.9,147.7465 C45.2966687,147.491499 45.7726639,147.364 46.328,147.364 C46.9286697,147.364 47.4131648,147.485832 47.7815,147.7295 C48.1498352,147.973168 48.4416656,148.321664 48.657,148.775 C49.0310019,148.389665 49.4248313,148.058168 49.8385,147.7805 C50.2521687,147.502832 50.7423305,147.364 51.309,147.364 C52.2156712,147.364 52.8814979,147.667164 53.3065,148.2735 C53.7315021,148.879836 53.944,149.709995 53.944,150.764 L53.944,156 L51.445,156 L51.445,151.087 C51.445,150.474997 51.3628342,150.055668 51.1985,149.829 C51.0341658,149.602332 50.7706685,149.489 50.408,149.489 C49.9886646,149.489 49.5070027,149.760997 48.963,150.305 L48.963,156 L46.464,156 L46.464,151.087 C46.464,150.474997 46.3818342,150.055668 46.2175,149.829 C46.0531658,149.602332 45.7896685,149.489 45.427,149.489 C44.9963312,149.489 44.5203359,149.760997 43.999,150.305 L43.999,156 L41.5,156 Z M56.069,156 L56.069,147.568 L58.109,147.568 L58.279,148.656 L58.347,148.656 C58.6983351,148.304665 59.0723314,148.001501 59.469,147.7465 C59.8656687,147.491499 60.3416639,147.364 60.897,147.364 C61.4976697,147.364 61.9821648,147.485832 62.3505,147.7295 C62.7188352,147.973168 63.0106656,148.321664 63.226,148.775 C63.6000019,148.389665 63.9938313,148.058168 64.4075,147.7805 C64.8211687,147.502832 65.3113305,147.364 65.878,147.364 C66.7846712,147.364 67.4504979,147.667164 67.8755,148.2735 C68.3005021,148.879836 68.513,149.709995 68.513,150.764 L68.513,156 L66.014,156 L66.014,151.087 C66.014,150.474997 65.9318342,150.055668 65.7675,149.829 C65.6031658,149.602332 65.3396685,149.489 64.977,149.489 C64.5576646,149.489 64.0760027,149.760997 63.532,150.305 L63.532,156 L61.033,156 L61.033,151.087 C61.033,150.474997 60.9508342,150.055668 60.7865,149.829 C60.6221658,149.602332 60.3586685,149.489 59.996,149.489 C59.5653312,149.489 59.0893359,149.760997 58.568,150.305 L58.568,156 L56.069,156 Z" id="732mm" fill="#093169" fill-rule="nonzero" transform="translate(41.364000, 150.602500) rotate(-270.000000) translate(-41.364000, -150.602500) "></path>
            <polyline id="Rectangle-Copy-3" stroke="#CBD8F2" transform="translate(7.500000, 149.500000) rotate(-270.000000) translate(-7.500000, -149.500000) " points="-141.501667 157 -142 142 157 142 157 157"></polyline>
        </g>
        <polyline id="Rectangle-Copy-2" stroke="#CBD8F2" transform="translate(300.000000, 356.500000) rotate(-180.000000) translate(-300.000000, -356.500000) " points="220.266667 364 220 349 380 349 380 364"></polyline>
        <path d="M276.598,396.204 C275.713996,396.204 274.966003,396.065168 274.354,395.7875 C273.741997,395.509832 273.237669,395.138669 272.841,394.674 L273.997,393.093 C274.325668,393.410335 274.685498,393.670999 275.0765,393.875 C275.467502,394.079001 275.895331,394.181 276.36,394.181 C276.892669,394.181 277.317665,394.070501 277.635,393.8495 C277.952335,393.628499 278.111,393.314002 278.111,392.906 C278.111,392.667999 278.0685,392.452668 277.9835,392.26 C277.8985,392.067332 277.748334,391.905834 277.533,391.7755 C277.317666,391.645166 277.023002,391.543167 276.649,391.4695 C276.274998,391.395833 275.793336,391.359 275.204,391.359 L275.204,389.591 C275.691336,389.591 276.096498,389.557 276.4195,389.489 C276.742502,389.421 277.003166,389.321834 277.2015,389.1915 C277.399834,389.061166 277.5415,388.908168 277.6265,388.7325 C277.7115,388.556832 277.754,388.361334 277.754,388.146 C277.754,387.771998 277.640668,387.480168 277.414,387.2705 C277.187332,387.060832 276.858669,386.956 276.428,386.956 C276.042665,386.956 275.694168,387.040999 275.3825,387.211 C275.070832,387.381001 274.745002,387.613332 274.405,387.908 L273.147,386.378 C273.645669,385.947331 274.169831,385.610168 274.7195,385.3665 C275.269169,385.122832 275.87833,385.001 276.547,385.001 C277.102336,385.001 277.609498,385.066166 278.0685,385.1965 C278.527502,385.326834 278.918498,385.519499 279.2415,385.7745 C279.564502,386.029501 279.816666,386.338332 279.998,386.701 C280.179334,387.063668 280.27,387.482998 280.27,387.959 C280.27,388.525669 280.114168,389.004498 279.8025,389.3955 C279.490832,389.786502 279.046003,390.106665 278.468,390.356 L278.468,390.424 C279.091336,390.605334 279.604165,390.914164 280.0065,391.3505 C280.408835,391.786836 280.61,392.35633 280.61,393.059 C280.61,393.557669 280.502334,394.002498 280.287,394.3935 C280.071666,394.784502 279.782668,395.113165 279.42,395.3795 C279.057332,395.645835 278.632336,395.849833 278.145,395.9915 C277.657664,396.133167 277.142003,396.204 276.598,396.204 Z M285.914,396.204 C285.369997,396.204 284.868502,396.133167 284.4095,395.9915 C283.950498,395.849833 283.553835,395.648668 283.2195,395.388 C282.885165,395.127332 282.624501,394.815668 282.4375,394.453 C282.250499,394.090332 282.157,393.688002 282.157,393.246 C282.157,392.588663 282.335498,392.050335 282.6925,391.631 C283.049502,391.211665 283.482997,390.866001 283.993,390.594 L283.993,390.526 C283.573665,390.208665 283.228001,389.848835 282.956,389.4465 C282.683999,389.044165 282.548,388.554003 282.548,387.976 C282.548,387.522664 282.632999,387.111835 282.803,386.7435 C282.973001,386.375165 283.210998,386.060668 283.517,385.8 C283.823002,385.539332 284.188498,385.341001 284.6135,385.205 C285.038502,385.068999 285.500331,385.001 285.999,385.001 C286.486336,385.001 286.933998,385.071833 287.342,385.2135 C287.750002,385.355167 288.095665,385.553499 288.379,385.8085 C288.662335,386.063501 288.883333,386.375165 289.042,386.7435 C289.200667,387.111835 289.28,387.516998 289.28,387.959 C289.28,388.480336 289.138335,388.942165 288.855,389.3445 C288.571665,389.746835 288.243002,390.072665 287.869,390.322 L287.869,390.39 C288.390336,390.673335 288.832332,391.035998 289.195,391.478 C289.557668,391.920002 289.739,392.497996 289.739,393.212 C289.739,393.642669 289.648334,394.039332 289.467,394.402 C289.285666,394.764668 289.027835,395.079165 288.6935,395.3455 C288.359165,395.611835 287.956836,395.821499 287.4865,395.9745 C287.016164,396.127501 286.492003,396.204 285.914,396.204 Z M286.594,389.71 C287.036002,389.199997 287.257,388.673003 287.257,388.129 C287.257,387.709665 287.140834,387.372501 286.9085,387.1175 C286.676166,386.862499 286.356002,386.735 285.948,386.735 C285.619332,386.735 285.336001,386.836999 285.098,387.041 C284.859999,387.245001 284.741,387.556665 284.741,387.976 C284.741,388.418002 284.910998,388.763665 285.251,389.013 C285.591002,389.262335 286.038664,389.494666 286.594,389.71 Z M285.965,394.47 C286.384335,394.47 286.729999,394.359501 287.002,394.1385 C287.274001,393.917499 287.41,393.580336 287.41,393.127 C287.41,392.888999 287.356167,392.685001 287.2485,392.515 C287.140833,392.344999 286.985001,392.189167 286.781,392.0475 C286.576999,391.905833 286.336168,391.772667 286.0585,391.648 L285.381157,391.348375 C285.300053,391.312959 285.217,391.276834 285.132,391.24 C284.893999,391.466668 284.695667,391.727332 284.537,392.022 C284.378333,392.316668 284.299,392.628332 284.299,392.957 C284.299,393.433002 284.463332,393.804165 284.792,394.0705 C285.120668,394.336835 285.511664,394.47 285.965,394.47 Z M294.703,390.186 C294.986335,390.186 295.272499,390.103834 295.5615,389.9395 C295.850501,389.775166 296.102666,389.500335 296.318,389.115 C296.204666,388.264996 295.992168,387.678502 295.6805,387.3555 C295.368832,387.032498 295.020335,386.871 294.635,386.871 C294.272332,386.871 293.955001,387.009832 293.683,387.2875 C293.410999,387.565168 293.275,388.009997 293.275,388.622 C293.275,389.200003 293.410999,389.605166 293.683,389.8375 C293.955001,390.069834 294.294998,390.186 294.703,390.186 Z M294.312,396.204 C293.597996,396.204 292.977503,396.073668 292.4505,395.813 C291.923497,395.552332 291.490002,395.252002 291.15,394.912 L292.476,393.416 C292.657334,393.620001 292.900998,393.798499 293.207,393.9515 C293.513002,394.104501 293.824665,394.181 294.142,394.181 C294.448002,394.181 294.731332,394.124334 294.992,394.011 C295.252668,393.897666 295.482166,393.707835 295.6805,393.4415 C295.878834,393.175165 296.037499,392.829502 296.1565,392.4045 C296.275501,391.979498 296.346333,391.44967 296.369,390.815 C296.232999,390.996334 296.074334,391.157833 295.893,391.2995 C295.711666,391.441167 295.524668,391.560166 295.332,391.6565 C295.139332,391.752834 294.946668,391.8265 294.754,391.8775 C294.561332,391.9285 294.380001,391.954 294.21,391.954 C293.745331,391.954 293.317502,391.886001 292.9265,391.75 C292.535498,391.613999 292.198335,391.410001 291.915,391.138 C291.631665,390.865999 291.407834,390.520335 291.2435,390.101 C291.079166,389.681665 290.997,389.18867 290.997,388.622 C290.997,388.066664 291.093332,387.565169 291.286,387.1175 C291.478668,386.669831 291.736498,386.287335 292.0595,385.97 C292.382502,385.652665 292.762164,385.411834 293.1985,385.2475 C293.634836,385.083166 294.096664,385.001 294.584,385.001 C295.105336,385.001 295.612498,385.102999 296.1055,385.307 C296.598502,385.511001 297.034831,385.828331 297.4145,386.259 C297.794169,386.689669 298.100166,387.242163 298.3325,387.9165 C298.564834,388.590837 298.681,389.403995 298.681,390.356 C298.681,391.364672 298.559168,392.23733 298.3155,392.974 C298.071832,393.71067 297.748835,394.316998 297.3465,394.793 C296.944165,395.269002 296.479503,395.623166 295.9525,395.8555 C295.425497,396.087834 294.87867,396.204 294.312,396.204 Z M300.5,396 L300.5,387.568 L302.54,387.568 L302.71,388.656 L302.778,388.656 C303.129335,388.304665 303.503331,388.001501 303.9,387.7465 C304.296669,387.491499 304.772664,387.364 305.328,387.364 C305.92867,387.364 306.413165,387.485832 306.7815,387.7295 C307.149835,387.973168 307.441666,388.321664 307.657,388.775 C308.031002,388.389665 308.424831,388.058168 308.8385,387.7805 C309.252169,387.502832 309.74233,387.364 310.309,387.364 C311.215671,387.364 311.881498,387.667164 312.3065,388.2735 C312.731502,388.879836 312.944,389.709995 312.944,390.764 L312.944,396 L310.445,396 L310.445,391.087 C310.445,390.474997 310.362834,390.055668 310.1985,389.829 C310.034166,389.602332 309.770668,389.489 309.408,389.489 C308.988665,389.489 308.507003,389.760997 307.963,390.305 L307.963,396 L305.464,396 L305.464,391.087 C305.464,390.474997 305.381834,390.055668 305.2175,389.829 C305.053166,389.602332 304.789668,389.489 304.427,389.489 C303.996331,389.489 303.520336,389.760997 302.999,390.305 L302.999,396 L300.5,396 Z M315.069,396 L315.069,387.568 L317.109,387.568 L317.279,388.656 L317.347,388.656 C317.698335,388.304665 318.072331,388.001501 318.469,387.7465 C318.865669,387.491499 319.341664,387.364 319.897,387.364 C320.49767,387.364 320.982165,387.485832 321.3505,387.7295 C321.718835,387.973168 322.010666,388.321664 322.226,388.775 C322.600002,388.389665 322.993831,388.058168 323.4075,387.7805 C323.821169,387.502832 324.31133,387.364 324.878,387.364 C325.784671,387.364 326.450498,387.667164 326.8755,388.2735 C327.300502,388.879836 327.513,389.709995 327.513,390.764 L327.513,396 L325.014,396 L325.014,391.087 C325.014,390.474997 324.931834,390.055668 324.7675,389.829 C324.603166,389.602332 324.339668,389.489 323.977,389.489 C323.557665,389.489 323.076003,389.760997 322.532,390.305 L322.532,396 L320.033,396 L320.033,391.087 C320.033,390.474997 319.950834,390.055668 319.7865,389.829 C319.622166,389.602332 319.358668,389.489 318.996,389.489 C318.565331,389.489 318.089336,389.760997 317.568,390.305 L317.568,396 L315.069,396 Z" id="389mm" fill="#093169" fill-rule="nonzero" transform="translate(300.177000, 390.602500) rotate(-360.000000) translate(-300.177000, -390.602500) "></path>
    </g>
</svg>