<?xml version="1.0" encoding="UTF-8"?>
<svg width="600px" height="415px" viewBox="0 0 600 415" version="1.1" xmlns="http://www.w3.org/2000/svg" xmlns:xlink="http://www.w3.org/1999/xlink">
    <!-- Generator: Sketch 58 (84663) - https://sketch.com -->
    <title>ballsBases/B430-PB430</title>
    <desc>Created with Sketch.</desc>
    <g id="ballsBases/B430-PB430" stroke="none" stroke-width="1" fill="none" fill-rule="evenodd">
        <rect fill="#F5F9FF" x="0" y="0" width="600" height="415"></rect>
        <g id="Group" transform="translate(217.000000, 35.000000)">
            <path d="M163,246.5 C148.50841,246.5 95.1750765,246.488319 3,246.464956 C38.8159456,235.657463 62.3569333,201.391683 59.6558032,164 L106.13373,164 C106.13373,205.314294 125.089153,232.814294 163,246.5 Z" id="Path" stroke="#CBD8F2" fill="#FFFFFF" stroke-linejoin="bevel"></path>
            <rect id="Rectangle" stroke="#CBD8F2" fill="#FFFFFF" x="3" y="246" width="160" height="32"></rect>
            <path d="M107.069677,162 C146.775228,150.561019 171.9737,111.775158 166.171473,71.0295639 C160.368238,30.2839693 125.334937,0 84,0 C42.6650631,0 7.63176201,30.2839693 1.82852655,71.0295639 C-3.9737,111.775158 21.2247716,150.561019 60.930323,162 L107.069677,162 Z" id="Path" stroke="#CBD8F2" fill="#FFFFFF"></path>
            <path d="M-5.68434189e-14,81 L83.25,81" id="Rectangle-Copy-2" stroke="#CBD8F2"></path>
            <path d="M51.5655,68 L51.5655,56.916 L55.5605,56.916 C56.1498363,56.916 56.7023308,56.9726661 57.218,57.086 C57.7336692,57.1993339 58.1841647,57.3891653 58.5695,57.6555 C58.9548353,57.9218347 59.2608322,58.2759978 59.4875,58.718 C59.7141678,59.1600022 59.8275,59.7096634 59.8275,60.367 C59.8275,61.1830041 59.6490018,61.8544974 59.292,62.3815 C58.9349982,62.9085026 58.4561697,63.302332 57.8555,63.563 L60.3715,68 L57.5665,68 L55.4415,64.005 L54.0645,64.005 L54.0645,68 L51.5655,68 Z M54.0645,62.016 L55.3565,62.016 C56.0138366,62.016 56.5153316,61.8771681 56.861,61.5995 C57.2066684,61.3218319 57.3795,60.9110027 57.3795,60.367 C57.3795,59.8229973 57.2066684,59.4433344 56.861,59.228 C56.5153316,59.0126656 56.0138366,58.905 55.3565,58.905 L54.0645,58.905 L54.0645,62.016 Z M61.3065,68 L61.3065,66.572 L62.1075407,65.8171994 C62.4937799,65.4500002 62.8585983,65.0981017 63.202,64.7615 C63.7743362,64.2004972 64.2673313,63.6735025 64.681,63.1805 C65.0946687,62.6874975 65.4176655,62.2285021 65.65,61.8035 C65.8823345,61.3784979 65.9985,60.9733353 65.9985,60.588 C65.9985,60.0553307 65.8625014,59.6501681 65.5905,59.3725 C65.3184986,59.0948319 64.9445024,58.956 64.4685,58.956 C64.0718313,58.956 63.7205015,59.0664989 63.4145,59.2875 C63.1084985,59.5085011 62.8195014,59.7663319 62.5475,60.061 L61.1875,58.718 C61.7201693,58.1513305 62.2641639,57.7235014 62.8195,57.4345 C63.3748361,57.1454986 64.0378295,57.001 64.8085,57.001 C65.3411693,57.001 65.8256645,57.0831658 66.262,57.2475 C66.6983355,57.4118342 67.0751651,57.6441652 67.3925,57.9445 C67.7098349,58.2448348 67.9534991,58.6046646 68.1235,59.024 C68.2935008,59.4433354 68.3785,59.9136641 68.3785,60.435 C68.3785,60.8883356 68.2821676,61.3501643 68.0895,61.8205 C67.8968324,62.2908357 67.6390016,62.7611643 67.316,63.2315 C66.9929984,63.7018357 66.6246687,64.1721643 66.211,64.6425 C65.7973313,65.1128357 65.3695022,65.5746644 64.9275,66.028 L65.3588749,65.979125 C65.5104578,65.9635417 65.6698325,65.9486667 65.837,65.9345 C66.171335,65.9061665 66.468832,65.892 66.7295,65.892 L68.9055,65.892 L68.9055,68 L61.3065,68 Z M74.1415,68.204 C73.5634971,68.204 73.0365024,68.0821679 72.5605,67.8385 C72.0844976,67.5948321 71.679335,67.2350024 71.345,66.759 C71.010665,66.2829976 70.7500009,65.6936702 70.563,64.991 C70.3759991,64.2883298 70.2825,63.4780046 70.2825,62.56 C70.2825,61.6419954 70.3759991,60.8373368 70.563,60.146 C70.7500009,59.4546632 71.010665,58.8738357 71.345,58.4035 C71.679335,57.9331643 72.0844976,57.5818345 72.5605,57.3495 C73.0365024,57.1171655 73.5634971,57.001 74.1415,57.001 C74.7195029,57.001 75.2464976,57.1171655 75.7225,57.3495 C76.1985024,57.5818345 76.603665,57.9331643 76.938,58.4035 C77.272335,58.8738357 77.5329991,59.4546632 77.72,60.146 C77.9070009,60.8373368 78.0005,61.6419954 78.0005,62.56 C78.0005,63.4780046 77.9070009,64.2883298 77.72,64.991 C77.5329991,65.6936702 77.272335,66.2829976 76.938,66.759 C76.603665,67.2350024 76.1985024,67.5948321 75.7225,67.8385 C75.2464976,68.0821679 74.7195029,68.204 74.1415,68.204 Z M74.1415,66.266 C74.3568344,66.266 74.5551658,66.2121672 74.7365,66.1045 C74.9178342,65.9968328 75.0764993,65.8013347 75.2125,65.518 C75.3485007,65.2346653 75.453333,64.8550024 75.527,64.379 C75.600667,63.9029976 75.6375,63.2966703 75.6375,62.56 C75.6375,61.8233296 75.600667,61.2198357 75.527,60.7495 C75.453333,60.2791643 75.3485007,59.9108347 75.2125,59.6445 C75.0764993,59.3781653 74.9178342,59.1940005 74.7365,59.092 C74.5551658,58.9899995 74.3568344,58.939 74.1415,58.939 C73.937499,58.939 73.7448342,58.9899995 73.5635,59.092 C73.3821658,59.1940005 73.2235007,59.3781653 73.0875,59.6445 C72.9514993,59.9108347 72.8438337,60.2791643 72.7645,60.7495 C72.6851663,61.2198357 72.6455,61.8233296 72.6455,62.56 C72.6455,63.2966703 72.6851663,63.9029976 72.7645,64.379 C72.8438337,64.8550024 72.9514993,65.2346653 73.0875,65.518 C73.2235007,65.8013347 73.3821658,65.9968328 73.5635,66.1045 C73.7448342,66.2121672 73.937499,66.266 74.1415,66.266 Z M83.1175,68.204 C82.5394971,68.204 82.0125024,68.0821679 81.5365,67.8385 C81.0604976,67.5948321 80.655335,67.2350024 80.321,66.759 C79.986665,66.2829976 79.7260009,65.6936702 79.539,64.991 C79.3519991,64.2883298 79.2585,63.4780046 79.2585,62.56 C79.2585,61.6419954 79.3519991,60.8373368 79.539,60.146 C79.7260009,59.4546632 79.986665,58.8738357 80.321,58.4035 C80.655335,57.9331643 81.0604976,57.5818345 81.5365,57.3495 C82.0125024,57.1171655 82.5394971,57.001 83.1175,57.001 C83.6955029,57.001 84.2224976,57.1171655 84.6985,57.3495 C85.1745024,57.5818345 85.579665,57.9331643 85.914,58.4035 C86.248335,58.8738357 86.5089991,59.4546632 86.696,60.146 C86.8830009,60.8373368 86.9765,61.6419954 86.9765,62.56 C86.9765,63.4780046 86.8830009,64.2883298 86.696,64.991 C86.5089991,65.6936702 86.248335,66.2829976 85.914,66.759 C85.579665,67.2350024 85.1745024,67.5948321 84.6985,67.8385 C84.2224976,68.0821679 83.6955029,68.204 83.1175,68.204 Z M83.1175,66.266 C83.3328344,66.266 83.5311658,66.2121672 83.7125,66.1045 C83.8938342,65.9968328 84.0524993,65.8013347 84.1885,65.518 C84.3245007,65.2346653 84.429333,64.8550024 84.503,64.379 C84.576667,63.9029976 84.6135,63.2966703 84.6135,62.56 C84.6135,61.8233296 84.576667,61.2198357 84.503,60.7495 C84.429333,60.2791643 84.3245007,59.9108347 84.1885,59.6445 C84.0524993,59.3781653 83.8938342,59.1940005 83.7125,59.092 C83.5311658,58.9899995 83.3328344,58.939 83.1175,58.939 C82.913499,58.939 82.7208342,58.9899995 82.5395,59.092 C82.3581658,59.1940005 82.1995007,59.3781653 82.0635,59.6445 C81.9274993,59.9108347 81.8198337,60.2791643 81.7405,60.7495 C81.6611663,61.2198357 81.6215,61.8233296 81.6215,62.56 C81.6215,63.2966703 81.6611663,63.9029976 81.7405,64.379 C81.8198337,64.8550024 81.9274993,65.2346653 82.0635,65.518 C82.1995007,65.8013347 82.3581658,65.9968328 82.5395,66.1045 C82.7208342,66.2121672 82.913499,66.266 83.1175,66.266 Z M88.7105,68 L88.7105,59.568 L90.7505,59.568 L90.9205,60.656 L90.9885,60.656 C91.3398351,60.3046649 91.7138314,60.0015013 92.1105,59.7465 C92.5071687,59.4914987 92.9831639,59.364 93.5385,59.364 C94.1391697,59.364 94.6236648,59.4858321 94.992,59.7295 C95.3603352,59.9731679 95.6521656,60.3216644 95.8675,60.775 C96.2415019,60.3896647 96.6353313,60.0581681 97.049,59.7805 C97.4626687,59.5028319 97.9528305,59.364 98.5195,59.364 C99.4261712,59.364 100.091998,59.6671636 100.517,60.2735 C100.942002,60.8798364 101.1545,61.7099947 101.1545,62.764 L101.1545,68 L98.6555,68 L98.6555,63.087 C98.6555,62.4749969 98.5733342,62.0556678 98.409,61.829 C98.2446658,61.6023322 97.9811685,61.489 97.6185,61.489 C97.1991646,61.489 96.7175027,61.7609973 96.1735,62.305 L96.1735,68 L93.6745,68 L93.6745,63.087 C93.6745,62.4749969 93.5923342,62.0556678 93.428,61.829 C93.2636658,61.6023322 93.0001685,61.489 92.6375,61.489 C92.2068312,61.489 91.7308359,61.7609973 91.2095,62.305 L91.2095,68 L88.7105,68 Z M103.2795,68 L103.2795,59.568 L105.3195,59.568 L105.4895,60.656 L105.5575,60.656 C105.908835,60.3046649 106.282831,60.0015013 106.6795,59.7465 C107.076169,59.4914987 107.552164,59.364 108.1075,59.364 C108.70817,59.364 109.192665,59.4858321 109.561,59.7295 C109.929335,59.9731679 110.221166,60.3216644 110.4365,60.775 C110.810502,60.3896647 111.204331,60.0581681 111.618,59.7805 C112.031669,59.5028319 112.52183,59.364 113.0885,59.364 C113.995171,59.364 114.660998,59.6671636 115.086,60.2735 C115.511002,60.8798364 115.7235,61.7099947 115.7235,62.764 L115.7235,68 L113.2245,68 L113.2245,63.087 C113.2245,62.4749969 113.142334,62.0556678 112.978,61.829 C112.813666,61.6023322 112.550168,61.489 112.1875,61.489 C111.768165,61.489 111.286503,61.7609973 110.7425,62.305 L110.7425,68 L108.2435,68 L108.2435,63.087 C108.2435,62.4749969 108.161334,62.0556678 107.997,61.829 C107.832666,61.6023322 107.569168,61.489 107.2065,61.489 C106.775831,61.489 106.299836,61.7609973 105.7785,62.305 L105.7785,68 L103.2795,68 Z" id="R200mm" fill="#093169" fill-rule="nonzero"></path>
        </g>
        <path d="M416.244,181.204 C415.722664,181.204 415.215502,181.102001 414.7225,180.898 C414.229498,180.693999 413.793169,180.376669 413.4135,179.946 C413.033831,179.515331 412.730668,178.962837 412.504,178.2885 C412.277332,177.614163 412.164,176.801005 412.164,175.849 C412.164,174.840328 412.285832,173.96767 412.5295,173.231 C412.773168,172.49433 413.096165,171.888002 413.4985,171.412 C413.900835,170.935998 414.365497,170.581834 414.8925,170.3495 C415.419503,170.117166 415.966331,170.001 416.533,170.001 C417.247004,170.001 417.864664,170.128499 418.386,170.3835 C418.907336,170.638501 419.337998,170.941665 419.678,171.293 L418.369,172.789 C418.176332,172.584999 417.927002,172.406501 417.621,172.2535 C417.314998,172.100499 417.003335,172.024 416.686,172.024 C416.391332,172.024 416.113668,172.080666 415.853,172.194 C415.592332,172.307334 415.362834,172.497165 415.1645,172.7635 C414.966166,173.029835 414.804667,173.378331 414.68,173.809 C414.555333,174.239669 414.481667,174.766664 414.459,175.39 C414.595001,175.208666 414.753666,175.047167 414.935,174.9055 C415.116334,174.763833 415.303332,174.644834 415.496,174.5485 C415.688668,174.452166 415.881332,174.3785 416.074,174.3275 C416.266668,174.2765 416.447999,174.251 416.618,174.251 C417.082669,174.251 417.510498,174.318999 417.9015,174.455 C418.292502,174.591001 418.632499,174.794999 418.9215,175.067 C419.210501,175.339001 419.434333,175.684665 419.593,176.104 C419.751667,176.523335 419.831,177.016331 419.831,177.583 C419.831,178.149669 419.734668,178.653998 419.542,179.096 C419.349332,179.538002 419.091502,179.917665 418.7685,180.235 C418.445498,180.552335 418.065836,180.793166 417.6295,180.9575 C417.193164,181.121834 416.731336,181.204 416.244,181.204 Z M416.193,179.334 C416.567002,179.334 416.887165,179.195168 417.1535,178.9175 C417.419835,178.639832 417.553,178.195003 417.553,177.583 C417.553,177.004997 417.419835,176.599834 417.1535,176.3675 C416.887165,176.135166 416.550002,176.019 416.142,176.019 C415.858665,176.019 415.572501,176.101166 415.2835,176.2655 C414.994499,176.429834 414.736668,176.704665 414.51,177.09 C414.566667,177.520669 414.651666,177.877665 414.765,178.161 C414.878334,178.444335 415.008666,178.673832 415.156,178.8495 C415.303334,179.025168 415.464832,179.149833 415.6405,179.2235 C415.816168,179.297167 416.000332,179.334 416.193,179.334 Z M423.146,181 C423.191334,180.104662 423.273499,179.28017 423.3925,178.5265 C423.511501,177.77283 423.681499,177.05317 423.9025,176.3675 C424.123501,175.68183 424.406832,175.010337 424.7525,174.353 C425.098168,173.695663 425.525997,173.01567 426.036,172.313 L421.191,172.313 L421.191,170.205 L428.705,170.205 L428.705,171.735 C428.081664,172.494337 427.580169,173.205497 427.2005,173.8685 C426.820831,174.531503 426.526168,175.217163 426.3165,175.9255 C426.106832,176.633837 425.956667,177.393163 425.866,178.2035 C425.775333,179.013837 425.707334,179.945995 425.662,181 L423.146,181 Z M434.196,181.204 C433.674664,181.204 433.167502,181.102001 432.6745,180.898 C432.181498,180.693999 431.745169,180.376669 431.3655,179.946 C430.985831,179.515331 430.682668,178.962837 430.456,178.2885 C430.229332,177.614163 430.116,176.801005 430.116,175.849 C430.116,174.840328 430.237832,173.96767 430.4815,173.231 C430.725168,172.49433 431.048165,171.888002 431.4505,171.412 C431.852835,170.935998 432.317497,170.581834 432.8445,170.3495 C433.371503,170.117166 433.918331,170.001 434.485,170.001 C435.199004,170.001 435.816664,170.128499 436.338,170.3835 C436.859336,170.638501 437.289998,170.941665 437.63,171.293 L436.321,172.789 C436.128332,172.584999 435.879002,172.406501 435.573,172.2535 C435.266998,172.100499 434.955335,172.024 434.638,172.024 C434.343332,172.024 434.065668,172.080666 433.805,172.194 C433.544332,172.307334 433.314834,172.497165 433.1165,172.7635 C432.918166,173.029835 432.756667,173.378331 432.632,173.809 C432.507333,174.239669 432.433667,174.766664 432.411,175.39 C432.547001,175.208666 432.705666,175.047167 432.887,174.9055 C433.068334,174.763833 433.255332,174.644834 433.448,174.5485 C433.640668,174.452166 433.833332,174.3785 434.026,174.3275 C434.218668,174.2765 434.399999,174.251 434.57,174.251 C435.034669,174.251 435.462498,174.318999 435.8535,174.455 C436.244502,174.591001 436.584499,174.794999 436.8735,175.067 C437.162501,175.339001 437.386333,175.684665 437.545,176.104 C437.703667,176.523335 437.783,177.016331 437.783,177.583 C437.783,178.149669 437.686668,178.653998 437.494,179.096 C437.301332,179.538002 437.043502,179.917665 436.7205,180.235 C436.397498,180.552335 436.017836,180.793166 435.5815,180.9575 C435.145164,181.121834 434.683336,181.204 434.196,181.204 Z M434.145,179.334 C434.519002,179.334 434.839165,179.195168 435.1055,178.9175 C435.371835,178.639832 435.505,178.195003 435.505,177.583 C435.505,177.004997 435.371835,176.599834 435.1055,176.3675 C434.839165,176.135166 434.502002,176.019 434.094,176.019 C433.810665,176.019 433.524501,176.101166 433.2355,176.2655 C432.946499,176.429834 432.688668,176.704665 432.462,177.09 C432.518667,177.520669 432.603666,177.877665 432.717,178.161 C432.830334,178.444335 432.960666,178.673832 433.108,178.8495 C433.255334,179.025168 433.416832,179.149833 433.5925,179.2235 C433.768168,179.297167 433.952332,179.334 434.145,179.334 Z M439.5,181 L439.5,172.568 L441.54,172.568 L441.71,173.656 L441.778,173.656 C442.129335,173.304665 442.503331,173.001501 442.9,172.7465 C443.296669,172.491499 443.772664,172.364 444.328,172.364 C444.92867,172.364 445.413165,172.485832 445.7815,172.7295 C446.149835,172.973168 446.441666,173.321664 446.657,173.775 C447.031002,173.389665 447.424831,173.058168 447.8385,172.7805 C448.252169,172.502832 448.74233,172.364 449.309,172.364 C450.215671,172.364 450.881498,172.667164 451.3065,173.2735 C451.731502,173.879836 451.944,174.709995 451.944,175.764 L451.944,181 L449.445,181 L449.445,176.087 C449.445,175.474997 449.362834,175.055668 449.1985,174.829 C449.034166,174.602332 448.770668,174.489 448.408,174.489 C447.988665,174.489 447.507003,174.760997 446.963,175.305 L446.963,181 L444.464,181 L444.464,176.087 C444.464,175.474997 444.381834,175.055668 444.2175,174.829 C444.053166,174.602332 443.789668,174.489 443.427,174.489 C442.996331,174.489 442.520336,174.760997 441.999,175.305 L441.999,181 L439.5,181 Z M454.069,181 L454.069,172.568 L456.109,172.568 L456.279,173.656 L456.347,173.656 C456.698335,173.304665 457.072331,173.001501 457.469,172.7465 C457.865669,172.491499 458.341664,172.364 458.897,172.364 C459.49767,172.364 459.982165,172.485832 460.3505,172.7295 C460.718835,172.973168 461.010666,173.321664 461.226,173.775 C461.600002,173.389665 461.993831,173.058168 462.4075,172.7805 C462.821169,172.502832 463.31133,172.364 463.878,172.364 C464.784671,172.364 465.450498,172.667164 465.8755,173.2735 C466.300502,173.879836 466.513,174.709995 466.513,175.764 L466.513,181 L464.014,181 L464.014,176.087 C464.014,175.474997 463.931834,175.055668 463.7675,174.829 C463.603166,174.602332 463.339668,174.489 462.977,174.489 C462.557665,174.489 462.076003,174.760997 461.532,175.305 L461.532,181 L459.033,181 L459.033,176.087 C459.033,175.474997 458.950834,175.055668 458.7865,174.829 C458.622166,174.602332 458.358668,174.489 457.996,174.489 C457.565331,174.489 457.089336,174.760997 456.568,175.305 L456.568,181 L454.069,181 Z" id="676mm" fill="#093169" fill-rule="nonzero" transform="translate(439.338500, 175.602500) rotate(-270.000000) translate(-439.338500, -175.602500) "></path>
        <polyline id="Rectangle-Copy-3" stroke="#CBD8F2" transform="translate(406.000000, 174.500000) rotate(-270.000000) translate(-406.000000, -174.500000) " points="267.463333 182 267 167 545 167 545 182"></polyline>
        <polyline id="Rectangle-Copy-2" stroke="#CBD8F2" transform="translate(300.000000, 335.500000) rotate(-180.000000) translate(-300.000000, -335.500000) " points="220.266667 343 220 328 380 328 380 343"></polyline>
        <path d="M276.598,375.204 C275.713996,375.204 274.966003,375.065168 274.354,374.7875 C273.741997,374.509832 273.237669,374.138669 272.841,373.674 L273.997,372.093 C274.325668,372.410335 274.685498,372.670999 275.0765,372.875 C275.467502,373.079001 275.895331,373.181 276.36,373.181 C276.892669,373.181 277.317665,373.070501 277.635,372.8495 C277.952335,372.628499 278.111,372.314002 278.111,371.906 C278.111,371.667999 278.0685,371.452668 277.9835,371.26 C277.8985,371.067332 277.748334,370.905834 277.533,370.7755 C277.317666,370.645166 277.023002,370.543167 276.649,370.4695 C276.274998,370.395833 275.793336,370.359 275.204,370.359 L275.204,368.591 C275.691336,368.591 276.096498,368.557 276.4195,368.489 C276.742502,368.421 277.003166,368.321834 277.2015,368.1915 C277.399834,368.061166 277.5415,367.908168 277.6265,367.7325 C277.7115,367.556832 277.754,367.361334 277.754,367.146 C277.754,366.771998 277.640668,366.480168 277.414,366.2705 C277.187332,366.060832 276.858669,365.956 276.428,365.956 C276.042665,365.956 275.694168,366.040999 275.3825,366.211 C275.070832,366.381001 274.745002,366.613332 274.405,366.908 L273.147,365.378 C273.645669,364.947331 274.169831,364.610168 274.7195,364.3665 C275.269169,364.122832 275.87833,364.001 276.547,364.001 C277.102336,364.001 277.609498,364.066166 278.0685,364.1965 C278.527502,364.326834 278.918498,364.519499 279.2415,364.7745 C279.564502,365.029501 279.816666,365.338332 279.998,365.701 C280.179334,366.063668 280.27,366.482998 280.27,366.959 C280.27,367.525669 280.114168,368.004498 279.8025,368.3955 C279.490832,368.786502 279.046003,369.106665 278.468,369.356 L278.468,369.424 C279.091336,369.605334 279.604165,369.914164 280.0065,370.3505 C280.408835,370.786836 280.61,371.35633 280.61,372.059 C280.61,372.557669 280.502334,373.002498 280.287,373.3935 C280.071666,373.784502 279.782668,374.113165 279.42,374.3795 C279.057332,374.645835 278.632336,374.849833 278.145,374.9915 C277.657664,375.133167 277.142003,375.204 276.598,375.204 Z M285.914,375.204 C285.369997,375.204 284.868502,375.133167 284.4095,374.9915 C283.950498,374.849833 283.553835,374.648668 283.2195,374.388 C282.885165,374.127332 282.624501,373.815668 282.4375,373.453 C282.250499,373.090332 282.157,372.688002 282.157,372.246 C282.157,371.588663 282.335498,371.050335 282.6925,370.631 C283.049502,370.211665 283.482997,369.866001 283.993,369.594 L283.993,369.526 C283.573665,369.208665 283.228001,368.848835 282.956,368.4465 C282.683999,368.044165 282.548,367.554003 282.548,366.976 C282.548,366.522664 282.632999,366.111835 282.803,365.7435 C282.973001,365.375165 283.210998,365.060668 283.517,364.8 C283.823002,364.539332 284.188498,364.341001 284.6135,364.205 C285.038502,364.068999 285.500331,364.001 285.999,364.001 C286.486336,364.001 286.933998,364.071833 287.342,364.2135 C287.750002,364.355167 288.095665,364.553499 288.379,364.8085 C288.662335,365.063501 288.883333,365.375165 289.042,365.7435 C289.200667,366.111835 289.28,366.516998 289.28,366.959 C289.28,367.480336 289.138335,367.942165 288.855,368.3445 C288.571665,368.746835 288.243002,369.072665 287.869,369.322 L287.869,369.39 C288.390336,369.673335 288.832332,370.035998 289.195,370.478 C289.557668,370.920002 289.739,371.497996 289.739,372.212 C289.739,372.642669 289.648334,373.039332 289.467,373.402 C289.285666,373.764668 289.027835,374.079165 288.6935,374.3455 C288.359165,374.611835 287.956836,374.821499 287.4865,374.9745 C287.016164,375.127501 286.492003,375.204 285.914,375.204 Z M286.594,368.71 C287.036002,368.199997 287.257,367.673003 287.257,367.129 C287.257,366.709665 287.140834,366.372501 286.9085,366.1175 C286.676166,365.862499 286.356002,365.735 285.948,365.735 C285.619332,365.735 285.336001,365.836999 285.098,366.041 C284.859999,366.245001 284.741,366.556665 284.741,366.976 C284.741,367.418002 284.910998,367.763665 285.251,368.013 C285.591002,368.262335 286.038664,368.494666 286.594,368.71 Z M285.965,373.47 C286.384335,373.47 286.729999,373.359501 287.002,373.1385 C287.274001,372.917499 287.41,372.580336 287.41,372.127 C287.41,371.888999 287.356167,371.685001 287.2485,371.515 C287.140833,371.344999 286.985001,371.189167 286.781,371.0475 C286.576999,370.905833 286.336168,370.772667 286.0585,370.648 L285.381157,370.348375 C285.300053,370.312959 285.217,370.276834 285.132,370.24 C284.893999,370.466668 284.695667,370.727332 284.537,371.022 C284.378333,371.316668 284.299,371.628332 284.299,371.957 C284.299,372.433002 284.463332,372.804165 284.792,373.0705 C285.120668,373.336835 285.511664,373.47 285.965,373.47 Z M294.703,369.186 C294.986335,369.186 295.272499,369.103834 295.5615,368.9395 C295.850501,368.775166 296.102666,368.500335 296.318,368.115 C296.204666,367.264996 295.992168,366.678502 295.6805,366.3555 C295.368832,366.032498 295.020335,365.871 294.635,365.871 C294.272332,365.871 293.955001,366.009832 293.683,366.2875 C293.410999,366.565168 293.275,367.009997 293.275,367.622 C293.275,368.200003 293.410999,368.605166 293.683,368.8375 C293.955001,369.069834 294.294998,369.186 294.703,369.186 Z M294.312,375.204 C293.597996,375.204 292.977503,375.073668 292.4505,374.813 C291.923497,374.552332 291.490002,374.252002 291.15,373.912 L292.476,372.416 C292.657334,372.620001 292.900998,372.798499 293.207,372.9515 C293.513002,373.104501 293.824665,373.181 294.142,373.181 C294.448002,373.181 294.731332,373.124334 294.992,373.011 C295.252668,372.897666 295.482166,372.707835 295.6805,372.4415 C295.878834,372.175165 296.037499,371.829502 296.1565,371.4045 C296.275501,370.979498 296.346333,370.44967 296.369,369.815 C296.232999,369.996334 296.074334,370.157833 295.893,370.2995 C295.711666,370.441167 295.524668,370.560166 295.332,370.6565 C295.139332,370.752834 294.946668,370.8265 294.754,370.8775 C294.561332,370.9285 294.380001,370.954 294.21,370.954 C293.745331,370.954 293.317502,370.886001 292.9265,370.75 C292.535498,370.613999 292.198335,370.410001 291.915,370.138 C291.631665,369.865999 291.407834,369.520335 291.2435,369.101 C291.079166,368.681665 290.997,368.18867 290.997,367.622 C290.997,367.066664 291.093332,366.565169 291.286,366.1175 C291.478668,365.669831 291.736498,365.287335 292.0595,364.97 C292.382502,364.652665 292.762164,364.411834 293.1985,364.2475 C293.634836,364.083166 294.096664,364.001 294.584,364.001 C295.105336,364.001 295.612498,364.102999 296.1055,364.307 C296.598502,364.511001 297.034831,364.828331 297.4145,365.259 C297.794169,365.689669 298.100166,366.242163 298.3325,366.9165 C298.564834,367.590837 298.681,368.403995 298.681,369.356 C298.681,370.364672 298.559168,371.23733 298.3155,371.974 C298.071832,372.71067 297.748835,373.316998 297.3465,373.793 C296.944165,374.269002 296.479503,374.623166 295.9525,374.8555 C295.425497,375.087834 294.87867,375.204 294.312,375.204 Z M300.5,375 L300.5,366.568 L302.54,366.568 L302.71,367.656 L302.778,367.656 C303.129335,367.304665 303.503331,367.001501 303.9,366.7465 C304.296669,366.491499 304.772664,366.364 305.328,366.364 C305.92867,366.364 306.413165,366.485832 306.7815,366.7295 C307.149835,366.973168 307.441666,367.321664 307.657,367.775 C308.031002,367.389665 308.424831,367.058168 308.8385,366.7805 C309.252169,366.502832 309.74233,366.364 310.309,366.364 C311.215671,366.364 311.881498,366.667164 312.3065,367.2735 C312.731502,367.879836 312.944,368.709995 312.944,369.764 L312.944,375 L310.445,375 L310.445,370.087 C310.445,369.474997 310.362834,369.055668 310.1985,368.829 C310.034166,368.602332 309.770668,368.489 309.408,368.489 C308.988665,368.489 308.507003,368.760997 307.963,369.305 L307.963,375 L305.464,375 L305.464,370.087 C305.464,369.474997 305.381834,369.055668 305.2175,368.829 C305.053166,368.602332 304.789668,368.489 304.427,368.489 C303.996331,368.489 303.520336,368.760997 302.999,369.305 L302.999,375 L300.5,375 Z M315.069,375 L315.069,366.568 L317.109,366.568 L317.279,367.656 L317.347,367.656 C317.698335,367.304665 318.072331,367.001501 318.469,366.7465 C318.865669,366.491499 319.341664,366.364 319.897,366.364 C320.49767,366.364 320.982165,366.485832 321.3505,366.7295 C321.718835,366.973168 322.010666,367.321664 322.226,367.775 C322.600002,367.389665 322.993831,367.058168 323.4075,366.7805 C323.821169,366.502832 324.31133,366.364 324.878,366.364 C325.784671,366.364 326.450498,366.667164 326.8755,367.2735 C327.300502,367.879836 327.513,368.709995 327.513,369.764 L327.513,375 L325.014,375 L325.014,370.087 C325.014,369.474997 324.931834,369.055668 324.7675,368.829 C324.603166,368.602332 324.339668,368.489 323.977,368.489 C323.557665,368.489 323.076003,368.760997 322.532,369.305 L322.532,375 L320.033,375 L320.033,370.087 C320.033,369.474997 319.950834,369.055668 319.7865,368.829 C319.622166,368.602332 319.358668,368.489 318.996,368.489 C318.565331,368.489 318.089336,368.760997 317.568,369.305 L317.568,375 L315.069,375 Z" id="389mm" fill="#093169" fill-rule="nonzero" transform="translate(300.177000, 369.602500) rotate(-360.000000) translate(-300.177000, -369.602500) "></path>
    </g>
</svg>