<?xml version="1.0" encoding="UTF-8"?>
<svg width="600px" height="307px" viewBox="0 0 600 307" version="1.1" xmlns="http://www.w3.org/2000/svg" xmlns:xlink="http://www.w3.org/1999/xlink">
    <title>corbels/A100</title>
    <g id="corbels/A100" stroke="none" stroke-width="1" fill="none" fill-rule="evenodd">
        <rect fill="#F5F9FF" x="0" y="0" width="600" height="307"></rect>
        <path d="M103,102 L305,102 L305,205 L203,205 L203.000271,204.855415 C159.975294,198.644128 124.932425,167.755817 112.682497,127.001316 L103,127 L103,102 Z" id="Combined-Shape" stroke="#CBD8F2" fill="#FFFFFF"></path>
        <polyline id="Rectangle-Copy-2" stroke="#CBD8F2" transform="translate(204.000000, 79.500000) rotate(-360.000000) translate(-204.000000, -79.500000) " points="103 87 103 72 305 72 305 87"></polyline>
        <g id="Group" transform="translate(61.500000, 154.000000) rotate(-180.000000) translate(-61.500000, -154.000000) translate(35.000000, 102.000000)">
            <polyline id="Rectangle-Copy-2" stroke="#CBD8F2" transform="translate(7.500000, 52.000000) rotate(-270.000000) translate(-7.500000, -52.000000) " points="-44 59.5 -44 44.5 59 44.5 59 59.5"></polyline>
            <path d="M22.195,58 L22.195,55.892 L20.019,55.892 C19.7583333,55.892 19.4608333,55.9061667 19.1265,55.9345 C18.7921667,55.9628333 18.489,55.994 18.217,56.028 C18.659,55.5746667 19.0868333,55.1128333 19.5005,54.6425 C19.9141667,54.1721667 20.2825,53.7018333 20.6055,53.2315 C20.9285,52.7611667 21.1863333,52.2908333 21.379,51.8205 C21.5716667,51.3501667 21.668,50.8883333 21.668,50.435 C21.668,49.9136667 21.583,49.4433333 21.413,49.024 C21.243,48.6046667 20.9993333,48.2448333 20.682,47.9445 C20.3646667,47.6441667 19.9878333,47.4118333 19.5515,47.2475 C19.1151667,47.0831667 18.6306667,47.001 18.098,47.001 C17.3273333,47.001 16.6643333,47.1455 16.109,47.4345 C15.5536667,47.7235 15.0096667,48.1513333 14.477,48.718 L14.477,48.718 L15.837,50.061 C16.109,49.7663333 16.398,49.5085 16.704,49.2875 C17.01,49.0665 17.3613333,48.956 17.758,48.956 C18.234,48.956 18.608,49.0948333 18.88,49.3725 C19.152,49.6501667 19.288,50.0553333 19.288,50.588 C19.288,50.9733333 19.1718333,51.3785 18.9395,51.8035 C18.7071667,52.2285 18.3841667,52.6875 17.9705,53.1805 C17.5568333,53.6735 17.0638333,54.2005 16.4915,54.7615 C15.9191667,55.3225 15.2873333,55.926 14.596,56.572 L14.596,56.572 L14.596,58 L22.195,58 Z M31.001,58 L31.001,55.977 L28.978,55.977 L28.978,47.205 L27.142,47.205 C26.7566667,47.4316667 26.36,47.6243333 25.952,47.783 C25.544,47.9416667 25.0453333,48.0776667 24.456,48.191 L24.456,48.191 L24.456,49.738 L26.479,49.738 L26.479,55.977 L24.133,55.977 L24.133,58 L31.001,58 Z M36.118,58.204 C36.6393333,58.204 37.1408333,58.119 37.6225,57.949 C38.1041667,57.779 38.5263333,57.5325 38.889,57.2095 C39.2516667,56.8865 39.5406667,56.4926667 39.756,56.028 C39.9713333,55.5633333 40.079,55.0306667 40.079,54.43 C40.079,53.852 39.9883333,53.3533333 39.807,52.934 C39.6256667,52.5146667 39.3763333,52.169 39.059,51.897 C38.7416667,51.625 38.3761667,51.421 37.9625,51.285 C37.5488333,51.149 37.1096667,51.081 36.645,51.081 C36.4183333,51.081 36.2115,51.1008333 36.0245,51.1405 C35.8375,51.1801667 35.642,51.2453333 35.438,51.336 L35.438,51.336 L35.625,49.313 L39.586,49.313 L39.586,47.205 L33.466,47.205 L33.16,52.662 L34.282,53.376 C34.4406667,53.274 34.5851667,53.189 34.7155,53.121 C34.8458333,53.053 34.9705,52.9963333 35.0895,52.951 C35.2085,52.9056667 35.3303333,52.8745 35.455,52.8575 C35.5796667,52.8405 35.7213333,52.832 35.88,52.832 C36.39,52.832 36.8008333,52.9736667 37.1125,53.257 C37.4241667,53.5403333 37.58,53.954 37.58,54.498 C37.58,55.0533333 37.4156667,55.4726667 37.087,55.756 C36.7583333,56.0393333 36.3163333,56.181 35.761,56.181 C35.2963333,56.181 34.8741667,56.0761667 34.4945,55.8665 C34.1148333,55.6568333 33.7606667,55.4046667 33.432,55.11 L33.432,55.11 L32.31,56.691 C32.7406667,57.1216667 33.262,57.4815 33.874,57.7705 C34.486,58.0595 35.234,58.204 36.118,58.204 Z M44.499,58 L44.499,52.305 C45.0203333,51.761 45.4963333,51.489 45.927,51.489 C46.2896667,51.489 46.5531667,51.6023333 46.7175,51.829 C46.8818333,52.0556667 46.964,52.475 46.964,53.087 L46.964,53.087 L46.964,58 L49.463,58 L49.463,52.305 C50.007,51.761 50.4886667,51.489 50.908,51.489 C51.2706667,51.489 51.5341667,51.6023333 51.6985,51.829 C51.8628333,52.0556667 51.945,52.475 51.945,53.087 L51.945,53.087 L51.945,58 L54.444,58 L54.444,52.764 C54.444,51.71 54.2315,50.8798333 53.8065,50.2735 C53.3815,49.6671667 52.7156667,49.364 51.809,49.364 C51.2423333,49.364 50.7521667,49.5028333 50.3385,49.7805 C49.9248333,50.0581667 49.531,50.3896667 49.157,50.775 C48.9416667,50.3216667 48.6498333,49.9731667 48.2815,49.7295 C47.9131667,49.4858333 47.4286667,49.364 46.828,49.364 C46.2726667,49.364 45.7966667,49.4915 45.4,49.7465 C45.0033333,50.0015 44.6293333,50.3046667 44.278,50.656 L44.278,50.656 L44.21,50.656 L44.04,49.568 L42,49.568 L42,58 L44.499,58 Z M59.068,58 L59.068,52.305 C59.5893333,51.761 60.0653333,51.489 60.496,51.489 C60.8586667,51.489 61.1221667,51.6023333 61.2865,51.829 C61.4508333,52.0556667 61.533,52.475 61.533,53.087 L61.533,53.087 L61.533,58 L64.032,58 L64.032,52.305 C64.576,51.761 65.0576667,51.489 65.477,51.489 C65.8396667,51.489 66.1031667,51.6023333 66.2675,51.829 C66.4318333,52.0556667 66.514,52.475 66.514,53.087 L66.514,53.087 L66.514,58 L69.013,58 L69.013,52.764 C69.013,51.71 68.8005,50.8798333 68.3755,50.2735 C67.9505,49.6671667 67.2846667,49.364 66.378,49.364 C65.8113333,49.364 65.3211667,49.5028333 64.9075,49.7805 C64.4938333,50.0581667 64.1,50.3896667 63.726,50.775 C63.5106667,50.3216667 63.2188333,49.9731667 62.8505,49.7295 C62.4821667,49.4858333 61.9976667,49.364 61.397,49.364 C60.8416667,49.364 60.3656667,49.4915 59.969,49.7465 C59.5723333,50.0015 59.1983333,50.3046667 58.847,50.656 L58.847,50.656 L58.779,50.656 L58.609,49.568 L56.569,49.568 L56.569,58 L59.068,58 Z" id="215mm" fill="#093169" fill-rule="nonzero" transform="translate(41.745000, 52.602500) rotate(-270.000000) translate(-41.745000, -52.602500) "></path>
        </g>
        <polyline id="Rectangle-Copy-2" stroke="#CBD8F2" transform="translate(253.500000, 227.500000) rotate(-180.000000) translate(-253.500000, -227.500000) " points="202 235 202 220 305 220 305 235"></polyline>
        <path d="M180.598,52.204 C181.142,52.204 181.657667,52.1331667 182.145,51.9915 C182.632333,51.8498333 183.057333,51.6458333 183.42,51.3795 C183.782667,51.1131667 184.071667,50.7845 184.287,50.3935 C184.502333,50.0025 184.61,49.5576667 184.61,49.059 C184.61,48.3563333 184.408833,47.7868333 184.0065,47.3505 C183.604167,46.9141667 183.091333,46.6053333 182.468,46.424 L182.468,46.424 L182.468,46.356 C183.046,46.1066667 183.490833,45.7865 183.8025,45.3955 C184.114167,45.0045 184.27,44.5256667 184.27,43.959 C184.27,43.483 184.179333,43.0636667 183.998,42.701 C183.816667,42.3383333 183.5645,42.0295 183.2415,41.7745 C182.9185,41.5195 182.5275,41.3268333 182.0685,41.1965 C181.6095,41.0661667 181.102333,41.001 180.547,41.001 C179.878333,41.001 179.269167,41.1228333 178.7195,41.3665 C178.169833,41.6101667 177.645667,41.9473333 177.147,42.378 L177.147,42.378 L178.405,43.908 C178.745,43.6133333 179.070833,43.381 179.3825,43.211 C179.694167,43.041 180.042667,42.956 180.428,42.956 C180.858667,42.956 181.187333,43.0608333 181.414,43.2705 C181.640667,43.4801667 181.754,43.772 181.754,44.146 C181.754,44.3613333 181.7115,44.5568333 181.6265,44.7325 C181.5415,44.9081667 181.399833,45.0611667 181.2015,45.1915 C181.003167,45.3218333 180.7425,45.421 180.4195,45.489 C180.0965,45.557 179.691333,45.591 179.204,45.591 L179.204,45.591 L179.204,47.359 C179.793333,47.359 180.275,47.3958333 180.649,47.4695 C181.023,47.5431667 181.317667,47.6451667 181.533,47.7755 C181.748333,47.9058333 181.8985,48.0673333 181.9835,48.26 C182.0685,48.4526667 182.111,48.668 182.111,48.906 C182.111,49.314 181.952333,49.6285 181.635,49.8495 C181.317667,50.0705 180.892667,50.181 180.36,50.181 C179.895333,50.181 179.4675,50.079 179.0765,49.875 C178.6855,49.671 178.325667,49.4103333 177.997,49.093 L177.997,49.093 L176.841,50.674 C177.237667,51.1386667 177.742,51.5098333 178.354,51.7875 C178.966,52.0651667 179.714,52.204 180.598,52.204 Z M190.22,52.204 C190.707333,52.204 191.169167,52.1218333 191.6055,51.9575 C192.041833,51.7931667 192.4215,51.5523333 192.7445,51.235 C193.0675,50.9176667 193.325333,50.538 193.518,50.096 C193.710667,49.654 193.807,49.1496667 193.807,48.583 C193.807,48.0163333 193.727667,47.5233333 193.569,47.104 C193.410333,46.6846667 193.1865,46.339 192.8975,46.067 C192.6085,45.795 192.2685,45.591 191.8775,45.455 C191.4865,45.319 191.058667,45.251 190.594,45.251 C190.424,45.251 190.242667,45.2765 190.05,45.3275 C189.857333,45.3785 189.664667,45.4521667 189.472,45.5485 C189.279333,45.6448333 189.092333,45.7638333 188.911,45.9055 C188.729667,46.0471667 188.571,46.2086667 188.435,46.39 C188.457667,45.7666667 188.531333,45.2396667 188.656,44.809 C188.780667,44.3783333 188.942167,44.0298333 189.1405,43.7635 C189.338833,43.4971667 189.568333,43.3073333 189.829,43.194 C190.089667,43.0806667 190.367333,43.024 190.662,43.024 C190.979333,43.024 191.291,43.1005 191.597,43.2535 C191.903,43.4065 192.152333,43.585 192.345,43.789 L192.345,43.789 L193.654,42.293 C193.314,41.9416667 192.883333,41.6385 192.362,41.3835 C191.840667,41.1285 191.223,41.001 190.509,41.001 C189.942333,41.001 189.3955,41.1171667 188.8685,41.3495 C188.3415,41.5818333 187.876833,41.936 187.4745,42.412 C187.072167,42.888 186.749167,43.4943333 186.5055,44.231 C186.261833,44.9676667 186.14,45.8403333 186.14,46.849 C186.14,47.801 186.253333,48.6141667 186.48,49.2885 C186.706667,49.9628333 187.009833,50.5153333 187.3895,50.946 C187.769167,51.3766667 188.2055,51.694 188.6985,51.898 C189.1915,52.102 189.698667,52.204 190.22,52.204 Z M190.169,50.334 C189.976333,50.334 189.792167,50.2971667 189.6165,50.2235 C189.440833,50.1498333 189.279333,50.0251667 189.132,49.8495 C188.984667,49.6738333 188.854333,49.4443333 188.741,49.161 C188.627667,48.8776667 188.542667,48.5206667 188.486,48.09 C188.712667,47.7046667 188.9705,47.4298333 189.2595,47.2655 C189.5485,47.1011667 189.834667,47.019 190.118,47.019 C190.526,47.019 190.863167,47.1351667 191.1295,47.3675 C191.395833,47.5998333 191.529,48.005 191.529,48.583 C191.529,49.195 191.395833,49.6398333 191.1295,49.9175 C190.863167,50.1951667 190.543,50.334 190.169,50.334 Z M198.618,52.204 C199.139333,52.204 199.640833,52.119 200.1225,51.949 C200.604167,51.779 201.026333,51.5325 201.389,51.2095 C201.751667,50.8865 202.040667,50.4926667 202.256,50.028 C202.471333,49.5633333 202.579,49.0306667 202.579,48.43 C202.579,47.852 202.488333,47.3533333 202.307,46.934 C202.125667,46.5146667 201.876333,46.169 201.559,45.897 C201.241667,45.625 200.876167,45.421 200.4625,45.285 C200.048833,45.149 199.609667,45.081 199.145,45.081 C198.918333,45.081 198.7115,45.1008333 198.5245,45.1405 C198.3375,45.1801667 198.142,45.2453333 197.938,45.336 L197.938,45.336 L198.125,43.313 L202.086,43.313 L202.086,41.205 L195.966,41.205 L195.66,46.662 L196.782,47.376 C196.940667,47.274 197.085167,47.189 197.2155,47.121 C197.345833,47.053 197.4705,46.9963333 197.5895,46.951 C197.7085,46.9056667 197.830333,46.8745 197.955,46.8575 C198.079667,46.8405 198.221333,46.832 198.38,46.832 C198.89,46.832 199.300833,46.9736667 199.6125,47.257 C199.924167,47.5403333 200.08,47.954 200.08,48.498 C200.08,49.0533333 199.915667,49.4726667 199.587,49.756 C199.258333,50.0393333 198.816333,50.181 198.261,50.181 C197.796333,50.181 197.374167,50.0761667 196.9945,49.8665 C196.614833,49.6568333 196.260667,49.4046667 195.932,49.11 L195.932,49.11 L194.81,50.691 C195.240667,51.1216667 195.762,51.4815 196.374,51.7705 C196.986,52.0595 197.734,52.204 198.618,52.204 Z M206.999,52 L206.999,46.305 C207.520333,45.761 207.996333,45.489 208.427,45.489 C208.789667,45.489 209.053167,45.6023333 209.2175,45.829 C209.381833,46.0556667 209.464,46.475 209.464,47.087 L209.464,47.087 L209.464,52 L211.963,52 L211.963,46.305 C212.507,45.761 212.988667,45.489 213.408,45.489 C213.770667,45.489 214.034167,45.6023333 214.1985,45.829 C214.362833,46.0556667 214.445,46.475 214.445,47.087 L214.445,47.087 L214.445,52 L216.944,52 L216.944,46.764 C216.944,45.71 216.7315,44.8798333 216.3065,44.2735 C215.8815,43.6671667 215.215667,43.364 214.309,43.364 C213.742333,43.364 213.252167,43.5028333 212.8385,43.7805 C212.424833,44.0581667 212.031,44.3896667 211.657,44.775 C211.441667,44.3216667 211.149833,43.9731667 210.7815,43.7295 C210.413167,43.4858333 209.928667,43.364 209.328,43.364 C208.772667,43.364 208.296667,43.4915 207.9,43.7465 C207.503333,44.0015 207.129333,44.3046667 206.778,44.656 L206.778,44.656 L206.71,44.656 L206.54,43.568 L204.5,43.568 L204.5,52 L206.999,52 Z M221.568,52 L221.568,46.305 C222.089333,45.761 222.565333,45.489 222.996,45.489 C223.358667,45.489 223.622167,45.6023333 223.7865,45.829 C223.950833,46.0556667 224.033,46.475 224.033,47.087 L224.033,47.087 L224.033,52 L226.532,52 L226.532,46.305 C227.076,45.761 227.557667,45.489 227.977,45.489 C228.339667,45.489 228.603167,45.6023333 228.7675,45.829 C228.931833,46.0556667 229.014,46.475 229.014,47.087 L229.014,47.087 L229.014,52 L231.513,52 L231.513,46.764 C231.513,45.71 231.3005,44.8798333 230.8755,44.2735 C230.4505,43.6671667 229.784667,43.364 228.878,43.364 C228.311333,43.364 227.821167,43.5028333 227.4075,43.7805 C226.993833,44.0581667 226.6,44.3896667 226.226,44.775 C226.010667,44.3216667 225.718833,43.9731667 225.3505,43.7295 C224.982167,43.4858333 224.497667,43.364 223.897,43.364 C223.341667,43.364 222.865667,43.4915 222.469,43.7465 C222.072333,44.0015 221.698333,44.3046667 221.347,44.656 L221.347,44.656 L221.279,44.656 L221.109,43.568 L219.069,43.568 L219.069,52 L221.568,52 Z" id="365mm" fill="#093169" fill-rule="nonzero"></path>
        <path d="M233.695,267 L233.695,264.892 L231.519,264.892 C231.258333,264.892 230.960833,264.906167 230.6265,264.9345 C230.292167,264.962833 229.989,264.994 229.717,265.028 C230.159,264.574667 230.586833,264.112833 231.0005,263.6425 C231.414167,263.172167 231.7825,262.701833 232.1055,262.2315 C232.4285,261.761167 232.686333,261.290833 232.879,260.8205 C233.071667,260.350167 233.168,259.888333 233.168,259.435 C233.168,258.913667 233.083,258.443333 232.913,258.024 C232.743,257.604667 232.499333,257.244833 232.182,256.9445 C231.864667,256.644167 231.487833,256.411833 231.0515,256.2475 C230.615167,256.083167 230.130667,256.001 229.598,256.001 C228.827333,256.001 228.164333,256.1455 227.609,256.4345 C227.053667,256.7235 226.509667,257.151333 225.977,257.718 L225.977,257.718 L227.337,259.061 C227.609,258.766333 227.898,258.5085 228.204,258.2875 C228.51,258.0665 228.861333,257.956 229.258,257.956 C229.734,257.956 230.108,258.094833 230.38,258.3725 C230.652,258.650167 230.788,259.055333 230.788,259.588 C230.788,259.973333 230.671833,260.3785 230.4395,260.8035 C230.207167,261.2285 229.884167,261.6875 229.4705,262.1805 C229.056833,262.6735 228.563833,263.2005 227.9915,263.7615 C227.419167,264.3225 226.787333,264.926 226.096,265.572 L226.096,265.572 L226.096,267 L233.695,267 Z M242.501,267 L242.501,264.977 L240.478,264.977 L240.478,256.205 L238.642,256.205 C238.256667,256.431667 237.86,256.624333 237.452,256.783 C237.044,256.941667 236.545333,257.077667 235.956,257.191 L235.956,257.191 L235.956,258.738 L237.979,258.738 L237.979,264.977 L235.633,264.977 L235.633,267 L242.501,267 Z M247.618,267.204 C248.139333,267.204 248.640833,267.119 249.1225,266.949 C249.604167,266.779 250.026333,266.5325 250.389,266.2095 C250.751667,265.8865 251.040667,265.492667 251.256,265.028 C251.471333,264.563333 251.579,264.030667 251.579,263.43 C251.579,262.852 251.488333,262.353333 251.307,261.934 C251.125667,261.514667 250.876333,261.169 250.559,260.897 C250.241667,260.625 249.876167,260.421 249.4625,260.285 C249.048833,260.149 248.609667,260.081 248.145,260.081 C247.918333,260.081 247.7115,260.100833 247.5245,260.1405 C247.3375,260.180167 247.142,260.245333 246.938,260.336 L246.938,260.336 L247.125,258.313 L251.086,258.313 L251.086,256.205 L244.966,256.205 L244.66,261.662 L245.782,262.376 C245.940667,262.274 246.085167,262.189 246.2155,262.121 C246.345833,262.053 246.4705,261.996333 246.5895,261.951 C246.7085,261.905667 246.830333,261.8745 246.955,261.8575 C247.079667,261.8405 247.221333,261.832 247.38,261.832 C247.89,261.832 248.300833,261.973667 248.6125,262.257 C248.924167,262.540333 249.08,262.954 249.08,263.498 C249.08,264.053333 248.915667,264.472667 248.587,264.756 C248.258333,265.039333 247.816333,265.181 247.261,265.181 C246.796333,265.181 246.374167,265.076167 245.9945,264.8665 C245.614833,264.656833 245.260667,264.404667 244.932,264.11 L244.932,264.11 L243.81,265.691 C244.240667,266.121667 244.762,266.4815 245.374,266.7705 C245.986,267.0595 246.734,267.204 247.618,267.204 Z M255.999,267 L255.999,261.305 C256.520333,260.761 256.996333,260.489 257.427,260.489 C257.789667,260.489 258.053167,260.602333 258.2175,260.829 C258.381833,261.055667 258.464,261.475 258.464,262.087 L258.464,262.087 L258.464,267 L260.963,267 L260.963,261.305 C261.507,260.761 261.988667,260.489 262.408,260.489 C262.770667,260.489 263.034167,260.602333 263.1985,260.829 C263.362833,261.055667 263.445,261.475 263.445,262.087 L263.445,262.087 L263.445,267 L265.944,267 L265.944,261.764 C265.944,260.71 265.7315,259.879833 265.3065,259.2735 C264.8815,258.667167 264.215667,258.364 263.309,258.364 C262.742333,258.364 262.252167,258.502833 261.8385,258.7805 C261.424833,259.058167 261.031,259.389667 260.657,259.775 C260.441667,259.321667 260.149833,258.973167 259.7815,258.7295 C259.413167,258.485833 258.928667,258.364 258.328,258.364 C257.772667,258.364 257.296667,258.4915 256.9,258.7465 C256.503333,259.0015 256.129333,259.304667 255.778,259.656 L255.778,259.656 L255.71,259.656 L255.54,258.568 L253.5,258.568 L253.5,267 L255.999,267 Z M270.568,267 L270.568,261.305 C271.089333,260.761 271.565333,260.489 271.996,260.489 C272.358667,260.489 272.622167,260.602333 272.7865,260.829 C272.950833,261.055667 273.033,261.475 273.033,262.087 L273.033,262.087 L273.033,267 L275.532,267 L275.532,261.305 C276.076,260.761 276.557667,260.489 276.977,260.489 C277.339667,260.489 277.603167,260.602333 277.7675,260.829 C277.931833,261.055667 278.014,261.475 278.014,262.087 L278.014,262.087 L278.014,267 L280.513,267 L280.513,261.764 C280.513,260.71 280.3005,259.879833 279.8755,259.2735 C279.4505,258.667167 278.784667,258.364 277.878,258.364 C277.311333,258.364 276.821167,258.502833 276.4075,258.7805 C275.993833,259.058167 275.6,259.389667 275.226,259.775 C275.010667,259.321667 274.718833,258.973167 274.3505,258.7295 C273.982167,258.485833 273.497667,258.364 272.897,258.364 C272.341667,258.364 271.865667,258.4915 271.469,258.7465 C271.072333,259.0015 270.698333,259.304667 270.347,259.656 L270.347,259.656 L270.279,259.656 L270.109,258.568 L268.069,258.568 L268.069,267 L270.568,267 Z" id="215mm" fill="#093169" fill-rule="nonzero"></path>
        <g id="Group-4" transform="translate(395.000000, 35.000000)">
            <g id="Group-3" transform="translate(37.500000, 0.000000)">
                <g id="Group-2" transform="translate(30.000000, 67.000000)" fill="#FFFFFF" stroke="#CBD8F2">
                    <rect id="Rectangle" x="0" y="0" width="103" height="103"></rect>
                    <rect id="Rectangle" x="0" y="0" width="103" height="25"></rect>
                    <rect id="Rectangle" x="0" y="94" width="103" height="9"></rect>
                </g>
                <polyline id="Rectangle-Copy-2" stroke="#CBD8F2" transform="translate(7.500000, 119.000000) rotate(-90.000000) translate(-7.500000, -119.000000) " points="-44 126.5 -44 111.5 59 111.5 59 126.5"></polyline>
                <polyline id="Rectangle-Copy-2" stroke="#CBD8F2" transform="translate(81.500000, 44.500000) rotate(-360.000000) translate(-81.500000, -44.500000) " points="30 52 30 37 133 37 133 52"></polyline>
                <path d="M61.695,17 L61.695,14.892 L59.519,14.892 C59.2583333,14.892 58.9608333,14.9061667 58.6265,14.9345 C58.2921667,14.9628333 57.989,14.994 57.717,15.028 C58.159,14.5746667 58.5868333,14.1128333 59.0005,13.6425 C59.4141667,13.1721667 59.7825,12.7018333 60.1055,12.2315 C60.4285,11.7611667 60.6863333,11.2908333 60.879,10.8205 C61.0716667,10.3501667 61.168,9.88833333 61.168,9.435 C61.168,8.91366667 61.083,8.44333333 60.913,8.024 C60.743,7.60466667 60.4993333,7.24483333 60.182,6.9445 C59.8646667,6.64416667 59.4878333,6.41183333 59.0515,6.2475 C58.6151667,6.08316667 58.1306667,6.001 57.598,6.001 C56.8273333,6.001 56.1643333,6.1455 55.609,6.4345 C55.0536667,6.7235 54.5096667,7.15133333 53.977,7.718 L53.977,7.718 L55.337,9.061 C55.609,8.76633333 55.898,8.5085 56.204,8.2875 C56.51,8.0665 56.8613333,7.956 57.258,7.956 C57.734,7.956 58.108,8.09483333 58.38,8.3725 C58.652,8.65016667 58.788,9.05533333 58.788,9.588 C58.788,9.97333333 58.6718333,10.3785 58.4395,10.8035 C58.2071667,11.2285 57.8841667,11.6875 57.4705,12.1805 C57.0568333,12.6735 56.5638333,13.2005 55.9915,13.7615 C55.4191667,14.3225 54.7873333,14.926 54.096,15.572 L54.096,15.572 L54.096,17 L61.695,17 Z M70.501,17 L70.501,14.977 L68.478,14.977 L68.478,6.205 L66.642,6.205 C66.2566667,6.43166667 65.86,6.62433333 65.452,6.783 C65.044,6.94166667 64.5453333,7.07766667 63.956,7.191 L63.956,7.191 L63.956,8.738 L65.979,8.738 L65.979,14.977 L63.633,14.977 L63.633,17 L70.501,17 Z M75.618,17.204 C76.1393333,17.204 76.6408333,17.119 77.1225,16.949 C77.6041667,16.779 78.0263333,16.5325 78.389,16.2095 C78.7516667,15.8865 79.0406667,15.4926667 79.256,15.028 C79.4713333,14.5633333 79.579,14.0306667 79.579,13.43 C79.579,12.852 79.4883333,12.3533333 79.307,11.934 C79.1256667,11.5146667 78.8763333,11.169 78.559,10.897 C78.2416667,10.625 77.8761667,10.421 77.4625,10.285 C77.0488333,10.149 76.6096667,10.081 76.145,10.081 C75.9183333,10.081 75.7115,10.1008333 75.5245,10.1405 C75.3375,10.1801667 75.142,10.2453333 74.938,10.336 L74.938,10.336 L75.125,8.313 L79.086,8.313 L79.086,6.205 L72.966,6.205 L72.66,11.662 L73.782,12.376 C73.9406667,12.274 74.0851667,12.189 74.2155,12.121 C74.3458333,12.053 74.4705,11.9963333 74.5895,11.951 C74.7085,11.9056667 74.8303333,11.8745 74.955,11.8575 C75.0796667,11.8405 75.2213333,11.832 75.38,11.832 C75.89,11.832 76.3008333,11.9736667 76.6125,12.257 C76.9241667,12.5403333 77.08,12.954 77.08,13.498 C77.08,14.0533333 76.9156667,14.4726667 76.587,14.756 C76.2583333,15.0393333 75.8163333,15.181 75.261,15.181 C74.7963333,15.181 74.3741667,15.0761667 73.9945,14.8665 C73.6148333,14.6568333 73.2606667,14.4046667 72.932,14.11 L72.932,14.11 L71.81,15.691 C72.2406667,16.1216667 72.762,16.4815 73.374,16.7705 C73.986,17.0595 74.734,17.204 75.618,17.204 Z M83.999,17 L83.999,11.305 C84.5203333,10.761 84.9963333,10.489 85.427,10.489 C85.7896667,10.489 86.0531667,10.6023333 86.2175,10.829 C86.3818333,11.0556667 86.464,11.475 86.464,12.087 L86.464,12.087 L86.464,17 L88.963,17 L88.963,11.305 C89.507,10.761 89.9886667,10.489 90.408,10.489 C90.7706667,10.489 91.0341667,10.6023333 91.1985,10.829 C91.3628333,11.0556667 91.445,11.475 91.445,12.087 L91.445,12.087 L91.445,17 L93.944,17 L93.944,11.764 C93.944,10.71 93.7315,9.87983333 93.3065,9.2735 C92.8815,8.66716667 92.2156667,8.364 91.309,8.364 C90.7423333,8.364 90.2521667,8.50283333 89.8385,8.7805 C89.4248333,9.05816667 89.031,9.38966667 88.657,9.775 C88.4416667,9.32166667 88.1498333,8.97316667 87.7815,8.7295 C87.4131667,8.48583333 86.9286667,8.364 86.328,8.364 C85.7726667,8.364 85.2966667,8.4915 84.9,8.7465 C84.5033333,9.0015 84.1293333,9.30466667 83.778,9.656 L83.778,9.656 L83.71,9.656 L83.54,8.568 L81.5,8.568 L81.5,17 L83.999,17 Z M98.568,17 L98.568,11.305 C99.0893333,10.761 99.5653333,10.489 99.996,10.489 C100.358667,10.489 100.622167,10.6023333 100.7865,10.829 C100.950833,11.0556667 101.033,11.475 101.033,12.087 L101.033,12.087 L101.033,17 L103.532,17 L103.532,11.305 C104.076,10.761 104.557667,10.489 104.977,10.489 C105.339667,10.489 105.603167,10.6023333 105.7675,10.829 C105.931833,11.0556667 106.014,11.475 106.014,12.087 L106.014,12.087 L106.014,17 L108.513,17 L108.513,11.764 C108.513,10.71 108.3005,9.87983333 107.8755,9.2735 C107.4505,8.66716667 106.784667,8.364 105.878,8.364 C105.311333,8.364 104.821167,8.50283333 104.4075,8.7805 C103.993833,9.05816667 103.6,9.38966667 103.226,9.775 C103.010667,9.32166667 102.718833,8.97316667 102.3505,8.7295 C101.982167,8.48583333 101.497667,8.364 100.897,8.364 C100.341667,8.364 99.8656667,8.4915 99.469,8.7465 C99.0723333,9.0015 98.6983333,9.30466667 98.347,9.656 L98.347,9.656 L98.279,9.656 L98.109,8.568 L96.069,8.568 L96.069,17 L98.568,17 Z" id="215mm" fill="#093169" fill-rule="nonzero"></path>
            </g>
            <path d="M-8.305,125 L-8.305,122.892 L-10.481,122.892 C-10.7416667,122.892 -11.0391667,122.906167 -11.3735,122.9345 C-11.7078333,122.962833 -12.011,122.994 -12.283,123.028 C-11.841,122.574667 -11.4131667,122.112833 -10.9995,121.6425 C-10.5858333,121.172167 -10.2175,120.701833 -9.8945,120.2315 C-9.5715,119.761167 -9.31366667,119.290833 -9.121,118.8205 C-8.92833333,118.350167 -8.832,117.888333 -8.832,117.435 C-8.832,116.913667 -8.917,116.443333 -9.087,116.024 C-9.257,115.604667 -9.50066667,115.244833 -9.818,114.9445 C-10.1353333,114.644167 -10.5121667,114.411833 -10.9485,114.2475 C-11.3848333,114.083167 -11.8693333,114.001 -12.402,114.001 C-13.1726667,114.001 -13.8356667,114.1455 -14.391,114.4345 C-14.9463333,114.7235 -15.4903333,115.151333 -16.023,115.718 L-16.023,115.718 L-14.663,117.061 C-14.391,116.766333 -14.102,116.5085 -13.796,116.2875 C-13.49,116.0665 -13.1386667,115.956 -12.742,115.956 C-12.266,115.956 -11.892,116.094833 -11.62,116.3725 C-11.348,116.650167 -11.212,117.055333 -11.212,117.588 C-11.212,117.973333 -11.3281667,118.3785 -11.5605,118.8035 C-11.7928333,119.2285 -12.1158333,119.6875 -12.5295,120.1805 C-12.9431667,120.6735 -13.4361667,121.2005 -14.0085,121.7615 C-14.5808333,122.3225 -15.2126667,122.926 -15.904,123.572 L-15.904,123.572 L-15.904,125 L-8.305,125 Z M0.501,125 L0.501,122.977 L-1.522,122.977 L-1.522,114.205 L-3.358,114.205 C-3.74333333,114.431667 -4.14,114.624333 -4.548,114.783 C-4.956,114.941667 -5.45466667,115.077667 -6.044,115.191 L-6.044,115.191 L-6.044,116.738 L-4.021,116.738 L-4.021,122.977 L-6.367,122.977 L-6.367,125 L0.501,125 Z M5.618,125.204 C6.13933333,125.204 6.64083333,125.119 7.1225,124.949 C7.60416667,124.779 8.02633333,124.5325 8.389,124.2095 C8.75166667,123.8865 9.04066667,123.492667 9.256,123.028 C9.47133333,122.563333 9.579,122.030667 9.579,121.43 C9.579,120.852 9.48833333,120.353333 9.307,119.934 C9.12566667,119.514667 8.87633333,119.169 8.559,118.897 C8.24166667,118.625 7.87616667,118.421 7.4625,118.285 C7.04883333,118.149 6.60966667,118.081 6.145,118.081 C5.91833333,118.081 5.7115,118.100833 5.5245,118.1405 C5.3375,118.180167 5.142,118.245333 4.938,118.336 L4.938,118.336 L5.125,116.313 L9.086,116.313 L9.086,114.205 L2.966,114.205 L2.66,119.662 L3.782,120.376 C3.94066667,120.274 4.08516667,120.189 4.2155,120.121 C4.34583333,120.053 4.4705,119.996333 4.5895,119.951 C4.7085,119.905667 4.83033333,119.8745 4.955,119.8575 C5.07966667,119.8405 5.22133333,119.832 5.38,119.832 C5.89,119.832 6.30083333,119.973667 6.6125,120.257 C6.92416667,120.540333 7.08,120.954 7.08,121.498 C7.08,122.053333 6.91566667,122.472667 6.587,122.756 C6.25833333,123.039333 5.81633333,123.181 5.261,123.181 C4.79633333,123.181 4.37416667,123.076167 3.9945,122.8665 C3.61483333,122.656833 3.26066667,122.404667 2.932,122.11 L2.932,122.11 L1.81,123.691 C2.24066667,124.121667 2.762,124.4815 3.374,124.7705 C3.986,125.0595 4.734,125.204 5.618,125.204 Z M13.999,125 L13.999,119.305 C14.5203333,118.761 14.9963333,118.489 15.427,118.489 C15.7896667,118.489 16.0531667,118.602333 16.2175,118.829 C16.3818333,119.055667 16.464,119.475 16.464,120.087 L16.464,120.087 L16.464,125 L18.963,125 L18.963,119.305 C19.507,118.761 19.9886667,118.489 20.408,118.489 C20.7706667,118.489 21.0341667,118.602333 21.1985,118.829 C21.3628333,119.055667 21.445,119.475 21.445,120.087 L21.445,120.087 L21.445,125 L23.944,125 L23.944,119.764 C23.944,118.71 23.7315,117.879833 23.3065,117.2735 C22.8815,116.667167 22.2156667,116.364 21.309,116.364 C20.7423333,116.364 20.2521667,116.502833 19.8385,116.7805 C19.4248333,117.058167 19.031,117.389667 18.657,117.775 C18.4416667,117.321667 18.1498333,116.973167 17.7815,116.7295 C17.4131667,116.485833 16.9286667,116.364 16.328,116.364 C15.7726667,116.364 15.2966667,116.4915 14.9,116.7465 C14.5033333,117.0015 14.1293333,117.304667 13.778,117.656 L13.778,117.656 L13.71,117.656 L13.54,116.568 L11.5,116.568 L11.5,125 L13.999,125 Z M28.568,125 L28.568,119.305 C29.0893333,118.761 29.5653333,118.489 29.996,118.489 C30.3586667,118.489 30.6221667,118.602333 30.7865,118.829 C30.9508333,119.055667 31.033,119.475 31.033,120.087 L31.033,120.087 L31.033,125 L33.532,125 L33.532,119.305 C34.076,118.761 34.5576667,118.489 34.977,118.489 C35.3396667,118.489 35.6031667,118.602333 35.7675,118.829 C35.9318333,119.055667 36.014,119.475 36.014,120.087 L36.014,120.087 L36.014,125 L38.513,125 L38.513,119.764 C38.513,118.71 38.3005,117.879833 37.8755,117.2735 C37.4505,116.667167 36.7846667,116.364 35.878,116.364 C35.3113333,116.364 34.8211667,116.502833 34.4075,116.7805 C33.9938333,117.058167 33.6,117.389667 33.226,117.775 C33.0106667,117.321667 32.7188333,116.973167 32.3505,116.7295 C31.9821667,116.485833 31.4976667,116.364 30.897,116.364 C30.3416667,116.364 29.8656667,116.4915 29.469,116.7465 C29.0723333,117.0015 28.6983333,117.304667 28.347,117.656 L28.347,117.656 L28.279,117.656 L28.109,116.568 L26.069,116.568 L26.069,125 L28.568,125 Z" id="215mm" fill="#093169" fill-rule="nonzero" transform="translate(11.245000, 119.602500) rotate(-90.000000) translate(-11.245000, -119.602500) "></path>
        </g>
    </g>
</svg>