<?xml version="1.0" encoding="UTF-8"?>
<svg width="600px" height="316px" viewBox="0 0 600 316" version="1.1" xmlns="http://www.w3.org/2000/svg" xmlns:xlink="http://www.w3.org/1999/xlink">
    <title>corbels/A120</title>
    <g id="corbels/A120" stroke="none" stroke-width="1" fill="none" fill-rule="evenodd">
        <rect fill="#F5F9FF" x="0" y="0" width="600" height="316"></rect>
        <g id="Group-3" transform="translate(432.500000, 35.000000)">
            <g id="Group-2" transform="translate(30.000000, 67.000000)" fill="#FFFFFF" stroke="#CBD8F2">
                <rect id="Rectangle" x="0" y="0" width="48" height="103"></rect>
                <rect id="Rectangle" x="0" y="0" width="48" height="25"></rect>
                <rect id="Rectangle" x="0" y="94" width="48" height="9"></rect>
            </g>
            <polyline id="Rectangle-Copy-2" stroke="#CBD8F2" transform="translate(7.500000, 119.000000) rotate(-90.000000) translate(-7.500000, -119.000000) " points="-44 126.5 -44 111.5 59 111.5 59 126.5"></polyline>
            <polyline id="Rectangle-Copy-2" stroke="#CBD8F2" transform="translate(54.000000, 44.500000) rotate(-360.000000) translate(-54.000000, -44.500000) " points="30 52 30 37 78 37 78 52"></polyline>
            <path d="M34.025,17 L34.025,14.977 L32.002,14.977 L32.002,6.205 L30.166,6.205 C29.7806667,6.43166667 29.384,6.62433333 28.976,6.783 C28.568,6.94166667 28.0693333,7.07766667 27.48,7.191 L27.48,7.191 L27.48,8.738 L29.503,8.738 L29.503,14.977 L27.157,14.977 L27.157,17 L34.025,17 Z M39.431,17.204 C40.009,17.204 40.536,17.0821667 41.012,16.8385 C41.488,16.5948333 41.8931667,16.235 42.2275,15.759 C42.5618333,15.283 42.8225,14.6936667 43.0095,13.991 C43.1965,13.2883333 43.29,12.478 43.29,11.56 C43.29,10.642 43.1965,9.83733333 43.0095,9.146 C42.8225,8.45466667 42.5618333,7.87383333 42.2275,7.4035 C41.8931667,6.93316667 41.488,6.58183333 41.012,6.3495 C40.536,6.11716667 40.009,6.001 39.431,6.001 C38.853,6.001 38.326,6.11716667 37.85,6.3495 C37.374,6.58183333 36.9688333,6.93316667 36.6345,7.4035 C36.3001667,7.87383333 36.0395,8.45466667 35.8525,9.146 C35.6655,9.83733333 35.572,10.642 35.572,11.56 C35.572,12.478 35.6655,13.2883333 35.8525,13.991 C36.0395,14.6936667 36.3001667,15.283 36.6345,15.759 C36.9688333,16.235 37.374,16.5948333 37.85,16.8385 C38.326,17.0821667 38.853,17.204 39.431,17.204 Z M39.431,15.266 C39.227,15.266 39.0343333,15.2121667 38.853,15.1045 C38.6716667,14.9968333 38.513,14.8013333 38.377,14.518 C38.241,14.2346667 38.1333333,13.855 38.054,13.379 C37.9746667,12.903 37.935,12.2966667 37.935,11.56 C37.935,10.8233333 37.9746667,10.2198333 38.054,9.7495 C38.1333333,9.27916667 38.241,8.91083333 38.377,8.6445 C38.513,8.37816667 38.6716667,8.194 38.853,8.092 C39.0343333,7.99 39.227,7.939 39.431,7.939 C39.6463333,7.939 39.8446667,7.99 40.026,8.092 C40.2073333,8.194 40.366,8.37816667 40.502,8.6445 C40.638,8.91083333 40.7428333,9.27916667 40.8165,9.7495 C40.8901667,10.2198333 40.927,10.8233333 40.927,11.56 C40.927,12.2966667 40.8901667,12.903 40.8165,13.379 C40.7428333,13.855 40.638,14.2346667 40.502,14.518 C40.366,14.8013333 40.2073333,14.9968333 40.026,15.1045 C39.8446667,15.2121667 39.6463333,15.266 39.431,15.266 Z M48.407,17.204 C48.985,17.204 49.512,17.0821667 49.988,16.8385 C50.464,16.5948333 50.8691667,16.235 51.2035,15.759 C51.5378333,15.283 51.7985,14.6936667 51.9855,13.991 C52.1725,13.2883333 52.266,12.478 52.266,11.56 C52.266,10.642 52.1725,9.83733333 51.9855,9.146 C51.7985,8.45466667 51.5378333,7.87383333 51.2035,7.4035 C50.8691667,6.93316667 50.464,6.58183333 49.988,6.3495 C49.512,6.11716667 48.985,6.001 48.407,6.001 C47.829,6.001 47.302,6.11716667 46.826,6.3495 C46.35,6.58183333 45.9448333,6.93316667 45.6105,7.4035 C45.2761667,7.87383333 45.0155,8.45466667 44.8285,9.146 C44.6415,9.83733333 44.548,10.642 44.548,11.56 C44.548,12.478 44.6415,13.2883333 44.8285,13.991 C45.0155,14.6936667 45.2761667,15.283 45.6105,15.759 C45.9448333,16.235 46.35,16.5948333 46.826,16.8385 C47.302,17.0821667 47.829,17.204 48.407,17.204 Z M48.407,15.266 C48.203,15.266 48.0103333,15.2121667 47.829,15.1045 C47.6476667,14.9968333 47.489,14.8013333 47.353,14.518 C47.217,14.2346667 47.1093333,13.855 47.03,13.379 C46.9506667,12.903 46.911,12.2966667 46.911,11.56 C46.911,10.8233333 46.9506667,10.2198333 47.03,9.7495 C47.1093333,9.27916667 47.217,8.91083333 47.353,8.6445 C47.489,8.37816667 47.6476667,8.194 47.829,8.092 C48.0103333,7.99 48.203,7.939 48.407,7.939 C48.6223333,7.939 48.8206667,7.99 49.002,8.092 C49.1833333,8.194 49.342,8.37816667 49.478,8.6445 C49.614,8.91083333 49.7188333,9.27916667 49.7925,9.7495 C49.8661667,10.2198333 49.903,10.8233333 49.903,11.56 C49.903,12.2966667 49.8661667,12.903 49.7925,13.379 C49.7188333,13.855 49.614,14.2346667 49.478,14.518 C49.342,14.8013333 49.1833333,14.9968333 49.002,15.1045 C48.8206667,15.2121667 48.6223333,15.266 48.407,15.266 Z M56.499,17 L56.499,11.305 C57.0203333,10.761 57.4963333,10.489 57.927,10.489 C58.2896667,10.489 58.5531667,10.6023333 58.7175,10.829 C58.8818333,11.0556667 58.964,11.475 58.964,12.087 L58.964,12.087 L58.964,17 L61.463,17 L61.463,11.305 C62.007,10.761 62.4886667,10.489 62.908,10.489 C63.2706667,10.489 63.5341667,10.6023333 63.6985,10.829 C63.8628333,11.0556667 63.945,11.475 63.945,12.087 L63.945,12.087 L63.945,17 L66.444,17 L66.444,11.764 C66.444,10.71 66.2315,9.87983333 65.8065,9.2735 C65.3815,8.66716667 64.7156667,8.364 63.809,8.364 C63.2423333,8.364 62.7521667,8.50283333 62.3385,8.7805 C61.9248333,9.05816667 61.531,9.38966667 61.157,9.775 C60.9416667,9.32166667 60.6498333,8.97316667 60.2815,8.7295 C59.9131667,8.48583333 59.4286667,8.364 58.828,8.364 C58.2726667,8.364 57.7966667,8.4915 57.4,8.7465 C57.0033333,9.0015 56.6293333,9.30466667 56.278,9.656 L56.278,9.656 L56.21,9.656 L56.04,8.568 L54,8.568 L54,17 L56.499,17 Z M71.068,17 L71.068,11.305 C71.5893333,10.761 72.0653333,10.489 72.496,10.489 C72.8586667,10.489 73.1221667,10.6023333 73.2865,10.829 C73.4508333,11.0556667 73.533,11.475 73.533,12.087 L73.533,12.087 L73.533,17 L76.032,17 L76.032,11.305 C76.576,10.761 77.0576667,10.489 77.477,10.489 C77.8396667,10.489 78.1031667,10.6023333 78.2675,10.829 C78.4318333,11.0556667 78.514,11.475 78.514,12.087 L78.514,12.087 L78.514,17 L81.013,17 L81.013,11.764 C81.013,10.71 80.8005,9.87983333 80.3755,9.2735 C79.9505,8.66716667 79.2846667,8.364 78.378,8.364 C77.8113333,8.364 77.3211667,8.50283333 76.9075,8.7805 C76.4938333,9.05816667 76.1,9.38966667 75.726,9.775 C75.5106667,9.32166667 75.2188333,8.97316667 74.8505,8.7295 C74.4821667,8.48583333 73.9976667,8.364 73.397,8.364 C72.8416667,8.364 72.3656667,8.4915 71.969,8.7465 C71.5723333,9.0015 71.1983333,9.30466667 70.847,9.656 L70.847,9.656 L70.779,9.656 L70.609,8.568 L68.569,8.568 L68.569,17 L71.068,17 Z" id="100mm" fill="#093169" fill-rule="nonzero"></path>
        </g>
        <path d="M386.695,160 L386.695,157.892 L384.519,157.892 C384.258333,157.892 383.960833,157.906167 383.6265,157.9345 C383.292167,157.962833 382.989,157.994 382.717,158.028 C383.159,157.574667 383.586833,157.112833 384.0005,156.6425 C384.414167,156.172167 384.7825,155.701833 385.1055,155.2315 C385.4285,154.761167 385.686333,154.290833 385.879,153.8205 C386.071667,153.350167 386.168,152.888333 386.168,152.435 C386.168,151.913667 386.083,151.443333 385.913,151.024 C385.743,150.604667 385.499333,150.244833 385.182,149.9445 C384.864667,149.644167 384.487833,149.411833 384.0515,149.2475 C383.615167,149.083167 383.130667,149.001 382.598,149.001 C381.827333,149.001 381.164333,149.1455 380.609,149.4345 C380.053667,149.7235 379.509667,150.151333 378.977,150.718 L378.977,150.718 L380.337,152.061 C380.609,151.766333 380.898,151.5085 381.204,151.2875 C381.51,151.0665 381.861333,150.956 382.258,150.956 C382.734,150.956 383.108,151.094833 383.38,151.3725 C383.652,151.650167 383.788,152.055333 383.788,152.588 C383.788,152.973333 383.671833,153.3785 383.4395,153.8035 C383.207167,154.2285 382.884167,154.6875 382.4705,155.1805 C382.056833,155.6735 381.563833,156.2005 380.9915,156.7615 C380.419167,157.3225 379.787333,157.926 379.096,158.572 L379.096,158.572 L379.096,160 L386.695,160 Z M395.501,160 L395.501,157.977 L393.478,157.977 L393.478,149.205 L391.642,149.205 C391.256667,149.431667 390.86,149.624333 390.452,149.783 C390.044,149.941667 389.545333,150.077667 388.956,150.191 L388.956,150.191 L388.956,151.738 L390.979,151.738 L390.979,157.977 L388.633,157.977 L388.633,160 L395.501,160 Z M400.618,160.204 C401.139333,160.204 401.640833,160.119 402.1225,159.949 C402.604167,159.779 403.026333,159.5325 403.389,159.2095 C403.751667,158.8865 404.040667,158.492667 404.256,158.028 C404.471333,157.563333 404.579,157.030667 404.579,156.43 C404.579,155.852 404.488333,155.353333 404.307,154.934 C404.125667,154.514667 403.876333,154.169 403.559,153.897 C403.241667,153.625 402.876167,153.421 402.4625,153.285 C402.048833,153.149 401.609667,153.081 401.145,153.081 C400.918333,153.081 400.7115,153.100833 400.5245,153.1405 C400.3375,153.180167 400.142,153.245333 399.938,153.336 L399.938,153.336 L400.125,151.313 L404.086,151.313 L404.086,149.205 L397.966,149.205 L397.66,154.662 L398.782,155.376 C398.940667,155.274 399.085167,155.189 399.2155,155.121 C399.345833,155.053 399.4705,154.996333 399.5895,154.951 C399.7085,154.905667 399.830333,154.8745 399.955,154.8575 C400.079667,154.8405 400.221333,154.832 400.38,154.832 C400.89,154.832 401.300833,154.973667 401.6125,155.257 C401.924167,155.540333 402.08,155.954 402.08,156.498 C402.08,157.053333 401.915667,157.472667 401.587,157.756 C401.258333,158.039333 400.816333,158.181 400.261,158.181 C399.796333,158.181 399.374167,158.076167 398.9945,157.8665 C398.614833,157.656833 398.260667,157.404667 397.932,157.11 L397.932,157.11 L396.81,158.691 C397.240667,159.121667 397.762,159.4815 398.374,159.7705 C398.986,160.0595 399.734,160.204 400.618,160.204 Z M408.999,160 L408.999,154.305 C409.520333,153.761 409.996333,153.489 410.427,153.489 C410.789667,153.489 411.053167,153.602333 411.2175,153.829 C411.381833,154.055667 411.464,154.475 411.464,155.087 L411.464,155.087 L411.464,160 L413.963,160 L413.963,154.305 C414.507,153.761 414.988667,153.489 415.408,153.489 C415.770667,153.489 416.034167,153.602333 416.1985,153.829 C416.362833,154.055667 416.445,154.475 416.445,155.087 L416.445,155.087 L416.445,160 L418.944,160 L418.944,154.764 C418.944,153.71 418.7315,152.879833 418.3065,152.2735 C417.8815,151.667167 417.215667,151.364 416.309,151.364 C415.742333,151.364 415.252167,151.502833 414.8385,151.7805 C414.424833,152.058167 414.031,152.389667 413.657,152.775 C413.441667,152.321667 413.149833,151.973167 412.7815,151.7295 C412.413167,151.485833 411.928667,151.364 411.328,151.364 C410.772667,151.364 410.296667,151.4915 409.9,151.7465 C409.503333,152.0015 409.129333,152.304667 408.778,152.656 L408.778,152.656 L408.71,152.656 L408.54,151.568 L406.5,151.568 L406.5,160 L408.999,160 Z M423.568,160 L423.568,154.305 C424.089333,153.761 424.565333,153.489 424.996,153.489 C425.358667,153.489 425.622167,153.602333 425.7865,153.829 C425.950833,154.055667 426.033,154.475 426.033,155.087 L426.033,155.087 L426.033,160 L428.532,160 L428.532,154.305 C429.076,153.761 429.557667,153.489 429.977,153.489 C430.339667,153.489 430.603167,153.602333 430.7675,153.829 C430.931833,154.055667 431.014,154.475 431.014,155.087 L431.014,155.087 L431.014,160 L433.513,160 L433.513,154.764 C433.513,153.71 433.3005,152.879833 432.8755,152.2735 C432.4505,151.667167 431.784667,151.364 430.878,151.364 C430.311333,151.364 429.821167,151.502833 429.4075,151.7805 C428.993833,152.058167 428.6,152.389667 428.226,152.775 C428.010667,152.321667 427.718833,151.973167 427.3505,151.7295 C426.982167,151.485833 426.497667,151.364 425.897,151.364 C425.341667,151.364 424.865667,151.4915 424.469,151.7465 C424.072333,152.0015 423.698333,152.304667 423.347,152.656 L423.347,152.656 L423.279,152.656 L423.109,151.568 L421.069,151.568 L421.069,160 L423.568,160 Z" id="215mm" fill="#093169" fill-rule="nonzero" transform="translate(406.245000, 154.602500) rotate(-90.000000) translate(-406.245000, -154.602500) "></path>
        <path d="M203,204.999574 L203.000271,204.854991 C159.974941,198.643713 124.93185,167.755246 112.682196,127.000645 L103,127.000331 L103,102.000574 L369,102.000574 L369,204.999574 L203,204.999574 Z" id="Combined-Shape" stroke="#CBD8F2" fill="#FFFFFF"></path>
        <polyline id="Rectangle-Copy-2" stroke="#CBD8F2" transform="translate(236.000000, 79.500000) rotate(-360.000000) translate(-236.000000, -79.500000) " points="103 87 103 72 369 72 369 87"></polyline>
        <g id="Group" transform="translate(61.500000, 154.000000) rotate(-180.000000) translate(-61.500000, -154.000000) translate(35.000000, 102.000000)">
            <polyline id="Rectangle-Copy-2" stroke="#CBD8F2" transform="translate(7.500000, 52.000000) rotate(-270.000000) translate(-7.500000, -52.000000) " points="-44 59.5 -44 44.5 59 44.5 59 59.5"></polyline>
            <path d="M22.195,58 L22.195,55.892 L20.019,55.892 C19.7583333,55.892 19.4608333,55.9061667 19.1265,55.9345 C18.7921667,55.9628333 18.489,55.994 18.217,56.028 C18.659,55.5746667 19.0868333,55.1128333 19.5005,54.6425 C19.9141667,54.1721667 20.2825,53.7018333 20.6055,53.2315 C20.9285,52.7611667 21.1863333,52.2908333 21.379,51.8205 C21.5716667,51.3501667 21.668,50.8883333 21.668,50.435 C21.668,49.9136667 21.583,49.4433333 21.413,49.024 C21.243,48.6046667 20.9993333,48.2448333 20.682,47.9445 C20.3646667,47.6441667 19.9878333,47.4118333 19.5515,47.2475 C19.1151667,47.0831667 18.6306667,47.001 18.098,47.001 C17.3273333,47.001 16.6643333,47.1455 16.109,47.4345 C15.5536667,47.7235 15.0096667,48.1513333 14.477,48.718 L14.477,48.718 L15.837,50.061 C16.109,49.7663333 16.398,49.5085 16.704,49.2875 C17.01,49.0665 17.3613333,48.956 17.758,48.956 C18.234,48.956 18.608,49.0948333 18.88,49.3725 C19.152,49.6501667 19.288,50.0553333 19.288,50.588 C19.288,50.9733333 19.1718333,51.3785 18.9395,51.8035 C18.7071667,52.2285 18.3841667,52.6875 17.9705,53.1805 C17.5568333,53.6735 17.0638333,54.2005 16.4915,54.7615 C15.9191667,55.3225 15.2873333,55.926 14.596,56.572 L14.596,56.572 L14.596,58 L22.195,58 Z M31.001,58 L31.001,55.977 L28.978,55.977 L28.978,47.205 L27.142,47.205 C26.7566667,47.4316667 26.36,47.6243333 25.952,47.783 C25.544,47.9416667 25.0453333,48.0776667 24.456,48.191 L24.456,48.191 L24.456,49.738 L26.479,49.738 L26.479,55.977 L24.133,55.977 L24.133,58 L31.001,58 Z M36.118,58.204 C36.6393333,58.204 37.1408333,58.119 37.6225,57.949 C38.1041667,57.779 38.5263333,57.5325 38.889,57.2095 C39.2516667,56.8865 39.5406667,56.4926667 39.756,56.028 C39.9713333,55.5633333 40.079,55.0306667 40.079,54.43 C40.079,53.852 39.9883333,53.3533333 39.807,52.934 C39.6256667,52.5146667 39.3763333,52.169 39.059,51.897 C38.7416667,51.625 38.3761667,51.421 37.9625,51.285 C37.5488333,51.149 37.1096667,51.081 36.645,51.081 C36.4183333,51.081 36.2115,51.1008333 36.0245,51.1405 C35.8375,51.1801667 35.642,51.2453333 35.438,51.336 L35.438,51.336 L35.625,49.313 L39.586,49.313 L39.586,47.205 L33.466,47.205 L33.16,52.662 L34.282,53.376 C34.4406667,53.274 34.5851667,53.189 34.7155,53.121 C34.8458333,53.053 34.9705,52.9963333 35.0895,52.951 C35.2085,52.9056667 35.3303333,52.8745 35.455,52.8575 C35.5796667,52.8405 35.7213333,52.832 35.88,52.832 C36.39,52.832 36.8008333,52.9736667 37.1125,53.257 C37.4241667,53.5403333 37.58,53.954 37.58,54.498 C37.58,55.0533333 37.4156667,55.4726667 37.087,55.756 C36.7583333,56.0393333 36.3163333,56.181 35.761,56.181 C35.2963333,56.181 34.8741667,56.0761667 34.4945,55.8665 C34.1148333,55.6568333 33.7606667,55.4046667 33.432,55.11 L33.432,55.11 L32.31,56.691 C32.7406667,57.1216667 33.262,57.4815 33.874,57.7705 C34.486,58.0595 35.234,58.204 36.118,58.204 Z M44.499,58 L44.499,52.305 C45.0203333,51.761 45.4963333,51.489 45.927,51.489 C46.2896667,51.489 46.5531667,51.6023333 46.7175,51.829 C46.8818333,52.0556667 46.964,52.475 46.964,53.087 L46.964,53.087 L46.964,58 L49.463,58 L49.463,52.305 C50.007,51.761 50.4886667,51.489 50.908,51.489 C51.2706667,51.489 51.5341667,51.6023333 51.6985,51.829 C51.8628333,52.0556667 51.945,52.475 51.945,53.087 L51.945,53.087 L51.945,58 L54.444,58 L54.444,52.764 C54.444,51.71 54.2315,50.8798333 53.8065,50.2735 C53.3815,49.6671667 52.7156667,49.364 51.809,49.364 C51.2423333,49.364 50.7521667,49.5028333 50.3385,49.7805 C49.9248333,50.0581667 49.531,50.3896667 49.157,50.775 C48.9416667,50.3216667 48.6498333,49.9731667 48.2815,49.7295 C47.9131667,49.4858333 47.4286667,49.364 46.828,49.364 C46.2726667,49.364 45.7966667,49.4915 45.4,49.7465 C45.0033333,50.0015 44.6293333,50.3046667 44.278,50.656 L44.278,50.656 L44.21,50.656 L44.04,49.568 L42,49.568 L42,58 L44.499,58 Z M59.068,58 L59.068,52.305 C59.5893333,51.761 60.0653333,51.489 60.496,51.489 C60.8586667,51.489 61.1221667,51.6023333 61.2865,51.829 C61.4508333,52.0556667 61.533,52.475 61.533,53.087 L61.533,53.087 L61.533,58 L64.032,58 L64.032,52.305 C64.576,51.761 65.0576667,51.489 65.477,51.489 C65.8396667,51.489 66.1031667,51.6023333 66.2675,51.829 C66.4318333,52.0556667 66.514,52.475 66.514,53.087 L66.514,53.087 L66.514,58 L69.013,58 L69.013,52.764 C69.013,51.71 68.8005,50.8798333 68.3755,50.2735 C67.9505,49.6671667 67.2846667,49.364 66.378,49.364 C65.8113333,49.364 65.3211667,49.5028333 64.9075,49.7805 C64.4938333,50.0581667 64.1,50.3896667 63.726,50.775 C63.5106667,50.3216667 63.2188333,49.9731667 62.8505,49.7295 C62.4821667,49.4858333 61.9976667,49.364 61.397,49.364 C60.8416667,49.364 60.3656667,49.4915 59.969,49.7465 C59.5723333,50.0015 59.1983333,50.3046667 58.847,50.656 L58.847,50.656 L58.779,50.656 L58.609,49.568 L56.569,49.568 L56.569,58 L59.068,58 Z" id="215mm" fill="#093169" fill-rule="nonzero" transform="translate(41.745000, 52.602500) rotate(-270.000000) translate(-41.745000, -52.602500) "></path>
        </g>
        <polyline id="Rectangle-Copy-2" stroke="#CBD8F2" transform="translate(285.500000, 227.500000) rotate(-180.000000) translate(-285.500000, -227.500000) " points="202 235 202 220 369 220 369 235"></polyline>
        <path d="M212.666,52.204 C213.187333,52.204 213.688833,52.119 214.1705,51.949 C214.652167,51.779 215.074333,51.5325 215.437,51.2095 C215.799667,50.8865 216.088667,50.4926667 216.304,50.028 C216.519333,49.5633333 216.627,49.0306667 216.627,48.43 C216.627,47.852 216.536333,47.3533333 216.355,46.934 C216.173667,46.5146667 215.924333,46.169 215.607,45.897 C215.289667,45.625 214.924167,45.421 214.5105,45.285 C214.096833,45.149 213.657667,45.081 213.193,45.081 C212.966333,45.081 212.7595,45.1008333 212.5725,45.1405 C212.3855,45.1801667 212.19,45.2453333 211.986,45.336 L211.986,45.336 L212.173,43.313 L216.134,43.313 L216.134,41.205 L210.014,41.205 L209.708,46.662 L210.83,47.376 C210.988667,47.274 211.133167,47.189 211.2635,47.121 C211.393833,47.053 211.5185,46.9963333 211.6375,46.951 C211.7565,46.9056667 211.878333,46.8745 212.003,46.8575 C212.127667,46.8405 212.269333,46.832 212.428,46.832 C212.938,46.832 213.348833,46.9736667 213.6605,47.257 C213.972167,47.5403333 214.128,47.954 214.128,48.498 C214.128,49.0533333 213.963667,49.4726667 213.635,49.756 C213.306333,50.0393333 212.864333,50.181 212.309,50.181 C211.844333,50.181 211.422167,50.0761667 211.0425,49.8665 C210.662833,49.6568333 210.308667,49.4046667 209.98,49.11 L209.98,49.11 L208.858,50.691 C209.288667,51.1216667 209.81,51.4815 210.422,51.7705 C211.034,52.0595 211.782,52.204 212.666,52.204 Z M221.642,52.204 C222.163333,52.204 222.664833,52.119 223.1465,51.949 C223.628167,51.779 224.050333,51.5325 224.413,51.2095 C224.775667,50.8865 225.064667,50.4926667 225.28,50.028 C225.495333,49.5633333 225.603,49.0306667 225.603,48.43 C225.603,47.852 225.512333,47.3533333 225.331,46.934 C225.149667,46.5146667 224.900333,46.169 224.583,45.897 C224.265667,45.625 223.900167,45.421 223.4865,45.285 C223.072833,45.149 222.633667,45.081 222.169,45.081 C221.942333,45.081 221.7355,45.1008333 221.5485,45.1405 C221.3615,45.1801667 221.166,45.2453333 220.962,45.336 L220.962,45.336 L221.149,43.313 L225.11,43.313 L225.11,41.205 L218.99,41.205 L218.684,46.662 L219.806,47.376 C219.964667,47.274 220.109167,47.189 220.2395,47.121 C220.369833,47.053 220.4945,46.9963333 220.6135,46.951 C220.7325,46.9056667 220.854333,46.8745 220.979,46.8575 C221.103667,46.8405 221.245333,46.832 221.404,46.832 C221.914,46.832 222.324833,46.9736667 222.6365,47.257 C222.948167,47.5403333 223.104,47.954 223.104,48.498 C223.104,49.0533333 222.939667,49.4726667 222.611,49.756 C222.282333,50.0393333 221.840333,50.181 221.285,50.181 C220.820333,50.181 220.398167,50.0761667 220.0185,49.8665 C219.638833,49.6568333 219.284667,49.4046667 218.956,49.11 L218.956,49.11 L217.834,50.691 C218.264667,51.1216667 218.786,51.4815 219.398,51.7705 C220.01,52.0595 220.758,52.204 221.642,52.204 Z M234.647,52 L234.647,49.892 L232.471,49.892 C232.210333,49.892 231.912833,49.9061667 231.5785,49.9345 C231.244167,49.9628333 230.941,49.994 230.669,50.028 C231.111,49.5746667 231.538833,49.1128333 231.9525,48.6425 C232.366167,48.1721667 232.7345,47.7018333 233.0575,47.2315 C233.3805,46.7611667 233.638333,46.2908333 233.831,45.8205 C234.023667,45.3501667 234.12,44.8883333 234.12,44.435 C234.12,43.9136667 234.035,43.4433333 233.865,43.024 C233.695,42.6046667 233.451333,42.2448333 233.134,41.9445 C232.816667,41.6441667 232.439833,41.4118333 232.0035,41.2475 C231.567167,41.0831667 231.082667,41.001 230.55,41.001 C229.779333,41.001 229.116333,41.1455 228.561,41.4345 C228.005667,41.7235 227.461667,42.1513333 226.929,42.718 L226.929,42.718 L228.289,44.061 C228.561,43.7663333 228.85,43.5085 229.156,43.2875 C229.462,43.0665 229.813333,42.956 230.21,42.956 C230.686,42.956 231.06,43.0948333 231.332,43.3725 C231.604,43.6501667 231.74,44.0553333 231.74,44.588 C231.74,44.9733333 231.623833,45.3785 231.3915,45.8035 C231.159167,46.2285 230.836167,46.6875 230.4225,47.1805 C230.008833,47.6735 229.515833,48.2005 228.9435,48.7615 C228.371167,49.3225 227.739333,49.926 227.048,50.572 L227.048,50.572 L227.048,52 L234.647,52 Z M238.999,52 L238.999,46.305 C239.520333,45.761 239.996333,45.489 240.427,45.489 C240.789667,45.489 241.053167,45.6023333 241.2175,45.829 C241.381833,46.0556667 241.464,46.475 241.464,47.087 L241.464,47.087 L241.464,52 L243.963,52 L243.963,46.305 C244.507,45.761 244.988667,45.489 245.408,45.489 C245.770667,45.489 246.034167,45.6023333 246.1985,45.829 C246.362833,46.0556667 246.445,46.475 246.445,47.087 L246.445,47.087 L246.445,52 L248.944,52 L248.944,46.764 C248.944,45.71 248.7315,44.8798333 248.3065,44.2735 C247.8815,43.6671667 247.215667,43.364 246.309,43.364 C245.742333,43.364 245.252167,43.5028333 244.8385,43.7805 C244.424833,44.0581667 244.031,44.3896667 243.657,44.775 C243.441667,44.3216667 243.149833,43.9731667 242.7815,43.7295 C242.413167,43.4858333 241.928667,43.364 241.328,43.364 C240.772667,43.364 240.296667,43.4915 239.9,43.7465 C239.503333,44.0015 239.129333,44.3046667 238.778,44.656 L238.778,44.656 L238.71,44.656 L238.54,43.568 L236.5,43.568 L236.5,52 L238.999,52 Z M253.568,52 L253.568,46.305 C254.089333,45.761 254.565333,45.489 254.996,45.489 C255.358667,45.489 255.622167,45.6023333 255.7865,45.829 C255.950833,46.0556667 256.033,46.475 256.033,47.087 L256.033,47.087 L256.033,52 L258.532,52 L258.532,46.305 C259.076,45.761 259.557667,45.489 259.977,45.489 C260.339667,45.489 260.603167,45.6023333 260.7675,45.829 C260.931833,46.0556667 261.014,46.475 261.014,47.087 L261.014,47.087 L261.014,52 L263.513,52 L263.513,46.764 C263.513,45.71 263.3005,44.8798333 262.8755,44.2735 C262.4505,43.6671667 261.784667,43.364 260.878,43.364 C260.311333,43.364 259.821167,43.5028333 259.4075,43.7805 C258.993833,44.0581667 258.6,44.3896667 258.226,44.775 C258.010667,44.3216667 257.718833,43.9731667 257.3505,43.7295 C256.982167,43.4858333 256.497667,43.364 255.897,43.364 C255.341667,43.364 254.865667,43.4915 254.469,43.7465 C254.072333,44.0015 253.698333,44.3046667 253.347,44.656 L253.347,44.656 L253.279,44.656 L253.109,43.568 L251.069,43.568 L251.069,52 L253.568,52 Z" id="552mm" fill="#093169" fill-rule="nonzero"></path>
        <path d="M261.598,267.204 C262.142,267.204 262.657667,267.133167 263.145,266.9915 C263.632333,266.849833 264.057333,266.645833 264.42,266.3795 C264.782667,266.113167 265.071667,265.7845 265.287,265.3935 C265.502333,265.0025 265.61,264.557667 265.61,264.059 C265.61,263.356333 265.408833,262.786833 265.0065,262.3505 C264.604167,261.914167 264.091333,261.605333 263.468,261.424 L263.468,261.424 L263.468,261.356 C264.046,261.106667 264.490833,260.7865 264.8025,260.3955 C265.114167,260.0045 265.27,259.525667 265.27,258.959 C265.27,258.483 265.179333,258.063667 264.998,257.701 C264.816667,257.338333 264.5645,257.0295 264.2415,256.7745 C263.9185,256.5195 263.5275,256.326833 263.0685,256.1965 C262.6095,256.066167 262.102333,256.001 261.547,256.001 C260.878333,256.001 260.269167,256.122833 259.7195,256.3665 C259.169833,256.610167 258.645667,256.947333 258.147,257.378 L258.147,257.378 L259.405,258.908 C259.745,258.613333 260.070833,258.381 260.3825,258.211 C260.694167,258.041 261.042667,257.956 261.428,257.956 C261.858667,257.956 262.187333,258.060833 262.414,258.2705 C262.640667,258.480167 262.754,258.772 262.754,259.146 C262.754,259.361333 262.7115,259.556833 262.6265,259.7325 C262.5415,259.908167 262.399833,260.061167 262.2015,260.1915 C262.003167,260.321833 261.7425,260.421 261.4195,260.489 C261.0965,260.557 260.691333,260.591 260.204,260.591 L260.204,260.591 L260.204,262.359 C260.793333,262.359 261.275,262.395833 261.649,262.4695 C262.023,262.543167 262.317667,262.645167 262.533,262.7755 C262.748333,262.905833 262.8985,263.067333 262.9835,263.26 C263.0685,263.452667 263.111,263.668 263.111,263.906 C263.111,264.314 262.952333,264.6285 262.635,264.8495 C262.317667,265.0705 261.892667,265.181 261.36,265.181 C260.895333,265.181 260.4675,265.079 260.0765,264.875 C259.6855,264.671 259.325667,264.410333 258.997,264.093 L258.997,264.093 L257.841,265.674 C258.237667,266.138667 258.742,266.509833 259.354,266.7875 C259.966,267.065167 260.714,267.204 261.598,267.204 Z M273.77,267 L273.77,264.416 L275.011,264.416 L275.011,262.512 L273.77,262.512 L273.77,256.205 L270.71,256.205 L266.766,262.699 L266.766,264.416 L271.441,264.416 L271.441,267 L273.77,267 Z M271.441,262.512 L269.163,262.512 L270.591,260.166 C270.749667,259.86 270.902667,259.554 271.05,259.248 C271.197333,258.942 271.339,258.641667 271.475,258.347 L271.475,258.347 L271.543,258.347 C271.520333,258.687 271.497667,259.0865 271.475,259.5455 C271.452333,260.0045 271.441,260.409667 271.441,260.761 L271.441,260.761 L271.441,262.512 Z M279.907,267.204 C280.485,267.204 281.012,267.082167 281.488,266.8385 C281.964,266.594833 282.369167,266.235 282.7035,265.759 C283.037833,265.283 283.2985,264.693667 283.4855,263.991 C283.6725,263.288333 283.766,262.478 283.766,261.56 C283.766,260.642 283.6725,259.837333 283.4855,259.146 C283.2985,258.454667 283.037833,257.873833 282.7035,257.4035 C282.369167,256.933167 281.964,256.581833 281.488,256.3495 C281.012,256.117167 280.485,256.001 279.907,256.001 C279.329,256.001 278.802,256.117167 278.326,256.3495 C277.85,256.581833 277.444833,256.933167 277.1105,257.4035 C276.776167,257.873833 276.5155,258.454667 276.3285,259.146 C276.1415,259.837333 276.048,260.642 276.048,261.56 C276.048,262.478 276.1415,263.288333 276.3285,263.991 C276.5155,264.693667 276.776167,265.283 277.1105,265.759 C277.444833,266.235 277.85,266.594833 278.326,266.8385 C278.802,267.082167 279.329,267.204 279.907,267.204 Z M279.907,265.266 C279.703,265.266 279.510333,265.212167 279.329,265.1045 C279.147667,264.996833 278.989,264.801333 278.853,264.518 C278.717,264.234667 278.609333,263.855 278.53,263.379 C278.450667,262.903 278.411,262.296667 278.411,261.56 C278.411,260.823333 278.450667,260.219833 278.53,259.7495 C278.609333,259.279167 278.717,258.910833 278.853,258.6445 C278.989,258.378167 279.147667,258.194 279.329,258.092 C279.510333,257.99 279.703,257.939 279.907,257.939 C280.122333,257.939 280.320667,257.99 280.502,258.092 C280.683333,258.194 280.842,258.378167 280.978,258.6445 C281.114,258.910833 281.218833,259.279167 281.2925,259.7495 C281.366167,260.219833 281.403,260.823333 281.403,261.56 C281.403,262.296667 281.366167,262.903 281.2925,263.379 C281.218833,263.855 281.114,264.234667 280.978,264.518 C280.842,264.801333 280.683333,264.996833 280.502,265.1045 C280.320667,265.212167 280.122333,265.266 279.907,265.266 Z M287.999,267 L287.999,261.305 C288.520333,260.761 288.996333,260.489 289.427,260.489 C289.789667,260.489 290.053167,260.602333 290.2175,260.829 C290.381833,261.055667 290.464,261.475 290.464,262.087 L290.464,262.087 L290.464,267 L292.963,267 L292.963,261.305 C293.507,260.761 293.988667,260.489 294.408,260.489 C294.770667,260.489 295.034167,260.602333 295.1985,260.829 C295.362833,261.055667 295.445,261.475 295.445,262.087 L295.445,262.087 L295.445,267 L297.944,267 L297.944,261.764 C297.944,260.71 297.7315,259.879833 297.3065,259.2735 C296.8815,258.667167 296.215667,258.364 295.309,258.364 C294.742333,258.364 294.252167,258.502833 293.8385,258.7805 C293.424833,259.058167 293.031,259.389667 292.657,259.775 C292.441667,259.321667 292.149833,258.973167 291.7815,258.7295 C291.413167,258.485833 290.928667,258.364 290.328,258.364 C289.772667,258.364 289.296667,258.4915 288.9,258.7465 C288.503333,259.0015 288.129333,259.304667 287.778,259.656 L287.778,259.656 L287.71,259.656 L287.54,258.568 L285.5,258.568 L285.5,267 L287.999,267 Z M302.568,267 L302.568,261.305 C303.089333,260.761 303.565333,260.489 303.996,260.489 C304.358667,260.489 304.622167,260.602333 304.7865,260.829 C304.950833,261.055667 305.033,261.475 305.033,262.087 L305.033,262.087 L305.033,267 L307.532,267 L307.532,261.305 C308.076,260.761 308.557667,260.489 308.977,260.489 C309.339667,260.489 309.603167,260.602333 309.7675,260.829 C309.931833,261.055667 310.014,261.475 310.014,262.087 L310.014,262.087 L310.014,267 L312.513,267 L312.513,261.764 C312.513,260.71 312.3005,259.879833 311.8755,259.2735 C311.4505,258.667167 310.784667,258.364 309.878,258.364 C309.311333,258.364 308.821167,258.502833 308.4075,258.7805 C307.993833,259.058167 307.6,259.389667 307.226,259.775 C307.010667,259.321667 306.718833,258.973167 306.3505,258.7295 C305.982167,258.485833 305.497667,258.364 304.897,258.364 C304.341667,258.364 303.865667,258.4915 303.469,258.7465 C303.072333,259.0015 302.698333,259.304667 302.347,259.656 L302.347,259.656 L302.279,259.656 L302.109,258.568 L300.069,258.568 L300.069,267 L302.568,267 Z" id="340mm" fill="#093169" fill-rule="nonzero"></path>
    </g>
</svg>