<?xml version="1.0" encoding="UTF-8"?>
<svg width="600px" height="313px" viewBox="0 0 600 313" version="1.1" xmlns="http://www.w3.org/2000/svg" xmlns:xlink="http://www.w3.org/1999/xlink">
    <title>corbels/A130R-side</title>
    <g id="corbels/A130R-side" stroke="none" stroke-width="1" fill="none" fill-rule="evenodd">
        <rect fill="#F5F9FF" x="0" y="0" width="600" height="313"></rect>
        <g id="Group-4" transform="translate(395.000000, 35.000000)">
            <g id="Group-3" transform="translate(37.500000, 0.000000)">
                <g id="Group-2" transform="translate(30.000000, 67.000000)" stroke="#CBD8F2">
                    <rect id="Rectangle" fill="#FFFFFF" x="0" y="0" width="103" height="103"></rect>
                    <rect id="Rectangle" fill="#FFFFFF" x="0" y="0" width="103" height="25"></rect>
                    <line x1="56" y1="0.5" x2="56" y2="103.5" id="Line" stroke-dasharray="6"></line>
                </g>
                <polyline id="Rectangle-Copy-2" stroke="#CBD8F2" transform="translate(7.500000, 119.000000) rotate(-90.000000) translate(-7.500000, -119.000000) " points="-44 126.5 -44 111.5 59 111.5 59 126.5"></polyline>
                <polyline id="Rectangle-Copy-2" stroke="#CBD8F2" transform="translate(81.500000, 44.500000) rotate(-360.000000) translate(-81.500000, -44.500000) " points="30 52 30 37 133 37 133 52"></polyline>
                <path d="M61.695,17 L61.695,14.892 L59.519,14.892 C59.2583333,14.892 58.9608333,14.9061667 58.6265,14.9345 C58.2921667,14.9628333 57.989,14.994 57.717,15.028 C58.159,14.5746667 58.5868333,14.1128333 59.0005,13.6425 C59.4141667,13.1721667 59.7825,12.7018333 60.1055,12.2315 C60.4285,11.7611667 60.6863333,11.2908333 60.879,10.8205 C61.0716667,10.3501667 61.168,9.88833333 61.168,9.435 C61.168,8.91366667 61.083,8.44333333 60.913,8.024 C60.743,7.60466667 60.4993333,7.24483333 60.182,6.9445 C59.8646667,6.64416667 59.4878333,6.41183333 59.0515,6.2475 C58.6151667,6.08316667 58.1306667,6.001 57.598,6.001 C56.8273333,6.001 56.1643333,6.1455 55.609,6.4345 C55.0536667,6.7235 54.5096667,7.15133333 53.977,7.718 L53.977,7.718 L55.337,9.061 C55.609,8.76633333 55.898,8.5085 56.204,8.2875 C56.51,8.0665 56.8613333,7.956 57.258,7.956 C57.734,7.956 58.108,8.09483333 58.38,8.3725 C58.652,8.65016667 58.788,9.05533333 58.788,9.588 C58.788,9.97333333 58.6718333,10.3785 58.4395,10.8035 C58.2071667,11.2285 57.8841667,11.6875 57.4705,12.1805 C57.0568333,12.6735 56.5638333,13.2005 55.9915,13.7615 C55.4191667,14.3225 54.7873333,14.926 54.096,15.572 L54.096,15.572 L54.096,17 L61.695,17 Z M70.501,17 L70.501,14.977 L68.478,14.977 L68.478,6.205 L66.642,6.205 C66.2566667,6.43166667 65.86,6.62433333 65.452,6.783 C65.044,6.94166667 64.5453333,7.07766667 63.956,7.191 L63.956,7.191 L63.956,8.738 L65.979,8.738 L65.979,14.977 L63.633,14.977 L63.633,17 L70.501,17 Z M75.618,17.204 C76.1393333,17.204 76.6408333,17.119 77.1225,16.949 C77.6041667,16.779 78.0263333,16.5325 78.389,16.2095 C78.7516667,15.8865 79.0406667,15.4926667 79.256,15.028 C79.4713333,14.5633333 79.579,14.0306667 79.579,13.43 C79.579,12.852 79.4883333,12.3533333 79.307,11.934 C79.1256667,11.5146667 78.8763333,11.169 78.559,10.897 C78.2416667,10.625 77.8761667,10.421 77.4625,10.285 C77.0488333,10.149 76.6096667,10.081 76.145,10.081 C75.9183333,10.081 75.7115,10.1008333 75.5245,10.1405 C75.3375,10.1801667 75.142,10.2453333 74.938,10.336 L74.938,10.336 L75.125,8.313 L79.086,8.313 L79.086,6.205 L72.966,6.205 L72.66,11.662 L73.782,12.376 C73.9406667,12.274 74.0851667,12.189 74.2155,12.121 C74.3458333,12.053 74.4705,11.9963333 74.5895,11.951 C74.7085,11.9056667 74.8303333,11.8745 74.955,11.8575 C75.0796667,11.8405 75.2213333,11.832 75.38,11.832 C75.89,11.832 76.3008333,11.9736667 76.6125,12.257 C76.9241667,12.5403333 77.08,12.954 77.08,13.498 C77.08,14.0533333 76.9156667,14.4726667 76.587,14.756 C76.2583333,15.0393333 75.8163333,15.181 75.261,15.181 C74.7963333,15.181 74.3741667,15.0761667 73.9945,14.8665 C73.6148333,14.6568333 73.2606667,14.4046667 72.932,14.11 L72.932,14.11 L71.81,15.691 C72.2406667,16.1216667 72.762,16.4815 73.374,16.7705 C73.986,17.0595 74.734,17.204 75.618,17.204 Z M83.999,17 L83.999,11.305 C84.5203333,10.761 84.9963333,10.489 85.427,10.489 C85.7896667,10.489 86.0531667,10.6023333 86.2175,10.829 C86.3818333,11.0556667 86.464,11.475 86.464,12.087 L86.464,12.087 L86.464,17 L88.963,17 L88.963,11.305 C89.507,10.761 89.9886667,10.489 90.408,10.489 C90.7706667,10.489 91.0341667,10.6023333 91.1985,10.829 C91.3628333,11.0556667 91.445,11.475 91.445,12.087 L91.445,12.087 L91.445,17 L93.944,17 L93.944,11.764 C93.944,10.71 93.7315,9.87983333 93.3065,9.2735 C92.8815,8.66716667 92.2156667,8.364 91.309,8.364 C90.7423333,8.364 90.2521667,8.50283333 89.8385,8.7805 C89.4248333,9.05816667 89.031,9.38966667 88.657,9.775 C88.4416667,9.32166667 88.1498333,8.97316667 87.7815,8.7295 C87.4131667,8.48583333 86.9286667,8.364 86.328,8.364 C85.7726667,8.364 85.2966667,8.4915 84.9,8.7465 C84.5033333,9.0015 84.1293333,9.30466667 83.778,9.656 L83.778,9.656 L83.71,9.656 L83.54,8.568 L81.5,8.568 L81.5,17 L83.999,17 Z M98.568,17 L98.568,11.305 C99.0893333,10.761 99.5653333,10.489 99.996,10.489 C100.358667,10.489 100.622167,10.6023333 100.7865,10.829 C100.950833,11.0556667 101.033,11.475 101.033,12.087 L101.033,12.087 L101.033,17 L103.532,17 L103.532,11.305 C104.076,10.761 104.557667,10.489 104.977,10.489 C105.339667,10.489 105.603167,10.6023333 105.7675,10.829 C105.931833,11.0556667 106.014,11.475 106.014,12.087 L106.014,12.087 L106.014,17 L108.513,17 L108.513,11.764 C108.513,10.71 108.3005,9.87983333 107.8755,9.2735 C107.4505,8.66716667 106.784667,8.364 105.878,8.364 C105.311333,8.364 104.821167,8.50283333 104.4075,8.7805 C103.993833,9.05816667 103.6,9.38966667 103.226,9.775 C103.010667,9.32166667 102.718833,8.97316667 102.3505,8.7295 C101.982167,8.48583333 101.497667,8.364 100.897,8.364 C100.341667,8.364 99.8656667,8.4915 99.469,8.7465 C99.0723333,9.0015 98.6983333,9.30466667 98.347,9.656 L98.347,9.656 L98.279,9.656 L98.109,8.568 L96.069,8.568 L96.069,17 L98.568,17 Z" id="215mm" fill="#093169" fill-rule="nonzero"></path>
            </g>
            <path d="M-8.305,125 L-8.305,122.892 L-10.481,122.892 C-10.7416667,122.892 -11.0391667,122.906167 -11.3735,122.9345 C-11.7078333,122.962833 -12.011,122.994 -12.283,123.028 C-11.841,122.574667 -11.4131667,122.112833 -10.9995,121.6425 C-10.5858333,121.172167 -10.2175,120.701833 -9.8945,120.2315 C-9.5715,119.761167 -9.31366667,119.290833 -9.121,118.8205 C-8.92833333,118.350167 -8.832,117.888333 -8.832,117.435 C-8.832,116.913667 -8.917,116.443333 -9.087,116.024 C-9.257,115.604667 -9.50066667,115.244833 -9.818,114.9445 C-10.1353333,114.644167 -10.5121667,114.411833 -10.9485,114.2475 C-11.3848333,114.083167 -11.8693333,114.001 -12.402,114.001 C-13.1726667,114.001 -13.8356667,114.1455 -14.391,114.4345 C-14.9463333,114.7235 -15.4903333,115.151333 -16.023,115.718 L-16.023,115.718 L-14.663,117.061 C-14.391,116.766333 -14.102,116.5085 -13.796,116.2875 C-13.49,116.0665 -13.1386667,115.956 -12.742,115.956 C-12.266,115.956 -11.892,116.094833 -11.62,116.3725 C-11.348,116.650167 -11.212,117.055333 -11.212,117.588 C-11.212,117.973333 -11.3281667,118.3785 -11.5605,118.8035 C-11.7928333,119.2285 -12.1158333,119.6875 -12.5295,120.1805 C-12.9431667,120.6735 -13.4361667,121.2005 -14.0085,121.7615 C-14.5808333,122.3225 -15.2126667,122.926 -15.904,123.572 L-15.904,123.572 L-15.904,125 L-8.305,125 Z M0.501,125 L0.501,122.977 L-1.522,122.977 L-1.522,114.205 L-3.358,114.205 C-3.74333333,114.431667 -4.14,114.624333 -4.548,114.783 C-4.956,114.941667 -5.45466667,115.077667 -6.044,115.191 L-6.044,115.191 L-6.044,116.738 L-4.021,116.738 L-4.021,122.977 L-6.367,122.977 L-6.367,125 L0.501,125 Z M5.618,125.204 C6.13933333,125.204 6.64083333,125.119 7.1225,124.949 C7.60416667,124.779 8.02633333,124.5325 8.389,124.2095 C8.75166667,123.8865 9.04066667,123.492667 9.256,123.028 C9.47133333,122.563333 9.579,122.030667 9.579,121.43 C9.579,120.852 9.48833333,120.353333 9.307,119.934 C9.12566667,119.514667 8.87633333,119.169 8.559,118.897 C8.24166667,118.625 7.87616667,118.421 7.4625,118.285 C7.04883333,118.149 6.60966667,118.081 6.145,118.081 C5.91833333,118.081 5.7115,118.100833 5.5245,118.1405 C5.3375,118.180167 5.142,118.245333 4.938,118.336 L4.938,118.336 L5.125,116.313 L9.086,116.313 L9.086,114.205 L2.966,114.205 L2.66,119.662 L3.782,120.376 C3.94066667,120.274 4.08516667,120.189 4.2155,120.121 C4.34583333,120.053 4.4705,119.996333 4.5895,119.951 C4.7085,119.905667 4.83033333,119.8745 4.955,119.8575 C5.07966667,119.8405 5.22133333,119.832 5.38,119.832 C5.89,119.832 6.30083333,119.973667 6.6125,120.257 C6.92416667,120.540333 7.08,120.954 7.08,121.498 C7.08,122.053333 6.91566667,122.472667 6.587,122.756 C6.25833333,123.039333 5.81633333,123.181 5.261,123.181 C4.79633333,123.181 4.37416667,123.076167 3.9945,122.8665 C3.61483333,122.656833 3.26066667,122.404667 2.932,122.11 L2.932,122.11 L1.81,123.691 C2.24066667,124.121667 2.762,124.4815 3.374,124.7705 C3.986,125.0595 4.734,125.204 5.618,125.204 Z M13.999,125 L13.999,119.305 C14.5203333,118.761 14.9963333,118.489 15.427,118.489 C15.7896667,118.489 16.0531667,118.602333 16.2175,118.829 C16.3818333,119.055667 16.464,119.475 16.464,120.087 L16.464,120.087 L16.464,125 L18.963,125 L18.963,119.305 C19.507,118.761 19.9886667,118.489 20.408,118.489 C20.7706667,118.489 21.0341667,118.602333 21.1985,118.829 C21.3628333,119.055667 21.445,119.475 21.445,120.087 L21.445,120.087 L21.445,125 L23.944,125 L23.944,119.764 C23.944,118.71 23.7315,117.879833 23.3065,117.2735 C22.8815,116.667167 22.2156667,116.364 21.309,116.364 C20.7423333,116.364 20.2521667,116.502833 19.8385,116.7805 C19.4248333,117.058167 19.031,117.389667 18.657,117.775 C18.4416667,117.321667 18.1498333,116.973167 17.7815,116.7295 C17.4131667,116.485833 16.9286667,116.364 16.328,116.364 C15.7726667,116.364 15.2966667,116.4915 14.9,116.7465 C14.5033333,117.0015 14.1293333,117.304667 13.778,117.656 L13.778,117.656 L13.71,117.656 L13.54,116.568 L11.5,116.568 L11.5,125 L13.999,125 Z M28.568,125 L28.568,119.305 C29.0893333,118.761 29.5653333,118.489 29.996,118.489 C30.3586667,118.489 30.6221667,118.602333 30.7865,118.829 C30.9508333,119.055667 31.033,119.475 31.033,120.087 L31.033,120.087 L31.033,125 L33.532,125 L33.532,119.305 C34.076,118.761 34.5576667,118.489 34.977,118.489 C35.3396667,118.489 35.6031667,118.602333 35.7675,118.829 C35.9318333,119.055667 36.014,119.475 36.014,120.087 L36.014,120.087 L36.014,125 L38.513,125 L38.513,119.764 C38.513,118.71 38.3005,117.879833 37.8755,117.2735 C37.4505,116.667167 36.7846667,116.364 35.878,116.364 C35.3113333,116.364 34.8211667,116.502833 34.4075,116.7805 C33.9938333,117.058167 33.6,117.389667 33.226,117.775 C33.0106667,117.321667 32.7188333,116.973167 32.3505,116.7295 C31.9821667,116.485833 31.4976667,116.364 30.897,116.364 C30.3416667,116.364 29.8656667,116.4915 29.469,116.7465 C29.0723333,117.0015 28.6983333,117.304667 28.347,117.656 L28.347,117.656 L28.279,117.656 L28.109,116.568 L26.069,116.568 L26.069,125 L28.568,125 Z" id="215mm" fill="#093169" fill-rule="nonzero" transform="translate(11.245000, 119.602500) rotate(-90.000000) translate(-11.245000, -119.602500) "></path>
        </g>
        <path d="M203,204.999574 L203.000271,204.854991 C159.974941,198.643713 124.93185,167.755246 112.682196,127.000645 L103,127.000331 L103,102.000574 L369,102.000574 L369,204.999574 L203,204.999574 Z" id="Combined-Shape" stroke="#CBD8F2" fill="#FFFFFF" transform="translate(236.000000, 153.500000) scale(-1, 1) translate(-236.000000, -153.500000) "></path>
        <polyline id="Rectangle-Copy-2" stroke="#CBD8F2" transform="translate(236.000000, 79.500000) rotate(-360.000000) translate(-236.000000, -79.500000) " points="103 87 103 72 369 72 369 87"></polyline>
        <g id="Group" transform="translate(61.500000, 154.000000) rotate(-180.000000) translate(-61.500000, -154.000000) translate(35.000000, 102.000000)">
            <polyline id="Rectangle-Copy-2" stroke="#CBD8F2" transform="translate(7.500000, 52.000000) rotate(-270.000000) translate(-7.500000, -52.000000) " points="-44 59.5 -44 44.5 59 44.5 59 59.5"></polyline>
            <path d="M22.195,58 L22.195,55.892 L20.019,55.892 C19.7583333,55.892 19.4608333,55.9061667 19.1265,55.9345 C18.7921667,55.9628333 18.489,55.994 18.217,56.028 C18.659,55.5746667 19.0868333,55.1128333 19.5005,54.6425 C19.9141667,54.1721667 20.2825,53.7018333 20.6055,53.2315 C20.9285,52.7611667 21.1863333,52.2908333 21.379,51.8205 C21.5716667,51.3501667 21.668,50.8883333 21.668,50.435 C21.668,49.9136667 21.583,49.4433333 21.413,49.024 C21.243,48.6046667 20.9993333,48.2448333 20.682,47.9445 C20.3646667,47.6441667 19.9878333,47.4118333 19.5515,47.2475 C19.1151667,47.0831667 18.6306667,47.001 18.098,47.001 C17.3273333,47.001 16.6643333,47.1455 16.109,47.4345 C15.5536667,47.7235 15.0096667,48.1513333 14.477,48.718 L14.477,48.718 L15.837,50.061 C16.109,49.7663333 16.398,49.5085 16.704,49.2875 C17.01,49.0665 17.3613333,48.956 17.758,48.956 C18.234,48.956 18.608,49.0948333 18.88,49.3725 C19.152,49.6501667 19.288,50.0553333 19.288,50.588 C19.288,50.9733333 19.1718333,51.3785 18.9395,51.8035 C18.7071667,52.2285 18.3841667,52.6875 17.9705,53.1805 C17.5568333,53.6735 17.0638333,54.2005 16.4915,54.7615 C15.9191667,55.3225 15.2873333,55.926 14.596,56.572 L14.596,56.572 L14.596,58 L22.195,58 Z M31.001,58 L31.001,55.977 L28.978,55.977 L28.978,47.205 L27.142,47.205 C26.7566667,47.4316667 26.36,47.6243333 25.952,47.783 C25.544,47.9416667 25.0453333,48.0776667 24.456,48.191 L24.456,48.191 L24.456,49.738 L26.479,49.738 L26.479,55.977 L24.133,55.977 L24.133,58 L31.001,58 Z M36.118,58.204 C36.6393333,58.204 37.1408333,58.119 37.6225,57.949 C38.1041667,57.779 38.5263333,57.5325 38.889,57.2095 C39.2516667,56.8865 39.5406667,56.4926667 39.756,56.028 C39.9713333,55.5633333 40.079,55.0306667 40.079,54.43 C40.079,53.852 39.9883333,53.3533333 39.807,52.934 C39.6256667,52.5146667 39.3763333,52.169 39.059,51.897 C38.7416667,51.625 38.3761667,51.421 37.9625,51.285 C37.5488333,51.149 37.1096667,51.081 36.645,51.081 C36.4183333,51.081 36.2115,51.1008333 36.0245,51.1405 C35.8375,51.1801667 35.642,51.2453333 35.438,51.336 L35.438,51.336 L35.625,49.313 L39.586,49.313 L39.586,47.205 L33.466,47.205 L33.16,52.662 L34.282,53.376 C34.4406667,53.274 34.5851667,53.189 34.7155,53.121 C34.8458333,53.053 34.9705,52.9963333 35.0895,52.951 C35.2085,52.9056667 35.3303333,52.8745 35.455,52.8575 C35.5796667,52.8405 35.7213333,52.832 35.88,52.832 C36.39,52.832 36.8008333,52.9736667 37.1125,53.257 C37.4241667,53.5403333 37.58,53.954 37.58,54.498 C37.58,55.0533333 37.4156667,55.4726667 37.087,55.756 C36.7583333,56.0393333 36.3163333,56.181 35.761,56.181 C35.2963333,56.181 34.8741667,56.0761667 34.4945,55.8665 C34.1148333,55.6568333 33.7606667,55.4046667 33.432,55.11 L33.432,55.11 L32.31,56.691 C32.7406667,57.1216667 33.262,57.4815 33.874,57.7705 C34.486,58.0595 35.234,58.204 36.118,58.204 Z M44.499,58 L44.499,52.305 C45.0203333,51.761 45.4963333,51.489 45.927,51.489 C46.2896667,51.489 46.5531667,51.6023333 46.7175,51.829 C46.8818333,52.0556667 46.964,52.475 46.964,53.087 L46.964,53.087 L46.964,58 L49.463,58 L49.463,52.305 C50.007,51.761 50.4886667,51.489 50.908,51.489 C51.2706667,51.489 51.5341667,51.6023333 51.6985,51.829 C51.8628333,52.0556667 51.945,52.475 51.945,53.087 L51.945,53.087 L51.945,58 L54.444,58 L54.444,52.764 C54.444,51.71 54.2315,50.8798333 53.8065,50.2735 C53.3815,49.6671667 52.7156667,49.364 51.809,49.364 C51.2423333,49.364 50.7521667,49.5028333 50.3385,49.7805 C49.9248333,50.0581667 49.531,50.3896667 49.157,50.775 C48.9416667,50.3216667 48.6498333,49.9731667 48.2815,49.7295 C47.9131667,49.4858333 47.4286667,49.364 46.828,49.364 C46.2726667,49.364 45.7966667,49.4915 45.4,49.7465 C45.0033333,50.0015 44.6293333,50.3046667 44.278,50.656 L44.278,50.656 L44.21,50.656 L44.04,49.568 L42,49.568 L42,58 L44.499,58 Z M59.068,58 L59.068,52.305 C59.5893333,51.761 60.0653333,51.489 60.496,51.489 C60.8586667,51.489 61.1221667,51.6023333 61.2865,51.829 C61.4508333,52.0556667 61.533,52.475 61.533,53.087 L61.533,53.087 L61.533,58 L64.032,58 L64.032,52.305 C64.576,51.761 65.0576667,51.489 65.477,51.489 C65.8396667,51.489 66.1031667,51.6023333 66.2675,51.829 C66.4318333,52.0556667 66.514,52.475 66.514,53.087 L66.514,53.087 L66.514,58 L69.013,58 L69.013,52.764 C69.013,51.71 68.8005,50.8798333 68.3755,50.2735 C67.9505,49.6671667 67.2846667,49.364 66.378,49.364 C65.8113333,49.364 65.3211667,49.5028333 64.9075,49.7805 C64.4938333,50.0581667 64.1,50.3896667 63.726,50.775 C63.5106667,50.3216667 63.2188333,49.9731667 62.8505,49.7295 C62.4821667,49.4858333 61.9976667,49.364 61.397,49.364 C60.8416667,49.364 60.3656667,49.4915 59.969,49.7465 C59.5723333,50.0015 59.1983333,50.3046667 58.847,50.656 L58.847,50.656 L58.779,50.656 L58.609,49.568 L56.569,49.568 L56.569,58 L59.068,58 Z" id="215mm" fill="#093169" fill-rule="nonzero" transform="translate(41.745000, 52.602500) rotate(-270.000000) translate(-41.745000, -52.602500) "></path>
        </g>
        <polyline id="Rectangle-Copy-2" stroke="#CBD8F2" transform="translate(186.500000, 227.500000) rotate(-180.000000) translate(-186.500000, -227.500000) " points="103 235 103 220 270 220 270 235"></polyline>
        <path d="M212.666,52.204 C213.187333,52.204 213.688833,52.119 214.1705,51.949 C214.652167,51.779 215.074333,51.5325 215.437,51.2095 C215.799667,50.8865 216.088667,50.4926667 216.304,50.028 C216.519333,49.5633333 216.627,49.0306667 216.627,48.43 C216.627,47.852 216.536333,47.3533333 216.355,46.934 C216.173667,46.5146667 215.924333,46.169 215.607,45.897 C215.289667,45.625 214.924167,45.421 214.5105,45.285 C214.096833,45.149 213.657667,45.081 213.193,45.081 C212.966333,45.081 212.7595,45.1008333 212.5725,45.1405 C212.3855,45.1801667 212.19,45.2453333 211.986,45.336 L211.986,45.336 L212.173,43.313 L216.134,43.313 L216.134,41.205 L210.014,41.205 L209.708,46.662 L210.83,47.376 C210.988667,47.274 211.133167,47.189 211.2635,47.121 C211.393833,47.053 211.5185,46.9963333 211.6375,46.951 C211.7565,46.9056667 211.878333,46.8745 212.003,46.8575 C212.127667,46.8405 212.269333,46.832 212.428,46.832 C212.938,46.832 213.348833,46.9736667 213.6605,47.257 C213.972167,47.5403333 214.128,47.954 214.128,48.498 C214.128,49.0533333 213.963667,49.4726667 213.635,49.756 C213.306333,50.0393333 212.864333,50.181 212.309,50.181 C211.844333,50.181 211.422167,50.0761667 211.0425,49.8665 C210.662833,49.6568333 210.308667,49.4046667 209.98,49.11 L209.98,49.11 L208.858,50.691 C209.288667,51.1216667 209.81,51.4815 210.422,51.7705 C211.034,52.0595 211.782,52.204 212.666,52.204 Z M221.642,52.204 C222.163333,52.204 222.664833,52.119 223.1465,51.949 C223.628167,51.779 224.050333,51.5325 224.413,51.2095 C224.775667,50.8865 225.064667,50.4926667 225.28,50.028 C225.495333,49.5633333 225.603,49.0306667 225.603,48.43 C225.603,47.852 225.512333,47.3533333 225.331,46.934 C225.149667,46.5146667 224.900333,46.169 224.583,45.897 C224.265667,45.625 223.900167,45.421 223.4865,45.285 C223.072833,45.149 222.633667,45.081 222.169,45.081 C221.942333,45.081 221.7355,45.1008333 221.5485,45.1405 C221.3615,45.1801667 221.166,45.2453333 220.962,45.336 L220.962,45.336 L221.149,43.313 L225.11,43.313 L225.11,41.205 L218.99,41.205 L218.684,46.662 L219.806,47.376 C219.964667,47.274 220.109167,47.189 220.2395,47.121 C220.369833,47.053 220.4945,46.9963333 220.6135,46.951 C220.7325,46.9056667 220.854333,46.8745 220.979,46.8575 C221.103667,46.8405 221.245333,46.832 221.404,46.832 C221.914,46.832 222.324833,46.9736667 222.6365,47.257 C222.948167,47.5403333 223.104,47.954 223.104,48.498 C223.104,49.0533333 222.939667,49.4726667 222.611,49.756 C222.282333,50.0393333 221.840333,50.181 221.285,50.181 C220.820333,50.181 220.398167,50.0761667 220.0185,49.8665 C219.638833,49.6568333 219.284667,49.4046667 218.956,49.11 L218.956,49.11 L217.834,50.691 C218.264667,51.1216667 218.786,51.4815 219.398,51.7705 C220.01,52.0595 220.758,52.204 221.642,52.204 Z M234.647,52 L234.647,49.892 L232.471,49.892 C232.210333,49.892 231.912833,49.9061667 231.5785,49.9345 C231.244167,49.9628333 230.941,49.994 230.669,50.028 C231.111,49.5746667 231.538833,49.1128333 231.9525,48.6425 C232.366167,48.1721667 232.7345,47.7018333 233.0575,47.2315 C233.3805,46.7611667 233.638333,46.2908333 233.831,45.8205 C234.023667,45.3501667 234.12,44.8883333 234.12,44.435 C234.12,43.9136667 234.035,43.4433333 233.865,43.024 C233.695,42.6046667 233.451333,42.2448333 233.134,41.9445 C232.816667,41.6441667 232.439833,41.4118333 232.0035,41.2475 C231.567167,41.0831667 231.082667,41.001 230.55,41.001 C229.779333,41.001 229.116333,41.1455 228.561,41.4345 C228.005667,41.7235 227.461667,42.1513333 226.929,42.718 L226.929,42.718 L228.289,44.061 C228.561,43.7663333 228.85,43.5085 229.156,43.2875 C229.462,43.0665 229.813333,42.956 230.21,42.956 C230.686,42.956 231.06,43.0948333 231.332,43.3725 C231.604,43.6501667 231.74,44.0553333 231.74,44.588 C231.74,44.9733333 231.623833,45.3785 231.3915,45.8035 C231.159167,46.2285 230.836167,46.6875 230.4225,47.1805 C230.008833,47.6735 229.515833,48.2005 228.9435,48.7615 C228.371167,49.3225 227.739333,49.926 227.048,50.572 L227.048,50.572 L227.048,52 L234.647,52 Z M238.999,52 L238.999,46.305 C239.520333,45.761 239.996333,45.489 240.427,45.489 C240.789667,45.489 241.053167,45.6023333 241.2175,45.829 C241.381833,46.0556667 241.464,46.475 241.464,47.087 L241.464,47.087 L241.464,52 L243.963,52 L243.963,46.305 C244.507,45.761 244.988667,45.489 245.408,45.489 C245.770667,45.489 246.034167,45.6023333 246.1985,45.829 C246.362833,46.0556667 246.445,46.475 246.445,47.087 L246.445,47.087 L246.445,52 L248.944,52 L248.944,46.764 C248.944,45.71 248.7315,44.8798333 248.3065,44.2735 C247.8815,43.6671667 247.215667,43.364 246.309,43.364 C245.742333,43.364 245.252167,43.5028333 244.8385,43.7805 C244.424833,44.0581667 244.031,44.3896667 243.657,44.775 C243.441667,44.3216667 243.149833,43.9731667 242.7815,43.7295 C242.413167,43.4858333 241.928667,43.364 241.328,43.364 C240.772667,43.364 240.296667,43.4915 239.9,43.7465 C239.503333,44.0015 239.129333,44.3046667 238.778,44.656 L238.778,44.656 L238.71,44.656 L238.54,43.568 L236.5,43.568 L236.5,52 L238.999,52 Z M253.568,52 L253.568,46.305 C254.089333,45.761 254.565333,45.489 254.996,45.489 C255.358667,45.489 255.622167,45.6023333 255.7865,45.829 C255.950833,46.0556667 256.033,46.475 256.033,47.087 L256.033,47.087 L256.033,52 L258.532,52 L258.532,46.305 C259.076,45.761 259.557667,45.489 259.977,45.489 C260.339667,45.489 260.603167,45.6023333 260.7675,45.829 C260.931833,46.0556667 261.014,46.475 261.014,47.087 L261.014,47.087 L261.014,52 L263.513,52 L263.513,46.764 C263.513,45.71 263.3005,44.8798333 262.8755,44.2735 C262.4505,43.6671667 261.784667,43.364 260.878,43.364 C260.311333,43.364 259.821167,43.5028333 259.4075,43.7805 C258.993833,44.0581667 258.6,44.3896667 258.226,44.775 C258.010667,44.3216667 257.718833,43.9731667 257.3505,43.7295 C256.982167,43.4858333 256.497667,43.364 255.897,43.364 C255.341667,43.364 254.865667,43.4915 254.469,43.7465 C254.072333,44.0015 253.698333,44.3046667 253.347,44.656 L253.347,44.656 L253.279,44.656 L253.109,43.568 L251.069,43.568 L251.069,52 L253.568,52 Z" id="552mm" fill="#093169" fill-rule="nonzero"></path>
        <path d="M162.598,267.204 C163.142,267.204 163.657667,267.133167 164.145,266.9915 C164.632333,266.849833 165.057333,266.645833 165.42,266.3795 C165.782667,266.113167 166.071667,265.7845 166.287,265.3935 C166.502333,265.0025 166.61,264.557667 166.61,264.059 C166.61,263.356333 166.408833,262.786833 166.0065,262.3505 C165.604167,261.914167 165.091333,261.605333 164.468,261.424 L164.468,261.424 L164.468,261.356 C165.046,261.106667 165.490833,260.7865 165.8025,260.3955 C166.114167,260.0045 166.27,259.525667 166.27,258.959 C166.27,258.483 166.179333,258.063667 165.998,257.701 C165.816667,257.338333 165.5645,257.0295 165.2415,256.7745 C164.9185,256.5195 164.5275,256.326833 164.0685,256.1965 C163.6095,256.066167 163.102333,256.001 162.547,256.001 C161.878333,256.001 161.269167,256.122833 160.7195,256.3665 C160.169833,256.610167 159.645667,256.947333 159.147,257.378 L159.147,257.378 L160.405,258.908 C160.745,258.613333 161.070833,258.381 161.3825,258.211 C161.694167,258.041 162.042667,257.956 162.428,257.956 C162.858667,257.956 163.187333,258.060833 163.414,258.2705 C163.640667,258.480167 163.754,258.772 163.754,259.146 C163.754,259.361333 163.7115,259.556833 163.6265,259.7325 C163.5415,259.908167 163.399833,260.061167 163.2015,260.1915 C163.003167,260.321833 162.7425,260.421 162.4195,260.489 C162.0965,260.557 161.691333,260.591 161.204,260.591 L161.204,260.591 L161.204,262.359 C161.793333,262.359 162.275,262.395833 162.649,262.4695 C163.023,262.543167 163.317667,262.645167 163.533,262.7755 C163.748333,262.905833 163.8985,263.067333 163.9835,263.26 C164.0685,263.452667 164.111,263.668 164.111,263.906 C164.111,264.314 163.952333,264.6285 163.635,264.8495 C163.317667,265.0705 162.892667,265.181 162.36,265.181 C161.895333,265.181 161.4675,265.079 161.0765,264.875 C160.6855,264.671 160.325667,264.410333 159.997,264.093 L159.997,264.093 L158.841,265.674 C159.237667,266.138667 159.742,266.509833 160.354,266.7875 C160.966,267.065167 161.714,267.204 162.598,267.204 Z M174.77,267 L174.77,264.416 L176.011,264.416 L176.011,262.512 L174.77,262.512 L174.77,256.205 L171.71,256.205 L167.766,262.699 L167.766,264.416 L172.441,264.416 L172.441,267 L174.77,267 Z M172.441,262.512 L170.163,262.512 L171.591,260.166 C171.749667,259.86 171.902667,259.554 172.05,259.248 C172.197333,258.942 172.339,258.641667 172.475,258.347 L172.475,258.347 L172.543,258.347 C172.520333,258.687 172.497667,259.0865 172.475,259.5455 C172.452333,260.0045 172.441,260.409667 172.441,260.761 L172.441,260.761 L172.441,262.512 Z M180.907,267.204 C181.485,267.204 182.012,267.082167 182.488,266.8385 C182.964,266.594833 183.369167,266.235 183.7035,265.759 C184.037833,265.283 184.2985,264.693667 184.4855,263.991 C184.6725,263.288333 184.766,262.478 184.766,261.56 C184.766,260.642 184.6725,259.837333 184.4855,259.146 C184.2985,258.454667 184.037833,257.873833 183.7035,257.4035 C183.369167,256.933167 182.964,256.581833 182.488,256.3495 C182.012,256.117167 181.485,256.001 180.907,256.001 C180.329,256.001 179.802,256.117167 179.326,256.3495 C178.85,256.581833 178.444833,256.933167 178.1105,257.4035 C177.776167,257.873833 177.5155,258.454667 177.3285,259.146 C177.1415,259.837333 177.048,260.642 177.048,261.56 C177.048,262.478 177.1415,263.288333 177.3285,263.991 C177.5155,264.693667 177.776167,265.283 178.1105,265.759 C178.444833,266.235 178.85,266.594833 179.326,266.8385 C179.802,267.082167 180.329,267.204 180.907,267.204 Z M180.907,265.266 C180.703,265.266 180.510333,265.212167 180.329,265.1045 C180.147667,264.996833 179.989,264.801333 179.853,264.518 C179.717,264.234667 179.609333,263.855 179.53,263.379 C179.450667,262.903 179.411,262.296667 179.411,261.56 C179.411,260.823333 179.450667,260.219833 179.53,259.7495 C179.609333,259.279167 179.717,258.910833 179.853,258.6445 C179.989,258.378167 180.147667,258.194 180.329,258.092 C180.510333,257.99 180.703,257.939 180.907,257.939 C181.122333,257.939 181.320667,257.99 181.502,258.092 C181.683333,258.194 181.842,258.378167 181.978,258.6445 C182.114,258.910833 182.218833,259.279167 182.2925,259.7495 C182.366167,260.219833 182.403,260.823333 182.403,261.56 C182.403,262.296667 182.366167,262.903 182.2925,263.379 C182.218833,263.855 182.114,264.234667 181.978,264.518 C181.842,264.801333 181.683333,264.996833 181.502,265.1045 C181.320667,265.212167 181.122333,265.266 180.907,265.266 Z M188.999,267 L188.999,261.305 C189.520333,260.761 189.996333,260.489 190.427,260.489 C190.789667,260.489 191.053167,260.602333 191.2175,260.829 C191.381833,261.055667 191.464,261.475 191.464,262.087 L191.464,262.087 L191.464,267 L193.963,267 L193.963,261.305 C194.507,260.761 194.988667,260.489 195.408,260.489 C195.770667,260.489 196.034167,260.602333 196.1985,260.829 C196.362833,261.055667 196.445,261.475 196.445,262.087 L196.445,262.087 L196.445,267 L198.944,267 L198.944,261.764 C198.944,260.71 198.7315,259.879833 198.3065,259.2735 C197.8815,258.667167 197.215667,258.364 196.309,258.364 C195.742333,258.364 195.252167,258.502833 194.8385,258.7805 C194.424833,259.058167 194.031,259.389667 193.657,259.775 C193.441667,259.321667 193.149833,258.973167 192.7815,258.7295 C192.413167,258.485833 191.928667,258.364 191.328,258.364 C190.772667,258.364 190.296667,258.4915 189.9,258.7465 C189.503333,259.0015 189.129333,259.304667 188.778,259.656 L188.778,259.656 L188.71,259.656 L188.54,258.568 L186.5,258.568 L186.5,267 L188.999,267 Z M203.568,267 L203.568,261.305 C204.089333,260.761 204.565333,260.489 204.996,260.489 C205.358667,260.489 205.622167,260.602333 205.7865,260.829 C205.950833,261.055667 206.033,261.475 206.033,262.087 L206.033,262.087 L206.033,267 L208.532,267 L208.532,261.305 C209.076,260.761 209.557667,260.489 209.977,260.489 C210.339667,260.489 210.603167,260.602333 210.7675,260.829 C210.931833,261.055667 211.014,261.475 211.014,262.087 L211.014,262.087 L211.014,267 L213.513,267 L213.513,261.764 C213.513,260.71 213.3005,259.879833 212.8755,259.2735 C212.4505,258.667167 211.784667,258.364 210.878,258.364 C210.311333,258.364 209.821167,258.502833 209.4075,258.7805 C208.993833,259.058167 208.6,259.389667 208.226,259.775 C208.010667,259.321667 207.718833,258.973167 207.3505,258.7295 C206.982167,258.485833 206.497667,258.364 205.897,258.364 C205.341667,258.364 204.865667,258.4915 204.469,258.7465 C204.072333,259.0015 203.698333,259.304667 203.347,259.656 L203.347,259.656 L203.279,259.656 L203.109,258.568 L201.069,258.568 L201.069,267 L203.568,267 Z" id="340mm" fill="#093169" fill-rule="nonzero"></path>
    </g>
</svg>