<?xml version="1.0" encoding="UTF-8"?>
<svg width="600px" height="313px" viewBox="0 0 600 313" version="1.1" xmlns="http://www.w3.org/2000/svg" xmlns:xlink="http://www.w3.org/1999/xlink">
    <title>corbels/A130R-top</title>
    <g id="corbels/A130R-top" stroke="none" stroke-width="1" fill="none" fill-rule="evenodd">
        <rect fill="#F5F9FF" x="0" y="0" width="600" height="313"></rect>
        <g id="Group" transform="translate(168.000000, 105.000000)" stroke="#CBD8F2">
            <path d="M264,103.5 L0,103.5 L0,49.5 L109,49.5 L109,0.5 L264,0.5 L264,103.5 Z" id="Combined-Shape" fill="#FFFFFF"></path>
            <line x1="162" y1="0.5" x2="162" y2="103.5" id="Line" stroke-dasharray="6"></line>
            <line x1="255" y1="0.5" x2="255" y2="103.5" id="Line" stroke-dasharray="6"></line>
        </g>
        <polyline id="Rectangle-Copy-2" stroke="#CBD8F2" transform="translate(299.500000, 230.500000) rotate(-180.000000) translate(-299.500000, -230.500000) " points="167.5 238 167.5 223 431.5 223 431.5 238"></polyline>
        <polyline id="Rectangle-Copy-2" stroke="#CBD8F2" transform="translate(354.000000, 82.500000) rotate(-360.000000) translate(-354.000000, -82.500000) " points="276.5 90 276.5 75 431.5 75 431.5 90"></polyline>
        <polyline id="Rectangle-Copy-2" stroke="#CBD8F2" transform="translate(222.000000, 82.500000) rotate(-360.000000) translate(-222.000000, -82.500000) " points="167.5 90 167.5 75 276.5 75 276.5 90"></polyline>
        <path d="M276.166,270.204 C276.687333,270.204 277.188833,270.119 277.6705,269.949 C278.152167,269.779 278.574333,269.5325 278.937,269.2095 C279.299667,268.8865 279.588667,268.492667 279.804,268.028 C280.019333,267.563333 280.127,267.030667 280.127,266.43 C280.127,265.852 280.036333,265.353333 279.855,264.934 C279.673667,264.514667 279.424333,264.169 279.107,263.897 C278.789667,263.625 278.424167,263.421 278.0105,263.285 C277.596833,263.149 277.157667,263.081 276.693,263.081 C276.466333,263.081 276.2595,263.100833 276.0725,263.1405 C275.8855,263.180167 275.69,263.245333 275.486,263.336 L275.486,263.336 L275.673,261.313 L279.634,261.313 L279.634,259.205 L273.514,259.205 L273.208,264.662 L274.33,265.376 C274.488667,265.274 274.633167,265.189 274.7635,265.121 C274.893833,265.053 275.0185,264.996333 275.1375,264.951 C275.2565,264.905667 275.378333,264.8745 275.503,264.8575 C275.627667,264.8405 275.769333,264.832 275.928,264.832 C276.438,264.832 276.848833,264.973667 277.1605,265.257 C277.472167,265.540333 277.628,265.954 277.628,266.498 C277.628,267.053333 277.463667,267.472667 277.135,267.756 C276.806333,268.039333 276.364333,268.181 275.809,268.181 C275.344333,268.181 274.922167,268.076167 274.5425,267.8665 C274.162833,267.656833 273.808667,267.404667 273.48,267.11 L273.48,267.11 L272.358,268.691 C272.788667,269.121667 273.31,269.4815 273.922,269.7705 C274.534,270.0595 275.282,270.204 276.166,270.204 Z M285.142,270.204 C285.663333,270.204 286.164833,270.119 286.6465,269.949 C287.128167,269.779 287.550333,269.5325 287.913,269.2095 C288.275667,268.8865 288.564667,268.492667 288.78,268.028 C288.995333,267.563333 289.103,267.030667 289.103,266.43 C289.103,265.852 289.012333,265.353333 288.831,264.934 C288.649667,264.514667 288.400333,264.169 288.083,263.897 C287.765667,263.625 287.400167,263.421 286.9865,263.285 C286.572833,263.149 286.133667,263.081 285.669,263.081 C285.442333,263.081 285.2355,263.100833 285.0485,263.1405 C284.8615,263.180167 284.666,263.245333 284.462,263.336 L284.462,263.336 L284.649,261.313 L288.61,261.313 L288.61,259.205 L282.49,259.205 L282.184,264.662 L283.306,265.376 C283.464667,265.274 283.609167,265.189 283.7395,265.121 C283.869833,265.053 283.9945,264.996333 284.1135,264.951 C284.2325,264.905667 284.354333,264.8745 284.479,264.8575 C284.603667,264.8405 284.745333,264.832 284.904,264.832 C285.414,264.832 285.824833,264.973667 286.1365,265.257 C286.448167,265.540333 286.604,265.954 286.604,266.498 C286.604,267.053333 286.439667,267.472667 286.111,267.756 C285.782333,268.039333 285.340333,268.181 284.785,268.181 C284.320333,268.181 283.898167,268.076167 283.5185,267.8665 C283.138833,267.656833 282.784667,267.404667 282.456,267.11 L282.456,267.11 L281.334,268.691 C281.764667,269.121667 282.286,269.4815 282.898,269.7705 C283.51,270.0595 284.258,270.204 285.142,270.204 Z M298.147,270 L298.147,267.892 L295.971,267.892 C295.710333,267.892 295.412833,267.906167 295.0785,267.9345 C294.744167,267.962833 294.441,267.994 294.169,268.028 C294.611,267.574667 295.038833,267.112833 295.4525,266.6425 C295.866167,266.172167 296.2345,265.701833 296.5575,265.2315 C296.8805,264.761167 297.138333,264.290833 297.331,263.8205 C297.523667,263.350167 297.62,262.888333 297.62,262.435 C297.62,261.913667 297.535,261.443333 297.365,261.024 C297.195,260.604667 296.951333,260.244833 296.634,259.9445 C296.316667,259.644167 295.939833,259.411833 295.5035,259.2475 C295.067167,259.083167 294.582667,259.001 294.05,259.001 C293.279333,259.001 292.616333,259.1455 292.061,259.4345 C291.505667,259.7235 290.961667,260.151333 290.429,260.718 L290.429,260.718 L291.789,262.061 C292.061,261.766333 292.35,261.5085 292.656,261.2875 C292.962,261.0665 293.313333,260.956 293.71,260.956 C294.186,260.956 294.56,261.094833 294.832,261.3725 C295.104,261.650167 295.24,262.055333 295.24,262.588 C295.24,262.973333 295.123833,263.3785 294.8915,263.8035 C294.659167,264.2285 294.336167,264.6875 293.9225,265.1805 C293.508833,265.6735 293.015833,266.2005 292.4435,266.7615 C291.871167,267.3225 291.239333,267.926 290.548,268.572 L290.548,268.572 L290.548,270 L298.147,270 Z M302.499,270 L302.499,264.305 C303.020333,263.761 303.496333,263.489 303.927,263.489 C304.289667,263.489 304.553167,263.602333 304.7175,263.829 C304.881833,264.055667 304.964,264.475 304.964,265.087 L304.964,265.087 L304.964,270 L307.463,270 L307.463,264.305 C308.007,263.761 308.488667,263.489 308.908,263.489 C309.270667,263.489 309.534167,263.602333 309.6985,263.829 C309.862833,264.055667 309.945,264.475 309.945,265.087 L309.945,265.087 L309.945,270 L312.444,270 L312.444,264.764 C312.444,263.71 312.2315,262.879833 311.8065,262.2735 C311.3815,261.667167 310.715667,261.364 309.809,261.364 C309.242333,261.364 308.752167,261.502833 308.3385,261.7805 C307.924833,262.058167 307.531,262.389667 307.157,262.775 C306.941667,262.321667 306.649833,261.973167 306.2815,261.7295 C305.913167,261.485833 305.428667,261.364 304.828,261.364 C304.272667,261.364 303.796667,261.4915 303.4,261.7465 C303.003333,262.0015 302.629333,262.304667 302.278,262.656 L302.278,262.656 L302.21,262.656 L302.04,261.568 L300,261.568 L300,270 L302.499,270 Z M317.068,270 L317.068,264.305 C317.589333,263.761 318.065333,263.489 318.496,263.489 C318.858667,263.489 319.122167,263.602333 319.2865,263.829 C319.450833,264.055667 319.533,264.475 319.533,265.087 L319.533,265.087 L319.533,270 L322.032,270 L322.032,264.305 C322.576,263.761 323.057667,263.489 323.477,263.489 C323.839667,263.489 324.103167,263.602333 324.2675,263.829 C324.431833,264.055667 324.514,264.475 324.514,265.087 L324.514,265.087 L324.514,270 L327.013,270 L327.013,264.764 C327.013,263.71 326.8005,262.879833 326.3755,262.2735 C325.9505,261.667167 325.284667,261.364 324.378,261.364 C323.811333,261.364 323.321167,261.502833 322.9075,261.7805 C322.493833,262.058167 322.1,262.389667 321.726,262.775 C321.510667,262.321667 321.218833,261.973167 320.8505,261.7295 C320.482167,261.485833 319.997667,261.364 319.397,261.364 C318.841667,261.364 318.365667,261.4915 317.969,261.7465 C317.572333,262.0015 317.198333,262.304667 316.847,262.656 L316.847,262.656 L316.779,262.656 L316.609,261.568 L314.569,261.568 L314.569,270 L317.068,270 Z" id="552mm" fill="#093169" fill-rule="nonzero"></path>
        <path d="M202.195,55 L202.195,52.892 L200.019,52.892 C199.758333,52.892 199.460833,52.9061667 199.1265,52.9345 C198.792167,52.9628333 198.489,52.994 198.217,53.028 C198.659,52.5746667 199.086833,52.1128333 199.5005,51.6425 C199.914167,51.1721667 200.2825,50.7018333 200.6055,50.2315 C200.9285,49.7611667 201.186333,49.2908333 201.379,48.8205 C201.571667,48.3501667 201.668,47.8883333 201.668,47.435 C201.668,46.9136667 201.583,46.4433333 201.413,46.024 C201.243,45.6046667 200.999333,45.2448333 200.682,44.9445 C200.364667,44.6441667 199.987833,44.4118333 199.5515,44.2475 C199.115167,44.0831667 198.630667,44.001 198.098,44.001 C197.327333,44.001 196.664333,44.1455 196.109,44.4345 C195.553667,44.7235 195.009667,45.1513333 194.477,45.718 L194.477,45.718 L195.837,47.061 C196.109,46.7663333 196.398,46.5085 196.704,46.2875 C197.01,46.0665 197.361333,45.956 197.758,45.956 C198.234,45.956 198.608,46.0948333 198.88,46.3725 C199.152,46.6501667 199.288,47.0553333 199.288,47.588 C199.288,47.9733333 199.171833,48.3785 198.9395,48.8035 C198.707167,49.2285 198.384167,49.6875 197.9705,50.1805 C197.556833,50.6735 197.063833,51.2005 196.4915,51.7615 C195.919167,52.3225 195.287333,52.926 194.596,53.572 L194.596,53.572 L194.596,55 L202.195,55 Z M210.27,55 L210.27,52.416 L211.511,52.416 L211.511,50.512 L210.27,50.512 L210.27,44.205 L207.21,44.205 L203.266,50.699 L203.266,52.416 L207.941,52.416 L207.941,55 L210.27,55 Z M207.941,50.512 L205.663,50.512 L207.091,48.166 C207.249667,47.86 207.402667,47.554 207.55,47.248 C207.697333,46.942 207.839,46.6416667 207.975,46.347 L207.975,46.347 L208.043,46.347 C208.020333,46.687 207.997667,47.0865 207.975,47.5455 C207.952333,48.0045 207.941,48.4096667 207.941,48.761 L207.941,48.761 L207.941,50.512 Z M216.407,55.204 C216.985,55.204 217.512,55.0821667 217.988,54.8385 C218.464,54.5948333 218.869167,54.235 219.2035,53.759 C219.537833,53.283 219.7985,52.6936667 219.9855,51.991 C220.1725,51.2883333 220.266,50.478 220.266,49.56 C220.266,48.642 220.1725,47.8373333 219.9855,47.146 C219.7985,46.4546667 219.537833,45.8738333 219.2035,45.4035 C218.869167,44.9331667 218.464,44.5818333 217.988,44.3495 C217.512,44.1171667 216.985,44.001 216.407,44.001 C215.829,44.001 215.302,44.1171667 214.826,44.3495 C214.35,44.5818333 213.944833,44.9331667 213.6105,45.4035 C213.276167,45.8738333 213.0155,46.4546667 212.8285,47.146 C212.6415,47.8373333 212.548,48.642 212.548,49.56 C212.548,50.478 212.6415,51.2883333 212.8285,51.991 C213.0155,52.6936667 213.276167,53.283 213.6105,53.759 C213.944833,54.235 214.35,54.5948333 214.826,54.8385 C215.302,55.0821667 215.829,55.204 216.407,55.204 Z M216.407,53.266 C216.203,53.266 216.010333,53.2121667 215.829,53.1045 C215.647667,52.9968333 215.489,52.8013333 215.353,52.518 C215.217,52.2346667 215.109333,51.855 215.03,51.379 C214.950667,50.903 214.911,50.2966667 214.911,49.56 C214.911,48.8233333 214.950667,48.2198333 215.03,47.7495 C215.109333,47.2791667 215.217,46.9108333 215.353,46.6445 C215.489,46.3781667 215.647667,46.194 215.829,46.092 C216.010333,45.99 216.203,45.939 216.407,45.939 C216.622333,45.939 216.820667,45.99 217.002,46.092 C217.183333,46.194 217.342,46.3781667 217.478,46.6445 C217.614,46.9108333 217.718833,47.2791667 217.7925,47.7495 C217.866167,48.2198333 217.903,48.8233333 217.903,49.56 C217.903,50.2966667 217.866167,50.903 217.7925,51.379 C217.718833,51.855 217.614,52.2346667 217.478,52.518 C217.342,52.8013333 217.183333,52.9968333 217.002,53.1045 C216.820667,53.2121667 216.622333,53.266 216.407,53.266 Z M224.499,55 L224.499,49.305 C225.020333,48.761 225.496333,48.489 225.927,48.489 C226.289667,48.489 226.553167,48.6023333 226.7175,48.829 C226.881833,49.0556667 226.964,49.475 226.964,50.087 L226.964,50.087 L226.964,55 L229.463,55 L229.463,49.305 C230.007,48.761 230.488667,48.489 230.908,48.489 C231.270667,48.489 231.534167,48.6023333 231.6985,48.829 C231.862833,49.0556667 231.945,49.475 231.945,50.087 L231.945,50.087 L231.945,55 L234.444,55 L234.444,49.764 C234.444,48.71 234.2315,47.8798333 233.8065,47.2735 C233.3815,46.6671667 232.715667,46.364 231.809,46.364 C231.242333,46.364 230.752167,46.5028333 230.3385,46.7805 C229.924833,47.0581667 229.531,47.3896667 229.157,47.775 C228.941667,47.3216667 228.649833,46.9731667 228.2815,46.7295 C227.913167,46.4858333 227.428667,46.364 226.828,46.364 C226.272667,46.364 225.796667,46.4915 225.4,46.7465 C225.003333,47.0015 224.629333,47.3046667 224.278,47.656 L224.278,47.656 L224.21,47.656 L224.04,46.568 L222,46.568 L222,55 L224.499,55 Z M239.068,55 L239.068,49.305 C239.589333,48.761 240.065333,48.489 240.496,48.489 C240.858667,48.489 241.122167,48.6023333 241.2865,48.829 C241.450833,49.0556667 241.533,49.475 241.533,50.087 L241.533,50.087 L241.533,55 L244.032,55 L244.032,49.305 C244.576,48.761 245.057667,48.489 245.477,48.489 C245.839667,48.489 246.103167,48.6023333 246.2675,48.829 C246.431833,49.0556667 246.514,49.475 246.514,50.087 L246.514,50.087 L246.514,55 L249.013,55 L249.013,49.764 C249.013,48.71 248.8005,47.8798333 248.3755,47.2735 C247.9505,46.6671667 247.284667,46.364 246.378,46.364 C245.811333,46.364 245.321167,46.5028333 244.9075,46.7805 C244.493833,47.0581667 244.1,47.3896667 243.726,47.775 C243.510667,47.3216667 243.218833,46.9731667 242.8505,46.7295 C242.482167,46.4858333 241.997667,46.364 241.397,46.364 C240.841667,46.364 240.365667,46.4915 239.969,46.7465 C239.572333,47.0015 239.198333,47.3046667 238.847,47.656 L238.847,47.656 L238.779,47.656 L238.609,46.568 L236.569,46.568 L236.569,55 L239.068,55 Z" id="240mm" fill="#093169" fill-rule="nonzero"></path>
        <path d="M330.098,55.204 C330.642,55.204 331.157667,55.1331667 331.645,54.9915 C332.132333,54.8498333 332.557333,54.6458333 332.92,54.3795 C333.282667,54.1131667 333.571667,53.7845 333.787,53.3935 C334.002333,53.0025 334.11,52.5576667 334.11,52.059 C334.11,51.3563333 333.908833,50.7868333 333.5065,50.3505 C333.104167,49.9141667 332.591333,49.6053333 331.968,49.424 L331.968,49.424 L331.968,49.356 C332.546,49.1066667 332.990833,48.7865 333.3025,48.3955 C333.614167,48.0045 333.77,47.5256667 333.77,46.959 C333.77,46.483 333.679333,46.0636667 333.498,45.701 C333.316667,45.3383333 333.0645,45.0295 332.7415,44.7745 C332.4185,44.5195 332.0275,44.3268333 331.5685,44.1965 C331.1095,44.0661667 330.602333,44.001 330.047,44.001 C329.378333,44.001 328.769167,44.1228333 328.2195,44.3665 C327.669833,44.6101667 327.145667,44.9473333 326.647,45.378 L326.647,45.378 L327.905,46.908 C328.245,46.6133333 328.570833,46.381 328.8825,46.211 C329.194167,46.041 329.542667,45.956 329.928,45.956 C330.358667,45.956 330.687333,46.0608333 330.914,46.2705 C331.140667,46.4801667 331.254,46.772 331.254,47.146 C331.254,47.3613333 331.2115,47.5568333 331.1265,47.7325 C331.0415,47.9081667 330.899833,48.0611667 330.7015,48.1915 C330.503167,48.3218333 330.2425,48.421 329.9195,48.489 C329.5965,48.557 329.191333,48.591 328.704,48.591 L328.704,48.591 L328.704,50.359 C329.293333,50.359 329.775,50.3958333 330.149,50.4695 C330.523,50.5431667 330.817667,50.6451667 331.033,50.7755 C331.248333,50.9058333 331.3985,51.0673333 331.4835,51.26 C331.5685,51.4526667 331.611,51.668 331.611,51.906 C331.611,52.314 331.452333,52.6285 331.135,52.8495 C330.817667,53.0705 330.392667,53.181 329.86,53.181 C329.395333,53.181 328.9675,53.079 328.5765,52.875 C328.1855,52.671 327.825667,52.4103333 327.497,52.093 L327.497,52.093 L326.341,53.674 C326.737667,54.1386667 327.242,54.5098333 327.854,54.7875 C328.466,55.0651667 329.214,55.204 330.098,55.204 Z M343.171,55 L343.171,52.892 L340.995,52.892 C340.734333,52.892 340.436833,52.9061667 340.1025,52.9345 C339.768167,52.9628333 339.465,52.994 339.193,53.028 C339.635,52.5746667 340.062833,52.1128333 340.4765,51.6425 C340.890167,51.1721667 341.2585,50.7018333 341.5815,50.2315 C341.9045,49.7611667 342.162333,49.2908333 342.355,48.8205 C342.547667,48.3501667 342.644,47.8883333 342.644,47.435 C342.644,46.9136667 342.559,46.4433333 342.389,46.024 C342.219,45.6046667 341.975333,45.2448333 341.658,44.9445 C341.340667,44.6441667 340.963833,44.4118333 340.5275,44.2475 C340.091167,44.0831667 339.606667,44.001 339.074,44.001 C338.303333,44.001 337.640333,44.1455 337.085,44.4345 C336.529667,44.7235 335.985667,45.1513333 335.453,45.718 L335.453,45.718 L336.813,47.061 C337.085,46.7663333 337.374,46.5085 337.68,46.2875 C337.986,46.0665 338.337333,45.956 338.734,45.956 C339.21,45.956 339.584,46.0948333 339.856,46.3725 C340.128,46.6501667 340.264,47.0553333 340.264,47.588 C340.264,47.9733333 340.147833,48.3785 339.9155,48.8035 C339.683167,49.2285 339.360167,49.6875 338.9465,50.1805 C338.532833,50.6735 338.039833,51.2005 337.4675,51.7615 C336.895167,52.3225 336.263333,52.926 335.572,53.572 L335.572,53.572 L335.572,55 L343.171,55 Z M348.05,55.204 C348.594,55.204 349.109667,55.1331667 349.597,54.9915 C350.084333,54.8498333 350.509333,54.6458333 350.872,54.3795 C351.234667,54.1131667 351.523667,53.7845 351.739,53.3935 C351.954333,53.0025 352.062,52.5576667 352.062,52.059 C352.062,51.3563333 351.860833,50.7868333 351.4585,50.3505 C351.056167,49.9141667 350.543333,49.6053333 349.92,49.424 L349.92,49.424 L349.92,49.356 C350.498,49.1066667 350.942833,48.7865 351.2545,48.3955 C351.566167,48.0045 351.722,47.5256667 351.722,46.959 C351.722,46.483 351.631333,46.0636667 351.45,45.701 C351.268667,45.3383333 351.0165,45.0295 350.6935,44.7745 C350.3705,44.5195 349.9795,44.3268333 349.5205,44.1965 C349.0615,44.0661667 348.554333,44.001 347.999,44.001 C347.330333,44.001 346.721167,44.1228333 346.1715,44.3665 C345.621833,44.6101667 345.097667,44.9473333 344.599,45.378 L344.599,45.378 L345.857,46.908 C346.197,46.6133333 346.522833,46.381 346.8345,46.211 C347.146167,46.041 347.494667,45.956 347.88,45.956 C348.310667,45.956 348.639333,46.0608333 348.866,46.2705 C349.092667,46.4801667 349.206,46.772 349.206,47.146 C349.206,47.3613333 349.1635,47.5568333 349.0785,47.7325 C348.9935,47.9081667 348.851833,48.0611667 348.6535,48.1915 C348.455167,48.3218333 348.1945,48.421 347.8715,48.489 C347.5485,48.557 347.143333,48.591 346.656,48.591 L346.656,48.591 L346.656,50.359 C347.245333,50.359 347.727,50.3958333 348.101,50.4695 C348.475,50.5431667 348.769667,50.6451667 348.985,50.7755 C349.200333,50.9058333 349.3505,51.0673333 349.4355,51.26 C349.5205,51.4526667 349.563,51.668 349.563,51.906 C349.563,52.314 349.404333,52.6285 349.087,52.8495 C348.769667,53.0705 348.344667,53.181 347.812,53.181 C347.347333,53.181 346.9195,53.079 346.5285,52.875 C346.1375,52.671 345.777667,52.4103333 345.449,52.093 L345.449,52.093 L344.293,53.674 C344.689667,54.1386667 345.194,54.5098333 345.806,54.7875 C346.418,55.0651667 347.166,55.204 348.05,55.204 Z M356.499,55 L356.499,49.305 C357.020333,48.761 357.496333,48.489 357.927,48.489 C358.289667,48.489 358.553167,48.6023333 358.7175,48.829 C358.881833,49.0556667 358.964,49.475 358.964,50.087 L358.964,50.087 L358.964,55 L361.463,55 L361.463,49.305 C362.007,48.761 362.488667,48.489 362.908,48.489 C363.270667,48.489 363.534167,48.6023333 363.6985,48.829 C363.862833,49.0556667 363.945,49.475 363.945,50.087 L363.945,50.087 L363.945,55 L366.444,55 L366.444,49.764 C366.444,48.71 366.2315,47.8798333 365.8065,47.2735 C365.3815,46.6671667 364.715667,46.364 363.809,46.364 C363.242333,46.364 362.752167,46.5028333 362.3385,46.7805 C361.924833,47.0581667 361.531,47.3896667 361.157,47.775 C360.941667,47.3216667 360.649833,46.9731667 360.2815,46.7295 C359.913167,46.4858333 359.428667,46.364 358.828,46.364 C358.272667,46.364 357.796667,46.4915 357.4,46.7465 C357.003333,47.0015 356.629333,47.3046667 356.278,47.656 L356.278,47.656 L356.21,47.656 L356.04,46.568 L354,46.568 L354,55 L356.499,55 Z M371.068,55 L371.068,49.305 C371.589333,48.761 372.065333,48.489 372.496,48.489 C372.858667,48.489 373.122167,48.6023333 373.2865,48.829 C373.450833,49.0556667 373.533,49.475 373.533,50.087 L373.533,50.087 L373.533,55 L376.032,55 L376.032,49.305 C376.576,48.761 377.057667,48.489 377.477,48.489 C377.839667,48.489 378.103167,48.6023333 378.2675,48.829 C378.431833,49.0556667 378.514,49.475 378.514,50.087 L378.514,50.087 L378.514,55 L381.013,55 L381.013,49.764 C381.013,48.71 380.8005,47.8798333 380.3755,47.2735 C379.9505,46.6671667 379.284667,46.364 378.378,46.364 C377.811333,46.364 377.321167,46.5028333 376.9075,46.7805 C376.493833,47.0581667 376.1,47.3896667 375.726,47.775 C375.510667,47.3216667 375.218833,46.9731667 374.8505,46.7295 C374.482167,46.4858333 373.997667,46.364 373.397,46.364 C372.841667,46.364 372.365667,46.4915 371.969,46.7465 C371.572333,47.0015 371.198333,47.3046667 370.847,47.656 L370.847,47.656 L370.779,47.656 L370.609,46.568 L368.569,46.568 L368.569,55 L371.068,55 Z" id="323mm" fill="#093169" fill-rule="nonzero"></path>
        <polyline id="Rectangle-Copy-2" stroke="#CBD8F2" transform="translate(145.500000, 181.500000) rotate(-810.000000) translate(-145.500000, -181.500000) " points="118.5 189 118.5 174 172.5 174 172.5 189"></polyline>
        <polyline id="Rectangle-Copy-2" stroke="#CBD8F2" transform="translate(119.500000, 130.500000) scale(-1, 1) rotate(810.000000) translate(-119.500000, -130.500000) " points="95.5 164 95.5 97 143.5 97 143.5 164"></polyline>
        <path d="M92.025,189 L92.025,186.977 L90.002,186.977 L90.002,178.205 L88.166,178.205 C87.7806667,178.431667 87.384,178.624333 86.976,178.783 C86.568,178.941667 86.0693333,179.077667 85.48,179.191 L85.48,179.191 L85.48,180.738 L87.503,180.738 L87.503,186.977 L85.157,186.977 L85.157,189 L92.025,189 Z M101.001,189 L101.001,186.977 L98.978,186.977 L98.978,178.205 L97.142,178.205 C96.7566667,178.431667 96.36,178.624333 95.952,178.783 C95.544,178.941667 95.0453333,179.077667 94.456,179.191 L94.456,179.191 L94.456,180.738 L96.479,180.738 L96.479,186.977 L94.133,186.977 L94.133,189 L101.001,189 Z M106.118,189.204 C106.639333,189.204 107.140833,189.119 107.6225,188.949 C108.104167,188.779 108.526333,188.5325 108.889,188.2095 C109.251667,187.8865 109.540667,187.492667 109.756,187.028 C109.971333,186.563333 110.079,186.030667 110.079,185.43 C110.079,184.852 109.988333,184.353333 109.807,183.934 C109.625667,183.514667 109.376333,183.169 109.059,182.897 C108.741667,182.625 108.376167,182.421 107.9625,182.285 C107.548833,182.149 107.109667,182.081 106.645,182.081 C106.418333,182.081 106.2115,182.100833 106.0245,182.1405 C105.8375,182.180167 105.642,182.245333 105.438,182.336 L105.438,182.336 L105.625,180.313 L109.586,180.313 L109.586,178.205 L103.466,178.205 L103.16,183.662 L104.282,184.376 C104.440667,184.274 104.585167,184.189 104.7155,184.121 C104.845833,184.053 104.9705,183.996333 105.0895,183.951 C105.2085,183.905667 105.330333,183.8745 105.455,183.8575 C105.579667,183.8405 105.721333,183.832 105.88,183.832 C106.39,183.832 106.800833,183.973667 107.1125,184.257 C107.424167,184.540333 107.58,184.954 107.58,185.498 C107.58,186.053333 107.415667,186.472667 107.087,186.756 C106.758333,187.039333 106.316333,187.181 105.761,187.181 C105.296333,187.181 104.874167,187.076167 104.4945,186.8665 C104.114833,186.656833 103.760667,186.404667 103.432,186.11 L103.432,186.11 L102.31,187.691 C102.740667,188.121667 103.262,188.4815 103.874,188.7705 C104.486,189.0595 105.234,189.204 106.118,189.204 Z M114.499,189 L114.499,183.305 C115.020333,182.761 115.496333,182.489 115.927,182.489 C116.289667,182.489 116.553167,182.602333 116.7175,182.829 C116.881833,183.055667 116.964,183.475 116.964,184.087 L116.964,184.087 L116.964,189 L119.463,189 L119.463,183.305 C120.007,182.761 120.488667,182.489 120.908,182.489 C121.270667,182.489 121.534167,182.602333 121.6985,182.829 C121.862833,183.055667 121.945,183.475 121.945,184.087 L121.945,184.087 L121.945,189 L124.444,189 L124.444,183.764 C124.444,182.71 124.2315,181.879833 123.8065,181.2735 C123.3815,180.667167 122.715667,180.364 121.809,180.364 C121.242333,180.364 120.752167,180.502833 120.3385,180.7805 C119.924833,181.058167 119.531,181.389667 119.157,181.775 C118.941667,181.321667 118.649833,180.973167 118.2815,180.7295 C117.913167,180.485833 117.428667,180.364 116.828,180.364 C116.272667,180.364 115.796667,180.4915 115.4,180.7465 C115.003333,181.0015 114.629333,181.304667 114.278,181.656 L114.278,181.656 L114.21,181.656 L114.04,180.568 L112,180.568 L112,189 L114.499,189 Z M129.068,189 L129.068,183.305 C129.589333,182.761 130.065333,182.489 130.496,182.489 C130.858667,182.489 131.122167,182.602333 131.2865,182.829 C131.450833,183.055667 131.533,183.475 131.533,184.087 L131.533,184.087 L131.533,189 L134.032,189 L134.032,183.305 C134.576,182.761 135.057667,182.489 135.477,182.489 C135.839667,182.489 136.103167,182.602333 136.2675,182.829 C136.431833,183.055667 136.514,183.475 136.514,184.087 L136.514,184.087 L136.514,189 L139.013,189 L139.013,183.764 C139.013,182.71 138.8005,181.879833 138.3755,181.2735 C137.9505,180.667167 137.284667,180.364 136.378,180.364 C135.811333,180.364 135.321167,180.502833 134.9075,180.7805 C134.493833,181.058167 134.1,181.389667 133.726,181.775 C133.510667,181.321667 133.218833,180.973167 132.8505,180.7295 C132.482167,180.485833 131.997667,180.364 131.397,180.364 C130.841667,180.364 130.365667,180.4915 129.969,180.7465 C129.572333,181.0015 129.198333,181.304667 128.847,181.656 L128.847,181.656 L128.779,181.656 L128.609,180.568 L126.569,180.568 L126.569,189 L129.068,189 Z" id="115mm" fill="#093169" fill-rule="nonzero" transform="translate(112.085000, 183.704500) rotate(-810.000000) translate(-112.085000, -183.704500) "></path>
        <path d="M40.525,137 L40.525,134.977 L38.502,134.977 L38.502,126.205 L36.666,126.205 C36.2806667,126.431667 35.884,126.624333 35.476,126.783 C35.068,126.941667 34.5693333,127.077667 33.98,127.191 L33.98,127.191 L33.98,128.738 L36.003,128.738 L36.003,134.977 L33.657,134.977 L33.657,137 L40.525,137 Z M45.931,137.204 C46.509,137.204 47.036,137.082167 47.512,136.8385 C47.988,136.594833 48.3931667,136.235 48.7275,135.759 C49.0618333,135.283 49.3225,134.693667 49.5095,133.991 C49.6965,133.288333 49.79,132.478 49.79,131.56 C49.79,130.642 49.6965,129.837333 49.5095,129.146 C49.3225,128.454667 49.0618333,127.873833 48.7275,127.4035 C48.3931667,126.933167 47.988,126.581833 47.512,126.3495 C47.036,126.117167 46.509,126.001 45.931,126.001 C45.353,126.001 44.826,126.117167 44.35,126.3495 C43.874,126.581833 43.4688333,126.933167 43.1345,127.4035 C42.8001667,127.873833 42.5395,128.454667 42.3525,129.146 C42.1655,129.837333 42.072,130.642 42.072,131.56 C42.072,132.478 42.1655,133.288333 42.3525,133.991 C42.5395,134.693667 42.8001667,135.283 43.1345,135.759 C43.4688333,136.235 43.874,136.594833 44.35,136.8385 C44.826,137.082167 45.353,137.204 45.931,137.204 Z M45.931,135.266 C45.727,135.266 45.5343333,135.212167 45.353,135.1045 C45.1716667,134.996833 45.013,134.801333 44.877,134.518 C44.741,134.234667 44.6333333,133.855 44.554,133.379 C44.4746667,132.903 44.435,132.296667 44.435,131.56 C44.435,130.823333 44.4746667,130.219833 44.554,129.7495 C44.6333333,129.279167 44.741,128.910833 44.877,128.6445 C45.013,128.378167 45.1716667,128.194 45.353,128.092 C45.5343333,127.99 45.727,127.939 45.931,127.939 C46.1463333,127.939 46.3446667,127.99 46.526,128.092 C46.7073333,128.194 46.866,128.378167 47.002,128.6445 C47.138,128.910833 47.2428333,129.279167 47.3165,129.7495 C47.3901667,130.219833 47.427,130.823333 47.427,131.56 C47.427,132.296667 47.3901667,132.903 47.3165,133.379 C47.2428333,133.855 47.138,134.234667 47.002,134.518 C46.866,134.801333 46.7073333,134.996833 46.526,135.1045 C46.3446667,135.212167 46.1463333,135.266 45.931,135.266 Z M54.907,137.204 C55.485,137.204 56.012,137.082167 56.488,136.8385 C56.964,136.594833 57.3691667,136.235 57.7035,135.759 C58.0378333,135.283 58.2985,134.693667 58.4855,133.991 C58.6725,133.288333 58.766,132.478 58.766,131.56 C58.766,130.642 58.6725,129.837333 58.4855,129.146 C58.2985,128.454667 58.0378333,127.873833 57.7035,127.4035 C57.3691667,126.933167 56.964,126.581833 56.488,126.3495 C56.012,126.117167 55.485,126.001 54.907,126.001 C54.329,126.001 53.802,126.117167 53.326,126.3495 C52.85,126.581833 52.4448333,126.933167 52.1105,127.4035 C51.7761667,127.873833 51.5155,128.454667 51.3285,129.146 C51.1415,129.837333 51.048,130.642 51.048,131.56 C51.048,132.478 51.1415,133.288333 51.3285,133.991 C51.5155,134.693667 51.7761667,135.283 52.1105,135.759 C52.4448333,136.235 52.85,136.594833 53.326,136.8385 C53.802,137.082167 54.329,137.204 54.907,137.204 Z M54.907,135.266 C54.703,135.266 54.5103333,135.212167 54.329,135.1045 C54.1476667,134.996833 53.989,134.801333 53.853,134.518 C53.717,134.234667 53.6093333,133.855 53.53,133.379 C53.4506667,132.903 53.411,132.296667 53.411,131.56 C53.411,130.823333 53.4506667,130.219833 53.53,129.7495 C53.6093333,129.279167 53.717,128.910833 53.853,128.6445 C53.989,128.378167 54.1476667,128.194 54.329,128.092 C54.5103333,127.99 54.703,127.939 54.907,127.939 C55.1223333,127.939 55.3206667,127.99 55.502,128.092 C55.6833333,128.194 55.842,128.378167 55.978,128.6445 C56.114,128.910833 56.2188333,129.279167 56.2925,129.7495 C56.3661667,130.219833 56.403,130.823333 56.403,131.56 C56.403,132.296667 56.3661667,132.903 56.2925,133.379 C56.2188333,133.855 56.114,134.234667 55.978,134.518 C55.842,134.801333 55.6833333,134.996833 55.502,135.1045 C55.3206667,135.212167 55.1223333,135.266 54.907,135.266 Z M62.999,137 L62.999,131.305 C63.5203333,130.761 63.9963333,130.489 64.427,130.489 C64.7896667,130.489 65.0531667,130.602333 65.2175,130.829 C65.3818333,131.055667 65.464,131.475 65.464,132.087 L65.464,132.087 L65.464,137 L67.963,137 L67.963,131.305 C68.507,130.761 68.9886667,130.489 69.408,130.489 C69.7706667,130.489 70.0341667,130.602333 70.1985,130.829 C70.3628333,131.055667 70.445,131.475 70.445,132.087 L70.445,132.087 L70.445,137 L72.944,137 L72.944,131.764 C72.944,130.71 72.7315,129.879833 72.3065,129.2735 C71.8815,128.667167 71.2156667,128.364 70.309,128.364 C69.7423333,128.364 69.2521667,128.502833 68.8385,128.7805 C68.4248333,129.058167 68.031,129.389667 67.657,129.775 C67.4416667,129.321667 67.1498333,128.973167 66.7815,128.7295 C66.4131667,128.485833 65.9286667,128.364 65.328,128.364 C64.7726667,128.364 64.2966667,128.4915 63.9,128.7465 C63.5033333,129.0015 63.1293333,129.304667 62.778,129.656 L62.778,129.656 L62.71,129.656 L62.54,128.568 L60.5,128.568 L60.5,137 L62.999,137 Z M77.568,137 L77.568,131.305 C78.0893333,130.761 78.5653333,130.489 78.996,130.489 C79.3586667,130.489 79.6221667,130.602333 79.7865,130.829 C79.9508333,131.055667 80.033,131.475 80.033,132.087 L80.033,132.087 L80.033,137 L82.532,137 L82.532,131.305 C83.076,130.761 83.5576667,130.489 83.977,130.489 C84.3396667,130.489 84.6031667,130.602333 84.7675,130.829 C84.9318333,131.055667 85.014,131.475 85.014,132.087 L85.014,132.087 L85.014,137 L87.513,137 L87.513,131.764 C87.513,130.71 87.3005,129.879833 86.8755,129.2735 C86.4505,128.667167 85.7846667,128.364 84.878,128.364 C84.3113333,128.364 83.8211667,128.502833 83.4075,128.7805 C82.9938333,129.058167 82.6,129.389667 82.226,129.775 C82.0106667,129.321667 81.7188333,128.973167 81.3505,128.7295 C80.9821667,128.485833 80.4976667,128.364 79.897,128.364 C79.3416667,128.364 78.8656667,128.4915 78.469,128.7465 C78.0723333,129.0015 77.6983333,129.304667 77.347,129.656 L77.347,129.656 L77.279,129.656 L77.109,128.568 L75.069,128.568 L75.069,137 L77.568,137 Z" id="100mm" fill="#093169" fill-rule="nonzero" transform="translate(60.585000, 131.602500) rotate(-810.000000) translate(-60.585000, -131.602500) "></path>
    </g>
</svg>