<?xml version="1.0" encoding="UTF-8"?>
<svg width="600px" height="316px" viewBox="0 0 600 316" version="1.1" xmlns="http://www.w3.org/2000/svg" xmlns:xlink="http://www.w3.org/1999/xlink">
    <title>corbels/A130L-top</title>
    <g id="corbels/A130L-top" stroke="none" stroke-width="1" fill="none" fill-rule="evenodd">
        <rect fill="#F5F9FF" x="0" y="0" width="600" height="316"></rect>
        <g id="Group" transform="translate(300.000000, 157.000000) scale(-1, 1) translate(-300.000000, -157.000000) translate(168.000000, 105.000000)" stroke="#CBD8F2">
            <path d="M264,103.5 L0,103.5 L0,49.5 L109,49.5 L109,0.5 L264,0.5 L264,103.5 Z" id="Combined-Shape" fill="#FFFFFF"></path>
            <line x1="162" y1="0.5" x2="162" y2="103.5" id="Line" stroke-dasharray="6"></line>
            <line x1="255" y1="0.5" x2="255" y2="103.5" id="Line" stroke-dasharray="6"></line>
        </g>
        <polyline id="Rectangle-Copy-2" stroke="#CBD8F2" transform="translate(299.500000, 230.500000) rotate(-180.000000) translate(-299.500000, -230.500000) " points="167.5 238 167.5 223 431.5 223 431.5 238"></polyline>
        <polyline id="Rectangle-Copy-2" stroke="#CBD8F2" transform="translate(454.500000, 129.750000) rotate(-630.000000) translate(-454.500000, -129.750000) " points="429.75 137.25 429.75 122.25 479.25 122.25 479.25 137.25"></polyline>
        <polyline id="Rectangle-Copy-2" stroke="#CBD8F2" transform="translate(488.500000, 181.500000) scale(-1, 1) rotate(270.000000) translate(-488.500000, -181.500000) " points="461.5 223 461.5 140 515.5 140 515.5 223"></polyline>
        <path d="M536.025,188 L536.025,185.977 L534.002,185.977 L534.002,177.205 L532.166,177.205 C531.780667,177.431667 531.384,177.624333 530.976,177.783 C530.568,177.941667 530.069333,178.077667 529.48,178.191 L529.48,178.191 L529.48,179.738 L531.503,179.738 L531.503,185.977 L529.157,185.977 L529.157,188 L536.025,188 Z M545.001,188 L545.001,185.977 L542.978,185.977 L542.978,177.205 L541.142,177.205 C540.756667,177.431667 540.36,177.624333 539.952,177.783 C539.544,177.941667 539.045333,178.077667 538.456,178.191 L538.456,178.191 L538.456,179.738 L540.479,179.738 L540.479,185.977 L538.133,185.977 L538.133,188 L545.001,188 Z M550.118,188.204 C550.639333,188.204 551.140833,188.119 551.6225,187.949 C552.104167,187.779 552.526333,187.5325 552.889,187.2095 C553.251667,186.8865 553.540667,186.492667 553.756,186.028 C553.971333,185.563333 554.079,185.030667 554.079,184.43 C554.079,183.852 553.988333,183.353333 553.807,182.934 C553.625667,182.514667 553.376333,182.169 553.059,181.897 C552.741667,181.625 552.376167,181.421 551.9625,181.285 C551.548833,181.149 551.109667,181.081 550.645,181.081 C550.418333,181.081 550.2115,181.100833 550.0245,181.1405 C549.8375,181.180167 549.642,181.245333 549.438,181.336 L549.438,181.336 L549.625,179.313 L553.586,179.313 L553.586,177.205 L547.466,177.205 L547.16,182.662 L548.282,183.376 C548.440667,183.274 548.585167,183.189 548.7155,183.121 C548.845833,183.053 548.9705,182.996333 549.0895,182.951 C549.2085,182.905667 549.330333,182.8745 549.455,182.8575 C549.579667,182.8405 549.721333,182.832 549.88,182.832 C550.39,182.832 550.800833,182.973667 551.1125,183.257 C551.424167,183.540333 551.58,183.954 551.58,184.498 C551.58,185.053333 551.415667,185.472667 551.087,185.756 C550.758333,186.039333 550.316333,186.181 549.761,186.181 C549.296333,186.181 548.874167,186.076167 548.4945,185.8665 C548.114833,185.656833 547.760667,185.404667 547.432,185.11 L547.432,185.11 L546.31,186.691 C546.740667,187.121667 547.262,187.4815 547.874,187.7705 C548.486,188.0595 549.234,188.204 550.118,188.204 Z M558.499,188 L558.499,182.305 C559.020333,181.761 559.496333,181.489 559.927,181.489 C560.289667,181.489 560.553167,181.602333 560.7175,181.829 C560.881833,182.055667 560.964,182.475 560.964,183.087 L560.964,183.087 L560.964,188 L563.463,188 L563.463,182.305 C564.007,181.761 564.488667,181.489 564.908,181.489 C565.270667,181.489 565.534167,181.602333 565.6985,181.829 C565.862833,182.055667 565.945,182.475 565.945,183.087 L565.945,183.087 L565.945,188 L568.444,188 L568.444,182.764 C568.444,181.71 568.2315,180.879833 567.8065,180.2735 C567.3815,179.667167 566.715667,179.364 565.809,179.364 C565.242333,179.364 564.752167,179.502833 564.3385,179.7805 C563.924833,180.058167 563.531,180.389667 563.157,180.775 C562.941667,180.321667 562.649833,179.973167 562.2815,179.7295 C561.913167,179.485833 561.428667,179.364 560.828,179.364 C560.272667,179.364 559.796667,179.4915 559.4,179.7465 C559.003333,180.0015 558.629333,180.304667 558.278,180.656 L558.278,180.656 L558.21,180.656 L558.04,179.568 L556,179.568 L556,188 L558.499,188 Z M573.068,188 L573.068,182.305 C573.589333,181.761 574.065333,181.489 574.496,181.489 C574.858667,181.489 575.122167,181.602333 575.2865,181.829 C575.450833,182.055667 575.533,182.475 575.533,183.087 L575.533,183.087 L575.533,188 L578.032,188 L578.032,182.305 C578.576,181.761 579.057667,181.489 579.477,181.489 C579.839667,181.489 580.103167,181.602333 580.2675,181.829 C580.431833,182.055667 580.514,182.475 580.514,183.087 L580.514,183.087 L580.514,188 L583.013,188 L583.013,182.764 C583.013,181.71 582.8005,180.879833 582.3755,180.2735 C581.9505,179.667167 581.284667,179.364 580.378,179.364 C579.811333,179.364 579.321167,179.502833 578.9075,179.7805 C578.493833,180.058167 578.1,180.389667 577.726,180.775 C577.510667,180.321667 577.218833,179.973167 576.8505,179.7295 C576.482167,179.485833 575.997667,179.364 575.397,179.364 C574.841667,179.364 574.365667,179.4915 573.969,179.7465 C573.572333,180.0015 573.198333,180.304667 572.847,180.656 L572.847,180.656 L572.779,180.656 L572.609,179.568 L570.569,179.568 L570.569,188 L573.068,188 Z" id="115mm" fill="#093169" fill-rule="nonzero" transform="translate(556.085000, 182.704500) rotate(-630.000000) translate(-556.085000, -182.704500) "></path>
        <path d="M468.025,136 L468.025,133.977 L466.002,133.977 L466.002,125.205 L464.166,125.205 C463.780667,125.431667 463.384,125.624333 462.976,125.783 C462.568,125.941667 462.069333,126.077667 461.48,126.191 L461.48,126.191 L461.48,127.738 L463.503,127.738 L463.503,133.977 L461.157,133.977 L461.157,136 L468.025,136 Z M473.431,136.204 C474.009,136.204 474.536,136.082167 475.012,135.8385 C475.488,135.594833 475.893167,135.235 476.2275,134.759 C476.561833,134.283 476.8225,133.693667 477.0095,132.991 C477.1965,132.288333 477.29,131.478 477.29,130.56 C477.29,129.642 477.1965,128.837333 477.0095,128.146 C476.8225,127.454667 476.561833,126.873833 476.2275,126.4035 C475.893167,125.933167 475.488,125.581833 475.012,125.3495 C474.536,125.117167 474.009,125.001 473.431,125.001 C472.853,125.001 472.326,125.117167 471.85,125.3495 C471.374,125.581833 470.968833,125.933167 470.6345,126.4035 C470.300167,126.873833 470.0395,127.454667 469.8525,128.146 C469.6655,128.837333 469.572,129.642 469.572,130.56 C469.572,131.478 469.6655,132.288333 469.8525,132.991 C470.0395,133.693667 470.300167,134.283 470.6345,134.759 C470.968833,135.235 471.374,135.594833 471.85,135.8385 C472.326,136.082167 472.853,136.204 473.431,136.204 Z M473.431,134.266 C473.227,134.266 473.034333,134.212167 472.853,134.1045 C472.671667,133.996833 472.513,133.801333 472.377,133.518 C472.241,133.234667 472.133333,132.855 472.054,132.379 C471.974667,131.903 471.935,131.296667 471.935,130.56 C471.935,129.823333 471.974667,129.219833 472.054,128.7495 C472.133333,128.279167 472.241,127.910833 472.377,127.6445 C472.513,127.378167 472.671667,127.194 472.853,127.092 C473.034333,126.99 473.227,126.939 473.431,126.939 C473.646333,126.939 473.844667,126.99 474.026,127.092 C474.207333,127.194 474.366,127.378167 474.502,127.6445 C474.638,127.910833 474.742833,128.279167 474.8165,128.7495 C474.890167,129.219833 474.927,129.823333 474.927,130.56 C474.927,131.296667 474.890167,131.903 474.8165,132.379 C474.742833,132.855 474.638,133.234667 474.502,133.518 C474.366,133.801333 474.207333,133.996833 474.026,134.1045 C473.844667,134.212167 473.646333,134.266 473.431,134.266 Z M482.407,136.204 C482.985,136.204 483.512,136.082167 483.988,135.8385 C484.464,135.594833 484.869167,135.235 485.2035,134.759 C485.537833,134.283 485.7985,133.693667 485.9855,132.991 C486.1725,132.288333 486.266,131.478 486.266,130.56 C486.266,129.642 486.1725,128.837333 485.9855,128.146 C485.7985,127.454667 485.537833,126.873833 485.2035,126.4035 C484.869167,125.933167 484.464,125.581833 483.988,125.3495 C483.512,125.117167 482.985,125.001 482.407,125.001 C481.829,125.001 481.302,125.117167 480.826,125.3495 C480.35,125.581833 479.944833,125.933167 479.6105,126.4035 C479.276167,126.873833 479.0155,127.454667 478.8285,128.146 C478.6415,128.837333 478.548,129.642 478.548,130.56 C478.548,131.478 478.6415,132.288333 478.8285,132.991 C479.0155,133.693667 479.276167,134.283 479.6105,134.759 C479.944833,135.235 480.35,135.594833 480.826,135.8385 C481.302,136.082167 481.829,136.204 482.407,136.204 Z M482.407,134.266 C482.203,134.266 482.010333,134.212167 481.829,134.1045 C481.647667,133.996833 481.489,133.801333 481.353,133.518 C481.217,133.234667 481.109333,132.855 481.03,132.379 C480.950667,131.903 480.911,131.296667 480.911,130.56 C480.911,129.823333 480.950667,129.219833 481.03,128.7495 C481.109333,128.279167 481.217,127.910833 481.353,127.6445 C481.489,127.378167 481.647667,127.194 481.829,127.092 C482.010333,126.99 482.203,126.939 482.407,126.939 C482.622333,126.939 482.820667,126.99 483.002,127.092 C483.183333,127.194 483.342,127.378167 483.478,127.6445 C483.614,127.910833 483.718833,128.279167 483.7925,128.7495 C483.866167,129.219833 483.903,129.823333 483.903,130.56 C483.903,131.296667 483.866167,131.903 483.7925,132.379 C483.718833,132.855 483.614,133.234667 483.478,133.518 C483.342,133.801333 483.183333,133.996833 483.002,134.1045 C482.820667,134.212167 482.622333,134.266 482.407,134.266 Z M490.499,136 L490.499,130.305 C491.020333,129.761 491.496333,129.489 491.927,129.489 C492.289667,129.489 492.553167,129.602333 492.7175,129.829 C492.881833,130.055667 492.964,130.475 492.964,131.087 L492.964,131.087 L492.964,136 L495.463,136 L495.463,130.305 C496.007,129.761 496.488667,129.489 496.908,129.489 C497.270667,129.489 497.534167,129.602333 497.6985,129.829 C497.862833,130.055667 497.945,130.475 497.945,131.087 L497.945,131.087 L497.945,136 L500.444,136 L500.444,130.764 C500.444,129.71 500.2315,128.879833 499.8065,128.2735 C499.3815,127.667167 498.715667,127.364 497.809,127.364 C497.242333,127.364 496.752167,127.502833 496.3385,127.7805 C495.924833,128.058167 495.531,128.389667 495.157,128.775 C494.941667,128.321667 494.649833,127.973167 494.2815,127.7295 C493.913167,127.485833 493.428667,127.364 492.828,127.364 C492.272667,127.364 491.796667,127.4915 491.4,127.7465 C491.003333,128.0015 490.629333,128.304667 490.278,128.656 L490.278,128.656 L490.21,128.656 L490.04,127.568 L488,127.568 L488,136 L490.499,136 Z M505.068,136 L505.068,130.305 C505.589333,129.761 506.065333,129.489 506.496,129.489 C506.858667,129.489 507.122167,129.602333 507.2865,129.829 C507.450833,130.055667 507.533,130.475 507.533,131.087 L507.533,131.087 L507.533,136 L510.032,136 L510.032,130.305 C510.576,129.761 511.057667,129.489 511.477,129.489 C511.839667,129.489 512.103167,129.602333 512.2675,129.829 C512.431833,130.055667 512.514,130.475 512.514,131.087 L512.514,131.087 L512.514,136 L515.013,136 L515.013,130.764 C515.013,129.71 514.8005,128.879833 514.3755,128.2735 C513.9505,127.667167 513.284667,127.364 512.378,127.364 C511.811333,127.364 511.321167,127.502833 510.9075,127.7805 C510.493833,128.058167 510.1,128.389667 509.726,128.775 C509.510667,128.321667 509.218833,127.973167 508.8505,127.7295 C508.482167,127.485833 507.997667,127.364 507.397,127.364 C506.841667,127.364 506.365667,127.4915 505.969,127.7465 C505.572333,128.0015 505.198333,128.304667 504.847,128.656 L504.847,128.656 L504.779,128.656 L504.609,127.568 L502.569,127.568 L502.569,136 L505.068,136 Z" id="100mm" fill="#093169" fill-rule="nonzero" transform="translate(488.085000, 130.602500) rotate(-630.000000) translate(-488.085000, -130.602500) "></path>
        <polyline id="Rectangle-Copy-2" stroke="#CBD8F2" transform="translate(354.000000, 82.500000) rotate(-360.000000) translate(-354.000000, -82.500000) " points="276.5 90 276.5 75 431.5 75 431.5 90"></polyline>
        <polyline id="Rectangle-Copy-2" stroke="#CBD8F2" transform="translate(222.000000, 82.500000) rotate(-360.000000) translate(-222.000000, -82.500000) " points="167.5 90 167.5 75 276.5 75 276.5 90"></polyline>
        <path d="M276.166,270.204 C276.687333,270.204 277.188833,270.119 277.6705,269.949 C278.152167,269.779 278.574333,269.5325 278.937,269.2095 C279.299667,268.8865 279.588667,268.492667 279.804,268.028 C280.019333,267.563333 280.127,267.030667 280.127,266.43 C280.127,265.852 280.036333,265.353333 279.855,264.934 C279.673667,264.514667 279.424333,264.169 279.107,263.897 C278.789667,263.625 278.424167,263.421 278.0105,263.285 C277.596833,263.149 277.157667,263.081 276.693,263.081 C276.466333,263.081 276.2595,263.100833 276.0725,263.1405 C275.8855,263.180167 275.69,263.245333 275.486,263.336 L275.486,263.336 L275.673,261.313 L279.634,261.313 L279.634,259.205 L273.514,259.205 L273.208,264.662 L274.33,265.376 C274.488667,265.274 274.633167,265.189 274.7635,265.121 C274.893833,265.053 275.0185,264.996333 275.1375,264.951 C275.2565,264.905667 275.378333,264.8745 275.503,264.8575 C275.627667,264.8405 275.769333,264.832 275.928,264.832 C276.438,264.832 276.848833,264.973667 277.1605,265.257 C277.472167,265.540333 277.628,265.954 277.628,266.498 C277.628,267.053333 277.463667,267.472667 277.135,267.756 C276.806333,268.039333 276.364333,268.181 275.809,268.181 C275.344333,268.181 274.922167,268.076167 274.5425,267.8665 C274.162833,267.656833 273.808667,267.404667 273.48,267.11 L273.48,267.11 L272.358,268.691 C272.788667,269.121667 273.31,269.4815 273.922,269.7705 C274.534,270.0595 275.282,270.204 276.166,270.204 Z M285.142,270.204 C285.663333,270.204 286.164833,270.119 286.6465,269.949 C287.128167,269.779 287.550333,269.5325 287.913,269.2095 C288.275667,268.8865 288.564667,268.492667 288.78,268.028 C288.995333,267.563333 289.103,267.030667 289.103,266.43 C289.103,265.852 289.012333,265.353333 288.831,264.934 C288.649667,264.514667 288.400333,264.169 288.083,263.897 C287.765667,263.625 287.400167,263.421 286.9865,263.285 C286.572833,263.149 286.133667,263.081 285.669,263.081 C285.442333,263.081 285.2355,263.100833 285.0485,263.1405 C284.8615,263.180167 284.666,263.245333 284.462,263.336 L284.462,263.336 L284.649,261.313 L288.61,261.313 L288.61,259.205 L282.49,259.205 L282.184,264.662 L283.306,265.376 C283.464667,265.274 283.609167,265.189 283.7395,265.121 C283.869833,265.053 283.9945,264.996333 284.1135,264.951 C284.2325,264.905667 284.354333,264.8745 284.479,264.8575 C284.603667,264.8405 284.745333,264.832 284.904,264.832 C285.414,264.832 285.824833,264.973667 286.1365,265.257 C286.448167,265.540333 286.604,265.954 286.604,266.498 C286.604,267.053333 286.439667,267.472667 286.111,267.756 C285.782333,268.039333 285.340333,268.181 284.785,268.181 C284.320333,268.181 283.898167,268.076167 283.5185,267.8665 C283.138833,267.656833 282.784667,267.404667 282.456,267.11 L282.456,267.11 L281.334,268.691 C281.764667,269.121667 282.286,269.4815 282.898,269.7705 C283.51,270.0595 284.258,270.204 285.142,270.204 Z M298.147,270 L298.147,267.892 L295.971,267.892 C295.710333,267.892 295.412833,267.906167 295.0785,267.9345 C294.744167,267.962833 294.441,267.994 294.169,268.028 C294.611,267.574667 295.038833,267.112833 295.4525,266.6425 C295.866167,266.172167 296.2345,265.701833 296.5575,265.2315 C296.8805,264.761167 297.138333,264.290833 297.331,263.8205 C297.523667,263.350167 297.62,262.888333 297.62,262.435 C297.62,261.913667 297.535,261.443333 297.365,261.024 C297.195,260.604667 296.951333,260.244833 296.634,259.9445 C296.316667,259.644167 295.939833,259.411833 295.5035,259.2475 C295.067167,259.083167 294.582667,259.001 294.05,259.001 C293.279333,259.001 292.616333,259.1455 292.061,259.4345 C291.505667,259.7235 290.961667,260.151333 290.429,260.718 L290.429,260.718 L291.789,262.061 C292.061,261.766333 292.35,261.5085 292.656,261.2875 C292.962,261.0665 293.313333,260.956 293.71,260.956 C294.186,260.956 294.56,261.094833 294.832,261.3725 C295.104,261.650167 295.24,262.055333 295.24,262.588 C295.24,262.973333 295.123833,263.3785 294.8915,263.8035 C294.659167,264.2285 294.336167,264.6875 293.9225,265.1805 C293.508833,265.6735 293.015833,266.2005 292.4435,266.7615 C291.871167,267.3225 291.239333,267.926 290.548,268.572 L290.548,268.572 L290.548,270 L298.147,270 Z M302.499,270 L302.499,264.305 C303.020333,263.761 303.496333,263.489 303.927,263.489 C304.289667,263.489 304.553167,263.602333 304.7175,263.829 C304.881833,264.055667 304.964,264.475 304.964,265.087 L304.964,265.087 L304.964,270 L307.463,270 L307.463,264.305 C308.007,263.761 308.488667,263.489 308.908,263.489 C309.270667,263.489 309.534167,263.602333 309.6985,263.829 C309.862833,264.055667 309.945,264.475 309.945,265.087 L309.945,265.087 L309.945,270 L312.444,270 L312.444,264.764 C312.444,263.71 312.2315,262.879833 311.8065,262.2735 C311.3815,261.667167 310.715667,261.364 309.809,261.364 C309.242333,261.364 308.752167,261.502833 308.3385,261.7805 C307.924833,262.058167 307.531,262.389667 307.157,262.775 C306.941667,262.321667 306.649833,261.973167 306.2815,261.7295 C305.913167,261.485833 305.428667,261.364 304.828,261.364 C304.272667,261.364 303.796667,261.4915 303.4,261.7465 C303.003333,262.0015 302.629333,262.304667 302.278,262.656 L302.278,262.656 L302.21,262.656 L302.04,261.568 L300,261.568 L300,270 L302.499,270 Z M317.068,270 L317.068,264.305 C317.589333,263.761 318.065333,263.489 318.496,263.489 C318.858667,263.489 319.122167,263.602333 319.2865,263.829 C319.450833,264.055667 319.533,264.475 319.533,265.087 L319.533,265.087 L319.533,270 L322.032,270 L322.032,264.305 C322.576,263.761 323.057667,263.489 323.477,263.489 C323.839667,263.489 324.103167,263.602333 324.2675,263.829 C324.431833,264.055667 324.514,264.475 324.514,265.087 L324.514,265.087 L324.514,270 L327.013,270 L327.013,264.764 C327.013,263.71 326.8005,262.879833 326.3755,262.2735 C325.9505,261.667167 325.284667,261.364 324.378,261.364 C323.811333,261.364 323.321167,261.502833 322.9075,261.7805 C322.493833,262.058167 322.1,262.389667 321.726,262.775 C321.510667,262.321667 321.218833,261.973167 320.8505,261.7295 C320.482167,261.485833 319.997667,261.364 319.397,261.364 C318.841667,261.364 318.365667,261.4915 317.969,261.7465 C317.572333,262.0015 317.198333,262.304667 316.847,262.656 L316.847,262.656 L316.779,262.656 L316.609,261.568 L314.569,261.568 L314.569,270 L317.068,270 Z" id="552mm" fill="#093169" fill-rule="nonzero"></path>
        <path d="M202.195,55 L202.195,52.892 L200.019,52.892 C199.758333,52.892 199.460833,52.9061667 199.1265,52.9345 C198.792167,52.9628333 198.489,52.994 198.217,53.028 C198.659,52.5746667 199.086833,52.1128333 199.5005,51.6425 C199.914167,51.1721667 200.2825,50.7018333 200.6055,50.2315 C200.9285,49.7611667 201.186333,49.2908333 201.379,48.8205 C201.571667,48.3501667 201.668,47.8883333 201.668,47.435 C201.668,46.9136667 201.583,46.4433333 201.413,46.024 C201.243,45.6046667 200.999333,45.2448333 200.682,44.9445 C200.364667,44.6441667 199.987833,44.4118333 199.5515,44.2475 C199.115167,44.0831667 198.630667,44.001 198.098,44.001 C197.327333,44.001 196.664333,44.1455 196.109,44.4345 C195.553667,44.7235 195.009667,45.1513333 194.477,45.718 L194.477,45.718 L195.837,47.061 C196.109,46.7663333 196.398,46.5085 196.704,46.2875 C197.01,46.0665 197.361333,45.956 197.758,45.956 C198.234,45.956 198.608,46.0948333 198.88,46.3725 C199.152,46.6501667 199.288,47.0553333 199.288,47.588 C199.288,47.9733333 199.171833,48.3785 198.9395,48.8035 C198.707167,49.2285 198.384167,49.6875 197.9705,50.1805 C197.556833,50.6735 197.063833,51.2005 196.4915,51.7615 C195.919167,52.3225 195.287333,52.926 194.596,53.572 L194.596,53.572 L194.596,55 L202.195,55 Z M210.27,55 L210.27,52.416 L211.511,52.416 L211.511,50.512 L210.27,50.512 L210.27,44.205 L207.21,44.205 L203.266,50.699 L203.266,52.416 L207.941,52.416 L207.941,55 L210.27,55 Z M207.941,50.512 L205.663,50.512 L207.091,48.166 C207.249667,47.86 207.402667,47.554 207.55,47.248 C207.697333,46.942 207.839,46.6416667 207.975,46.347 L207.975,46.347 L208.043,46.347 C208.020333,46.687 207.997667,47.0865 207.975,47.5455 C207.952333,48.0045 207.941,48.4096667 207.941,48.761 L207.941,48.761 L207.941,50.512 Z M216.407,55.204 C216.985,55.204 217.512,55.0821667 217.988,54.8385 C218.464,54.5948333 218.869167,54.235 219.2035,53.759 C219.537833,53.283 219.7985,52.6936667 219.9855,51.991 C220.1725,51.2883333 220.266,50.478 220.266,49.56 C220.266,48.642 220.1725,47.8373333 219.9855,47.146 C219.7985,46.4546667 219.537833,45.8738333 219.2035,45.4035 C218.869167,44.9331667 218.464,44.5818333 217.988,44.3495 C217.512,44.1171667 216.985,44.001 216.407,44.001 C215.829,44.001 215.302,44.1171667 214.826,44.3495 C214.35,44.5818333 213.944833,44.9331667 213.6105,45.4035 C213.276167,45.8738333 213.0155,46.4546667 212.8285,47.146 C212.6415,47.8373333 212.548,48.642 212.548,49.56 C212.548,50.478 212.6415,51.2883333 212.8285,51.991 C213.0155,52.6936667 213.276167,53.283 213.6105,53.759 C213.944833,54.235 214.35,54.5948333 214.826,54.8385 C215.302,55.0821667 215.829,55.204 216.407,55.204 Z M216.407,53.266 C216.203,53.266 216.010333,53.2121667 215.829,53.1045 C215.647667,52.9968333 215.489,52.8013333 215.353,52.518 C215.217,52.2346667 215.109333,51.855 215.03,51.379 C214.950667,50.903 214.911,50.2966667 214.911,49.56 C214.911,48.8233333 214.950667,48.2198333 215.03,47.7495 C215.109333,47.2791667 215.217,46.9108333 215.353,46.6445 C215.489,46.3781667 215.647667,46.194 215.829,46.092 C216.010333,45.99 216.203,45.939 216.407,45.939 C216.622333,45.939 216.820667,45.99 217.002,46.092 C217.183333,46.194 217.342,46.3781667 217.478,46.6445 C217.614,46.9108333 217.718833,47.2791667 217.7925,47.7495 C217.866167,48.2198333 217.903,48.8233333 217.903,49.56 C217.903,50.2966667 217.866167,50.903 217.7925,51.379 C217.718833,51.855 217.614,52.2346667 217.478,52.518 C217.342,52.8013333 217.183333,52.9968333 217.002,53.1045 C216.820667,53.2121667 216.622333,53.266 216.407,53.266 Z M224.499,55 L224.499,49.305 C225.020333,48.761 225.496333,48.489 225.927,48.489 C226.289667,48.489 226.553167,48.6023333 226.7175,48.829 C226.881833,49.0556667 226.964,49.475 226.964,50.087 L226.964,50.087 L226.964,55 L229.463,55 L229.463,49.305 C230.007,48.761 230.488667,48.489 230.908,48.489 C231.270667,48.489 231.534167,48.6023333 231.6985,48.829 C231.862833,49.0556667 231.945,49.475 231.945,50.087 L231.945,50.087 L231.945,55 L234.444,55 L234.444,49.764 C234.444,48.71 234.2315,47.8798333 233.8065,47.2735 C233.3815,46.6671667 232.715667,46.364 231.809,46.364 C231.242333,46.364 230.752167,46.5028333 230.3385,46.7805 C229.924833,47.0581667 229.531,47.3896667 229.157,47.775 C228.941667,47.3216667 228.649833,46.9731667 228.2815,46.7295 C227.913167,46.4858333 227.428667,46.364 226.828,46.364 C226.272667,46.364 225.796667,46.4915 225.4,46.7465 C225.003333,47.0015 224.629333,47.3046667 224.278,47.656 L224.278,47.656 L224.21,47.656 L224.04,46.568 L222,46.568 L222,55 L224.499,55 Z M239.068,55 L239.068,49.305 C239.589333,48.761 240.065333,48.489 240.496,48.489 C240.858667,48.489 241.122167,48.6023333 241.2865,48.829 C241.450833,49.0556667 241.533,49.475 241.533,50.087 L241.533,50.087 L241.533,55 L244.032,55 L244.032,49.305 C244.576,48.761 245.057667,48.489 245.477,48.489 C245.839667,48.489 246.103167,48.6023333 246.2675,48.829 C246.431833,49.0556667 246.514,49.475 246.514,50.087 L246.514,50.087 L246.514,55 L249.013,55 L249.013,49.764 C249.013,48.71 248.8005,47.8798333 248.3755,47.2735 C247.9505,46.6671667 247.284667,46.364 246.378,46.364 C245.811333,46.364 245.321167,46.5028333 244.9075,46.7805 C244.493833,47.0581667 244.1,47.3896667 243.726,47.775 C243.510667,47.3216667 243.218833,46.9731667 242.8505,46.7295 C242.482167,46.4858333 241.997667,46.364 241.397,46.364 C240.841667,46.364 240.365667,46.4915 239.969,46.7465 C239.572333,47.0015 239.198333,47.3046667 238.847,47.656 L238.847,47.656 L238.779,47.656 L238.609,46.568 L236.569,46.568 L236.569,55 L239.068,55 Z" id="240mm" fill="#093169" fill-rule="nonzero"></path>
        <path d="M330.098,55.204 C330.642,55.204 331.157667,55.1331667 331.645,54.9915 C332.132333,54.8498333 332.557333,54.6458333 332.92,54.3795 C333.282667,54.1131667 333.571667,53.7845 333.787,53.3935 C334.002333,53.0025 334.11,52.5576667 334.11,52.059 C334.11,51.3563333 333.908833,50.7868333 333.5065,50.3505 C333.104167,49.9141667 332.591333,49.6053333 331.968,49.424 L331.968,49.424 L331.968,49.356 C332.546,49.1066667 332.990833,48.7865 333.3025,48.3955 C333.614167,48.0045 333.77,47.5256667 333.77,46.959 C333.77,46.483 333.679333,46.0636667 333.498,45.701 C333.316667,45.3383333 333.0645,45.0295 332.7415,44.7745 C332.4185,44.5195 332.0275,44.3268333 331.5685,44.1965 C331.1095,44.0661667 330.602333,44.001 330.047,44.001 C329.378333,44.001 328.769167,44.1228333 328.2195,44.3665 C327.669833,44.6101667 327.145667,44.9473333 326.647,45.378 L326.647,45.378 L327.905,46.908 C328.245,46.6133333 328.570833,46.381 328.8825,46.211 C329.194167,46.041 329.542667,45.956 329.928,45.956 C330.358667,45.956 330.687333,46.0608333 330.914,46.2705 C331.140667,46.4801667 331.254,46.772 331.254,47.146 C331.254,47.3613333 331.2115,47.5568333 331.1265,47.7325 C331.0415,47.9081667 330.899833,48.0611667 330.7015,48.1915 C330.503167,48.3218333 330.2425,48.421 329.9195,48.489 C329.5965,48.557 329.191333,48.591 328.704,48.591 L328.704,48.591 L328.704,50.359 C329.293333,50.359 329.775,50.3958333 330.149,50.4695 C330.523,50.5431667 330.817667,50.6451667 331.033,50.7755 C331.248333,50.9058333 331.3985,51.0673333 331.4835,51.26 C331.5685,51.4526667 331.611,51.668 331.611,51.906 C331.611,52.314 331.452333,52.6285 331.135,52.8495 C330.817667,53.0705 330.392667,53.181 329.86,53.181 C329.395333,53.181 328.9675,53.079 328.5765,52.875 C328.1855,52.671 327.825667,52.4103333 327.497,52.093 L327.497,52.093 L326.341,53.674 C326.737667,54.1386667 327.242,54.5098333 327.854,54.7875 C328.466,55.0651667 329.214,55.204 330.098,55.204 Z M343.171,55 L343.171,52.892 L340.995,52.892 C340.734333,52.892 340.436833,52.9061667 340.1025,52.9345 C339.768167,52.9628333 339.465,52.994 339.193,53.028 C339.635,52.5746667 340.062833,52.1128333 340.4765,51.6425 C340.890167,51.1721667 341.2585,50.7018333 341.5815,50.2315 C341.9045,49.7611667 342.162333,49.2908333 342.355,48.8205 C342.547667,48.3501667 342.644,47.8883333 342.644,47.435 C342.644,46.9136667 342.559,46.4433333 342.389,46.024 C342.219,45.6046667 341.975333,45.2448333 341.658,44.9445 C341.340667,44.6441667 340.963833,44.4118333 340.5275,44.2475 C340.091167,44.0831667 339.606667,44.001 339.074,44.001 C338.303333,44.001 337.640333,44.1455 337.085,44.4345 C336.529667,44.7235 335.985667,45.1513333 335.453,45.718 L335.453,45.718 L336.813,47.061 C337.085,46.7663333 337.374,46.5085 337.68,46.2875 C337.986,46.0665 338.337333,45.956 338.734,45.956 C339.21,45.956 339.584,46.0948333 339.856,46.3725 C340.128,46.6501667 340.264,47.0553333 340.264,47.588 C340.264,47.9733333 340.147833,48.3785 339.9155,48.8035 C339.683167,49.2285 339.360167,49.6875 338.9465,50.1805 C338.532833,50.6735 338.039833,51.2005 337.4675,51.7615 C336.895167,52.3225 336.263333,52.926 335.572,53.572 L335.572,53.572 L335.572,55 L343.171,55 Z M348.05,55.204 C348.594,55.204 349.109667,55.1331667 349.597,54.9915 C350.084333,54.8498333 350.509333,54.6458333 350.872,54.3795 C351.234667,54.1131667 351.523667,53.7845 351.739,53.3935 C351.954333,53.0025 352.062,52.5576667 352.062,52.059 C352.062,51.3563333 351.860833,50.7868333 351.4585,50.3505 C351.056167,49.9141667 350.543333,49.6053333 349.92,49.424 L349.92,49.424 L349.92,49.356 C350.498,49.1066667 350.942833,48.7865 351.2545,48.3955 C351.566167,48.0045 351.722,47.5256667 351.722,46.959 C351.722,46.483 351.631333,46.0636667 351.45,45.701 C351.268667,45.3383333 351.0165,45.0295 350.6935,44.7745 C350.3705,44.5195 349.9795,44.3268333 349.5205,44.1965 C349.0615,44.0661667 348.554333,44.001 347.999,44.001 C347.330333,44.001 346.721167,44.1228333 346.1715,44.3665 C345.621833,44.6101667 345.097667,44.9473333 344.599,45.378 L344.599,45.378 L345.857,46.908 C346.197,46.6133333 346.522833,46.381 346.8345,46.211 C347.146167,46.041 347.494667,45.956 347.88,45.956 C348.310667,45.956 348.639333,46.0608333 348.866,46.2705 C349.092667,46.4801667 349.206,46.772 349.206,47.146 C349.206,47.3613333 349.1635,47.5568333 349.0785,47.7325 C348.9935,47.9081667 348.851833,48.0611667 348.6535,48.1915 C348.455167,48.3218333 348.1945,48.421 347.8715,48.489 C347.5485,48.557 347.143333,48.591 346.656,48.591 L346.656,48.591 L346.656,50.359 C347.245333,50.359 347.727,50.3958333 348.101,50.4695 C348.475,50.5431667 348.769667,50.6451667 348.985,50.7755 C349.200333,50.9058333 349.3505,51.0673333 349.4355,51.26 C349.5205,51.4526667 349.563,51.668 349.563,51.906 C349.563,52.314 349.404333,52.6285 349.087,52.8495 C348.769667,53.0705 348.344667,53.181 347.812,53.181 C347.347333,53.181 346.9195,53.079 346.5285,52.875 C346.1375,52.671 345.777667,52.4103333 345.449,52.093 L345.449,52.093 L344.293,53.674 C344.689667,54.1386667 345.194,54.5098333 345.806,54.7875 C346.418,55.0651667 347.166,55.204 348.05,55.204 Z M356.499,55 L356.499,49.305 C357.020333,48.761 357.496333,48.489 357.927,48.489 C358.289667,48.489 358.553167,48.6023333 358.7175,48.829 C358.881833,49.0556667 358.964,49.475 358.964,50.087 L358.964,50.087 L358.964,55 L361.463,55 L361.463,49.305 C362.007,48.761 362.488667,48.489 362.908,48.489 C363.270667,48.489 363.534167,48.6023333 363.6985,48.829 C363.862833,49.0556667 363.945,49.475 363.945,50.087 L363.945,50.087 L363.945,55 L366.444,55 L366.444,49.764 C366.444,48.71 366.2315,47.8798333 365.8065,47.2735 C365.3815,46.6671667 364.715667,46.364 363.809,46.364 C363.242333,46.364 362.752167,46.5028333 362.3385,46.7805 C361.924833,47.0581667 361.531,47.3896667 361.157,47.775 C360.941667,47.3216667 360.649833,46.9731667 360.2815,46.7295 C359.913167,46.4858333 359.428667,46.364 358.828,46.364 C358.272667,46.364 357.796667,46.4915 357.4,46.7465 C357.003333,47.0015 356.629333,47.3046667 356.278,47.656 L356.278,47.656 L356.21,47.656 L356.04,46.568 L354,46.568 L354,55 L356.499,55 Z M371.068,55 L371.068,49.305 C371.589333,48.761 372.065333,48.489 372.496,48.489 C372.858667,48.489 373.122167,48.6023333 373.2865,48.829 C373.450833,49.0556667 373.533,49.475 373.533,50.087 L373.533,50.087 L373.533,55 L376.032,55 L376.032,49.305 C376.576,48.761 377.057667,48.489 377.477,48.489 C377.839667,48.489 378.103167,48.6023333 378.2675,48.829 C378.431833,49.0556667 378.514,49.475 378.514,50.087 L378.514,50.087 L378.514,55 L381.013,55 L381.013,49.764 C381.013,48.71 380.8005,47.8798333 380.3755,47.2735 C379.9505,46.6671667 379.284667,46.364 378.378,46.364 C377.811333,46.364 377.321167,46.5028333 376.9075,46.7805 C376.493833,47.0581667 376.1,47.3896667 375.726,47.775 C375.510667,47.3216667 375.218833,46.9731667 374.8505,46.7295 C374.482167,46.4858333 373.997667,46.364 373.397,46.364 C372.841667,46.364 372.365667,46.4915 371.969,46.7465 C371.572333,47.0015 371.198333,47.3046667 370.847,47.656 L370.847,47.656 L370.779,47.656 L370.609,46.568 L368.569,46.568 L368.569,55 L371.068,55 Z" id="323mm" fill="#093169" fill-rule="nonzero"></path>
    </g>
</svg>