<?xml version="1.0" encoding="UTF-8"?>
<svg width="600px" height="316px" viewBox="0 0 600 316" version="1.1" xmlns="http://www.w3.org/2000/svg" xmlns:xlink="http://www.w3.org/1999/xlink">
    <title>corbels/A130L-side</title>
    <g id="corbels/A130L-side" stroke="none" stroke-width="1" fill="none" fill-rule="evenodd">
        <rect fill="#F5F9FF" x="0" y="0" width="600" height="316"></rect>
        <g id="Group-5" transform="translate(35.000000, 35.000000)">
            <g id="Group-4" transform="translate(360.000000, 0.000000)">
                <g id="Group-3" transform="translate(37.500000, 0.000000)">
                    <g id="Group-2" transform="translate(30.000000, 67.000000)" stroke="#CBD8F2">
                        <rect id="Rectangle" fill="#FFFFFF" x="0" y="0" width="103" height="103"></rect>
                        <rect id="Rectangle" fill="#FFFFFF" x="0" y="0" width="103" height="25"></rect>
                        <line x1="56" y1="0.5" x2="56" y2="103.5" id="Line" stroke-dasharray="6"></line>
                    </g>
                    <polyline id="Rectangle-Copy-2" stroke="#CBD8F2" transform="translate(7.500000, 119.000000) rotate(-90.000000) translate(-7.500000, -119.000000) " points="-44 126.5 -44 111.5 59 111.5 59 126.5"></polyline>
                    <polyline id="Rectangle-Copy-2" stroke="#CBD8F2" transform="translate(81.500000, 44.500000) rotate(-360.000000) translate(-81.500000, -44.500000) " points="30 52 30 37 133 37 133 52"></polyline>
                    <path d="M61.695,17 L61.695,14.892 L59.519,14.892 C59.2583333,14.892 58.9608333,14.9061667 58.6265,14.9345 C58.2921667,14.9628333 57.989,14.994 57.717,15.028 C58.159,14.5746667 58.5868333,14.1128333 59.0005,13.6425 C59.4141667,13.1721667 59.7825,12.7018333 60.1055,12.2315 C60.4285,11.7611667 60.6863333,11.2908333 60.879,10.8205 C61.0716667,10.3501667 61.168,9.88833333 61.168,9.435 C61.168,8.91366667 61.083,8.44333333 60.913,8.024 C60.743,7.60466667 60.4993333,7.24483333 60.182,6.9445 C59.8646667,6.64416667 59.4878333,6.41183333 59.0515,6.2475 C58.6151667,6.08316667 58.1306667,6.001 57.598,6.001 C56.8273333,6.001 56.1643333,6.1455 55.609,6.4345 C55.0536667,6.7235 54.5096667,7.15133333 53.977,7.718 L53.977,7.718 L55.337,9.061 C55.609,8.76633333 55.898,8.5085 56.204,8.2875 C56.51,8.0665 56.8613333,7.956 57.258,7.956 C57.734,7.956 58.108,8.09483333 58.38,8.3725 C58.652,8.65016667 58.788,9.05533333 58.788,9.588 C58.788,9.97333333 58.6718333,10.3785 58.4395,10.8035 C58.2071667,11.2285 57.8841667,11.6875 57.4705,12.1805 C57.0568333,12.6735 56.5638333,13.2005 55.9915,13.7615 C55.4191667,14.3225 54.7873333,14.926 54.096,15.572 L54.096,15.572 L54.096,17 L61.695,17 Z M70.501,17 L70.501,14.977 L68.478,14.977 L68.478,6.205 L66.642,6.205 C66.2566667,6.43166667 65.86,6.62433333 65.452,6.783 C65.044,6.94166667 64.5453333,7.07766667 63.956,7.191 L63.956,7.191 L63.956,8.738 L65.979,8.738 L65.979,14.977 L63.633,14.977 L63.633,17 L70.501,17 Z M75.618,17.204 C76.1393333,17.204 76.6408333,17.119 77.1225,16.949 C77.6041667,16.779 78.0263333,16.5325 78.389,16.2095 C78.7516667,15.8865 79.0406667,15.4926667 79.256,15.028 C79.4713333,14.5633333 79.579,14.0306667 79.579,13.43 C79.579,12.852 79.4883333,12.3533333 79.307,11.934 C79.1256667,11.5146667 78.8763333,11.169 78.559,10.897 C78.2416667,10.625 77.8761667,10.421 77.4625,10.285 C77.0488333,10.149 76.6096667,10.081 76.145,10.081 C75.9183333,10.081 75.7115,10.1008333 75.5245,10.1405 C75.3375,10.1801667 75.142,10.2453333 74.938,10.336 L74.938,10.336 L75.125,8.313 L79.086,8.313 L79.086,6.205 L72.966,6.205 L72.66,11.662 L73.782,12.376 C73.9406667,12.274 74.0851667,12.189 74.2155,12.121 C74.3458333,12.053 74.4705,11.9963333 74.5895,11.951 C74.7085,11.9056667 74.8303333,11.8745 74.955,11.8575 C75.0796667,11.8405 75.2213333,11.832 75.38,11.832 C75.89,11.832 76.3008333,11.9736667 76.6125,12.257 C76.9241667,12.5403333 77.08,12.954 77.08,13.498 C77.08,14.0533333 76.9156667,14.4726667 76.587,14.756 C76.2583333,15.0393333 75.8163333,15.181 75.261,15.181 C74.7963333,15.181 74.3741667,15.0761667 73.9945,14.8665 C73.6148333,14.6568333 73.2606667,14.4046667 72.932,14.11 L72.932,14.11 L71.81,15.691 C72.2406667,16.1216667 72.762,16.4815 73.374,16.7705 C73.986,17.0595 74.734,17.204 75.618,17.204 Z M83.999,17 L83.999,11.305 C84.5203333,10.761 84.9963333,10.489 85.427,10.489 C85.7896667,10.489 86.0531667,10.6023333 86.2175,10.829 C86.3818333,11.0556667 86.464,11.475 86.464,12.087 L86.464,12.087 L86.464,17 L88.963,17 L88.963,11.305 C89.507,10.761 89.9886667,10.489 90.408,10.489 C90.7706667,10.489 91.0341667,10.6023333 91.1985,10.829 C91.3628333,11.0556667 91.445,11.475 91.445,12.087 L91.445,12.087 L91.445,17 L93.944,17 L93.944,11.764 C93.944,10.71 93.7315,9.87983333 93.3065,9.2735 C92.8815,8.66716667 92.2156667,8.364 91.309,8.364 C90.7423333,8.364 90.2521667,8.50283333 89.8385,8.7805 C89.4248333,9.05816667 89.031,9.38966667 88.657,9.775 C88.4416667,9.32166667 88.1498333,8.97316667 87.7815,8.7295 C87.4131667,8.48583333 86.9286667,8.364 86.328,8.364 C85.7726667,8.364 85.2966667,8.4915 84.9,8.7465 C84.5033333,9.0015 84.1293333,9.30466667 83.778,9.656 L83.778,9.656 L83.71,9.656 L83.54,8.568 L81.5,8.568 L81.5,17 L83.999,17 Z M98.568,17 L98.568,11.305 C99.0893333,10.761 99.5653333,10.489 99.996,10.489 C100.358667,10.489 100.622167,10.6023333 100.7865,10.829 C100.950833,11.0556667 101.033,11.475 101.033,12.087 L101.033,12.087 L101.033,17 L103.532,17 L103.532,11.305 C104.076,10.761 104.557667,10.489 104.977,10.489 C105.339667,10.489 105.603167,10.6023333 105.7675,10.829 C105.931833,11.0556667 106.014,11.475 106.014,12.087 L106.014,12.087 L106.014,17 L108.513,17 L108.513,11.764 C108.513,10.71 108.3005,9.87983333 107.8755,9.2735 C107.4505,8.66716667 106.784667,8.364 105.878,8.364 C105.311333,8.364 104.821167,8.50283333 104.4075,8.7805 C103.993833,9.05816667 103.6,9.38966667 103.226,9.775 C103.010667,9.32166667 102.718833,8.97316667 102.3505,8.7295 C101.982167,8.48583333 101.497667,8.364 100.897,8.364 C100.341667,8.364 99.8656667,8.4915 99.469,8.7465 C99.0723333,9.0015 98.6983333,9.30466667 98.347,9.656 L98.347,9.656 L98.279,9.656 L98.109,8.568 L96.069,8.568 L96.069,17 L98.568,17 Z" id="215mm" fill="#093169" fill-rule="nonzero"></path>
                </g>
                <path d="M-8.305,125 L-8.305,122.892 L-10.481,122.892 C-10.7416667,122.892 -11.0391667,122.906167 -11.3735,122.9345 C-11.7078333,122.962833 -12.011,122.994 -12.283,123.028 C-11.841,122.574667 -11.4131667,122.112833 -10.9995,121.6425 C-10.5858333,121.172167 -10.2175,120.701833 -9.8945,120.2315 C-9.5715,119.761167 -9.31366667,119.290833 -9.121,118.8205 C-8.92833333,118.350167 -8.832,117.888333 -8.832,117.435 C-8.832,116.913667 -8.917,116.443333 -9.087,116.024 C-9.257,115.604667 -9.50066667,115.244833 -9.818,114.9445 C-10.1353333,114.644167 -10.5121667,114.411833 -10.9485,114.2475 C-11.3848333,114.083167 -11.8693333,114.001 -12.402,114.001 C-13.1726667,114.001 -13.8356667,114.1455 -14.391,114.4345 C-14.9463333,114.7235 -15.4903333,115.151333 -16.023,115.718 L-16.023,115.718 L-14.663,117.061 C-14.391,116.766333 -14.102,116.5085 -13.796,116.2875 C-13.49,116.0665 -13.1386667,115.956 -12.742,115.956 C-12.266,115.956 -11.892,116.094833 -11.62,116.3725 C-11.348,116.650167 -11.212,117.055333 -11.212,117.588 C-11.212,117.973333 -11.3281667,118.3785 -11.5605,118.8035 C-11.7928333,119.2285 -12.1158333,119.6875 -12.5295,120.1805 C-12.9431667,120.6735 -13.4361667,121.2005 -14.0085,121.7615 C-14.5808333,122.3225 -15.2126667,122.926 -15.904,123.572 L-15.904,123.572 L-15.904,125 L-8.305,125 Z M0.501,125 L0.501,122.977 L-1.522,122.977 L-1.522,114.205 L-3.358,114.205 C-3.74333333,114.431667 -4.14,114.624333 -4.548,114.783 C-4.956,114.941667 -5.45466667,115.077667 -6.044,115.191 L-6.044,115.191 L-6.044,116.738 L-4.021,116.738 L-4.021,122.977 L-6.367,122.977 L-6.367,125 L0.501,125 Z M5.618,125.204 C6.13933333,125.204 6.64083333,125.119 7.1225,124.949 C7.60416667,124.779 8.02633333,124.5325 8.389,124.2095 C8.75166667,123.8865 9.04066667,123.492667 9.256,123.028 C9.47133333,122.563333 9.579,122.030667 9.579,121.43 C9.579,120.852 9.48833333,120.353333 9.307,119.934 C9.12566667,119.514667 8.87633333,119.169 8.559,118.897 C8.24166667,118.625 7.87616667,118.421 7.4625,118.285 C7.04883333,118.149 6.60966667,118.081 6.145,118.081 C5.91833333,118.081 5.7115,118.100833 5.5245,118.1405 C5.3375,118.180167 5.142,118.245333 4.938,118.336 L4.938,118.336 L5.125,116.313 L9.086,116.313 L9.086,114.205 L2.966,114.205 L2.66,119.662 L3.782,120.376 C3.94066667,120.274 4.08516667,120.189 4.2155,120.121 C4.34583333,120.053 4.4705,119.996333 4.5895,119.951 C4.7085,119.905667 4.83033333,119.8745 4.955,119.8575 C5.07966667,119.8405 5.22133333,119.832 5.38,119.832 C5.89,119.832 6.30083333,119.973667 6.6125,120.257 C6.92416667,120.540333 7.08,120.954 7.08,121.498 C7.08,122.053333 6.91566667,122.472667 6.587,122.756 C6.25833333,123.039333 5.81633333,123.181 5.261,123.181 C4.79633333,123.181 4.37416667,123.076167 3.9945,122.8665 C3.61483333,122.656833 3.26066667,122.404667 2.932,122.11 L2.932,122.11 L1.81,123.691 C2.24066667,124.121667 2.762,124.4815 3.374,124.7705 C3.986,125.0595 4.734,125.204 5.618,125.204 Z M13.999,125 L13.999,119.305 C14.5203333,118.761 14.9963333,118.489 15.427,118.489 C15.7896667,118.489 16.0531667,118.602333 16.2175,118.829 C16.3818333,119.055667 16.464,119.475 16.464,120.087 L16.464,120.087 L16.464,125 L18.963,125 L18.963,119.305 C19.507,118.761 19.9886667,118.489 20.408,118.489 C20.7706667,118.489 21.0341667,118.602333 21.1985,118.829 C21.3628333,119.055667 21.445,119.475 21.445,120.087 L21.445,120.087 L21.445,125 L23.944,125 L23.944,119.764 C23.944,118.71 23.7315,117.879833 23.3065,117.2735 C22.8815,116.667167 22.2156667,116.364 21.309,116.364 C20.7423333,116.364 20.2521667,116.502833 19.8385,116.7805 C19.4248333,117.058167 19.031,117.389667 18.657,117.775 C18.4416667,117.321667 18.1498333,116.973167 17.7815,116.7295 C17.4131667,116.485833 16.9286667,116.364 16.328,116.364 C15.7726667,116.364 15.2966667,116.4915 14.9,116.7465 C14.5033333,117.0015 14.1293333,117.304667 13.778,117.656 L13.778,117.656 L13.71,117.656 L13.54,116.568 L11.5,116.568 L11.5,125 L13.999,125 Z M28.568,125 L28.568,119.305 C29.0893333,118.761 29.5653333,118.489 29.996,118.489 C30.3586667,118.489 30.6221667,118.602333 30.7865,118.829 C30.9508333,119.055667 31.033,119.475 31.033,120.087 L31.033,120.087 L31.033,125 L33.532,125 L33.532,119.305 C34.076,118.761 34.5576667,118.489 34.977,118.489 C35.3396667,118.489 35.6031667,118.602333 35.7675,118.829 C35.9318333,119.055667 36.014,119.475 36.014,120.087 L36.014,120.087 L36.014,125 L38.513,125 L38.513,119.764 C38.513,118.71 38.3005,117.879833 37.8755,117.2735 C37.4505,116.667167 36.7846667,116.364 35.878,116.364 C35.3113333,116.364 34.8211667,116.502833 34.4075,116.7805 C33.9938333,117.058167 33.6,117.389667 33.226,117.775 C33.0106667,117.321667 32.7188333,116.973167 32.3505,116.7295 C31.9821667,116.485833 31.4976667,116.364 30.897,116.364 C30.3416667,116.364 29.8656667,116.4915 29.469,116.7465 C29.0723333,117.0015 28.6983333,117.304667 28.347,117.656 L28.347,117.656 L28.279,117.656 L28.109,116.568 L26.069,116.568 L26.069,125 L28.568,125 Z" id="215mm" fill="#093169" fill-rule="nonzero" transform="translate(11.245000, 119.602500) rotate(-90.000000) translate(-11.245000, -119.602500) "></path>
            </g>
            <path d="M168,169.999574 L168.000271,169.854991 C124.974941,163.643713 89.9318499,132.755246 77.6821959,92.000645 L68,92.0003314 L68,67.0005741 L334,67.0005741 L334,169.999574 L168,169.999574 Z" id="Combined-Shape" stroke="#CBD8F2" fill="#FFFFFF"></path>
            <polyline id="Rectangle-Copy-2" stroke="#CBD8F2" transform="translate(201.000000, 44.500000) rotate(-360.000000) translate(-201.000000, -44.500000) " points="68 52 68 37 334 37 334 52"></polyline>
            <g id="Group" transform="translate(26.500000, 119.000000) rotate(-180.000000) translate(-26.500000, -119.000000) translate(0.000000, 67.000000)">
                <polyline id="Rectangle-Copy-2" stroke="#CBD8F2" transform="translate(7.500000, 52.000000) rotate(-270.000000) translate(-7.500000, -52.000000) " points="-44 59.5 -44 44.5 59 44.5 59 59.5"></polyline>
                <path d="M22.195,58 L22.195,55.892 L20.019,55.892 C19.7583333,55.892 19.4608333,55.9061667 19.1265,55.9345 C18.7921667,55.9628333 18.489,55.994 18.217,56.028 C18.659,55.5746667 19.0868333,55.1128333 19.5005,54.6425 C19.9141667,54.1721667 20.2825,53.7018333 20.6055,53.2315 C20.9285,52.7611667 21.1863333,52.2908333 21.379,51.8205 C21.5716667,51.3501667 21.668,50.8883333 21.668,50.435 C21.668,49.9136667 21.583,49.4433333 21.413,49.024 C21.243,48.6046667 20.9993333,48.2448333 20.682,47.9445 C20.3646667,47.6441667 19.9878333,47.4118333 19.5515,47.2475 C19.1151667,47.0831667 18.6306667,47.001 18.098,47.001 C17.3273333,47.001 16.6643333,47.1455 16.109,47.4345 C15.5536667,47.7235 15.0096667,48.1513333 14.477,48.718 L14.477,48.718 L15.837,50.061 C16.109,49.7663333 16.398,49.5085 16.704,49.2875 C17.01,49.0665 17.3613333,48.956 17.758,48.956 C18.234,48.956 18.608,49.0948333 18.88,49.3725 C19.152,49.6501667 19.288,50.0553333 19.288,50.588 C19.288,50.9733333 19.1718333,51.3785 18.9395,51.8035 C18.7071667,52.2285 18.3841667,52.6875 17.9705,53.1805 C17.5568333,53.6735 17.0638333,54.2005 16.4915,54.7615 C15.9191667,55.3225 15.2873333,55.926 14.596,56.572 L14.596,56.572 L14.596,58 L22.195,58 Z M31.001,58 L31.001,55.977 L28.978,55.977 L28.978,47.205 L27.142,47.205 C26.7566667,47.4316667 26.36,47.6243333 25.952,47.783 C25.544,47.9416667 25.0453333,48.0776667 24.456,48.191 L24.456,48.191 L24.456,49.738 L26.479,49.738 L26.479,55.977 L24.133,55.977 L24.133,58 L31.001,58 Z M36.118,58.204 C36.6393333,58.204 37.1408333,58.119 37.6225,57.949 C38.1041667,57.779 38.5263333,57.5325 38.889,57.2095 C39.2516667,56.8865 39.5406667,56.4926667 39.756,56.028 C39.9713333,55.5633333 40.079,55.0306667 40.079,54.43 C40.079,53.852 39.9883333,53.3533333 39.807,52.934 C39.6256667,52.5146667 39.3763333,52.169 39.059,51.897 C38.7416667,51.625 38.3761667,51.421 37.9625,51.285 C37.5488333,51.149 37.1096667,51.081 36.645,51.081 C36.4183333,51.081 36.2115,51.1008333 36.0245,51.1405 C35.8375,51.1801667 35.642,51.2453333 35.438,51.336 L35.438,51.336 L35.625,49.313 L39.586,49.313 L39.586,47.205 L33.466,47.205 L33.16,52.662 L34.282,53.376 C34.4406667,53.274 34.5851667,53.189 34.7155,53.121 C34.8458333,53.053 34.9705,52.9963333 35.0895,52.951 C35.2085,52.9056667 35.3303333,52.8745 35.455,52.8575 C35.5796667,52.8405 35.7213333,52.832 35.88,52.832 C36.39,52.832 36.8008333,52.9736667 37.1125,53.257 C37.4241667,53.5403333 37.58,53.954 37.58,54.498 C37.58,55.0533333 37.4156667,55.4726667 37.087,55.756 C36.7583333,56.0393333 36.3163333,56.181 35.761,56.181 C35.2963333,56.181 34.8741667,56.0761667 34.4945,55.8665 C34.1148333,55.6568333 33.7606667,55.4046667 33.432,55.11 L33.432,55.11 L32.31,56.691 C32.7406667,57.1216667 33.262,57.4815 33.874,57.7705 C34.486,58.0595 35.234,58.204 36.118,58.204 Z M44.499,58 L44.499,52.305 C45.0203333,51.761 45.4963333,51.489 45.927,51.489 C46.2896667,51.489 46.5531667,51.6023333 46.7175,51.829 C46.8818333,52.0556667 46.964,52.475 46.964,53.087 L46.964,53.087 L46.964,58 L49.463,58 L49.463,52.305 C50.007,51.761 50.4886667,51.489 50.908,51.489 C51.2706667,51.489 51.5341667,51.6023333 51.6985,51.829 C51.8628333,52.0556667 51.945,52.475 51.945,53.087 L51.945,53.087 L51.945,58 L54.444,58 L54.444,52.764 C54.444,51.71 54.2315,50.8798333 53.8065,50.2735 C53.3815,49.6671667 52.7156667,49.364 51.809,49.364 C51.2423333,49.364 50.7521667,49.5028333 50.3385,49.7805 C49.9248333,50.0581667 49.531,50.3896667 49.157,50.775 C48.9416667,50.3216667 48.6498333,49.9731667 48.2815,49.7295 C47.9131667,49.4858333 47.4286667,49.364 46.828,49.364 C46.2726667,49.364 45.7966667,49.4915 45.4,49.7465 C45.0033333,50.0015 44.6293333,50.3046667 44.278,50.656 L44.278,50.656 L44.21,50.656 L44.04,49.568 L42,49.568 L42,58 L44.499,58 Z M59.068,58 L59.068,52.305 C59.5893333,51.761 60.0653333,51.489 60.496,51.489 C60.8586667,51.489 61.1221667,51.6023333 61.2865,51.829 C61.4508333,52.0556667 61.533,52.475 61.533,53.087 L61.533,53.087 L61.533,58 L64.032,58 L64.032,52.305 C64.576,51.761 65.0576667,51.489 65.477,51.489 C65.8396667,51.489 66.1031667,51.6023333 66.2675,51.829 C66.4318333,52.0556667 66.514,52.475 66.514,53.087 L66.514,53.087 L66.514,58 L69.013,58 L69.013,52.764 C69.013,51.71 68.8005,50.8798333 68.3755,50.2735 C67.9505,49.6671667 67.2846667,49.364 66.378,49.364 C65.8113333,49.364 65.3211667,49.5028333 64.9075,49.7805 C64.4938333,50.0581667 64.1,50.3896667 63.726,50.775 C63.5106667,50.3216667 63.2188333,49.9731667 62.8505,49.7295 C62.4821667,49.4858333 61.9976667,49.364 61.397,49.364 C60.8416667,49.364 60.3656667,49.4915 59.969,49.7465 C59.5723333,50.0015 59.1983333,50.3046667 58.847,50.656 L58.847,50.656 L58.779,50.656 L58.609,49.568 L56.569,49.568 L56.569,58 L59.068,58 Z" id="215mm" fill="#093169" fill-rule="nonzero" transform="translate(41.745000, 52.602500) rotate(-270.000000) translate(-41.745000, -52.602500) "></path>
            </g>
            <polyline id="Rectangle-Copy-2" stroke="#CBD8F2" transform="translate(250.500000, 192.500000) rotate(-180.000000) translate(-250.500000, -192.500000) " points="167 200 167 185 334 185 334 200"></polyline>
            <path d="M177.666,17.204 C178.187333,17.204 178.688833,17.119 179.1705,16.949 C179.652167,16.779 180.074333,16.5325 180.437,16.2095 C180.799667,15.8865 181.088667,15.4926667 181.304,15.028 C181.519333,14.5633333 181.627,14.0306667 181.627,13.43 C181.627,12.852 181.536333,12.3533333 181.355,11.934 C181.173667,11.5146667 180.924333,11.169 180.607,10.897 C180.289667,10.625 179.924167,10.421 179.5105,10.285 C179.096833,10.149 178.657667,10.081 178.193,10.081 C177.966333,10.081 177.7595,10.1008333 177.5725,10.1405 C177.3855,10.1801667 177.19,10.2453333 176.986,10.336 L176.986,10.336 L177.173,8.313 L181.134,8.313 L181.134,6.205 L175.014,6.205 L174.708,11.662 L175.83,12.376 C175.988667,12.274 176.133167,12.189 176.2635,12.121 C176.393833,12.053 176.5185,11.9963333 176.6375,11.951 C176.7565,11.9056667 176.878333,11.8745 177.003,11.8575 C177.127667,11.8405 177.269333,11.832 177.428,11.832 C177.938,11.832 178.348833,11.9736667 178.6605,12.257 C178.972167,12.5403333 179.128,12.954 179.128,13.498 C179.128,14.0533333 178.963667,14.4726667 178.635,14.756 C178.306333,15.0393333 177.864333,15.181 177.309,15.181 C176.844333,15.181 176.422167,15.0761667 176.0425,14.8665 C175.662833,14.6568333 175.308667,14.4046667 174.98,14.11 L174.98,14.11 L173.858,15.691 C174.288667,16.1216667 174.81,16.4815 175.422,16.7705 C176.034,17.0595 176.782,17.204 177.666,17.204 Z M186.642,17.204 C187.163333,17.204 187.664833,17.119 188.1465,16.949 C188.628167,16.779 189.050333,16.5325 189.413,16.2095 C189.775667,15.8865 190.064667,15.4926667 190.28,15.028 C190.495333,14.5633333 190.603,14.0306667 190.603,13.43 C190.603,12.852 190.512333,12.3533333 190.331,11.934 C190.149667,11.5146667 189.900333,11.169 189.583,10.897 C189.265667,10.625 188.900167,10.421 188.4865,10.285 C188.072833,10.149 187.633667,10.081 187.169,10.081 C186.942333,10.081 186.7355,10.1008333 186.5485,10.1405 C186.3615,10.1801667 186.166,10.2453333 185.962,10.336 L185.962,10.336 L186.149,8.313 L190.11,8.313 L190.11,6.205 L183.99,6.205 L183.684,11.662 L184.806,12.376 C184.964667,12.274 185.109167,12.189 185.2395,12.121 C185.369833,12.053 185.4945,11.9963333 185.6135,11.951 C185.7325,11.9056667 185.854333,11.8745 185.979,11.8575 C186.103667,11.8405 186.245333,11.832 186.404,11.832 C186.914,11.832 187.324833,11.9736667 187.6365,12.257 C187.948167,12.5403333 188.104,12.954 188.104,13.498 C188.104,14.0533333 187.939667,14.4726667 187.611,14.756 C187.282333,15.0393333 186.840333,15.181 186.285,15.181 C185.820333,15.181 185.398167,15.0761667 185.0185,14.8665 C184.638833,14.6568333 184.284667,14.4046667 183.956,14.11 L183.956,14.11 L182.834,15.691 C183.264667,16.1216667 183.786,16.4815 184.398,16.7705 C185.01,17.0595 185.758,17.204 186.642,17.204 Z M199.647,17 L199.647,14.892 L197.471,14.892 C197.210333,14.892 196.912833,14.9061667 196.5785,14.9345 C196.244167,14.9628333 195.941,14.994 195.669,15.028 C196.111,14.5746667 196.538833,14.1128333 196.9525,13.6425 C197.366167,13.1721667 197.7345,12.7018333 198.0575,12.2315 C198.3805,11.7611667 198.638333,11.2908333 198.831,10.8205 C199.023667,10.3501667 199.12,9.88833333 199.12,9.435 C199.12,8.91366667 199.035,8.44333333 198.865,8.024 C198.695,7.60466667 198.451333,7.24483333 198.134,6.9445 C197.816667,6.64416667 197.439833,6.41183333 197.0035,6.2475 C196.567167,6.08316667 196.082667,6.001 195.55,6.001 C194.779333,6.001 194.116333,6.1455 193.561,6.4345 C193.005667,6.7235 192.461667,7.15133333 191.929,7.718 L191.929,7.718 L193.289,9.061 C193.561,8.76633333 193.85,8.5085 194.156,8.2875 C194.462,8.0665 194.813333,7.956 195.21,7.956 C195.686,7.956 196.06,8.09483333 196.332,8.3725 C196.604,8.65016667 196.74,9.05533333 196.74,9.588 C196.74,9.97333333 196.623833,10.3785 196.3915,10.8035 C196.159167,11.2285 195.836167,11.6875 195.4225,12.1805 C195.008833,12.6735 194.515833,13.2005 193.9435,13.7615 C193.371167,14.3225 192.739333,14.926 192.048,15.572 L192.048,15.572 L192.048,17 L199.647,17 Z M203.999,17 L203.999,11.305 C204.520333,10.761 204.996333,10.489 205.427,10.489 C205.789667,10.489 206.053167,10.6023333 206.2175,10.829 C206.381833,11.0556667 206.464,11.475 206.464,12.087 L206.464,12.087 L206.464,17 L208.963,17 L208.963,11.305 C209.507,10.761 209.988667,10.489 210.408,10.489 C210.770667,10.489 211.034167,10.6023333 211.1985,10.829 C211.362833,11.0556667 211.445,11.475 211.445,12.087 L211.445,12.087 L211.445,17 L213.944,17 L213.944,11.764 C213.944,10.71 213.7315,9.87983333 213.3065,9.2735 C212.8815,8.66716667 212.215667,8.364 211.309,8.364 C210.742333,8.364 210.252167,8.50283333 209.8385,8.7805 C209.424833,9.05816667 209.031,9.38966667 208.657,9.775 C208.441667,9.32166667 208.149833,8.97316667 207.7815,8.7295 C207.413167,8.48583333 206.928667,8.364 206.328,8.364 C205.772667,8.364 205.296667,8.4915 204.9,8.7465 C204.503333,9.0015 204.129333,9.30466667 203.778,9.656 L203.778,9.656 L203.71,9.656 L203.54,8.568 L201.5,8.568 L201.5,17 L203.999,17 Z M218.568,17 L218.568,11.305 C219.089333,10.761 219.565333,10.489 219.996,10.489 C220.358667,10.489 220.622167,10.6023333 220.7865,10.829 C220.950833,11.0556667 221.033,11.475 221.033,12.087 L221.033,12.087 L221.033,17 L223.532,17 L223.532,11.305 C224.076,10.761 224.557667,10.489 224.977,10.489 C225.339667,10.489 225.603167,10.6023333 225.7675,10.829 C225.931833,11.0556667 226.014,11.475 226.014,12.087 L226.014,12.087 L226.014,17 L228.513,17 L228.513,11.764 C228.513,10.71 228.3005,9.87983333 227.8755,9.2735 C227.4505,8.66716667 226.784667,8.364 225.878,8.364 C225.311333,8.364 224.821167,8.50283333 224.4075,8.7805 C223.993833,9.05816667 223.6,9.38966667 223.226,9.775 C223.010667,9.32166667 222.718833,8.97316667 222.3505,8.7295 C221.982167,8.48583333 221.497667,8.364 220.897,8.364 C220.341667,8.364 219.865667,8.4915 219.469,8.7465 C219.072333,9.0015 218.698333,9.30466667 218.347,9.656 L218.347,9.656 L218.279,9.656 L218.109,8.568 L216.069,8.568 L216.069,17 L218.568,17 Z" id="552mm" fill="#093169" fill-rule="nonzero"></path>
            <path d="M226.598,232.204 C227.142,232.204 227.657667,232.133167 228.145,231.9915 C228.632333,231.849833 229.057333,231.645833 229.42,231.3795 C229.782667,231.113167 230.071667,230.7845 230.287,230.3935 C230.502333,230.0025 230.61,229.557667 230.61,229.059 C230.61,228.356333 230.408833,227.786833 230.0065,227.3505 C229.604167,226.914167 229.091333,226.605333 228.468,226.424 L228.468,226.424 L228.468,226.356 C229.046,226.106667 229.490833,225.7865 229.8025,225.3955 C230.114167,225.0045 230.27,224.525667 230.27,223.959 C230.27,223.483 230.179333,223.063667 229.998,222.701 C229.816667,222.338333 229.5645,222.0295 229.2415,221.7745 C228.9185,221.5195 228.5275,221.326833 228.0685,221.1965 C227.6095,221.066167 227.102333,221.001 226.547,221.001 C225.878333,221.001 225.269167,221.122833 224.7195,221.3665 C224.169833,221.610167 223.645667,221.947333 223.147,222.378 L223.147,222.378 L224.405,223.908 C224.745,223.613333 225.070833,223.381 225.3825,223.211 C225.694167,223.041 226.042667,222.956 226.428,222.956 C226.858667,222.956 227.187333,223.060833 227.414,223.2705 C227.640667,223.480167 227.754,223.772 227.754,224.146 C227.754,224.361333 227.7115,224.556833 227.6265,224.7325 C227.5415,224.908167 227.399833,225.061167 227.2015,225.1915 C227.003167,225.321833 226.7425,225.421 226.4195,225.489 C226.0965,225.557 225.691333,225.591 225.204,225.591 L225.204,225.591 L225.204,227.359 C225.793333,227.359 226.275,227.395833 226.649,227.4695 C227.023,227.543167 227.317667,227.645167 227.533,227.7755 C227.748333,227.905833 227.8985,228.067333 227.9835,228.26 C228.0685,228.452667 228.111,228.668 228.111,228.906 C228.111,229.314 227.952333,229.6285 227.635,229.8495 C227.317667,230.0705 226.892667,230.181 226.36,230.181 C225.895333,230.181 225.4675,230.079 225.0765,229.875 C224.6855,229.671 224.325667,229.410333 223.997,229.093 L223.997,229.093 L222.841,230.674 C223.237667,231.138667 223.742,231.509833 224.354,231.7875 C224.966,232.065167 225.714,232.204 226.598,232.204 Z M238.77,232 L238.77,229.416 L240.011,229.416 L240.011,227.512 L238.77,227.512 L238.77,221.205 L235.71,221.205 L231.766,227.699 L231.766,229.416 L236.441,229.416 L236.441,232 L238.77,232 Z M236.441,227.512 L234.163,227.512 L235.591,225.166 C235.749667,224.86 235.902667,224.554 236.05,224.248 C236.197333,223.942 236.339,223.641667 236.475,223.347 L236.475,223.347 L236.543,223.347 C236.520333,223.687 236.497667,224.0865 236.475,224.5455 C236.452333,225.0045 236.441,225.409667 236.441,225.761 L236.441,225.761 L236.441,227.512 Z M244.907,232.204 C245.485,232.204 246.012,232.082167 246.488,231.8385 C246.964,231.594833 247.369167,231.235 247.7035,230.759 C248.037833,230.283 248.2985,229.693667 248.4855,228.991 C248.6725,228.288333 248.766,227.478 248.766,226.56 C248.766,225.642 248.6725,224.837333 248.4855,224.146 C248.2985,223.454667 248.037833,222.873833 247.7035,222.4035 C247.369167,221.933167 246.964,221.581833 246.488,221.3495 C246.012,221.117167 245.485,221.001 244.907,221.001 C244.329,221.001 243.802,221.117167 243.326,221.3495 C242.85,221.581833 242.444833,221.933167 242.1105,222.4035 C241.776167,222.873833 241.5155,223.454667 241.3285,224.146 C241.1415,224.837333 241.048,225.642 241.048,226.56 C241.048,227.478 241.1415,228.288333 241.3285,228.991 C241.5155,229.693667 241.776167,230.283 242.1105,230.759 C242.444833,231.235 242.85,231.594833 243.326,231.8385 C243.802,232.082167 244.329,232.204 244.907,232.204 Z M244.907,230.266 C244.703,230.266 244.510333,230.212167 244.329,230.1045 C244.147667,229.996833 243.989,229.801333 243.853,229.518 C243.717,229.234667 243.609333,228.855 243.53,228.379 C243.450667,227.903 243.411,227.296667 243.411,226.56 C243.411,225.823333 243.450667,225.219833 243.53,224.7495 C243.609333,224.279167 243.717,223.910833 243.853,223.6445 C243.989,223.378167 244.147667,223.194 244.329,223.092 C244.510333,222.99 244.703,222.939 244.907,222.939 C245.122333,222.939 245.320667,222.99 245.502,223.092 C245.683333,223.194 245.842,223.378167 245.978,223.6445 C246.114,223.910833 246.218833,224.279167 246.2925,224.7495 C246.366167,225.219833 246.403,225.823333 246.403,226.56 C246.403,227.296667 246.366167,227.903 246.2925,228.379 C246.218833,228.855 246.114,229.234667 245.978,229.518 C245.842,229.801333 245.683333,229.996833 245.502,230.1045 C245.320667,230.212167 245.122333,230.266 244.907,230.266 Z M252.999,232 L252.999,226.305 C253.520333,225.761 253.996333,225.489 254.427,225.489 C254.789667,225.489 255.053167,225.602333 255.2175,225.829 C255.381833,226.055667 255.464,226.475 255.464,227.087 L255.464,227.087 L255.464,232 L257.963,232 L257.963,226.305 C258.507,225.761 258.988667,225.489 259.408,225.489 C259.770667,225.489 260.034167,225.602333 260.1985,225.829 C260.362833,226.055667 260.445,226.475 260.445,227.087 L260.445,227.087 L260.445,232 L262.944,232 L262.944,226.764 C262.944,225.71 262.7315,224.879833 262.3065,224.2735 C261.8815,223.667167 261.215667,223.364 260.309,223.364 C259.742333,223.364 259.252167,223.502833 258.8385,223.7805 C258.424833,224.058167 258.031,224.389667 257.657,224.775 C257.441667,224.321667 257.149833,223.973167 256.7815,223.7295 C256.413167,223.485833 255.928667,223.364 255.328,223.364 C254.772667,223.364 254.296667,223.4915 253.9,223.7465 C253.503333,224.0015 253.129333,224.304667 252.778,224.656 L252.778,224.656 L252.71,224.656 L252.54,223.568 L250.5,223.568 L250.5,232 L252.999,232 Z M267.568,232 L267.568,226.305 C268.089333,225.761 268.565333,225.489 268.996,225.489 C269.358667,225.489 269.622167,225.602333 269.7865,225.829 C269.950833,226.055667 270.033,226.475 270.033,227.087 L270.033,227.087 L270.033,232 L272.532,232 L272.532,226.305 C273.076,225.761 273.557667,225.489 273.977,225.489 C274.339667,225.489 274.603167,225.602333 274.7675,225.829 C274.931833,226.055667 275.014,226.475 275.014,227.087 L275.014,227.087 L275.014,232 L277.513,232 L277.513,226.764 C277.513,225.71 277.3005,224.879833 276.8755,224.2735 C276.4505,223.667167 275.784667,223.364 274.878,223.364 C274.311333,223.364 273.821167,223.502833 273.4075,223.7805 C272.993833,224.058167 272.6,224.389667 272.226,224.775 C272.010667,224.321667 271.718833,223.973167 271.3505,223.7295 C270.982167,223.485833 270.497667,223.364 269.897,223.364 C269.341667,223.364 268.865667,223.4915 268.469,223.7465 C268.072333,224.0015 267.698333,224.304667 267.347,224.656 L267.347,224.656 L267.279,224.656 L267.109,223.568 L265.069,223.568 L265.069,232 L267.568,232 Z" id="340mm" fill="#093169" fill-rule="nonzero"></path>
        </g>
    </g>
</svg>