<?xml version="1.0" encoding="UTF-8"?>
<svg width="64px" height="64px" viewBox="0 0 64 64" version="1.1" xmlns="http://www.w3.org/2000/svg" xmlns:xlink="http://www.w3.org/1999/xlink">
    <!-- Generator: Sketch 51.3 (57544) - http://www.bohemiancoding.com/sketch -->
    <title>Illustrations/cement-mixer</title>
    <desc>Created with Sketch.</desc>
    <defs></defs>
    <g id="Illustrations/cement-mixer" stroke="none" stroke-width="1" fill="none" fill-rule="evenodd">
        <path d="M50.7121875,37.1663358 L40.984241,34.2464736 L43.9005195,26.7627026 C47.236993,27.8742632 49.4399554,29.5525045 50.4526641,31.7562136 C51.4595492,33.9478275 51.0180011,36.1486995 50.7121875,37.1663358 Z M43.6835532,25.2018292 L43.0549033,25.0133835 L31.8492562,53.7764308 C31.2270272,55.375083 31.3387208,57.078112 32.1479022,58.3304842 C32.7374295,59.2441917 33.9854712,60.3621731 36.6165428,60.5022381 L46.6937558,60.5022381 C47.0869233,60.5022381 47.404832,60.1843294 47.404832,59.7910126 C47.404832,59.3978451 47.0869233,59.0799364 46.6937558,59.0799364 L36.6549188,59.080683 C35.0762759,58.9967635 33.9306697,58.4705492 33.3432329,57.5596788 C32.7807331,56.6877817 32.7175695,55.4667674 33.1747966,54.2920432 L40.4671354,35.5755977 L51.5477991,38.9022159 L51.8029922,38.3340418 C51.8683956,38.1896464 53.3816351,34.7507374 51.7532676,31.1801254 C50.5052258,28.4445278 47.7894881,26.4328481 43.6835532,25.2018292 Z M19.8265135,58.8667031 C18.4142164,59.4881855 16.8425917,59.5222312 15.4032671,58.9625685 C13.9640919,58.4030552 12.8298343,57.3164316 12.2083519,55.9027906 C11.5868695,54.4890003 11.5526745,52.9188687 12.1123372,51.4795442 C12.6725972,50.0409663 13.7584741,48.9061113 15.1722644,48.2846289 C15.9181329,47.9567156 16.7068571,47.7924603 17.4975224,47.7924603 C18.2057615,47.7924603 18.9154938,47.9247605 19.5953615,48.1892115 C21.0339394,48.7496208 22.1687944,49.8354978 22.7904261,51.2491388 C23.4119085,52.6629291 23.4459541,54.2330606 22.8864408,55.6723852 C22.3267781,57.1115604 21.2394079,58.2450714 19.8265135,58.8667031 Z M63.2881719,7.87991132 L63.2853348,7.87991132 L51.6152931,7.93531016 C48.0938084,7.93531016 46.0885497,9.23531634 44.9087485,12.2688134 L28.957168,53.2766467 C28.2502728,55.0898761 26.2777158,56.0235929 24.4408934,55.4937948 C24.8860253,53.8981291 24.7679108,52.2121229 24.0917762,50.6752904 C23.3172377,48.9138761 21.9035967,47.560711 20.1102273,46.8630738 C18.3174551,46.1646901 16.3598304,46.2066499 14.59976,46.9825322 C12.8383457,47.7569214 11.4844339,49.1705624 10.7875434,50.9640811 C10.7049678,51.1767171 10.63389,51.3914436 10.5720703,51.6082606 L0.902359735,48.9040208 C0.530396102,48.7993454 0.131554326,49.0184022 0.0262816001,49.3967868 C-0.0789911262,49.775022 0.141409646,50.1675922 0.519047553,50.2728649 L10.3167279,53.0135395 C10.2235504,54.1854266 10.4205074,55.3686621 10.9070018,56.4751457 C11.681391,58.23656 13.095032,59.5898745 14.8885507,60.286765 C15.7353615,60.6166195 16.6193538,60.7810242 17.5018528,60.7810242 C18.4873847,60.7810242 19.4708261,60.576153 20.3996153,60.1673066 C21.9413754,59.4895294 23.1707518,58.3212261 23.9211,56.8378513 C24.4329792,57.0006134 24.9542659,57.0824424 25.4691317,57.0824424 C27.534269,57.0824424 29.4890566,55.8323101 30.2827084,53.7943496 L46.2350355,12.7893534 C47.2042912,10.2962564 48.6627291,9.36896044 51.6188769,9.36896044 L63.2917557,9.32565677 C63.6843259,9.32416353 64.001488,8.99206915 63.9999947,8.59949894 C63.9979042,8.20916857 63.6799955,7.87991132 63.2881719,7.87991132 Z M9.56861962,7.68937516 L18.6544772,4.57823012 C21.0560392,4.21701774 23.5177785,4.48998021 25.7806195,5.36889549 L29.8062187,6.93484596 L17.0894226,39.623894 L13.0638235,38.0580929 C10.7973987,37.1755938 8.79632098,35.7107351 7.27173298,33.8191111 L2.57836127,25.6569657 L9.56861962,7.68937516 Z M38.7484275,10.4143709 C39.7468012,10.8026107 40.5340321,11.5563933 40.9649783,12.5369975 C41.3959245,13.5176018 41.4201149,14.6076598 41.031875,15.6061828 L31.2234434,40.8178808 C30.8344569,41.8162545 30.0806744,42.6042321 29.1000701,43.0351783 C28.1194659,43.4667218 27.0314984,43.4903149 26.0316315,43.1019257 L18.4149631,40.1387598 L31.1317591,7.45105562 L38.7484275,10.4143709 Z M12.5482111,39.3828867 L16.5730637,40.9486878 L17.8978575,41.4635536 L25.5154218,44.4267195 C26.153927,44.675641 26.8209529,44.7994297 27.4858883,44.7994297 C28.2289196,44.7994297 28.9713537,44.6444325 29.6718279,44.3371257 C31.0002055,43.7526754 32.0212763,42.6860611 32.5474906,41.3327466 L42.3551756,16.1216459 C42.8813899,14.7698246 42.8494348,13.2928707 42.2655818,11.9644931 C41.6817288,10.6361156 40.6151145,9.61429816 39.2618,9.08883046 L31.6451316,6.12551521 L30.3210844,5.60930554 L26.2954852,4.0435044 C23.7802883,3.06573729 21.0411069,2.76694193 18.3750938,3.18161195 L8.48214535,6.55646143 L1.00613923,25.7764241 L6.0663976,34.5757308 C7.81153569,36.7724217 10.0316703,38.4036263 12.5482111,39.3828867 Z" id="Fill-1" stroke="#CBD8F3" stroke-width="0.25" fill="#CBD8F2"></path>
    </g>
</svg>