<?xml version="1.0" encoding="UTF-8"?>
<svg width="64px" height="64px" viewBox="0 0 64 64" version="1.1" xmlns="http://www.w3.org/2000/svg" xmlns:xlink="http://www.w3.org/1999/xlink">
    <title>Illustrations/colours</title>
    <g id="Illustrations/colours" stroke="none" stroke-width="1" fill="none" fill-rule="evenodd">
        <path d="M32,6.64213129e-12 L31.9996025,14.085 L56.7071068,38.7928932 L55.2928932,40.2071068 L52.0206025,36.935 L26.6464466,62.3093975 L1.19060249,36.8535534 L26.5646025,11.479 L22.7928932,7.70710678 L24.2071068,6.29289322 L29.9996025,12.085 L30,6.71596112e-12 L32,6.64213129e-12 Z M55,46.4835395 L56.0538402,47.6875392 C59.2268735,51.3603539 60.8285714,54.1326993 60.8285714,56.1714286 C60.8285714,59.3904597 58.2190311,62 55,62 C51.7809689,62 49.1714286,59.3904597 49.1714286,56.1714286 C49.1714286,54.068989 50.8747968,51.1863659 54.2482343,47.3405697 L54.2482343,47.3405697 L55,46.4835395 Z M55,49.535 L54.6750624,49.9257037 C54.591377,50.0275388 54.5092001,50.1284446 54.4285309,50.2284155 L54.4285309,50.2284155 L53.9625986,50.8169767 L53.5327998,51.3828314 C51.9544309,53.5080776 51.1714286,55.1269251 51.1714286,56.1714286 C51.1714286,58.2858902 52.8855384,60 55,60 C57.1144616,60 58.8285714,58.2858902 58.8285714,56.1714286 C58.8285714,55.1269251 58.0455691,53.5080776 56.4672002,51.3828314 L56.4672002,51.3828314 L56.0374014,50.8169767 L55.5714691,50.2284155 C55.4101306,50.0284738 55.2427618,49.8247923 55.0693545,49.6174158 L55.0693545,49.6174158 L55,49.535 Z M27.9786025,12.893 L4.01902961,36.8535534 L26.6464466,59.4809704 L50.6056025,35.52 L31.9996025,16.914 L32.0004119,26.7232439 C34.4353843,27.2228762 36.2835409,29.3317506 36.3847201,31.8897056 L36.3890873,32.1109127 C36.3890873,35.1484788 33.9266534,37.6109127 30.8890873,37.6109127 C27.8515212,37.6109127 25.3890873,35.1484788 25.3890873,32.1109127 C25.3890873,29.3760147 27.3852474,27.1073449 30.0000805,26.6823901 L29.9996025,14.914 L27.9786025,12.893 Z M30.8890873,28.6109127 C28.9560907,28.6109127 27.3890873,30.1779161 27.3890873,32.1109127 C27.3890873,34.0439093 28.9560907,35.6109127 30.8890873,35.6109127 C32.8220839,35.6109127 34.3890873,34.0439093 34.3890873,32.1109127 C34.3890873,30.1779161 32.8220839,28.6109127 30.8890873,28.6109127 Z" id="Combined-Shape" fill="#CBD8F2" fill-rule="nonzero"></path>
    </g>
</svg>