<?xml version="1.0" encoding="UTF-8"?>
<svg width="64px" height="64px" viewBox="0 0 64 64" version="1.1" xmlns="http://www.w3.org/2000/svg" xmlns:xlink="http://www.w3.org/1999/xlink">
    <!-- Generator: Sketch 51.3 (57544) - http://www.bohemiancoding.com/sketch -->
    <title>Illustrations/pencil-rule</title>
    <desc>Created with Sketch.</desc>
    <defs></defs>
    <g id="Illustrations/pencil-rule" stroke="none" stroke-width="1" fill="none" fill-rule="evenodd">
        <g id="Group-7">
            <polygon id="Stroke-1" stroke="#CBD8F2" stroke-width="1.75" points="10.98237 59.7966423 4.27979718 53.0940695 56.1819944 1.1918723 62.8845671 7.89444507"></polygon>
            <polygon id="Fill-3" fill="#FFFFFF" points="63.9152676 55.2872263 55.2869859 63.915508 0.161051643 8.78927324 8.78903286 0.160991549"></polygon>
            <polygon id="Stroke-4" stroke="#CBD8F2" stroke-width="1.75" points="63.9152676 55.2872263 55.2869859 63.915508 0.161051643 8.78927324 8.78903286 0.160991549"></polygon>
            <polygon id="Stroke-6" stroke="#CBD8F2" stroke-width="1.75" stroke-linejoin="bevel" points="1.76844319 62.3078761 4.24611455 53.0606272 11.015692 59.8302047"></polygon>
            <polygon id="Stroke-8" stroke="#CBD8F2" stroke-width="1.75" points="59.4595155 11.3194667 52.7569427 4.6168939 56.1816939 1.19184225 62.8845671 7.89441502"></polygon>
            <path d="M32.0380995,32.0382197 L36.3519399,27.7243793" id="Stroke-11" stroke="#CBD8F2" stroke-width="1.75"></path>
            <path d="M37.5612094,33.2200563 L39.7182798,31.0629859" id="Stroke-12" stroke="#CBD8F2" stroke-width="1.75"></path>
            <path d="M30.8399775,26.5330479 L32.9970479,24.3759775" id="Stroke-13" stroke="#CBD8F2" stroke-width="1.75"></path>
            <path d="M38.7422047,38.7423249 L43.0560451,34.4284845" id="Stroke-14" stroke="#CBD8F2" stroke-width="1.75"></path>
            <path d="M44.2653146,39.9241615 L46.422385,37.7670911" id="Stroke-15" stroke="#CBD8F2" stroke-width="1.75"></path>
            <path d="M45.4463099,45.4464601 L49.7601502,41.1326197" id="Stroke-16" stroke="#CBD8F2" stroke-width="1.75"></path>
            <path d="M50.9694197,46.6282967 L53.1264901,44.4712263" id="Stroke-17" stroke="#CBD8F2" stroke-width="1.75"></path>
            <path d="M52.1504451,52.1505653 L56.4642854,47.8367249" id="Stroke-18" stroke="#CBD8F2" stroke-width="1.75"></path>
            <path d="M57.6735549,53.3324019 L59.8306254,51.1753315" id="Stroke-19" stroke="#CBD8F2" stroke-width="1.75"></path>
            <path d="M25.3339944,25.3341146 L29.6478347,21.0202742" id="Stroke-20" stroke="#CBD8F2" stroke-width="1.75"></path>
            <path d="M24.1358723,19.8289427 L26.2929427,17.6718723" id="Stroke-21" stroke="#CBD8F2" stroke-width="1.75"></path>
            <path d="M18.6298592,18.6300094 L22.9436995,14.316169" id="Stroke-22" stroke="#CBD8F2" stroke-width="1.75"></path>
            <path d="M17.4317671,13.1248075 L19.5888376,10.9677371" id="Stroke-23" stroke="#CBD8F2" stroke-width="1.75"></path>
            <path d="M11.925754,11.9258742 L16.2395944,7.6120338" id="Stroke-24" stroke="#CBD8F2" stroke-width="1.75"></path>
            <path d="M10.7276319,6.42070235 L12.8847023,4.26363192" id="Stroke-25" stroke="#CBD8F2" stroke-width="1.75"></path>
        </g>
    </g>
</svg>