<?xml version="1.0" encoding="UTF-8"?>
<svg width="64px" height="64px" viewBox="0 0 64 64" version="1.1" xmlns="http://www.w3.org/2000/svg" xmlns:xlink="http://www.w3.org/1999/xlink">
    <!-- Generator: Sketch 51.3 (57544) - http://www.bohemiancoding.com/sketch -->
    <title>Illustrations/portico</title>
    <desc>Created with Sketch.</desc>
    <defs></defs>
    <g id="Illustrations/portico" stroke="none" stroke-width="1" fill="none" fill-rule="evenodd">
        <polygon id="Stroke-2" stroke="#CBD8F2" stroke-width="1.5" points="3.37817007 14.706214 59.9984102 14.706214 59.9984102 5.55138555 3.37817007 5.55138555"></polygon>
        <polygon id="Stroke-4" stroke="#CBD8F2" stroke-width="1.5" points="6.20049009 58.8159269 15.3553185 58.8159269 15.3553185 18.0347601 6.20049009 18.0347601"></polygon>
        <polygon id="Stroke-6" stroke="#CBD8F2" stroke-width="1.5" points="48.021886 58.8159269 57.1767144 58.8159269 57.1767144 18.0347601 48.021886 18.0347601"></polygon>
        <polygon id="Stroke-8" stroke="#CBD8F2" stroke-width="1.5" stroke-linejoin="bevel" points="18.4764118 62.144473 3.07895983 62.144473 6.20027162 58.8159269 15.3551 58.8159269"></polygon>
        <polygon id="Stroke-11" stroke="#CBD8F2" stroke-width="1.5" stroke-linejoin="bevel" points="60.2978077 62.144473 44.9003557 62.144473 48.0216675 58.8159269 57.1764959 58.8159269"></polygon>
        <polygon id="Stroke-14" stroke="#CBD8F2" stroke-width="1.5" stroke-linejoin="bevel" points="44.9004806 14.7064636 60.2979326 14.7064636 57.1766208 18.0350098 48.0217924 18.0350098"></polygon>
        <polygon id="Stroke-17" stroke="#CBD8F2" stroke-width="1.5" stroke-linejoin="bevel" points="3.07908467 14.7064636 18.4765367 14.7064636 15.3552249 18.0350098 6.20039646 18.0350098"></polygon>
        <polygon id="Stroke-18" stroke="#CBD8F2" stroke-width="1.5" stroke-linejoin="bevel" points="0.257045535 2.15604998 3.37835733 5.48428406 59.9985975 5.48428406 63.1199093 2.15604998"></polygon>
    </g>
</svg>