<?xml version="1.0" encoding="UTF-8"?>
<svg width="64px" height="64px" viewBox="0 0 64 64" version="1.1" xmlns="http://www.w3.org/2000/svg" xmlns:xlink="http://www.w3.org/1999/xlink">
    <!-- Generator: Sketch 51.3 (57544) - http://www.bohemiancoding.com/sketch -->
    <title>Illustrations/quoins</title>
    <desc>Created with Sketch.</desc>
    <defs></defs>
    <g id="Illustrations/quoins" stroke="none" stroke-width="1" fill="none" fill-rule="evenodd">
        <g id="Group" transform="translate(3.000000, 2.000000)" stroke="#CBD8F2" stroke-width="1.5">
            <rect id="Rectangle-11" x="0" y="0" width="9.52380952" height="8.57142857"></rect>
            <rect id="Rectangle-11-Copy-2" x="0" y="17.1428571" width="9.52380952" height="8.57142857"></rect>
            <rect id="Rectangle-11-Copy-4" x="0" y="34.2857143" width="9.52380952" height="8.57142857"></rect>
            <rect id="Rectangle-11-Copy-5" x="0" y="51.4285714" width="9.52380952" height="8.57142857"></rect>
            <rect id="Rectangle-11-Copy" x="0" y="8.57142857" width="19.047619" height="8.57142857"></rect>
            <rect id="Rectangle-11-Copy-3" x="0" y="25.7142857" width="19.047619" height="8.57142857"></rect>
            <rect id="Rectangle-11-Copy-6" x="0" y="42.8571429" width="19.047619" height="8.57142857"></rect>
        </g>
        <g id="Group-Copy" transform="translate(51.642857, 32.000000) scale(-1, 1) translate(-51.642857, -32.000000) translate(42.000000, 2.000000)" stroke="#CBD8F2" stroke-width="1.5">
            <rect id="Rectangle-11" x="0" y="0" width="9.52380952" height="8.57142857"></rect>
            <rect id="Rectangle-11-Copy-2" x="0" y="17.1428571" width="9.52380952" height="8.57142857"></rect>
            <rect id="Rectangle-11-Copy-4" x="0" y="34.2857143" width="9.52380952" height="8.57142857"></rect>
            <rect id="Rectangle-11-Copy-5" x="0" y="51.4285714" width="9.52380952" height="8.57142857"></rect>
            <rect id="Rectangle-11-Copy" x="0" y="8.57142857" width="19.047619" height="8.57142857"></rect>
            <rect id="Rectangle-11-Copy-3" x="0" y="25.7142857" width="19.047619" height="8.57142857"></rect>
            <rect id="Rectangle-11-Copy-6" x="0" y="42.8571429" width="19.047619" height="8.57142857"></rect>
        </g>
    </g>
</svg>