<?xml version="1.0" encoding="UTF-8"?>
<svg width="64px" height="64px" viewBox="0 0 64 64" version="1.1" xmlns="http://www.w3.org/2000/svg" xmlns:xlink="http://www.w3.org/1999/xlink">
    <!-- Generator: Sketch 51.3 (57544) - http://www.bohemiancoding.com/sketch -->
    <title>Illustrations/string-plinth</title>
    <desc>Created with Sketch.</desc>
    <defs></defs>
    <g id="Illustrations/string-plinth" stroke="none" stroke-width="1" fill="none" fill-rule="evenodd">
        <g id="Group" transform="translate(5.000000, 38.000000)" stroke="#CBD8F2" stroke-width="1.5">
            <rect id="Rectangle-19" x="0" y="9" width="54" height="12"></rect>
            <rect id="Rectangle-20" x="5" y="0" width="44" height="3"></rect>
            <path d="M54,9 L0,9 C1.65306122,9 2.99554731,7.85142857 3.00556586,6.43714286 L3.00556586,5.57142857 C3.00556586,4.14857143 4.34805195,3 6.01113173,3 L47.9888683,3 C49.6519481,3 50.9944341,4.14857143 50.9944341,5.57142857 L50.9944341,6.43714286 C51.0044527,7.85142857 52.3469388,9 54,9 Z" id="Stroke-1"></path>
        </g>
        <g id="Group-Copy" transform="translate(32.000000, 10.500000) rotate(-180.000000) translate(-32.000000, -10.500000) translate(5.000000, 6.000000)" stroke="#CBD8F2" stroke-width="1.5">
            <rect id="Rectangle-20" x="5" y="0" width="44" height="3"></rect>
            <path d="M54,9 L0,9 C1.65306122,9 2.99554731,7.85142857 3.00556586,6.43714286 L3.00556586,5.57142857 C3.00556586,4.14857143 4.34805195,3 6.01113173,3 L47.9888683,3 C49.6519481,3 50.9944341,4.14857143 50.9944341,5.57142857 L50.9944341,6.43714286 C51.0044527,7.85142857 52.3469388,9 54,9 Z" id="Stroke-1"></path>
        </g>
    </g>
</svg>