<?xml version="1.0" encoding="UTF-8"?>
<svg width="64px" height="64px" viewBox="0 0 64 64" version="1.1" xmlns="http://www.w3.org/2000/svg" xmlns:xlink="http://www.w3.org/1999/xlink">
    <!-- Generator: Sketch 51.3 (57544) - http://www.bohemiancoding.com/sketch -->
    <title>Illustrations/wall-coping</title>
    <desc>Created with Sketch.</desc>
    <defs></defs>
    <g id="Illustrations/wall-coping" stroke="none" stroke-width="1" fill="none" fill-rule="evenodd">
        <g id="Group" transform="translate(1.000000, 8.000000)" stroke="#CBD8F2" stroke-width="1.5">
            <g id="Group-5">
                <rect id="Rectangle-2" x="0" y="5" width="12" height="7"></rect>
                <polyline id="Rectangle-2" stroke-linejoin="bevel" transform="translate(6.500000, 2.500000) scale(1, -1) translate(-6.500000, -2.500000) " points="0 0 13 0 0 5"></polyline>
                <polyline id="Rectangle-2-Copy-2" transform="translate(5.000000, 30.500000) scale(1, -1) translate(-5.000000, -30.500000) " points="9 12 9 49 1 49"></polyline>
            </g>
            <polygon id="Rectangle-17" points="9 27 57 27 60 31 9 31"></polygon>
            <path d="M9,31 L59,31 L59,32 C59,33.6568542 57.6568542,35 56,35 L9,35 L9,31 Z" id="Rectangle-18-Copy"></path>
        </g>
        <polyline id="Rectangle-18" stroke="#CBD8F2" stroke-width="1.5" points="10 43 58 43 58 57"></polyline>
    </g>
</svg>