<?xml version="1.0" encoding="UTF-8"?>
<svg width="64px" height="64px" viewBox="0 0 64 64" version="1.1" xmlns="http://www.w3.org/2000/svg" xmlns:xlink="http://www.w3.org/1999/xlink">
    <!-- Generator: Sketch 58 (84663) - https://sketch.com -->
    <title>Illustrations/windows-stooled</title>
    <desc>Created with Sketch.</desc>
    <g id="Illustrations/windows-stooled" stroke="none" stroke-width="1" fill="none" fill-rule="evenodd">
        <circle id="Oval-Copy" stroke="#CBD8F2" stroke-width="1.5" cx="32" cy="32" r="24"></circle>
        <g id="Group" transform="translate(23.000000, 5.000000)" fill="#FFFFFF" stroke="#CBD8F2" stroke-width="1.5">
            <g id="Illustrations/window-stooled-segment">
                <path d="M0,0.5 C3,-0.5 6,-1 9,-1 C12,-1 15,-0.5 18,0.5 L14,15 L9,27 L4,15 L0,0.5 Z" id="Rectangle"></path>
            </g>
            <g id="Illustrations/window-stooled-segment" transform="translate(9.000000, 40.500000) rotate(-180.000000) translate(-9.000000, -40.500000) translate(0.000000, 27.000000)">
                <path d="M0,0.5 C3,-0.5 6,-1 9,-1 C12,-1 15,-0.5 18,0.5 L14,15 L9,27 L4,15 L0,0.5 Z" id="Rectangle"></path>
            </g>
        </g>
        <g id="Group-Copy" transform="translate(32.000000, 32.000000) rotate(-270.000000) translate(-32.000000, -32.000000) translate(23.000000, 5.000000)" fill="#FFFFFF" stroke="#CBD8F2" stroke-width="1.5">
            <g id="Illustrations/window-stooled-segment">
                <path d="M0,0.5 C3,-0.5 6,-1 9,-1 C12,-1 15,-0.5 18,0.5 L14,15 L9,27 L4,15 L0,0.5 Z" id="Rectangle"></path>
            </g>
            <g id="Illustrations/window-stooled-segment" transform="translate(9.000000, 40.500000) rotate(-180.000000) translate(-9.000000, -40.500000) translate(0.000000, 27.000000)">
                <path d="M0,0.5 C3,-0.5 6,-1 9,-1 C12,-1 15,-0.5 18,0.5 L14,15 L9,27 L4,15 L0,0.5 Z" id="Rectangle"></path>
            </g>
        </g>
        <circle id="Oval" stroke="#CBD8F2" stroke-width="1.5" fill="#FFFFFF" cx="32" cy="32" r="12"></circle>
    </g>
</svg>