<?xml version="1.0" encoding="UTF-8"?>
<svg width="848px" height="222px" viewBox="0 0 848 222" version="1.1" xmlns="http://www.w3.org/2000/svg" xmlns:xlink="http://www.w3.org/1999/xlink">
    <!-- Generator: Sketch 59.1 (86144) - https://sketch.com -->
    <title>windowCillsHeads/C1R-top</title>
    <desc>Created with Sketch.</desc>
    <g id="windowCillsHeads/C1R-top" stroke="none" stroke-width="1" fill="none" fill-rule="evenodd">
        <rect fill="#F5F9FF" x="0" y="0" width="848" height="222"></rect>
        <g id="Group-3" transform="translate(40.000000, 39.000000)">
            <rect id="Rectangle" stroke="#CBD8F2" fill="#FFFFFF" x="62.5" y="63" width="490" height="84"></rect>
            <path d="M552.5,63 L552.5,123 L503.5,123 L503.5,105 L111.5,105 L111.5,123 L62.5,123 L62.5,63 L552.5,63 Z" id="Combined-Shape" stroke="#CBD8F2" fill="#FFFFFF"></path>
            <polyline id="Rectangle-Copy-3" stroke="#CBD8F2" transform="translate(40.000000, 105.500000) rotate(-90.000000) translate(-40.000000, -105.500000) " points="-1.86 113 -2 98 82 98 82 113"></polyline>
            <g id="Group-2" transform="translate(594.000000, 93.500000) rotate(-180.000000) translate(-594.000000, -93.500000) translate(567.500000, 63.000000)">
                <polyline id="Rectangle-Copy-7" stroke="#CBD8F2" transform="translate(45.000000, 30.500000) rotate(-90.000000) translate(-45.000000, -30.500000) " points="15.1 38 15 23 75 23 75 38"></polyline>
                <path d="M-15.343,36 L-15.343,33.977 L-12.997,33.977 L-12.997,27.738 L-15.02,27.738 L-15.02,26.191 C-14.4306637,26.0776661 -13.932002,25.9416675 -13.524,25.783 C-13.115998,25.6243325 -12.7193353,25.4316678 -12.334,25.205 L-10.498,25.205 L-10.498,33.977 L-8.475,33.977 L-8.475,36 L-15.343,36 Z M-6.928,36 L-6.928,34.572 L-6.12695933,33.8171994 C-5.74072013,33.4500002 -5.37590172,33.0981017 -5.0325,32.7615 C-4.46016381,32.2004972 -3.96716873,31.6735025 -3.5535,31.1805 C-3.13983126,30.6874975 -2.81683449,30.2285021 -2.5845,29.8035 C-2.3521655,29.3784979 -2.236,28.9733353 -2.236,28.588 C-2.236,28.0553307 -2.37199864,27.6501681 -2.644,27.3725 C-2.91600136,27.0948319 -3.28999762,26.956 -3.766,26.956 C-4.16266865,26.956 -4.51399847,27.0664989 -4.82,27.2875 C-5.12600153,27.5085011 -5.41499864,27.7663319 -5.687,28.061 L-7.047,26.718 C-6.51433067,26.1513305 -5.97033611,25.7235014 -5.415,25.4345 C-4.85966389,25.1454986 -4.19667052,25.001 -3.426,25.001 C-2.89333067,25.001 -2.40883551,25.0831658 -1.9725,25.2475 C-1.53616449,25.4118342 -1.15933492,25.6441652 -0.842,25.9445 C-0.52466508,26.2448348 -0.28100085,26.6046646 -0.111,27.024 C0.05900085,27.4433354 0.144,27.9136641 0.144,28.435 C0.144,28.8883356 0.04766763,29.3501643 -0.145,29.8205 C-0.33766763,30.2908357 -0.595498385,30.7611643 -0.9185,31.2315 C-1.24150162,31.7018357 -1.60983127,32.1721643 -2.0235,32.6425 C-2.43716874,33.1128357 -2.86499779,33.5746644 -3.307,34.028 L-2.87562512,33.979125 C-2.72404216,33.9635417 -2.5646675,33.9486667 -2.3975,33.9345 C-2.063165,33.9061665 -1.76566797,33.892 -1.505,33.892 L0.671,33.892 L0.671,36 L-6.928,36 Z M5.907,36.204 C5.32899711,36.204 4.80200238,36.0821679 4.326,35.8385 C3.84999762,35.5948321 3.44483501,35.2350024 3.1105,34.759 C2.776165,34.2829976 2.51550094,33.6936702 2.3285,32.991 C2.14149907,32.2883298 2.048,31.4780046 2.048,30.56 C2.048,29.6419954 2.14149907,28.8373368 2.3285,28.146 C2.51550094,27.4546632 2.776165,26.8738357 3.1105,26.4035 C3.44483501,25.9331643 3.84999762,25.5818345 4.326,25.3495 C4.80200238,25.1171655 5.32899711,25.001 5.907,25.001 C6.48500289,25.001 7.01199762,25.1171655 7.488,25.3495 C7.96400238,25.5818345 8.369165,25.9331643 8.7035,26.4035 C9.03783501,26.8738357 9.29849907,27.4546632 9.4855,28.146 C9.67250094,28.8373368 9.766,29.6419954 9.766,30.56 C9.766,31.4780046 9.67250094,32.2883298 9.4855,32.991 C9.29849907,33.6936702 9.03783501,34.2829976 8.7035,34.759 C8.369165,35.2350024 7.96400238,35.5948321 7.488,35.8385 C7.01199762,36.0821679 6.48500289,36.204 5.907,36.204 Z M5.907,34.266 C6.12233441,34.266 6.32066576,34.2121672 6.502,34.1045 C6.68333424,33.9968328 6.84199932,33.8013347 6.978,33.518 C7.11400068,33.2346653 7.21883296,32.8550024 7.2925,32.379 C7.36616703,31.9029976 7.403,31.2966704 7.403,30.56 C7.403,29.8233297 7.36616703,29.2198357 7.2925,28.7495 C7.21883296,28.2791643 7.11400068,27.9108347 6.978,27.6445 C6.84199932,27.3781653 6.68333424,27.1940005 6.502,27.092 C6.32066576,26.9899995 6.12233441,26.939 5.907,26.939 C5.70299898,26.939 5.51033424,26.9899995 5.329,27.092 C5.14766576,27.1940005 4.98900068,27.3781653 4.853,27.6445 C4.71699932,27.9108347 4.60933373,28.2791643 4.53,28.7495 C4.45066627,29.2198357 4.411,29.8233297 4.411,30.56 C4.411,31.2966704 4.45066627,31.9029976 4.53,32.379 C4.60933373,32.8550024 4.71699932,33.2346653 4.853,33.518 C4.98900068,33.8013347 5.14766576,33.9968328 5.329,34.1045 C5.51033424,34.2121672 5.70299898,34.266 5.907,34.266 Z M11.5,36 L11.5,27.568 L13.54,27.568 L13.71,28.656 L13.778,28.656 C14.1293351,28.3046649 14.5033313,28.0015013 14.9,27.7465 C15.2966686,27.4914987 15.7726639,27.364 16.328,27.364 C16.9286697,27.364 17.4131648,27.4858321 17.7815,27.7295 C18.1498352,27.9731679 18.4416656,28.3216644 18.657,28.775 C19.0310019,28.3896647 19.4248313,28.0581681 19.8385,27.7805 C20.2521687,27.5028319 20.7423305,27.364 21.309,27.364 C22.2156712,27.364 22.8814979,27.6671636 23.3065,28.2735 C23.7315021,28.8798364 23.944,29.7099947 23.944,30.764 L23.944,36 L21.445,36 L21.445,31.087 C21.445,30.4749969 21.3628342,30.0556678 21.1985,29.829 C21.0341658,29.6023322 20.7706685,29.489 20.408,29.489 C19.9886646,29.489 19.5070027,29.7609973 18.963,30.305 L18.963,36 L16.464,36 L16.464,31.087 C16.464,30.4749969 16.3818342,30.0556678 16.2175,29.829 C16.0531658,29.6023322 15.7896685,29.489 15.427,29.489 C14.9963312,29.489 14.5203359,29.7609973 13.999,30.305 L13.999,36 L11.5,36 Z M26.069,36 L26.069,27.568 L28.109,27.568 L28.279,28.656 L28.347,28.656 C28.6983351,28.3046649 29.0723314,28.0015013 29.469,27.7465 C29.8656687,27.4914987 30.3416639,27.364 30.897,27.364 C31.4976697,27.364 31.9821648,27.4858321 32.3505,27.7295 C32.7188352,27.9731679 33.0106656,28.3216644 33.226,28.775 C33.6000019,28.3896647 33.9938313,28.0581681 34.4075,27.7805 C34.8211687,27.5028319 35.3113305,27.364 35.878,27.364 C36.7846712,27.364 37.4504979,27.6671636 37.8755,28.2735 C38.3005021,28.8798364 38.513,29.7099947 38.513,30.764 L38.513,36 L36.014,36 L36.014,31.087 C36.014,30.4749969 35.9318342,30.0556678 35.7675,29.829 C35.6031658,29.6023322 35.3396685,29.489 34.977,29.489 C34.5576646,29.489 34.0760027,29.7609973 33.532,30.305 L33.532,36 L31.033,36 L31.033,31.087 C31.033,30.4749969 30.9508342,30.0556678 30.7865,29.829 C30.6221658,29.6023322 30.3586685,29.489 29.996,29.489 C29.5653312,29.489 29.0893359,29.7609973 28.568,30.305 L28.568,36 L26.069,36 Z" id="120mm" fill="#093169" fill-rule="nonzero" transform="translate(11.585000, 30.602500) rotate(-90.000000) translate(-11.585000, -30.602500) "></path>
            </g>
            <path d="M-20.343,111 L-20.343,108.977 L-17.997,108.977 L-17.997,102.738 L-20.02,102.738 L-20.02,101.191 C-19.4306637,101.077666 -18.932002,100.941667 -18.524,100.783 C-18.115998,100.624333 -17.7193353,100.431668 -17.334,100.205 L-15.498,100.205 L-15.498,108.977 L-13.475,108.977 L-13.475,111 L-20.343,111 Z M-9.854,111 C-9.80866644,110.104662 -9.72650059,109.28017 -9.6075,108.5265 C-9.4884994,107.77283 -9.3185011,107.05317 -9.0975,106.3675 C-8.87649889,105.68183 -8.59316839,105.010337 -8.2475,104.353 C-7.9018316,103.695663 -7.47400255,103.01567 -6.964,102.313 L-11.809,102.313 L-11.809,100.205 L-4.295,100.205 L-4.295,101.735 C-4.91833645,102.494337 -5.41983143,103.205497 -5.7995,103.8685 C-6.17916856,104.531503 -6.47383228,105.217163 -6.6835,105.9255 C-6.89316771,106.633837 -7.04333288,107.393163 -7.134,108.2035 C-7.22466712,109.013837 -7.29266644,109.945995 -7.338,111 L-9.854,111 Z M0.907,111.204 C0.32899711,111.204 -0.19799762,111.082168 -0.674,110.8385 C-1.15000238,110.594832 -1.55516499,110.235002 -1.8895,109.759 C-2.223835,109.282998 -2.48449906,108.69367 -2.6715,107.991 C-2.85850093,107.28833 -2.952,106.478005 -2.952,105.56 C-2.952,104.641995 -2.85850093,103.837337 -2.6715,103.146 C-2.48449906,102.454663 -2.223835,101.873836 -1.8895,101.4035 C-1.55516499,100.933164 -1.15000238,100.581834 -0.674,100.3495 C-0.19799762,100.117166 0.32899711,100.001 0.907,100.001 C1.48500289,100.001 2.01199762,100.117166 2.488,100.3495 C2.96400238,100.581834 3.369165,100.933164 3.7035,101.4035 C4.03783501,101.873836 4.29849907,102.454663 4.4855,103.146 C4.67250094,103.837337 4.766,104.641995 4.766,105.56 C4.766,106.478005 4.67250094,107.28833 4.4855,107.991 C4.29849907,108.69367 4.03783501,109.282998 3.7035,109.759 C3.369165,110.235002 2.96400238,110.594832 2.488,110.8385 C2.01199762,111.082168 1.48500289,111.204 0.907,111.204 Z M0.907,109.266 C1.12233441,109.266 1.32066576,109.212167 1.502,109.1045 C1.68333424,108.996833 1.84199932,108.801335 1.978,108.518 C2.11400068,108.234665 2.21883297,107.855002 2.2925,107.379 C2.36616704,106.902998 2.403,106.29667 2.403,105.56 C2.403,104.82333 2.36616704,104.219836 2.2925,103.7495 C2.21883297,103.279164 2.11400068,102.910835 1.978,102.6445 C1.84199932,102.378165 1.68333424,102.194001 1.502,102.092 C1.32066576,101.989999 1.12233441,101.939 0.907,101.939 C0.70299898,101.939 0.51033424,101.989999 0.329,102.092 C0.14766576,102.194001 -0.01099932,102.378165 -0.147,102.6445 C-0.28300068,102.910835 -0.39066627,103.279164 -0.47,103.7495 C-0.54933373,104.219836 -0.589,104.82333 -0.589,105.56 C-0.589,106.29667 -0.54933373,106.902998 -0.47,107.379 C-0.39066627,107.855002 -0.28300068,108.234665 -0.147,108.518 C-0.01099932,108.801335 0.14766576,108.996833 0.329,109.1045 C0.51033424,109.212167 0.70299898,109.266 0.907,109.266 Z M6.5,111 L6.5,102.568 L8.54,102.568 L8.71,103.656 L8.778,103.656 C9.12933509,103.304665 9.50333135,103.001501 9.9,102.7465 C10.2966687,102.491499 10.7726639,102.364 11.328,102.364 C11.9286697,102.364 12.4131648,102.485832 12.7815,102.7295 C13.1498352,102.973168 13.4416656,103.321664 13.657,103.775 C14.0310019,103.389665 14.4248313,103.058168 14.8385,102.7805 C15.2521687,102.502832 15.7423305,102.364 16.309,102.364 C17.2156712,102.364 17.8814979,102.667164 18.3065,103.2735 C18.7315021,103.879836 18.944,104.709995 18.944,105.764 L18.944,111 L16.445,111 L16.445,106.087 C16.445,105.474997 16.3628342,105.055668 16.1985,104.829 C16.0341658,104.602332 15.7706685,104.489 15.408,104.489 C14.9886646,104.489 14.5070027,104.760997 13.963,105.305 L13.963,111 L11.464,111 L11.464,106.087 C11.464,105.474997 11.3818342,105.055668 11.2175,104.829 C11.0531658,104.602332 10.7896685,104.489 10.427,104.489 C9.99633118,104.489 9.52033594,104.760997 8.999,105.305 L8.999,111 L6.5,111 Z M21.069,111 L21.069,102.568 L23.109,102.568 L23.279,103.656 L23.347,103.656 C23.6983351,103.304665 24.0723314,103.001501 24.469,102.7465 C24.8656687,102.491499 25.3416639,102.364 25.897,102.364 C26.4976697,102.364 26.9821648,102.485832 27.3505,102.7295 C27.7188352,102.973168 28.0106656,103.321664 28.226,103.775 C28.6000019,103.389665 28.9938313,103.058168 29.4075,102.7805 C29.8211687,102.502832 30.3113305,102.364 30.878,102.364 C31.7846712,102.364 32.4504979,102.667164 32.8755,103.2735 C33.3005021,103.879836 33.513,104.709995 33.513,105.764 L33.513,111 L31.014,111 L31.014,106.087 C31.014,105.474997 30.9318342,105.055668 30.7675,104.829 C30.6031658,104.602332 30.3396685,104.489 29.977,104.489 C29.5576646,104.489 29.0760027,104.760997 28.532,105.305 L28.532,111 L26.033,111 L26.033,106.087 C26.033,105.474997 25.9508342,105.055668 25.7865,104.829 C25.6221658,104.602332 25.3586685,104.489 24.996,104.489 C24.5653312,104.489 24.0893359,104.760997 23.568,105.305 L23.568,111 L21.069,111 Z" id="170mm" fill="#093169" fill-rule="nonzero" transform="translate(6.585000, 105.602500) rotate(-90.000000) translate(-6.585000, -105.602500) "></path>
            <g id="Group" transform="translate(59.000000, 0.000000)">
                <polyline id="Rectangle-Copy" stroke="#CBD8F2" transform="translate(468.500000, 40.500000) rotate(-360.000000) translate(-468.500000, -40.500000) " points="444.081667 48 444 33 493 33 493 48"></polyline>
                <polyline id="Rectangle-Copy-6" stroke="#CBD8F2" transform="translate(248.000000, 40.500000) rotate(-360.000000) translate(-248.000000, -40.500000) " points="57.6366667 48 57 33 439 33 439 48"></polyline>
                <polyline id="Rectangle-Copy-5" stroke="#CBD8F2" transform="translate(27.500000, 40.500000) rotate(-360.000000) translate(-27.500000, -40.500000) " points="3.08166667 48 3 33 52 33 52 48"></polyline>
                <path d="M0.657,13 L0.657,10.977 L3.003,10.977 L3.003,4.738 L0.98,4.738 L0.98,3.191 C1.56933628,3.0776661 2.06799796,2.94166746 2.476,2.783 C2.88400204,2.62433254 3.28066474,2.4316678 3.666,2.205 L5.502,2.205 L5.502,10.977 L7.525,10.977 L7.525,13 L0.657,13 Z M12.931,13.204 C12.3529971,13.204 11.8260024,13.0821679 11.35,12.8385 C10.8739976,12.5948321 10.468835,12.2350024 10.1345,11.759 C9.800165,11.2829976 9.53950094,10.6936702 9.3525,9.991 C9.16549907,9.28832982 9.072,8.47800459 9.072,7.56 C9.072,6.64199541 9.16549907,5.83733679 9.3525,5.146 C9.53950094,4.45466321 9.800165,3.87383568 10.1345,3.4035 C10.468835,2.93316431 10.8739976,2.58183449 11.35,2.3495 C11.8260024,2.1171655 12.3529971,2.001 12.931,2.001 C13.5090029,2.001 14.0359976,2.1171655 14.512,2.3495 C14.9880024,2.58183449 15.393165,2.93316431 15.7275,3.4035 C16.061835,3.87383568 16.3224991,4.45466321 16.5095,5.146 C16.6965009,5.83733679 16.79,6.64199541 16.79,7.56 C16.79,8.47800459 16.6965009,9.28832982 16.5095,9.991 C16.3224991,10.6936702 16.061835,11.2829976 15.7275,11.759 C15.393165,12.2350024 14.9880024,12.5948321 14.512,12.8385 C14.0359976,13.0821679 13.5090029,13.204 12.931,13.204 Z M12.931,11.266 C13.1463344,11.266 13.3446658,11.2121672 13.526,11.1045 C13.7073342,10.9968328 13.8659993,10.8013347 14.002,10.518 C14.1380007,10.2346652 14.242833,9.85500238 14.3165,9.379 C14.390167,8.90299762 14.427,8.29667035 14.427,7.56 C14.427,6.82332965 14.390167,6.21983568 14.3165,5.7495 C14.242833,5.27916431 14.1380007,4.91083466 14.002,4.6445 C13.8659993,4.37816533 13.7073342,4.19400051 13.526,4.092 C13.3446658,3.98999949 13.1463344,3.939 12.931,3.939 C12.726999,3.939 12.5343342,3.98999949 12.353,4.092 C12.1716658,4.19400051 12.0130007,4.37816533 11.877,4.6445 C11.7409993,4.91083466 11.6333337,5.27916431 11.554,5.7495 C11.4746663,6.21983568 11.435,6.82332965 11.435,7.56 C11.435,8.29667035 11.4746663,8.90299762 11.554,9.379 C11.6333337,9.85500238 11.7409993,10.2346652 11.877,10.518 C12.0130007,10.8013347 12.1716658,10.9968328 12.353,11.1045 C12.5343342,11.2121672 12.726999,11.266 12.931,11.266 Z M21.907,13.204 C21.3289971,13.204 20.8020024,13.0821679 20.326,12.8385 C19.8499976,12.5948321 19.444835,12.2350024 19.1105,11.759 C18.776165,11.2829976 18.5155009,10.6936702 18.3285,9.991 C18.1414991,9.28832982 18.048,8.47800459 18.048,7.56 C18.048,6.64199541 18.1414991,5.83733679 18.3285,5.146 C18.5155009,4.45466321 18.776165,3.87383568 19.1105,3.4035 C19.444835,2.93316431 19.8499976,2.58183449 20.326,2.3495 C20.8020024,2.1171655 21.3289971,2.001 21.907,2.001 C22.4850029,2.001 23.0119976,2.1171655 23.488,2.3495 C23.9640024,2.58183449 24.369165,2.93316431 24.7035,3.4035 C25.037835,3.87383568 25.2984991,4.45466321 25.4855,5.146 C25.6725009,5.83733679 25.766,6.64199541 25.766,7.56 C25.766,8.47800459 25.6725009,9.28832982 25.4855,9.991 C25.2984991,10.6936702 25.037835,11.2829976 24.7035,11.759 C24.369165,12.2350024 23.9640024,12.5948321 23.488,12.8385 C23.0119976,13.0821679 22.4850029,13.204 21.907,13.204 Z M21.907,11.266 C22.1223344,11.266 22.3206658,11.2121672 22.502,11.1045 C22.6833342,10.9968328 22.8419993,10.8013347 22.978,10.518 C23.1140007,10.2346652 23.218833,9.85500238 23.2925,9.379 C23.366167,8.90299762 23.403,8.29667035 23.403,7.56 C23.403,6.82332965 23.366167,6.21983568 23.2925,5.7495 C23.218833,5.27916431 23.1140007,4.91083466 22.978,4.6445 C22.8419993,4.37816533 22.6833342,4.19400051 22.502,4.092 C22.3206658,3.98999949 22.1223344,3.939 21.907,3.939 C21.702999,3.939 21.5103342,3.98999949 21.329,4.092 C21.1476658,4.19400051 20.9890007,4.37816533 20.853,4.6445 C20.7169993,4.91083466 20.6093337,5.27916431 20.53,5.7495 C20.4506663,6.21983568 20.411,6.82332965 20.411,7.56 C20.411,8.29667035 20.4506663,8.90299762 20.53,9.379 C20.6093337,9.85500238 20.7169993,10.2346652 20.853,10.518 C20.9890007,10.8013347 21.1476658,10.9968328 21.329,11.1045 C21.5103342,11.2121672 21.702999,11.266 21.907,11.266 Z M27.5,13 L27.5,4.568 L29.54,4.568 L29.71,5.656 L29.778,5.656 C30.1293351,5.30466491 30.5033314,5.00150127 30.9,4.7465 C31.2966687,4.49149872 31.7726639,4.364 32.328,4.364 C32.9286697,4.364 33.4131648,4.48583211 33.7815,4.7295 C34.1498352,4.97316788 34.4416656,5.3216644 34.657,5.775 C35.0310019,5.38966474 35.4248313,5.05816805 35.8385,4.7805 C36.2521687,4.50283194 36.7423305,4.364 37.309,4.364 C38.2156712,4.364 38.8814979,4.66716363 39.3065,5.2735 C39.7315021,5.87983636 39.944,6.70999473 39.944,7.764 L39.944,13 L37.445,13 L37.445,8.087 C37.445,7.47499694 37.3628342,7.0556678 37.1985,6.829 C37.0341658,6.6023322 36.7706685,6.489 36.408,6.489 C35.9886646,6.489 35.5070027,6.76099728 34.963,7.305 L34.963,13 L32.464,13 L32.464,8.087 C32.464,7.47499694 32.3818342,7.0556678 32.2175,6.829 C32.0531658,6.6023322 31.7896685,6.489 31.427,6.489 C30.9963312,6.489 30.5203359,6.76099728 29.999,7.305 L29.999,13 L27.5,13 Z M42.069,13 L42.069,4.568 L44.109,4.568 L44.279,5.656 L44.347,5.656 C44.6983351,5.30466491 45.0723314,5.00150127 45.469,4.7465 C45.8656687,4.49149872 46.3416639,4.364 46.897,4.364 C47.4976697,4.364 47.9821648,4.48583211 48.3505,4.7295 C48.7188352,4.97316788 49.0106656,5.3216644 49.226,5.775 C49.6000019,5.38966474 49.9938313,5.05816805 50.4075,4.7805 C50.8211687,4.50283194 51.3113305,4.364 51.878,4.364 C52.7846712,4.364 53.4504979,4.66716363 53.8755,5.2735 C54.3005021,5.87983636 54.513,6.70999473 54.513,7.764 L54.513,13 L52.014,13 L52.014,8.087 C52.014,7.47499694 51.9318342,7.0556678 51.7675,6.829 C51.6031658,6.6023322 51.3396685,6.489 50.977,6.489 C50.5576646,6.489 50.0760027,6.76099728 49.532,7.305 L49.532,13 L47.033,13 L47.033,8.087 C47.033,7.47499694 46.9508342,7.0556678 46.7865,6.829 C46.6221658,6.6023322 46.3586685,6.489 45.996,6.489 C45.5653312,6.489 45.0893359,6.76099728 44.568,7.305 L44.568,13 L42.069,13 Z" id="100mm" fill="#093169" fill-rule="nonzero"></path>
                <path d="M441.657,13 L441.657,10.977 L444.003,10.977 L444.003,4.738 L441.98,4.738 L441.98,3.191 C442.569336,3.0776661 443.067998,2.94166746 443.476,2.783 C443.884002,2.62433254 444.280665,2.4316678 444.666,2.205 L446.502,2.205 L446.502,10.977 L448.525,10.977 L448.525,13 L441.657,13 Z M453.931,13.204 C453.352997,13.204 452.826002,13.0821679 452.35,12.8385 C451.873998,12.5948321 451.468835,12.2350024 451.1345,11.759 C450.800165,11.2829976 450.539501,10.6936702 450.3525,9.991 C450.165499,9.28832982 450.072,8.47800459 450.072,7.56 C450.072,6.64199541 450.165499,5.83733679 450.3525,5.146 C450.539501,4.45466321 450.800165,3.87383568 451.1345,3.4035 C451.468835,2.93316431 451.873998,2.58183449 452.35,2.3495 C452.826002,2.1171655 453.352997,2.001 453.931,2.001 C454.509003,2.001 455.035998,2.1171655 455.512,2.3495 C455.988002,2.58183449 456.393165,2.93316431 456.7275,3.4035 C457.061835,3.87383568 457.322499,4.45466321 457.5095,5.146 C457.696501,5.83733679 457.79,6.64199541 457.79,7.56 C457.79,8.47800459 457.696501,9.28832982 457.5095,9.991 C457.322499,10.6936702 457.061835,11.2829976 456.7275,11.759 C456.393165,12.2350024 455.988002,12.5948321 455.512,12.8385 C455.035998,13.0821679 454.509003,13.204 453.931,13.204 Z M453.931,11.266 C454.146334,11.266 454.344666,11.2121672 454.526,11.1045 C454.707334,10.9968328 454.865999,10.8013347 455.002,10.518 C455.138001,10.2346652 455.242833,9.85500238 455.3165,9.379 C455.390167,8.90299762 455.427,8.29667035 455.427,7.56 C455.427,6.82332965 455.390167,6.21983568 455.3165,5.7495 C455.242833,5.27916431 455.138001,4.91083466 455.002,4.6445 C454.865999,4.37816533 454.707334,4.19400051 454.526,4.092 C454.344666,3.98999949 454.146334,3.939 453.931,3.939 C453.726999,3.939 453.534334,3.98999949 453.353,4.092 C453.171666,4.19400051 453.013001,4.37816533 452.877,4.6445 C452.740999,4.91083466 452.633334,5.27916431 452.554,5.7495 C452.474666,6.21983568 452.435,6.82332965 452.435,7.56 C452.435,8.29667035 452.474666,8.90299762 452.554,9.379 C452.633334,9.85500238 452.740999,10.2346652 452.877,10.518 C453.013001,10.8013347 453.171666,10.9968328 453.353,11.1045 C453.534334,11.2121672 453.726999,11.266 453.931,11.266 Z M462.907,13.204 C462.328997,13.204 461.802002,13.0821679 461.326,12.8385 C460.849998,12.5948321 460.444835,12.2350024 460.1105,11.759 C459.776165,11.2829976 459.515501,10.6936702 459.3285,9.991 C459.141499,9.28832982 459.048,8.47800459 459.048,7.56 C459.048,6.64199541 459.141499,5.83733679 459.3285,5.146 C459.515501,4.45466321 459.776165,3.87383568 460.1105,3.4035 C460.444835,2.93316431 460.849998,2.58183449 461.326,2.3495 C461.802002,2.1171655 462.328997,2.001 462.907,2.001 C463.485003,2.001 464.011998,2.1171655 464.488,2.3495 C464.964002,2.58183449 465.369165,2.93316431 465.7035,3.4035 C466.037835,3.87383568 466.298499,4.45466321 466.4855,5.146 C466.672501,5.83733679 466.766,6.64199541 466.766,7.56 C466.766,8.47800459 466.672501,9.28832982 466.4855,9.991 C466.298499,10.6936702 466.037835,11.2829976 465.7035,11.759 C465.369165,12.2350024 464.964002,12.5948321 464.488,12.8385 C464.011998,13.0821679 463.485003,13.204 462.907,13.204 Z M462.907,11.266 C463.122334,11.266 463.320666,11.2121672 463.502,11.1045 C463.683334,10.9968328 463.841999,10.8013347 463.978,10.518 C464.114001,10.2346652 464.218833,9.85500238 464.2925,9.379 C464.366167,8.90299762 464.403,8.29667035 464.403,7.56 C464.403,6.82332965 464.366167,6.21983568 464.2925,5.7495 C464.218833,5.27916431 464.114001,4.91083466 463.978,4.6445 C463.841999,4.37816533 463.683334,4.19400051 463.502,4.092 C463.320666,3.98999949 463.122334,3.939 462.907,3.939 C462.702999,3.939 462.510334,3.98999949 462.329,4.092 C462.147666,4.19400051 461.989001,4.37816533 461.853,4.6445 C461.716999,4.91083466 461.609334,5.27916431 461.53,5.7495 C461.450666,6.21983568 461.411,6.82332965 461.411,7.56 C461.411,8.29667035 461.450666,8.90299762 461.53,9.379 C461.609334,9.85500238 461.716999,10.2346652 461.853,10.518 C461.989001,10.8013347 462.147666,10.9968328 462.329,11.1045 C462.510334,11.2121672 462.702999,11.266 462.907,11.266 Z M468.5,13 L468.5,4.568 L470.54,4.568 L470.71,5.656 L470.778,5.656 C471.129335,5.30466491 471.503331,5.00150127 471.9,4.7465 C472.296669,4.49149872 472.772664,4.364 473.328,4.364 C473.92867,4.364 474.413165,4.48583211 474.7815,4.7295 C475.149835,4.97316788 475.441666,5.3216644 475.657,5.775 C476.031002,5.38966474 476.424831,5.05816805 476.8385,4.7805 C477.252169,4.50283194 477.742331,4.364 478.309,4.364 C479.215671,4.364 479.881498,4.66716363 480.3065,5.2735 C480.731502,5.87983636 480.944,6.70999473 480.944,7.764 L480.944,13 L478.445,13 L478.445,8.087 C478.445,7.47499694 478.362834,7.0556678 478.1985,6.829 C478.034166,6.6023322 477.770668,6.489 477.408,6.489 C476.988665,6.489 476.507003,6.76099728 475.963,7.305 L475.963,13 L473.464,13 L473.464,8.087 C473.464,7.47499694 473.381834,7.0556678 473.2175,6.829 C473.053166,6.6023322 472.789668,6.489 472.427,6.489 C471.996331,6.489 471.520336,6.76099728 470.999,7.305 L470.999,13 L468.5,13 Z M483.069,13 L483.069,4.568 L485.109,4.568 L485.279,5.656 L485.347,5.656 C485.698335,5.30466491 486.072331,5.00150127 486.469,4.7465 C486.865669,4.49149872 487.341664,4.364 487.897,4.364 C488.49767,4.364 488.982165,4.48583211 489.3505,4.7295 C489.718835,4.97316788 490.010666,5.3216644 490.226,5.775 C490.600002,5.38966474 490.993831,5.05816805 491.4075,4.7805 C491.821169,4.50283194 492.311331,4.364 492.878,4.364 C493.784671,4.364 494.450498,4.66716363 494.8755,5.2735 C495.300502,5.87983636 495.513,6.70999473 495.513,7.764 L495.513,13 L493.014,13 L493.014,8.087 C493.014,7.47499694 492.931834,7.0556678 492.7675,6.829 C492.603166,6.6023322 492.339668,6.489 491.977,6.489 C491.557665,6.489 491.076003,6.76099728 490.532,7.305 L490.532,13 L488.033,13 L488.033,8.087 C488.033,7.47499694 487.950834,7.0556678 487.7865,6.829 C487.622166,6.6023322 487.358668,6.489 486.996,6.489 C486.565331,6.489 486.089336,6.76099728 485.568,7.305 L485.568,13 L483.069,13 Z" id="100mm" fill="#093169" fill-rule="nonzero"></path>
                <path d="M187.6925,13 L185.6355,1.916 L188.2025,1.916 L188.9675,7.101 L189.07375,7.97012499 L189.07375,7.97012499 L189.1885,8.8435 C189.267834,9.42716959 189.3415,10.0136637 189.4095,10.603 L189.4775,10.603 L189.645375,9.72112499 L189.645375,9.72112499 L189.809,8.8435 C189.916667,8.25983042 190.027166,7.67900289 190.1405,7.101 L191.3305,1.916 L193.4555,1.916 L194.6455,7.101 L194.813375,7.95737497 L194.813375,7.95737497 L195.3085,10.603 L195.3085,10.603 L195.3765,10.603 L195.606,8.835 C195.679667,8.25699711 195.756166,7.67900289 195.8355,7.101 L196.6005,1.916 L198.9975,1.916 L197.0255,13 L193.8805,13 L192.7925,7.968 C192.701833,7.53733118 192.619667,7.10383552 192.546,6.6675 C192.472333,6.23116449 192.407167,5.80900204 192.3505,5.401 L192.2825,5.401 L192.07,6.6675 L192.07,6.6675 C191.996333,7.10383552 191.914167,7.53733118 191.8235,7.968 L190.7865,13 L187.6925,13 Z M200.3235,13 L200.3235,4.568 L202.8225,4.568 L202.8225,13 L200.3235,13 Z M201.5645,3.327 C201.145165,3.327 200.799501,3.20516789 200.5275,2.9615 C200.255499,2.71783212 200.1195,2.40333526 200.1195,2.018 C200.1195,1.63266474 200.255499,1.32100119 200.5275,1.083 C200.799501,0.84499881 201.145165,0.726 201.5645,0.726 C201.995169,0.726 202.343665,0.84499881 202.61,1.083 C202.876335,1.32100119 203.0095,1.63266474 203.0095,2.018 C203.0095,2.40333526 202.876335,2.71783212 202.61,2.9615 C202.343665,3.20516789 201.995169,3.327 201.5645,3.327 Z M205.0155,13 L205.0155,4.568 L207.0555,4.568 L207.2255,5.639 L207.2935,5.639 C207.656168,5.2989983 208.052831,5.00150128 208.4835,4.7465 C208.914169,4.49149873 209.418497,4.364 209.9965,4.364 C210.914505,4.364 211.580331,4.66433033 211.994,5.265 C212.407669,5.86566967 212.6145,6.69866134 212.6145,7.764 L212.6145,13 L210.1155,13 L210.1155,8.087 C210.1155,7.47499694 210.033334,7.0556678 209.869,6.829 C209.704666,6.6023322 209.441168,6.489 209.0785,6.489 C208.761165,6.489 208.489168,6.55983263 208.2625,6.7015 C208.035832,6.84316738 207.786501,7.04433203 207.5145,7.305 L207.5145,13 L205.0155,13 Z M217.7485,13.204 C217.227164,13.204 216.754002,13.102001 216.329,12.898 C215.903998,12.693999 215.541335,12.4021686 215.241,12.0225 C214.940665,11.6428314 214.708334,11.1810027 214.544,10.637 C214.379666,10.0929973 214.2975,9.47533679 214.2975,8.784 C214.2975,8.09266321 214.396666,7.47500272 214.595,6.931 C214.793334,6.38699728 215.053998,5.92516857 215.377,5.5455 C215.700002,5.16583144 216.073998,4.87400102 216.499,4.67 C216.924002,4.46599898 217.357498,4.364 217.7995,4.364 C218.275502,4.364 218.666498,4.44333254 218.9725,4.602 C219.278502,4.76066746 219.578832,4.97599864 219.8735,5.248 L219.7715,3.956 L219.7715,1.083 L222.2705,1.083 L222.2705,13 L220.2305,13 L220.0605,12.167 L219.9925,12.167 C219.697832,12.4616681 219.352169,12.7081657 218.9555,12.9065 C218.558831,13.1048343 218.156502,13.204 217.7485,13.204 Z M218.3945,11.164 C218.666501,11.164 218.912999,11.1073339 219.134,10.994 C219.355001,10.8806661 219.567499,10.6823348 219.7715,10.399 L219.7715,6.948 C219.544832,6.74399898 219.312501,6.60233373 219.0745,6.523 C218.836499,6.44366627 218.604168,6.404 218.3775,6.404 C217.980831,6.404 217.629502,6.59383144 217.3235,6.9735 C217.017498,7.35316857 216.8645,7.94532931 216.8645,8.75 C216.8645,9.58867086 216.997665,10.2006647 217.264,10.586 C217.530335,10.9713353 217.907164,11.164 218.3945,11.164 Z M228.1015,13.204 C227.568831,13.204 227.053169,13.1048343 226.5545,12.9065 C226.055831,12.7081657 225.616669,12.4220019 225.237,12.048 C224.857331,11.6739981 224.554168,11.2121694 224.3275,10.6625 C224.100832,10.1128306 223.9875,9.48667018 223.9875,8.784 C223.9875,8.08132982 224.100832,7.45516942 224.3275,6.9055 C224.554168,6.35583059 224.857331,5.89400187 225.237,5.52 C225.616669,5.14599813 226.055831,4.85983433 226.5545,4.6615 C227.053169,4.46316568 227.568831,4.364 228.1015,4.364 C228.634169,4.364 229.146998,4.46316568 229.64,4.6615 C230.133002,4.85983433 230.569331,5.14599813 230.949,5.52 C231.328669,5.89400187 231.631832,6.35583059 231.8585,6.9055 C232.085168,7.45516942 232.1985,8.08132982 232.1985,8.784 C232.1985,9.48667018 232.085168,10.1128306 231.8585,10.6625 C231.631832,11.2121694 231.328669,11.6739981 230.949,12.048 C230.569331,12.4220019 230.133002,12.7081657 229.64,12.9065 C229.146998,13.1048343 228.634169,13.204 228.1015,13.204 Z M228.1015,11.181 C228.611503,11.181 228.996832,10.9656688 229.2575,10.535 C229.518168,10.1043312 229.6485,9.52067035 229.6485,8.784 C229.6485,8.04732965 229.518168,7.46366882 229.2575,7.033 C228.996832,6.60233118 228.611503,6.387 228.1015,6.387 C227.580164,6.387 227.192001,6.60233118 226.937,7.033 C226.681999,7.46366882 226.5545,8.04732965 226.5545,8.784 C226.5545,9.52067035 226.681999,10.1043312 226.937,10.535 C227.192001,10.9656688 227.580164,11.181 228.1015,11.181 Z M235.3265,13 L233.2185,4.568 L235.7005,4.568 L236.5165,8.478 L236.61425,9.10275002 L236.61425,9.10275002 L236.824389,10.5501106 C236.845796,10.6911474 236.867833,10.8334437 236.8905,10.977 L236.9585,10.977 L237.188,9.702 L237.188,9.702 C237.237111,9.42244305 237.292518,9.14792588 237.354222,8.87844486 L238.3865,4.568 L240.5455,4.568 L241.4975,8.478 C241.5655,8.75755695 241.628463,9.03459262 241.686389,9.30911067 L241.935722,10.5501106 C241.964685,10.6911474 241.994278,10.8334437 242.0245,10.977 L242.0925,10.977 C242.145389,10.6898875 242.191982,10.4078148 242.232278,10.1307782 L242.288,9.719 C242.339,9.31099796 242.404166,8.89733543 242.4835,8.478 L243.2825,4.568 L245.5945,4.568 L243.5715,13 L240.6475,13 L239.8825,9.634 C239.791833,9.23733135 239.7125,8.84066865 239.6445,8.444 L239.4235,7.169 L239.4235,7.169 L239.3555,7.169 C239.276166,7.6223356 239.205334,8.04733135 239.143,8.444 C239.080666,8.84066865 239.009834,9.23733135 238.9305,9.634 L238.1825,13 L235.3265,13 Z M254.1285,13.204 C253.595831,13.204 253.080169,13.1048343 252.5815,12.9065 C252.082831,12.7081657 251.643669,12.4220019 251.264,12.048 C250.884331,11.6739981 250.581168,11.2121694 250.3545,10.6625 C250.127832,10.1128306 250.0145,9.48667018 250.0145,8.784 C250.0145,8.08132982 250.127832,7.45516942 250.3545,6.9055 C250.581168,6.35583059 250.884331,5.89400187 251.264,5.52 C251.643669,5.14599813 252.082831,4.85983433 252.5815,4.6615 C253.080169,4.46316568 253.595831,4.364 254.1285,4.364 C254.661169,4.364 255.173998,4.46316568 255.667,4.6615 C256.160002,4.85983433 256.596331,5.14599813 256.976,5.52 C257.355669,5.89400187 257.658832,6.35583059 257.8855,6.9055 C258.112168,7.45516942 258.2255,8.08132982 258.2255,8.784 C258.2255,9.48667018 258.112168,10.1128306 257.8855,10.6625 C257.658832,11.2121694 257.355669,11.6739981 256.976,12.048 C256.596331,12.4220019 256.160002,12.7081657 255.667,12.9065 C255.173998,13.1048343 254.661169,13.204 254.1285,13.204 Z M254.1285,11.181 C254.638503,11.181 255.023832,10.9656688 255.2845,10.535 C255.545168,10.1043312 255.6755,9.52067035 255.6755,8.784 C255.6755,8.04732965 255.545168,7.46366882 255.2845,7.033 C255.023832,6.60233118 254.638503,6.387 254.1285,6.387 C253.607164,6.387 253.219001,6.60233118 252.964,7.033 C252.708999,7.46366882 252.5815,8.04732965 252.5815,8.784 C252.5815,9.52067035 252.708999,10.1043312 252.964,10.535 C253.219001,10.9656688 253.607164,11.181 254.1285,11.181 Z M259.9425,16.128 L259.9425,4.568 L261.9825,4.568 L262.1525,5.401 L262.2205,5.401 C262.549168,5.10633186 262.920331,4.85983433 263.334,4.6615 C263.747669,4.46316568 264.175498,4.364 264.6175,4.364 C265.127503,4.364 265.586498,4.46599898 265.9945,4.67 C266.402502,4.87400102 266.748165,5.16299813 267.0315,5.537 C267.314835,5.91100187 267.532999,6.36149737 267.686,6.8885 C267.839001,7.41550264 267.9155,8.00199677 267.9155,8.648 C267.9155,9.37333696 267.816334,10.0164972 267.618,10.5775 C267.419666,11.1385028 267.153335,11.614498 266.819,12.0055 C266.484665,12.396502 266.105002,12.693999 265.68,12.898 C265.254998,13.102001 264.815836,13.204 264.3625,13.204 C263.999832,13.204 263.648502,13.1275008 263.3085,12.9745 C262.968498,12.8214992 262.651168,12.6033348 262.3565,12.32 L262.4415,13.663 L262.4415,16.128 L259.9425,16.128 Z M263.7845,11.164 C264.215169,11.164 264.583498,10.968502 264.8895,10.5775 C265.195502,10.186498 265.3485,9.55467103 265.3485,8.682 C265.3485,7.16332574 264.861172,6.404 263.8865,6.404 C263.399164,6.404 262.917502,6.65899745 262.4415,7.169 L262.4415,10.62 C262.668168,10.824001 262.894832,10.9656663 263.1215,11.045 C263.348168,11.1243337 263.569166,11.164 263.7845,11.164 Z M273.4575,13.204 C272.85683,13.204 272.295836,13.1048343 271.7745,12.9065 C271.253164,12.7081657 270.799835,12.4191686 270.4145,12.0395 C270.029165,11.6598314 269.728834,11.1980027 269.5135,10.654 C269.298166,10.1099973 269.1905,9.48667018 269.1905,8.784 C269.1905,8.1039966 269.303832,7.48916942 269.5305,6.9395 C269.757168,6.38983059 270.054665,5.92516857 270.423,5.5455 C270.791335,5.16583144 271.213498,4.87400102 271.6895,4.67 C272.165502,4.46599898 272.658497,4.364 273.1685,4.364 C273.76917,4.364 274.293331,4.46599898 274.741,4.67 C275.188669,4.87400102 275.562665,5.15733152 275.863,5.52 C276.163335,5.88266848 276.387166,6.31049754 276.5345,6.8035 C276.681834,7.29650247 276.7555,7.83199711 276.7555,8.41 C276.7555,8.6366678 276.744167,8.85199898 276.7215,9.056 L276.6875,9.32375019 C276.676167,9.40025 276.664833,9.46399975 276.6535,9.515 L271.6045,9.515 C271.717834,10.1270031 271.969998,10.5774986 272.361,10.8665 C272.752002,11.1555014 273.230831,11.3 273.7975,11.3 C274.39817,11.3 275.004497,11.1130019 275.6165,10.739 L276.4495,12.252 C276.018831,12.5466681 275.540003,12.7789992 275.013,12.949 C274.485997,13.1190009 273.967503,13.204 273.4575,13.204 Z M271.5875,7.866 L274.6305,7.866 C274.6305,7.38999762 274.522834,7.00466814 274.3075,6.71 C274.092166,6.41533186 273.729503,6.268 273.2195,6.268 C272.822831,6.268 272.474335,6.39833203 272.174,6.659 C271.873665,6.91966797 271.678167,7.32199728 271.5875,7.866 Z M278.4895,13 L278.4895,4.568 L280.5295,4.568 L280.6995,5.639 L280.7675,5.639 C281.130168,5.2989983 281.526831,5.00150128 281.9575,4.7465 C282.388169,4.49149873 282.892497,4.364 283.4705,4.364 C284.388505,4.364 285.054331,4.66433033 285.468,5.265 C285.881669,5.86566967 286.0885,6.69866134 286.0885,7.764 L286.0885,13 L283.5895,13 L283.5895,8.087 C283.5895,7.47499694 283.507334,7.0556678 283.343,6.829 C283.178666,6.6023322 282.915168,6.489 282.5525,6.489 C282.235165,6.489 281.963168,6.55983263 281.7365,6.7015 C281.509832,6.84316738 281.260501,7.04433203 280.9885,7.305 L280.9885,13 L278.4895,13 Z M288.2135,13 L288.2135,4.568 L290.7125,4.568 L290.7125,13 L288.2135,13 Z M289.4545,3.327 C289.035165,3.327 288.689501,3.20516789 288.4175,2.9615 C288.145499,2.71783212 288.0095,2.40333526 288.0095,2.018 C288.0095,1.63266474 288.145499,1.32100119 288.4175,1.083 C288.689501,0.84499881 289.035165,0.726 289.4545,0.726 C289.885169,0.726 290.233665,0.84499881 290.5,1.083 C290.766335,1.32100119 290.8995,1.63266474 290.8995,2.018 C290.8995,2.40333526 290.766335,2.71783212 290.5,2.9615 C290.233665,3.20516789 289.885169,3.327 289.4545,3.327 Z M292.9055,13 L292.9055,4.568 L294.9455,4.568 L295.1155,5.639 L295.1835,5.639 C295.546168,5.2989983 295.942831,5.00150128 296.3735,4.7465 C296.804169,4.49149873 297.308497,4.364 297.8865,4.364 C298.804505,4.364 299.470331,4.66433033 299.884,5.265 C300.297669,5.86566967 300.5045,6.69866134 300.5045,7.764 L300.5045,13 L298.0055,13 L298.0055,8.087 C298.0055,7.47499694 297.923334,7.0556678 297.759,6.829 C297.594666,6.6023322 297.331168,6.489 296.9685,6.489 C296.651165,6.489 296.379168,6.55983263 296.1525,6.7015 C295.925832,6.84316738 295.676501,7.04433203 295.4045,7.305 L295.4045,13 L292.9055,13 Z M305.8255,4.364 C306.324169,4.364 306.760498,4.43199932 307.1345,4.568 L310.2115,4.568 L310.2115,6.387 L308.8685,6.387 C308.947834,6.51166729 309.013,6.67033237 309.064,6.863 C309.115,7.05566763 309.1405,7.2653322 309.1405,7.492 C309.1405,7.97933577 309.055501,8.40149822 308.8855,8.7585 C308.715499,9.11550179 308.480335,9.41016551 308.18,9.6425 C307.879665,9.8748345 307.528335,10.0476661 307.126,10.161 C306.723665,10.2743339 306.290169,10.331 305.8255,10.331 C305.496832,10.331 305.156835,10.2743339 304.8055,10.161 C304.692166,10.2516671 304.612834,10.3423329 304.5675,10.433 C304.522166,10.5236671 304.4995,10.6426659 304.4995,10.79 C304.4995,11.0053344 304.592999,11.1639995 304.78,11.266 C304.967001,11.3680005 305.298498,11.419 305.7745,11.419 L307.1345,11.419 C308.177172,11.419 308.973331,11.586165 309.523,11.9205 C310.072669,12.254835 310.3475,12.8016629 310.3475,13.561 C310.3475,14.0030022 310.237001,14.4081648 310.016,14.7765 C309.794999,15.1448352 309.480502,15.4621653 309.0725,15.7285 C308.664498,15.9948347 308.171503,16.2044992 307.5935,16.3575 C307.015497,16.5105008 306.363837,16.587 305.6385,16.587 C305.139831,16.587 304.678002,16.5445004 304.253,16.4595 C303.827998,16.3744996 303.454002,16.2470009 303.131,16.077 C302.807998,15.9069992 302.555834,15.6860014 302.3745,15.414 C302.193166,15.1419986 302.1025,14.8190019 302.1025,14.445 C302.1025,13.7649966 302.504829,13.1983356 303.3095,12.745 L303.3095,12.677 C303.082832,12.5296659 302.895834,12.3426678 302.7485,12.116 C302.601166,11.8893322 302.5275,11.6003351 302.5275,11.249 C302.5275,10.9429985 302.618166,10.6511681 302.7995,10.3735 C302.980834,10.0958319 303.207499,9.86066763 303.4795,9.668 L303.4795,9.6 C303.184832,9.39599898 302.921334,9.10416857 302.689,8.7245 C302.456666,8.34483144 302.3405,7.90566916 302.3405,7.407 C302.3405,6.89699745 302.436832,6.45216857 302.6295,6.0725 C302.822168,5.69283144 303.079998,5.37550128 303.403,5.1205 C303.726002,4.86549873 304.097165,4.67566729 304.5165,4.551 C304.935835,4.42633271 305.372164,4.364 305.8255,4.364 Z M304.6185,13.221 C304.312498,13.4930014 304.1595,13.7706653 304.1595,14.054 C304.1595,14.3713349 304.329498,14.6121658 304.6695,14.7765 C305.009502,14.9408342 305.462831,15.023 306.0295,15.023 C306.59617,15.023 307.060832,14.9238343 307.4235,14.7255 C307.786168,14.5271657 307.9675,14.2806681 307.9675,13.986 C307.9675,13.725332 307.857001,13.5496671 307.636,13.459 C307.414999,13.3683329 307.094835,13.323 306.6755,13.323 L306.6755,13.323 L305.8085,13.323 C305.513832,13.323 305.275834,13.3145001 305.0945,13.2975 C304.913166,13.2804999 304.754501,13.2550002 304.6185,13.221 Z M305.8255,6.047 C305.496832,6.047 305.222001,6.1603322 305.001,6.387 C304.779999,6.6136678 304.6695,6.9536644 304.6695,7.407 C304.6695,7.88300238 304.779999,8.23716551 305.001,8.4695 C305.222001,8.7018345 305.496832,8.818 305.8255,8.818 C306.154168,8.818 306.428999,8.7018345 306.65,8.4695 C306.871001,8.23716551 306.9815,7.88300238 306.9815,7.407 C306.9815,6.96499779 306.871001,6.6278345 306.65,6.3955 C306.428999,6.16316551 306.154168,6.047 305.8255,6.047 Z" id="Windowopening" fill="#093169" fill-rule="nonzero"></path>
            </g>
        </g>
    </g>
</svg>