<?xml version="1.0" encoding="UTF-8"?>
<svg width="848px" height="212px" viewBox="0 0 848 212" version="1.1" xmlns="http://www.w3.org/2000/svg" xmlns:xlink="http://www.w3.org/1999/xlink">
    <!-- Generator: Sketch 59.1 (86144) - https://sketch.com -->
    <title>windowCillsHeads/C65-top</title>
    <desc>Created with Sketch.</desc>
    <g id="windowCillsHeads/C65-top" stroke="none" stroke-width="1" fill="none" fill-rule="evenodd">
        <rect fill="#F5F9FF" x="0" y="0" width="848" height="212"></rect>
        <g id="Group-3" transform="translate(104.000000, 102.000000)" fill="#FFFFFF" stroke="#CBD8F2">
            <rect id="Rectangle" x="0" y="0" width="490" height="74"></rect>
            <path d="M490,0 L490,50 L441,50 L441,20 L49,20 L49,50 L0,50 L0,0 L490,0 Z" id="Combined-Shape"></path>
        </g>
        <g id="Group-2" transform="translate(100.000000, 39.000000)">
            <polyline id="Rectangle-Copy" stroke="#CBD8F2" points="444.081667 48 444 33 493 33 493 48"></polyline>
            <polyline id="Rectangle-Copy-6" stroke="#CBD8F2" points="57.6366667 48 57 33 439 33 439 48"></polyline>
            <polyline id="Rectangle-Copy-5" stroke="#CBD8F2" points="3.08166667 48 3 33 52 33 52 48"></polyline>
            <path d="M0.657,13 L0.657,10.977 L3.003,10.977 L3.003,4.738 L0.98,4.738 L0.98,3.191 C1.56933628,3.0776661 2.06799796,2.94166746 2.476,2.783 C2.88400204,2.62433254 3.28066474,2.4316678 3.666,2.205 L5.502,2.205 L5.502,10.977 L7.525,10.977 L7.525,13 L0.657,13 Z M12.931,13.204 C12.3529971,13.204 11.8260024,13.0821679 11.35,12.8385 C10.8739976,12.5948321 10.468835,12.2350024 10.1345,11.759 C9.800165,11.2829976 9.53950094,10.6936702 9.3525,9.991 C9.16549907,9.28832982 9.072,8.47800459 9.072,7.56 C9.072,6.64199541 9.16549907,5.83733679 9.3525,5.146 C9.53950094,4.45466321 9.800165,3.87383569 10.1345,3.4035 C10.468835,2.93316432 10.8739976,2.5818345 11.35,2.3495 C11.8260024,2.11716551 12.3529971,2.001 12.931,2.001 C13.5090029,2.001 14.0359976,2.11716551 14.512,2.3495 C14.9880024,2.5818345 15.393165,2.93316432 15.7275,3.4035 C16.061835,3.87383569 16.3224991,4.45466321 16.5095,5.146 C16.6965009,5.83733679 16.79,6.64199541 16.79,7.56 C16.79,8.47800459 16.6965009,9.28832982 16.5095,9.991 C16.3224991,10.6936702 16.061835,11.2829976 15.7275,11.759 C15.393165,12.2350024 14.9880024,12.5948321 14.512,12.8385 C14.0359976,13.0821679 13.5090029,13.204 12.931,13.204 Z M12.931,11.266 C13.1463344,11.266 13.3446658,11.2121672 13.526,11.1045 C13.7073342,10.9968328 13.8659993,10.8013348 14.002,10.518 C14.1380007,10.2346653 14.242833,9.85500238 14.3165,9.379 C14.390167,8.90299762 14.427,8.29667035 14.427,7.56 C14.427,6.82332965 14.390167,6.21983569 14.3165,5.7495 C14.242833,5.27916432 14.1380007,4.91083467 14.002,4.6445 C13.8659993,4.37816534 13.7073342,4.19400051 13.526,4.092 C13.3446658,3.98999949 13.1463344,3.939 12.931,3.939 C12.726999,3.939 12.5343342,3.98999949 12.353,4.092 C12.1716658,4.19400051 12.0130007,4.37816534 11.877,4.6445 C11.7409993,4.91083467 11.6333337,5.27916432 11.554,5.7495 C11.4746663,6.21983569 11.435,6.82332965 11.435,7.56 C11.435,8.29667035 11.4746663,8.90299762 11.554,9.379 C11.6333337,9.85500238 11.7409993,10.2346653 11.877,10.518 C12.0130007,10.8013348 12.1716658,10.9968328 12.353,11.1045 C12.5343342,11.2121672 12.726999,11.266 12.931,11.266 Z M21.907,13.204 C21.3289971,13.204 20.8020024,13.0821679 20.326,12.8385 C19.8499976,12.5948321 19.444835,12.2350024 19.1105,11.759 C18.776165,11.2829976 18.5155009,10.6936702 18.3285,9.991 C18.1414991,9.28832982 18.048,8.47800459 18.048,7.56 C18.048,6.64199541 18.1414991,5.83733679 18.3285,5.146 C18.5155009,4.45466321 18.776165,3.87383569 19.1105,3.4035 C19.444835,2.93316432 19.8499976,2.5818345 20.326,2.3495 C20.8020024,2.11716551 21.3289971,2.001 21.907,2.001 C22.4850029,2.001 23.0119976,2.11716551 23.488,2.3495 C23.9640024,2.5818345 24.369165,2.93316432 24.7035,3.4035 C25.037835,3.87383569 25.2984991,4.45466321 25.4855,5.146 C25.6725009,5.83733679 25.766,6.64199541 25.766,7.56 C25.766,8.47800459 25.6725009,9.28832982 25.4855,9.991 C25.2984991,10.6936702 25.037835,11.2829976 24.7035,11.759 C24.369165,12.2350024 23.9640024,12.5948321 23.488,12.8385 C23.0119976,13.0821679 22.4850029,13.204 21.907,13.204 Z M21.907,11.266 C22.1223344,11.266 22.3206658,11.2121672 22.502,11.1045 C22.6833342,10.9968328 22.8419993,10.8013348 22.978,10.518 C23.1140007,10.2346653 23.218833,9.85500238 23.2925,9.379 C23.366167,8.90299762 23.403,8.29667035 23.403,7.56 C23.403,6.82332965 23.366167,6.21983569 23.2925,5.7495 C23.218833,5.27916432 23.1140007,4.91083467 22.978,4.6445 C22.8419993,4.37816534 22.6833342,4.19400051 22.502,4.092 C22.3206658,3.98999949 22.1223344,3.939 21.907,3.939 C21.702999,3.939 21.5103342,3.98999949 21.329,4.092 C21.1476658,4.19400051 20.9890007,4.37816534 20.853,4.6445 C20.7169993,4.91083467 20.6093337,5.27916432 20.53,5.7495 C20.4506663,6.21983569 20.411,6.82332965 20.411,7.56 C20.411,8.29667035 20.4506663,8.90299762 20.53,9.379 C20.6093337,9.85500238 20.7169993,10.2346653 20.853,10.518 C20.9890007,10.8013348 21.1476658,10.9968328 21.329,11.1045 C21.5103342,11.2121672 21.702999,11.266 21.907,11.266 Z M27.5,13 L27.5,4.568 L29.54,4.568 L29.71,5.656 L29.778,5.656 C30.1293351,5.30466491 30.5033314,5.00150128 30.9,4.7465 C31.2966687,4.49149873 31.7726639,4.364 32.328,4.364 C32.9286697,4.364 33.4131648,4.48583212 33.7815,4.7295 C34.1498352,4.97316789 34.4416656,5.3216644 34.657,5.775 C35.0310019,5.38966474 35.4248313,5.05816806 35.8385,4.7805 C36.2521687,4.50283195 36.7423305,4.364 37.309,4.364 C38.2156712,4.364 38.8814979,4.66716364 39.3065,5.2735 C39.7315021,5.87983637 39.944,6.70999473 39.944,7.764 L39.944,13 L37.445,13 L37.445,8.087 C37.445,7.47499694 37.3628342,7.0556678 37.1985,6.829 C37.0341658,6.6023322 36.7706685,6.489 36.408,6.489 C35.9886646,6.489 35.5070027,6.76099728 34.963,7.305 L34.963,13 L32.464,13 L32.464,8.087 C32.464,7.47499694 32.3818342,7.0556678 32.2175,6.829 C32.0531658,6.6023322 31.7896685,6.489 31.427,6.489 C30.9963312,6.489 30.5203359,6.76099728 29.999,7.305 L29.999,13 L27.5,13 Z M42.069,13 L42.069,4.568 L44.109,4.568 L44.279,5.656 L44.347,5.656 C44.6983351,5.30466491 45.0723314,5.00150128 45.469,4.7465 C45.8656687,4.49149873 46.3416639,4.364 46.897,4.364 C47.4976697,4.364 47.9821648,4.48583212 48.3505,4.7295 C48.7188352,4.97316789 49.0106656,5.3216644 49.226,5.775 C49.6000019,5.38966474 49.9938313,5.05816806 50.4075,4.7805 C50.8211687,4.50283195 51.3113305,4.364 51.878,4.364 C52.7846712,4.364 53.4504979,4.66716364 53.8755,5.2735 C54.3005021,5.87983637 54.513,6.70999473 54.513,7.764 L54.513,13 L52.014,13 L52.014,8.087 C52.014,7.47499694 51.9318342,7.0556678 51.7675,6.829 C51.6031658,6.6023322 51.3396685,6.489 50.977,6.489 C50.5576646,6.489 50.0760027,6.76099728 49.532,7.305 L49.532,13 L47.033,13 L47.033,8.087 C47.033,7.47499694 46.9508342,7.0556678 46.7865,6.829 C46.6221658,6.6023322 46.3586685,6.489 45.996,6.489 C45.5653312,6.489 45.0893359,6.76099728 44.568,7.305 L44.568,13 L42.069,13 Z" id="100mm" fill="#093169" fill-rule="nonzero" transform="translate(27.585000, 7.602500) rotate(-360.000000) translate(-27.585000, -7.602500) "></path>
            <path d="M441.657,13 L441.657,10.977 L444.003,10.977 L444.003,4.738 L441.98,4.738 L441.98,3.191 C442.569336,3.0776661 443.067998,2.94166746 443.476,2.783 C443.884002,2.62433254 444.280665,2.4316678 444.666,2.205 L446.502,2.205 L446.502,10.977 L448.525,10.977 L448.525,13 L441.657,13 Z M453.931,13.204 C453.352997,13.204 452.826002,13.0821679 452.35,12.8385 C451.873998,12.5948321 451.468835,12.2350024 451.1345,11.759 C450.800165,11.2829976 450.539501,10.6936702 450.3525,9.991 C450.165499,9.28832982 450.072,8.47800459 450.072,7.56 C450.072,6.64199541 450.165499,5.83733679 450.3525,5.146 C450.539501,4.45466321 450.800165,3.87383569 451.1345,3.4035 C451.468835,2.93316432 451.873998,2.5818345 452.35,2.3495 C452.826002,2.11716551 453.352997,2.001 453.931,2.001 C454.509003,2.001 455.035998,2.11716551 455.512,2.3495 C455.988002,2.5818345 456.393165,2.93316432 456.7275,3.4035 C457.061835,3.87383569 457.322499,4.45466321 457.5095,5.146 C457.696501,5.83733679 457.79,6.64199541 457.79,7.56 C457.79,8.47800459 457.696501,9.28832982 457.5095,9.991 C457.322499,10.6936702 457.061835,11.2829976 456.7275,11.759 C456.393165,12.2350024 455.988002,12.5948321 455.512,12.8385 C455.035998,13.0821679 454.509003,13.204 453.931,13.204 Z M453.931,11.266 C454.146334,11.266 454.344666,11.2121672 454.526,11.1045 C454.707334,10.9968328 454.865999,10.8013348 455.002,10.518 C455.138001,10.2346653 455.242833,9.85500238 455.3165,9.379 C455.390167,8.90299762 455.427,8.29667035 455.427,7.56 C455.427,6.82332965 455.390167,6.21983569 455.3165,5.7495 C455.242833,5.27916432 455.138001,4.91083467 455.002,4.6445 C454.865999,4.37816534 454.707334,4.19400051 454.526,4.092 C454.344666,3.98999949 454.146334,3.939 453.931,3.939 C453.726999,3.939 453.534334,3.98999949 453.353,4.092 C453.171666,4.19400051 453.013001,4.37816534 452.877,4.6445 C452.740999,4.91083467 452.633334,5.27916432 452.554,5.7495 C452.474666,6.21983569 452.435,6.82332965 452.435,7.56 C452.435,8.29667035 452.474666,8.90299762 452.554,9.379 C452.633334,9.85500238 452.740999,10.2346653 452.877,10.518 C453.013001,10.8013348 453.171666,10.9968328 453.353,11.1045 C453.534334,11.2121672 453.726999,11.266 453.931,11.266 Z M462.907,13.204 C462.328997,13.204 461.802002,13.0821679 461.326,12.8385 C460.849998,12.5948321 460.444835,12.2350024 460.1105,11.759 C459.776165,11.2829976 459.515501,10.6936702 459.3285,9.991 C459.141499,9.28832982 459.048,8.47800459 459.048,7.56 C459.048,6.64199541 459.141499,5.83733679 459.3285,5.146 C459.515501,4.45466321 459.776165,3.87383569 460.1105,3.4035 C460.444835,2.93316432 460.849998,2.5818345 461.326,2.3495 C461.802002,2.11716551 462.328997,2.001 462.907,2.001 C463.485003,2.001 464.011998,2.11716551 464.488,2.3495 C464.964002,2.5818345 465.369165,2.93316432 465.7035,3.4035 C466.037835,3.87383569 466.298499,4.45466321 466.4855,5.146 C466.672501,5.83733679 466.766,6.64199541 466.766,7.56 C466.766,8.47800459 466.672501,9.28832982 466.4855,9.991 C466.298499,10.6936702 466.037835,11.2829976 465.7035,11.759 C465.369165,12.2350024 464.964002,12.5948321 464.488,12.8385 C464.011998,13.0821679 463.485003,13.204 462.907,13.204 Z M462.907,11.266 C463.122334,11.266 463.320666,11.2121672 463.502,11.1045 C463.683334,10.9968328 463.841999,10.8013348 463.978,10.518 C464.114001,10.2346653 464.218833,9.85500238 464.2925,9.379 C464.366167,8.90299762 464.403,8.29667035 464.403,7.56 C464.403,6.82332965 464.366167,6.21983569 464.2925,5.7495 C464.218833,5.27916432 464.114001,4.91083467 463.978,4.6445 C463.841999,4.37816534 463.683334,4.19400051 463.502,4.092 C463.320666,3.98999949 463.122334,3.939 462.907,3.939 C462.702999,3.939 462.510334,3.98999949 462.329,4.092 C462.147666,4.19400051 461.989001,4.37816534 461.853,4.6445 C461.716999,4.91083467 461.609334,5.27916432 461.53,5.7495 C461.450666,6.21983569 461.411,6.82332965 461.411,7.56 C461.411,8.29667035 461.450666,8.90299762 461.53,9.379 C461.609334,9.85500238 461.716999,10.2346653 461.853,10.518 C461.989001,10.8013348 462.147666,10.9968328 462.329,11.1045 C462.510334,11.2121672 462.702999,11.266 462.907,11.266 Z M468.5,13 L468.5,4.568 L470.54,4.568 L470.71,5.656 L470.778,5.656 C471.129335,5.30466491 471.503331,5.00150128 471.9,4.7465 C472.296669,4.49149873 472.772664,4.364 473.328,4.364 C473.92867,4.364 474.413165,4.48583212 474.7815,4.7295 C475.149835,4.97316789 475.441666,5.3216644 475.657,5.775 C476.031002,5.38966474 476.424831,5.05816806 476.8385,4.7805 C477.252169,4.50283195 477.742331,4.364 478.309,4.364 C479.215671,4.364 479.881498,4.66716364 480.3065,5.2735 C480.731502,5.87983637 480.944,6.70999473 480.944,7.764 L480.944,13 L478.445,13 L478.445,8.087 C478.445,7.47499694 478.362834,7.0556678 478.1985,6.829 C478.034166,6.6023322 477.770668,6.489 477.408,6.489 C476.988665,6.489 476.507003,6.76099728 475.963,7.305 L475.963,13 L473.464,13 L473.464,8.087 C473.464,7.47499694 473.381834,7.0556678 473.2175,6.829 C473.053166,6.6023322 472.789668,6.489 472.427,6.489 C471.996331,6.489 471.520336,6.76099728 470.999,7.305 L470.999,13 L468.5,13 Z M483.069,13 L483.069,4.568 L485.109,4.568 L485.279,5.656 L485.347,5.656 C485.698335,5.30466491 486.072331,5.00150128 486.469,4.7465 C486.865669,4.49149873 487.341664,4.364 487.897,4.364 C488.49767,4.364 488.982165,4.48583212 489.3505,4.7295 C489.718835,4.97316789 490.010666,5.3216644 490.226,5.775 C490.600002,5.38966474 490.993831,5.05816806 491.4075,4.7805 C491.821169,4.50283195 492.311331,4.364 492.878,4.364 C493.784671,4.364 494.450498,4.66716364 494.8755,5.2735 C495.300502,5.87983637 495.513,6.70999473 495.513,7.764 L495.513,13 L493.014,13 L493.014,8.087 C493.014,7.47499694 492.931834,7.0556678 492.7675,6.829 C492.603166,6.6023322 492.339668,6.489 491.977,6.489 C491.557665,6.489 491.076003,6.76099728 490.532,7.305 L490.532,13 L488.033,13 L488.033,8.087 C488.033,7.47499694 487.950834,7.0556678 487.7865,6.829 C487.622166,6.6023322 487.358668,6.489 486.996,6.489 C486.565331,6.489 486.089336,6.76099728 485.568,7.305 L485.568,13 L483.069,13 Z" id="100mm" fill="#093169" fill-rule="nonzero" transform="translate(468.585000, 7.602500) rotate(-360.000000) translate(-468.585000, -7.602500) "></path>
            <path d="M188.1925,13 L186.1355,1.916 L188.7025,1.916 L189.4675,7.101 L189.57375,7.97012499 L189.57375,7.97012499 L189.6885,8.8435 C189.767834,9.42716959 189.8415,10.0136637 189.9095,10.603 L189.9775,10.603 L190.145375,9.72112499 L190.145375,9.72112499 L190.309,8.8435 C190.416667,8.25983042 190.527166,7.67900289 190.6405,7.101 L191.8305,1.916 L193.9555,1.916 L195.1455,7.101 L195.313375,7.95737497 L195.313375,7.95737497 L195.8085,10.603 L195.8085,10.603 L195.8765,10.603 L196.106,8.835 C196.179667,8.25699711 196.256166,7.67900289 196.3355,7.101 L197.1005,1.916 L199.4975,1.916 L197.5255,13 L194.3805,13 L193.2925,7.968 C193.201833,7.53733118 193.119667,7.10383552 193.046,6.6675 C192.972333,6.23116449 192.907167,5.80900204 192.8505,5.401 L192.7825,5.401 L192.57,6.6675 L192.57,6.6675 C192.496333,7.10383552 192.414167,7.53733118 192.3235,7.968 L191.2865,13 L188.1925,13 Z M200.8235,13 L200.8235,4.568 L203.3225,4.568 L203.3225,13 L200.8235,13 Z M202.0645,3.327 C201.645165,3.327 201.299501,3.20516789 201.0275,2.9615 C200.755499,2.71783212 200.6195,2.40333526 200.6195,2.018 C200.6195,1.63266474 200.755499,1.32100119 201.0275,1.083 C201.299501,0.84499881 201.645165,0.726 202.0645,0.726 C202.495169,0.726 202.843665,0.84499881 203.11,1.083 C203.376335,1.32100119 203.5095,1.63266474 203.5095,2.018 C203.5095,2.40333526 203.376335,2.71783212 203.11,2.9615 C202.843665,3.20516789 202.495169,3.327 202.0645,3.327 Z M205.5155,13 L205.5155,4.568 L207.5555,4.568 L207.7255,5.639 L207.7935,5.639 C208.156168,5.2989983 208.552831,5.00150128 208.9835,4.7465 C209.414169,4.49149873 209.918497,4.364 210.4965,4.364 C211.414505,4.364 212.080331,4.66433033 212.494,5.265 C212.907669,5.86566967 213.1145,6.69866134 213.1145,7.764 L213.1145,13 L210.6155,13 L210.6155,8.087 C210.6155,7.47499694 210.533334,7.0556678 210.369,6.829 C210.204666,6.6023322 209.941168,6.489 209.5785,6.489 C209.261165,6.489 208.989168,6.55983263 208.7625,6.7015 C208.535832,6.84316738 208.286501,7.04433203 208.0145,7.305 L208.0145,13 L205.5155,13 Z M218.2485,13.204 C217.727164,13.204 217.254002,13.102001 216.829,12.898 C216.403998,12.693999 216.041335,12.4021686 215.741,12.0225 C215.440665,11.6428314 215.208334,11.1810027 215.044,10.637 C214.879666,10.0929973 214.7975,9.47533679 214.7975,8.784 C214.7975,8.09266321 214.896666,7.47500272 215.095,6.931 C215.293334,6.38699728 215.553998,5.92516857 215.877,5.5455 C216.200002,5.16583144 216.573998,4.87400102 216.999,4.67 C217.424002,4.46599898 217.857498,4.364 218.2995,4.364 C218.775502,4.364 219.166498,4.44333254 219.4725,4.602 C219.778502,4.76066746 220.078832,4.97599864 220.3735,5.248 L220.2715,3.956 L220.2715,1.083 L222.7705,1.083 L222.7705,13 L220.7305,13 L220.5605,12.167 L220.4925,12.167 C220.197832,12.4616681 219.852169,12.7081657 219.4555,12.9065 C219.058831,13.1048343 218.656502,13.204 218.2485,13.204 Z M218.8945,11.164 C219.166501,11.164 219.412999,11.1073339 219.634,10.994 C219.855001,10.8806661 220.067499,10.6823348 220.2715,10.399 L220.2715,6.948 C220.044832,6.74399898 219.812501,6.60233373 219.5745,6.523 C219.336499,6.44366627 219.104168,6.404 218.8775,6.404 C218.480831,6.404 218.129502,6.59383144 217.8235,6.9735 C217.517498,7.35316857 217.3645,7.94532931 217.3645,8.75 C217.3645,9.58867086 217.497665,10.2006647 217.764,10.586 C218.030335,10.9713353 218.407164,11.164 218.8945,11.164 Z M228.6015,13.204 C228.068831,13.204 227.553169,13.1048343 227.0545,12.9065 C226.555831,12.7081657 226.116669,12.4220019 225.737,12.048 C225.357331,11.6739981 225.054168,11.2121694 224.8275,10.6625 C224.600832,10.1128306 224.4875,9.48667018 224.4875,8.784 C224.4875,8.08132982 224.600832,7.45516942 224.8275,6.9055 C225.054168,6.35583059 225.357331,5.89400187 225.737,5.52 C226.116669,5.14599813 226.555831,4.85983433 227.0545,4.6615 C227.553169,4.46316568 228.068831,4.364 228.6015,4.364 C229.134169,4.364 229.646998,4.46316568 230.14,4.6615 C230.633002,4.85983433 231.069331,5.14599813 231.449,5.52 C231.828669,5.89400187 232.131832,6.35583059 232.3585,6.9055 C232.585168,7.45516942 232.6985,8.08132982 232.6985,8.784 C232.6985,9.48667018 232.585168,10.1128306 232.3585,10.6625 C232.131832,11.2121694 231.828669,11.6739981 231.449,12.048 C231.069331,12.4220019 230.633002,12.7081657 230.14,12.9065 C229.646998,13.1048343 229.134169,13.204 228.6015,13.204 Z M228.6015,11.181 C229.111503,11.181 229.496832,10.9656688 229.7575,10.535 C230.018168,10.1043312 230.1485,9.52067035 230.1485,8.784 C230.1485,8.04732965 230.018168,7.46366882 229.7575,7.033 C229.496832,6.60233118 229.111503,6.387 228.6015,6.387 C228.080164,6.387 227.692001,6.60233118 227.437,7.033 C227.181999,7.46366882 227.0545,8.04732965 227.0545,8.784 C227.0545,9.52067035 227.181999,10.1043312 227.437,10.535 C227.692001,10.9656688 228.080164,11.181 228.6015,11.181 Z M235.8265,13 L233.7185,4.568 L236.2005,4.568 L237.0165,8.478 L237.11425,9.10275002 L237.11425,9.10275002 L237.324389,10.5501106 C237.345796,10.6911474 237.367833,10.8334437 237.3905,10.977 L237.4585,10.977 L237.688,9.702 L237.688,9.702 C237.737111,9.42244305 237.792518,9.14792588 237.854222,8.87844486 L238.8865,4.568 L241.0455,4.568 L241.9975,8.478 C242.0655,8.75755695 242.128463,9.03459262 242.186389,9.30911067 L242.435722,10.5501106 C242.464685,10.6911474 242.494278,10.8334437 242.5245,10.977 L242.5925,10.977 C242.645389,10.6898875 242.691982,10.4078148 242.732278,10.1307782 L242.788,9.719 C242.839,9.31099796 242.904166,8.89733543 242.9835,8.478 L243.7825,4.568 L246.0945,4.568 L244.0715,13 L241.1475,13 L240.3825,9.634 C240.291833,9.23733135 240.2125,8.84066865 240.1445,8.444 L239.9235,7.169 L239.9235,7.169 L239.8555,7.169 C239.776166,7.6223356 239.705334,8.04733135 239.643,8.444 C239.580666,8.84066865 239.509834,9.23733135 239.4305,9.634 L238.6825,13 L235.8265,13 Z M254.6285,13.204 C254.095831,13.204 253.580169,13.1048343 253.0815,12.9065 C252.582831,12.7081657 252.143669,12.4220019 251.764,12.048 C251.384331,11.6739981 251.081168,11.2121694 250.8545,10.6625 C250.627832,10.1128306 250.5145,9.48667018 250.5145,8.784 C250.5145,8.08132982 250.627832,7.45516942 250.8545,6.9055 C251.081168,6.35583059 251.384331,5.89400187 251.764,5.52 C252.143669,5.14599813 252.582831,4.85983433 253.0815,4.6615 C253.580169,4.46316568 254.095831,4.364 254.6285,4.364 C255.161169,4.364 255.673998,4.46316568 256.167,4.6615 C256.660002,4.85983433 257.096331,5.14599813 257.476,5.52 C257.855669,5.89400187 258.158832,6.35583059 258.3855,6.9055 C258.612168,7.45516942 258.7255,8.08132982 258.7255,8.784 C258.7255,9.48667018 258.612168,10.1128306 258.3855,10.6625 C258.158832,11.2121694 257.855669,11.6739981 257.476,12.048 C257.096331,12.4220019 256.660002,12.7081657 256.167,12.9065 C255.673998,13.1048343 255.161169,13.204 254.6285,13.204 Z M254.6285,11.181 C255.138503,11.181 255.523832,10.9656688 255.7845,10.535 C256.045168,10.1043312 256.1755,9.52067035 256.1755,8.784 C256.1755,8.04732965 256.045168,7.46366882 255.7845,7.033 C255.523832,6.60233118 255.138503,6.387 254.6285,6.387 C254.107164,6.387 253.719001,6.60233118 253.464,7.033 C253.208999,7.46366882 253.0815,8.04732965 253.0815,8.784 C253.0815,9.52067035 253.208999,10.1043312 253.464,10.535 C253.719001,10.9656688 254.107164,11.181 254.6285,11.181 Z M260.4425,16.128 L260.4425,4.568 L262.4825,4.568 L262.6525,5.401 L262.7205,5.401 C263.049168,5.10633186 263.420331,4.85983433 263.834,4.6615 C264.247669,4.46316568 264.675498,4.364 265.1175,4.364 C265.627503,4.364 266.086498,4.46599898 266.4945,4.67 C266.902502,4.87400102 267.248165,5.16299813 267.5315,5.537 C267.814835,5.91100187 268.032999,6.36149737 268.186,6.8885 C268.339001,7.41550264 268.4155,8.00199677 268.4155,8.648 C268.4155,9.37333696 268.316334,10.0164972 268.118,10.5775 C267.919666,11.1385028 267.653335,11.614498 267.319,12.0055 C266.984665,12.396502 266.605002,12.693999 266.18,12.898 C265.754998,13.102001 265.315836,13.204 264.8625,13.204 C264.499832,13.204 264.148502,13.1275008 263.8085,12.9745 C263.468498,12.8214992 263.151168,12.6033348 262.8565,12.32 L262.9415,13.663 L262.9415,16.128 L260.4425,16.128 Z M264.2845,11.164 C264.715169,11.164 265.083498,10.968502 265.3895,10.5775 C265.695502,10.186498 265.8485,9.55467103 265.8485,8.682 C265.8485,7.16332574 265.361172,6.404 264.3865,6.404 C263.899164,6.404 263.417502,6.65899745 262.9415,7.169 L262.9415,10.62 C263.168168,10.824001 263.394832,10.9656663 263.6215,11.045 C263.848168,11.1243337 264.069166,11.164 264.2845,11.164 Z M273.9575,13.204 C273.35683,13.204 272.795836,13.1048343 272.2745,12.9065 C271.753164,12.7081657 271.299835,12.4191686 270.9145,12.0395 C270.529165,11.6598314 270.228834,11.1980027 270.0135,10.654 C269.798166,10.1099973 269.6905,9.48667018 269.6905,8.784 C269.6905,8.1039966 269.803832,7.48916942 270.0305,6.9395 C270.257168,6.38983059 270.554665,5.92516857 270.923,5.5455 C271.291335,5.16583144 271.713498,4.87400102 272.1895,4.67 C272.665502,4.46599898 273.158497,4.364 273.6685,4.364 C274.26917,4.364 274.793331,4.46599898 275.241,4.67 C275.688669,4.87400102 276.062665,5.15733152 276.363,5.52 C276.663335,5.88266848 276.887166,6.31049754 277.0345,6.8035 C277.181834,7.29650247 277.2555,7.83199711 277.2555,8.41 C277.2555,8.6366678 277.244167,8.85199898 277.2215,9.056 L277.1875,9.32375019 C277.176167,9.40025 277.164833,9.46399975 277.1535,9.515 L272.1045,9.515 C272.217834,10.1270031 272.469998,10.5774986 272.861,10.8665 C273.252002,11.1555014 273.730831,11.3 274.2975,11.3 C274.89817,11.3 275.504497,11.1130019 276.1165,10.739 L276.9495,12.252 C276.518831,12.5466681 276.040003,12.7789992 275.513,12.949 C274.985997,13.1190009 274.467503,13.204 273.9575,13.204 Z M272.0875,7.866 L275.1305,7.866 C275.1305,7.38999762 275.022834,7.00466814 274.8075,6.71 C274.592166,6.41533186 274.229503,6.268 273.7195,6.268 C273.322831,6.268 272.974335,6.39833203 272.674,6.659 C272.373665,6.91966797 272.178167,7.32199728 272.0875,7.866 Z M278.9895,13 L278.9895,4.568 L281.0295,4.568 L281.1995,5.639 L281.2675,5.639 C281.630168,5.2989983 282.026831,5.00150128 282.4575,4.7465 C282.888169,4.49149873 283.392497,4.364 283.9705,4.364 C284.888505,4.364 285.554331,4.66433033 285.968,5.265 C286.381669,5.86566967 286.5885,6.69866134 286.5885,7.764 L286.5885,13 L284.0895,13 L284.0895,8.087 C284.0895,7.47499694 284.007334,7.0556678 283.843,6.829 C283.678666,6.6023322 283.415168,6.489 283.0525,6.489 C282.735165,6.489 282.463168,6.55983263 282.2365,6.7015 C282.009832,6.84316738 281.760501,7.04433203 281.4885,7.305 L281.4885,13 L278.9895,13 Z M288.7135,13 L288.7135,4.568 L291.2125,4.568 L291.2125,13 L288.7135,13 Z M289.9545,3.327 C289.535165,3.327 289.189501,3.20516789 288.9175,2.9615 C288.645499,2.71783212 288.5095,2.40333526 288.5095,2.018 C288.5095,1.63266474 288.645499,1.32100119 288.9175,1.083 C289.189501,0.84499881 289.535165,0.726 289.9545,0.726 C290.385169,0.726 290.733665,0.84499881 291,1.083 C291.266335,1.32100119 291.3995,1.63266474 291.3995,2.018 C291.3995,2.40333526 291.266335,2.71783212 291,2.9615 C290.733665,3.20516789 290.385169,3.327 289.9545,3.327 Z M293.4055,13 L293.4055,4.568 L295.4455,4.568 L295.6155,5.639 L295.6835,5.639 C296.046168,5.2989983 296.442831,5.00150128 296.8735,4.7465 C297.304169,4.49149873 297.808497,4.364 298.3865,4.364 C299.304505,4.364 299.970331,4.66433033 300.384,5.265 C300.797669,5.86566967 301.0045,6.69866134 301.0045,7.764 L301.0045,13 L298.5055,13 L298.5055,8.087 C298.5055,7.47499694 298.423334,7.0556678 298.259,6.829 C298.094666,6.6023322 297.831168,6.489 297.4685,6.489 C297.151165,6.489 296.879168,6.55983263 296.6525,6.7015 C296.425832,6.84316738 296.176501,7.04433203 295.9045,7.305 L295.9045,13 L293.4055,13 Z M306.3255,4.364 C306.824169,4.364 307.260498,4.43199932 307.6345,4.568 L310.7115,4.568 L310.7115,6.387 L309.3685,6.387 C309.447834,6.51166729 309.513,6.67033237 309.564,6.863 C309.615,7.05566763 309.6405,7.2653322 309.6405,7.492 C309.6405,7.97933577 309.555501,8.40149822 309.3855,8.7585 C309.215499,9.11550179 308.980335,9.41016551 308.68,9.6425 C308.379665,9.8748345 308.028335,10.0476661 307.626,10.161 C307.223665,10.2743339 306.790169,10.331 306.3255,10.331 C305.996832,10.331 305.656835,10.2743339 305.3055,10.161 C305.192166,10.2516671 305.112834,10.3423329 305.0675,10.433 C305.022166,10.5236671 304.9995,10.6426659 304.9995,10.79 C304.9995,11.0053344 305.092999,11.1639995 305.28,11.266 C305.467001,11.3680005 305.798498,11.419 306.2745,11.419 L307.6345,11.419 C308.677172,11.419 309.473331,11.586165 310.023,11.9205 C310.572669,12.254835 310.8475,12.8016629 310.8475,13.561 C310.8475,14.0030022 310.737001,14.4081648 310.516,14.7765 C310.294999,15.1448352 309.980502,15.4621653 309.5725,15.7285 C309.164498,15.9948347 308.671503,16.2044992 308.0935,16.3575 C307.515497,16.5105008 306.863837,16.587 306.1385,16.587 C305.639831,16.587 305.178002,16.5445004 304.753,16.4595 C304.327998,16.3744996 303.954002,16.2470009 303.631,16.077 C303.307998,15.9069992 303.055834,15.6860014 302.8745,15.414 C302.693166,15.1419986 302.6025,14.8190019 302.6025,14.445 C302.6025,13.7649966 303.004829,13.1983356 303.8095,12.745 L303.8095,12.677 C303.582832,12.5296659 303.395834,12.3426678 303.2485,12.116 C303.101166,11.8893322 303.0275,11.6003351 303.0275,11.249 C303.0275,10.9429985 303.118166,10.6511681 303.2995,10.3735 C303.480834,10.0958319 303.707499,9.86066763 303.9795,9.668 L303.9795,9.6 C303.684832,9.39599898 303.421334,9.10416857 303.189,8.7245 C302.956666,8.34483144 302.8405,7.90566916 302.8405,7.407 C302.8405,6.89699745 302.936832,6.45216857 303.1295,6.0725 C303.322168,5.69283144 303.579998,5.37550128 303.903,5.1205 C304.226002,4.86549873 304.597165,4.67566729 305.0165,4.551 C305.435835,4.42633271 305.872164,4.364 306.3255,4.364 Z M305.1185,13.221 C304.812498,13.4930014 304.6595,13.7706653 304.6595,14.054 C304.6595,14.3713349 304.829498,14.6121658 305.1695,14.7765 C305.509502,14.9408342 305.962831,15.023 306.5295,15.023 C307.09617,15.023 307.560832,14.9238343 307.9235,14.7255 C308.286168,14.5271657 308.4675,14.2806681 308.4675,13.986 C308.4675,13.725332 308.357001,13.5496671 308.136,13.459 C307.914999,13.3683329 307.594835,13.323 307.1755,13.323 L307.1755,13.323 L306.3085,13.323 C306.013832,13.323 305.775834,13.3145001 305.5945,13.2975 C305.413166,13.2804999 305.254501,13.2550002 305.1185,13.221 Z M306.3255,6.047 C305.996832,6.047 305.722001,6.1603322 305.501,6.387 C305.279999,6.6136678 305.1695,6.9536644 305.1695,7.407 C305.1695,7.88300238 305.279999,8.23716551 305.501,8.4695 C305.722001,8.7018345 305.996832,8.818 306.3255,8.818 C306.654168,8.818 306.928999,8.7018345 307.15,8.4695 C307.371001,8.23716551 307.4815,7.88300238 307.4815,7.407 C307.4815,6.96499779 307.371001,6.6278345 307.15,6.3955 C306.928999,6.16316551 306.654168,6.047 306.3255,6.047 Z" id="Windowopening" fill="#093169" fill-rule="nonzero" transform="translate(248.491500, 8.656500) rotate(-360.000000) translate(-248.491500, -8.656500) "></path>
        </g>
        <g id="Group-4" transform="translate(61.500000, 139.500000) rotate(-180.000000) translate(-61.500000, -139.500000) translate(35.000000, 102.000000)">
            <polyline id="Rectangle-Copy-3" stroke="#CBD8F2" transform="translate(7.500000, 37.500000) rotate(-270.000000) translate(-7.500000, -37.500000) " points="-29.3766667 45 -29.5 30 44.5 30 44.5 45"></polyline>
            <path d="M14.657,43 L14.657,40.977 L17.003,40.977 L17.003,34.738 L14.98,34.738 L14.98,33.191 C15.5693363,33.0776661 16.067998,32.9416675 16.476,32.783 C16.884002,32.6243325 17.2806647,32.4316678 17.666,32.205 L19.502,32.205 L19.502,40.977 L21.525,40.977 L21.525,43 L14.657,43 Z M26.642,43.204 C25.7579956,43.204 25.0100031,43.0595014 24.398,42.7705 C23.7859969,42.4814986 23.2646688,42.1216688 22.834,41.691 L23.956,40.11 C24.2846683,40.4046681 24.6388314,40.6568323 25.0185,40.8665 C25.3981686,41.0761677 25.820331,41.181 26.285,41.181 C26.8403361,41.181 27.2823317,41.0393348 27.611,40.756 C27.9396683,40.4726653 28.104,40.0533361 28.104,39.498 C28.104,38.9539973 27.9481682,38.5403348 27.6365,38.257 C27.3248318,37.9736653 26.9140025,37.832 26.404,37.832 C26.2453325,37.832 26.1036673,37.8404999 25.979,37.8575 C25.8543327,37.8745001 25.7325006,37.9056664 25.6135,37.951 C25.4944994,37.9963336 25.369834,38.0529997 25.2395,38.121 C25.109166,38.1890003 24.9646675,38.2739995 24.806,38.376 L23.684,37.662 L23.99,32.205 L30.11,32.205 L30.11,34.313 L26.149,34.313 L25.962,36.336 C26.166001,36.2453329 26.3614991,36.1801669 26.5485,36.1405 C26.7355009,36.1008331 26.9423322,36.081 27.169,36.081 C27.633669,36.081 28.0728313,36.1489993 28.4865,36.285 C28.9001687,36.4210007 29.2656651,36.6249986 29.583,36.897 C29.9003349,37.1690014 30.1496658,37.5146646 30.331,37.934 C30.5123342,38.3533354 30.603,38.8519971 30.603,39.43 C30.603,40.0306697 30.4953344,40.563331 30.28,41.028 C30.0646656,41.492669 29.7756685,41.8864984 29.413,42.2095 C29.0503315,42.5325016 28.6281691,42.7789992 28.1465,42.949 C27.6648309,43.1190009 27.1633359,43.204 26.642,43.204 Z M35.907,43.204 C35.3289971,43.204 34.8020024,43.0821679 34.326,42.8385 C33.8499976,42.5948321 33.444835,42.2350024 33.1105,41.759 C32.776165,41.2829976 32.5155009,40.6936702 32.3285,39.991 C32.1414991,39.2883298 32.048,38.4780046 32.048,37.56 C32.048,36.6419954 32.1414991,35.8373368 32.3285,35.146 C32.5155009,34.4546632 32.776165,33.8738357 33.1105,33.4035 C33.444835,32.9331643 33.8499976,32.5818345 34.326,32.3495 C34.8020024,32.1171655 35.3289971,32.001 35.907,32.001 C36.4850029,32.001 37.0119976,32.1171655 37.488,32.3495 C37.9640024,32.5818345 38.369165,32.9331643 38.7035,33.4035 C39.037835,33.8738357 39.2984991,34.4546632 39.4855,35.146 C39.6725009,35.8373368 39.766,36.6419954 39.766,37.56 C39.766,38.4780046 39.6725009,39.2883298 39.4855,39.991 C39.2984991,40.6936702 39.037835,41.2829976 38.7035,41.759 C38.369165,42.2350024 37.9640024,42.5948321 37.488,42.8385 C37.0119976,43.0821679 36.4850029,43.204 35.907,43.204 Z M35.907,41.266 C36.1223344,41.266 36.3206658,41.2121672 36.502,41.1045 C36.6833342,40.9968328 36.8419993,40.8013348 36.978,40.518 C37.1140007,40.2346653 37.218833,39.8550024 37.2925,39.379 C37.366167,38.9029976 37.403,38.2966704 37.403,37.56 C37.403,36.8233297 37.366167,36.2198357 37.2925,35.7495 C37.218833,35.2791643 37.1140007,34.9108347 36.978,34.6445 C36.8419993,34.3781653 36.6833342,34.1940005 36.502,34.092 C36.3206658,33.9899995 36.1223344,33.939 35.907,33.939 C35.702999,33.939 35.5103342,33.9899995 35.329,34.092 C35.1476658,34.1940005 34.9890007,34.3781653 34.853,34.6445 C34.7169993,34.9108347 34.6093337,35.2791643 34.53,35.7495 C34.4506663,36.2198357 34.411,36.8233297 34.411,37.56 C34.411,38.2966704 34.4506663,38.9029976 34.53,39.379 C34.6093337,39.8550024 34.7169993,40.2346653 34.853,40.518 C34.9890007,40.8013348 35.1476658,40.9968328 35.329,41.1045 C35.5103342,41.2121672 35.702999,41.266 35.907,41.266 Z M41.5,43 L41.5,34.568 L43.54,34.568 L43.71,35.656 L43.778,35.656 C44.1293351,35.3046649 44.5033313,35.0015013 44.9,34.7465 C45.2966687,34.4914987 45.7726639,34.364 46.328,34.364 C46.9286697,34.364 47.4131648,34.4858321 47.7815,34.7295 C48.1498352,34.9731679 48.4416656,35.3216644 48.657,35.775 C49.0310019,35.3896647 49.4248313,35.0581681 49.8385,34.7805 C50.2521687,34.5028319 50.7423305,34.364 51.309,34.364 C52.2156712,34.364 52.8814979,34.6671636 53.3065,35.2735 C53.7315021,35.8798364 53.944,36.7099947 53.944,37.764 L53.944,43 L51.445,43 L51.445,38.087 C51.445,37.4749969 51.3628342,37.0556678 51.1985,36.829 C51.0341658,36.6023322 50.7706685,36.489 50.408,36.489 C49.9886646,36.489 49.5070027,36.7609973 48.963,37.305 L48.963,43 L46.464,43 L46.464,38.087 C46.464,37.4749969 46.3818342,37.0556678 46.2175,36.829 C46.0531658,36.6023322 45.7896685,36.489 45.427,36.489 C44.9963312,36.489 44.5203359,36.7609973 43.999,37.305 L43.999,43 L41.5,43 Z M56.069,43 L56.069,34.568 L58.109,34.568 L58.279,35.656 L58.347,35.656 C58.6983351,35.3046649 59.0723314,35.0015013 59.469,34.7465 C59.8656687,34.4914987 60.3416639,34.364 60.897,34.364 C61.4976697,34.364 61.9821648,34.4858321 62.3505,34.7295 C62.7188352,34.9731679 63.0106656,35.3216644 63.226,35.775 C63.6000019,35.3896647 63.9938313,35.0581681 64.4075,34.7805 C64.8211687,34.5028319 65.3113305,34.364 65.878,34.364 C66.7846712,34.364 67.4504979,34.6671636 67.8755,35.2735 C68.3005021,35.8798364 68.513,36.7099947 68.513,37.764 L68.513,43 L66.014,43 L66.014,38.087 C66.014,37.4749969 65.9318342,37.0556678 65.7675,36.829 C65.6031658,36.6023322 65.3396685,36.489 64.977,36.489 C64.5576646,36.489 64.0760027,36.7609973 63.532,37.305 L63.532,43 L61.033,43 L61.033,38.087 C61.033,37.4749969 60.9508342,37.0556678 60.7865,36.829 C60.6221658,36.6023322 60.3586685,36.489 59.996,36.489 C59.5653312,36.489 59.0893359,36.7609973 58.568,37.305 L58.568,43 L56.069,43 Z" id="150mm" fill="#093169" fill-rule="nonzero" transform="translate(41.585000, 37.602500) rotate(-270.000000) translate(-41.585000, -37.602500) "></path>
        </g>
        <g id="Group" transform="translate(634.500000, 127.000000) rotate(-180.000000) translate(-634.500000, -127.000000) translate(608.000000, 98.000000)">
            <polyline id="Rectangle-Copy-7" stroke="#CBD8F2" transform="translate(45.000000, 29.000000) rotate(-90.000000) translate(-45.000000, -29.000000) " points="20.0833333 36.5 20 21.5 70 21.5 70 36.5"></polyline>
            <path d="M-15.343,35 L-15.343,32.977 L-12.997,32.977 L-12.997,26.738 L-15.02,26.738 L-15.02,25.191 C-14.4306637,25.0776661 -13.932002,24.9416675 -13.524,24.783 C-13.115998,24.6243325 -12.7193353,24.4316678 -12.334,24.205 L-10.498,24.205 L-10.498,32.977 L-8.475,32.977 L-8.475,35 L-15.343,35 Z M-3.069,35.204 C-3.64700289,35.204 -4.17399762,35.0821679 -4.65,34.8385 C-5.12600238,34.5948321 -5.531165,34.2350024 -5.8655,33.759 C-6.19983501,33.2829976 -6.46049907,32.6936702 -6.6475,31.991 C-6.83450094,31.2883298 -6.928,30.4780046 -6.928,29.56 C-6.928,28.6419954 -6.83450094,27.8373368 -6.6475,27.146 C-6.46049907,26.4546632 -6.19983501,25.8738357 -5.8655,25.4035 C-5.531165,24.9331643 -5.12600238,24.5818345 -4.65,24.3495 C-4.17399762,24.1171655 -3.64700289,24.001 -3.069,24.001 C-2.49099711,24.001 -1.96400238,24.1171655 -1.488,24.3495 C-1.01199762,24.5818345 -0.606835005,24.9331643 -0.2725,25.4035 C0.061835005,25.8738357 0.322499065,26.4546632 0.5095,27.146 C0.696500935,27.8373368 0.79,28.6419954 0.79,29.56 C0.79,30.4780046 0.696500935,31.2883298 0.5095,31.991 C0.322499065,32.6936702 0.061835005,33.2829976 -0.2725,33.759 C-0.606835005,34.2350024 -1.01199762,34.5948321 -1.488,34.8385 C-1.96400238,35.0821679 -2.49099711,35.204 -3.069,35.204 Z M-3.069,33.266 C-2.85366559,33.266 -2.65533424,33.2121672 -2.474,33.1045 C-2.29266576,32.9968328 -2.13400068,32.8013347 -1.998,32.518 C-1.86199932,32.2346653 -1.75716703,31.8550024 -1.6835,31.379 C-1.60983296,30.9029976 -1.573,30.2966704 -1.573,29.56 C-1.573,28.8233297 -1.60983296,28.2198357 -1.6835,27.7495 C-1.75716703,27.2791643 -1.86199932,26.9108347 -1.998,26.6445 C-2.13400068,26.3781653 -2.29266576,26.1940005 -2.474,26.092 C-2.65533424,25.9899995 -2.85366559,25.939 -3.069,25.939 C-3.27300102,25.939 -3.46566576,25.9899995 -3.647,26.092 C-3.82833424,26.1940005 -3.98699932,26.3781653 -4.123,26.6445 C-4.25900068,26.9108347 -4.36666627,27.2791643 -4.446,27.7495 C-4.52533373,28.2198357 -4.565,28.8233297 -4.565,29.56 C-4.565,30.2966704 -4.52533373,30.9029976 -4.446,31.379 C-4.36666627,31.8550024 -4.25900068,32.2346653 -4.123,32.518 C-3.98699932,32.8013347 -3.82833424,32.9968328 -3.647,33.1045 C-3.46566576,33.2121672 -3.27300102,33.266 -3.069,33.266 Z M5.907,35.204 C5.32899711,35.204 4.80200238,35.0821679 4.326,34.8385 C3.84999762,34.5948321 3.44483501,34.2350024 3.1105,33.759 C2.776165,33.2829976 2.51550094,32.6936702 2.3285,31.991 C2.14149907,31.2883298 2.048,30.4780046 2.048,29.56 C2.048,28.6419954 2.14149907,27.8373368 2.3285,27.146 C2.51550094,26.4546632 2.776165,25.8738357 3.1105,25.4035 C3.44483501,24.9331643 3.84999762,24.5818345 4.326,24.3495 C4.80200238,24.1171655 5.32899711,24.001 5.907,24.001 C6.48500289,24.001 7.01199762,24.1171655 7.488,24.3495 C7.96400238,24.5818345 8.369165,24.9331643 8.7035,25.4035 C9.03783501,25.8738357 9.29849907,26.4546632 9.4855,27.146 C9.67250094,27.8373368 9.766,28.6419954 9.766,29.56 C9.766,30.4780046 9.67250094,31.2883298 9.4855,31.991 C9.29849907,32.6936702 9.03783501,33.2829976 8.7035,33.759 C8.369165,34.2350024 7.96400238,34.5948321 7.488,34.8385 C7.01199762,35.0821679 6.48500289,35.204 5.907,35.204 Z M5.907,33.266 C6.12233441,33.266 6.32066576,33.2121672 6.502,33.1045 C6.68333424,32.9968328 6.84199932,32.8013347 6.978,32.518 C7.11400068,32.2346653 7.21883296,31.8550024 7.2925,31.379 C7.36616703,30.9029976 7.403,30.2966704 7.403,29.56 C7.403,28.8233297 7.36616703,28.2198357 7.2925,27.7495 C7.21883296,27.2791643 7.11400068,26.9108347 6.978,26.6445 C6.84199932,26.3781653 6.68333424,26.1940005 6.502,26.092 C6.32066576,25.9899995 6.12233441,25.939 5.907,25.939 C5.70299898,25.939 5.51033424,25.9899995 5.329,26.092 C5.14766576,26.1940005 4.98900068,26.3781653 4.853,26.6445 C4.71699932,26.9108347 4.60933373,27.2791643 4.53,27.7495 C4.45066627,28.2198357 4.411,28.8233297 4.411,29.56 C4.411,30.2966704 4.45066627,30.9029976 4.53,31.379 C4.60933373,31.8550024 4.71699932,32.2346653 4.853,32.518 C4.98900068,32.8013347 5.14766576,32.9968328 5.329,33.1045 C5.51033424,33.2121672 5.70299898,33.266 5.907,33.266 Z M11.5,35 L11.5,26.568 L13.54,26.568 L13.71,27.656 L13.778,27.656 C14.1293351,27.3046649 14.5033313,27.0015013 14.9,26.7465 C15.2966686,26.4914987 15.7726639,26.364 16.328,26.364 C16.9286697,26.364 17.4131648,26.4858321 17.7815,26.7295 C18.1498352,26.9731679 18.4416656,27.3216644 18.657,27.775 C19.0310019,27.3896647 19.4248313,27.0581681 19.8385,26.7805 C20.2521687,26.5028319 20.7423305,26.364 21.309,26.364 C22.2156712,26.364 22.8814979,26.6671636 23.3065,27.2735 C23.7315021,27.8798364 23.944,28.7099947 23.944,29.764 L23.944,35 L21.445,35 L21.445,30.087 C21.445,29.4749969 21.3628342,29.0556678 21.1985,28.829 C21.0341658,28.6023322 20.7706685,28.489 20.408,28.489 C19.9886646,28.489 19.5070027,28.7609973 18.963,29.305 L18.963,35 L16.464,35 L16.464,30.087 C16.464,29.4749969 16.3818342,29.0556678 16.2175,28.829 C16.0531658,28.6023322 15.7896685,28.489 15.427,28.489 C14.9963312,28.489 14.5203359,28.7609973 13.999,29.305 L13.999,35 L11.5,35 Z M26.069,35 L26.069,26.568 L28.109,26.568 L28.279,27.656 L28.347,27.656 C28.6983351,27.3046649 29.0723314,27.0015013 29.469,26.7465 C29.8656687,26.4914987 30.3416639,26.364 30.897,26.364 C31.4976697,26.364 31.9821648,26.4858321 32.3505,26.7295 C32.7188352,26.9731679 33.0106656,27.3216644 33.226,27.775 C33.6000019,27.3896647 33.9938313,27.0581681 34.4075,26.7805 C34.8211687,26.5028319 35.3113305,26.364 35.878,26.364 C36.7846712,26.364 37.4504979,26.6671636 37.8755,27.2735 C38.3005021,27.8798364 38.513,28.7099947 38.513,29.764 L38.513,35 L36.014,35 L36.014,30.087 C36.014,29.4749969 35.9318342,29.0556678 35.7675,28.829 C35.6031658,28.6023322 35.3396685,28.489 34.977,28.489 C34.5576646,28.489 34.0760027,28.7609973 33.532,29.305 L33.532,35 L31.033,35 L31.033,30.087 C31.033,29.4749969 30.9508342,29.0556678 30.7865,28.829 C30.6221658,28.6023322 30.3586685,28.489 29.996,28.489 C29.5653312,28.489 29.0893359,28.7609973 28.568,29.305 L28.568,35 L26.069,35 Z" id="100mm" fill="#093169" fill-rule="nonzero" transform="translate(11.585000, 29.602500) rotate(-90.000000) translate(-11.585000, -29.602500) "></path>
        </g>
    </g>
</svg>