<?xml version="1.0" encoding="UTF-8"?>
<svg width="600px" height="567px" viewBox="0 0 600 567" version="1.1" xmlns="http://www.w3.org/2000/svg" xmlns:xlink="http://www.w3.org/1999/xlink">
    <title>balustrading/B740-pier-caps</title>
    <g id="balustrading/B740-pier-caps" stroke="none" stroke-width="1" fill="none" fill-rule="evenodd">
        <rect fill="#F5F9FF" x="0" y="0" width="600" height="567"></rect>
        <g id="Group-5" transform="translate(354.000000, 328.000000)">
            <g id="Group" transform="translate(16.000000, 16.497984)" stroke="#CBD8F2">
                <polygon id="Stroke-1" fill="#FFFFFF" points="0 128 128 128 128 0 0 0"></polygon>
                <line x1="0" y1="8.84708973e-17" x2="128" y2="128" id="Line-12"></line>
                <line x1="128" y1="1.42108547e-14" x2="-1.42108547e-14" y2="128" id="Line-12"></line>
                <polygon id="Stroke-3" fill="#FFFFFF" points="19 109 109 109 109 19 19 19"></polygon>
            </g>
            <g id="Group-3" transform="translate(0.000000, 38.497984)" fill="#FFFFFF" stroke="#CBD8F2">
                <path d="M0,84 L0,0 L16,0 L35,42 L16,84 L0,84 Z" id="Combined-Shape"></path>
                <line x1="35" y1="42" x2="0" y2="42" id="Line"></line>
            </g>
            <g id="Group-3" transform="translate(142.464672, 80.462656) rotate(-180.000000) translate(-142.464672, -80.462656) translate(124.964672, 38.462656)" fill="#FFFFFF" stroke="#CBD8F2">
                <path d="M0,84 L0,0 L16,0 L35,42 L16,84 L0,84 Z" id="Combined-Shape"></path>
                <line x1="35" y1="42" x2="0" y2="42" id="Line"></line>
            </g>
            <g id="Group-3" transform="translate(80.002016, 18.000000) rotate(-270.000000) translate(-80.002016, -18.000000) translate(62.502016, -24.000000)" fill="#FFFFFF" stroke="#CBD8F2">
                <path d="M0,84 L0,0 L16,0 L35,42 L16,84 L0,84 Z" id="Combined-Shape"></path>
                <line x1="35" y1="42" x2="0" y2="42" id="Line"></line>
            </g>
            <path d="M73.5895,86.4979841 L74.2695,83.8629841 L77.6525,83.8629841 L78.3325,86.4979841 L80.9845,86.4979841 L77.5165,75.4139841 L74.5075,75.4139841 L71.0395,86.4979841 L73.5895,86.4979841 Z M77.1425,81.9079841 L74.7795,81.9079841 L75.0515,80.8879841 C75.2101667,80.3326508 75.3603333,79.7461508 75.502,79.1284841 C75.6436667,78.5108175 75.7825,77.9073175 75.9185,77.3179841 L75.9185,77.3179841 L75.9865,77.3179841 C76.1338333,77.8959841 76.2811667,78.4966508 76.4285,79.1199841 C76.5758333,79.7433175 76.7288333,80.3326508 76.8875,80.8879841 L76.8875,80.8879841 L77.1425,81.9079841 Z M88.2095,86.4979841 L88.2095,83.9139841 L89.4505,83.9139841 L89.4505,82.0099841 L88.2095,82.0099841 L88.2095,75.7029841 L85.1495,75.7029841 L81.2055,82.1969841 L81.2055,83.9139841 L85.8805,83.9139841 L85.8805,86.4979841 L88.2095,86.4979841 Z M85.8805,82.0099841 L83.6025,82.0099841 L85.0305,79.6639841 C85.1891667,79.3579841 85.3421667,79.0519841 85.4895,78.7459841 C85.6368333,78.4399841 85.7785,78.1396508 85.9145,77.8449841 L85.9145,77.8449841 L85.9825,77.8449841 C85.9598333,78.1849841 85.9371667,78.5844841 85.9145,79.0434841 C85.8918333,79.5024841 85.8805,79.9076508 85.8805,80.2589841 L85.8805,80.2589841 L85.8805,82.0099841 Z" id="A4" fill="#093169" fill-rule="nonzero"></path>
        </g>
        <g id="Group-6" transform="translate(353.000000, 95.000000)">
            <g id="Group" transform="translate(16.000000, 0.000000)" stroke="#CBD8F2">
                <polygon id="Stroke-1" fill="#FFFFFF" points="0 128 128 128 128 0 0 0"></polygon>
                <line x1="0" y1="8.84708973e-17" x2="128" y2="128" id="Line-12"></line>
                <line x1="128" y1="1.42108547e-14" x2="-1.42108547e-14" y2="128" id="Line-12"></line>
                <polygon id="Stroke-3" fill="#FFFFFF" points="19 109 109 109 109 19 19 19"></polygon>
            </g>
            <g id="Group-3" transform="translate(0.000000, 22.000000)" fill="#FFFFFF" stroke="#CBD8F2">
                <path d="M0,84 L0,0 L16,0 L35,42 L16,84 L0,84 Z" id="Combined-Shape"></path>
                <line x1="35" y1="42" x2="0" y2="42" id="Line"></line>
            </g>
            <g id="Group-3" transform="translate(142.464672, 63.964672) rotate(-180.000000) translate(-142.464672, -63.964672) translate(124.964672, 21.964672)" fill="#FFFFFF" stroke="#CBD8F2">
                <path d="M0,84 L0,0 L16,0 L35,42 L16,84 L0,84 Z" id="Combined-Shape"></path>
                <line x1="35" y1="42" x2="0" y2="42" id="Line"></line>
            </g>
            <path d="M73.5895,70 L74.2695,67.365 L77.6525,67.365 L78.3325,70 L80.9845,70 L77.5165,58.916 L74.5075,58.916 L71.0395,70 L73.5895,70 Z M77.1425,65.41 L74.7795,65.41 L75.0515,64.39 C75.2101667,63.8346667 75.3603333,63.2481667 75.502,62.6305 C75.6436667,62.0128333 75.7825,61.4093333 75.9185,60.82 L75.9185,60.82 L75.9865,60.82 C76.1338333,61.398 76.2811667,61.9986667 76.4285,62.622 C76.5758333,63.2453333 76.7288333,63.8346667 76.8875,64.39 L76.8875,64.39 L77.1425,65.41 Z M89.1105,70 L89.1105,67.892 L86.9345,67.892 C86.6738333,67.892 86.3763333,67.9061667 86.042,67.9345 C85.7076667,67.9628333 85.4045,67.994 85.1325,68.028 C85.5745,67.5746667 86.0023333,67.1128333 86.416,66.6425 C86.8296667,66.1721667 87.198,65.7018333 87.521,65.2315 C87.844,64.7611667 88.1018333,64.2908333 88.2945,63.8205 C88.4871667,63.3501667 88.5835,62.8883333 88.5835,62.435 C88.5835,61.9136667 88.4985,61.4433333 88.3285,61.024 C88.1585,60.6046667 87.9148333,60.2448333 87.5975,59.9445 C87.2801667,59.6441667 86.9033333,59.4118333 86.467,59.2475 C86.0306667,59.0831667 85.5461667,59.001 85.0135,59.001 C84.2428333,59.001 83.5798333,59.1455 83.0245,59.4345 C82.4691667,59.7235 81.9251667,60.1513333 81.3925,60.718 L81.3925,60.718 L82.7525,62.061 C83.0245,61.7663333 83.3135,61.5085 83.6195,61.2875 C83.9255,61.0665 84.2768333,60.956 84.6735,60.956 C85.1495,60.956 85.5235,61.0948333 85.7955,61.3725 C86.0675,61.6501667 86.2035,62.0553333 86.2035,62.588 C86.2035,62.9733333 86.0873333,63.3785 85.855,63.8035 C85.6226667,64.2285 85.2996667,64.6875 84.886,65.1805 C84.4723333,65.6735 83.9793333,66.2005 83.407,66.7615 C82.8346667,67.3225 82.2028333,67.926 81.5115,68.572 L81.5115,68.572 L81.5115,70 L89.1105,70 Z" id="A2" fill="#093169" fill-rule="nonzero"></path>
        </g>
        <g id="Group" transform="translate(104.000000, 95.000000)" stroke="#CBD8F2">
            <polygon id="Stroke-1" fill="#FFFFFF" points="0 128 128 128 128 0 0 0"></polygon>
            <line x1="0" y1="8.84708973e-17" x2="128" y2="128" id="Line-12"></line>
            <line x1="128" y1="1.42108547e-14" x2="-1.42108547e-14" y2="128" id="Line-12"></line>
            <polygon id="Stroke-3" fill="#FFFFFF" points="19 109 109 109 109 19 19 19"></polygon>
        </g>
        <polyline id="Rectangle-Copy-2" stroke="#CBD8F2" transform="translate(168.000000, 245.500000) rotate(-180.000000) translate(-168.000000, -245.500000) " points="104 253 104 238 232 238 232 253"></polyline>
        <g id="Group-2" transform="translate(25.000000, 117.000000)">
            <polyline id="Rectangle-Copy-2" stroke="#CBD8F2" transform="translate(40.000000, 42.500000) rotate(-90.000000) translate(-40.000000, -42.500000) " points="-2 50 -2 35 82 35 82 50"></polyline>
            <path d="M-13.305,49 L-13.305,46.892 L-15.481,46.892 C-15.7416667,46.892 -16.0391667,46.9061667 -16.3735,46.9345 C-16.7078333,46.9628333 -17.011,46.994 -17.283,47.028 C-16.841,46.5746667 -16.4131667,46.1128333 -15.9995,45.6425 C-15.5858333,45.1721667 -15.2175,44.7018333 -14.8945,44.2315 C-14.5715,43.7611667 -14.3136667,43.2908333 -14.121,42.8205 C-13.9283333,42.3501667 -13.832,41.8883333 -13.832,41.435 C-13.832,40.9136667 -13.917,40.4433333 -14.087,40.024 C-14.257,39.6046667 -14.5006667,39.2448333 -14.818,38.9445 C-15.1353333,38.6441667 -15.5121667,38.4118333 -15.9485,38.2475 C-16.3848333,38.0831667 -16.8693333,38.001 -17.402,38.001 C-18.1726667,38.001 -18.8356667,38.1455 -19.391,38.4345 C-19.9463333,38.7235 -20.4903333,39.1513333 -21.023,39.718 L-21.023,39.718 L-19.663,41.061 C-19.391,40.7663333 -19.102,40.5085 -18.796,40.2875 C-18.49,40.0665 -18.1386667,39.956 -17.742,39.956 C-17.266,39.956 -16.892,40.0948333 -16.62,40.3725 C-16.348,40.6501667 -16.212,41.0553333 -16.212,41.588 C-16.212,41.9733333 -16.3281667,42.3785 -16.5605,42.8035 C-16.7928333,43.2285 -17.1158333,43.6875 -17.5295,44.1805 C-17.9431667,44.6735 -18.4361667,45.2005 -19.0085,45.7615 C-19.5808333,46.3225 -20.2126667,46.926 -20.904,47.572 L-20.904,47.572 L-20.904,49 L-13.305,49 Z M-5.23,49 L-5.23,46.416 L-3.989,46.416 L-3.989,44.512 L-5.23,44.512 L-5.23,38.205 L-8.29,38.205 L-12.234,44.699 L-12.234,46.416 L-7.559,46.416 L-7.559,49 L-5.23,49 Z M-7.559,44.512 L-9.837,44.512 L-8.409,42.166 C-8.25033333,41.86 -8.09733333,41.554 -7.95,41.248 C-7.80266667,40.942 -7.661,40.6416667 -7.525,40.347 L-7.525,40.347 L-7.457,40.347 C-7.47966667,40.687 -7.50233333,41.0865 -7.525,41.5455 C-7.54766667,42.0045 -7.559,42.4096667 -7.559,42.761 L-7.559,42.761 L-7.559,44.512 Z M0.907,49.204 C1.485,49.204 2.012,49.0821667 2.488,48.8385 C2.964,48.5948333 3.36916667,48.235 3.7035,47.759 C4.03783333,47.283 4.2985,46.6936667 4.4855,45.991 C4.6725,45.2883333 4.766,44.478 4.766,43.56 C4.766,42.642 4.6725,41.8373333 4.4855,41.146 C4.2985,40.4546667 4.03783333,39.8738333 3.7035,39.4035 C3.36916667,38.9331667 2.964,38.5818333 2.488,38.3495 C2.012,38.1171667 1.485,38.001 0.907,38.001 C0.329,38.001 -0.198,38.1171667 -0.674,38.3495 C-1.15,38.5818333 -1.55516667,38.9331667 -1.8895,39.4035 C-2.22383333,39.8738333 -2.4845,40.4546667 -2.6715,41.146 C-2.8585,41.8373333 -2.952,42.642 -2.952,43.56 C-2.952,44.478 -2.8585,45.2883333 -2.6715,45.991 C-2.4845,46.6936667 -2.22383333,47.283 -1.8895,47.759 C-1.55516667,48.235 -1.15,48.5948333 -0.674,48.8385 C-0.198,49.0821667 0.329,49.204 0.907,49.204 Z M0.907,47.266 C0.703,47.266 0.510333333,47.2121667 0.329,47.1045 C0.147666667,46.9968333 -0.011,46.8013333 -0.147,46.518 C-0.283,46.2346667 -0.390666667,45.855 -0.47,45.379 C-0.549333333,44.903 -0.589,44.2966667 -0.589,43.56 C-0.589,42.8233333 -0.549333333,42.2198333 -0.47,41.7495 C-0.390666667,41.2791667 -0.283,40.9108333 -0.147,40.6445 C-0.011,40.3781667 0.147666667,40.194 0.329,40.092 C0.510333333,39.99 0.703,39.939 0.907,39.939 C1.12233333,39.939 1.32066667,39.99 1.502,40.092 C1.68333333,40.194 1.842,40.3781667 1.978,40.6445 C2.114,40.9108333 2.21883333,41.2791667 2.2925,41.7495 C2.36616667,42.2198333 2.403,42.8233333 2.403,43.56 C2.403,44.2966667 2.36616667,44.903 2.2925,45.379 C2.21883333,45.855 2.114,46.2346667 1.978,46.518 C1.842,46.8013333 1.68333333,46.9968333 1.502,47.1045 C1.32066667,47.2121667 1.12233333,47.266 0.907,47.266 Z M8.999,49 L8.999,43.305 C9.52033333,42.761 9.99633333,42.489 10.427,42.489 C10.7896667,42.489 11.0531667,42.6023333 11.2175,42.829 C11.3818333,43.0556667 11.464,43.475 11.464,44.087 L11.464,44.087 L11.464,49 L13.963,49 L13.963,43.305 C14.507,42.761 14.9886667,42.489 15.408,42.489 C15.7706667,42.489 16.0341667,42.6023333 16.1985,42.829 C16.3628333,43.0556667 16.445,43.475 16.445,44.087 L16.445,44.087 L16.445,49 L18.944,49 L18.944,43.764 C18.944,42.71 18.7315,41.8798333 18.3065,41.2735 C17.8815,40.6671667 17.2156667,40.364 16.309,40.364 C15.7423333,40.364 15.2521667,40.5028333 14.8385,40.7805 C14.4248333,41.0581667 14.031,41.3896667 13.657,41.775 C13.4416667,41.3216667 13.1498333,40.9731667 12.7815,40.7295 C12.4131667,40.4858333 11.9286667,40.364 11.328,40.364 C10.7726667,40.364 10.2966667,40.4915 9.9,40.7465 C9.50333333,41.0015 9.12933333,41.3046667 8.778,41.656 L8.778,41.656 L8.71,41.656 L8.54,40.568 L6.5,40.568 L6.5,49 L8.999,49 Z M23.568,49 L23.568,43.305 C24.0893333,42.761 24.5653333,42.489 24.996,42.489 C25.3586667,42.489 25.6221667,42.6023333 25.7865,42.829 C25.9508333,43.0556667 26.033,43.475 26.033,44.087 L26.033,44.087 L26.033,49 L28.532,49 L28.532,43.305 C29.076,42.761 29.5576667,42.489 29.977,42.489 C30.3396667,42.489 30.6031667,42.6023333 30.7675,42.829 C30.9318333,43.0556667 31.014,43.475 31.014,44.087 L31.014,44.087 L31.014,49 L33.513,49 L33.513,43.764 C33.513,42.71 33.3005,41.8798333 32.8755,41.2735 C32.4505,40.6671667 31.7846667,40.364 30.878,40.364 C30.3113333,40.364 29.8211667,40.5028333 29.4075,40.7805 C28.9938333,41.0581667 28.6,41.3896667 28.226,41.775 C28.0106667,41.3216667 27.7188333,40.9731667 27.3505,40.7295 C26.9821667,40.4858333 26.4976667,40.364 25.897,40.364 C25.3416667,40.364 24.8656667,40.4915 24.469,40.7465 C24.0723333,41.0015 23.6983333,41.3046667 23.347,41.656 L23.347,41.656 L23.279,41.656 L23.109,40.568 L21.069,40.568 L21.069,49 L23.568,49 Z" id="240mm" fill="#093169" fill-rule="nonzero" transform="translate(6.245000, 43.602500) rotate(-90.000000) translate(-6.245000, -43.602500) "></path>
        </g>
        <path d="M88,201 L88,117 L104,117 L123,159 L104,201 L88,201 Z" id="Combined-Shape" stroke="#CBD8F2" fill="#FFFFFF"></path>
        <line x1="123" y1="159" x2="88" y2="159" id="Line" stroke="#CBD8F2" fill="#FFFFFF"></line>
        <path d="M144.598,285.204 C145.142,285.204 145.657667,285.133167 146.145,284.9915 C146.632333,284.849833 147.057333,284.645833 147.42,284.3795 C147.782667,284.113167 148.071667,283.7845 148.287,283.3935 C148.502333,283.0025 148.61,282.557667 148.61,282.059 C148.61,281.356333 148.408833,280.786833 148.0065,280.3505 C147.604167,279.914167 147.091333,279.605333 146.468,279.424 L146.468,279.424 L146.468,279.356 C147.046,279.106667 147.490833,278.7865 147.8025,278.3955 C148.114167,278.0045 148.27,277.525667 148.27,276.959 C148.27,276.483 148.179333,276.063667 147.998,275.701 C147.816667,275.338333 147.5645,275.0295 147.2415,274.7745 C146.9185,274.5195 146.5275,274.326833 146.0685,274.1965 C145.6095,274.066167 145.102333,274.001 144.547,274.001 C143.878333,274.001 143.269167,274.122833 142.7195,274.3665 C142.169833,274.610167 141.645667,274.947333 141.147,275.378 L141.147,275.378 L142.405,276.908 C142.745,276.613333 143.070833,276.381 143.3825,276.211 C143.694167,276.041 144.042667,275.956 144.428,275.956 C144.858667,275.956 145.187333,276.060833 145.414,276.2705 C145.640667,276.480167 145.754,276.772 145.754,277.146 C145.754,277.361333 145.7115,277.556833 145.6265,277.7325 C145.5415,277.908167 145.399833,278.061167 145.2015,278.1915 C145.003167,278.321833 144.7425,278.421 144.4195,278.489 C144.0965,278.557 143.691333,278.591 143.204,278.591 L143.204,278.591 L143.204,280.359 C143.793333,280.359 144.275,280.395833 144.649,280.4695 C145.023,280.543167 145.317667,280.645167 145.533,280.7755 C145.748333,280.905833 145.8985,281.067333 145.9835,281.26 C146.0685,281.452667 146.111,281.668 146.111,281.906 C146.111,282.314 145.952333,282.6285 145.635,282.8495 C145.317667,283.0705 144.892667,283.181 144.36,283.181 C143.895333,283.181 143.4675,283.079 143.0765,282.875 C142.6855,282.671 142.325667,282.410333 141.997,282.093 L141.997,282.093 L140.841,283.674 C141.237667,284.138667 141.742,284.509833 142.354,284.7875 C142.966,285.065167 143.714,285.204 144.598,285.204 Z M154.22,285.204 C154.707333,285.204 155.169167,285.121833 155.6055,284.9575 C156.041833,284.793167 156.4215,284.552333 156.7445,284.235 C157.0675,283.917667 157.325333,283.538 157.518,283.096 C157.710667,282.654 157.807,282.149667 157.807,281.583 C157.807,281.016333 157.727667,280.523333 157.569,280.104 C157.410333,279.684667 157.1865,279.339 156.8975,279.067 C156.6085,278.795 156.2685,278.591 155.8775,278.455 C155.4865,278.319 155.058667,278.251 154.594,278.251 C154.424,278.251 154.242667,278.2765 154.05,278.3275 C153.857333,278.3785 153.664667,278.452167 153.472,278.5485 C153.279333,278.644833 153.092333,278.763833 152.911,278.9055 C152.729667,279.047167 152.571,279.208667 152.435,279.39 C152.457667,278.766667 152.531333,278.239667 152.656,277.809 C152.780667,277.378333 152.942167,277.029833 153.1405,276.7635 C153.338833,276.497167 153.568333,276.307333 153.829,276.194 C154.089667,276.080667 154.367333,276.024 154.662,276.024 C154.979333,276.024 155.291,276.1005 155.597,276.2535 C155.903,276.4065 156.152333,276.585 156.345,276.789 L156.345,276.789 L157.654,275.293 C157.314,274.941667 156.883333,274.6385 156.362,274.3835 C155.840667,274.1285 155.223,274.001 154.509,274.001 C153.942333,274.001 153.3955,274.117167 152.8685,274.3495 C152.3415,274.581833 151.876833,274.936 151.4745,275.412 C151.072167,275.888 150.749167,276.494333 150.5055,277.231 C150.261833,277.967667 150.14,278.840333 150.14,279.849 C150.14,280.801 150.253333,281.614167 150.48,282.2885 C150.706667,282.962833 151.009833,283.515333 151.3895,283.946 C151.769167,284.376667 152.2055,284.694 152.6985,284.898 C153.1915,285.102 153.698667,285.204 154.22,285.204 Z M154.169,283.334 C153.976333,283.334 153.792167,283.297167 153.6165,283.2235 C153.440833,283.149833 153.279333,283.025167 153.132,282.8495 C152.984667,282.673833 152.854333,282.444333 152.741,282.161 C152.627667,281.877667 152.542667,281.520667 152.486,281.09 C152.712667,280.704667 152.9705,280.429833 153.2595,280.2655 C153.5485,280.101167 153.834667,280.019 154.118,280.019 C154.526,280.019 154.863167,280.135167 155.1295,280.3675 C155.395833,280.599833 155.529,281.005 155.529,281.583 C155.529,282.195 155.395833,282.639833 155.1295,282.9175 C154.863167,283.195167 154.543,283.334 154.169,283.334 Z M162.89,285.204 C163.468,285.204 163.992167,285.1275 164.4625,284.9745 C164.932833,284.8215 165.335167,284.611833 165.6695,284.3455 C166.003833,284.079167 166.261667,283.764667 166.443,283.402 C166.624333,283.039333 166.715,282.642667 166.715,282.212 C166.715,281.498 166.533667,280.92 166.171,280.478 C165.808333,280.036 165.366333,279.673333 164.845,279.39 L164.845,279.39 L164.845,279.322 C165.219,279.072667 165.547667,278.746833 165.831,278.3445 C166.114333,277.942167 166.256,277.480333 166.256,276.959 C166.256,276.517 166.176667,276.111833 166.018,275.7435 C165.859333,275.375167 165.638333,275.0635 165.355,274.8085 C165.071667,274.5535 164.726,274.355167 164.318,274.2135 C163.91,274.071833 163.462333,274.001 162.975,274.001 C162.476333,274.001 162.0145,274.069 161.5895,274.205 C161.1645,274.341 160.799,274.539333 160.493,274.8 C160.187,275.060667 159.949,275.375167 159.779,275.7435 C159.609,276.111833 159.524,276.522667 159.524,276.976 C159.524,277.554 159.66,278.044167 159.932,278.4465 C160.204,278.848833 160.549667,279.208667 160.969,279.526 L160.969,279.526 L160.969,279.594 C160.459,279.866 160.0255,280.211667 159.6685,280.631 C159.3115,281.050333 159.133,281.588667 159.133,282.246 C159.133,282.688 159.2265,283.090333 159.4135,283.453 C159.6005,283.815667 159.861167,284.127333 160.1955,284.388 C160.529833,284.648667 160.9265,284.849833 161.3855,284.9915 C161.8445,285.133167 162.346,285.204 162.89,285.204 Z M163.57,278.71 C163.014667,278.494667 162.567,278.262333 162.227,278.013 C161.887,277.763667 161.717,277.418 161.717,276.976 C161.717,276.556667 161.836,276.245 162.074,276.041 C162.312,275.837 162.595333,275.735 162.924,275.735 C163.332,275.735 163.652167,275.8625 163.8845,276.1175 C164.116833,276.3725 164.233,276.709667 164.233,277.129 C164.233,277.673 164.012,278.2 163.57,278.71 Z M162.941,283.47 C162.487667,283.47 162.096667,283.336833 161.768,283.0705 C161.439333,282.804167 161.275,282.433 161.275,281.957 C161.275,281.628333 161.354333,281.316667 161.513,281.022 C161.671667,280.727333 161.87,280.466667 162.108,280.24 C162.448,280.387333 162.756833,280.523333 163.0345,280.648 C163.312167,280.772667 163.553,280.905833 163.757,281.0475 C163.961,281.189167 164.116833,281.345 164.2245,281.515 C164.332167,281.685 164.386,281.889 164.386,282.127 C164.386,282.580333 164.25,282.9175 163.978,283.1385 C163.706,283.3595 163.360333,283.47 162.941,283.47 Z M170.999,285 L170.999,279.305 C171.520333,278.761 171.996333,278.489 172.427,278.489 C172.789667,278.489 173.053167,278.602333 173.2175,278.829 C173.381833,279.055667 173.464,279.475 173.464,280.087 L173.464,280.087 L173.464,285 L175.963,285 L175.963,279.305 C176.507,278.761 176.988667,278.489 177.408,278.489 C177.770667,278.489 178.034167,278.602333 178.1985,278.829 C178.362833,279.055667 178.445,279.475 178.445,280.087 L178.445,280.087 L178.445,285 L180.944,285 L180.944,279.764 C180.944,278.71 180.7315,277.879833 180.3065,277.2735 C179.8815,276.667167 179.215667,276.364 178.309,276.364 C177.742333,276.364 177.252167,276.502833 176.8385,276.7805 C176.424833,277.058167 176.031,277.389667 175.657,277.775 C175.441667,277.321667 175.149833,276.973167 174.7815,276.7295 C174.413167,276.485833 173.928667,276.364 173.328,276.364 C172.772667,276.364 172.296667,276.4915 171.9,276.7465 C171.503333,277.0015 171.129333,277.304667 170.778,277.656 L170.778,277.656 L170.71,277.656 L170.54,276.568 L168.5,276.568 L168.5,285 L170.999,285 Z M185.568,285 L185.568,279.305 C186.089333,278.761 186.565333,278.489 186.996,278.489 C187.358667,278.489 187.622167,278.602333 187.7865,278.829 C187.950833,279.055667 188.033,279.475 188.033,280.087 L188.033,280.087 L188.033,285 L190.532,285 L190.532,279.305 C191.076,278.761 191.557667,278.489 191.977,278.489 C192.339667,278.489 192.603167,278.602333 192.7675,278.829 C192.931833,279.055667 193.014,279.475 193.014,280.087 L193.014,280.087 L193.014,285 L195.513,285 L195.513,279.764 C195.513,278.71 195.3005,277.879833 194.8755,277.2735 C194.4505,276.667167 193.784667,276.364 192.878,276.364 C192.311333,276.364 191.821167,276.502833 191.4075,276.7805 C190.993833,277.058167 190.6,277.389667 190.226,277.775 C190.010667,277.321667 189.718833,276.973167 189.3505,276.7295 C188.982167,276.485833 188.497667,276.364 187.897,276.364 C187.341667,276.364 186.865667,276.4915 186.469,276.7465 C186.072333,277.0015 185.698333,277.304667 185.347,277.656 L185.347,277.656 L185.279,277.656 L185.109,276.568 L183.069,276.568 L183.069,285 L185.568,285 Z" id="368mm" fill="#093169" fill-rule="nonzero"></path>
        <path d="M161.5895,165 L162.2695,162.365 L165.6525,162.365 L166.3325,165 L168.9845,165 L165.5165,153.916 L162.5075,153.916 L159.0395,165 L161.5895,165 Z M165.1425,160.41 L162.7795,160.41 L163.0515,159.39 C163.210167,158.834667 163.360333,158.248167 163.502,157.6305 C163.643667,157.012833 163.7825,156.409333 163.9185,155.82 L163.9185,155.82 L163.9865,155.82 C164.133833,156.398 164.281167,156.998667 164.4285,157.622 C164.575833,158.245333 164.728833,158.834667 164.8875,159.39 L164.8875,159.39 L165.1425,160.41 Z M176.9405,165 L176.9405,162.977 L174.9175,162.977 L174.9175,154.205 L173.0815,154.205 C172.696167,154.431667 172.2995,154.624333 171.8915,154.783 C171.4835,154.941667 170.984833,155.077667 170.3955,155.191 L170.3955,155.191 L170.3955,156.738 L172.4185,156.738 L172.4185,162.977 L170.0725,162.977 L170.0725,165 L176.9405,165 Z" id="A1" fill="#093169" fill-rule="nonzero"></path>
        <g id="Group-4" transform="translate(88.000000, 328.000000)">
            <g id="Group" transform="translate(16.000000, 16.500000)" stroke="#CBD8F2">
                <polygon id="Stroke-1" fill="#FFFFFF" points="0 128 128 128 128 0 0 0"></polygon>
                <line x1="0" y1="8.84708973e-17" x2="128" y2="128" id="Line-12"></line>
                <line x1="128" y1="1.42108547e-14" x2="-1.42108547e-14" y2="128" id="Line-12"></line>
                <polygon id="Stroke-3" fill="#FFFFFF" points="19 109 109 109 109 19 19 19"></polygon>
            </g>
            <g id="Group-3" transform="translate(0.000000, 38.500000)" fill="#FFFFFF" stroke="#CBD8F2">
                <path d="M0,84 L0,0 L16,0 L35,42 L16,84 L0,84 Z" id="Combined-Shape"></path>
                <line x1="35" y1="42" x2="0" y2="42" id="Line"></line>
            </g>
            <g id="Group-3" transform="translate(80.000000, 18.000000) rotate(-270.000000) translate(-80.000000, -18.000000) translate(62.500000, -24.000000)" fill="#FFFFFF" stroke="#CBD8F2">
                <path d="M0,84 L0,0 L16,0 L35,42 L16,84 L0,84 Z" id="Combined-Shape"></path>
                <line x1="35" y1="42" x2="0" y2="42" id="Line"></line>
            </g>
            <path d="M73.5895,86.5 L74.2695,83.865 L77.6525,83.865 L78.3325,86.5 L80.9845,86.5 L77.5165,75.416 L74.5075,75.416 L71.0395,86.5 L73.5895,86.5 Z M77.1425,81.91 L74.7795,81.91 L75.0515,80.89 C75.2101667,80.3346667 75.3603333,79.7481667 75.502,79.1305 C75.6436667,78.5128333 75.7825,77.9093333 75.9185,77.32 L75.9185,77.32 L75.9865,77.32 C76.1338333,77.898 76.2811667,78.4986667 76.4285,79.122 C76.5758333,79.7453333 76.7288333,80.3346667 76.8875,80.89 L76.8875,80.89 L77.1425,81.91 Z M85.0135,86.704 C85.5575,86.704 86.0731667,86.6331667 86.5605,86.4915 C87.0478333,86.3498333 87.4728333,86.1458333 87.8355,85.8795 C88.1981667,85.6131667 88.4871667,85.2845 88.7025,84.8935 C88.9178333,84.5025 89.0255,84.0576667 89.0255,83.559 C89.0255,82.8563333 88.8243333,82.2868333 88.422,81.8505 C88.0196667,81.4141667 87.5068333,81.1053333 86.8835,80.924 L86.8835,80.924 L86.8835,80.856 C87.4615,80.6066667 87.9063333,80.2865 88.218,79.8955 C88.5296667,79.5045 88.6855,79.0256667 88.6855,78.459 C88.6855,77.983 88.5948333,77.5636667 88.4135,77.201 C88.2321667,76.8383333 87.98,76.5295 87.657,76.2745 C87.334,76.0195 86.943,75.8268333 86.484,75.6965 C86.025,75.5661667 85.5178333,75.501 84.9625,75.501 C84.2938333,75.501 83.6846667,75.6228333 83.135,75.8665 C82.5853333,76.1101667 82.0611667,76.4473333 81.5625,76.878 L81.5625,76.878 L82.8205,78.408 C83.1605,78.1133333 83.4863333,77.881 83.798,77.711 C84.1096667,77.541 84.4581667,77.456 84.8435,77.456 C85.2741667,77.456 85.6028333,77.5608333 85.8295,77.7705 C86.0561667,77.9801667 86.1695,78.272 86.1695,78.646 C86.1695,78.8613333 86.127,79.0568333 86.042,79.2325 C85.957,79.4081667 85.8153333,79.5611667 85.617,79.6915 C85.4186667,79.8218333 85.158,79.921 84.835,79.989 C84.512,80.057 84.1068333,80.091 83.6195,80.091 L83.6195,80.091 L83.6195,81.859 C84.2088333,81.859 84.6905,81.8958333 85.0645,81.9695 C85.4385,82.0431667 85.7331667,82.1451667 85.9485,82.2755 C86.1638333,82.4058333 86.314,82.5673333 86.399,82.76 C86.484,82.9526667 86.5265,83.168 86.5265,83.406 C86.5265,83.814 86.3678333,84.1285 86.0505,84.3495 C85.7331667,84.5705 85.3081667,84.681 84.7755,84.681 C84.3108333,84.681 83.883,84.579 83.492,84.375 C83.101,84.171 82.7411667,83.9103333 82.4125,83.593 L82.4125,83.593 L81.2565,85.174 C81.6531667,85.6386667 82.1575,86.0098333 82.7695,86.2875 C83.3815,86.5651667 84.1295,86.704 85.0135,86.704 Z" id="A3" fill="#093169" fill-rule="nonzero"></path>
        </g>
    </g>
</svg>