<?xml version="1.0" encoding="UTF-8"?>
<svg width="600px" height="629px" viewBox="0 0 600 629" version="1.1" xmlns="http://www.w3.org/2000/svg" xmlns:xlink="http://www.w3.org/1999/xlink">
    <title>balustrading/SB-pier-bases</title>
    <g id="balustrading/SB-pier-bases" stroke="none" stroke-width="1" fill="none" fill-rule="evenodd">
        <rect fill="#F5F9FF" x="0" y="0" width="600" height="629"></rect>
        <polyline id="Rectangle-Copy-2" stroke="#CBD8F2" points="106 87 106 72 230 72 230 87"></polyline>
        <polyline id="Rectangle-Copy-2" stroke="#CBD8F2" transform="translate(168.000000, 549.500000) rotate(-180.000000) translate(-168.000000, -549.500000) " points="126 557 126 542 210 542 210 557"></polyline>
        <polyline id="Rectangle-Copy-2" stroke="#CBD8F2" transform="translate(83.500000, 258.500000) rotate(-90.000000) translate(-83.500000, -258.500000) " points="66 266 66 251 101 251 101 266"></polyline>
        <polyline id="Rectangle-Copy-2" stroke="#CBD8F2" transform="translate(253.000000, 263.500000) rotate(-270.000000) translate(-253.000000, -263.500000) " points="240 271 240 256 266 256 266 271"></polyline>
        <g id="Group-16" transform="translate(106.000000, 102.000000)">
            <g id="Group-13" fill="#FFFFFF" stroke="#CBD8F2">
                <rect id="Rectangle" x="0" y="0" width="124" height="124"></rect>
                <rect id="Rectangle" x="2" y="2" width="120" height="120"></rect>
                <line x1="2" y1="2" x2="122" y2="122" id="Line-13"></line>
                <line x1="122" y1="2" x2="2" y2="122" id="Line-13"></line>
                <rect id="Rectangle" x="9" y="9" width="106" height="106"></rect>
                <rect id="Rectangle" x="43" y="43" width="38" height="38"></rect>
            </g>
            <path d="M48.084,31 C48.6846667,31 49.2456667,30.9348333 49.767,30.8045 C50.2883333,30.6741667 50.7445,30.4758333 51.1355,30.2095 C51.5265,29.9431667 51.8325,29.606 52.0535,29.198 C52.2745,28.79 52.385,28.3026667 52.385,27.736 C52.385,27.362 52.334,27.0305 52.232,26.7415 C52.13,26.4525 51.9883333,26.2003333 51.807,25.985 C51.6256667,25.7696667 51.416,25.5911667 51.178,25.4495 C50.94,25.3078333 50.6793333,25.203 50.396,25.135 L50.396,25.135 L50.396,25.067 C50.6226667,24.9876667 50.8238333,24.863 50.9995,24.693 C51.1751667,24.523 51.3253333,24.3303333 51.45,24.115 C51.5746667,23.8996667 51.671,23.6673333 51.739,23.418 C51.807,23.1686667 51.841,22.9193333 51.841,22.67 C51.841,22.1373333 51.7361667,21.6953333 51.5265,21.344 C51.3168333,20.9926667 51.0278333,20.7093333 50.6595,20.494 C50.2911667,20.2786667 49.8605,20.1285 49.3675,20.0435 C48.8745,19.9585 48.339,19.916 47.761,19.916 L47.761,19.916 L43.97,19.916 L43.97,31 L48.084,31 Z M47.642,24.353 L46.469,24.353 L46.469,21.854 L47.659,21.854 C48.2483333,21.854 48.6846667,21.9446667 48.968,22.126 C49.2513333,22.3073333 49.393,22.6133333 49.393,23.044 C49.393,23.4406667 49.2541667,23.758 48.9765,23.996 C48.6988333,24.234 48.254,24.353 47.642,24.353 L47.642,24.353 Z M47.88,29.062 L46.469,29.062 L46.469,26.206 L47.88,26.206 C48.5713333,26.206 49.087,26.3108333 49.427,26.5205 C49.767,26.7301667 49.937,27.0786667 49.937,27.566 C49.937,28.5633333 49.2513333,29.062 47.88,29.062 L47.88,29.062 Z M56.754,31 L56.754,27.243 L58.131,27.243 C58.7203333,27.243 59.2756667,27.1693333 59.797,27.022 C60.3183333,26.8746667 60.7773333,26.648 61.174,26.342 C61.5706667,26.036 61.8851667,25.645 62.1175,25.169 C62.3498333,24.693 62.466,24.132 62.466,23.486 C62.466,22.8173333 62.3498333,22.2535 62.1175,21.7945 C61.8851667,21.3355 61.5706667,20.9671667 61.174,20.6895 C60.7773333,20.4118333 60.3126667,20.2135 59.78,20.0945 C59.2473333,19.9755 58.675,19.916 58.063,19.916 L58.063,19.916 L54.255,19.916 L54.255,31 L56.754,31 Z M57.978,25.254 L56.754,25.254 L56.754,21.905 L57.91,21.905 C58.59,21.905 59.1113333,22.024 59.474,22.262 C59.8366667,22.5 60.018,22.908 60.018,23.486 C60.018,24.6646667 59.338,25.254 57.978,25.254 L57.978,25.254 Z M68.501,31 C69.1016667,31 69.6626667,30.9348333 70.184,30.8045 C70.7053333,30.6741667 71.1615,30.4758333 71.5525,30.2095 C71.9435,29.9431667 72.2495,29.606 72.4705,29.198 C72.6915,28.79 72.802,28.3026667 72.802,27.736 C72.802,27.362 72.751,27.0305 72.649,26.7415 C72.547,26.4525 72.4053333,26.2003333 72.224,25.985 C72.0426667,25.7696667 71.833,25.5911667 71.595,25.4495 C71.357,25.3078333 71.0963333,25.203 70.813,25.135 L70.813,25.135 L70.813,25.067 C71.0396667,24.9876667 71.2408333,24.863 71.4165,24.693 C71.5921667,24.523 71.7423333,24.3303333 71.867,24.115 C71.9916667,23.8996667 72.088,23.6673333 72.156,23.418 C72.224,23.1686667 72.258,22.9193333 72.258,22.67 C72.258,22.1373333 72.1531667,21.6953333 71.9435,21.344 C71.7338333,20.9926667 71.4448333,20.7093333 71.0765,20.494 C70.7081667,20.2786667 70.2775,20.1285 69.7845,20.0435 C69.2915,19.9585 68.756,19.916 68.178,19.916 L68.178,19.916 L64.387,19.916 L64.387,31 L68.501,31 Z M68.059,24.353 L66.886,24.353 L66.886,21.854 L68.076,21.854 C68.6653333,21.854 69.1016667,21.9446667 69.385,22.126 C69.6683333,22.3073333 69.81,22.6133333 69.81,23.044 C69.81,23.4406667 69.6711667,23.758 69.3935,23.996 C69.1158333,24.234 68.671,24.353 68.059,24.353 L68.059,24.353 Z M68.297,29.062 L66.886,29.062 L66.886,26.206 L68.297,26.206 C68.9883333,26.206 69.504,26.3108333 69.844,26.5205 C70.184,26.7301667 70.354,27.0786667 70.354,27.566 C70.354,28.5633333 69.6683333,29.062 68.297,29.062 L68.297,29.062 Z M81.421,31 L81.421,28.977 L79.398,28.977 L79.398,20.205 L77.562,20.205 C77.1766667,20.4316667 76.78,20.6243333 76.372,20.783 C75.964,20.9416667 75.4653333,21.0776667 74.876,21.191 L74.876,21.191 L74.876,22.738 L76.899,22.738 L76.899,28.977 L74.553,28.977 L74.553,31 L81.421,31 Z" id="BPB1" fill="#093169" fill-rule="nonzero"></path>
        </g>
        <g id="Group-17" transform="translate(371.000000, 102.000000)">
            <g id="Group-13" fill="#FFFFFF" stroke="#CBD8F2">
                <rect id="Rectangle" x="0" y="0" width="124" height="124"></rect>
                <path d="M104,0 L104,2 L122,2 L122,122 L104,122 L104,124 L20,124 L20,122 L2,122 L2,2 L20,2 L20,0 L104,0 Z" id="Combined-Shape"></path>
                <line x1="2" y1="2" x2="122" y2="122" id="Line-13"></line>
                <line x1="20" y1="2" x2="27.0710678" y2="9.07106781" id="Line-13"></line>
                <line x1="27.0710678" y1="115" x2="20" y2="122.071068" id="Line-13"></line>
                <line x1="122" y1="2" x2="2" y2="122" id="Line-13"></line>
                <line x1="104" y1="2" x2="96.9289322" y2="9.07106781" id="Line-13"></line>
                <line x1="96.9289322" y1="115" x2="104" y2="122.071068" id="Line-13"></line>
                <path d="M97,0 L97,9 L115,9 L115,115 L97,115 L97,124 L27,124 L27,115 L9,115 L9,9 L27,9 L27,0 L97,0 Z" id="Combined-Shape"></path>
                <rect id="Rectangle" x="43" y="43" width="38" height="38"></rect>
            </g>
            <path d="M47.584,31 C48.1846667,31 48.7456667,30.9348333 49.267,30.8045 C49.7883333,30.6741667 50.2445,30.4758333 50.6355,30.2095 C51.0265,29.9431667 51.3325,29.606 51.5535,29.198 C51.7745,28.79 51.885,28.3026667 51.885,27.736 C51.885,27.362 51.834,27.0305 51.732,26.7415 C51.63,26.4525 51.4883333,26.2003333 51.307,25.985 C51.1256667,25.7696667 50.916,25.5911667 50.678,25.4495 C50.44,25.3078333 50.1793333,25.203 49.896,25.135 L49.896,25.135 L49.896,25.067 C50.1226667,24.9876667 50.3238333,24.863 50.4995,24.693 C50.6751667,24.523 50.8253333,24.3303333 50.95,24.115 C51.0746667,23.8996667 51.171,23.6673333 51.239,23.418 C51.307,23.1686667 51.341,22.9193333 51.341,22.67 C51.341,22.1373333 51.2361667,21.6953333 51.0265,21.344 C50.8168333,20.9926667 50.5278333,20.7093333 50.1595,20.494 C49.7911667,20.2786667 49.3605,20.1285 48.8675,20.0435 C48.3745,19.9585 47.839,19.916 47.261,19.916 L47.261,19.916 L43.47,19.916 L43.47,31 L47.584,31 Z M47.142,24.353 L45.969,24.353 L45.969,21.854 L47.159,21.854 C47.7483333,21.854 48.1846667,21.9446667 48.468,22.126 C48.7513333,22.3073333 48.893,22.6133333 48.893,23.044 C48.893,23.4406667 48.7541667,23.758 48.4765,23.996 C48.1988333,24.234 47.754,24.353 47.142,24.353 L47.142,24.353 Z M47.38,29.062 L45.969,29.062 L45.969,26.206 L47.38,26.206 C48.0713333,26.206 48.587,26.3108333 48.927,26.5205 C49.267,26.7301667 49.437,27.0786667 49.437,27.566 C49.437,28.5633333 48.7513333,29.062 47.38,29.062 L47.38,29.062 Z M56.254,31 L56.254,27.243 L57.631,27.243 C58.2203333,27.243 58.7756667,27.1693333 59.297,27.022 C59.8183333,26.8746667 60.2773333,26.648 60.674,26.342 C61.0706667,26.036 61.3851667,25.645 61.6175,25.169 C61.8498333,24.693 61.966,24.132 61.966,23.486 C61.966,22.8173333 61.8498333,22.2535 61.6175,21.7945 C61.3851667,21.3355 61.0706667,20.9671667 60.674,20.6895 C60.2773333,20.4118333 59.8126667,20.2135 59.28,20.0945 C58.7473333,19.9755 58.175,19.916 57.563,19.916 L57.563,19.916 L53.755,19.916 L53.755,31 L56.254,31 Z M57.478,25.254 L56.254,25.254 L56.254,21.905 L57.41,21.905 C58.09,21.905 58.6113333,22.024 58.974,22.262 C59.3366667,22.5 59.518,22.908 59.518,23.486 C59.518,24.6646667 58.838,25.254 57.478,25.254 L57.478,25.254 Z M68.001,31 C68.6016667,31 69.1626667,30.9348333 69.684,30.8045 C70.2053333,30.6741667 70.6615,30.4758333 71.0525,30.2095 C71.4435,29.9431667 71.7495,29.606 71.9705,29.198 C72.1915,28.79 72.302,28.3026667 72.302,27.736 C72.302,27.362 72.251,27.0305 72.149,26.7415 C72.047,26.4525 71.9053333,26.2003333 71.724,25.985 C71.5426667,25.7696667 71.333,25.5911667 71.095,25.4495 C70.857,25.3078333 70.5963333,25.203 70.313,25.135 L70.313,25.135 L70.313,25.067 C70.5396667,24.9876667 70.7408333,24.863 70.9165,24.693 C71.0921667,24.523 71.2423333,24.3303333 71.367,24.115 C71.4916667,23.8996667 71.588,23.6673333 71.656,23.418 C71.724,23.1686667 71.758,22.9193333 71.758,22.67 C71.758,22.1373333 71.6531667,21.6953333 71.4435,21.344 C71.2338333,20.9926667 70.9448333,20.7093333 70.5765,20.494 C70.2081667,20.2786667 69.7775,20.1285 69.2845,20.0435 C68.7915,19.9585 68.256,19.916 67.678,19.916 L67.678,19.916 L63.887,19.916 L63.887,31 L68.001,31 Z M67.559,24.353 L66.386,24.353 L66.386,21.854 L67.576,21.854 C68.1653333,21.854 68.6016667,21.9446667 68.885,22.126 C69.1683333,22.3073333 69.31,22.6133333 69.31,23.044 C69.31,23.4406667 69.1711667,23.758 68.8935,23.996 C68.6158333,24.234 68.171,24.353 67.559,24.353 L67.559,24.353 Z M67.797,29.062 L66.386,29.062 L66.386,26.206 L67.797,26.206 C68.4883333,26.206 69.004,26.3108333 69.344,26.5205 C69.684,26.7301667 69.854,27.0786667 69.854,27.566 C69.854,28.5633333 69.1683333,29.062 67.797,29.062 L67.797,29.062 Z M81.091,31 L81.091,28.892 L78.915,28.892 C78.6543333,28.892 78.3568333,28.9061667 78.0225,28.9345 C77.6881667,28.9628333 77.385,28.994 77.113,29.028 C77.555,28.5746667 77.9828333,28.1128333 78.3965,27.6425 C78.8101667,27.1721667 79.1785,26.7018333 79.5015,26.2315 C79.8245,25.7611667 80.0823333,25.2908333 80.275,24.8205 C80.4676667,24.3501667 80.564,23.8883333 80.564,23.435 C80.564,22.9136667 80.479,22.4433333 80.309,22.024 C80.139,21.6046667 79.8953333,21.2448333 79.578,20.9445 C79.2606667,20.6441667 78.8838333,20.4118333 78.4475,20.2475 C78.0111667,20.0831667 77.5266667,20.001 76.994,20.001 C76.2233333,20.001 75.5603333,20.1455 75.005,20.4345 C74.4496667,20.7235 73.9056667,21.1513333 73.373,21.718 L73.373,21.718 L74.733,23.061 C75.005,22.7663333 75.294,22.5085 75.6,22.2875 C75.906,22.0665 76.2573333,21.956 76.654,21.956 C77.13,21.956 77.504,22.0948333 77.776,22.3725 C78.048,22.6501667 78.184,23.0553333 78.184,23.588 C78.184,23.9733333 78.0678333,24.3785 77.8355,24.8035 C77.6031667,25.2285 77.2801667,25.6875 76.8665,26.1805 C76.4528333,26.6735 75.9598333,27.2005 75.3875,27.7615 C74.8151667,28.3225 74.1833333,28.926 73.492,29.572 L73.492,29.572 L73.492,31 L81.091,31 Z" id="BPB2" fill="#093169" fill-rule="nonzero"></path>
        </g>
        <g id="Group-13" transform="translate(168.000000, 415.000000) rotate(-180.000000) translate(-168.000000, -415.000000) translate(106.000000, 353.000000)" fill="#FFFFFF" stroke="#CBD8F2">
            <rect id="Rectangle" x="0" y="0" width="124" height="124"></rect>
            <path d="M27,0 L27,2 L97,2 L97,0 L104,0 L104,2 L122,2 L122,122 L2,122 L2,2 L20,2 L20,0 L27,0 Z" id="Combined-Shape"></path>
            <line x1="2" y1="2" x2="122" y2="122" id="Line-13"></line>
            <line x1="20" y1="2" x2="27.0710678" y2="9.07106781" id="Line-13"></line>
            <line x1="122" y1="2" x2="2" y2="122" id="Line-13"></line>
            <line x1="104" y1="2" x2="96.9289322" y2="9.07106781" id="Line-13"></line>
            <path d="M97,0 L97,9 L115,9 L115,115 L9,115 L9,9 L27,9 L27,0 L97,0 Z" id="Combined-Shape"></path>
            <rect id="Rectangle" x="43" y="43" width="38" height="38"></rect>
        </g>
        <path d="M153.584,384 C154.184667,384 154.745667,383.934833 155.267,383.8045 C155.788333,383.674167 156.2445,383.475833 156.6355,383.2095 C157.0265,382.943167 157.3325,382.606 157.5535,382.198 C157.7745,381.79 157.885,381.302667 157.885,380.736 C157.885,380.362 157.834,380.0305 157.732,379.7415 C157.63,379.4525 157.488333,379.200333 157.307,378.985 C157.125667,378.769667 156.916,378.591167 156.678,378.4495 C156.44,378.307833 156.179333,378.203 155.896,378.135 L155.896,378.135 L155.896,378.067 C156.122667,377.987667 156.323833,377.863 156.4995,377.693 C156.675167,377.523 156.825333,377.330333 156.95,377.115 C157.074667,376.899667 157.171,376.667333 157.239,376.418 C157.307,376.168667 157.341,375.919333 157.341,375.67 C157.341,375.137333 157.236167,374.695333 157.0265,374.344 C156.816833,373.992667 156.527833,373.709333 156.1595,373.494 C155.791167,373.278667 155.3605,373.1285 154.8675,373.0435 C154.3745,372.9585 153.839,372.916 153.261,372.916 L153.261,372.916 L149.47,372.916 L149.47,384 L153.584,384 Z M153.142,377.353 L151.969,377.353 L151.969,374.854 L153.159,374.854 C153.748333,374.854 154.184667,374.944667 154.468,375.126 C154.751333,375.307333 154.893,375.613333 154.893,376.044 C154.893,376.440667 154.754167,376.758 154.4765,376.996 C154.198833,377.234 153.754,377.353 153.142,377.353 L153.142,377.353 Z M153.38,382.062 L151.969,382.062 L151.969,379.206 L153.38,379.206 C154.071333,379.206 154.587,379.310833 154.927,379.5205 C155.267,379.730167 155.437,380.078667 155.437,380.566 C155.437,381.563333 154.751333,382.062 153.38,382.062 L153.38,382.062 Z M162.254,384 L162.254,380.243 L163.631,380.243 C164.220333,380.243 164.775667,380.169333 165.297,380.022 C165.818333,379.874667 166.277333,379.648 166.674,379.342 C167.070667,379.036 167.385167,378.645 167.6175,378.169 C167.849833,377.693 167.966,377.132 167.966,376.486 C167.966,375.817333 167.849833,375.2535 167.6175,374.7945 C167.385167,374.3355 167.070667,373.967167 166.674,373.6895 C166.277333,373.411833 165.812667,373.2135 165.28,373.0945 C164.747333,372.9755 164.175,372.916 163.563,372.916 L163.563,372.916 L159.755,372.916 L159.755,384 L162.254,384 Z M163.478,378.254 L162.254,378.254 L162.254,374.905 L163.41,374.905 C164.09,374.905 164.611333,375.024 164.974,375.262 C165.336667,375.5 165.518,375.908 165.518,376.486 C165.518,377.664667 164.838,378.254 163.478,378.254 L163.478,378.254 Z M174.001,384 C174.601667,384 175.162667,383.934833 175.684,383.8045 C176.205333,383.674167 176.6615,383.475833 177.0525,383.2095 C177.4435,382.943167 177.7495,382.606 177.9705,382.198 C178.1915,381.79 178.302,381.302667 178.302,380.736 C178.302,380.362 178.251,380.0305 178.149,379.7415 C178.047,379.4525 177.905333,379.200333 177.724,378.985 C177.542667,378.769667 177.333,378.591167 177.095,378.4495 C176.857,378.307833 176.596333,378.203 176.313,378.135 L176.313,378.135 L176.313,378.067 C176.539667,377.987667 176.740833,377.863 176.9165,377.693 C177.092167,377.523 177.242333,377.330333 177.367,377.115 C177.491667,376.899667 177.588,376.667333 177.656,376.418 C177.724,376.168667 177.758,375.919333 177.758,375.67 C177.758,375.137333 177.653167,374.695333 177.4435,374.344 C177.233833,373.992667 176.944833,373.709333 176.5765,373.494 C176.208167,373.278667 175.7775,373.1285 175.2845,373.0435 C174.7915,372.9585 174.256,372.916 173.678,372.916 L173.678,372.916 L169.887,372.916 L169.887,384 L174.001,384 Z M173.559,377.353 L172.386,377.353 L172.386,374.854 L173.576,374.854 C174.165333,374.854 174.601667,374.944667 174.885,375.126 C175.168333,375.307333 175.31,375.613333 175.31,376.044 C175.31,376.440667 175.171167,376.758 174.8935,376.996 C174.615833,377.234 174.171,377.353 173.559,377.353 L173.559,377.353 Z M173.797,382.062 L172.386,382.062 L172.386,379.206 L173.797,379.206 C174.488333,379.206 175.004,379.310833 175.344,379.5205 C175.684,379.730167 175.854,380.078667 175.854,380.566 C175.854,381.563333 175.168333,382.062 173.797,382.062 L173.797,382.062 Z M182.994,384.204 C183.538,384.204 184.053667,384.133167 184.541,383.9915 C185.028333,383.849833 185.453333,383.645833 185.816,383.3795 C186.178667,383.113167 186.467667,382.7845 186.683,382.3935 C186.898333,382.0025 187.006,381.557667 187.006,381.059 C187.006,380.356333 186.804833,379.786833 186.4025,379.3505 C186.000167,378.914167 185.487333,378.605333 184.864,378.424 L184.864,378.424 L184.864,378.356 C185.442,378.106667 185.886833,377.7865 186.1985,377.3955 C186.510167,377.0045 186.666,376.525667 186.666,375.959 C186.666,375.483 186.575333,375.063667 186.394,374.701 C186.212667,374.338333 185.9605,374.0295 185.6375,373.7745 C185.3145,373.5195 184.9235,373.326833 184.4645,373.1965 C184.0055,373.066167 183.498333,373.001 182.943,373.001 C182.274333,373.001 181.665167,373.122833 181.1155,373.3665 C180.565833,373.610167 180.041667,373.947333 179.543,374.378 L179.543,374.378 L180.801,375.908 C181.141,375.613333 181.466833,375.381 181.7785,375.211 C182.090167,375.041 182.438667,374.956 182.824,374.956 C183.254667,374.956 183.583333,375.060833 183.81,375.2705 C184.036667,375.480167 184.15,375.772 184.15,376.146 C184.15,376.361333 184.1075,376.556833 184.0225,376.7325 C183.9375,376.908167 183.795833,377.061167 183.5975,377.1915 C183.399167,377.321833 183.1385,377.421 182.8155,377.489 C182.4925,377.557 182.087333,377.591 181.6,377.591 L181.6,377.591 L181.6,379.359 C182.189333,379.359 182.671,379.395833 183.045,379.4695 C183.419,379.543167 183.713667,379.645167 183.929,379.7755 C184.144333,379.905833 184.2945,380.067333 184.3795,380.26 C184.4645,380.452667 184.507,380.668 184.507,380.906 C184.507,381.314 184.348333,381.6285 184.031,381.8495 C183.713667,382.0705 183.288667,382.181 182.756,382.181 C182.291333,382.181 181.8635,382.079 181.4725,381.875 C181.0815,381.671 180.721667,381.410333 180.393,381.093 L180.393,381.093 L179.237,382.674 C179.633667,383.138667 180.138,383.509833 180.75,383.7875 C181.362,384.065167 182.11,384.204 182.994,384.204 Z" id="BPB3" fill="#093169" fill-rule="nonzero"></path>
        <g id="Group-18" transform="translate(371.000000, 353.000000)">
            <g id="Group-13" transform="translate(62.000000, 62.000000) rotate(-270.000000) translate(-62.000000, -62.000000) " fill="#FFFFFF" stroke="#CBD8F2">
                <rect id="Rectangle" x="0" y="0" width="124" height="124"></rect>
                <path d="M104,0 L104,2 L122,2 L122,20.5 L124,20.5 L124,104.5 L122,104.5 L122,122 L2,122 L2,2 L20,2 L20,0 L104,0 Z" id="Combined-Shape"></path>
                <line x1="2" y1="2" x2="122" y2="122" id="Line-13"></line>
                <line x1="20" y1="2" x2="27.0710678" y2="9.07106781" id="Line-13"></line>
                <g id="Group-15" transform="translate(118.500000, 62.500000) rotate(-90.000000) translate(-118.500000, -62.500000) translate(76.000000, 59.000000)">
                    <line x1="8" y1="9.23705556e-14" x2="0.5" y2="7" id="Line-13"></line>
                    <line x1="77.9289322" y1="-9.66338121e-13" x2="84.5" y2="7" id="Line-13"></line>
                </g>
                <line x1="122" y1="2" x2="2" y2="122" id="Line-13"></line>
                <line x1="104" y1="2" x2="96.9289322" y2="9.07106781" id="Line-13"></line>
                <path d="M97,0 L97,9 L115,9 L115,27 L124,27 L124,97 L115,97 L115,115 L9,115 L9,9 L27,9 L27,0 L97,0 Z" id="Combined-Shape"></path>
                <rect id="Rectangle" x="43" y="43" width="38" height="38"></rect>
            </g>
            <path d="M47.584,31 C48.1846667,31 48.7456667,30.9348333 49.267,30.8045 C49.7883333,30.6741667 50.2445,30.4758333 50.6355,30.2095 C51.0265,29.9431667 51.3325,29.606 51.5535,29.198 C51.7745,28.79 51.885,28.3026667 51.885,27.736 C51.885,27.362 51.834,27.0305 51.732,26.7415 C51.63,26.4525 51.4883333,26.2003333 51.307,25.985 C51.1256667,25.7696667 50.916,25.5911667 50.678,25.4495 C50.44,25.3078333 50.1793333,25.203 49.896,25.135 L49.896,25.135 L49.896,25.067 C50.1226667,24.9876667 50.3238333,24.863 50.4995,24.693 C50.6751667,24.523 50.8253333,24.3303333 50.95,24.115 C51.0746667,23.8996667 51.171,23.6673333 51.239,23.418 C51.307,23.1686667 51.341,22.9193333 51.341,22.67 C51.341,22.1373333 51.2361667,21.6953333 51.0265,21.344 C50.8168333,20.9926667 50.5278333,20.7093333 50.1595,20.494 C49.7911667,20.2786667 49.3605,20.1285 48.8675,20.0435 C48.3745,19.9585 47.839,19.916 47.261,19.916 L47.261,19.916 L43.47,19.916 L43.47,31 L47.584,31 Z M47.142,24.353 L45.969,24.353 L45.969,21.854 L47.159,21.854 C47.7483333,21.854 48.1846667,21.9446667 48.468,22.126 C48.7513333,22.3073333 48.893,22.6133333 48.893,23.044 C48.893,23.4406667 48.7541667,23.758 48.4765,23.996 C48.1988333,24.234 47.754,24.353 47.142,24.353 L47.142,24.353 Z M47.38,29.062 L45.969,29.062 L45.969,26.206 L47.38,26.206 C48.0713333,26.206 48.587,26.3108333 48.927,26.5205 C49.267,26.7301667 49.437,27.0786667 49.437,27.566 C49.437,28.5633333 48.7513333,29.062 47.38,29.062 L47.38,29.062 Z M56.254,31 L56.254,27.243 L57.631,27.243 C58.2203333,27.243 58.7756667,27.1693333 59.297,27.022 C59.8183333,26.8746667 60.2773333,26.648 60.674,26.342 C61.0706667,26.036 61.3851667,25.645 61.6175,25.169 C61.8498333,24.693 61.966,24.132 61.966,23.486 C61.966,22.8173333 61.8498333,22.2535 61.6175,21.7945 C61.3851667,21.3355 61.0706667,20.9671667 60.674,20.6895 C60.2773333,20.4118333 59.8126667,20.2135 59.28,20.0945 C58.7473333,19.9755 58.175,19.916 57.563,19.916 L57.563,19.916 L53.755,19.916 L53.755,31 L56.254,31 Z M57.478,25.254 L56.254,25.254 L56.254,21.905 L57.41,21.905 C58.09,21.905 58.6113333,22.024 58.974,22.262 C59.3366667,22.5 59.518,22.908 59.518,23.486 C59.518,24.6646667 58.838,25.254 57.478,25.254 L57.478,25.254 Z M68.001,31 C68.6016667,31 69.1626667,30.9348333 69.684,30.8045 C70.2053333,30.6741667 70.6615,30.4758333 71.0525,30.2095 C71.4435,29.9431667 71.7495,29.606 71.9705,29.198 C72.1915,28.79 72.302,28.3026667 72.302,27.736 C72.302,27.362 72.251,27.0305 72.149,26.7415 C72.047,26.4525 71.9053333,26.2003333 71.724,25.985 C71.5426667,25.7696667 71.333,25.5911667 71.095,25.4495 C70.857,25.3078333 70.5963333,25.203 70.313,25.135 L70.313,25.135 L70.313,25.067 C70.5396667,24.9876667 70.7408333,24.863 70.9165,24.693 C71.0921667,24.523 71.2423333,24.3303333 71.367,24.115 C71.4916667,23.8996667 71.588,23.6673333 71.656,23.418 C71.724,23.1686667 71.758,22.9193333 71.758,22.67 C71.758,22.1373333 71.6531667,21.6953333 71.4435,21.344 C71.2338333,20.9926667 70.9448333,20.7093333 70.5765,20.494 C70.2081667,20.2786667 69.7775,20.1285 69.2845,20.0435 C68.7915,19.9585 68.256,19.916 67.678,19.916 L67.678,19.916 L63.887,19.916 L63.887,31 L68.001,31 Z M67.559,24.353 L66.386,24.353 L66.386,21.854 L67.576,21.854 C68.1653333,21.854 68.6016667,21.9446667 68.885,22.126 C69.1683333,22.3073333 69.31,22.6133333 69.31,23.044 C69.31,23.4406667 69.1711667,23.758 68.8935,23.996 C68.6158333,24.234 68.171,24.353 67.559,24.353 L67.559,24.353 Z M67.797,29.062 L66.386,29.062 L66.386,26.206 L67.797,26.206 C68.4883333,26.206 69.004,26.3108333 69.344,26.5205 C69.684,26.7301667 69.854,27.0786667 69.854,27.566 C69.854,28.5633333 69.1683333,29.062 67.797,29.062 L67.797,29.062 Z M80.19,31 L80.19,28.416 L81.431,28.416 L81.431,26.512 L80.19,26.512 L80.19,20.205 L77.13,20.205 L73.186,26.699 L73.186,28.416 L77.861,28.416 L77.861,31 L80.19,31 Z M77.861,26.512 L75.583,26.512 L77.011,24.166 C77.1696667,23.86 77.3226667,23.554 77.47,23.248 C77.6173333,22.942 77.759,22.6416667 77.895,22.347 L77.895,22.347 L77.963,22.347 C77.9403333,22.687 77.9176667,23.0865 77.895,23.5455 C77.8723333,24.0045 77.861,24.4096667 77.861,24.761 L77.861,24.761 L77.861,26.512 Z" id="BPB4" fill="#093169" fill-rule="nonzero"></path>
        </g>
        <g id="Group-14" transform="translate(106.000000, 241.000000)" fill="#FFFFFF" stroke="#CBD8F2">
            <path d="M115,2 C118.865993,2 122,5.13400675 122,9 L2,9 L2,9 C2,5.21454828 5.00478338,2.13090132 8.75935025,2.00405902 L9,2 L115,2 Z" id="Combined-Shape"></path>
            <rect id="Rectangle" x="0" y="9" width="124" height="26"></rect>
            <rect id="Rectangle" x="9" y="0" width="106" height="2"></rect>
        </g>
        <polyline id="Rectangle-Copy-2" stroke="#CBD8F2" transform="translate(433.000000, 79.500000) rotate(-360.000000) translate(-433.000000, -79.500000) " points="391 87 391 72 475 72 475 87"></polyline>
        <path d="M144.598,52.204 C145.142,52.204 145.657667,52.1331667 146.145,51.9915 C146.632333,51.8498333 147.057333,51.6458333 147.42,51.3795 C147.782667,51.1131667 148.071667,50.7845 148.287,50.3935 C148.502333,50.0025 148.61,49.5576667 148.61,49.059 C148.61,48.3563333 148.408833,47.7868333 148.0065,47.3505 C147.604167,46.9141667 147.091333,46.6053333 146.468,46.424 L146.468,46.424 L146.468,46.356 C147.046,46.1066667 147.490833,45.7865 147.8025,45.3955 C148.114167,45.0045 148.27,44.5256667 148.27,43.959 C148.27,43.483 148.179333,43.0636667 147.998,42.701 C147.816667,42.3383333 147.5645,42.0295 147.2415,41.7745 C146.9185,41.5195 146.5275,41.3268333 146.0685,41.1965 C145.6095,41.0661667 145.102333,41.001 144.547,41.001 C143.878333,41.001 143.269167,41.1228333 142.7195,41.3665 C142.169833,41.6101667 141.645667,41.9473333 141.147,42.378 L141.147,42.378 L142.405,43.908 C142.745,43.6133333 143.070833,43.381 143.3825,43.211 C143.694167,43.041 144.042667,42.956 144.428,42.956 C144.858667,42.956 145.187333,43.0608333 145.414,43.2705 C145.640667,43.4801667 145.754,43.772 145.754,44.146 C145.754,44.3613333 145.7115,44.5568333 145.6265,44.7325 C145.5415,44.9081667 145.399833,45.0611667 145.2015,45.1915 C145.003167,45.3218333 144.7425,45.421 144.4195,45.489 C144.0965,45.557 143.691333,45.591 143.204,45.591 L143.204,45.591 L143.204,47.359 C143.793333,47.359 144.275,47.3958333 144.649,47.4695 C145.023,47.5431667 145.317667,47.6451667 145.533,47.7755 C145.748333,47.9058333 145.8985,48.0673333 145.9835,48.26 C146.0685,48.4526667 146.111,48.668 146.111,48.906 C146.111,49.314 145.952333,49.6285 145.635,49.8495 C145.317667,50.0705 144.892667,50.181 144.36,50.181 C143.895333,50.181 143.4675,50.079 143.0765,49.875 C142.6855,49.671 142.325667,49.4103333 141.997,49.093 L141.997,49.093 L140.841,50.674 C141.237667,51.1386667 141.742,51.5098333 142.354,51.7875 C142.966,52.0651667 143.714,52.204 144.598,52.204 Z M153.642,52.204 C154.163333,52.204 154.664833,52.119 155.1465,51.949 C155.628167,51.779 156.050333,51.5325 156.413,51.2095 C156.775667,50.8865 157.064667,50.4926667 157.28,50.028 C157.495333,49.5633333 157.603,49.0306667 157.603,48.43 C157.603,47.852 157.512333,47.3533333 157.331,46.934 C157.149667,46.5146667 156.900333,46.169 156.583,45.897 C156.265667,45.625 155.900167,45.421 155.4865,45.285 C155.072833,45.149 154.633667,45.081 154.169,45.081 C153.942333,45.081 153.7355,45.1008333 153.5485,45.1405 C153.3615,45.1801667 153.166,45.2453333 152.962,45.336 L152.962,45.336 L153.149,43.313 L157.11,43.313 L157.11,41.205 L150.99,41.205 L150.684,46.662 L151.806,47.376 C151.964667,47.274 152.109167,47.189 152.2395,47.121 C152.369833,47.053 152.4945,46.9963333 152.6135,46.951 C152.7325,46.9056667 152.854333,46.8745 152.979,46.8575 C153.103667,46.8405 153.245333,46.832 153.404,46.832 C153.914,46.832 154.324833,46.9736667 154.6365,47.257 C154.948167,47.5403333 155.104,47.954 155.104,48.498 C155.104,49.0533333 154.939667,49.4726667 154.611,49.756 C154.282333,50.0393333 153.840333,50.181 153.285,50.181 C152.820333,50.181 152.398167,50.0761667 152.0185,49.8665 C151.638833,49.6568333 151.284667,49.4046667 150.956,49.11 L150.956,49.11 L149.834,50.691 C150.264667,51.1216667 150.786,51.4815 151.398,51.7705 C152.01,52.0595 152.758,52.204 153.642,52.204 Z M162.618,52.204 C163.139333,52.204 163.640833,52.119 164.1225,51.949 C164.604167,51.779 165.026333,51.5325 165.389,51.2095 C165.751667,50.8865 166.040667,50.4926667 166.256,50.028 C166.471333,49.5633333 166.579,49.0306667 166.579,48.43 C166.579,47.852 166.488333,47.3533333 166.307,46.934 C166.125667,46.5146667 165.876333,46.169 165.559,45.897 C165.241667,45.625 164.876167,45.421 164.4625,45.285 C164.048833,45.149 163.609667,45.081 163.145,45.081 C162.918333,45.081 162.7115,45.1008333 162.5245,45.1405 C162.3375,45.1801667 162.142,45.2453333 161.938,45.336 L161.938,45.336 L162.125,43.313 L166.086,43.313 L166.086,41.205 L159.966,41.205 L159.66,46.662 L160.782,47.376 C160.940667,47.274 161.085167,47.189 161.2155,47.121 C161.345833,47.053 161.4705,46.9963333 161.5895,46.951 C161.7085,46.9056667 161.830333,46.8745 161.955,46.8575 C162.079667,46.8405 162.221333,46.832 162.38,46.832 C162.89,46.832 163.300833,46.9736667 163.6125,47.257 C163.924167,47.5403333 164.08,47.954 164.08,48.498 C164.08,49.0533333 163.915667,49.4726667 163.587,49.756 C163.258333,50.0393333 162.816333,50.181 162.261,50.181 C161.796333,50.181 161.374167,50.0761667 160.9945,49.8665 C160.614833,49.6568333 160.260667,49.4046667 159.932,49.11 L159.932,49.11 L158.81,50.691 C159.240667,51.1216667 159.762,51.4815 160.374,51.7705 C160.986,52.0595 161.734,52.204 162.618,52.204 Z M170.999,52 L170.999,46.305 C171.520333,45.761 171.996333,45.489 172.427,45.489 C172.789667,45.489 173.053167,45.6023333 173.2175,45.829 C173.381833,46.0556667 173.464,46.475 173.464,47.087 L173.464,47.087 L173.464,52 L175.963,52 L175.963,46.305 C176.507,45.761 176.988667,45.489 177.408,45.489 C177.770667,45.489 178.034167,45.6023333 178.1985,45.829 C178.362833,46.0556667 178.445,46.475 178.445,47.087 L178.445,47.087 L178.445,52 L180.944,52 L180.944,46.764 C180.944,45.71 180.7315,44.8798333 180.3065,44.2735 C179.8815,43.6671667 179.215667,43.364 178.309,43.364 C177.742333,43.364 177.252167,43.5028333 176.8385,43.7805 C176.424833,44.0581667 176.031,44.3896667 175.657,44.775 C175.441667,44.3216667 175.149833,43.9731667 174.7815,43.7295 C174.413167,43.4858333 173.928667,43.364 173.328,43.364 C172.772667,43.364 172.296667,43.4915 171.9,43.7465 C171.503333,44.0015 171.129333,44.3046667 170.778,44.656 L170.778,44.656 L170.71,44.656 L170.54,43.568 L168.5,43.568 L168.5,52 L170.999,52 Z M185.568,52 L185.568,46.305 C186.089333,45.761 186.565333,45.489 186.996,45.489 C187.358667,45.489 187.622167,45.6023333 187.7865,45.829 C187.950833,46.0556667 188.033,46.475 188.033,47.087 L188.033,47.087 L188.033,52 L190.532,52 L190.532,46.305 C191.076,45.761 191.557667,45.489 191.977,45.489 C192.339667,45.489 192.603167,45.6023333 192.7675,45.829 C192.931833,46.0556667 193.014,46.475 193.014,47.087 L193.014,47.087 L193.014,52 L195.513,52 L195.513,46.764 C195.513,45.71 195.3005,44.8798333 194.8755,44.2735 C194.4505,43.6671667 193.784667,43.364 192.878,43.364 C192.311333,43.364 191.821167,43.5028333 191.4075,43.7805 C190.993833,44.0581667 190.6,44.3896667 190.226,44.775 C190.010667,44.3216667 189.718833,43.9731667 189.3505,43.7295 C188.982167,43.4858333 188.497667,43.364 187.897,43.364 C187.341667,43.364 186.865667,43.4915 186.469,43.7465 C186.072333,44.0015 185.698333,44.3046667 185.347,44.656 L185.347,44.656 L185.279,44.656 L185.109,43.568 L183.069,43.568 L183.069,52 L185.568,52 Z" id="355mm" fill="#093169" fill-rule="nonzero"></path>
        <path d="M148.695,589 L148.695,586.892 L146.519,586.892 C146.258333,586.892 145.960833,586.906167 145.6265,586.9345 C145.292167,586.962833 144.989,586.994 144.717,587.028 C145.159,586.574667 145.586833,586.112833 146.0005,585.6425 C146.414167,585.172167 146.7825,584.701833 147.1055,584.2315 C147.4285,583.761167 147.686333,583.290833 147.879,582.8205 C148.071667,582.350167 148.168,581.888333 148.168,581.435 C148.168,580.913667 148.083,580.443333 147.913,580.024 C147.743,579.604667 147.499333,579.244833 147.182,578.9445 C146.864667,578.644167 146.487833,578.411833 146.0515,578.2475 C145.615167,578.083167 145.130667,578.001 144.598,578.001 C143.827333,578.001 143.164333,578.1455 142.609,578.4345 C142.053667,578.7235 141.509667,579.151333 140.977,579.718 L140.977,579.718 L142.337,581.061 C142.609,580.766333 142.898,580.5085 143.204,580.2875 C143.51,580.0665 143.861333,579.956 144.258,579.956 C144.734,579.956 145.108,580.094833 145.38,580.3725 C145.652,580.650167 145.788,581.055333 145.788,581.588 C145.788,581.973333 145.671833,582.3785 145.4395,582.8035 C145.207167,583.2285 144.884167,583.6875 144.4705,584.1805 C144.056833,584.6735 143.563833,585.2005 142.9915,585.7615 C142.419167,586.3225 141.787333,586.926 141.096,587.572 L141.096,587.572 L141.096,589 L148.695,589 Z M153.642,589.204 C154.163333,589.204 154.664833,589.119 155.1465,588.949 C155.628167,588.779 156.050333,588.5325 156.413,588.2095 C156.775667,587.8865 157.064667,587.492667 157.28,587.028 C157.495333,586.563333 157.603,586.030667 157.603,585.43 C157.603,584.852 157.512333,584.353333 157.331,583.934 C157.149667,583.514667 156.900333,583.169 156.583,582.897 C156.265667,582.625 155.900167,582.421 155.4865,582.285 C155.072833,582.149 154.633667,582.081 154.169,582.081 C153.942333,582.081 153.7355,582.100833 153.5485,582.1405 C153.3615,582.180167 153.166,582.245333 152.962,582.336 L152.962,582.336 L153.149,580.313 L157.11,580.313 L157.11,578.205 L150.99,578.205 L150.684,583.662 L151.806,584.376 C151.964667,584.274 152.109167,584.189 152.2395,584.121 C152.369833,584.053 152.4945,583.996333 152.6135,583.951 C152.7325,583.905667 152.854333,583.8745 152.979,583.8575 C153.103667,583.8405 153.245333,583.832 153.404,583.832 C153.914,583.832 154.324833,583.973667 154.6365,584.257 C154.948167,584.540333 155.104,584.954 155.104,585.498 C155.104,586.053333 154.939667,586.472667 154.611,586.756 C154.282333,587.039333 153.840333,587.181 153.285,587.181 C152.820333,587.181 152.398167,587.076167 152.0185,586.8665 C151.638833,586.656833 151.284667,586.404667 150.956,586.11 L150.956,586.11 L149.834,587.691 C150.264667,588.121667 150.786,588.4815 151.398,588.7705 C152.01,589.0595 152.758,589.204 153.642,589.204 Z M162.907,589.204 C163.485,589.204 164.012,589.082167 164.488,588.8385 C164.964,588.594833 165.369167,588.235 165.7035,587.759 C166.037833,587.283 166.2985,586.693667 166.4855,585.991 C166.6725,585.288333 166.766,584.478 166.766,583.56 C166.766,582.642 166.6725,581.837333 166.4855,581.146 C166.2985,580.454667 166.037833,579.873833 165.7035,579.4035 C165.369167,578.933167 164.964,578.581833 164.488,578.3495 C164.012,578.117167 163.485,578.001 162.907,578.001 C162.329,578.001 161.802,578.117167 161.326,578.3495 C160.85,578.581833 160.444833,578.933167 160.1105,579.4035 C159.776167,579.873833 159.5155,580.454667 159.3285,581.146 C159.1415,581.837333 159.048,582.642 159.048,583.56 C159.048,584.478 159.1415,585.288333 159.3285,585.991 C159.5155,586.693667 159.776167,587.283 160.1105,587.759 C160.444833,588.235 160.85,588.594833 161.326,588.8385 C161.802,589.082167 162.329,589.204 162.907,589.204 Z M162.907,587.266 C162.703,587.266 162.510333,587.212167 162.329,587.1045 C162.147667,586.996833 161.989,586.801333 161.853,586.518 C161.717,586.234667 161.609333,585.855 161.53,585.379 C161.450667,584.903 161.411,584.296667 161.411,583.56 C161.411,582.823333 161.450667,582.219833 161.53,581.7495 C161.609333,581.279167 161.717,580.910833 161.853,580.6445 C161.989,580.378167 162.147667,580.194 162.329,580.092 C162.510333,579.99 162.703,579.939 162.907,579.939 C163.122333,579.939 163.320667,579.99 163.502,580.092 C163.683333,580.194 163.842,580.378167 163.978,580.6445 C164.114,580.910833 164.218833,581.279167 164.2925,581.7495 C164.366167,582.219833 164.403,582.823333 164.403,583.56 C164.403,584.296667 164.366167,584.903 164.2925,585.379 C164.218833,585.855 164.114,586.234667 163.978,586.518 C163.842,586.801333 163.683333,586.996833 163.502,587.1045 C163.320667,587.212167 163.122333,587.266 162.907,587.266 Z M170.999,589 L170.999,583.305 C171.520333,582.761 171.996333,582.489 172.427,582.489 C172.789667,582.489 173.053167,582.602333 173.2175,582.829 C173.381833,583.055667 173.464,583.475 173.464,584.087 L173.464,584.087 L173.464,589 L175.963,589 L175.963,583.305 C176.507,582.761 176.988667,582.489 177.408,582.489 C177.770667,582.489 178.034167,582.602333 178.1985,582.829 C178.362833,583.055667 178.445,583.475 178.445,584.087 L178.445,584.087 L178.445,589 L180.944,589 L180.944,583.764 C180.944,582.71 180.7315,581.879833 180.3065,581.2735 C179.8815,580.667167 179.215667,580.364 178.309,580.364 C177.742333,580.364 177.252167,580.502833 176.8385,580.7805 C176.424833,581.058167 176.031,581.389667 175.657,581.775 C175.441667,581.321667 175.149833,580.973167 174.7815,580.7295 C174.413167,580.485833 173.928667,580.364 173.328,580.364 C172.772667,580.364 172.296667,580.4915 171.9,580.7465 C171.503333,581.0015 171.129333,581.304667 170.778,581.656 L170.778,581.656 L170.71,581.656 L170.54,580.568 L168.5,580.568 L168.5,589 L170.999,589 Z M185.568,589 L185.568,583.305 C186.089333,582.761 186.565333,582.489 186.996,582.489 C187.358667,582.489 187.622167,582.602333 187.7865,582.829 C187.950833,583.055667 188.033,583.475 188.033,584.087 L188.033,584.087 L188.033,589 L190.532,589 L190.532,583.305 C191.076,582.761 191.557667,582.489 191.977,582.489 C192.339667,582.489 192.603167,582.602333 192.7675,582.829 C192.931833,583.055667 193.014,583.475 193.014,584.087 L193.014,584.087 L193.014,589 L195.513,589 L195.513,583.764 C195.513,582.71 195.3005,581.879833 194.8755,581.2735 C194.4505,580.667167 193.784667,580.364 192.878,580.364 C192.311333,580.364 191.821167,580.502833 191.4075,580.7805 C190.993833,581.058167 190.6,581.389667 190.226,581.775 C190.010667,581.321667 189.718833,580.973167 189.3505,580.7295 C188.982167,580.485833 188.497667,580.364 187.897,580.364 C187.341667,580.364 186.865667,580.4915 186.469,580.7465 C186.072333,581.0015 185.698333,581.304667 185.347,581.656 L185.347,581.656 L185.279,581.656 L185.109,580.568 L183.069,580.568 L183.069,589 L185.568,589 Z" id="250mm" fill="#093169" fill-rule="nonzero"></path>
        <path d="M413.695,52 L413.695,49.892 L411.519,49.892 C411.258333,49.892 410.960833,49.9061667 410.6265,49.9345 C410.292167,49.9628333 409.989,49.994 409.717,50.028 C410.159,49.5746667 410.586833,49.1128333 411.0005,48.6425 C411.414167,48.1721667 411.7825,47.7018333 412.1055,47.2315 C412.4285,46.7611667 412.686333,46.2908333 412.879,45.8205 C413.071667,45.3501667 413.168,44.8883333 413.168,44.435 C413.168,43.9136667 413.083,43.4433333 412.913,43.024 C412.743,42.6046667 412.499333,42.2448333 412.182,41.9445 C411.864667,41.6441667 411.487833,41.4118333 411.0515,41.2475 C410.615167,41.0831667 410.130667,41.001 409.598,41.001 C408.827333,41.001 408.164333,41.1455 407.609,41.4345 C407.053667,41.7235 406.509667,42.1513333 405.977,42.718 L405.977,42.718 L407.337,44.061 C407.609,43.7663333 407.898,43.5085 408.204,43.2875 C408.51,43.0665 408.861333,42.956 409.258,42.956 C409.734,42.956 410.108,43.0948333 410.38,43.3725 C410.652,43.6501667 410.788,44.0553333 410.788,44.588 C410.788,44.9733333 410.671833,45.3785 410.4395,45.8035 C410.207167,46.2285 409.884167,46.6875 409.4705,47.1805 C409.056833,47.6735 408.563833,48.2005 407.9915,48.7615 C407.419167,49.3225 406.787333,49.926 406.096,50.572 L406.096,50.572 L406.096,52 L413.695,52 Z M418.642,52.204 C419.163333,52.204 419.664833,52.119 420.1465,51.949 C420.628167,51.779 421.050333,51.5325 421.413,51.2095 C421.775667,50.8865 422.064667,50.4926667 422.28,50.028 C422.495333,49.5633333 422.603,49.0306667 422.603,48.43 C422.603,47.852 422.512333,47.3533333 422.331,46.934 C422.149667,46.5146667 421.900333,46.169 421.583,45.897 C421.265667,45.625 420.900167,45.421 420.4865,45.285 C420.072833,45.149 419.633667,45.081 419.169,45.081 C418.942333,45.081 418.7355,45.1008333 418.5485,45.1405 C418.3615,45.1801667 418.166,45.2453333 417.962,45.336 L417.962,45.336 L418.149,43.313 L422.11,43.313 L422.11,41.205 L415.99,41.205 L415.684,46.662 L416.806,47.376 C416.964667,47.274 417.109167,47.189 417.2395,47.121 C417.369833,47.053 417.4945,46.9963333 417.6135,46.951 C417.7325,46.9056667 417.854333,46.8745 417.979,46.8575 C418.103667,46.8405 418.245333,46.832 418.404,46.832 C418.914,46.832 419.324833,46.9736667 419.6365,47.257 C419.948167,47.5403333 420.104,47.954 420.104,48.498 C420.104,49.0533333 419.939667,49.4726667 419.611,49.756 C419.282333,50.0393333 418.840333,50.181 418.285,50.181 C417.820333,50.181 417.398167,50.0761667 417.0185,49.8665 C416.638833,49.6568333 416.284667,49.4046667 415.956,49.11 L415.956,49.11 L414.834,50.691 C415.264667,51.1216667 415.786,51.4815 416.398,51.7705 C417.01,52.0595 417.758,52.204 418.642,52.204 Z M427.907,52.204 C428.485,52.204 429.012,52.0821667 429.488,51.8385 C429.964,51.5948333 430.369167,51.235 430.7035,50.759 C431.037833,50.283 431.2985,49.6936667 431.4855,48.991 C431.6725,48.2883333 431.766,47.478 431.766,46.56 C431.766,45.642 431.6725,44.8373333 431.4855,44.146 C431.2985,43.4546667 431.037833,42.8738333 430.7035,42.4035 C430.369167,41.9331667 429.964,41.5818333 429.488,41.3495 C429.012,41.1171667 428.485,41.001 427.907,41.001 C427.329,41.001 426.802,41.1171667 426.326,41.3495 C425.85,41.5818333 425.444833,41.9331667 425.1105,42.4035 C424.776167,42.8738333 424.5155,43.4546667 424.3285,44.146 C424.1415,44.8373333 424.048,45.642 424.048,46.56 C424.048,47.478 424.1415,48.2883333 424.3285,48.991 C424.5155,49.6936667 424.776167,50.283 425.1105,50.759 C425.444833,51.235 425.85,51.5948333 426.326,51.8385 C426.802,52.0821667 427.329,52.204 427.907,52.204 Z M427.907,50.266 C427.703,50.266 427.510333,50.2121667 427.329,50.1045 C427.147667,49.9968333 426.989,49.8013333 426.853,49.518 C426.717,49.2346667 426.609333,48.855 426.53,48.379 C426.450667,47.903 426.411,47.2966667 426.411,46.56 C426.411,45.8233333 426.450667,45.2198333 426.53,44.7495 C426.609333,44.2791667 426.717,43.9108333 426.853,43.6445 C426.989,43.3781667 427.147667,43.194 427.329,43.092 C427.510333,42.99 427.703,42.939 427.907,42.939 C428.122333,42.939 428.320667,42.99 428.502,43.092 C428.683333,43.194 428.842,43.3781667 428.978,43.6445 C429.114,43.9108333 429.218833,44.2791667 429.2925,44.7495 C429.366167,45.2198333 429.403,45.8233333 429.403,46.56 C429.403,47.2966667 429.366167,47.903 429.2925,48.379 C429.218833,48.855 429.114,49.2346667 428.978,49.518 C428.842,49.8013333 428.683333,49.9968333 428.502,50.1045 C428.320667,50.2121667 428.122333,50.266 427.907,50.266 Z M435.999,52 L435.999,46.305 C436.520333,45.761 436.996333,45.489 437.427,45.489 C437.789667,45.489 438.053167,45.6023333 438.2175,45.829 C438.381833,46.0556667 438.464,46.475 438.464,47.087 L438.464,47.087 L438.464,52 L440.963,52 L440.963,46.305 C441.507,45.761 441.988667,45.489 442.408,45.489 C442.770667,45.489 443.034167,45.6023333 443.1985,45.829 C443.362833,46.0556667 443.445,46.475 443.445,47.087 L443.445,47.087 L443.445,52 L445.944,52 L445.944,46.764 C445.944,45.71 445.7315,44.8798333 445.3065,44.2735 C444.8815,43.6671667 444.215667,43.364 443.309,43.364 C442.742333,43.364 442.252167,43.5028333 441.8385,43.7805 C441.424833,44.0581667 441.031,44.3896667 440.657,44.775 C440.441667,44.3216667 440.149833,43.9731667 439.7815,43.7295 C439.413167,43.4858333 438.928667,43.364 438.328,43.364 C437.772667,43.364 437.296667,43.4915 436.9,43.7465 C436.503333,44.0015 436.129333,44.3046667 435.778,44.656 L435.778,44.656 L435.71,44.656 L435.54,43.568 L433.5,43.568 L433.5,52 L435.999,52 Z M450.568,52 L450.568,46.305 C451.089333,45.761 451.565333,45.489 451.996,45.489 C452.358667,45.489 452.622167,45.6023333 452.7865,45.829 C452.950833,46.0556667 453.033,46.475 453.033,47.087 L453.033,47.087 L453.033,52 L455.532,52 L455.532,46.305 C456.076,45.761 456.557667,45.489 456.977,45.489 C457.339667,45.489 457.603167,45.6023333 457.7675,45.829 C457.931833,46.0556667 458.014,46.475 458.014,47.087 L458.014,47.087 L458.014,52 L460.513,52 L460.513,46.764 C460.513,45.71 460.3005,44.8798333 459.8755,44.2735 C459.4505,43.6671667 458.784667,43.364 457.878,43.364 C457.311333,43.364 456.821167,43.5028333 456.4075,43.7805 C455.993833,44.0581667 455.6,44.3896667 455.226,44.775 C455.010667,44.3216667 454.718833,43.9731667 454.3505,43.7295 C453.982167,43.4858333 453.497667,43.364 452.897,43.364 C452.341667,43.364 451.865667,43.4915 451.469,43.7465 C451.072333,44.0015 450.698333,44.3046667 450.347,44.656 L450.347,44.656 L450.279,44.656 L450.109,43.568 L448.069,43.568 L448.069,52 L450.568,52 Z" id="250mm" fill="#093169" fill-rule="nonzero"></path>
        <path d="M30.525,265 L30.525,262.977 L28.502,262.977 L28.502,254.205 L26.666,254.205 C26.2806667,254.431667 25.884,254.624333 25.476,254.783 C25.068,254.941667 24.5693333,255.077667 23.98,255.191 L23.98,255.191 L23.98,256.738 L26.003,256.738 L26.003,262.977 L23.657,262.977 L23.657,265 L30.525,265 Z M35.931,265.204 C36.509,265.204 37.036,265.082167 37.512,264.8385 C37.988,264.594833 38.3931667,264.235 38.7275,263.759 C39.0618333,263.283 39.3225,262.693667 39.5095,261.991 C39.6965,261.288333 39.79,260.478 39.79,259.56 C39.79,258.642 39.6965,257.837333 39.5095,257.146 C39.3225,256.454667 39.0618333,255.873833 38.7275,255.4035 C38.3931667,254.933167 37.988,254.581833 37.512,254.3495 C37.036,254.117167 36.509,254.001 35.931,254.001 C35.353,254.001 34.826,254.117167 34.35,254.3495 C33.874,254.581833 33.4688333,254.933167 33.1345,255.4035 C32.8001667,255.873833 32.5395,256.454667 32.3525,257.146 C32.1655,257.837333 32.072,258.642 32.072,259.56 C32.072,260.478 32.1655,261.288333 32.3525,261.991 C32.5395,262.693667 32.8001667,263.283 33.1345,263.759 C33.4688333,264.235 33.874,264.594833 34.35,264.8385 C34.826,265.082167 35.353,265.204 35.931,265.204 Z M35.931,263.266 C35.727,263.266 35.5343333,263.212167 35.353,263.1045 C35.1716667,262.996833 35.013,262.801333 34.877,262.518 C34.741,262.234667 34.6333333,261.855 34.554,261.379 C34.4746667,260.903 34.435,260.296667 34.435,259.56 C34.435,258.823333 34.4746667,258.219833 34.554,257.7495 C34.6333333,257.279167 34.741,256.910833 34.877,256.6445 C35.013,256.378167 35.1716667,256.194 35.353,256.092 C35.5343333,255.99 35.727,255.939 35.931,255.939 C36.1463333,255.939 36.3446667,255.99 36.526,256.092 C36.7073333,256.194 36.866,256.378167 37.002,256.6445 C37.138,256.910833 37.2428333,257.279167 37.3165,257.7495 C37.3901667,258.219833 37.427,258.823333 37.427,259.56 C37.427,260.296667 37.3901667,260.903 37.3165,261.379 C37.2428333,261.855 37.138,262.234667 37.002,262.518 C36.866,262.801333 36.7073333,262.996833 36.526,263.1045 C36.3446667,263.212167 36.1463333,263.266 35.931,263.266 Z M44.907,265.204 C45.485,265.204 46.012,265.082167 46.488,264.8385 C46.964,264.594833 47.3691667,264.235 47.7035,263.759 C48.0378333,263.283 48.2985,262.693667 48.4855,261.991 C48.6725,261.288333 48.766,260.478 48.766,259.56 C48.766,258.642 48.6725,257.837333 48.4855,257.146 C48.2985,256.454667 48.0378333,255.873833 47.7035,255.4035 C47.3691667,254.933167 46.964,254.581833 46.488,254.3495 C46.012,254.117167 45.485,254.001 44.907,254.001 C44.329,254.001 43.802,254.117167 43.326,254.3495 C42.85,254.581833 42.4448333,254.933167 42.1105,255.4035 C41.7761667,255.873833 41.5155,256.454667 41.3285,257.146 C41.1415,257.837333 41.048,258.642 41.048,259.56 C41.048,260.478 41.1415,261.288333 41.3285,261.991 C41.5155,262.693667 41.7761667,263.283 42.1105,263.759 C42.4448333,264.235 42.85,264.594833 43.326,264.8385 C43.802,265.082167 44.329,265.204 44.907,265.204 Z M44.907,263.266 C44.703,263.266 44.5103333,263.212167 44.329,263.1045 C44.1476667,262.996833 43.989,262.801333 43.853,262.518 C43.717,262.234667 43.6093333,261.855 43.53,261.379 C43.4506667,260.903 43.411,260.296667 43.411,259.56 C43.411,258.823333 43.4506667,258.219833 43.53,257.7495 C43.6093333,257.279167 43.717,256.910833 43.853,256.6445 C43.989,256.378167 44.1476667,256.194 44.329,256.092 C44.5103333,255.99 44.703,255.939 44.907,255.939 C45.1223333,255.939 45.3206667,255.99 45.502,256.092 C45.6833333,256.194 45.842,256.378167 45.978,256.6445 C46.114,256.910833 46.2188333,257.279167 46.2925,257.7495 C46.3661667,258.219833 46.403,258.823333 46.403,259.56 C46.403,260.296667 46.3661667,260.903 46.2925,261.379 C46.2188333,261.855 46.114,262.234667 45.978,262.518 C45.842,262.801333 45.6833333,262.996833 45.502,263.1045 C45.3206667,263.212167 45.1223333,263.266 44.907,263.266 Z M52.999,265 L52.999,259.305 C53.5203333,258.761 53.9963333,258.489 54.427,258.489 C54.7896667,258.489 55.0531667,258.602333 55.2175,258.829 C55.3818333,259.055667 55.464,259.475 55.464,260.087 L55.464,260.087 L55.464,265 L57.963,265 L57.963,259.305 C58.507,258.761 58.9886667,258.489 59.408,258.489 C59.7706667,258.489 60.0341667,258.602333 60.1985,258.829 C60.3628333,259.055667 60.445,259.475 60.445,260.087 L60.445,260.087 L60.445,265 L62.944,265 L62.944,259.764 C62.944,258.71 62.7315,257.879833 62.3065,257.2735 C61.8815,256.667167 61.2156667,256.364 60.309,256.364 C59.7423333,256.364 59.2521667,256.502833 58.8385,256.7805 C58.4248333,257.058167 58.031,257.389667 57.657,257.775 C57.4416667,257.321667 57.1498333,256.973167 56.7815,256.7295 C56.4131667,256.485833 55.9286667,256.364 55.328,256.364 C54.7726667,256.364 54.2966667,256.4915 53.9,256.7465 C53.5033333,257.0015 53.1293333,257.304667 52.778,257.656 L52.778,257.656 L52.71,257.656 L52.54,256.568 L50.5,256.568 L50.5,265 L52.999,265 Z M67.568,265 L67.568,259.305 C68.0893333,258.761 68.5653333,258.489 68.996,258.489 C69.3586667,258.489 69.6221667,258.602333 69.7865,258.829 C69.9508333,259.055667 70.033,259.475 70.033,260.087 L70.033,260.087 L70.033,265 L72.532,265 L72.532,259.305 C73.076,258.761 73.5576667,258.489 73.977,258.489 C74.3396667,258.489 74.6031667,258.602333 74.7675,258.829 C74.9318333,259.055667 75.014,259.475 75.014,260.087 L75.014,260.087 L75.014,265 L77.513,265 L77.513,259.764 C77.513,258.71 77.3005,257.879833 76.8755,257.2735 C76.4505,256.667167 75.7846667,256.364 74.878,256.364 C74.3113333,256.364 73.8211667,256.502833 73.4075,256.7805 C72.9938333,257.058167 72.6,257.389667 72.226,257.775 C72.0106667,257.321667 71.7188333,256.973167 71.3505,256.7295 C70.9821667,256.485833 70.4976667,256.364 69.897,256.364 C69.3416667,256.364 68.8656667,256.4915 68.469,256.7465 C68.0723333,257.0015 67.6983333,257.304667 67.347,257.656 L67.347,257.656 L67.279,257.656 L67.109,256.568 L65.069,256.568 L65.069,265 L67.568,265 Z" id="100mm" fill="#093169" fill-rule="nonzero" transform="translate(50.585000, 259.602500) rotate(-90.000000) translate(-50.585000, -259.602500) "></path>
        <path d="M267.674,269 C267.719333,267.946 267.787333,267.013833 267.878,266.2035 C267.968667,265.393167 268.118833,264.633833 268.3285,263.9255 C268.538167,263.217167 268.832833,262.5315 269.2125,261.8685 C269.592167,261.2055 270.093667,260.494333 270.717,259.735 L270.717,259.735 L270.717,258.205 L263.203,258.205 L263.203,260.313 L268.048,260.313 C267.538,261.015667 267.110167,261.695667 266.7645,262.353 C266.418833,263.010333 266.1355,263.681833 265.9145,264.3675 C265.6935,265.053167 265.5235,265.772833 265.4045,266.5265 C265.2855,267.280167 265.203333,268.104667 265.158,269 L265.158,269 L267.674,269 Z M275.63,269.204 C276.151333,269.204 276.652833,269.119 277.1345,268.949 C277.616167,268.779 278.038333,268.5325 278.401,268.2095 C278.763667,267.8865 279.052667,267.492667 279.268,267.028 C279.483333,266.563333 279.591,266.030667 279.591,265.43 C279.591,264.852 279.500333,264.353333 279.319,263.934 C279.137667,263.514667 278.888333,263.169 278.571,262.897 C278.253667,262.625 277.888167,262.421 277.4745,262.285 C277.060833,262.149 276.621667,262.081 276.157,262.081 C275.930333,262.081 275.7235,262.100833 275.5365,262.1405 C275.3495,262.180167 275.154,262.245333 274.95,262.336 L274.95,262.336 L275.137,260.313 L279.098,260.313 L279.098,258.205 L272.978,258.205 L272.672,263.662 L273.794,264.376 C273.952667,264.274 274.097167,264.189 274.2275,264.121 C274.357833,264.053 274.4825,263.996333 274.6015,263.951 C274.7205,263.905667 274.842333,263.8745 274.967,263.8575 C275.091667,263.8405 275.233333,263.832 275.392,263.832 C275.902,263.832 276.312833,263.973667 276.6245,264.257 C276.936167,264.540333 277.092,264.954 277.092,265.498 C277.092,266.053333 276.927667,266.472667 276.599,266.756 C276.270333,267.039333 275.828333,267.181 275.273,267.181 C274.808333,267.181 274.386167,267.076167 274.0065,266.8665 C273.626833,266.656833 273.272667,266.404667 272.944,266.11 L272.944,266.11 L271.822,267.691 C272.252667,268.121667 272.774,268.4815 273.386,268.7705 C273.998,269.0595 274.746,269.204 275.63,269.204 Z M284.011,269 L284.011,263.305 C284.532333,262.761 285.008333,262.489 285.439,262.489 C285.801667,262.489 286.065167,262.602333 286.2295,262.829 C286.393833,263.055667 286.476,263.475 286.476,264.087 L286.476,264.087 L286.476,269 L288.975,269 L288.975,263.305 C289.519,262.761 290.000667,262.489 290.42,262.489 C290.782667,262.489 291.046167,262.602333 291.2105,262.829 C291.374833,263.055667 291.457,263.475 291.457,264.087 L291.457,264.087 L291.457,269 L293.956,269 L293.956,263.764 C293.956,262.71 293.7435,261.879833 293.3185,261.2735 C292.8935,260.667167 292.227667,260.364 291.321,260.364 C290.754333,260.364 290.264167,260.502833 289.8505,260.7805 C289.436833,261.058167 289.043,261.389667 288.669,261.775 C288.453667,261.321667 288.161833,260.973167 287.7935,260.7295 C287.425167,260.485833 286.940667,260.364 286.34,260.364 C285.784667,260.364 285.308667,260.4915 284.912,260.7465 C284.515333,261.0015 284.141333,261.304667 283.79,261.656 L283.79,261.656 L283.722,261.656 L283.552,260.568 L281.512,260.568 L281.512,269 L284.011,269 Z M298.58,269 L298.58,263.305 C299.101333,262.761 299.577333,262.489 300.008,262.489 C300.370667,262.489 300.634167,262.602333 300.7985,262.829 C300.962833,263.055667 301.045,263.475 301.045,264.087 L301.045,264.087 L301.045,269 L303.544,269 L303.544,263.305 C304.088,262.761 304.569667,262.489 304.989,262.489 C305.351667,262.489 305.615167,262.602333 305.7795,262.829 C305.943833,263.055667 306.026,263.475 306.026,264.087 L306.026,264.087 L306.026,269 L308.525,269 L308.525,263.764 C308.525,262.71 308.3125,261.879833 307.8875,261.2735 C307.4625,260.667167 306.796667,260.364 305.89,260.364 C305.323333,260.364 304.833167,260.502833 304.4195,260.7805 C304.005833,261.058167 303.612,261.389667 303.238,261.775 C303.022667,261.321667 302.730833,260.973167 302.3625,260.7295 C301.994167,260.485833 301.509667,260.364 300.909,260.364 C300.353667,260.364 299.877667,260.4915 299.481,260.7465 C299.084333,261.0015 298.710333,261.304667 298.359,261.656 L298.359,261.656 L298.291,261.656 L298.121,260.568 L296.081,260.568 L296.081,269 L298.58,269 Z" id="75mm" fill="#093169" fill-rule="nonzero" transform="translate(285.864000, 263.704500) rotate(-270.000000) translate(-285.864000, -263.704500) "></path>
        <g id="Group-14" transform="translate(106.000000, 492.000000)" fill="#FFFFFF" stroke="#CBD8F2">
            <path d="M115,2 C118.865993,2 122,5.13400675 122,9 L2,9 L2,9 C2,5.21454828 5.00478338,2.13090132 8.75935025,2.00405902 L9,2 L115,2 Z" id="Combined-Shape"></path>
            <rect id="Rectangle" x="0" y="9" width="124" height="26"></rect>
            <rect id="Rectangle" x="9" y="0" width="106" height="2"></rect>
            <path d="M97,0 L97,2 C100.865993,2 104,5.13400675 104,9 L124,9 L124,35 L0,35 L0,9 L20,9 L20,9 C20,5.21454828 23.0047834,2.13090132 26.7593502,2.00405902 L27,2 L27,0 L97,0 Z" id="Combined-Shape"></path>
        </g>
        <rect id="Rectangle" stroke="#CBD8F2" fill="#FFFFFF" x="149" y="492" width="38" height="35"></rect>
        <rect id="Rectangle" stroke="#CBD8F2" x="149" y="241" width="38" height="35"></rect>
    </g>
</svg>