<?xml version="1.0" encoding="UTF-8"?>
<svg width="600px" height="407px" viewBox="0 0 600 407" version="1.1" xmlns="http://www.w3.org/2000/svg" xmlns:xlink="http://www.w3.org/1999/xlink">
    <title>balustrading/SB2-pier</title>
    <g id="balustrading/SB2-pier" stroke="none" stroke-width="1" fill="none" fill-rule="evenodd">
        <rect fill="#F5F9FF" x="0" y="0" width="600" height="407"></rect>
        <g id="Group-5" transform="translate(238.000000, 35.000000)" fill="#FFFFFF" stroke="#CBD8F2">
            <rect id="Rectangle" transform="translate(62.000000, 235.000000) scale(1, -1) translate(-62.000000, -235.000000) " x="9" y="234" width="106" height="2"></rect>
            <path d="M115,236 C118.313708,236 121,238.686292 121,242 C121,245.313708 118.313708,248 115,248 C112.027285,248 109.559504,245.838123 109.083094,243.000807 L14.9169061,243.000807 C14.4404956,245.838123 11.9727145,248 9,248 C5.6862915,248 3,245.313708 3,242 C3,238.686292 5.6862915,236 9,236 L9,236 Z" id="Combined-Shape"></path>
            <rect id="Rectangle" x="0" y="243" width="124" height="26"></rect>
            <g id="Group" transform="translate(14.000000, 46.000000)">
                <rect id="Rectangle" x="0" y="0" width="96" height="186"></rect>
                <path d="M61,17 C61,26.3888407 68.6111593,34 78,34 L78,152 L78,152 C68.6111593,152 61,159.611159 61,169 L35,169 L35,169 C35,159.611159 27.3888407,152 18,152 L18,34 L18,34 C27.3888407,34 35,26.3888407 35,17 L61,17 L61,17 Z" id="Combined-Shape"></path>
                <path d="M59,19 C59,28.3888407 66.6111593,36 76,36 L76,150 L76,150 C66.6114923,150 59.00054,157.610619 59,166.999001 L37,166.999 L36.9969921,166.67696 C36.824796,157.437196 29.280923,150 20,150 L20,36 L20,36 C29.3888407,36 37,28.3888407 37,19 L59,19 L59,19 Z" id="Combined-Shape"></path>
            </g>
            <g id="Group-3">
                <rect id="Rectangle" x="0" y="9" width="124" height="35"></rect>
                <polygon id="Rectangle" transform="translate(62.000000, 4.500000) scale(1, -1) translate(-62.000000, -4.500000) " points="0 0 124 0 62 9"></polygon>
            </g>
        </g>
        <polyline id="Rectangle-Copy-2" stroke="#CBD8F2" transform="translate(216.000000, 174.500000) rotate(-90.000000) translate(-216.000000, -174.500000) " points="123 182 123 167 309 167 309 182"></polyline>
        <polyline id="Rectangle-Copy-2" stroke="#CBD8F2" transform="translate(216.000000, 57.500000) rotate(-90.000000) translate(-216.000000, -57.500000) " points="194 65 194 50 238 50 238 65"></polyline>
        <polyline id="Rectangle-Copy-2" stroke="#CBD8F2" transform="translate(216.000000, 286.500000) rotate(-90.000000) translate(-216.000000, -286.500000) " points="198.5 294 198.5 279 233.5 279 233.5 294"></polyline>
        <polyline id="Rectangle-Copy-2" stroke="#CBD8F2" transform="translate(300.000000, 327.500000) rotate(-180.000000) translate(-300.000000, -327.500000) " points="238.206667 335 238 320 362 320 362 335"></polyline>
        <path d="M277.598,367.204 C278.142,367.204 278.657667,367.133167 279.145,366.9915 C279.632333,366.849833 280.057333,366.645833 280.42,366.3795 C280.782667,366.113167 281.071667,365.7845 281.287,365.3935 C281.502333,365.0025 281.61,364.557667 281.61,364.059 C281.61,363.356333 281.408833,362.786833 281.0065,362.3505 C280.604167,361.914167 280.091333,361.605333 279.468,361.424 L279.468,361.424 L279.468,361.356 C280.046,361.106667 280.490833,360.7865 280.8025,360.3955 C281.114167,360.0045 281.27,359.525667 281.27,358.959 C281.27,358.483 281.179333,358.063667 280.998,357.701 C280.816667,357.338333 280.5645,357.0295 280.2415,356.7745 C279.9185,356.5195 279.5275,356.326833 279.0685,356.1965 C278.6095,356.066167 278.102333,356.001 277.547,356.001 C276.878333,356.001 276.269167,356.122833 275.7195,356.3665 C275.169833,356.610167 274.645667,356.947333 274.147,357.378 L274.147,357.378 L275.405,358.908 C275.745,358.613333 276.070833,358.381 276.3825,358.211 C276.694167,358.041 277.042667,357.956 277.428,357.956 C277.858667,357.956 278.187333,358.060833 278.414,358.2705 C278.640667,358.480167 278.754,358.772 278.754,359.146 C278.754,359.361333 278.7115,359.556833 278.6265,359.7325 C278.5415,359.908167 278.399833,360.061167 278.2015,360.1915 C278.003167,360.321833 277.7425,360.421 277.4195,360.489 C277.0965,360.557 276.691333,360.591 276.204,360.591 L276.204,360.591 L276.204,362.359 C276.793333,362.359 277.275,362.395833 277.649,362.4695 C278.023,362.543167 278.317667,362.645167 278.533,362.7755 C278.748333,362.905833 278.8985,363.067333 278.9835,363.26 C279.0685,363.452667 279.111,363.668 279.111,363.906 C279.111,364.314 278.952333,364.6285 278.635,364.8495 C278.317667,365.0705 277.892667,365.181 277.36,365.181 C276.895333,365.181 276.4675,365.079 276.0765,364.875 C275.6855,364.671 275.325667,364.410333 274.997,364.093 L274.997,364.093 L273.841,365.674 C274.237667,366.138667 274.742,366.509833 275.354,366.7875 C275.966,367.065167 276.714,367.204 277.598,367.204 Z M286.642,367.204 C287.163333,367.204 287.664833,367.119 288.1465,366.949 C288.628167,366.779 289.050333,366.5325 289.413,366.2095 C289.775667,365.8865 290.064667,365.492667 290.28,365.028 C290.495333,364.563333 290.603,364.030667 290.603,363.43 C290.603,362.852 290.512333,362.353333 290.331,361.934 C290.149667,361.514667 289.900333,361.169 289.583,360.897 C289.265667,360.625 288.900167,360.421 288.4865,360.285 C288.072833,360.149 287.633667,360.081 287.169,360.081 C286.942333,360.081 286.7355,360.100833 286.5485,360.1405 C286.3615,360.180167 286.166,360.245333 285.962,360.336 L285.962,360.336 L286.149,358.313 L290.11,358.313 L290.11,356.205 L283.99,356.205 L283.684,361.662 L284.806,362.376 C284.964667,362.274 285.109167,362.189 285.2395,362.121 C285.369833,362.053 285.4945,361.996333 285.6135,361.951 C285.7325,361.905667 285.854333,361.8745 285.979,361.8575 C286.103667,361.8405 286.245333,361.832 286.404,361.832 C286.914,361.832 287.324833,361.973667 287.6365,362.257 C287.948167,362.540333 288.104,362.954 288.104,363.498 C288.104,364.053333 287.939667,364.472667 287.611,364.756 C287.282333,365.039333 286.840333,365.181 286.285,365.181 C285.820333,365.181 285.398167,365.076167 285.0185,364.8665 C284.638833,364.656833 284.284667,364.404667 283.956,364.11 L283.956,364.11 L282.834,365.691 C283.264667,366.121667 283.786,366.4815 284.398,366.7705 C285.01,367.0595 285.758,367.204 286.642,367.204 Z M295.618,367.204 C296.139333,367.204 296.640833,367.119 297.1225,366.949 C297.604167,366.779 298.026333,366.5325 298.389,366.2095 C298.751667,365.8865 299.040667,365.492667 299.256,365.028 C299.471333,364.563333 299.579,364.030667 299.579,363.43 C299.579,362.852 299.488333,362.353333 299.307,361.934 C299.125667,361.514667 298.876333,361.169 298.559,360.897 C298.241667,360.625 297.876167,360.421 297.4625,360.285 C297.048833,360.149 296.609667,360.081 296.145,360.081 C295.918333,360.081 295.7115,360.100833 295.5245,360.1405 C295.3375,360.180167 295.142,360.245333 294.938,360.336 L294.938,360.336 L295.125,358.313 L299.086,358.313 L299.086,356.205 L292.966,356.205 L292.66,361.662 L293.782,362.376 C293.940667,362.274 294.085167,362.189 294.2155,362.121 C294.345833,362.053 294.4705,361.996333 294.5895,361.951 C294.7085,361.905667 294.830333,361.8745 294.955,361.8575 C295.079667,361.8405 295.221333,361.832 295.38,361.832 C295.89,361.832 296.300833,361.973667 296.6125,362.257 C296.924167,362.540333 297.08,362.954 297.08,363.498 C297.08,364.053333 296.915667,364.472667 296.587,364.756 C296.258333,365.039333 295.816333,365.181 295.261,365.181 C294.796333,365.181 294.374167,365.076167 293.9945,364.8665 C293.614833,364.656833 293.260667,364.404667 292.932,364.11 L292.932,364.11 L291.81,365.691 C292.240667,366.121667 292.762,366.4815 293.374,366.7705 C293.986,367.0595 294.734,367.204 295.618,367.204 Z M303.999,367 L303.999,361.305 C304.520333,360.761 304.996333,360.489 305.427,360.489 C305.789667,360.489 306.053167,360.602333 306.2175,360.829 C306.381833,361.055667 306.464,361.475 306.464,362.087 L306.464,362.087 L306.464,367 L308.963,367 L308.963,361.305 C309.507,360.761 309.988667,360.489 310.408,360.489 C310.770667,360.489 311.034167,360.602333 311.1985,360.829 C311.362833,361.055667 311.445,361.475 311.445,362.087 L311.445,362.087 L311.445,367 L313.944,367 L313.944,361.764 C313.944,360.71 313.7315,359.879833 313.3065,359.2735 C312.8815,358.667167 312.215667,358.364 311.309,358.364 C310.742333,358.364 310.252167,358.502833 309.8385,358.7805 C309.424833,359.058167 309.031,359.389667 308.657,359.775 C308.441667,359.321667 308.149833,358.973167 307.7815,358.7295 C307.413167,358.485833 306.928667,358.364 306.328,358.364 C305.772667,358.364 305.296667,358.4915 304.9,358.7465 C304.503333,359.0015 304.129333,359.304667 303.778,359.656 L303.778,359.656 L303.71,359.656 L303.54,358.568 L301.5,358.568 L301.5,367 L303.999,367 Z M318.568,367 L318.568,361.305 C319.089333,360.761 319.565333,360.489 319.996,360.489 C320.358667,360.489 320.622167,360.602333 320.7865,360.829 C320.950833,361.055667 321.033,361.475 321.033,362.087 L321.033,362.087 L321.033,367 L323.532,367 L323.532,361.305 C324.076,360.761 324.557667,360.489 324.977,360.489 C325.339667,360.489 325.603167,360.602333 325.7675,360.829 C325.931833,361.055667 326.014,361.475 326.014,362.087 L326.014,362.087 L326.014,367 L328.513,367 L328.513,361.764 C328.513,360.71 328.3005,359.879833 327.8755,359.2735 C327.4505,358.667167 326.784667,358.364 325.878,358.364 C325.311333,358.364 324.821167,358.502833 324.4075,358.7805 C323.993833,359.058167 323.6,359.389667 323.226,359.775 C323.010667,359.321667 322.718833,358.973167 322.3505,358.7295 C321.982167,358.485833 321.497667,358.364 320.897,358.364 C320.341667,358.364 319.865667,358.4915 319.469,358.7465 C319.072333,359.0015 318.698333,359.304667 318.347,359.656 L318.347,359.656 L318.279,359.656 L318.109,358.568 L316.069,358.568 L316.069,367 L318.568,367 Z" id="355mm" fill="#093169" fill-rule="nonzero"></path>
        <path d="M158.666,180.204 C159.187333,180.204 159.688833,180.119 160.1705,179.949 C160.652167,179.779 161.074333,179.5325 161.437,179.2095 C161.799667,178.8865 162.088667,178.492667 162.304,178.028 C162.519333,177.563333 162.627,177.030667 162.627,176.43 C162.627,175.852 162.536333,175.353333 162.355,174.934 C162.173667,174.514667 161.924333,174.169 161.607,173.897 C161.289667,173.625 160.924167,173.421 160.5105,173.285 C160.096833,173.149 159.657667,173.081 159.193,173.081 C158.966333,173.081 158.7595,173.100833 158.5725,173.1405 C158.3855,173.180167 158.19,173.245333 157.986,173.336 L157.986,173.336 L158.173,171.313 L162.134,171.313 L162.134,169.205 L156.014,169.205 L155.708,174.662 L156.83,175.376 C156.988667,175.274 157.133167,175.189 157.2635,175.121 C157.393833,175.053 157.5185,174.996333 157.6375,174.951 C157.7565,174.905667 157.878333,174.8745 158.003,174.8575 C158.127667,174.8405 158.269333,174.832 158.428,174.832 C158.938,174.832 159.348833,174.973667 159.6605,175.257 C159.972167,175.540333 160.128,175.954 160.128,176.498 C160.128,177.053333 159.963667,177.472667 159.635,177.756 C159.306333,178.039333 158.864333,178.181 158.309,178.181 C157.844333,178.181 157.422167,178.076167 157.0425,177.8665 C156.662833,177.656833 156.308667,177.404667 155.98,177.11 L155.98,177.11 L154.858,178.691 C155.288667,179.121667 155.81,179.4815 156.422,179.7705 C157.034,180.0595 157.782,180.204 158.666,180.204 Z M167.574,180.204 C168.118,180.204 168.633667,180.133167 169.121,179.9915 C169.608333,179.849833 170.033333,179.645833 170.396,179.3795 C170.758667,179.113167 171.047667,178.7845 171.263,178.3935 C171.478333,178.0025 171.586,177.557667 171.586,177.059 C171.586,176.356333 171.384833,175.786833 170.9825,175.3505 C170.580167,174.914167 170.067333,174.605333 169.444,174.424 L169.444,174.424 L169.444,174.356 C170.022,174.106667 170.466833,173.7865 170.7785,173.3955 C171.090167,173.0045 171.246,172.525667 171.246,171.959 C171.246,171.483 171.155333,171.063667 170.974,170.701 C170.792667,170.338333 170.5405,170.0295 170.2175,169.7745 C169.8945,169.5195 169.5035,169.326833 169.0445,169.1965 C168.5855,169.066167 168.078333,169.001 167.523,169.001 C166.854333,169.001 166.245167,169.122833 165.6955,169.3665 C165.145833,169.610167 164.621667,169.947333 164.123,170.378 L164.123,170.378 L165.381,171.908 C165.721,171.613333 166.046833,171.381 166.3585,171.211 C166.670167,171.041 167.018667,170.956 167.404,170.956 C167.834667,170.956 168.163333,171.060833 168.39,171.2705 C168.616667,171.480167 168.73,171.772 168.73,172.146 C168.73,172.361333 168.6875,172.556833 168.6025,172.7325 C168.5175,172.908167 168.375833,173.061167 168.1775,173.1915 C167.979167,173.321833 167.7185,173.421 167.3955,173.489 C167.0725,173.557 166.667333,173.591 166.18,173.591 L166.18,173.591 L166.18,175.359 C166.769333,175.359 167.251,175.395833 167.625,175.4695 C167.999,175.543167 168.293667,175.645167 168.509,175.7755 C168.724333,175.905833 168.8745,176.067333 168.9595,176.26 C169.0445,176.452667 169.087,176.668 169.087,176.906 C169.087,177.314 168.928333,177.6285 168.611,177.8495 C168.293667,178.0705 167.868667,178.181 167.336,178.181 C166.871333,178.181 166.4435,178.079 166.0525,177.875 C165.6615,177.671 165.301667,177.410333 164.973,177.093 L164.973,177.093 L163.817,178.674 C164.213667,179.138667 164.718,179.509833 165.33,179.7875 C165.942,180.065167 166.69,180.204 167.574,180.204 Z M176.55,180.204 C177.094,180.204 177.609667,180.133167 178.097,179.9915 C178.584333,179.849833 179.009333,179.645833 179.372,179.3795 C179.734667,179.113167 180.023667,178.7845 180.239,178.3935 C180.454333,178.0025 180.562,177.557667 180.562,177.059 C180.562,176.356333 180.360833,175.786833 179.9585,175.3505 C179.556167,174.914167 179.043333,174.605333 178.42,174.424 L178.42,174.424 L178.42,174.356 C178.998,174.106667 179.442833,173.7865 179.7545,173.3955 C180.066167,173.0045 180.222,172.525667 180.222,171.959 C180.222,171.483 180.131333,171.063667 179.95,170.701 C179.768667,170.338333 179.5165,170.0295 179.1935,169.7745 C178.8705,169.5195 178.4795,169.326833 178.0205,169.1965 C177.5615,169.066167 177.054333,169.001 176.499,169.001 C175.830333,169.001 175.221167,169.122833 174.6715,169.3665 C174.121833,169.610167 173.597667,169.947333 173.099,170.378 L173.099,170.378 L174.357,171.908 C174.697,171.613333 175.022833,171.381 175.3345,171.211 C175.646167,171.041 175.994667,170.956 176.38,170.956 C176.810667,170.956 177.139333,171.060833 177.366,171.2705 C177.592667,171.480167 177.706,171.772 177.706,172.146 C177.706,172.361333 177.6635,172.556833 177.5785,172.7325 C177.4935,172.908167 177.351833,173.061167 177.1535,173.1915 C176.955167,173.321833 176.6945,173.421 176.3715,173.489 C176.0485,173.557 175.643333,173.591 175.156,173.591 L175.156,173.591 L175.156,175.359 C175.745333,175.359 176.227,175.395833 176.601,175.4695 C176.975,175.543167 177.269667,175.645167 177.485,175.7755 C177.700333,175.905833 177.8505,176.067333 177.9355,176.26 C178.0205,176.452667 178.063,176.668 178.063,176.906 C178.063,177.314 177.904333,177.6285 177.587,177.8495 C177.269667,178.0705 176.844667,178.181 176.312,178.181 C175.847333,178.181 175.4195,178.079 175.0285,177.875 C174.6375,177.671 174.277667,177.410333 173.949,177.093 L173.949,177.093 L172.793,178.674 C173.189667,179.138667 173.694,179.509833 174.306,179.7875 C174.918,180.065167 175.666,180.204 176.55,180.204 Z M184.999,180 L184.999,174.305 C185.520333,173.761 185.996333,173.489 186.427,173.489 C186.789667,173.489 187.053167,173.602333 187.2175,173.829 C187.381833,174.055667 187.464,174.475 187.464,175.087 L187.464,175.087 L187.464,180 L189.963,180 L189.963,174.305 C190.507,173.761 190.988667,173.489 191.408,173.489 C191.770667,173.489 192.034167,173.602333 192.1985,173.829 C192.362833,174.055667 192.445,174.475 192.445,175.087 L192.445,175.087 L192.445,180 L194.944,180 L194.944,174.764 C194.944,173.71 194.7315,172.879833 194.3065,172.2735 C193.8815,171.667167 193.215667,171.364 192.309,171.364 C191.742333,171.364 191.252167,171.502833 190.8385,171.7805 C190.424833,172.058167 190.031,172.389667 189.657,172.775 C189.441667,172.321667 189.149833,171.973167 188.7815,171.7295 C188.413167,171.485833 187.928667,171.364 187.328,171.364 C186.772667,171.364 186.296667,171.4915 185.9,171.7465 C185.503333,172.0015 185.129333,172.304667 184.778,172.656 L184.778,172.656 L184.71,172.656 L184.54,171.568 L182.5,171.568 L182.5,180 L184.999,180 Z M199.568,180 L199.568,174.305 C200.089333,173.761 200.565333,173.489 200.996,173.489 C201.358667,173.489 201.622167,173.602333 201.7865,173.829 C201.950833,174.055667 202.033,174.475 202.033,175.087 L202.033,175.087 L202.033,180 L204.532,180 L204.532,174.305 C205.076,173.761 205.557667,173.489 205.977,173.489 C206.339667,173.489 206.603167,173.602333 206.7675,173.829 C206.931833,174.055667 207.014,174.475 207.014,175.087 L207.014,175.087 L207.014,180 L209.513,180 L209.513,174.764 C209.513,173.71 209.3005,172.879833 208.8755,172.2735 C208.4505,171.667167 207.784667,171.364 206.878,171.364 C206.311333,171.364 205.821167,171.502833 205.4075,171.7805 C204.993833,172.058167 204.6,172.389667 204.226,172.775 C204.010667,172.321667 203.718833,171.973167 203.3505,171.7295 C202.982167,171.485833 202.497667,171.364 201.897,171.364 C201.341667,171.364 200.865667,171.4915 200.469,171.7465 C200.072333,172.0015 199.698333,172.304667 199.347,172.656 L199.347,172.656 L199.279,172.656 L199.109,171.568 L197.069,171.568 L197.069,180 L199.568,180 Z" id="533mm" fill="#093169" fill-rule="nonzero" transform="translate(182.185500, 174.602500) rotate(-90.000000) translate(-182.185500, -174.602500) "></path>
        <path d="M162.525,293 L162.525,290.977 L160.502,290.977 L160.502,282.205 L158.666,282.205 C158.280667,282.431667 157.884,282.624333 157.476,282.783 C157.068,282.941667 156.569333,283.077667 155.98,283.191 L155.98,283.191 L155.98,284.738 L158.003,284.738 L158.003,290.977 L155.657,290.977 L155.657,293 L162.525,293 Z M167.931,293.204 C168.509,293.204 169.036,293.082167 169.512,292.8385 C169.988,292.594833 170.393167,292.235 170.7275,291.759 C171.061833,291.283 171.3225,290.693667 171.5095,289.991 C171.6965,289.288333 171.79,288.478 171.79,287.56 C171.79,286.642 171.6965,285.837333 171.5095,285.146 C171.3225,284.454667 171.061833,283.873833 170.7275,283.4035 C170.393167,282.933167 169.988,282.581833 169.512,282.3495 C169.036,282.117167 168.509,282.001 167.931,282.001 C167.353,282.001 166.826,282.117167 166.35,282.3495 C165.874,282.581833 165.468833,282.933167 165.1345,283.4035 C164.800167,283.873833 164.5395,284.454667 164.3525,285.146 C164.1655,285.837333 164.072,286.642 164.072,287.56 C164.072,288.478 164.1655,289.288333 164.3525,289.991 C164.5395,290.693667 164.800167,291.283 165.1345,291.759 C165.468833,292.235 165.874,292.594833 166.35,292.8385 C166.826,293.082167 167.353,293.204 167.931,293.204 Z M167.931,291.266 C167.727,291.266 167.534333,291.212167 167.353,291.1045 C167.171667,290.996833 167.013,290.801333 166.877,290.518 C166.741,290.234667 166.633333,289.855 166.554,289.379 C166.474667,288.903 166.435,288.296667 166.435,287.56 C166.435,286.823333 166.474667,286.219833 166.554,285.7495 C166.633333,285.279167 166.741,284.910833 166.877,284.6445 C167.013,284.378167 167.171667,284.194 167.353,284.092 C167.534333,283.99 167.727,283.939 167.931,283.939 C168.146333,283.939 168.344667,283.99 168.526,284.092 C168.707333,284.194 168.866,284.378167 169.002,284.6445 C169.138,284.910833 169.242833,285.279167 169.3165,285.7495 C169.390167,286.219833 169.427,286.823333 169.427,287.56 C169.427,288.296667 169.390167,288.903 169.3165,289.379 C169.242833,289.855 169.138,290.234667 169.002,290.518 C168.866,290.801333 168.707333,290.996833 168.526,291.1045 C168.344667,291.212167 168.146333,291.266 167.931,291.266 Z M176.907,293.204 C177.485,293.204 178.012,293.082167 178.488,292.8385 C178.964,292.594833 179.369167,292.235 179.7035,291.759 C180.037833,291.283 180.2985,290.693667 180.4855,289.991 C180.6725,289.288333 180.766,288.478 180.766,287.56 C180.766,286.642 180.6725,285.837333 180.4855,285.146 C180.2985,284.454667 180.037833,283.873833 179.7035,283.4035 C179.369167,282.933167 178.964,282.581833 178.488,282.3495 C178.012,282.117167 177.485,282.001 176.907,282.001 C176.329,282.001 175.802,282.117167 175.326,282.3495 C174.85,282.581833 174.444833,282.933167 174.1105,283.4035 C173.776167,283.873833 173.5155,284.454667 173.3285,285.146 C173.1415,285.837333 173.048,286.642 173.048,287.56 C173.048,288.478 173.1415,289.288333 173.3285,289.991 C173.5155,290.693667 173.776167,291.283 174.1105,291.759 C174.444833,292.235 174.85,292.594833 175.326,292.8385 C175.802,293.082167 176.329,293.204 176.907,293.204 Z M176.907,291.266 C176.703,291.266 176.510333,291.212167 176.329,291.1045 C176.147667,290.996833 175.989,290.801333 175.853,290.518 C175.717,290.234667 175.609333,289.855 175.53,289.379 C175.450667,288.903 175.411,288.296667 175.411,287.56 C175.411,286.823333 175.450667,286.219833 175.53,285.7495 C175.609333,285.279167 175.717,284.910833 175.853,284.6445 C175.989,284.378167 176.147667,284.194 176.329,284.092 C176.510333,283.99 176.703,283.939 176.907,283.939 C177.122333,283.939 177.320667,283.99 177.502,284.092 C177.683333,284.194 177.842,284.378167 177.978,284.6445 C178.114,284.910833 178.218833,285.279167 178.2925,285.7495 C178.366167,286.219833 178.403,286.823333 178.403,287.56 C178.403,288.296667 178.366167,288.903 178.2925,289.379 C178.218833,289.855 178.114,290.234667 177.978,290.518 C177.842,290.801333 177.683333,290.996833 177.502,291.1045 C177.320667,291.212167 177.122333,291.266 176.907,291.266 Z M184.999,293 L184.999,287.305 C185.520333,286.761 185.996333,286.489 186.427,286.489 C186.789667,286.489 187.053167,286.602333 187.2175,286.829 C187.381833,287.055667 187.464,287.475 187.464,288.087 L187.464,288.087 L187.464,293 L189.963,293 L189.963,287.305 C190.507,286.761 190.988667,286.489 191.408,286.489 C191.770667,286.489 192.034167,286.602333 192.1985,286.829 C192.362833,287.055667 192.445,287.475 192.445,288.087 L192.445,288.087 L192.445,293 L194.944,293 L194.944,287.764 C194.944,286.71 194.7315,285.879833 194.3065,285.2735 C193.8815,284.667167 193.215667,284.364 192.309,284.364 C191.742333,284.364 191.252167,284.502833 190.8385,284.7805 C190.424833,285.058167 190.031,285.389667 189.657,285.775 C189.441667,285.321667 189.149833,284.973167 188.7815,284.7295 C188.413167,284.485833 187.928667,284.364 187.328,284.364 C186.772667,284.364 186.296667,284.4915 185.9,284.7465 C185.503333,285.0015 185.129333,285.304667 184.778,285.656 L184.778,285.656 L184.71,285.656 L184.54,284.568 L182.5,284.568 L182.5,293 L184.999,293 Z M199.568,293 L199.568,287.305 C200.089333,286.761 200.565333,286.489 200.996,286.489 C201.358667,286.489 201.622167,286.602333 201.7865,286.829 C201.950833,287.055667 202.033,287.475 202.033,288.087 L202.033,288.087 L202.033,293 L204.532,293 L204.532,287.305 C205.076,286.761 205.557667,286.489 205.977,286.489 C206.339667,286.489 206.603167,286.602333 206.7675,286.829 C206.931833,287.055667 207.014,287.475 207.014,288.087 L207.014,288.087 L207.014,293 L209.513,293 L209.513,287.764 C209.513,286.71 209.3005,285.879833 208.8755,285.2735 C208.4505,284.667167 207.784667,284.364 206.878,284.364 C206.311333,284.364 205.821167,284.502833 205.4075,284.7805 C204.993833,285.058167 204.6,285.389667 204.226,285.775 C204.010667,285.321667 203.718833,284.973167 203.3505,284.7295 C202.982167,284.485833 202.497667,284.364 201.897,284.364 C201.341667,284.364 200.865667,284.4915 200.469,284.7465 C200.072333,285.0015 199.698333,285.304667 199.347,285.656 L199.347,285.656 L199.279,285.656 L199.109,284.568 L197.069,284.568 L197.069,293 L199.568,293 Z" id="100mm" fill="#093169" fill-rule="nonzero" transform="translate(182.585000, 287.602500) rotate(-90.000000) translate(-182.585000, -287.602500) "></path>
        <path d="M162.525,63 L162.525,60.977 L160.502,60.977 L160.502,52.205 L158.666,52.205 C158.280667,52.4316667 157.884,52.6243333 157.476,52.783 C157.068,52.9416667 156.569333,53.0776667 155.98,53.191 L155.98,53.191 L155.98,54.738 L158.003,54.738 L158.003,60.977 L155.657,60.977 L155.657,63 L162.525,63 Z M171.671,63 L171.671,60.892 L169.495,60.892 C169.234333,60.892 168.936833,60.9061667 168.6025,60.9345 C168.268167,60.9628333 167.965,60.994 167.693,61.028 C168.135,60.5746667 168.562833,60.1128333 168.9765,59.6425 C169.390167,59.1721667 169.7585,58.7018333 170.0815,58.2315 C170.4045,57.7611667 170.662333,57.2908333 170.855,56.8205 C171.047667,56.3501667 171.144,55.8883333 171.144,55.435 C171.144,54.9136667 171.059,54.4433333 170.889,54.024 C170.719,53.6046667 170.475333,53.2448333 170.158,52.9445 C169.840667,52.6441667 169.463833,52.4118333 169.0275,52.2475 C168.591167,52.0831667 168.106667,52.001 167.574,52.001 C166.803333,52.001 166.140333,52.1455 165.585,52.4345 C165.029667,52.7235 164.485667,53.1513333 163.953,53.718 L163.953,53.718 L165.313,55.061 C165.585,54.7663333 165.874,54.5085 166.18,54.2875 C166.486,54.0665 166.837333,53.956 167.234,53.956 C167.71,53.956 168.084,54.0948333 168.356,54.3725 C168.628,54.6501667 168.764,55.0553333 168.764,55.588 C168.764,55.9733333 168.647833,56.3785 168.4155,56.8035 C168.183167,57.2285 167.860167,57.6875 167.4465,58.1805 C167.032833,58.6735 166.539833,59.2005 165.9675,59.7615 C165.395167,60.3225 164.763333,60.926 164.072,61.572 L164.072,61.572 L164.072,63 L171.671,63 Z M176.618,63.204 C177.139333,63.204 177.640833,63.119 178.1225,62.949 C178.604167,62.779 179.026333,62.5325 179.389,62.2095 C179.751667,61.8865 180.040667,61.4926667 180.256,61.028 C180.471333,60.5633333 180.579,60.0306667 180.579,59.43 C180.579,58.852 180.488333,58.3533333 180.307,57.934 C180.125667,57.5146667 179.876333,57.169 179.559,56.897 C179.241667,56.625 178.876167,56.421 178.4625,56.285 C178.048833,56.149 177.609667,56.081 177.145,56.081 C176.918333,56.081 176.7115,56.1008333 176.5245,56.1405 C176.3375,56.1801667 176.142,56.2453333 175.938,56.336 L175.938,56.336 L176.125,54.313 L180.086,54.313 L180.086,52.205 L173.966,52.205 L173.66,57.662 L174.782,58.376 C174.940667,58.274 175.085167,58.189 175.2155,58.121 C175.345833,58.053 175.4705,57.9963333 175.5895,57.951 C175.7085,57.9056667 175.830333,57.8745 175.955,57.8575 C176.079667,57.8405 176.221333,57.832 176.38,57.832 C176.89,57.832 177.300833,57.9736667 177.6125,58.257 C177.924167,58.5403333 178.08,58.954 178.08,59.498 C178.08,60.0533333 177.915667,60.4726667 177.587,60.756 C177.258333,61.0393333 176.816333,61.181 176.261,61.181 C175.796333,61.181 175.374167,61.0761667 174.9945,60.8665 C174.614833,60.6568333 174.260667,60.4046667 173.932,60.11 L173.932,60.11 L172.81,61.691 C173.240667,62.1216667 173.762,62.4815 174.374,62.7705 C174.986,63.0595 175.734,63.204 176.618,63.204 Z M184.999,63 L184.999,57.305 C185.520333,56.761 185.996333,56.489 186.427,56.489 C186.789667,56.489 187.053167,56.6023333 187.2175,56.829 C187.381833,57.0556667 187.464,57.475 187.464,58.087 L187.464,58.087 L187.464,63 L189.963,63 L189.963,57.305 C190.507,56.761 190.988667,56.489 191.408,56.489 C191.770667,56.489 192.034167,56.6023333 192.1985,56.829 C192.362833,57.0556667 192.445,57.475 192.445,58.087 L192.445,58.087 L192.445,63 L194.944,63 L194.944,57.764 C194.944,56.71 194.7315,55.8798333 194.3065,55.2735 C193.8815,54.6671667 193.215667,54.364 192.309,54.364 C191.742333,54.364 191.252167,54.5028333 190.8385,54.7805 C190.424833,55.0581667 190.031,55.3896667 189.657,55.775 C189.441667,55.3216667 189.149833,54.9731667 188.7815,54.7295 C188.413167,54.4858333 187.928667,54.364 187.328,54.364 C186.772667,54.364 186.296667,54.4915 185.9,54.7465 C185.503333,55.0015 185.129333,55.3046667 184.778,55.656 L184.778,55.656 L184.71,55.656 L184.54,54.568 L182.5,54.568 L182.5,63 L184.999,63 Z M199.568,63 L199.568,57.305 C200.089333,56.761 200.565333,56.489 200.996,56.489 C201.358667,56.489 201.622167,56.6023333 201.7865,56.829 C201.950833,57.0556667 202.033,57.475 202.033,58.087 L202.033,58.087 L202.033,63 L204.532,63 L204.532,57.305 C205.076,56.761 205.557667,56.489 205.977,56.489 C206.339667,56.489 206.603167,56.6023333 206.7675,56.829 C206.931833,57.0556667 207.014,57.475 207.014,58.087 L207.014,58.087 L207.014,63 L209.513,63 L209.513,57.764 C209.513,56.71 209.3005,55.8798333 208.8755,55.2735 C208.4505,54.6671667 207.784667,54.364 206.878,54.364 C206.311333,54.364 205.821167,54.5028333 205.4075,54.7805 C204.993833,55.0581667 204.6,55.3896667 204.226,55.775 C204.010667,55.3216667 203.718833,54.9731667 203.3505,54.7295 C202.982167,54.4858333 202.497667,54.364 201.897,54.364 C201.341667,54.364 200.865667,54.4915 200.469,54.7465 C200.072333,55.0015 199.698333,55.3046667 199.347,55.656 L199.347,55.656 L199.279,55.656 L199.109,54.568 L197.069,54.568 L197.069,63 L199.568,63 Z" id="125mm" fill="#093169" fill-rule="nonzero" transform="translate(182.585000, 57.602500) rotate(-90.000000) translate(-182.585000, -57.602500) "></path>
    </g>
</svg>