<?xml version="1.0" encoding="UTF-8"?>
<svg width="600px" height="450px" viewBox="0 0 600 450" version="1.1" xmlns="http://www.w3.org/2000/svg" xmlns:xlink="http://www.w3.org/1999/xlink">
    <title>balustrading/SB3-pier</title>
    <g id="balustrading/SB3-pier" stroke="none" stroke-width="1" fill="none" fill-rule="evenodd">
        <rect fill="#F5F9FF" x="0" y="0" width="600" height="450"></rect>
        <g id="Group-6" transform="translate(238.000000, 35.000000)" fill="#FFFFFF" stroke="#CBD8F2">
            <rect id="Rectangle" transform="translate(62.000000, 279.000000) scale(1, -1) translate(-62.000000, -279.000000) " x="9" y="278" width="106" height="2"></rect>
            <path d="M115,280 C118.313708,280 121,282.686292 121,286 C121,289.313708 118.313708,292 115,292 C112.027285,292 109.559504,289.838123 109.083094,287.000807 L14.9169061,287.000807 C14.4404956,289.838123 11.9727145,292 9,292 C5.6862915,292 3,289.313708 3,286 C3,282.686292 5.6862915,280 9,280 L9,280 Z" id="Combined-Shape"></path>
            <rect id="Rectangle" x="0" y="287" width="124" height="26"></rect>
            <g id="Group-2" transform="translate(14.000000, 46.000000)">
                <rect id="Rectangle" x="0" y="0" width="96" height="230"></rect>
                <path d="M61,17 C61,26.3888407 68.6111593,34 78,34 L78,196 L78,196 C68.6111593,196 61,203.611159 61,213 L35,213 L35,213 C35,203.611159 27.3888407,196 18,196 L18,34 L18,34 C27.3888407,34 35,26.3888407 35,17 L61,17 L61,17 Z" id="Combined-Shape"></path>
                <path d="M59,19 C59,28.3888407 66.6111593,36 76,36 L76,194 L76,194 C66.6111593,194 59,201.611159 59,211 L37,211 L37,211 C37,201.611159 29.3888407,194 20,194 L20,36 L20,36 C29.3888407,36 37,28.3888407 37,19 L59,19 L59,19 Z" id="Combined-Shape"></path>
            </g>
            <g id="Group-4">
                <rect id="Rectangle" x="0" y="9" width="124" height="35"></rect>
                <polygon id="Rectangle" transform="translate(62.000000, 4.500000) scale(1, -1) translate(-62.000000, -4.500000) " points="0 0 124 0 62 9"></polygon>
            </g>
        </g>
        <polyline id="Rectangle-Copy-2" stroke="#CBD8F2" transform="translate(215.500000, 196.500000) rotate(-90.000000) translate(-215.500000, -196.500000) " points="100.5 204 100.5 189 330.5 189 330.5 204"></polyline>
        <polyline id="Rectangle-Copy-2" stroke="#CBD8F2" transform="translate(215.500000, 57.500000) rotate(-90.000000) translate(-215.500000, -57.500000) " points="193.5 65 193.5 50 237.5 50 237.5 65"></polyline>
        <polyline id="Rectangle-Copy-2" stroke="#CBD8F2" transform="translate(215.500000, 330.500000) rotate(-90.000000) translate(-215.500000, -330.500000) " points="198 338 198 323 233 323 233 338"></polyline>
        <polyline id="Rectangle-Copy-2" stroke="#CBD8F2" transform="translate(300.000000, 370.500000) rotate(-180.000000) translate(-300.000000, -370.500000) " points="238.206667 378 238 363 362 363 362 378"></polyline>
        <path d="M276.598,410.204 C277.142,410.204 277.657667,410.133167 278.145,409.9915 C278.632333,409.849833 279.057333,409.645833 279.42,409.3795 C279.782667,409.113167 280.071667,408.7845 280.287,408.3935 C280.502333,408.0025 280.61,407.557667 280.61,407.059 C280.61,406.356333 280.408833,405.786833 280.0065,405.3505 C279.604167,404.914167 279.091333,404.605333 278.468,404.424 L278.468,404.424 L278.468,404.356 C279.046,404.106667 279.490833,403.7865 279.8025,403.3955 C280.114167,403.0045 280.27,402.525667 280.27,401.959 C280.27,401.483 280.179333,401.063667 279.998,400.701 C279.816667,400.338333 279.5645,400.0295 279.2415,399.7745 C278.9185,399.5195 278.5275,399.326833 278.0685,399.1965 C277.6095,399.066167 277.102333,399.001 276.547,399.001 C275.878333,399.001 275.269167,399.122833 274.7195,399.3665 C274.169833,399.610167 273.645667,399.947333 273.147,400.378 L273.147,400.378 L274.405,401.908 C274.745,401.613333 275.070833,401.381 275.3825,401.211 C275.694167,401.041 276.042667,400.956 276.428,400.956 C276.858667,400.956 277.187333,401.060833 277.414,401.2705 C277.640667,401.480167 277.754,401.772 277.754,402.146 C277.754,402.361333 277.7115,402.556833 277.6265,402.7325 C277.5415,402.908167 277.399833,403.061167 277.2015,403.1915 C277.003167,403.321833 276.7425,403.421 276.4195,403.489 C276.0965,403.557 275.691333,403.591 275.204,403.591 L275.204,403.591 L275.204,405.359 C275.793333,405.359 276.275,405.395833 276.649,405.4695 C277.023,405.543167 277.317667,405.645167 277.533,405.7755 C277.748333,405.905833 277.8985,406.067333 277.9835,406.26 C278.0685,406.452667 278.111,406.668 278.111,406.906 C278.111,407.314 277.952333,407.6285 277.635,407.8495 C277.317667,408.0705 276.892667,408.181 276.36,408.181 C275.895333,408.181 275.4675,408.079 275.0765,407.875 C274.6855,407.671 274.325667,407.410333 273.997,407.093 L273.997,407.093 L272.841,408.674 C273.237667,409.138667 273.742,409.509833 274.354,409.7875 C274.966,410.065167 275.714,410.204 276.598,410.204 Z M285.642,410.204 C286.163333,410.204 286.664833,410.119 287.1465,409.949 C287.628167,409.779 288.050333,409.5325 288.413,409.2095 C288.775667,408.8865 289.064667,408.492667 289.28,408.028 C289.495333,407.563333 289.603,407.030667 289.603,406.43 C289.603,405.852 289.512333,405.353333 289.331,404.934 C289.149667,404.514667 288.900333,404.169 288.583,403.897 C288.265667,403.625 287.900167,403.421 287.4865,403.285 C287.072833,403.149 286.633667,403.081 286.169,403.081 C285.942333,403.081 285.7355,403.100833 285.5485,403.1405 C285.3615,403.180167 285.166,403.245333 284.962,403.336 L284.962,403.336 L285.149,401.313 L289.11,401.313 L289.11,399.205 L282.99,399.205 L282.684,404.662 L283.806,405.376 C283.964667,405.274 284.109167,405.189 284.2395,405.121 C284.369833,405.053 284.4945,404.996333 284.6135,404.951 C284.7325,404.905667 284.854333,404.8745 284.979,404.8575 C285.103667,404.8405 285.245333,404.832 285.404,404.832 C285.914,404.832 286.324833,404.973667 286.6365,405.257 C286.948167,405.540333 287.104,405.954 287.104,406.498 C287.104,407.053333 286.939667,407.472667 286.611,407.756 C286.282333,408.039333 285.840333,408.181 285.285,408.181 C284.820333,408.181 284.398167,408.076167 284.0185,407.8665 C283.638833,407.656833 283.284667,407.404667 282.956,407.11 L282.956,407.11 L281.834,408.691 C282.264667,409.121667 282.786,409.4815 283.398,409.7705 C284.01,410.0595 284.758,410.204 285.642,410.204 Z M294.618,410.204 C295.139333,410.204 295.640833,410.119 296.1225,409.949 C296.604167,409.779 297.026333,409.5325 297.389,409.2095 C297.751667,408.8865 298.040667,408.492667 298.256,408.028 C298.471333,407.563333 298.579,407.030667 298.579,406.43 C298.579,405.852 298.488333,405.353333 298.307,404.934 C298.125667,404.514667 297.876333,404.169 297.559,403.897 C297.241667,403.625 296.876167,403.421 296.4625,403.285 C296.048833,403.149 295.609667,403.081 295.145,403.081 C294.918333,403.081 294.7115,403.100833 294.5245,403.1405 C294.3375,403.180167 294.142,403.245333 293.938,403.336 L293.938,403.336 L294.125,401.313 L298.086,401.313 L298.086,399.205 L291.966,399.205 L291.66,404.662 L292.782,405.376 C292.940667,405.274 293.085167,405.189 293.2155,405.121 C293.345833,405.053 293.4705,404.996333 293.5895,404.951 C293.7085,404.905667 293.830333,404.8745 293.955,404.8575 C294.079667,404.8405 294.221333,404.832 294.38,404.832 C294.89,404.832 295.300833,404.973667 295.6125,405.257 C295.924167,405.540333 296.08,405.954 296.08,406.498 C296.08,407.053333 295.915667,407.472667 295.587,407.756 C295.258333,408.039333 294.816333,408.181 294.261,408.181 C293.796333,408.181 293.374167,408.076167 292.9945,407.8665 C292.614833,407.656833 292.260667,407.404667 291.932,407.11 L291.932,407.11 L290.81,408.691 C291.240667,409.121667 291.762,409.4815 292.374,409.7705 C292.986,410.0595 293.734,410.204 294.618,410.204 Z M302.999,410 L302.999,404.305 C303.520333,403.761 303.996333,403.489 304.427,403.489 C304.789667,403.489 305.053167,403.602333 305.2175,403.829 C305.381833,404.055667 305.464,404.475 305.464,405.087 L305.464,405.087 L305.464,410 L307.963,410 L307.963,404.305 C308.507,403.761 308.988667,403.489 309.408,403.489 C309.770667,403.489 310.034167,403.602333 310.1985,403.829 C310.362833,404.055667 310.445,404.475 310.445,405.087 L310.445,405.087 L310.445,410 L312.944,410 L312.944,404.764 C312.944,403.71 312.7315,402.879833 312.3065,402.2735 C311.8815,401.667167 311.215667,401.364 310.309,401.364 C309.742333,401.364 309.252167,401.502833 308.8385,401.7805 C308.424833,402.058167 308.031,402.389667 307.657,402.775 C307.441667,402.321667 307.149833,401.973167 306.7815,401.7295 C306.413167,401.485833 305.928667,401.364 305.328,401.364 C304.772667,401.364 304.296667,401.4915 303.9,401.7465 C303.503333,402.0015 303.129333,402.304667 302.778,402.656 L302.778,402.656 L302.71,402.656 L302.54,401.568 L300.5,401.568 L300.5,410 L302.999,410 Z M317.568,410 L317.568,404.305 C318.089333,403.761 318.565333,403.489 318.996,403.489 C319.358667,403.489 319.622167,403.602333 319.7865,403.829 C319.950833,404.055667 320.033,404.475 320.033,405.087 L320.033,405.087 L320.033,410 L322.532,410 L322.532,404.305 C323.076,403.761 323.557667,403.489 323.977,403.489 C324.339667,403.489 324.603167,403.602333 324.7675,403.829 C324.931833,404.055667 325.014,404.475 325.014,405.087 L325.014,405.087 L325.014,410 L327.513,410 L327.513,404.764 C327.513,403.71 327.3005,402.879833 326.8755,402.2735 C326.4505,401.667167 325.784667,401.364 324.878,401.364 C324.311333,401.364 323.821167,401.502833 323.4075,401.7805 C322.993833,402.058167 322.6,402.389667 322.226,402.775 C322.010667,402.321667 321.718833,401.973167 321.3505,401.7295 C320.982167,401.485833 320.497667,401.364 319.897,401.364 C319.341667,401.364 318.865667,401.4915 318.469,401.7465 C318.072333,402.0015 317.698333,402.304667 317.347,402.656 L317.347,402.656 L317.279,402.656 L317.109,401.568 L315.069,401.568 L315.069,410 L317.568,410 Z" id="355mm" fill="#093169" fill-rule="nonzero"></path>
        <path d="M162.025,337 L162.025,334.977 L160.002,334.977 L160.002,326.205 L158.166,326.205 C157.780667,326.431667 157.384,326.624333 156.976,326.783 C156.568,326.941667 156.069333,327.077667 155.48,327.191 L155.48,327.191 L155.48,328.738 L157.503,328.738 L157.503,334.977 L155.157,334.977 L155.157,337 L162.025,337 Z M167.431,337.204 C168.009,337.204 168.536,337.082167 169.012,336.8385 C169.488,336.594833 169.893167,336.235 170.2275,335.759 C170.561833,335.283 170.8225,334.693667 171.0095,333.991 C171.1965,333.288333 171.29,332.478 171.29,331.56 C171.29,330.642 171.1965,329.837333 171.0095,329.146 C170.8225,328.454667 170.561833,327.873833 170.2275,327.4035 C169.893167,326.933167 169.488,326.581833 169.012,326.3495 C168.536,326.117167 168.009,326.001 167.431,326.001 C166.853,326.001 166.326,326.117167 165.85,326.3495 C165.374,326.581833 164.968833,326.933167 164.6345,327.4035 C164.300167,327.873833 164.0395,328.454667 163.8525,329.146 C163.6655,329.837333 163.572,330.642 163.572,331.56 C163.572,332.478 163.6655,333.288333 163.8525,333.991 C164.0395,334.693667 164.300167,335.283 164.6345,335.759 C164.968833,336.235 165.374,336.594833 165.85,336.8385 C166.326,337.082167 166.853,337.204 167.431,337.204 Z M167.431,335.266 C167.227,335.266 167.034333,335.212167 166.853,335.1045 C166.671667,334.996833 166.513,334.801333 166.377,334.518 C166.241,334.234667 166.133333,333.855 166.054,333.379 C165.974667,332.903 165.935,332.296667 165.935,331.56 C165.935,330.823333 165.974667,330.219833 166.054,329.7495 C166.133333,329.279167 166.241,328.910833 166.377,328.6445 C166.513,328.378167 166.671667,328.194 166.853,328.092 C167.034333,327.99 167.227,327.939 167.431,327.939 C167.646333,327.939 167.844667,327.99 168.026,328.092 C168.207333,328.194 168.366,328.378167 168.502,328.6445 C168.638,328.910833 168.742833,329.279167 168.8165,329.7495 C168.890167,330.219833 168.927,330.823333 168.927,331.56 C168.927,332.296667 168.890167,332.903 168.8165,333.379 C168.742833,333.855 168.638,334.234667 168.502,334.518 C168.366,334.801333 168.207333,334.996833 168.026,335.1045 C167.844667,335.212167 167.646333,335.266 167.431,335.266 Z M176.407,337.204 C176.985,337.204 177.512,337.082167 177.988,336.8385 C178.464,336.594833 178.869167,336.235 179.2035,335.759 C179.537833,335.283 179.7985,334.693667 179.9855,333.991 C180.1725,333.288333 180.266,332.478 180.266,331.56 C180.266,330.642 180.1725,329.837333 179.9855,329.146 C179.7985,328.454667 179.537833,327.873833 179.2035,327.4035 C178.869167,326.933167 178.464,326.581833 177.988,326.3495 C177.512,326.117167 176.985,326.001 176.407,326.001 C175.829,326.001 175.302,326.117167 174.826,326.3495 C174.35,326.581833 173.944833,326.933167 173.6105,327.4035 C173.276167,327.873833 173.0155,328.454667 172.8285,329.146 C172.6415,329.837333 172.548,330.642 172.548,331.56 C172.548,332.478 172.6415,333.288333 172.8285,333.991 C173.0155,334.693667 173.276167,335.283 173.6105,335.759 C173.944833,336.235 174.35,336.594833 174.826,336.8385 C175.302,337.082167 175.829,337.204 176.407,337.204 Z M176.407,335.266 C176.203,335.266 176.010333,335.212167 175.829,335.1045 C175.647667,334.996833 175.489,334.801333 175.353,334.518 C175.217,334.234667 175.109333,333.855 175.03,333.379 C174.950667,332.903 174.911,332.296667 174.911,331.56 C174.911,330.823333 174.950667,330.219833 175.03,329.7495 C175.109333,329.279167 175.217,328.910833 175.353,328.6445 C175.489,328.378167 175.647667,328.194 175.829,328.092 C176.010333,327.99 176.203,327.939 176.407,327.939 C176.622333,327.939 176.820667,327.99 177.002,328.092 C177.183333,328.194 177.342,328.378167 177.478,328.6445 C177.614,328.910833 177.718833,329.279167 177.7925,329.7495 C177.866167,330.219833 177.903,330.823333 177.903,331.56 C177.903,332.296667 177.866167,332.903 177.7925,333.379 C177.718833,333.855 177.614,334.234667 177.478,334.518 C177.342,334.801333 177.183333,334.996833 177.002,335.1045 C176.820667,335.212167 176.622333,335.266 176.407,335.266 Z M184.499,337 L184.499,331.305 C185.020333,330.761 185.496333,330.489 185.927,330.489 C186.289667,330.489 186.553167,330.602333 186.7175,330.829 C186.881833,331.055667 186.964,331.475 186.964,332.087 L186.964,332.087 L186.964,337 L189.463,337 L189.463,331.305 C190.007,330.761 190.488667,330.489 190.908,330.489 C191.270667,330.489 191.534167,330.602333 191.6985,330.829 C191.862833,331.055667 191.945,331.475 191.945,332.087 L191.945,332.087 L191.945,337 L194.444,337 L194.444,331.764 C194.444,330.71 194.2315,329.879833 193.8065,329.2735 C193.3815,328.667167 192.715667,328.364 191.809,328.364 C191.242333,328.364 190.752167,328.502833 190.3385,328.7805 C189.924833,329.058167 189.531,329.389667 189.157,329.775 C188.941667,329.321667 188.649833,328.973167 188.2815,328.7295 C187.913167,328.485833 187.428667,328.364 186.828,328.364 C186.272667,328.364 185.796667,328.4915 185.4,328.7465 C185.003333,329.0015 184.629333,329.304667 184.278,329.656 L184.278,329.656 L184.21,329.656 L184.04,328.568 L182,328.568 L182,337 L184.499,337 Z M199.068,337 L199.068,331.305 C199.589333,330.761 200.065333,330.489 200.496,330.489 C200.858667,330.489 201.122167,330.602333 201.2865,330.829 C201.450833,331.055667 201.533,331.475 201.533,332.087 L201.533,332.087 L201.533,337 L204.032,337 L204.032,331.305 C204.576,330.761 205.057667,330.489 205.477,330.489 C205.839667,330.489 206.103167,330.602333 206.2675,330.829 C206.431833,331.055667 206.514,331.475 206.514,332.087 L206.514,332.087 L206.514,337 L209.013,337 L209.013,331.764 C209.013,330.71 208.8005,329.879833 208.3755,329.2735 C207.9505,328.667167 207.284667,328.364 206.378,328.364 C205.811333,328.364 205.321167,328.502833 204.9075,328.7805 C204.493833,329.058167 204.1,329.389667 203.726,329.775 C203.510667,329.321667 203.218833,328.973167 202.8505,328.7295 C202.482167,328.485833 201.997667,328.364 201.397,328.364 C200.841667,328.364 200.365667,328.4915 199.969,328.7465 C199.572333,329.0015 199.198333,329.304667 198.847,329.656 L198.847,329.656 L198.779,329.656 L198.609,328.568 L196.569,328.568 L196.569,337 L199.068,337 Z" id="100mm" fill="#093169" fill-rule="nonzero" transform="translate(182.085000, 331.602500) rotate(-90.000000) translate(-182.085000, -331.602500) "></path>
        <path d="M162.025,64 L162.025,61.977 L160.002,61.977 L160.002,53.205 L158.166,53.205 C157.780667,53.4316667 157.384,53.6243333 156.976,53.783 C156.568,53.9416667 156.069333,54.0776667 155.48,54.191 L155.48,54.191 L155.48,55.738 L157.503,55.738 L157.503,61.977 L155.157,61.977 L155.157,64 L162.025,64 Z M171.171,64 L171.171,61.892 L168.995,61.892 C168.734333,61.892 168.436833,61.9061667 168.1025,61.9345 C167.768167,61.9628333 167.465,61.994 167.193,62.028 C167.635,61.5746667 168.062833,61.1128333 168.4765,60.6425 C168.890167,60.1721667 169.2585,59.7018333 169.5815,59.2315 C169.9045,58.7611667 170.162333,58.2908333 170.355,57.8205 C170.547667,57.3501667 170.644,56.8883333 170.644,56.435 C170.644,55.9136667 170.559,55.4433333 170.389,55.024 C170.219,54.6046667 169.975333,54.2448333 169.658,53.9445 C169.340667,53.6441667 168.963833,53.4118333 168.5275,53.2475 C168.091167,53.0831667 167.606667,53.001 167.074,53.001 C166.303333,53.001 165.640333,53.1455 165.085,53.4345 C164.529667,53.7235 163.985667,54.1513333 163.453,54.718 L163.453,54.718 L164.813,56.061 C165.085,55.7663333 165.374,55.5085 165.68,55.2875 C165.986,55.0665 166.337333,54.956 166.734,54.956 C167.21,54.956 167.584,55.0948333 167.856,55.3725 C168.128,55.6501667 168.264,56.0553333 168.264,56.588 C168.264,56.9733333 168.147833,57.3785 167.9155,57.8035 C167.683167,58.2285 167.360167,58.6875 166.9465,59.1805 C166.532833,59.6735 166.039833,60.2005 165.4675,60.7615 C164.895167,61.3225 164.263333,61.926 163.572,62.572 L163.572,62.572 L163.572,64 L171.171,64 Z M176.118,64.204 C176.639333,64.204 177.140833,64.119 177.6225,63.949 C178.104167,63.779 178.526333,63.5325 178.889,63.2095 C179.251667,62.8865 179.540667,62.4926667 179.756,62.028 C179.971333,61.5633333 180.079,61.0306667 180.079,60.43 C180.079,59.852 179.988333,59.3533333 179.807,58.934 C179.625667,58.5146667 179.376333,58.169 179.059,57.897 C178.741667,57.625 178.376167,57.421 177.9625,57.285 C177.548833,57.149 177.109667,57.081 176.645,57.081 C176.418333,57.081 176.2115,57.1008333 176.0245,57.1405 C175.8375,57.1801667 175.642,57.2453333 175.438,57.336 L175.438,57.336 L175.625,55.313 L179.586,55.313 L179.586,53.205 L173.466,53.205 L173.16,58.662 L174.282,59.376 C174.440667,59.274 174.585167,59.189 174.7155,59.121 C174.845833,59.053 174.9705,58.9963333 175.0895,58.951 C175.2085,58.9056667 175.330333,58.8745 175.455,58.8575 C175.579667,58.8405 175.721333,58.832 175.88,58.832 C176.39,58.832 176.800833,58.9736667 177.1125,59.257 C177.424167,59.5403333 177.58,59.954 177.58,60.498 C177.58,61.0533333 177.415667,61.4726667 177.087,61.756 C176.758333,62.0393333 176.316333,62.181 175.761,62.181 C175.296333,62.181 174.874167,62.0761667 174.4945,61.8665 C174.114833,61.6568333 173.760667,61.4046667 173.432,61.11 L173.432,61.11 L172.31,62.691 C172.740667,63.1216667 173.262,63.4815 173.874,63.7705 C174.486,64.0595 175.234,64.204 176.118,64.204 Z M184.499,64 L184.499,58.305 C185.020333,57.761 185.496333,57.489 185.927,57.489 C186.289667,57.489 186.553167,57.6023333 186.7175,57.829 C186.881833,58.0556667 186.964,58.475 186.964,59.087 L186.964,59.087 L186.964,64 L189.463,64 L189.463,58.305 C190.007,57.761 190.488667,57.489 190.908,57.489 C191.270667,57.489 191.534167,57.6023333 191.6985,57.829 C191.862833,58.0556667 191.945,58.475 191.945,59.087 L191.945,59.087 L191.945,64 L194.444,64 L194.444,58.764 C194.444,57.71 194.2315,56.8798333 193.8065,56.2735 C193.3815,55.6671667 192.715667,55.364 191.809,55.364 C191.242333,55.364 190.752167,55.5028333 190.3385,55.7805 C189.924833,56.0581667 189.531,56.3896667 189.157,56.775 C188.941667,56.3216667 188.649833,55.9731667 188.2815,55.7295 C187.913167,55.4858333 187.428667,55.364 186.828,55.364 C186.272667,55.364 185.796667,55.4915 185.4,55.7465 C185.003333,56.0015 184.629333,56.3046667 184.278,56.656 L184.278,56.656 L184.21,56.656 L184.04,55.568 L182,55.568 L182,64 L184.499,64 Z M199.068,64 L199.068,58.305 C199.589333,57.761 200.065333,57.489 200.496,57.489 C200.858667,57.489 201.122167,57.6023333 201.2865,57.829 C201.450833,58.0556667 201.533,58.475 201.533,59.087 L201.533,59.087 L201.533,64 L204.032,64 L204.032,58.305 C204.576,57.761 205.057667,57.489 205.477,57.489 C205.839667,57.489 206.103167,57.6023333 206.2675,57.829 C206.431833,58.0556667 206.514,58.475 206.514,59.087 L206.514,59.087 L206.514,64 L209.013,64 L209.013,58.764 C209.013,57.71 208.8005,56.8798333 208.3755,56.2735 C207.9505,55.6671667 207.284667,55.364 206.378,55.364 C205.811333,55.364 205.321167,55.5028333 204.9075,55.7805 C204.493833,56.0581667 204.1,56.3896667 203.726,56.775 C203.510667,56.3216667 203.218833,55.9731667 202.8505,55.7295 C202.482167,55.4858333 201.997667,55.364 201.397,55.364 C200.841667,55.364 200.365667,55.4915 199.969,55.7465 C199.572333,56.0015 199.198333,56.3046667 198.847,56.656 L198.847,56.656 L198.779,56.656 L198.609,55.568 L196.569,55.568 L196.569,64 L199.068,64 Z" id="125mm" fill="#093169" fill-rule="nonzero" transform="translate(182.085000, 58.602500) rotate(-90.000000) translate(-182.085000, -58.602500) "></path>
        <path d="M158.744,198.204 C159.231333,198.204 159.693167,198.121833 160.1295,197.9575 C160.565833,197.793167 160.9455,197.552333 161.2685,197.235 C161.5915,196.917667 161.849333,196.538 162.042,196.096 C162.234667,195.654 162.331,195.149667 162.331,194.583 C162.331,194.016333 162.251667,193.523333 162.093,193.104 C161.934333,192.684667 161.7105,192.339 161.4215,192.067 C161.1325,191.795 160.7925,191.591 160.4015,191.455 C160.0105,191.319 159.582667,191.251 159.118,191.251 C158.948,191.251 158.766667,191.2765 158.574,191.3275 C158.381333,191.3785 158.188667,191.452167 157.996,191.5485 C157.803333,191.644833 157.616333,191.763833 157.435,191.9055 C157.253667,192.047167 157.095,192.208667 156.959,192.39 C156.981667,191.766667 157.055333,191.239667 157.18,190.809 C157.304667,190.378333 157.466167,190.029833 157.6645,189.7635 C157.862833,189.497167 158.092333,189.307333 158.353,189.194 C158.613667,189.080667 158.891333,189.024 159.186,189.024 C159.503333,189.024 159.815,189.1005 160.121,189.2535 C160.427,189.4065 160.676333,189.585 160.869,189.789 L160.869,189.789 L162.178,188.293 C161.838,187.941667 161.407333,187.6385 160.886,187.3835 C160.364667,187.1285 159.747,187.001 159.033,187.001 C158.466333,187.001 157.9195,187.117167 157.3925,187.3495 C156.8655,187.581833 156.400833,187.936 155.9985,188.412 C155.596167,188.888 155.273167,189.494333 155.0295,190.231 C154.785833,190.967667 154.664,191.840333 154.664,192.849 C154.664,193.801 154.777333,194.614167 155.004,195.2885 C155.230667,195.962833 155.533833,196.515333 155.9135,196.946 C156.293167,197.376667 156.7295,197.694 157.2225,197.898 C157.7155,198.102 158.222667,198.204 158.744,198.204 Z M158.693,196.334 C158.500333,196.334 158.316167,196.297167 158.1405,196.2235 C157.964833,196.149833 157.803333,196.025167 157.656,195.8495 C157.508667,195.673833 157.378333,195.444333 157.265,195.161 C157.151667,194.877667 157.066667,194.520667 157.01,194.09 C157.236667,193.704667 157.4945,193.429833 157.7835,193.2655 C158.0725,193.101167 158.358667,193.019 158.642,193.019 C159.05,193.019 159.387167,193.135167 159.6535,193.3675 C159.919833,193.599833 160.053,194.005 160.053,194.583 C160.053,195.195 159.919833,195.639833 159.6535,195.9175 C159.387167,196.195167 159.067,196.334 158.693,196.334 Z M167.72,198.204 C168.207333,198.204 168.669167,198.121833 169.1055,197.9575 C169.541833,197.793167 169.9215,197.552333 170.2445,197.235 C170.5675,196.917667 170.825333,196.538 171.018,196.096 C171.210667,195.654 171.307,195.149667 171.307,194.583 C171.307,194.016333 171.227667,193.523333 171.069,193.104 C170.910333,192.684667 170.6865,192.339 170.3975,192.067 C170.1085,191.795 169.7685,191.591 169.3775,191.455 C168.9865,191.319 168.558667,191.251 168.094,191.251 C167.924,191.251 167.742667,191.2765 167.55,191.3275 C167.357333,191.3785 167.164667,191.452167 166.972,191.5485 C166.779333,191.644833 166.592333,191.763833 166.411,191.9055 C166.229667,192.047167 166.071,192.208667 165.935,192.39 C165.957667,191.766667 166.031333,191.239667 166.156,190.809 C166.280667,190.378333 166.442167,190.029833 166.6405,189.7635 C166.838833,189.497167 167.068333,189.307333 167.329,189.194 C167.589667,189.080667 167.867333,189.024 168.162,189.024 C168.479333,189.024 168.791,189.1005 169.097,189.2535 C169.403,189.4065 169.652333,189.585 169.845,189.789 L169.845,189.789 L171.154,188.293 C170.814,187.941667 170.383333,187.6385 169.862,187.3835 C169.340667,187.1285 168.723,187.001 168.009,187.001 C167.442333,187.001 166.8955,187.117167 166.3685,187.3495 C165.8415,187.581833 165.376833,187.936 164.9745,188.412 C164.572167,188.888 164.249167,189.494333 164.0055,190.231 C163.761833,190.967667 163.64,191.840333 163.64,192.849 C163.64,193.801 163.753333,194.614167 163.98,195.2885 C164.206667,195.962833 164.509833,196.515333 164.8895,196.946 C165.269167,197.376667 165.7055,197.694 166.1985,197.898 C166.6915,198.102 167.198667,198.204 167.72,198.204 Z M167.669,196.334 C167.476333,196.334 167.292167,196.297167 167.1165,196.2235 C166.940833,196.149833 166.779333,196.025167 166.632,195.8495 C166.484667,195.673833 166.354333,195.444333 166.241,195.161 C166.127667,194.877667 166.042667,194.520667 165.986,194.09 C166.212667,193.704667 166.4705,193.429833 166.7595,193.2655 C167.0485,193.101167 167.334667,193.019 167.618,193.019 C168.026,193.019 168.363167,193.135167 168.6295,193.3675 C168.895833,193.599833 169.029,194.005 169.029,194.583 C169.029,195.195 168.895833,195.639833 168.6295,195.9175 C168.363167,196.195167 168.043,196.334 167.669,196.334 Z M176.407,198.204 C176.985,198.204 177.512,198.082167 177.988,197.8385 C178.464,197.594833 178.869167,197.235 179.2035,196.759 C179.537833,196.283 179.7985,195.693667 179.9855,194.991 C180.1725,194.288333 180.266,193.478 180.266,192.56 C180.266,191.642 180.1725,190.837333 179.9855,190.146 C179.7985,189.454667 179.537833,188.873833 179.2035,188.4035 C178.869167,187.933167 178.464,187.581833 177.988,187.3495 C177.512,187.117167 176.985,187.001 176.407,187.001 C175.829,187.001 175.302,187.117167 174.826,187.3495 C174.35,187.581833 173.944833,187.933167 173.6105,188.4035 C173.276167,188.873833 173.0155,189.454667 172.8285,190.146 C172.6415,190.837333 172.548,191.642 172.548,192.56 C172.548,193.478 172.6415,194.288333 172.8285,194.991 C173.0155,195.693667 173.276167,196.283 173.6105,196.759 C173.944833,197.235 174.35,197.594833 174.826,197.8385 C175.302,198.082167 175.829,198.204 176.407,198.204 Z M176.407,196.266 C176.203,196.266 176.010333,196.212167 175.829,196.1045 C175.647667,195.996833 175.489,195.801333 175.353,195.518 C175.217,195.234667 175.109333,194.855 175.03,194.379 C174.950667,193.903 174.911,193.296667 174.911,192.56 C174.911,191.823333 174.950667,191.219833 175.03,190.7495 C175.109333,190.279167 175.217,189.910833 175.353,189.6445 C175.489,189.378167 175.647667,189.194 175.829,189.092 C176.010333,188.99 176.203,188.939 176.407,188.939 C176.622333,188.939 176.820667,188.99 177.002,189.092 C177.183333,189.194 177.342,189.378167 177.478,189.6445 C177.614,189.910833 177.718833,190.279167 177.7925,190.7495 C177.866167,191.219833 177.903,191.823333 177.903,192.56 C177.903,193.296667 177.866167,193.903 177.7925,194.379 C177.718833,194.855 177.614,195.234667 177.478,195.518 C177.342,195.801333 177.183333,195.996833 177.002,196.1045 C176.820667,196.212167 176.622333,196.266 176.407,196.266 Z M184.499,198 L184.499,192.305 C185.020333,191.761 185.496333,191.489 185.927,191.489 C186.289667,191.489 186.553167,191.602333 186.7175,191.829 C186.881833,192.055667 186.964,192.475 186.964,193.087 L186.964,193.087 L186.964,198 L189.463,198 L189.463,192.305 C190.007,191.761 190.488667,191.489 190.908,191.489 C191.270667,191.489 191.534167,191.602333 191.6985,191.829 C191.862833,192.055667 191.945,192.475 191.945,193.087 L191.945,193.087 L191.945,198 L194.444,198 L194.444,192.764 C194.444,191.71 194.2315,190.879833 193.8065,190.2735 C193.3815,189.667167 192.715667,189.364 191.809,189.364 C191.242333,189.364 190.752167,189.502833 190.3385,189.7805 C189.924833,190.058167 189.531,190.389667 189.157,190.775 C188.941667,190.321667 188.649833,189.973167 188.2815,189.7295 C187.913167,189.485833 187.428667,189.364 186.828,189.364 C186.272667,189.364 185.796667,189.4915 185.4,189.7465 C185.003333,190.0015 184.629333,190.304667 184.278,190.656 L184.278,190.656 L184.21,190.656 L184.04,189.568 L182,189.568 L182,198 L184.499,198 Z M199.068,198 L199.068,192.305 C199.589333,191.761 200.065333,191.489 200.496,191.489 C200.858667,191.489 201.122167,191.602333 201.2865,191.829 C201.450833,192.055667 201.533,192.475 201.533,193.087 L201.533,193.087 L201.533,198 L204.032,198 L204.032,192.305 C204.576,191.761 205.057667,191.489 205.477,191.489 C205.839667,191.489 206.103167,191.602333 206.2675,191.829 C206.431833,192.055667 206.514,192.475 206.514,193.087 L206.514,193.087 L206.514,198 L209.013,198 L209.013,192.764 C209.013,191.71 208.8005,190.879833 208.3755,190.2735 C207.9505,189.667167 207.284667,189.364 206.378,189.364 C205.811333,189.364 205.321167,189.502833 204.9075,189.7805 C204.493833,190.058167 204.1,190.389667 203.726,190.775 C203.510667,190.321667 203.218833,189.973167 202.8505,189.7295 C202.482167,189.485833 201.997667,189.364 201.397,189.364 C200.841667,189.364 200.365667,189.4915 199.969,189.7465 C199.572333,190.0015 199.198333,190.304667 198.847,190.656 L198.847,190.656 L198.779,190.656 L198.609,189.568 L196.569,189.568 L196.569,198 L199.068,198 Z" id="660mm" fill="#093169" fill-rule="nonzero" transform="translate(181.838500, 192.602500) rotate(-90.000000) translate(-181.838500, -192.602500) "></path>
    </g>
</svg>